<?xml version="1.0" encoding="UTF-8"?>
<!-- by Tanja Rohlfs (https://consento.org/team/tanja) - license: CC-BY-NC-SA (see: https://creativecommons.org/licenses/by-nc-sa/4.0/) -->
<svg width="500" height="500" xmlns="http://www.w3.org/2000/svg" xmlns:xlink="http://www.w3.org/1999/xlink"><defs><path id="a" d="M.2.12h11.643v11.375H.2z"/></defs><g fill="none" fill-rule="evenodd"><path fill="#FFF" d="M0 0h500v500H0z"/><path d="M72.11 327.057a.79.79 0 00.914.012l11.426-8.748 10.88-8.328c.382-.292.103-.785-.448-.79l-22.094-.27-22.094-.27c-.552-.006-.841.48-.467.781l10.672 8.59 11.21 9.023z" fill="#F03434"/><path d="M132.544 204.674c-36.58 16.271-62.833 50.001-76.376 103.976a.918.918 0 00.87 1.134c9.905.129 30.82.853 30.756-.617-2.673-62.237 27.86-91.33 45.624-102.927.9-.588.112-2.004-.874-1.566m317.278 122.383a.79.79 0 01-.914.012l-11.428-8.748-10.878-8.328c-.382-.292-.104-.785.447-.79l22.094-.27 22.094-.27c.552-.006.842.48.467.781l-10.671 8.59-11.211 9.023z" fill="#F03434"/><path d="M389.387 204.674c36.58 16.271 62.834 50.001 76.377 103.976a.919.919 0 01-.87 1.134c-9.907.129-30.82.853-30.758-.617 2.675-62.237-27.859-91.33-45.622-102.927-.902-.588-.112-2.004.873-1.566" fill="#F03434"/><path fill="#FFF" d="M36.087 408.504h83.063v-48.269H36.087z"/><path d="M119.933 358.664h-84.63a.792.792 0 00-.79.789v49.833c0 .434.356.79.79.79h84.63c.435 0 .79-.356.79-.79v-49.833a.792.792 0 00-.79-.79zm-82.271 48.268h79.915v-45.125H37.662v45.125z" fill="#B5B5B5"/><path d="M135.53 438.543l.784 1.5c.478.915-.152 2.053-1.187 2.07H20.71a1.416 1.416 0 01-1.265-2.044l.878-1.768" fill="#919191"/><path d="M135.53 438.543l.784 1.5c.478.915-.152 2.053-1.187 2.07H20.71a1.416 1.416 0 01-1.265-2.044l.878-1.768" stroke="#919191" stroke-width=".565"/><path d="M133.86 439.54H21.967c-1.243 0-2.024-.458-1.738-1.013l14.501-28.4c.208-.272 1.125-.493 2.038-.493h82.29c.914 0 1.831.22 2.039.493l14.501 28.4c.286.555-.496 1.012-1.738 1.012" fill="#B5B5B5"/><path d="M133.86 439.54H21.967c-1.243 0-2.024-.458-1.738-1.013l14.501-28.4c.208-.272 1.125-.493 2.038-.493h82.29c.914 0 1.831.22 2.039.493l14.501 28.4c.286.555-.496 1.012-1.738 1.012z" stroke="#B5B5B5" stroke-width=".753"/><path d="M104.094 437.314h-52.36c-1.346 0-2.283-.27-2.084-.594l3.05-5.007c.156-.256 1.241-.462 2.414-.462h45.6c1.172 0 2.257.206 2.413.462l3.05 5.007c.2.324-.737.594-2.083.594" fill="#666"/><path d="M122.741 428.871H33.403c-1.179 0-1.927-.496-1.666-1.095l6.214-14.25c.193-.445 1.168-.805 2.17-.805h75.851c1.001 0 1.978.36 2.173.805l6.26 14.25c.263.6-.485 1.095-1.664 1.095" fill="#D3D3D3"/><path d="M122.741 428.871H33.403c-1.179 0-1.927-.496-1.666-1.095l6.214-14.25c.193-.445 1.168-.805 2.17-.805h75.851c1.001 0 1.978.36 2.173.805l6.26 14.25c.263.6-.485 1.095-1.664 1.095zm-87.902-3.81h86.624m-85.791-3.407h84.777m-83.821-3.183h82.866m-82.008-2.98h81.129" stroke="#B5B5B5" stroke-width=".753"/><path d="M354.54 400.672c.123 0 26.756-.097 27.098-.025.343.07-3.91 3.057-3.91 3.057s-12.577 1.223-12.747 1.152c-.172-.07-8.245-3.832-8.245-3.832l-2.195-.352z" fill="#883434"/><path fill="#E0B094" d="M368.432 398.98l-7.784-.748-.233 7.858 8.06.822h.235l8.055-.875-.285-7.857-7.778.8"/><path fill="#AA5D48" d="M360.711 396.44l-.106 3.272 15.863-.41-.01-2.874z"/><path fill="#666" d="M436.925 433.735H473.8v-3.29h-36.875z"/><path d="M466.782 445.547c-3.78 11.912-34.961 31.55-54.827 5.844-45.313 21.477-153.78 4.394-89.725-40.018 9.928-7.007 33.095-12.343 35.566-10.17 8.108 4.565 14.778 4.374 22.026-.517 4.265-2.727 31.062 1.913 50.22 31.403 3.997 6.154 8.168 13.708 14.633 5.848 2.149-2.613.006-6.429-.603-9.757 0 0 25.732-2.876 26.015 1.148.29 4.016-3.305 16.219-3.305 16.219" fill="#FF3434"/><path d="M211.236 406.21c3.658.144 7.425-.947 11.565-3.279 2.47-2.174 25.638 3.164 35.566 10.17 47.889 33.202-.647 51.13-47.132 49.091-46.485 2.04-95.02-15.889-47.132-49.09 9.928-7.007 33.096-12.345 35.567-10.17 4.14 2.331 7.906 3.422 11.564 3.279" fill="#E58585"/><path d="M472.212 434.172h-33.295a1.888 1.888 0 01-1.884-1.88v-73.178c0-1.033.847-1.88 1.884-1.88h33.295c1.034 0 1.883.847 1.883 1.88v73.177a1.89 1.89 0 01-1.883 1.881" fill="#FFF"/><path d="M472.212 434.172h-33.295a1.888 1.888 0 01-1.884-1.88v-73.178c0-1.033.847-1.88 1.884-1.88h33.295c1.034 0 1.883.847 1.883 1.88v73.177a1.89 1.89 0 01-1.883 1.881z" stroke="#666" stroke-width="1.501"/><path d="M463.286 360.714h-15.534a1.887 1.887 0 01-1.883-1.88v-.156c0-1.034.847-1.88 1.883-1.88h15.534c1.036 0 1.883.846 1.883 1.88v.157c0 1.033-.847 1.88-1.883 1.88" fill="#666"/><path d="M440.874 363.625l-.024-.026.024.026m.002.002l-.002-.002.002.002m1.499.264h-.001.001zm-1.525-.292l-.002-.001h.001m1.491.311h-.002l.002-.001m.137-.074a.24.24 0 01-.034.021l.034-.02m-.065.037l-.003.002.003-.002m.03-.017l-.03.017.03-.017m-.033.019l-.034.018.034-.018" fill="#5600B7"/><path d="M436.257 396.62s-9.834 8.098-5.677 12.856c4.157 4.758 11.165 3.301 13.723 2.516 2.528-.777 3.84-3.198 2.696-6.909-.487-1.585-10.567-.742-10.64-2.997a479.04 479.04 0 01-.102-5.466" fill="#E0B094"/><path d="M436.303 401.494c-.774.306-2.712-.01-3.062-.685" fill="#FFF"/><path d="M436.303 401.494c-.774.306-2.712-.01-3.062-.685" stroke="#CC957D" stroke-width=".753"/><path d="M340.02 363.418c0 3.899-2.414 7.061-5.391 7.061-2.979 0-5.393-3.162-5.393-7.06 0-3.9 2.414-7.061 5.393-7.061 2.977 0 5.392 3.161 5.392 7.06m56.569 0c0 3.899 2.414 7.061 5.393 7.061 2.977 0 5.392-3.162 5.392-7.06 0-3.9-2.415-7.061-5.392-7.061-2.979 0-5.393 3.161-5.393 7.06" fill="#E0B094"/><path d="M368.298 312.555c14.148-.302 11.753 5.535 14.061 5.822 2.125.266 5.504-3.595 15.872 4.464 10.36 8.055 3.556 19.364 4.793 19.446 1.235.082 4.118 2.512 4.118 9.667 0 7.156-8.32 11.269-8.32 11.269s6.26 16.78-3.46 26.32c-9.719 9.542-26.934 8.39-26.934 8.39h-.246s-17.215 1.152-26.934-8.39c-9.72-9.54-3.46-26.32-3.46-26.32s-8.318-4.113-8.318-11.269c0-7.155 2.507-9.377 3.742-9.46 1.236-.083-5.192-11.598 5.167-19.653 10.37-8.059 13.747-4.198 15.873-4.464 2.308-.287-.087-6.124 14.06-5.822h-.014z" fill="#383838"/><path d="M368.297 374.585c.47-.06 21.524 3.703 21.524-7.398 0-5.745-.47-10.057-.923-12.878-.388-2.41-.168-4.855.527-7.203.832-2.816.997-6.606-3.559-7.654-5.235-1.203-4.416.393-8.322 4.463-3.031 3.157-15.447 3.157-18.476 0-3.908-4.07-3.089-5.666-8.323-4.463-4.557 1.048-4.392 4.838-3.559 7.654.694 2.348.914 4.792.526 7.203-.453 2.821-.923 7.133-.923 12.878 0 11.101 21.055 7.339 21.524 7.398h-.016z" fill="#E0B094"/><path d="M367.876 365.814l-1.837 5.542a.457.457 0 00.435.6h3.673a.458.458 0 00.436-.6l-1.837-5.542a.459.459 0 00-.87 0" fill="#DF715C"/><path d="M355.7 360.315c0 2.253-1.078 4.08-2.407 4.08-1.33 0-2.406-1.827-2.406-4.08 0-2.252 1.076-4.079 2.406-4.079s2.407 1.827 2.407 4.079" fill="#383838"/><path d="M358.955 362.853s.577 2.074-2.077 3.513" stroke="#383838" stroke-width=".787" stroke-linecap="round"/><path d="M380.91 360.315c0 2.253 1.078 4.08 2.408 4.08 1.328 0 2.406-1.827 2.406-4.08 0-2.252-1.078-4.079-2.406-4.079-1.33 0-2.407 1.827-2.407 4.079" fill="#383838"/><path d="M377.656 362.853s-.577 2.074 2.076 3.513" stroke="#383838" stroke-width=".787" stroke-linecap="round"/><path d="M373.23 382.532c0 2.083-9.83 2.083-9.83 0" stroke="#DF715C" stroke-width=".787"/><path d="M329.24 439.605c.606.19 41.309 8.187 73.55.38" stroke="#FFF" stroke-width="2.259"/><path d="M411.954 451.391l-16.135-23.093s9.354 25.865 9.561 25.792c.208-.074 6.574-2.699 6.574-2.699m-85.398 4.841l3.122-25.046c.031-.244.392-.225.394.022l-.96 25.684-2.556-.66z" fill="#BF0000"/><path d="M165.434 457.049l3.121-14.939c.032-.14.392-.128.394.014l-1.15 15.649-2.365-.724zm90.068.479c.01-.021-3.13-14.988-3.13-14.988-.03-.14-.392-.128-.394.013l1.146 15.652s2.258-.64 2.378-.677" fill="#883434"/><path d="M380.104 116.496c-5.664 19.316-20.858 34.578-40.183 40.295-30.185 8.93-58.469-4.533-72.085-27.659a5.47 5.47 0 00-4.71-2.71H211.27l-8.742-8.729c-1.639-1.636-3.279-1.636-3.279-1.636h-25.677c-2.185 0-3.278 1.09-3.278 1.09l-15.844 12.004-26.965-33.79a1.515 1.515 0 01.183-2.082l26.782-23.596h108.516a5.478 5.478 0 004.727-2.738c10.698-18.348 30.61-30.675 53.392-30.675 40.13 0 71.326 38.25 59.019 80.226" fill="#FFF"/><path d="M248.729 91.926c0 3.11-2.53 5.647-5.644 5.647-47.188.094-97.899.146-109.092.03L149.69 85.54c.324.449.867.74 1.484.74h91.9c3.114 0 5.654 2.537 5.654 5.647m119.24 5.994c0 12.958-10.519 23.46-23.493 23.46-12.976 0-23.493-10.502-23.493-23.46 0-12.956 10.517-23.46 23.493-23.46 12.974 0 23.493 10.504 23.493 23.46" fill="#FFF"/><path d="M344.475 76.337c-11.918 0-21.615 9.683-21.615 21.584s9.697 21.585 21.615 21.585c11.917 0 21.614-9.684 21.614-21.585 0-11.901-9.697-21.584-21.614-21.584m0 46.92c-13.99 0-25.371-11.366-25.371-25.336 0-13.97 11.381-25.335 25.37-25.335 13.99 0 25.372 11.365 25.372 25.335s-11.382 25.336-25.371 25.336" fill="#263238"/><path d="M143.933 118.982l4.015-.994-13.276-16.627c5.246.042 16.272.063 29.923.063 23.787 0 55.549-.053 78.5-.095 5.174-.01 9.385-4.226 9.385-9.402 0-5.189-4.222-9.405-9.406-9.405h-91.9a1.879 1.879 0 00-1.88 1.88c0 .426.146.824.396 1.137.324.449.868.741 1.484.741h91.9c3.115 0 5.655 2.536 5.655 5.647a5.65 5.65 0 01-5.644 5.645c-47.189.095-97.9.146-109.093.032-1.223 0-1.965-.011-2.195-.032-.052-.01-.094-.01-.156-.01l-2.477-3.1 25.992-22.908h107.807a7.373 7.373 0 006.355-3.665c10.692-18.347 30.528-29.745 51.767-29.745 19.031 0 36.506 8.737 47.94 23.975 11.455 15.268 14.831 34.9 9.282 53.854-1.904 6.477-4.975 12.498-8.93 17.848 1.333.399 2.621.802 3.87 1.207a61.488 61.488 0 008.654-18.002c5.895-20.1 2.3-40.932-9.877-57.151-12.144-16.198-30.706-25.477-50.94-25.477-22.565 0-43.645 12.107-55.017 31.602a3.607 3.607 0 01-3.104 1.807H153.735l-27.309 24.066a3.383 3.383 0 00-.408 4.655l17.915 22.454z" fill="#263238"/><path d="M157.466 141.24c0 .502-.188.94-.533 1.263-.313.303-.752.49-1.233.49h-5.8c-.502 0-.941-.187-1.265-.531-.303-.282-.491-.72-.491-1.221 0-.48.177-.908.512-1.242a1.68 1.68 0 011.244-.522h1.264v-7.014l-.533.261c-.742.313-1.578.24-2.111-.292a1.81 1.81 0 01-.512-1.263c0-.71.376-1.305 1.035-1.628l2.54-1.315c.323-.167.647-.25.96-.25h.398c.502 0 .951.198 1.317.552.345.324.543.794.543 1.315v9.634h.9c.47 0 .919.188 1.253.522.335.334.512.761.512 1.242m-3.302 20.028c-.408.636-.93.929-1.694.929-.773 0-1.296-.293-1.703-.93-.48-.75-.72-1.857-.72-3.276 0-1.41.24-2.505.72-3.257.407-.636.93-.929 1.703-.929.763 0 1.286.293 1.694.93.48.75.72 1.847.72 3.256 0 1.42-.24 2.525-.72 3.277m2.853-8.746c-1.056-1.472-2.592-2.223-4.547-2.223-1.975 0-3.51.751-4.567 2.223-.982 1.367-1.484 3.214-1.484 5.469 0 2.254.502 4.101 1.484 5.469 1.057 1.471 2.592 2.223 4.567 2.223 1.955 0 3.491-.752 4.547-2.213.993-1.378 1.505-3.225 1.505-5.48 0-2.254-.512-4.101-1.505-5.468m.449 33.732c0 .49-.188.918-.533 1.252a1.74 1.74 0 01-1.233.49h-5.8c-.492 0-.92-.166-1.244-.5a1.717 1.717 0 01-.512-1.242c0-.47.177-.898.491-1.232a1.73 1.73 0 011.265-.532h1.275v-7.014l-.533.261c-.345.146-.617.209-.857.209-.492 0-.93-.177-1.265-.501-.334-.334-.502-.772-.502-1.263 0-.71.366-1.304 1.014-1.618l2.54-1.325a2.09 2.09 0 01.972-.24h.397c.502 0 .962.188 1.317.543.355.354.543.803.543 1.315v9.633h.9c.48 0 .908.177 1.243.511.345.345.522.773.522 1.253m-3.302 20.028c-.408.637-.93.918-1.694.918-.773 0-1.296-.281-1.703-.918-.48-.751-.72-1.858-.72-3.277 0-1.41.24-2.505.72-3.256.407-.637.93-.93 1.703-.93.763 0 1.286.293 1.694.93.48.751.72 1.847.72 3.256 0 1.42-.24 2.526-.72 3.277m2.853-8.757c-1.056-1.46-2.592-2.212-4.547-2.212-1.975 0-3.51.751-4.567 2.223-.982 1.367-1.484 3.214-1.484 5.469 0 2.254.502 4.102 1.484 5.469 1.057 1.471 2.592 2.223 4.567 2.223 1.955 0 3.491-.752 4.547-2.223.993-1.367 1.505-3.215 1.505-5.47 0-2.254-.512-4.1-1.505-5.479m22.596-43.365c0 .49-.178.93-.523 1.253a1.792 1.792 0 01-1.243.5h-5.8c-.482 0-.91-.177-1.245-.51a1.708 1.708 0 01-.501-1.243c0-.47.167-.897.491-1.231a1.69 1.69 0 011.254-.533h1.275v-7.013l-.533.26c-.345.147-.606.21-.857.21-.491 0-.93-.167-1.264-.501a1.782 1.782 0 01-.502-1.263c0-.71.376-1.294 1.014-1.618l2.55-1.325a2.02 2.02 0 01.961-.24h.398c.501 0 .961.187 1.316.542.356.355.544.804.544 1.315v9.633h.899c.48 0 .909.178 1.254.522.334.334.512.762.512 1.242m-3.293 20.029c-.417.636-.94.928-1.703.928-.763 0-1.285-.292-1.693-.928-.48-.752-.731-1.858-.731-3.278 0-1.409.25-2.504.731-3.256.408-.637.93-.929 1.693-.929s1.286.292 1.704.93c.47.75.721 1.846.721 3.255 0 1.42-.25 2.526-.721 3.278m2.853-8.747c-1.066-1.471-2.602-2.223-4.557-2.223-1.975 0-3.511.752-4.567 2.223-.982 1.368-1.484 3.215-1.484 5.47 0 2.254.502 4.101 1.484 5.468 1.056 1.472 2.592 2.223 4.567 2.223 1.955 0 3.491-.751 4.557-2.212.993-1.378 1.495-3.225 1.495-5.48 0-2.254-.502-4.101-1.495-5.469m.439 33.732c0 .491-.178.919-.523 1.253-.344.323-.773.49-1.243.49h-5.8a1.713 1.713 0 01-1.746-1.743c0-.47.167-.897.491-1.231a1.69 1.69 0 011.254-.532h1.275v-7.014l-.533.26c-.345.147-.606.21-.857.21-.491 0-.93-.178-1.264-.501a1.782 1.782 0 01-.502-1.263c0-.71.376-1.305 1.014-1.618l2.55-1.325a2.02 2.02 0 01.961-.24h.398c.501 0 .961.187 1.316.542.356.355.544.804.544 1.315v9.634h.899c.48 0 .909.177 1.254.511.334.344.512.772.512 1.252m-3.293 20.029c-.417.636-.94.918-1.703.918-.763 0-1.285-.282-1.693-.918-.48-.752-.731-1.858-.731-3.277 0-1.41.25-2.505.731-3.257.408-.636.93-.929 1.693-.929s1.286.293 1.704.93c.47.75.721 1.847.721 3.256 0 1.42-.25 2.525-.721 3.277m2.853-8.757c-1.066-1.46-2.602-2.212-4.557-2.212-1.975 0-3.511.751-4.567 2.223-.982 1.367-1.484 3.214-1.484 5.469 0 2.254.502 4.101 1.484 5.469 1.056 1.471 2.592 2.223 4.567 2.223 1.955 0 3.491-.752 4.557-2.223.993-1.368 1.495-3.215 1.495-5.47 0-2.254-.502-4.101-1.495-5.479m21.656-69.812a1.75 1.75 0 01-1.777 1.743h-5.8c-.481 0-.91-.177-1.244-.511a1.709 1.709 0 01-.502-1.232c0-.48.167-.897.491-1.242a1.697 1.697 0 011.255-.522h1.275v-7.024l-.533.272c-.345.146-.607.208-.857.208a1.73 1.73 0 01-1.255-.511 1.724 1.724 0 01-.512-1.253c0-.71.376-1.304 1.024-1.628l2.54-1.325a2.19 2.19 0 01.972-.24h.387c.512 0 .961.188 1.317.543.355.354.543.814.543 1.315v9.643h.9c.48 0 .919.178 1.253.512.345.334.523.772.523 1.252m-3.303 20.018c-.408.647-.93.93-1.704.93-.763 0-1.285-.283-1.693-.93-.48-.751-.72-1.847-.72-3.277 0-1.398.24-2.494.72-3.246.408-.647.93-.929 1.693-.929.774 0 1.296.282 1.704.93.48.75.721 1.847.721 3.245 0 1.43-.24 2.526-.721 3.277m2.853-8.746c-1.066-1.471-2.592-2.212-4.557-2.212-1.965 0-3.5.74-4.556 2.212-.993 1.378-1.485 3.215-1.485 5.47 0 2.264.492 4.1 1.485 5.478 1.055 1.472 2.591 2.213 4.556 2.213 1.965 0 3.491-.74 4.557-2.213.993-1.377 1.495-3.214 1.495-5.479 0-2.254-.502-4.091-1.495-5.469m.45 33.743a1.75 1.75 0 01-1.777 1.742h-5.8c-.481 0-.91-.177-1.244-.511a1.709 1.709 0 01-.502-1.232c0-.48.167-.897.491-1.242a1.697 1.697 0 011.255-.522h1.275v-7.024l-.533.261c-.345.157-.607.22-.857.22a1.73 1.73 0 01-1.255-.512 1.724 1.724 0 01-.512-1.252c0-.71.376-1.305 1.024-1.628l2.54-1.326a2.19 2.19 0 01.972-.24h.387c.512 0 .961.188 1.317.543.355.355.543.814.543 1.315v9.643h.9c.48 0 .919.178 1.253.512.345.334.523.772.523 1.252m-3.303 20.018c-.408.647-.93.93-1.704.93-.763 0-1.285-.283-1.693-.93-.48-.751-.72-1.847-.72-3.277 0-1.409.24-2.494.72-3.256.408-.637.93-.919 1.693-.919.774 0 1.296.282 1.704.919.48.762.721 1.858.721 3.256 0 1.43-.24 2.526-.721 3.277m2.853-8.746c-1.066-1.471-2.592-2.212-4.557-2.212-1.965 0-3.5.74-4.556 2.212-.993 1.378-1.485 3.215-1.485 5.47 0 2.264.492 4.1 1.485 5.479 1.055 1.471 2.591 2.212 4.556 2.212 1.965 0 3.491-.74 4.557-2.212.993-1.378 1.495-3.215 1.495-5.48 0-2.254-.502-4.091-1.495-5.469m167.454-46.538c-.408.647-.93.929-1.704.929-.763 0-1.285-.282-1.693-.93-.48-.75-.721-1.846-.721-3.266 0-1.409.24-2.505.721-3.256.408-.647.93-.929 1.693-.929.774 0 1.296.282 1.704.929.48.751.721 1.847.721 3.256 0 1.42-.24 2.515-.721 3.267m2.853-8.746c-1.066-1.472-2.592-2.213-4.557-2.213-1.965 0-3.501.741-4.557 2.213-.993 1.377-1.494 3.214-1.494 5.48 0 2.254.501 4.09 1.494 5.468 1.056 1.472 2.592 2.213 4.557 2.213 1.965 0 3.491-.741 4.557-2.213.993-1.378 1.495-3.214 1.495-5.469 0-2.265-.502-4.102-1.495-5.48m.439 33.744c0 .48-.178.918-.523 1.252-.345.323-.763.49-1.243.49h-5.8c-.482 0-.91-.177-1.245-.51a1.709 1.709 0 01-.501-1.232c0-.48.167-.898.49-1.242a1.697 1.697 0 011.255-.522h1.275v-7.024l-.533.271c-.345.146-.606.209-.857.209-.491 0-.93-.178-1.254-.512a1.724 1.724 0 01-.512-1.252c0-.71.376-1.305 1.024-1.628l2.54-1.326c.313-.156.637-.24.961-.24h.397c.502 0 .962.188 1.317.543.356.355.544.814.544 1.315v9.644h.899a1.746 1.746 0 011.766 1.764m0 22.502c0 .49-.178.918-.523 1.252-.345.324-.763.49-1.243.49h-5.8c-.482 0-.91-.166-1.245-.5a1.75 1.75 0 01-.501-1.242c0-.47.167-.898.49-1.232a1.707 1.707 0 011.255-.532h1.275v-7.014l-.533.261c-.345.146-.606.209-.857.209-.491 0-.93-.178-1.254-.501a1.748 1.748 0 01-.512-1.263c0-.71.376-1.305 1.024-1.628l2.54-1.315a2.02 2.02 0 01.961-.24h.397c.502 0 .962.188 1.317.542.356.355.544.804.544 1.315v9.634h.899a1.746 1.746 0 011.766 1.764m-3.292 20.028c-.408.637-.93.918-1.704.918-.763 0-1.285-.281-1.693-.918-.48-.752-.721-1.858-.721-3.277 0-1.41.24-2.505.721-3.257.408-.636.93-.929 1.693-.929.774 0 1.296.293 1.704.93.48.75.721 1.847.721 3.256 0 1.42-.24 2.525-.721 3.277m2.853-8.757c-1.066-1.46-2.592-2.212-4.557-2.212-1.965 0-3.501.751-4.557 2.223-.993 1.367-1.494 3.214-1.494 5.469 0 2.254.501 4.101 1.494 5.469 1.056 1.471 2.592 2.223 4.557 2.223 1.965 0 3.491-.752 4.557-2.223.993-1.368 1.495-3.215 1.495-5.47 0-2.254-.502-4.101-1.495-5.479m-26.16-39.065c-.408.637-.93.93-1.693.93-.774 0-1.296-.293-1.704-.93-.48-.751-.721-1.858-.721-3.277 0-1.409.24-2.505.721-3.256.408-.637.93-.93 1.704-.93.763 0 1.285.293 1.693.93.48.751.72 1.847.72 3.256 0 1.42-.24 2.526-.72 3.277m2.853-8.756c-1.066-1.462-2.592-2.213-4.546-2.213-1.976 0-3.512.751-4.568 2.223-.982 1.367-1.484 3.215-1.484 5.469 0 2.254.502 4.102 1.484 5.469 1.056 1.472 2.592 2.222 4.568 2.222 1.954 0 3.48-.75 4.546-2.212.993-1.377 1.495-3.225 1.495-5.479s-.502-4.102-1.495-5.48m.45 33.743c0 .49-.189.919-.533 1.253a1.74 1.74 0 01-1.234.49h-5.81c-.481 0-.91-.167-1.244-.5a1.75 1.75 0 01-.502-1.243c0-.47.167-.897.491-1.231a1.724 1.724 0 011.254-.533h1.275v-7.013l-.533.26c-.334.147-.606.21-.846.21a1.77 1.77 0 01-1.265-.502c-.334-.334-.502-.772-.502-1.262 0-.71.366-1.305 1.014-1.629l2.54-1.315a2.09 2.09 0 01.972-.24h.387c.512 0 .961.188 1.317.543.355.355.543.804.543 1.315v9.633h.91c.48 0 .909.178 1.243.512.345.344.523.772.523 1.252m0 22.512c0 .48-.189.919-.533 1.253a1.74 1.74 0 01-1.234.49h-5.81c-.481 0-.91-.177-1.244-.511a1.709 1.709 0 01-.502-1.232c0-.48.167-.897.491-1.242a1.714 1.714 0 011.254-.522h1.275v-7.024l-.533.261c-.334.157-.606.22-.846.22-.502 0-.93-.178-1.265-.512a1.715 1.715 0 01-.502-1.252c0-.71.366-1.305 1.014-1.628l2.54-1.326c.324-.156.648-.24.972-.24h.387c.512 0 .961.188 1.317.543.355.355.543.814.543 1.315v9.643h.91c.48 0 .909.178 1.243.512.345.334.523.772.523 1.252m-3.303 20.018c-.408.637-.93.93-1.693.93-.774 0-1.296-.293-1.704-.93-.48-.752-.721-1.847-.721-3.277 0-1.398.24-2.494.721-3.257.408-.636.93-.918 1.704-.918.763 0 1.285.282 1.693.918.48.763.72 1.86.72 3.257 0 1.43-.24 2.525-.72 3.277m2.853-8.746c-1.066-1.472-2.592-2.213-4.546-2.213-1.976 0-3.512.741-4.568 2.213-.982 1.377-1.484 3.214-1.484 5.469 0 2.264.502 4.101 1.484 5.479 1.056 1.473 2.592 2.213 4.568 2.213 1.954 0 3.48-.74 4.546-2.213.993-1.378 1.495-3.215 1.495-5.48 0-2.254-.502-4.09-1.495-5.468m-26.16-78.475c-.407.647-.93.929-1.693.929s-1.296-.282-1.704-.93c-.48-.75-.72-1.846-.72-3.266 0-1.409.24-2.505.72-3.256.408-.647.941-.929 1.704-.929s1.286.282 1.693.929c.48.751.732 1.847.732 3.256 0 1.42-.251 2.515-.732 3.267m2.853-8.746c-1.055-1.472-2.592-2.213-4.546-2.213-1.975 0-3.512.741-4.567 2.213-.983 1.377-1.484 3.214-1.484 5.48 0 2.254.501 4.09 1.484 5.468 1.055 1.472 2.592 2.213 4.567 2.213 1.954 0 3.49-.741 4.546-2.213.993-1.378 1.505-3.214 1.505-5.469 0-2.265-.512-4.102-1.505-5.48m.45 33.744c0 .48-.189.918-.534 1.252-.334.323-.762.49-1.232.49h-5.801c-.481 0-.92-.177-1.244-.51a1.676 1.676 0 01-.512-1.232c0-.48.177-.898.491-1.242a1.72 1.72 0 011.265-.522h1.275v-7.024l-.533.271c-.345.146-.606.209-.857.209-.492 0-.93-.178-1.265-.512a1.757 1.757 0 01-.502-1.252c0-.71.367-1.305 1.014-1.628l2.54-1.326c.324-.156.648-.24.972-.24h.397c.502 0 .962.188 1.317.543.356.355.543.814.543 1.315v9.644h.9c.481 0 .908.177 1.253.511.335.334.513.772.513 1.253m0 22.502c0 .49-.189.918-.534 1.252-.334.324-.762.49-1.232.49h-5.801c-.481 0-.92-.166-1.244-.5a1.717 1.717 0 01-.512-1.242c0-.47.177-.898.491-1.232a1.73 1.73 0 011.265-.532h1.275v-7.014l-.533.261c-.345.146-.606.209-.857.209a1.79 1.79 0 01-1.265-.501 1.782 1.782 0 01-.502-1.263c0-.71.367-1.305 1.014-1.628l2.54-1.315a2.09 2.09 0 01.972-.24h.397c.502 0 .962.188 1.317.542.356.355.543.804.543 1.315v9.634h.9c.481 0 .908.177 1.253.511.335.345.513.772.513 1.253m-3.303 20.028c-.407.637-.93.918-1.693.918s-1.296-.281-1.704-.918c-.48-.752-.72-1.858-.72-3.277 0-1.41.24-2.505.72-3.257.408-.636.941-.929 1.704-.929s1.286.293 1.693.93c.48.75.732 1.847.732 3.256 0 1.42-.251 2.525-.732 3.277m2.853-8.757c-1.055-1.46-2.592-2.212-4.546-2.212-1.975 0-3.512.751-4.567 2.223-.983 1.367-1.484 3.214-1.484 5.469 0 2.254.501 4.101 1.484 5.469 1.055 1.471 2.592 2.223 4.567 2.223 1.954 0 3.49-.752 4.546-2.223.993-1.368 1.505-3.215 1.505-5.47 0-2.254-.512-4.101-1.505-5.479m-77.995-80.407a.762.762 0 01-.225-.562c0-.225.075-.416.225-.572a.748.748 0 01.564-.235h2.235v-9.509l-1.916.938a1.16 1.16 0 01-.431.112.79.79 0 01-.583-.224.785.785 0 01-.226-.582c0-.35.163-.606.489-.769l2.554-1.332c.175-.087.35-.131.526-.131h.394c.25 0 .464.087.64.263a.869.869 0 01.261.637v10.597h1.86c.226 0 .416.078.574.235a.781.781 0 01.234.572.75.75 0 01-.234.562.8.8 0 01-.574.226h-5.803a.764.764 0 01-.564-.226" fill="#37B1CC"/><path d="M252.445 129.93h-5.804c-.481 0-.91-.176-1.242-.508a1.714 1.714 0 01-.505-1.238c0-.473.17-.899.492-1.234.332-.347.766-.53 1.255-.53h1.277v-7.016l-.535.261c-.341.149-.607.211-.853.211-.495 0-.93-.175-1.26-.506a1.736 1.736 0 01-.508-1.258c0-.71.371-1.302 1.02-1.625l2.539-1.324a2.13 2.13 0 01.969-.24h.394c.505 0 .96.187 1.316.542.356.356.544.81.544 1.316v9.64h.901c.48 0 .914.177 1.25.513.34.339.517.771.517 1.25 0 .487-.182.92-.528 1.253a1.758 1.758 0 01-1.239.492m-1.532 18.273c-.407.647-.93.929-1.693.929-.773 0-1.296-.282-1.704-.93-.48-.75-.72-1.846-.72-3.266 0-1.409.24-2.505.72-3.256.408-.647.93-.93 1.704-.93.763 0 1.286.283 1.693.93.48.751.721 1.847.721 3.256 0 1.42-.24 2.515-.72 3.267m2.852-8.746c-1.066-1.472-2.592-2.213-4.546-2.213-1.975 0-3.512.741-4.567 2.223-.983 1.367-1.484 3.204-1.484 5.47 0 2.253.501 4.1 1.484 5.468 1.055 1.472 2.592 2.223 4.567 2.223 1.954 0 3.48-.751 4.546-2.223.993-1.367 1.495-3.215 1.495-5.469 0-2.265-.502-4.102-1.495-5.48m.45 33.743c0 .49-.188.918-.533 1.252a1.74 1.74 0 01-1.233.49h-5.811c-.481 0-.91-.177-1.244-.5a1.75 1.75 0 01-.502-1.242c0-.47.168-.898.492-1.232a1.707 1.707 0 011.254-.532h1.275v-7.014l-.533.261c-.335.146-.606.21-.847.21-.501 0-.93-.178-1.264-.512a1.707 1.707 0 01-.513-1.253c0-.71.377-1.304 1.025-1.628l2.54-1.324a2.2 2.2 0 01.971-.241h.387c.512 0 .962.187 1.317.542.355.355.543.814.543 1.315v9.644h.91c.48 0 .909.177 1.243.511.345.345.523.773.523 1.253m-3.303 20.018c-.407.647-.93.929-1.693.929-.773 0-1.296-.282-1.704-.929-.48-.751-.72-1.847-.72-3.267 0-1.409.24-2.505.72-3.256.408-.647.93-.929 1.704-.929.763 0 1.286.282 1.693.929.48.751.721 1.847.721 3.256 0 1.42-.24 2.516-.72 3.267m2.852-8.746c-1.066-1.472-2.592-2.213-4.546-2.213-1.975 0-3.512.741-4.567 2.213-.983 1.378-1.484 3.215-1.484 5.48 0 2.254.501 4.09 1.484 5.468 1.055 1.472 2.592 2.223 4.567 2.223 1.954 0 3.48-.751 4.546-2.223.993-1.367 1.495-3.214 1.495-5.469 0-2.264-.502-4.101-1.495-5.48m-18.812-1.669c0 .49-.188.918-.533 1.252a1.74 1.74 0 01-1.234.491h-5.8c-.491 0-.92-.177-1.244-.511a1.676 1.676 0 01-.512-1.232c0-.47.178-.898.491-1.232a1.69 1.69 0 011.265-.532h1.275v-7.013l-.544.26c-.334.147-.606.21-.846.21-.491 0-.93-.178-1.265-.512-.334-.324-.501-.762-.501-1.253 0-.71.365-1.304 1.013-1.628l2.54-1.325c.324-.157.648-.24.972-.24h.397a1.854 1.854 0 011.861 1.858v9.643h.898c.481 0 .91.178 1.244.512.345.344.523.772.523 1.252m-3.304 20.018c-.407.647-.93.93-1.692.93-.774 0-1.296-.283-1.704-.93-.48-.751-.721-1.847-.721-3.267 0-1.409.24-2.504.721-3.256.408-.647.93-.929 1.704-.929.763 0 1.285.282 1.693.93.48.75.721 1.846.721 3.255 0 1.42-.24 2.516-.721 3.267m2.853-8.746c-1.055-1.472-2.592-2.213-4.546-2.213-1.976 0-3.512.741-4.568 2.213-.982 1.378-1.484 3.215-1.484 5.48 0 2.254.502 4.09 1.484 5.468 1.056 1.472 2.592 2.213 4.568 2.213 1.954 0 3.49-.741 4.546-2.213.993-1.377 1.495-3.214 1.495-5.469 0-2.264-.502-4.101-1.495-5.479m.45 33.742c0 .48-.188.919-.533 1.253a1.74 1.74 0 01-1.234.49h-5.8a1.69 1.69 0 01-1.244-.51 1.68 1.68 0 01-.512-1.233c0-.47.178-.897.491-1.231a1.69 1.69 0 011.265-.533h1.275v-7.024l-.544.272c-.334.146-.606.208-.846.208-.491 0-.93-.177-1.265-.51a1.715 1.715 0 01-.501-1.253c0-.71.365-1.305 1.013-1.629l2.54-1.325c.324-.157.648-.24.972-.24h.397c.502 0 .951.188 1.317.543.356.355.544.814.544 1.315v9.643h.898c.481 0 .91.178 1.244.512.345.334.523.772.523 1.252m-3.304 20.019c-.407.646-.93.929-1.692.929-.774 0-1.296-.283-1.704-.93-.48-.752-.721-1.848-.721-3.277 0-1.398.24-2.494.721-3.245.408-.647.93-.93 1.704-.93.763 0 1.285.283 1.693.918.48.763.721 1.86.721 3.257 0 1.43-.24 2.525-.721 3.278m2.853-8.747c-1.055-1.47-2.592-2.212-4.546-2.212-1.976 0-3.512.741-4.568 2.212-.982 1.377-1.484 3.214-1.484 5.469 0 2.264.502 4.101 1.484 5.479 1.056 1.473 2.592 2.213 4.568 2.213 1.954 0 3.49-.74 4.546-2.213.993-1.378 1.495-3.215 1.495-5.48 0-2.254-.502-4.09-1.495-5.468m35.671-88.703c-.408.647-.93.929-1.704.929-.763 0-1.285-.282-1.693-.93-.48-.75-.72-1.846-.72-3.266 0-1.409.24-2.505.72-3.256.408-.647.93-.929 1.693-.929.774 0 1.296.282 1.704.929.48.751.721 1.847.721 3.256 0 1.42-.24 2.515-.721 3.267m2.853-8.746c-1.066-1.472-2.592-2.213-4.557-2.213-1.965 0-3.5.741-4.557 2.213-.982 1.377-1.484 3.214-1.484 5.48 0 2.254.502 4.09 1.484 5.468 1.057 1.472 2.592 2.213 4.557 2.213 1.965 0 3.491-.741 4.557-2.213.993-1.378 1.495-3.214 1.495-5.469 0-2.265-.502-4.102-1.495-5.48m.45 33.744c0 .48-.188.918-.533 1.252a1.74 1.74 0 01-1.234.49h-5.81c-.481 0-.91-.177-1.244-.51a1.709 1.709 0 01-.502-1.232c0-.48.167-.898.491-1.242a1.697 1.697 0 011.254-.522h1.276v-7.024l-.533.271c-.335.146-.607.209-.847.209-.502 0-.93-.178-1.265-.512a1.724 1.724 0 01-.512-1.252c0-.71.376-1.305 1.024-1.628l2.54-1.326a2.19 2.19 0 01.972-.24h.387c.512 0 .961.188 1.317.543.355.355.543.814.543 1.315v9.644h.91c.48 0 .909.177 1.243.511.345.334.523.772.523 1.253m0 22.502c0 .49-.188.918-.533 1.252a1.74 1.74 0 01-1.234.49h-5.81c-.481 0-.91-.166-1.244-.5a1.75 1.75 0 01-.502-1.242c0-.47.167-.898.491-1.232a1.707 1.707 0 011.254-.532h1.276v-7.014l-.533.261c-.335.146-.607.209-.847.209a1.77 1.77 0 01-1.265-.501 1.748 1.748 0 01-.512-1.263c0-.71.376-1.305 1.024-1.628l2.54-1.315a2.06 2.06 0 01.972-.24h.387c.512 0 .961.188 1.317.542.355.355.543.804.543 1.315v9.634h.91c.48 0 .909.177 1.243.511.345.345.523.772.523 1.253m-3.303 20.028c-.408.637-.93.918-1.704.918-.763 0-1.285-.281-1.693-.918-.48-.752-.72-1.858-.72-3.277 0-1.41.24-2.505.72-3.257.408-.636.93-.929 1.693-.929.774 0 1.296.293 1.704.93.48.75.721 1.847.721 3.256 0 1.42-.24 2.525-.721 3.277m2.853-8.757c-1.066-1.46-2.592-2.212-4.557-2.212-1.965 0-3.5.751-4.557 2.223-.982 1.367-1.484 3.214-1.484 5.469 0 2.254.502 4.101 1.484 5.469 1.057 1.471 2.592 2.223 4.557 2.223 1.965 0 3.491-.752 4.557-2.223.993-1.368 1.495-3.215 1.495-5.47 0-2.254-.502-4.101-1.495-5.479m16.409-83.453c-.407.636-.93.929-1.703.929-.763 0-1.286-.293-1.694-.93-.48-.75-.72-1.857-.72-3.276 0-1.41.24-2.505.72-3.257.408-.636.93-.918 1.694-.918.773 0 1.296.282 1.703.918.48.752.721 1.848.721 3.257 0 1.419-.24 2.525-.72 3.277m2.852-8.746c-1.066-1.472-2.592-2.223-4.556-2.223-1.965 0-3.502.751-4.557 2.223-.993 1.377-1.495 3.214-1.495 5.469 0 2.264.502 4.101 1.495 5.479 1.055 1.472 2.592 2.213 4.557 2.213 1.964 0 3.49-.741 4.556-2.213.993-1.378 1.495-3.215 1.495-5.48 0-2.254-.502-4.09-1.495-5.468m.44 33.732c0 .49-.178.929-.523 1.252a1.756 1.756 0 01-1.244.501h-5.8c-.481 0-.91-.177-1.244-.511a1.75 1.75 0 01-.502-1.242c0-.47.167-.898.491-1.232a1.707 1.707 0 011.254-.532h1.275v-7.014l-.533.261c-.344.146-.606.209-.857.209-.49 0-.93-.167-1.254-.501a1.73 1.73 0 01-.512-1.263c0-.71.376-1.294 1.024-1.618l2.54-1.325a2.05 2.05 0 01.962-.24h.397c.501 0 .961.188 1.317.543.355.354.543.803.543 1.315v9.633h.899c.48 0 .92.177 1.254.522.335.334.512.772.512 1.242m.001 22.512c0 .49-.178.918-.523 1.252-.335.324-.763.49-1.244.49h-5.8c-.481 0-.91-.177-1.244-.5a1.75 1.75 0 01-.502-1.242c0-.47.167-.898.491-1.232a1.707 1.707 0 011.254-.532h1.275v-7.014l-.533.261c-.344.146-.606.21-.857.21-.49 0-.93-.178-1.254-.512a1.707 1.707 0 01-.512-1.253c0-.71.376-1.304 1.024-1.628l2.54-1.324a2.17 2.17 0 01.962-.241h.397c.501 0 .961.187 1.317.542.355.355.543.814.543 1.315v9.644h.899a1.746 1.746 0 011.766 1.764m-3.292 20.018c-.407.647-.93.929-1.703.929-.763 0-1.286-.282-1.694-.929-.48-.751-.72-1.847-.72-3.267 0-1.409.24-2.505.72-3.256.408-.647.93-.929 1.694-.929.773 0 1.296.282 1.703.929.48.751.721 1.847.721 3.256 0 1.42-.24 2.516-.72 3.267m2.852-8.746c-1.066-1.472-2.592-2.213-4.556-2.213-1.965 0-3.502.741-4.557 2.213-.993 1.378-1.495 3.215-1.495 5.48 0 2.254.502 4.09 1.495 5.468 1.055 1.472 2.592 2.223 4.557 2.223 1.964 0 3.49-.751 4.556-2.223.993-1.367 1.495-3.214 1.495-5.469 0-2.264-.502-4.101-1.495-5.48m171.624 188.108c-.267 0-.449.1-.589.322-.172.269-.26.663-.26 1.172 0 .513.088.91.26 1.18a.686.686 0 001.176 0v-.002c.173-.267.26-.664.26-1.178 0-.51-.087-.904-.26-1.172a.633.633 0 00-.587-.322m0 4.358c-.737 0-1.313-.28-1.709-.831v-.001c-.367-.512-.553-1.196-.553-2.032 0-.837.186-1.52.553-2.032.395-.552.971-.831 1.709-.831.732 0 1.306.279 1.704.83.37.512.556 1.196.556 2.033s-.187 1.521-.556 2.033c-.399.55-.973.83-1.704.83m1.185 8.191h-2.13a.674.674 0 01-.682-.68.681.681 0 01.682-.69h.427v-2.468l-.137.068c-.393.17-.625.078-.821-.115a.68.68 0 01-.2-.492.69.69 0 01.395-.634l.934-.486a.83.83 0 01.375-.092h.143c.198 0 .375.072.513.21a.706.706 0 01.212.512v3.498h.289c.19 0 .36.07.491.203.13.13.199.298.199.485a.68.68 0 01-.69.68m0 8.262h-2.13a.674.674 0 01-.682-.682c0-.182.065-.348.19-.48a.665.665 0 01.492-.208h.427v-2.468l-.137.068c-.393.169-.625.077-.821-.115a.68.68 0 01-.2-.492c0-.28.144-.51.398-.635l.93-.486a.847.847 0 01.376-.091h.143c.198 0 .375.072.513.21a.706.706 0 01.212.512v3.497h.289a.681.681 0 01.69.688.68.68 0 01-.69.682m-1.185 3.972a.634.634 0 00-.589.321c-.172.268-.26.663-.26 1.172 0 .514.088.91.26 1.18a.686.686 0 001.176 0v-.001c.173-.268.26-.664.26-1.179 0-.51-.087-.905-.26-1.17a.632.632 0 00-.587-.323m0 4.357c-.738 0-1.313-.28-1.709-.833-.367-.51-.553-1.194-.553-2.03 0-.839.186-1.522.553-2.034.395-.55.971-.83 1.709-.83.732 0 1.306.28 1.704.83.37.512.556 1.195.556 2.033 0 .837-.187 1.522-.557 2.033-.398.551-.97.831-1.703.831m-8.552-29.138c-.267 0-.449.1-.589.322-.172.269-.26.663-.26 1.172 0 .513.088.91.26 1.18a.686.686 0 001.176 0v-.002c.173-.267.26-.664.26-1.178 0-.51-.087-.904-.26-1.172a.633.633 0 00-.587-.322m0 4.358c-.737 0-1.313-.28-1.709-.831v-.001c-.367-.512-.553-1.196-.553-2.032 0-.837.186-1.52.553-2.032.395-.552.97-.831 1.709-.831.732 0 1.306.279 1.704.83.37.512.556 1.196.556 2.033s-.187 1.521-.556 2.033c-.399.55-.973.83-1.704.83m1.185 8.191h-2.13a.674.674 0 01-.682-.68.681.681 0 01.682-.69h.427v-2.468l-.137.068c-.394.17-.626.078-.821-.115a.68.68 0 01-.2-.492.69.69 0 01.395-.634l.934-.486a.83.83 0 01.375-.092h.143c.198 0 .375.072.513.21a.706.706 0 01.212.512v3.498h.289c.19 0 .36.07.491.203.13.13.199.298.199.485a.68.68 0 01-.69.68m0 8.262h-2.13a.674.674 0 01-.682-.682c0-.182.065-.348.19-.48a.665.665 0 01.492-.208h.427v-2.468l-.137.068c-.394.169-.626.077-.821-.115a.68.68 0 01-.2-.492c0-.28.144-.51.398-.635l.93-.486a.847.847 0 01.376-.091h.143c.198 0 .375.072.513.21a.706.706 0 01.212.512v3.497h.289a.681.681 0 01.69.688.68.68 0 01-.69.682m-1.185 3.972a.634.634 0 00-.589.321c-.172.268-.26.663-.26 1.172 0 .514.088.91.26 1.18a.686.686 0 001.176 0v-.001c.173-.268.26-.664.26-1.179 0-.51-.087-.905-.26-1.17a.632.632 0 00-.587-.323m0 4.357c-.738 0-1.313-.28-1.709-.832-.367-.51-.553-1.195-.553-2.032 0-.838.186-1.521.553-2.033.395-.55.97-.83 1.709-.83.732 0 1.306.28 1.704.83.37.512.556 1.195.556 2.033 0 .837-.187 1.522-.557 2.033-.398.551-.97.831-1.703.831m-8.553-29.138c-.267 0-.449.1-.589.322-.172.269-.26.663-.26 1.172 0 .513.088.91.26 1.18a.686.686 0 001.176 0v-.002c.173-.267.26-.664.26-1.178 0-.51-.087-.904-.26-1.172a.633.633 0 00-.587-.322m0 4.358c-.737 0-1.313-.28-1.71-.831v-.001c-.366-.512-.552-1.196-.552-2.032 0-.837.186-1.52.553-2.032.395-.552.97-.831 1.709-.831.732 0 1.306.279 1.704.83.37.512.556 1.196.556 2.033s-.187 1.521-.556 2.033c-.399.55-.973.83-1.704.83m1.185 8.191h-2.13a.674.674 0 01-.682-.68.681.681 0 01.682-.69h.427v-2.468l-.137.068c-.394.17-.625.078-.821-.115a.68.68 0 01-.2-.492.69.69 0 01.395-.634l.934-.486a.83.83 0 01.375-.092h.143a.71.71 0 01.513.21.706.706 0 01.212.512v3.498h.289c.19 0 .36.07.491.203.13.13.199.298.199.485a.68.68 0 01-.69.68m0 8.262h-2.13a.674.674 0 01-.682-.682c0-.182.065-.348.19-.48a.665.665 0 01.492-.208h.427v-2.468l-.137.068c-.394.169-.625.077-.821-.115a.68.68 0 01-.2-.492c0-.28.144-.51.398-.635l.93-.486a.847.847 0 01.376-.091h.143a.71.71 0 01.513.21.706.706 0 01.212.512v3.497h.289a.681.681 0 01.69.688.68.68 0 01-.69.682m-1.185 3.972a.634.634 0 00-.589.321c-.172.268-.26.663-.26 1.172 0 .514.088.91.26 1.18a.686.686 0 001.176 0v-.001c.173-.268.26-.664.26-1.179 0-.51-.087-.905-.26-1.17a.632.632 0 00-.587-.323m0 4.357c-.738 0-1.313-.28-1.71-.832-.366-.51-.552-1.195-.552-2.032 0-.838.186-1.521.553-2.033.395-.55.97-.83 1.709-.83.732 0 1.306.28 1.704.83.37.512.556 1.195.556 2.033 0 .837-.187 1.522-.557 2.033-.398.551-.97.831-1.703.831" fill="#37B1CC"/><path d="M467.35 419.415c-.044 2.857-2.35 5.216-5.209 5.323a5.414 5.414 0 01-4.88-2.671.48.48 0 00-.412-.235H452.3l-.767-.765c-.144-.144-.287-.144-.287-.144h-2.253c-.192 0-.288.096-.288.096l-1.39 1.053-2.445-3.064 2.445-2.153h9.52a.476.476 0 00.414-.24 5.414 5.414 0 014.684-2.692 5.413 5.413 0 015.416 5.492" fill="#FFF"/><path d="M467.35 419.415c-.044 2.857-2.35 5.216-5.209 5.323a5.414 5.414 0 01-4.88-2.671.48.48 0 00-.412-.235H452.3l-.767-.765c-.144-.144-.287-.144-.287-.144h-2.253c-.192 0-.288.096-.288.096l-1.39 1.053-2.445-3.064 2.445-2.153h9.52a.476.476 0 00.414-.24 5.414 5.414 0 014.684-2.692 5.413 5.413 0 015.416 5.492z" stroke="#263238" stroke-width=".753"/><path d="M445.311 419.465c.154.019 7.512.006 9.781 0a.661.661 0 00-.002-1.32h-8.062" fill="#FFF"/><path d="M445.311 419.465c.154.019 7.512.006 9.781 0a.661.661 0 00-.002-1.32h-8.062" stroke="#263238" stroke-width=".753" stroke-linecap="round"/><path d="M466.047 419.332a2.06 2.06 0 01-2.061 2.058 2.06 2.06 0 110-4.117 2.06 2.06 0 012.061 2.06" fill="#FFF"/><path d="M466.047 419.332a2.06 2.06 0 01-2.061 2.058 2.06 2.06 0 110-4.117 2.06 2.06 0 012.061 2.06z" stroke="#263238" stroke-width=".753" stroke-linecap="round"/><path d="M221.348 385.21v23.074h-1.883a5.202 5.202 0 001.21-2.865l.163-1.605.104-1.06c-1.995 1.561-5.098 3.149-9.479 3.149-4.363 0-7.302-1.044-9.582-2.097l.146 1.432.018.181a5.213 5.213 0 001.217 2.865h-2.098v-23.073h20.184z" fill="#F9E6DC"/><path d="M211.448 338.806h26.401s-.215 44.76 0 45.119c.216.36-8.268 5.748-26.401 5.748-18.134 0-26.618-5.388-26.403-5.748.217-.358 0-45.119 0-45.119h26.403z" fill="#F9E6DC"/><path d="M200.386 354.422c0 2.349-.985 4.253-2.2 4.253-1.216 0-2.2-1.904-2.2-4.253 0-2.35.984-4.254 2.2-4.254 1.215 0 2.2 1.904 2.2 4.254m26.448 0c0 2.349-.986 4.253-2.2 4.253-1.216 0-2.2-1.904-2.2-4.253 0-2.35.984-4.254 2.2-4.254 1.214 0 2.2 1.904 2.2 4.254" fill="#383838"/><path d="M202.752 378.73c0 2.18 17.415 2.18 17.415 0" fill="#E58585"/><path d="M202.752 378.73c0 2.18 17.415 2.18 17.415 0" stroke="#E58585" stroke-width=".753" stroke-linecap="round" stroke-linejoin="round"/><path d="M210.898 364.179c.244-.748.855-.748 1.1 0l.88 2.693.88 2.694c.245.748-.06 1.682-.55 1.682h-3.521c-.488 0-.794-.934-.55-1.682l.881-2.694.881-2.693z" fill="#E58585"/><path d="M210.898 364.179c.244-.748.855-.748 1.1 0l.88 2.693.88 2.694c.245.748-.06 1.682-.55 1.682h-3.521c-.488 0-.794-.934-.55-1.682l.881-2.694.881-2.693z" stroke="#E58585" stroke-width=".753" stroke-linecap="round" stroke-linejoin="round"/><path d="M170.207 318.529s-7.525 20.277 14.232 20.277h50.382v17.445h6.298v-28.364c0-6.133-2.421-12.087-6.926-16.256-4.46-4.13-11.585-7.885-22.745-7.885-21.7 0-28.612 10.505-30.002 13.131-.411.778-.923 1.505-1.59 2.08-1.642 1.415-4.842 2.88-9.649-.428" fill="#2B5165"/><path fill="#2B5165" d="M180.597 356.25h6.442v-26.676h-6.442z"/><path d="M186.38 356.814c0 3.672.072 9.252-2.81 9.252s-7.626-5.58-7.626-9.252c0-3.67 2.336-6.646 5.218-6.646s5.218 2.975 5.218 6.646m48.964 0c0 3.672-.072 9.252 2.81 9.252s7.626-5.58 7.626-9.252c0-3.67-2.336-6.646-5.217-6.646-2.883 0-5.219 2.975-5.219 6.646m-14.402 45.939l-.103 1.062-.164 1.605a5.202 5.202 0 01-1.21 2.865c-.26.311-.553.595-.89.844l-7.112 5.283v2.415h-.207v-2.415l-7.103-5.283a5.108 5.108 0 01-.89-.844 5.228 5.228 0 01-1.219-2.865l-.017-.181-.147-1.432c2.281 1.053 5.22 2.096 9.583 2.096 4.381 0 7.483-1.588 9.48-3.15" fill="#F9E6DC"/><path d="M204.153 409.13l7.102 5.282v2.415c-.146 0-.293 0-.44-.008-2.73-.026-5.167-.241-7.353-.595-3.993-.647-7.13-1.753-9.592-3.047-5.997-3.15-7.993-7.37-8.468-8.594a3.942 3.942 0 01-.122-.353c.269-.087 5.125-1.907 8.763-2.486.915-.138 1.763-.207 2.436-.148.554.053 1.09.208 1.66.424.915.353 1.893.88 3.024 1.44.233.113.467.234.717.346l.147 1.432.017.181a5.22 5.22 0 001.218 2.865c.26.311.554.596.89.846m31.308-3.573s-.027.182-.104.5c-.354 1.253-1.676 4.6-6.446 7.232-2.308 1.277-5.427 2.382-9.627 3.003-2.16.32-4.605.517-7.379.535h-.441v-2.416l7.112-5.281c.337-.25.63-.534.89-.845a5.204 5.204 0 001.21-2.865l.164-1.606.103-1.061c.147-.112.277-.223.407-.328 1.632-1.371 2.393-2.63 2.393-2.63l.043.016.459.224 7.586 3.737 3.63 1.785z" fill="#92E0EA"/><path d="M231.83 403.772l-.268.863-2.652 8.654-4.77 15.576-4.857-12.573-.682-1.76-6.697 2.295h-.457l.016-2.416 7.111-5.281c.338-.25.632-.534.89-.845a5.211 5.211 0 001.211-2.865l.163-1.605.105-1.062.405-4.038 2.395 1.078.043.018.44.207 1.979.889 5.625 2.865z" fill="#69BAC9"/><path d="M218.6 414.532s11.426-15.816 2.749-15.816" stroke="#92E0EA" stroke-width=".753"/><path d="M211.463 414.411l-.017 2.415-.631-.007-6.696-2.288-.658 1.692-4.882 12.642-4.709-15.688-2.938-9.786-.164-.543 3.274-1.105 2.472-.836 1.979-.89 2.67-1.207.207-.095.51 5.091.147 1.432.017.182a5.22 5.22 0 001.219 2.865c.259.311.553.595.89.844l7.31 5.282z" fill="#69BAC9"/><path d="M204.12 414.532s-11.425-15.816-2.747-15.816" stroke="#92E0EA" stroke-width=".753"/><path fill="#D6948B" d="M201.163 389.04l-.043 3.796 20.228-1.018v-2.73z"/><path d="M55.144 373.944h-2.002a.655.655 0 01-.474-.192l-.003-.003a.66.66 0 01-.19-.47.666.666 0 01.667-.67h.377v-2.257l-.094.046c-.407.172-.608.075-.799-.112a.662.662 0 01-.195-.481c0-.27.141-.494.386-.617l.874-.456c.12-.06.24-.09.364-.09h.136a.698.698 0 01.704.703v3.264h.25a.66.66 0 01.475.195.66.66 0 01.196.475.65.65 0 01-.202.478.668.668 0 01-.47.187m-1.114 3.733a.58.58 0 00-.535.292c-.158.249-.239.615-.239 1.09 0 .478.08.848.24 1.096a.623.623 0 001.067 0c.158-.248.239-.618.239-1.097 0-.474-.08-.84-.24-1.09a.58.58 0 00-.532-.29m0 4.096c-.703 0-1.25-.266-1.627-.79v-.001c-.348-.486-.523-1.133-.523-1.925 0-.793.175-1.44.523-1.924.377-.524.924-.79 1.627-.79.696 0 1.241.265 1.62.79.35.483.528 1.131.528 1.924 0 .793-.177 1.44-.526 1.926-.382.525-.926.79-1.622.79m1.114 7.701h-2.002a.655.655 0 01-.474-.192l-.003-.003a.66.66 0 01-.19-.47.666.666 0 01.667-.67h.377v-2.257l-.094.045c-.407.173-.608.075-.799-.111a.662.662 0 01-.195-.481c0-.27.141-.494.386-.617l.874-.456c.12-.06.24-.09.364-.09h.136a.698.698 0 01.704.703v3.264h.25a.66.66 0 01.475.195.66.66 0 01.196.475.65.65 0 01-.202.478.668.668 0 01-.47.187m-1.114 3.733a.58.58 0 00-.535.292c-.158.25-.239.615-.239 1.09 0 .478.08.848.24 1.096a.623.623 0 001.067 0c.158-.248.239-.618.239-1.097 0-.474-.08-.84-.24-1.09a.58.58 0 00-.532-.29m0 4.096c-.703 0-1.25-.266-1.627-.79v-.001c-.348-.486-.523-1.133-.523-1.925 0-.793.175-1.44.523-1.924.377-.524.924-.79 1.627-.79.696 0 1.241.265 1.62.79.35.483.528 1.131.528 1.924 0 .793-.177 1.44-.526 1.926-.382.525-.926.79-1.622.79m8.09-23.361h-2.002a.655.655 0 01-.474-.192l-.003-.003a.657.657 0 01-.189-.469c0-.177.064-.339.185-.467a.653.653 0 01.48-.203h.378v-2.258l-.094.046c-.41.174-.614.074-.802-.114a.664.664 0 01-.192-.48c0-.269.141-.493.386-.616l.874-.456a.786.786 0 01.364-.089h.136a.698.698 0 01.704.702v3.265h.25a.663.663 0 01.671.67.65.65 0 01-.201.477.668.668 0 01-.47.187m-1.115 3.734a.58.58 0 00-.534.29c-.16.25-.24.616-.24 1.09 0 .48.08.849.24 1.097a.623.623 0 001.067 0c.159-.248.24-.618.24-1.097 0-.474-.081-.84-.24-1.09a.578.578 0 00-.533-.29m0 4.097c-.692 0-1.254-.274-1.627-.791v-.001c-.348-.486-.523-1.133-.523-1.925 0-.79.175-1.438.523-1.923.377-.525.924-.791 1.627-.791.696 0 1.241.265 1.62.79.35.485.529 1.132.529 1.924 0 .793-.178 1.44-.527 1.926-.382.526-.927.79-1.622.79m1.114 7.701h-2.002a.655.655 0 01-.474-.192l-.003-.003a.66.66 0 01-.189-.47.666.666 0 01.666-.67h.377v-2.257l-.094.045c-.41.174-.612.074-.802-.114a.658.658 0 01-.192-.478c0-.27.141-.495.386-.618l.874-.455c.12-.06.24-.09.364-.09h.136a.69.69 0 01.499.205.692.692 0 01.206.498v3.264h.248a.66.66 0 01.476.195.66.66 0 01.196.475.65.65 0 01-.201.478.668.668 0 01-.47.187m-1.115 3.733a.58.58 0 00-.534.292c-.16.25-.24.615-.24 1.09 0 .478.08.848.24 1.096a.623.623 0 001.067 0c.159-.248.24-.618.24-1.097 0-.474-.081-.84-.24-1.09a.58.58 0 00-.533-.29m0 4.096c-.703 0-1.25-.266-1.627-.79v-.001c-.348-.486-.523-1.133-.523-1.925 0-.793.175-1.44.523-1.924.377-.524.924-.79 1.627-.79.696 0 1.241.265 1.62.79.35.483.529 1.131.529 1.924 0 .793-.178 1.44-.527 1.926-.382.525-.926.79-1.622.79m8.232-23.361h-2.002a.655.655 0 01-.474-.192l-.003-.003a.657.657 0 01-.189-.469c0-.177.064-.339.185-.467a.653.653 0 01.48-.203h.378v-2.258l-.094.046c-.41.174-.613.074-.802-.114a.664.664 0 01-.192-.48c0-.269.141-.493.386-.616l.875-.456a.786.786 0 01.363-.089h.136a.698.698 0 01.704.702v3.265h.25a.663.663 0 01.671.67.65.65 0 01-.201.477.668.668 0 01-.47.187m-1.115 3.734a.58.58 0 00-.534.29c-.16.25-.24.616-.24 1.09 0 .48.08.849.24 1.097a.623.623 0 001.067 0c.159-.248.24-.618.24-1.097 0-.474-.081-.84-.24-1.09a.578.578 0 00-.533-.29m0 4.097c-.692 0-1.254-.274-1.626-.791v-.001c-.349-.486-.524-1.133-.524-1.925 0-.79.175-1.438.524-1.923.376-.525.923-.791 1.626-.791.696 0 1.241.265 1.62.79.35.485.529 1.132.529 1.924 0 .793-.178 1.44-.527 1.926-.382.526-.927.79-1.622.79m1.114 7.701h-2.002a.655.655 0 01-.474-.192l-.003-.003a.66.66 0 01-.189-.47.666.666 0 01.666-.67h.377v-2.257l-.094.045c-.41.174-.612.074-.802-.114a.658.658 0 01-.192-.478c0-.27.141-.495.386-.618l.875-.455c.119-.06.24-.09.363-.09h.136a.69.69 0 01.499.205.692.692 0 01.206.498v3.264h.248a.66.66 0 01.476.195.66.66 0 01.196.475.65.65 0 01-.201.478.668.668 0 01-.47.187m-1.115 3.733a.58.58 0 00-.534.292c-.16.25-.24.615-.24 1.09 0 .478.08.848.24 1.096a.623.623 0 001.067 0c.159-.248.24-.618.24-1.097 0-.474-.081-.84-.24-1.09a.58.58 0 00-.533-.29m0 4.096c-.703 0-1.25-.266-1.626-.79v-.001c-.349-.486-.524-1.133-.524-1.925 0-.793.175-1.44.524-1.924.376-.524.923-.79 1.626-.79.696 0 1.241.265 1.62.79.35.483.529 1.131.529 1.924 0 .793-.178 1.44-.527 1.926-.382.525-.926.79-1.622.79" fill="#37B1CC"/><path d="M106.348 382.654c-.052 3.456-2.84 6.307-6.299 6.436a6.547 6.547 0 01-5.9-3.228.577.577 0 00-.497-.284H88.15l-.927-.926c-.173-.174-.348-.174-.348-.174h-2.724a.508.508 0 00-.348.116l-1.68 1.273-2.956-3.704 2.956-2.605h11.51a.575.575 0 00.5-.287 6.55 6.55 0 015.666-3.257c3.65 0 6.605 2.983 6.55 6.64" fill="#FFF"/><path d="M106.348 382.654c-.052 3.456-2.84 6.307-6.299 6.436a6.547 6.547 0 01-5.9-3.228.577.577 0 00-.497-.284H88.15l-.927-.926c-.173-.174-.348-.174-.348-.174h-2.724a.508.508 0 00-.348.116l-1.68 1.273-2.956-3.704 2.956-2.605h11.51a.575.575 0 00.5-.287 6.55 6.55 0 015.666-3.257c3.65 0 6.605 2.983 6.55 6.64z" stroke="#263238" stroke-width=".753"/><path d="M79.7 382.714c.187.022 9.083.008 11.826.003a.799.799 0 10-.003-1.596h-9.748" fill="#FFF"/><path d="M79.7 382.714c.187.022 9.083.008 11.826.003a.799.799 0 10-.003-1.596h-9.748" stroke="#263238" stroke-width=".753" stroke-linecap="round"/><path d="M104.773 382.554a2.491 2.491 0 01-2.492 2.489 2.49 2.49 0 01-2.492-2.489 2.49 2.49 0 012.492-2.489 2.491 2.491 0 012.492 2.49" fill="#FFF"/><path d="M104.773 382.554a2.491 2.491 0 01-2.492 2.489 2.49 2.49 0 01-2.492-2.489 2.49 2.49 0 012.492-2.489 2.491 2.491 0 012.492 2.49z" stroke="#263238" stroke-width=".753" stroke-linecap="round"/><path d="M474.806 384.857c.303-.033 1.723.002 1.723.002s-.333 1.786-.426 1.786c-.092 0-1.316-.777-1.306-.9.012-.14.009-.888.009-.888" fill="#E0B094"/><path d="M470.341 389.662c-2.07 2.203-8.316 4.19-5.81 7.076 2.504 2.887 9.476.156 9.476.156s4.947-3.972 4.602-5.507c-.344-1.536-1.354-6.66-2.08-6.528-.726.132-4.256 2.75-6.188 4.803" fill="#E0B094"/><path d="M474.05 394.02s-12.822 8.074-10.316 10.961c2.505 2.887 11.866-1.304 11.866-1.304s4.946-3.972 4.602-5.508c-.344-1.537-1.353-6.662-2.08-6.528-.727.132-4.073 2.378-4.073 2.378" fill="#E0B094"/><path d="M474.77 399.86s-11.672 7.089-9.167 9.976c2.505 2.887 10.718-.32 10.718-.32s4.946-3.972 4.603-5.507c-.345-1.537-1.355-6.66-2.082-6.529-.725.133-4.072 2.38-4.072 2.38" fill="#E0B094"/><g transform="translate(469.333 402.6)"><mask id="b" fill="#fff"><use xlink:href="#a"/></mask><path d="M5.656 2.503S-1.79 7.58.715 10.467c2.506 2.887 6.37-1.226 6.37-1.226s5.086-3.16 4.742-4.696C11.483 3.008 10.455-.009 9.728.124c-.726.132-4.072 2.38-4.072 2.38" fill="#E0B094" mask="url(#b)"/></g><path d="M468.392 398.06c.68-.226 6.355-3.502 10.136-6.043m-11.685 13.979c5.605-2.527 9.273-4.273 13.054-6.814m-10.268 11.891c5.606-2.526 7.17-3.37 10.951-5.912" stroke="#CC957D" stroke-width=".753"/></g></svg>