<?xml version="1.0" encoding="UTF-8"?>
<!-- by Tanja Rohlfs (https://consento.org/team/tanja) - license: CC-BY-NC-SA (see: https://creativecommons.org/licenses/by-nc-sa/4.0/) -->
<svg width="500" height="500" xmlns="http://www.w3.org/2000/svg" xmlns:xlink="http://www.w3.org/1999/xlink"><defs><path id="a" d="M.131.72h78.927v82.167H.131z"/></defs><g fill="none" fill-rule="evenodd"><path fill="#FFF" d="M0 0h500v500H0z"/><path d="M287.354 420.326c28.017-3.628 54.415-11.681 77.378-30.64 12.526-10.341 30.137-22.91 51.013-67.59l-7.11-12.216c-13.061 29.49-44.842 54.882-55.208 61.837-16.157 10.84-30.038 18.126-54.074 21.012l-12 27.597z" fill="#F1D5C3"/><path d="M406.59 296.011c2.746.515-3.75 19.584-5.491 18.531-.74-.447 12.346 1.66 12.346 1.66s-3.106-15.846-3.596-15.846c-.49 0-3.258-4.345-3.258-4.345" fill="#E58585"/><path d="M413.4 316.133c-2.571-.72-10.362-3.6-12.394-1.465-3.25 3.413-.18 3.848-3.092 7.558-1.957 2.493-5.253 4.026-6.224 7.041.284.404 2.42 1.633 2.815 1.323.397-.31 2.21-1 2.582-1.343 1.833-1.685 1.225-3.67 3.716-3.51 5.452.35 8.743 6.186 7.611 11.307-.257 1.168-.037 4.761.887 5.837 1.767 2.054 2.588-3.145 3.392-4.462 1.594-2.608.973-4.739.935-9.042-.013-1.777.591-5.868.57-7.645-.017-1.398-.565-3.678-.798-5.599" fill="#F4D9CE"/><path d="M411.858 136.08c13.92 24.583 25.3 63.857 25.574 93.634.157 17.11-11.055 59.873-16.288 77.389a1.291 1.291 0 01-2.017.655l-12.356-9.484c8.207-23.103 8.67-53.274 9.863-69.218 1.375-18.389-19.697-45.131-26.952-61.486l22.176-31.49z" fill="#E58585"/><path d="M373.443 116.406s-18.95-11.05-23.308-.26c-23.285 49.41-26.238 45.209-29.348 54.255 2.143 3.68 45.302 31.409 47.957 30.828 1.615-1.852 22.555-21.021 31.291-24.573 1.785-.725 4.38-3.176 7.096-3.984l10.99-18.413-44.678-37.853z" fill="#E58585"/><path d="M392.709 115.728c-20.732-19.188-43.85-32.315-72.873-38.98-25.336-5.818-81.7-5.153-98.615-4.051l11.857 14.897c11.754-.372 67.26 6.203 79.031 9.093 17.909 4.397 29.531 16.748 48.237 32.142l32.363-13.101z" fill="#E58585"/><path d="M80.304 339.658c.354-.06 3.123-1.474 3.123-1.474s1.414-4.478.59-4.655c-.825-.177-7.131-1.827-7.19-1.297-.06.53 1.12 6.247 1.12 6.247l.68.783 1.677.396z" fill="#E0B094"/><path d="M200.482 418.952c-28.016-3.628-54.413-11.68-77.377-30.64-12.526-10.341-30.137-22.91-51.014-67.59l7.11-12.216c13.062 29.49 45.364 51.879 55.73 58.835 16.156 10.84 33.315 9.447 55.771 20.618l9.78 30.993z" fill="#F1D5C3"/><path d="M191.14 387.274s-39.391-16.355-39.851-14.282c-.461 2.073-7.141 33.4-9.214 33.632-2.074.23 89.253 40.913 100.31 37.227 11.058-3.686-51.245-56.577-51.245-56.577" fill="#69BAC9"/><path d="M86.058 306.878c-.902-5.136-2.291-9.37-2.291-9.37L68.775 312.57s.069 9.788.277 9.788c.209 0 3.957 2.29 3.957 2.29l13.049-17.769z" fill="#E0B094"/><path d="M168.693 181.709c-1.039-2.374-3.46-8.056-4.52-9.624L118.2 205.464c-.825.595 1.64 2.61 1.803 3.115 16.556 28.415 34.24 36.762 50.021 41.515.003-.002.774-1.352.774-1.352-5.866-8.273-18.898-24.029-20.7-46.546 14.886 13.581 27.633 30.775 29.777 41.91.066.249 1.3-.469 1.546-.579 3.613-17.06-1.986-35.396-12.727-61.818" fill="#C7C7C7"/><path d="M303.007 240.05c.246.11 1.479.826 1.545.578 2.144-11.135 14.892-28.329 29.778-41.91-1.802 22.517-14.835 38.273-20.7 46.546 0 0 .77 1.35.773 1.351 15.783-4.753 33.465-13.099 50.022-41.514.16-.506 2.628-2.52 1.803-3.115l-45.975-33.379c-1.06 1.568-3.48 7.25-4.52 9.624-10.741 26.422-16.34 44.758-12.726 61.818" fill="#69BAC9"/><path d="M270.663 97.823c.363.423.92.9 1.353.6.16-.112.25-.308.311-.5.447-1.389-.114-2.956-.839-4.258-1.296-2.33-3.357-4.056-5.659-5.41-4.252-2.5-1.488-7.107.025-9.156.454-.613 2.188-1.719 2.776-2.184.927-.732 2.394-2.68 3.321-3.412 1.133-.895 2.681-.214 4.464-1.039.572-.265.561-1.08-.025-1.312-2.709-1.073-5.79-2.073-8.388-2.807-1.998-.564-4.5-.049-6.355.792-.944.43-2.252 1.441-2.997 2.184a65.185 65.185 0 00-8.888 11.055c-.767 1.198-1.51 2.464-1.754 3.907-.282 1.673.064 3.527 1.864 3.522 1.808-.005 3.53-.306 5.362-.117 3.69.38 7.33 1.698 10.524 3.814a23.879 23.879 0 014.905 4.321" fill="#E0B094"/><path d="M251.536 79.315l-.925 3.853s4.084 1.078 4.238.461c.154-.616 4.136-7.617 4.136-7.617l-7.449 3.303z" fill="#E0B094"/><path d="M107.42 125.898c19.848-20.104 49.109-36.388 77.68-44.785 16.416-4.824 43.447-8.066 67.932-5.467.897.095 1.506.921 1.18 1.763l-6.682 17.287c-17.543-4.164-46.274 2.462-57.383 6.605-17.28 6.442-36.642 15.844-50.394 27.29l-32.332-2.693z" fill="#FF3434"/><path d="M61.336 290.247c.456-.448 2.258-2.682 2.571-2.524.314.156 1.49 7.992 1.49 7.992l-.627 1.293-3.434-6.761z" fill="#F1D5C3"/><path d="M81.522 140.535s-15.973 15.217-6.872 22.472c1.61 1.089 39.438 44.41 43.603 43.398 4.14-1.004 45.855-31.457 46.055-34.167.18-2.435-14.33-32.674-17.453-40.004-.756-1.773-1.796-5.103-1.796-7.937l-8.519-19.407-55.019 35.645z" fill="#FF3434"/><path d="M67.758 130.469c0 4.312 4.887 7.153 1.64 8.32-4.79 1.723-13.511-1.42-12.042-7.62.994-4.195.692-6.807 4.142-6.807s6.26 1.796 6.26 6.107" fill="#E0B094"/><path d="M56.233 57.407c13.083-9.087 14.663-1.816 17.019-2.964 2.167-1.057 2.806-6.983 17.828-5.434 15.008 1.546 16.041 16.983 17.255 16.297 1.214-.686 5.512-.069 10.207 7.024 4.694 7.093-.418 16.338-.418 16.338s16.883 12.743 14.019 28.24c-2.866 15.495-19.78 25.047-19.78 25.047l-.233.154s-15.405 11.836-30.788 8.416c-15.38-3.419-13.575-19.01-13.575-19.01s-17.445-3.839-22.139-10.932c-4.694-7.093-3.799-10.854-2.693-11.703 1.106-.849-12.482-8.27-8.04-22.689 4.445-14.43 10.15-12.703 11.971-14.286 1.976-1.72-4.099-6.016 9.38-14.507l-.014.01z" fill="#383838"/><path d="M121.622 108.926c.044 6.055-6.83 11.297-11.442 14.993-4.476 3.806-8.692 7.243-13.818 9.806-4.705 2.352-10.07 3.224-15.182 1.691-1.406-.385-2.734-1.016-4.012-1.71-1.883-.876-3.639-2.104-4.912-3.76-3.206-4.103-3.748-9.52-5.71-14.23-1.242-3.244-3.979-5.519-3.676-8.988.5-5.722 5.702-6.28 7.457-5.69 2.164.817 4.532.916 6.808 1.25 1.341.117 2.736.1 4.045-.22 1.297-.317 2.514-.908 3.683-1.557 2.071-1.247 4.17-2.519 6.15-3.902 2.6-1.989 3.452-4.805 3.694-7.959.178-1.682.126-3.54 1.141-4.966l.021-.01c.008-.024.037-.043.044-.067l.022-.01c.014-.05.067-.077.087-.12a.197.197 0 00.088-.089.096.096 0 00.055-.055c.052-.028.09-.085.143-.109l.01-.022c.903-.724 2.096-.966 3.235-1.074 1.87-.225 3.787.232 4.878 1.863.912 1.27 1.36 2.804 2.05 4.2.503 1.005 12.064 5.886 15.141 20.735" fill="#E0B094"/><path d="M450.193 116.46s-52.938-47.214-54.258-48.128c-7.284 7.867-32.464 34.73-32.852 35.821.088 6.87 9.54 19.241 13.817 24.868 1.232 1.518 2.34 3.283 3.707 4.67 2.442 2.134 5.152 3.96 7.815 5.808 3.226 2.175 17.076 9 17.076 9 14.126-6.303 44.695-32.039 44.695-32.039" fill="#F4D9CE"/><path d="M116.643 122.987c1.415 1.668-7.315 9.073-8.73 7.405" stroke="#DF715C" stroke-width=".909"/><path d="M103.628 117.33l2.347 5.664a.48.48 0 00.758.18l2.916-2.519a.481.481 0 00-.068-.777l-5.263-3.146a.48.48 0 00-.69.597" fill="#DF715C"/><path d="M90.188 121.307c1.546 1.791 1.944 3.981.89 4.893-1.055.911-3.164.198-4.71-1.593-1.547-1.79-1.948-3.98-.892-4.892 1.055-.912 3.164-.199 4.711 1.592" fill="#383838"/><path d="M94.514 121.093s1.882 1.253.765 4.216" stroke="#383838" stroke-width=".862" stroke-linecap="round"/><path d="M109.296 106.982c1.34 1.553 3.17 2.17 4.085 1.38.914-.79.568-2.69-.772-4.241-1.341-1.553-3.17-2.171-4.085-1.381-.915.79-.57 2.689.772 4.242" fill="#383838"/><path d="M107.49 110.44s.965 2.042 4.06 1.368" stroke="#383838" stroke-width=".862" stroke-linecap="round"/><path d="M118.366 206.455c38.504-26.146 38.454-26.1 46.11-34.017" stroke="#883434" stroke-width="1.096"/><path d="M101.013 325.448c.508.229 1.123.628.957 1.129-.062.185-.225.325-.394.439-1.205.822-2.866.724-4.32.397-2.6-.587-5.015-1.784-7.641-2.266-2.626-.481-5.388-.707-6.928 1.324-.46.607-.744 1.31-1.025 2.006a1876.7 1876.7 0 01-1.323 3.286c-.732 1.822-2.055 5.618-1.734 7.539-2.154-2.561-4.51-5.957-6.274-8.761-1.105-1.758-1.198-4.887-.914-6.905.145-1.026.63-1.982 1.132-2.906a65.193 65.193 0 018.1-11.645c.934-1.074 1.938-2.145 3.256-2.784 1.525-.742 1.58-1.15 2.083.578.504 1.736 2.522 3.689 3.22 5.394 1.405 3.433 3.345 7.219 6.277 9.687a23.788 23.788 0 005.528 3.488" fill="#E0B094"/><path d="M73.858 150.343c-13.692 24.71-21.214 50.695-21.214 80.475 0 17.718 12.596 69.517 17.699 85.681l16.173-12.417c-3.163-11.326-11.931-58.802-11.931-70.924 0-18.44 3.889-34.952 14.379-56.789l-15.106-26.026z" fill="#FF3434"/><path d="M84.972 287.906c.125 3.055-1.496 4.613-3.678 8.354-.901 1.545-1.455 7.119-2.362 8.66-.971 1.65-2.41 2.516-3.3 4.368-.816 1.7-3.055 4.57-3.494 6.405-.354 1.479-.063 2.989-.465 4.455-.401 1.467.306 3.289-.382 4.437-1.68-1.223-2.89-4.278-3.603-6.23-1.125-3.073-2.174-6.178-3.011-9.343-1.206-4.563-1.965-9.231-2.721-13.89-.507-3.13-1.015-6.342-.38-9.447.459-.214 1.272-.114 1.472.35.2.464.334 1.392.496 1.87.8 2.365 1.074 4.893 3.387 5.967 5.06 2.35 11.976-1.813 13.52-6.838.35-1.145 2.343-4.177 3.71-4.666 2.61-.933.749 4.007.81 5.548M226.735 95.042c3.002-.576 4.161-2.468 7.32-5.389 1.306-1.206 4.741-3.51 6.041-4.721 1.393-1.296 3.332-4.427 4.94-5.692 1.473-1.161 4.228-1.858 5.918-2.691 1.361-.672 1.44-.372 2.73-.326 1.517.054 2.976-3.142 3.941-4.056-1.563-1.316-4.74-.365-6.798-.599-3.243-.369-4.764-.509-8.03-.584-4.712-.109-9.425.232-14.13.573-3.16.228-6.4.477-9.286 1.786-.107.483.172 1.232.668 1.317.497.085 1.43.001 1.931.046 2.481.222 5.003-.093 6.561 1.859 3.41 4.269.884 11.779-3.666 14.386-1.038.594-3.549 3.173-3.723 4.582-.33 2.69 4.068-.201 5.583-.491m176.305 197.59c-.125 3.055 1.496 4.613 3.678 8.354.901 1.545.557 7.356 1.771 8.67 1.395 1.508 2.304 3.39 3.194 5.242.816 1.7 1.64 3.417 2.078 5.251.354 1.478.453 3.011.854 4.477.402 1.467-3.849 2.93-2.53 3.688 1.68-1.223 5.305-6.973 6.018-8.924 1.124-3.074 1.154-3.036 1.991-6.2 1.206-4.565 7.426-11.25 8.182-15.91.51-3.129-1.206-3.774-1.84-6.879-.459-.215-1.272-.114-1.472.35-.2.464-.335 1.392-.496 1.87-.8 2.365-1.074 4.893-3.388 5.967-5.06 2.35-11.975-1.814-13.519-6.838-.352-1.145-2.343-4.177-3.71-4.666-2.61-.933-.749 4.007-.81 5.548" fill="#F1D5C3"/><path d="M88.723 183.405c.7-.24 42.398-19.594 62.757-44.563" stroke="#FFF" stroke-width="2.487"/><path d="M97.02 190.809c.696-.245 42.109-19.883 62.238-45.08" stroke="#FFF" stroke-width="2.192"/><path d="M101.14 198.73c.696-.25 42.088-20.244 62.154-45.745" stroke="#FFF" stroke-width="1.973"/><path d="M106.963 204.995c.694-.253 41.949-20.484 61.892-46.182" stroke="#FFF" stroke-width="1.809"/><path d="M222.657 142.64a12.784 12.784 0 01-5.755 10.758c-5.64 3.696-12.274 2.675-16.497-1.236a1.173 1.173 0 00-1.133-.266l-10.638 3.199-2.332-1.254c-.438-.235-.774-.134-.774-.134l-5.268 1.584c-.449.135-.605.427-.605.427l-2.509 3.443-7.619-5.28a.324.324 0 01-.09-.437l4.035-6.5 22.262-6.694c.401-.121.703-.447.801-.854a13.221 13.221 0 019.058-9.595c8.232-2.475 16.995 3.458 17.064 12.84" fill="#FFF"/><path d="M222.657 142.64a12.784 12.784 0 01-5.755 10.758c-5.64 3.696-12.274 2.675-16.497-1.236a1.173 1.173 0 00-1.133-.266l-10.638 3.199-2.332-1.254c-.438-.235-.774-.134-.774-.134l-5.268 1.584c-.449.135-.605.427-.605.427l-2.509 3.443-7.619-5.28a.324.324 0 01-.09-.437l4.035-6.5 22.262-6.694c.401-.121.703-.447.801-.854a13.221 13.221 0 019.058-9.595c8.232-2.475 16.995 3.458 17.064 12.84z" stroke="#263238" stroke-width="1.754"/><path d="M170.625 154.465c.373-.066 17.567-5.268 22.871-6.874a1.613 1.613 0 00-.934-3.09l-18.852 5.669" fill="#FFF"/><path d="M170.625 154.465c.373-.066 17.567-5.268 22.871-6.874a1.613 1.613 0 00-.934-3.09l-18.852 5.669" stroke="#263238" stroke-width="1.754" stroke-linecap="round"/><path d="M219.02 139.574a5.034 5.034 0 11-9.642 2.897 5.034 5.034 0 019.642-2.897" fill="#FFF"/><path d="M219.02 139.574a5.034 5.034 0 11-9.642 2.897 5.034 5.034 0 019.642-2.897z" stroke="#263238" stroke-width="1.754" stroke-linecap="round"/><path d="M317.563 339.742a12.78 12.78 0 01-5.14-11.063c.437-6.73 5.24-11.418 10.902-12.443a1.17 1.17 0 00.894-.746l3.836-10.426 2.404-1.11c.45-.208.572-.538.572-.538l1.9-5.162c.16-.44.023-.741.023-.741l-1.245-4.074 8.796-2.918a.33.33 0 01.408.192l2.769 7.132-8.029 21.816c-.144.393-.066.83.201 1.153a13.223 13.223 0 012.226 13.006c-2.969 8.068-12.976 11.506-20.517 5.922" fill="#FFF"/><path d="M317.563 339.742a12.78 12.78 0 01-5.14-11.063c.437-6.73 5.24-11.418 10.902-12.443a1.17 1.17 0 00.894-.746l3.836-10.426 2.404-1.11c.45-.208.572-.538.572-.538l1.9-5.162c.16-.44.023-.741.023-.741l-1.245-4.074 8.796-2.918a.33.33 0 01.408.192l2.769 7.132-8.029 21.816c-.144.393-.066.83.201 1.153a13.223 13.223 0 012.226 13.006c-2.969 8.068-12.976 11.506-20.517 5.922z" stroke="#263238" stroke-width="1.754"/><path d="M339.38 291.048c-.171.338-6.346 17.207-8.25 22.411a1.614 1.614 0 003.031 1.111l6.799-18.475" fill="#FFF"/><path d="M339.38 291.048c-.171.338-6.346 17.207-8.25 22.411a1.614 1.614 0 003.031 1.111l6.799-18.475" stroke="#263238" stroke-width="1.754" stroke-linecap="round"/><path d="M322.2 338.678a5.033 5.033 0 113.478-9.445 5.033 5.033 0 01-3.478 9.445" fill="#FFF"/><path d="M322.2 338.678a5.033 5.033 0 113.478-9.445 5.033 5.033 0 01-3.478 9.445z" stroke="#263238" stroke-width="1.754" stroke-linecap="round"/><path d="M287.986 389.03s39.391-16.353 39.852-14.28c.461 2.072 7.14 33.4 9.213 33.63 2.074.23-83.828 39.375-94.884 35.689-11.058-3.685 45.82-55.038 45.82-55.038" fill="#69BAC9"/><path d="M191.95 417.463c-4.757-55.097 21.552-63.54 36.332-65.725 6.655-.983 19.15-1.023 25.813-.084 14.794 2.087 34.752 10.272 36.761 65.487.95 26.09-46.949 37.64-46.949 37.64s-49.37-7.33-51.958-37.318" fill="#FF3434"/><path d="M191.95 417.463c-4.757-55.097 21.552-63.54 36.332-65.725 6.655-.983 19.15-1.023 25.813-.084 14.794 2.087 34.752 10.272 36.761 65.487.95 26.09-46.949 37.64-46.949 37.64s-49.37-7.33-51.958-37.318z" stroke="#FF3434" stroke-width=".997" stroke-linecap="round" stroke-linejoin="round"/><path d="M394.776 100.339c-2.065 1.953-4.555 2.67-5.564 1.605-1.008-1.065-.154-3.513 1.911-5.465 2.064-1.952 4.555-2.671 5.563-1.605 1.009 1.066.153 3.512-1.91 5.465m23.669 20.655c-2.064 1.953-4.555 2.671-5.563 1.605-1.009-1.066-.154-3.513 1.911-5.465 2.063-1.953 4.554-2.672 5.562-1.606 1.01 1.066.153 3.513-1.91 5.466" fill="#383838"/><path d="M378.404 117.561c-2.009 1.706 11.607 17.733 13.615 16.027" fill="#E58585"/><path d="M378.404 117.561c-2.009 1.706 11.607 17.733 13.615 16.027" stroke="#E58585" stroke-width="1.096" stroke-linecap="round" stroke-linejoin="round"/><path d="M396.51 113.812c.899-.309 1.344.28.8 1.06l-1.96 2.811-1.96 2.812c-.542.779-1.666 1.165-2.022.694l-1.281-1.698-1.281-1.698c-.356-.471.323-1.445 1.223-1.754l3.24-1.114 3.24-1.113z" fill="#E58585"/><path d="M396.51 113.812c.899-.309 1.344.28.8 1.06l-1.96 2.811-1.96 2.812c-.542.779-1.666 1.165-2.022.694l-1.281-1.698-1.281-1.698c-.356-.471.323-1.445 1.223-1.754l3.24-1.114 3.24-1.113z" stroke="#E58585" stroke-width="1.096" stroke-linecap="round" stroke-linejoin="round"/><g transform="translate(386 46.28)"><mask id="b" fill="#fff"><use xlink:href="#a"/></mask><path d="M2.549 27.26S-4.2 14.18 4.852 3.407c6.714-7.992-.712 4.181 10.27 6.391 7.25 1.458 17.93-15.773 45.389 4.124 23.269 16.863 24.545 43.371 4.384 61.38-14.684 13.114-15.881 4.918-22.617 6.394-1.364.299-4.736-3.316-4.736-3.316l8.84-11.209L2.55 27.26z" fill="#2B5165" mask="url(#b)"/></g><path d="M385.423 85.286c-3.091 3.186-7.73 8.09-10.227 5.667s-1.91-11.256 1.182-14.443c3.092-3.186 7.622-3.804 10.12-1.381 2.497 2.424 2.017 6.97-1.075 10.157m41.685 44.046c-3.163 3.115-8.033 7.79-5.591 10.27 2.442 2.478 11.272 1.824 14.435-1.29 3.163-3.116 3.747-7.65 1.305-10.13-2.442-2.48-6.986-1.965-10.149 1.15" fill="#F4D9CE"/><path d="M393.72 77.102c-.321.107-5.716 6.204-8.814 7.533-.441.189-.715-.543-.715-.543l3.77-6.335c-.438-1.519-1.508-2.593-2.781-3.564l2.236-2.679s2.006-1.862 2.436-1.146c.43.716 3.869 6.734 3.869 6.734M341.04 188.727c17.882 14.124 23.5 16.408 23.5 16.408l4.195-3.897s-5.729-3.062-23.61-17.186l-.562-.443c-17.88-14.123-22.489-19.341-22.489-19.341l-2.198 5.196s2.722 4.697 20.603 18.821l.561.442z" fill="#2B5165"/><path d="M343.65 191.668l-4.938-3.9a.398.398 0 01-.058-.58l4.579-5.24a.447.447 0 01.608-.054l4.94 3.902a.398.398 0 01.056.58l-4.577 5.24a.447.447 0 01-.61.052" fill="#C7C7C7"/><path d="M258.089 71.889c.275-.243-4.624-.745-4.624-.745l.145 5.034.487.152s1.267-.605 3.992-4.441" fill="#E58585"/><path fill="#FFF" d="M307.399 152.207l-65.183-17.538 6.386-23.733 65.182 17.537z"/><path stroke="#000" stroke-width="1.487" d="M307.399 152.207l-65.183-17.538 6.386-23.733 65.182 17.537z"/><path d="M253.284 127.978a.42.42 0 01-.052-.342c.011-.039.232-.545.664-1.514-.968.431-1.474.651-1.52.661a.465.465 0 01-.206-.009.473.473 0 01-.34-.331.472.472 0 01.004-.255c.045-.168.145-.269.304-.301l1.647-.179-1.334-.983a.412.412 0 01-.107-.428.462.462 0 01.572-.341.42.42 0 01.191.116c.035.03.362.475.983 1.335.113-1.056.176-1.603.187-1.643a.418.418 0 01.216-.269.452.452 0 01.348-.043.46.46 0 01.278.212.419.419 0 01.052.34c-.01.04-.234.545-.664 1.516.967-.432 1.475-.652 1.52-.661a.344.344 0 01.225-.004c.16.043.267.152.326.328.02.09.02.17 0 .24a.446.446 0 01-.314.331l-1.646.179 1.334.983a.414.414 0 01.107.428.514.514 0 01-.12.208.476.476 0 01-.643.018c-.034-.031-.363-.476-.983-1.336a61.92 61.92 0 01-.187 1.643.423.423 0 01-.216.27.46.46 0 01-.347.042.455.455 0 01-.279-.211m6.211 1.675a.42.42 0 01-.052-.342c.011-.039.232-.544.664-1.514-.968.431-1.475.651-1.52.66a.436.436 0 01-.206-.008.473.473 0 01-.34-.33.472.472 0 01.004-.256c.045-.168.145-.269.304-.3l1.647-.18-1.334-.982a.414.414 0 01-.107-.429.463.463 0 01.571-.341.44.44 0 01.192.115c.034.032.362.476.983 1.336.113-1.056.176-1.603.187-1.643a.418.418 0 01.216-.269.459.459 0 01.347-.043.46.46 0 01.28.211.423.423 0 01.051.342c-.01.04-.234.544-.664 1.515.967-.432 1.474-.652 1.52-.66a.341.341 0 01.224-.005c.16.043.268.153.327.328.02.09.02.17 0 .24a.447.447 0 01-.315.331l-1.645.18 1.332.982a.414.414 0 01.11.428.514.514 0 01-.12.208.476.476 0 01-.644.018c-.035-.03-.363-.476-.983-1.336a61.288 61.288 0 01-.187 1.643.421.421 0 01-.216.27.453.453 0 01-.348.041.452.452 0 01-.278-.21m6.211 1.676a.423.423 0 01-.052-.342c.011-.04.232-.544.665-1.514-.968.43-1.475.65-1.52.66a.478.478 0 01-.547-.34.482.482 0 01.004-.254c.045-.168.146-.27.305-.301l1.646-.18-1.333-.981a.414.414 0 01-.108-.43.49.49 0 01.124-.221c.14-.122.29-.162.448-.12a.43.43 0 01.191.117c.035.03.363.475.984 1.335.112-1.056.175-1.603.186-1.643a.421.421 0 01.216-.27.457.457 0 01.348-.042.454.454 0 01.278.212.421.421 0 01.053.34c-.01.04-.235.545-.665 1.516.967-.432 1.475-.651 1.52-.661a.345.345 0 01.225-.003c.16.043.267.152.327.327a.522.522 0 010 .24.447.447 0 01-.315.33l-1.645.18 1.333.983a.414.414 0 01.108.428.52.52 0 01-.12.208.479.479 0 01-.644.018c-.034-.03-.363-.476-.983-1.335a64.867 64.867 0 01-.186 1.642.424.424 0 01-.217.27.46.46 0 01-.347.042.455.455 0 01-.279-.211m6.211 1.675a.42.42 0 01-.052-.342c.011-.04.232-.544.664-1.514-.968.43-1.474.65-1.52.66a.45.45 0 01-.206-.008.473.473 0 01-.341-.331.472.472 0 01.005-.255c.045-.168.145-.27.304-.301l1.647-.18-1.334-.981a.414.414 0 01-.107-.43.464.464 0 01.572-.341.43.43 0 01.191.117c.035.03.362.475.983 1.335.113-1.056.176-1.603.187-1.643a.418.418 0 01.216-.27.461.461 0 01.626.17.42.42 0 01.052.34c-.011.04-.234.545-.664 1.516.967-.432 1.475-.652 1.519-.661a.35.35 0 01.226-.004c.159.043.267.153.326.329a.493.493 0 01-.001.239.446.446 0 01-.313.33l-1.646.18 1.334.983c.117.117.152.26.107.429a.518.518 0 01-.12.207.476.476 0 01-.643.018c-.034-.031-.363-.476-.983-1.336a61.288 61.288 0 01-.187 1.643.423.423 0 01-.216.27.46.46 0 01-.347.042.455.455 0 01-.279-.211m6.212 1.676a.42.42 0 01-.052-.343c.011-.039.232-.544.664-1.513-.968.43-1.475.65-1.519.66a.48.48 0 01-.549-.34.482.482 0 01.006-.255c.045-.168.145-.269.304-.3l1.647-.18-1.334-.982a.414.414 0 01-.107-.429.488.488 0 01.123-.222c.139-.122.289-.162.448-.119a.432.432 0 01.192.116c.034.031.362.475.983 1.336.113-1.057.176-1.604.187-1.644a.418.418 0 01.216-.269.454.454 0 01.347-.042.453.453 0 01.279.211.42.42 0 01.052.341c-.011.04-.234.544-.664 1.515.967-.432 1.474-.65 1.519-.66a.342.342 0 01.225-.004c.159.043.268.152.327.328a.51.51 0 01-.001.24.447.447 0 01-.314.33l-1.645.18 1.333.982c.117.117.153.26.108.43a.511.511 0 01-.12.206.476.476 0 01-.463.114.434.434 0 01-.181-.096c-.034-.03-.362-.476-.982-1.335a61.454 61.454 0 01-.187 1.642.423.423 0 01-.216.27.462.462 0 01-.626-.169m6.21 1.676a.424.424 0 01-.052-.342c.01-.04.232-.545.665-1.514-.968.431-1.475.651-1.521.66a.475.475 0 01-.547-.339.482.482 0 01.005-.255c.045-.168.146-.269.305-.301l1.646-.179-1.333-.983a.413.413 0 01-.108-.428.465.465 0 01.572-.341.427.427 0 01.19.115c.036.031.364.476.985 1.336.112-1.056.175-1.604.186-1.644a.42.42 0 01.216-.268.452.452 0 01.348-.043.454.454 0 01.278.212.419.419 0 01.053.34c-.011.04-.234.545-.665 1.515.967-.431 1.475-.651 1.52-.66a.34.34 0 01.225-.004c.159.043.267.152.327.328.018.09.018.17-.001.239a.446.446 0 01-.314.331l-1.645.18 1.333.983a.414.414 0 01.108.428.526.526 0 01-.12.208.481.481 0 01-.644.018c-.034-.031-.363-.476-.983-1.336a59.943 59.943 0 01-.186 1.643.424.424 0 01-.217.27.46.46 0 01-.347.042.459.459 0 01-.28-.211m6.212 1.675a.42.42 0 01-.052-.342c.01-.04.232-.544.664-1.514-.968.43-1.474.65-1.52.66a.476.476 0 01-.547-.34.472.472 0 01.005-.254c.045-.168.146-.27.304-.301l1.647-.18-1.334-.981a.416.416 0 01-.107-.43.464.464 0 01.572-.341.43.43 0 01.19.117c.036.03.363.475.984 1.335.113-1.056.176-1.603.187-1.643a.418.418 0 01.216-.27.456.456 0 01.348-.041.454.454 0 01.278.21.42.42 0 01.052.342c-.011.04-.234.544-.664 1.515.967-.432 1.475-.651 1.519-.661a.345.345 0 01.226-.003c.159.043.267.152.326.328.019.09.019.17-.001.239a.446.446 0 01-.313.33l-1.646.18 1.334.983a.414.414 0 01.107.428.508.508 0 01-.12.208.476.476 0 01-.643.018c-.034-.03-.363-.476-.983-1.335a61.454 61.454 0 01-.187 1.642.423.423 0 01-.216.27.46.46 0 01-.347.042.455.455 0 01-.28-.211m6.213 1.676a.42.42 0 01-.052-.342c.01-.04.232-.546.664-1.515-.968.431-1.475.651-1.52.661a.468.468 0 01-.206-.009.476.476 0 01-.342-.33.482.482 0 01.006-.256c.045-.168.145-.269.304-.3l1.647-.18-1.334-.983a.412.412 0 01-.107-.428.491.491 0 01.123-.223.465.465 0 01.448-.118.423.423 0 01.192.116c.034.03.362.475.983 1.335.113-1.056.176-1.603.187-1.643a.418.418 0 01.216-.269.45.45 0 01.347-.043.459.459 0 01.279.212.419.419 0 01.052.34c-.011.04-.234.545-.664 1.516.967-.432 1.474-.652 1.519-.66a.34.34 0 01.225-.005c.159.043.268.152.327.328a.51.51 0 01-.001.24.447.447 0 01-.314.331l-1.645.18 1.333.982a.414.414 0 01.108.428.514.514 0 01-.12.208.476.476 0 01-.463.114.446.446 0 01-.181-.096c-.034-.03-.362-.476-.982-1.336a61.92 61.92 0 01-.187 1.643.423.423 0 01-.216.27.462.462 0 01-.626-.169m-169.915 91.566l-2.072.702.7 2.071 2.084-.701-.712-2.072zm21.256 18.241a1.094 1.094 0 00-1.393-.679l-4.154 1.403c-.57.197-.877.822-.68 1.392.198.581.812.888 1.392.691l4.155-1.414c.57-.197.877-.812.68-1.393zm-1.7 5.219a1.094 1.094 0 00-1.392-.69l-6.226 2.115a1.103 1.103 0 00-.691 1.392c.197.57.822.877 1.393.68l6.226-2.116a1.08 1.08 0 00.69-1.381zm-5.57-2.741a1.085 1.085 0 00-1.39-.691l-2.073.702c-.57.198-.877.822-.68 1.392.187.581.812.888 1.382.69l2.083-.711c.57-.187.877-.812.679-1.382zm8.267-9.756a1.091 1.091 0 00-1.392-.692l-12.453 4.233c-.57.197-.877.821-.68 1.392.187.581.81.876 1.38.69l12.465-4.232c.57-.197.877-.822.68-1.391zm0 0a1.091 1.091 0 00-1.392-.692l-12.453 4.233c-.57.197-.877.821-.68 1.392.187.581.81.876 1.38.69l12.465-4.232c.57-.197.877-.822.68-1.391zm-.997 7.278a1.094 1.094 0 00-1.393-.679l-4.154 1.403c-.57.197-.877.822-.68 1.392.198.581.812.888 1.392.691l4.155-1.414c.57-.197.877-.812.68-1.393zm-1.7 5.219a1.094 1.094 0 00-1.392-.69l-6.226 2.115a1.103 1.103 0 00-.691 1.392c.197.57.822.877 1.393.68l6.226-2.116a1.08 1.08 0 00.69-1.381zm-5.57-2.741a1.085 1.085 0 00-1.39-.691l-2.073.702c-.57.198-.877.822-.68 1.392.187.581.812.888 1.382.69l2.083-.711c.57-.187.877-.812.679-1.382zm-13.986-20.719l-2.072.702.7 2.071 2.084-.701-.712-2.072zm0 0l-2.072.702.7 2.071 2.084-.701-.712-2.072zm13.987 20.719a1.085 1.085 0 00-1.391-.691l-2.073.702c-.57.198-.877.822-.68 1.392.187.581.812.888 1.382.69l2.083-.711c.57-.187.877-.812.679-1.382zm5.57 2.741a1.094 1.094 0 00-1.393-.69l-6.226 2.115a1.103 1.103 0 00-.691 1.392c.197.57.822.877 1.393.68l6.226-2.116a1.08 1.08 0 00.69-1.381zm1.699-5.219a1.094 1.094 0 00-1.393-.679l-4.154 1.403c-.57.197-.877.822-.68 1.392.198.581.812.888 1.392.691l4.155-1.414c.57-.197.877-.812.68-1.393zm.997-7.278a1.091 1.091 0 00-1.392-.692l-12.453 4.233c-.57.197-.877.821-.68 1.392.187.581.81.876 1.38.69l12.465-4.232c.57-.197.877-.822.68-1.391zm0 0a1.091 1.091 0 00-1.392-.692l-12.453 4.233c-.57.197-.877.821-.68 1.392.187.581.81.876 1.38.69l12.465-4.232c.57-.197.877-.822.68-1.391zm-.997 7.278a1.094 1.094 0 00-1.393-.679l-4.154 1.403c-.57.197-.877.822-.68 1.392.198.581.812.888 1.392.691l4.155-1.414c.57-.197.877-.812.68-1.393zm-1.7 5.219a1.094 1.094 0 00-1.392-.69l-6.226 2.115a1.103 1.103 0 00-.691 1.392c.197.57.822.877 1.393.68l6.226-2.116a1.08 1.08 0 00.69-1.381zm-5.57-2.741a1.085 1.085 0 00-1.39-.691l-2.073.702c-.57.198-.877.822-.68 1.392.187.581.812.888 1.382.69l2.083-.711c.57-.187.877-.812.679-1.382zm-13.986-20.719l-2.072.702.7 2.071 2.084-.701-.712-2.072zm.712 2.072l-.712-2.072-2.072.702.7 2.071 2.084-.701zm12.596 20.029c.57-.187.877-.812.679-1.382a1.085 1.085 0 00-1.391-.691l-2.073.702c-.57.198-.877.822-.68 1.392.187.581.812.888 1.382.69l2.083-.711zm4.856.669l-6.226 2.115a1.103 1.103 0 00-.691 1.392c.197.57.822.877 1.393.68l6.226-2.116a1.08 1.08 0 00.69-1.381 1.094 1.094 0 00-1.392-.69zm1.699-5.208l-4.154 1.403c-.57.197-.877.822-.68 1.392.198.581.812.888 1.392.691l4.155-1.414a1.095 1.095 0 10-.713-2.072zm.998-7.291l-12.453 4.233c-.57.197-.877.821-.68 1.392.187.581.81.876 1.38.69l12.465-4.232c.57-.197.877-.822.68-1.391a1.091 1.091 0 00-1.392-.692zm8.759 15.545l-18.472 6.282c-.45-.526-1.227-1.37-1.995-1.918-.033 0-1.491-1.502-5.821-.088-.011-.022-.361-1.064-.384-1.064.264-.317.58-.789.8-1.216.209-.252.845-1.48.604-3.19-.1-.593-.592-3.388-.965-4.495-1.118-3.288-3.563-6.183-8.43-4.527-.022.01-.11.033-.132.044-4.856 1.655-5.043 5.437-3.924 8.725.372 1.108 1.699 3.618 1.973 4.155.855 1.502 2.105 2.094 2.423 2.16a7.41 7.41 0 001.38.482c0 .055.34 1.053.34 1.074-4.296 1.513-4.538 3.596-4.56 3.618-.273.899-.383 2.039-.416 2.741l-1.864.625a2.177 2.177 0 01-2.773-1.37l-7.411-21.793a2.195 2.195 0 011.37-2.786l15.568-5.283a4.38 4.38 0 005.557 2.74 4.385 4.385 0 002.74-5.569l15.579-5.295a2.195 2.195 0 012.773 1.371l7.41 21.804a2.175 2.175 0 01-1.37 2.773zm-35.288 12.004c.022-.613.164-.953.24-1.271 0-.011.089-.285.494-.691.417-.406 1.163-.943 2.489-1.458.888-.307 2.083-1.468 1.6-2.883-.065-.175-.197-.559-.328-.899-.121-.34-.23-.636-.23-.636 0-.033-.252-.811-.252-.811s-1.426-.208-2.6-.712c-.668-.253-1.25-1.151-1.25-1.151-.426-.812-1.26-2.906-1.556-3.76-.722-2.138-.426-4.813 2.654-5.855 3.09-1.052 4.944.888 5.668 3.026.296.855.909 3.014 1.062 3.925 0 0 .088 1.063-.284 1.677-.625 1.107-1.623 2.149-1.623 2.149l.285.8s.373 1.195.493 1.556c.363 1.053 1.36 1.426 2.226 1.426.296 0 .57-.044.8-.121 2.73-.8 3.673-.12 3.683-.11.252.208.57.384.965.855l-14.536 4.944zm3.925-39.551a2.205 2.205 0 012.784 1.37l2.116 6.237a2.175 2.175 0 01-1.371 2.773 2.187 2.187 0 01-2.784-1.37l-2.115-6.226a2.208 2.208 0 011.37-2.784zm34.806 24.062l-7.4-21.794a4.394 4.394 0 00-5.57-2.74l-15.566 5.295-1.414-4.155a4.383 4.383 0 10-8.3 2.828l1.416 4.144-15.578 5.295a4.382 4.382 0 00-2.741 5.558l7.41 21.803a4.39 4.39 0 005.57 2.742l39.43-13.408a4.371 4.371 0 002.743-5.568zm-33.063-22.331l-2.072.702.7 2.071 2.084-.701-.712-2.072zm13.308 22.101c.57-.187.877-.812.679-1.382a1.085 1.085 0 00-1.391-.691l-2.073.702c-.57.198-.877.822-.68 1.392.187.581.812.888 1.382.69l2.083-.711zm4.856.669l-6.226 2.115a1.103 1.103 0 00-.691 1.392c.197.57.822.877 1.393.68l6.226-2.116a1.08 1.08 0 00.69-1.381 1.094 1.094 0 00-1.392-.69zm1.699-5.208l-4.154 1.403c-.57.197-.877.822-.68 1.392.198.581.812.888 1.392.691l4.155-1.414a1.095 1.095 0 10-.713-2.072zm2.39-6.599a1.091 1.091 0 00-1.392-.692l-12.453 4.233c-.57.197-.877.821-.68 1.392.187.581.81.876 1.38.69l12.465-4.232c.57-.197.877-.822.68-1.391zm0 0a1.091 1.091 0 00-1.392-.692l-12.453 4.233c-.57.197-.877.821-.68 1.392.187.581.81.876 1.38.69l12.465-4.232c.57-.197.877-.822.68-1.391zm-.997 7.278a1.094 1.094 0 00-1.393-.679l-4.154 1.403c-.57.197-.877.822-.68 1.392.198.581.812.888 1.392.691l4.155-1.414c.57-.197.877-.812.68-1.393zm-1.7 5.219a1.094 1.094 0 00-1.392-.69l-6.226 2.115a1.103 1.103 0 00-.691 1.392c.197.57.822.877 1.393.68l6.226-2.116a1.08 1.08 0 00.69-1.381zm-5.57-2.741a1.085 1.085 0 00-1.39-.691l-2.073.702c-.57.198-.877.822-.68 1.392.187.581.812.888 1.382.69l2.083-.711c.57-.187.877-.812.679-1.382zm-13.986-20.719l-2.072.702.7 2.071 2.084-.701-.712-2.072zm0 0l-2.072.702.7 2.071 2.084-.701-.712-2.072zm13.987 20.719a1.085 1.085 0 00-1.391-.691l-2.073.702c-.57.198-.877.822-.68 1.392.187.581.812.888 1.382.69l2.083-.711c.57-.187.877-.812.679-1.382zm5.57 2.741a1.094 1.094 0 00-1.393-.69l-6.226 2.115a1.103 1.103 0 00-.691 1.392c.197.57.822.877 1.393.68l6.226-2.116a1.08 1.08 0 00.69-1.381zm1.699-5.219a1.094 1.094 0 00-1.393-.679l-4.154 1.403c-.57.197-.877.822-.68 1.392.198.581.812.888 1.392.691l4.155-1.414c.57-.197.877-.812.68-1.393zm.997-7.278a1.091 1.091 0 00-1.392-.692l-12.453 4.233c-.57.197-.877.821-.68 1.392.187.581.81.876 1.38.69l12.465-4.232c.57-.197.877-.822.68-1.391zm0 0a1.091 1.091 0 00-1.392-.692l-12.453 4.233c-.57.197-.877.821-.68 1.392.187.581.81.876 1.38.69l12.465-4.232c.57-.197.877-.822.68-1.391zm-.997 7.278a1.094 1.094 0 00-1.393-.679l-4.154 1.403c-.57.197-.877.822-.68 1.392.198.581.812.888 1.392.691l4.155-1.414c.57-.197.877-.812.68-1.393zm-1.7 5.219a1.094 1.094 0 00-1.392-.69l-6.226 2.115a1.103 1.103 0 00-.691 1.392c.197.57.822.877 1.393.68l6.226-2.116a1.08 1.08 0 00.69-1.381zm-5.57-2.741a1.085 1.085 0 00-1.39-.691l-2.073.702c-.57.198-.877.822-.68 1.392.187.581.812.888 1.382.69l2.083-.711c.57-.187.877-.812.679-1.382zm-13.986-20.719l-2.072.702.7 2.071 2.084-.701-.712-2.072z" fill="#000"/><path d="M125.476 234.044l-.701-2.07 2.072-.703.712 2.072-2.083.701zm4.528 3.103l-2.116-6.238a2.205 2.205 0 00-2.784-1.37 2.21 2.21 0 00-1.37 2.784l2.115 6.227a2.188 2.188 0 002.784 1.37 2.176 2.176 0 001.37-2.773zm-4.006 25.643c-.066-.176-.197-.56-.329-.899-.12-.34-.23-.636-.23-.636 0-.033-.253-.812-.253-.812s-1.424-.208-2.598-.713c-.668-.252-1.249-1.15-1.249-1.15-.428-.811-1.26-2.904-1.557-3.76-.723-2.137-.428-4.812 2.653-5.853 3.091-1.053 4.944.887 5.667 3.025.296.856.911 3.015 1.064 3.925 0 0 .088 1.063-.285 1.677-.625 1.107-1.622 2.149-1.622 2.149l.284.8s.373 1.195.494 1.557c.361 1.052 1.36 1.424 2.225 1.424.296 0 .57-.043.8-.12 2.73-.8 3.672-.12 3.684-.11.252.208.57.385.965.855l-14.537 4.945c.022-.615.165-.954.241-1.273 0-.01.088-.285.494-.69.416-.405 1.161-.943 2.488-1.457.888-.308 2.083-1.47 1.601-2.884" fill="#FFF"/><path d="M148.416 243.627l-12.465 4.231a1.087 1.087 0 01-1.38-.69 1.1 1.1 0 01.68-1.393l12.452-4.23a1.092 1.092 0 011.393.69c.197.57-.11 1.195-.68 1.392m-.998 7.28l-4.154 1.413a1.09 1.09 0 01-1.393-.69 1.099 1.099 0 01.68-1.393l4.155-1.403a1.094 1.094 0 011.392.68 1.094 1.094 0 01-.68 1.392m-1.71 5.207l-6.227 2.117a1.099 1.099 0 01-1.392-.68c-.186-.57.11-1.195.691-1.393l6.227-2.116a1.094 1.094 0 011.391.691 1.078 1.078 0 01-.69 1.381m-9.02-2.718a1.095 1.095 0 01.678-1.392l2.071-.702a1.086 1.086 0 011.393.69 1.082 1.082 0 01-.68 1.382l-2.083.712a1.077 1.077 0 01-1.38-.69m21.146.92l-7.41-21.803a2.195 2.195 0 00-2.775-1.37l-15.577 5.294a4.384 4.384 0 11-8.299 2.828l-15.566 5.284a2.19 2.19 0 00-1.37 2.784l7.41 21.794a2.177 2.177 0 002.774 1.37l1.863-.625c.033-.7.142-1.842.417-2.74.021-.023.262-2.106 4.56-3.618 0-.022-.34-1.02-.34-1.074a7.375 7.375 0 01-1.38-.483c-.319-.065-1.569-.657-2.423-2.159-.275-.537-1.6-3.048-1.974-4.155-1.118-3.288-.93-7.07 3.925-8.726.021-.01.11-.033.131-.044 4.867-1.655 7.312 1.238 8.43 4.527.373 1.108.866 3.903.965 4.496.242 1.71-.395 2.937-.603 3.19a7.284 7.284 0 01-.8 1.216c.021 0 .372 1.042.384 1.063 4.33-1.414 5.788.088 5.82.088.768.548 1.546 1.392 1.995 1.918l18.472-6.28a2.177 2.177 0 001.371-2.775" fill="#FFF"/><path d="M171.365 312.67l-7.904 30.892a1.994 1.994 0 01-2.423 1.436l-44.792-11.477a1.996 1.996 0 01-1.437-2.423l7.915-30.892a1.992 1.992 0 012.412-1.436l44.803 11.477a1.989 1.989 0 011.426 2.423m-.986-4.166l-44.793-11.467c-2.017-.514-4.089.702-4.605 2.72l-7.914 30.902c-.515 2.017.712 4.078 2.73 4.605l44.792 11.467c2.028.514 4.09-.703 4.604-2.719l7.915-30.904a3.793 3.793 0 00-2.729-4.604" fill="#000"/><path d="M165.479 324.838l-15.644-4 2.675-10.427 15.632 4.002-2.663 10.425zm-4.013 15.644l-9.548-2.457 1.776-6.95 9.559 2.456-1.787 6.951zm-20.85-5.339l1.787-6.95 9.559 2.445-1.787 6.95-9.56-2.445zm-11.291-2.894l1.787-6.95 9.548 2.444-1.776 6.95-9.56-2.444zm-11.291-2.894l1.775-6.95 9.56 2.444-1.777 6.95-9.558-2.444zm5.119-19.985a.893.893 0 011.085-.646l.877.23a.899.899 0 01.647 1.085.904.904 0 01-1.096.647l-.867-.219a.9.9 0 01-.646-1.097zm7.816 2.006a.895.895 0 01-1.086.648l-1.742-.45a.894.894 0 01-.647-1.086.891.891 0 011.096-.646l1.733.438a.906.906 0 01.646 1.096zm-6.71-6.347a.905.905 0 011.097-.647l7.816 2.007c.483.12.768.602.647 1.085a.892.892 0 01-1.085.646l-7.827-1.995a.903.903 0 01-.647-1.096zm11.05 7.455a.879.879 0 01-1.084.646l-.866-.219a.892.892 0 01-.647-1.096.897.897 0 011.085-.647l.867.231c.482.12.778.613.646 1.085zm5.219 1.337a.9.9 0 01-1.096.647l-1.732-.449a.893.893 0 11.438-1.733l1.743.45a.89.89 0 01.647 1.085zm3.475.888a1.01 1.01 0 01-.417.56.9.9 0 01-.68.087.927.927 0 01-.547-.406.931.931 0 01-.1-.679.967.967 0 01.418-.56c.395-.229.987-.087 1.228.318.12.208.153.46.098.68zm-8.441-6.786a.89.89 0 011.086-.647l7.815 2.006a.89.89 0 01.648 1.086.89.89 0 01-1.086.647l-7.817-2.006a.882.882 0 01-.646-1.086zm34.378 2.324l-44.803-11.477a1.992 1.992 0 00-2.412 1.436l-7.915 30.892a1.996 1.996 0 001.437 2.423l44.792 11.477a1.992 1.992 0 002.422-1.436l7.905-30.892a1.99 1.99 0 00-1.426-2.423z" fill="#FFF"/><path d="M133.818 307.474a.891.891 0 01-1.085.646l-7.827-1.995a.902.902 0 01-.647-1.095.905.905 0 011.096-.648l7.817 2.007c.482.12.767.603.646 1.085m11.292 2.895a.89.89 0 01-1.086.646l-7.816-2.005a.881.881 0 01-.647-1.086.889.889 0 011.086-.647l7.816 2.006a.89.89 0 01.647 1.086m-19.348-.329a.904.904 0 01-1.097.645l-.866-.218a.901.901 0 01-.646-1.096.892.892 0 011.085-.647l.877.23a.899.899 0 01.647 1.085m5.207 1.338a.894.894 0 01-1.086.647l-1.742-.45a.893.893 0 01-.648-1.086.892.892 0 011.097-.646l1.733.439a.906.906 0 01.646 1.096m4.341 1.107a.88.88 0 01-1.085.646l-.866-.218a.893.893 0 01-.647-1.097.895.895 0 011.085-.646l.867.23c.482.12.778.613.646 1.085m5.217 1.338a.9.9 0 01-1.096.646l-1.732-.45a.894.894 0 01.438-1.732l1.744.45a.89.89 0 01.646 1.086m3.476.888c-.066.23-.22.428-.417.559a.898.898 0 01-.68.087.932.932 0 01-.548-.406.926.926 0 01-.098-.678.963.963 0 01.417-.56c.394-.23.986-.087 1.227.317.12.209.154.46.099.68m20.182 7.948l-12.168-3.113 1.786-6.95 12.158 3.113-1.776 6.95zm-11.675-12.245l-2.675 10.426 15.644 4 2.663-10.424-15.632-4.002z" fill="#000"/><path fill="#FFF" d="M165.961 315.707l-1.776 6.95-12.168-3.113 1.786-6.95z"/><path d="M126.299 329.618l-6.084-1.557.888-3.474 6.084 1.556-.888 3.475zm-6.49-7.213l-1.776 6.95 9.559 2.445 1.776-6.951-9.56-2.444z" fill="#000"/><path fill="#FFF" d="M127.187 326.143l-.888 3.475-6.084-1.557.888-3.475z"/><path d="M137.59 332.512l-6.084-1.557.898-3.474 6.074 1.556-.888 3.475zm-6.48-7.213l-1.786 6.95 9.56 2.445 1.775-6.95-9.548-2.445z" fill="#000"/><path fill="#FFF" d="M138.478 329.038l-.888 3.475-6.084-1.557.899-3.475z"/><path d="M148.88 335.407l-6.072-1.557.888-3.475 6.074 1.556-.89 3.476zm-6.478-7.214l-1.787 6.95 9.56 2.445 1.787-6.95-9.56-2.445z" fill="#000"/><path fill="#FFF" d="M149.77 331.931l-.89 3.476-6.072-1.557.889-3.476z"/><path d="M160.173 338.3l-6.073-1.567.887-3.476 6.084 1.568-.898 3.475zm-6.48-7.225l-1.775 6.951 9.548 2.456 1.787-6.95-9.56-2.457z" fill="#000"/><path fill="#FFF" d="M161.071 334.826l-.898 3.475-6.074-1.568.888-3.475z"/><path d="M389.173 223.72l16.922 27.026a1.994 1.994 0 01-.631 2.745l-39.2 24.525a1.994 1.994 0 01-2.744-.63l-16.915-27.035a1.99 1.99 0 01.623-2.737l39.207-24.533a1.988 1.988 0 012.738.64m-3.697-2.159l-39.193 24.532c-1.763 1.105-2.311 3.445-1.206 5.21L362 278.344c1.106 1.764 3.444 2.296 5.217 1.198l39.19-24.532c1.773-1.113 2.313-3.445 1.207-5.209l-16.921-27.042a3.791 3.791 0 00-5.217-1.198" fill="#000"/><path d="M393.926 236.375l-13.686 8.569-5.705-9.126 13.677-8.562 5.714 9.119zm8.563 13.691l-8.364 5.222-3.808-6.078 8.37-5.23 3.802 6.087zm-18.246 11.42l-3.8-6.087 8.362-5.238 3.8 6.088-8.362 5.237zm-9.881 6.181l-3.801-6.086 8.354-5.228 3.809 6.078-8.362 5.237zm-9.882 6.183l-3.81-6.08 8.363-5.236 3.809 6.078-8.362 5.237zm-10.943-17.49a.893.893 0 01.28-1.23l.77-.477a.899.899 0 011.234.28.906.906 0 01-.29 1.24l-.754.475a.899.899 0 01-1.24-.287zm6.842-4.277a.893.893 0 01-.28 1.232l-1.527.953a.894.894 0 01-1.232-.28.89.89 0 01.287-1.24l1.513-.951a.903.903 0 011.239.286zm-9.223.482a.906.906 0 01.288-1.24l6.842-4.276a.894.894 0 01.952 1.512l-6.841 4.292a.907.907 0 01-1.241-.288zm13.019-2.862a.881.881 0 01-.28 1.232l-.756.476a.892.892 0 01-1.24-.287.896.896 0 01.28-1.231l.764-.47a.884.884 0 011.232.28zm4.566-2.857a.9.9 0 01-.287 1.24l-1.52.944a.89.89 0 01-1.232-.28.892.892 0 01.28-1.23l1.528-.954a.887.887 0 011.23.28zm3.04-1.905c.122.208.159.454.118.689a.909.909 0 01-.406.553.923.923 0 01-.671.117.93.93 0 01-.56-.399.965.965 0 01-.118-.687c.105-.444.617-.774 1.077-.67a.936.936 0 01.56.397zm-10.735 1.434a.888.888 0 01.28-1.23l6.843-4.279a.89.89 0 011.232.28.889.889 0 01-.281 1.233l-6.842 4.276a.879.879 0 01-1.232-.28zm25.389-23.293l-39.207 24.531a1.992 1.992 0 00-.623 2.738l16.915 27.035a1.994 1.994 0 002.745.63l39.199-24.526a1.993 1.993 0 00.63-2.744l-16.921-27.026a1.988 1.988 0 00-2.738-.639z" fill="#FFF"/><path d="M359.519 247.329a.893.893 0 01-.28 1.23l-6.842 4.294a.904.904 0 01-1.24-.287.905.905 0 01.287-1.24l6.843-4.277a.888.888 0 011.232.28m9.881-6.182c.268.42.14.966-.28 1.231l-6.843 4.278a.88.88 0 01-1.23-.28.888.888 0 01.28-1.232l6.843-4.277a.887.887 0 011.23.28m-13.58 13.785a.904.904 0 01-.288 1.24l-.756.476a.899.899 0 01-.96-1.519l.772-.476a.896.896 0 011.232.28m4.559-2.85a.893.893 0 01-.279 1.232l-1.528.953a.894.894 0 01-1.232-.28.89.89 0 01.287-1.24l1.513-.951a.903.903 0 011.239.286m3.796-2.379a.88.88 0 01-.28 1.23l-.756.478a.892.892 0 01-1.24-.288.897.897 0 01.28-1.232l.764-.468a.884.884 0 011.232.28m4.566-2.858a.899.899 0 01-.287 1.24l-1.52.945a.89.89 0 01-1.232-.28.891.891 0 01.28-1.232l1.528-.952a.887.887 0 011.231.28m3.04-1.905c.121.207.158.454.117.687a.903.903 0 01-.405.553.926.926 0 01-.672.117.934.934 0 01-.56-.397.967.967 0 01-.118-.688c.106-.444.617-.774 1.077-.67.235.057.44.208.561.398m19.672-9.135l-10.646 6.665-3.8-6.087 10.637-6.657 3.81 6.08zm-16.918.011l5.705 9.126 13.686-8.57-5.714-9.118-13.677 8.562z" fill="#000"/><path fill="#FFF" d="M387.645 229.728l3.809 6.079-10.646 6.665-3.801-6.087z"/><path d="M370.37 268.044l-5.323 3.333-1.905-3.039 5.324-3.333 1.904 3.04zm-9.699-.273l3.808 6.078 8.363-5.238-3.809-6.078-8.362 5.238z" fill="#000"/><path fill="#FFF" d="M368.466 265.005l1.904 3.04-5.323 3.332-1.904-3.039z"/><path d="M380.252 261.863l-5.323 3.333-1.897-3.048 5.316-3.324 1.904 3.039zm-9.691-.282l3.8 6.087 8.363-5.238-3.809-6.078-8.354 5.229z" fill="#000"/><path fill="#FFF" d="M378.348 258.824l1.904 3.039-5.323 3.333-1.896-3.048z"/><path d="M390.134 255.681l-5.315 3.325-1.905-3.04 5.316-3.324 1.904 3.04zm-9.691-.282l3.8 6.087 8.363-5.238-3.801-6.087-8.362 5.238z" fill="#000"/><path fill="#FFF" d="M388.23 252.642l1.904 3.04-5.315 3.324-1.904-3.04z"/><path d="M400.016 249.5l-5.323 3.316-1.905-3.038 5.332-3.326 1.896 3.048zm-9.7-.29l3.809 6.078 8.364-5.222-3.802-6.087-8.37 5.231z" fill="#000"/><path fill="#FFF" d="M398.12 246.452l1.895 3.048-5.323 3.317-1.904-3.04zm-142.843 33.58l-72.083 22.095-33.852-110.443 72.083-22.094z"/><path stroke="#000" stroke-width="1.521" d="M255.277 280.032l-72.083 22.095-33.852-110.443 72.083-22.094z"/><path fill="#FFF" d="M305.126 278.958l-72.135 21.924-33.59-110.523 72.135-21.923z"/><path stroke="#000" stroke-width="1.521" d="M305.126 278.958l-72.135 21.924-33.59-110.523 72.135-21.923z"/><path fill="#FFF" d="M307.844 296.24l-74.157-13.587 20.818-113.622 74.158 13.587z"/><path stroke="#000" stroke-width="1.521" d="M307.844 296.24l-74.157-13.587 20.818-113.622 74.158 13.587z"/><path stroke="#000" stroke-width="1.266" d="M167.204 207.698l34.078-10.515m-31.876 17.432l34.078-10.515m-32.112 17.432l34.077-10.515m-31.524 17.432l34.078-10.515m-31.876 17.432l34.078-10.515m-32.112 17.433l34.078-10.516m1.31-34.111l34.077-10.516m-31.875 17.433l34.077-10.516m-32.112 17.433l34.078-10.515m-31.525 17.432l34.078-10.515m-31.876 17.432l34.078-10.515m-32.112 17.432l34.078-10.515"/><path fill="#FFF" d="M306.117 287.96l-74.515-11.472 17.576-114.168 74.514 11.471z"/><path stroke="#000" stroke-width="1.521" d="M306.117 287.96l-74.515-11.472 17.576-114.168 74.514 11.471z"/><path d="M255.088 265.103a4.333 4.333 0 01-2.298.507c-.822-.041-1.624-.328-2.408-.861-.784-.534-1.348-1.173-1.688-1.921a4.337 4.337 0 01-.373-2.324c.09-.8.374-1.55.848-2.247.349-.512.715-.911 1.099-1.195a5.982 5.982 0 011.207-.698c.257-.108.492-.089.705.055.145.099.24.246.286.439a.62.62 0 01-.08.508.8.8 0 01-.305.26 6.743 6.743 0 00-.914.579c-.226.177-.455.436-.685.775-.566.833-.771 1.648-.614 2.448.157.8.627 1.467 1.41 1.999.786.533 1.579.726 2.379.577.802-.148 1.487-.639 2.052-1.472.23-.338.386-.646.468-.923.082-.277.149-.631.202-1.062a.805.805 0 01.13-.379.616.616 0 01.443-.261.698.698 0 01.513.104c.213.145.315.357.31.636a6.128 6.128 0 01-.205 1.379c-.122.461-.357.948-.706 1.461a4.969 4.969 0 01-1.776 1.616m6.181-11.283c.063-.487-.023-.985-.26-1.491-.235-.508-.657-.97-1.267-1.383-.6-.408-1.18-.628-1.74-.661-.556-.032-1.047.072-1.473.313a3.13 3.13 0 00-1.56 2.294c-.066.486.019.978.257 1.48.239.503.659.958 1.259 1.365.61.415 1.192.64 1.748.679.555.036 1.048-.064 1.476-.302.432-.237.786-.56 1.062-.967.269-.396.436-.84.498-1.327m-1.104 3.78a3.944 3.944 0 01-2.241.378c-.793-.093-1.567-.396-2.322-.91-.755-.513-1.321-1.12-1.7-1.824a3.939 3.939 0 01-.475-2.222c.063-.778.347-1.54.854-2.285.5-.736 1.1-1.276 1.8-1.621a3.998 3.998 0 012.247-.384c.796.089 1.57.389 2.326.902.755.514 1.32 1.124 1.696 1.832.374.708.53 1.45.47 2.23-.063.778-.344 1.535-.844 2.27-.507.746-1.11 1.29-1.811 1.635m5.456-7.561a.761.761 0 01-.593-.127l-6.228-4.234a.793.793 0 01-.344-.51.746.746 0 01.12-.598.783.783 0 01.517-.339.774.774 0 01.604.125l.596.405a5.806 5.806 0 01-.163-1.851c.047-.591.267-1.177.662-1.757.362-.532.803-.91 1.32-1.13a2.987 2.987 0 011.643-.2c.577.087 1.127.31 1.65.664l4.123 2.804a.746.746 0 01.331.512.794.794 0 01-.132.6.761.761 0 01-.504.335.758.758 0 01-.592-.126l-3.979-2.704c-1.18-.803-2.134-.672-2.857.394a2.789 2.789 0 00-.505 1.554c-.009.554.085 1.145.28 1.774l4.357 2.96a.75.75 0 01.331.511.793.793 0 01-.132.6.765.765 0 01-.505.338m6.256-9.207a.76.76 0 01-.592-.125l-5.692-3.87-.582.857a.656.656 0 01-.439.286.65.65 0 01-.511-.105.644.644 0 01-.293-.441.663.663 0 01.111-.51l.582-.857-.843-.572c-.58-.394-.986-.822-1.218-1.284-.23-.46-.317-.915-.26-1.364a2.77 2.77 0 01.462-1.227 3.35 3.35 0 011.149-1.066.766.766 0 01.372-.096c.136 0 .256.035.362.107a.66.66 0 01.277.422.61.61 0 01-.09.492 1.618 1.618 0 01-.271.304 7.486 7.486 0 00-.31.362c-.27.398-.379.757-.33 1.08.049.325.314.65.799.978l.798.543 1.235-1.814a.656.656 0 01.435-.297.667.667 0 01.516.115.667.667 0 01.289.431.65.65 0 01-.109.52l-1.234 1.816 5.693 3.869a.75.75 0 01.331.51.794.794 0 01-.131.6.763.763 0 01-.506.336m3.395-4.993a.76.76 0 01-.593-.128l-6.228-4.233a.794.794 0 01-.345-.51.751.751 0 01.12-.598.784.784 0 011.122-.214l6.23 4.234a.75.75 0 01.33.511.796.796 0 01-.132.601.761.761 0 01-.505.336m-9.075-6.04a.857.857 0 01-.67-.138l-.058-.04a.859.859 0 01-.375-.572.864.864 0 01.138-.672l.06-.087a.857.857 0 01.573-.374.86.86 0 01.67.137l.058.04a.868.868 0 01.375.573.863.863 0 01-.138.67l-.06.088a.857.857 0 01-.572.374m13.197-2.756a4.34 4.34 0 00-.084-1.577l-3.05-2.072a4.355 4.355 0 00-1.497.5 3.317 3.317 0 00-1.151 1.053c-.487.718-.651 1.448-.491 2.194.159.745.653 1.399 1.486 1.965.833.566 1.625.786 2.376.659.75-.127 1.37-.549 1.856-1.264a3.3 3.3 0 00.555-1.458m-1.066 3.88c-.67.33-1.412.464-2.224.399-.812-.064-1.611-.363-2.396-.895-.784-.532-1.354-1.164-1.713-1.897-.36-.732-.507-1.47-.448-2.215.06-.744.294-1.417.702-2.016.645-.95 1.576-1.528 2.79-1.734l-3.556-2.418a.766.766 0 01-.346-.52.794.794 0 01.13-.602.752.752 0 01.514-.33.792.792 0 01.599.13l9.424 6.405a.764.764 0 01.336.504.764.764 0 01-.127.594.79.79 0 01-.51.344.742.742 0 01-.596-.12l-.378-.256c.255 1.206.06 2.284-.584 3.232a4.112 4.112 0 01-1.617 1.396m4.817-15.693c-.494-.292-.976-.438-1.442-.438-.468 0-.885.11-1.253.327a2.742 2.742 0 00-.886.82 2.762 2.762 0 00-.437 1.126c-.066.42-.012.847.164 1.277.172.43.488.82.943 1.172l2.91-4.283zm.304 6.969c-1.122.206-2.294-.106-3.514-.935a5.717 5.717 0 01-1.645-1.67 3.915 3.915 0 01-.62-2.12c-.002-.764.256-1.53.776-2.295.487-.717 1.075-1.221 1.764-1.518a3.928 3.928 0 012.145-.283 4.97 4.97 0 012.099.832.787.787 0 01.34.498c.044.206-.003.41-.141.614l-3.345 4.922c.73.383 1.429.49 2.096.32.667-.17 1.26-.636 1.78-1.4.276-.407.48-.788.608-1.146.13-.357.22-.731.274-1.12a.707.707 0 01.119-.301.704.704 0 01.436-.298.637.637 0 01.525.102c.213.144.307.392.28.743a6.388 6.388 0 01-.28 1.443c-.143.44-.412.95-.808 1.532-.801 1.18-1.765 1.874-2.89 2.08zm6.091-7.355a.758.758 0 01-.592-.126l-6.229-4.233a.797.797 0 01-.344-.51.75.75 0 01.12-.598.783.783 0 01.517-.339.774.774 0 01.604.125l.596.405a5.806 5.806 0 01-.163-1.852c.047-.59.267-1.176.663-1.757.361-.532.802-.909 1.32-1.13a2.975 2.975 0 011.642-.2c.577.088 1.127.31 1.65.665l4.123 2.803a.746.746 0 01.331.512.798.798 0 01-.13.6.763.763 0 01-.506.336.759.759 0 01-.592-.127l-3.979-2.704c-1.18-.803-2.134-.672-2.857.394a2.789 2.789 0 00-.505 1.555c-.009.554.085 1.145.28 1.773l4.357 2.961a.75.75 0 01.331.511.793.793 0 01-.132.6.758.758 0 01-.505.336m4.404-10.039l-4.502-3.059-.7 1.031a.32.32 0 01-.214.141.319.319 0 01-.249-.052.37.37 0 01-.158-.299l-.589-3.287c-.028-.146-.016-.258.037-.336a.312.312 0 01.22-.137.352.352 0 01.258.06l1.162.788 1.115-1.64a.661.661 0 01.951-.181.672.672 0 01.181.95l-1.116 1.641 4.386 2.98c.377.256.677.33.902.22.222-.11.426-.3.611-.57.131-.195.233-.409.308-.642.016-.045.034-.093.054-.143.02-.05.053-.11.1-.177a.612.612 0 01.397-.259.592.592 0 01.48.092c.222.151.315.377.28.68a3.437 3.437 0 01-.557 1.382c-.96 1.413-2.08 1.685-3.357.817m5.256-4.175a.76.76 0 01-.592-.126l-6.229-4.234a.798.798 0 01-.344-.509.75.75 0 01.12-.598.78.78 0 011.121-.214l6.23 4.233a.75.75 0 01.331.512.792.792 0 01-.13.6.763.763 0 01-.507.336m-9.074-6.04a.86.86 0 01-.67-.138l-.06-.039a.862.862 0 01-.374-.573.86.86 0 01.137-.67l.06-.088a.862.862 0 01.573-.375.856.856 0 01.67.138l.058.04a.868.868 0 01.375.572.866.866 0 01-.138.671l-.06.087a.855.855 0 01-.57.374m12.647-1.824a4.132 4.132 0 00-.096-1.53l-1.22-.829-1.076 1.582c-.993 1.462-1.106 2.453-.34 2.973.347.237.709.31 1.083.216.373-.092.748-.414 1.123-.966.29-.425.464-.907.526-1.446m-.767 3.735c-.42.244-.87.36-1.348.346a2.538 2.538 0 01-1.371-.466c-.716-.486-1.096-1.157-1.137-2.013-.04-.856.31-1.83 1.053-2.924l1.195-1.757-.116-.079c-.64-.435-1.206-.589-1.7-.465-.495.123-.969.52-1.423 1.187-.25.368-.444.714-.579 1.04a9.844 9.844 0 00-.385 1.128c-.033.09-.067.16-.099.208a.62.62 0 01-.416.27.645.645 0 01-.5-.107c-.261-.178-.361-.429-.296-.753a7.73 7.73 0 011.185-2.867c.454-.668.973-1.139 1.557-1.415.582-.276 1.164-.376 1.741-.3a3.692 3.692 0 011.625.625l4.108 2.792a.745.745 0 01.33.512.792.792 0 01-.13.6.763.763 0 01-.505.336.759.759 0 01-.592-.127l-.379-.256c.249 1.216-.001 2.376-.751 3.48a3.263 3.263 0 01-1.067 1.005m5.196-7.645a.76.76 0 01-.593-.126l-9.424-6.405a.801.801 0 01-.342-.51.744.744 0 01.12-.597.783.783 0 01.514-.35.791.791 0 01.607.135l9.424 6.405a.75.75 0 01.331.512.793.793 0 01-.132.6.763.763 0 01-.505.336" fill="#000"/></g></svg>