<svg id="Layer_1" data-name="Layer 1" xmlns="http://www.w3.org/2000/svg" xmlns:xlink="http://www.w3.org/1999/xlink" viewBox="0 0 400 400"><defs><style>.cls-1{fill:#fff;}.cls-1,.cls-10,.cls-11,.cls-13,.cls-19,.cls-20,.cls-3,.cls-4,.cls-6,.cls-7,.cls-8,.cls-9{fill-rule:evenodd;}.cls-15,.cls-17,.cls-18,.cls-2,.cls-22,.cls-25,.cls-26,.cls-27,.cls-5{fill:none;}.cls-2{stroke:#37b1cc;stroke-width:2.2px;}.cls-3{fill:#37b1cc;}.cls-4{fill:#18343a;}.cls-5{stroke:#ff3434;stroke-width:4.32px;}.cls-18,.cls-22,.cls-5{stroke-linecap:round;}.cls-22,.cls-5{stroke-linejoin:round;}.cls-6{fill:#a06e5f;}.cls-7{fill:#7a4537;}.cls-8{fill:#383838;}.cls-9{fill:#6d3224;}.cls-10{fill:#f1d5c3;}.cls-11{fill:#df715c;}.cls-12{mask:url(#mask);}.cls-13{fill:#263238;}.cls-14{mask:url(#mask-3);}.cls-15{stroke:#263238;}.cls-15,.cls-22,.cls-25{stroke-width:0.69px;}.cls-16{mask:url(#mask-8-2);}.cls-17,.cls-22{stroke:#df715c;}.cls-17{stroke-width:1.04px;}.cls-18{stroke:#383838;stroke-width:0.97px;}.cls-20{fill:#ff3434;}.cls-21{mask:url(#mask-9);}.cls-23{mask:url(#mask-10-2);}.cls-24{mask:url(#mask-12-2);}.cls-25,.cls-26,.cls-27{stroke:#e5b79e;}.cls-26{stroke-width:0.58px;}.cls-27{stroke-width:0.7px;}</style><mask id="mask" x="226.27" y="276.87" width="52.5" height="39.85" maskUnits="userSpaceOnUse"><g id="mask-2"><path id="path-1" class="cls-1" d="M227.17,305c16.24,3.8,32.49,7.29,48.58,11.7h0c-.05-9.22,3.19-18.86,3-27.49h0c-16.67-5.87-35.32-8.34-52.49-12.36h0c.3,9.38.62,18.77.9,28.15"/></g></mask><mask id="mask-3" x="226.26" y="276.87" width="52.51" height="39.85" maskUnits="userSpaceOnUse"><g id="mask-4-2" data-name="mask-4"><path id="path-3-2" data-name="path-3" class="cls-1" d="M227.17,305c16.24,3.8,32.49,7.29,48.58,11.7h0c-.05-9.22,3.19-18.86,3-27.49h0c-16.67-5.87-35.32-8.34-52.49-12.36h0c.3,9.38.62,18.77.9,28.15"/></g></mask><mask id="mask-8-2" x="252.73" y="295.01" width="49.87" height="46.1" maskUnits="userSpaceOnUse"><g id="mask-14"><polygon id="path-13" class="cls-1" points="252.73 295.01 302.6 295.01 302.6 341.11 252.73 341.11 252.73 295.01"/></g></mask><mask id="mask-9" x="17.23" y="193.73" width="95.55" height="122.98" maskUnits="userSpaceOnUse"><g id="mask-16"><polygon id="path-15" class="cls-1" points="17.23 193.73 112.79 193.73 112.79 316.71 17.23 316.71 17.23 193.73"/></g></mask><mask id="mask-10-2" x="150.32" y="275.62" width="52.5" height="39.85" maskUnits="userSpaceOnUse"><g id="mask-18"><path id="path-17" class="cls-1" d="M150.33,288c-.18,8.63,3.06,18.27,3,27.49h0c16.09-4.41,32.34-7.89,48.57-11.7h0q.44-14.07.91-28.14h0c-17.18,4-35.83,6.48-52.5,12.35"/></g></mask><mask id="mask-12-2" x="150.32" y="275.62" width="52.51" height="39.85" maskUnits="userSpaceOnUse"><g id="mask-20-2" data-name="mask-20"><path id="path-19-2" data-name="path-19" class="cls-1" d="M150.33,288c-.18,8.63,3.06,18.27,3,27.49h0c16.09-4.41,32.34-7.89,48.57-11.7h0q.44-14.07.91-28.14h0c-17.18,4-35.83,6.48-52.5,12.35"/></g></mask></defs><g id="_04-how-to-3" data-name="04-how-to-3"><g id="Group-148"><g id="Group-61"><g id="Group-4"><path id="Fill-1" class="cls-1" d="M146,130.63c.07-4.46,3.17-7.8,7-7.34l6.09.72c4.21.51,6.88,3.83,6.84,8.72"/><path id="Stroke-3" class="cls-2" d="M146,130.63c.07-4.46,3.17-7.8,7-7.34l6.09.72c4.21.51,6.88,3.83,6.84,8.72"/></g><line id="Stroke-5" class="cls-2" x1="146.02" y1="130.63" x2="145.89" y2="139.24"/><line id="Stroke-7" class="cls-2" x1="165.97" y1="132.53" x2="165.97" y2="143.28"/><path id="Fill-9" class="cls-3" d="M168.2,188.22a5.37,5.37,0,0,1-2.07-.43l-24.42-10c-3-1.24-5.43-5.83-5.38-10.24v-22c0-3.93,2.15-7,4.79-7a3.46,3.46,0,0,1,.78.09l26,5.88c4.18.95,5.71,6.67,5.36,11.91V182c-.25,3.68-2.3,6.2-5.11,6.2"/><path id="Fill-11" class="cls-3" d="M141.12,137.42c-3.2,0-5.84,3.43-5.89,8.13v22c-.06,4.83,2.63,9.86,6.06,11.27l24.43,10a6.46,6.46,0,0,0,2.48.52c3.28,0,5.92-2.82,6.21-7.31V156.47c.4-6.06-1.54-12-6.22-13.05l-26-5.89a5.23,5.23,0,0,0-1-.11m0,2.2h0a2.48,2.48,0,0,1,.54.06l26.05,5.89c3.53.8,4.81,6.14,4.5,10.76v25.61c-.23,3.1-1.84,5.18-4,5.18a4.41,4.41,0,0,1-1.65-.35l-24.42-10c-2.87-1.17-4.74-5.71-4.7-9.23v-22c0-3.29,1.7-6,3.69-6"/><path id="Fill-13" class="cls-4" d="M156.35,159.59c-.08,2.18-1.47,3.53-3.08,3s-2.82-2.56-2.76-4.68,1.38-3.55,3-3.13,2.91,2.57,2.84,4.76"/><path id="Fill-15" class="cls-4" d="M153.07,171.1l-.11,0a1.55,1.55,0,0,1-.86-1.48l.25-8.59c0-.67.44-1.1.94-.95l.11,0a1.49,1.49,0,0,1,.88,1.49l-.27,8.65c0,.65-.45,1.05-.94.88"/><g id="Group-20"><path id="Fill-17" class="cls-1" d="M265.85,131.54c-.14-4.24-3.14-7.53-6.82-7.26l-5.86.43c-4.08.3-7.35,4.46-7.1,9.17"/><path id="Stroke-19" class="cls-2" d="M265.85,131.54c-.14-4.24-3.14-7.53-6.82-7.26l-5.86.43c-4.08.3-7.35,4.46-7.1,9.17"/></g><line id="Stroke-21" class="cls-2" x1="265.85" y1="131.54" x2="266.11" y2="139.79"/><line id="Stroke-23" class="cls-2" x1="246.07" y1="133.88" x2="246.57" y2="143.03"/><path id="Fill-25" class="cls-3" d="M244.67,188a6.91,6.91,0,0,1-6.8-6.52V155.6c-.37-5.53,2.83-10.83,7-11.62l25.29-5.28a2.52,2.52,0,0,1,.48,0c2.16,0,3.9,3.27,4.06,7.6v21.12c.15,4.13-.72,8.93-3.58,10.12l-24.15,10a5.91,5.91,0,0,1-2.26.44"/><path id="Fill-27" class="cls-3" d="M270.61,137.55a3.39,3.39,0,0,0-.7.07l-25.28,5.27c-4.64.9-8.27,6.66-7.86,12.71v25.93a8,8,0,0,0,7.9,7.55,7.11,7.11,0,0,0,2.69-.52L271.5,178.5c3.31-1.37,4.43-6.35,4.27-11.13V146.21c-.17-4.64-2.11-8.66-5.16-8.66m0,2.2c1.31,0,2.81,2.61,2.95,6.5v21.19c.17,4.61-1,8.24-2.91,9l-24.14,10.05a4.72,4.72,0,0,1-1.84.36,5.81,5.81,0,0,1-5.7-5.43v-26c-.33-4.86,2.52-9.72,6.11-10.41l25.24-5.27.29,0"/><path id="Fill-29" class="cls-4" d="M256.24,159.37c.1,2.16,1.48,3.53,3.06,3.08s2.73-2.48,2.64-4.58-1.4-3.51-3-3.14-2.83,2.47-2.73,4.64"/><path id="Fill-31" class="cls-4" d="M259.61,170.89l.11,0a1.5,1.5,0,0,0,.82-1.47l-.35-8.54c0-.66-.45-1.09-.95-1l-.1,0a1.43,1.43,0,0,0-.85,1.45l.38,8.63c0,.66.46,1.06.94.9"/><polyline id="Stroke-33" class="cls-5" points="233.45 106.63 304.83 90.9 199.32 75.32 128.41 85.34"/><path id="Stroke-35" class="cls-5" d="M233.1,106.71l-5.58-9.28a3.71,3.71,0,0,0-3.71-1.51l-12.49,1.83a2.94,2.94,0,0,0-2.78,2.64V236.73L290.28,190,304.83,90.9"/><path id="Stroke-37" class="cls-5" d="M208.54,111.94,130,94.33S127.93,84.54,127,82a2.15,2.15,0,0,0-1.67-1.22l-18.09-3.61c-1-.21-2.08.37-2.08,1.16L115.51,190l93,46.76V111.94"/><path id="Stroke-39" class="cls-5" d="M276.88,86l10-10.83a1.35,1.35,0,0,1,1.19-.41l15.7,2.68a1.2,1.2,0,0,1,1,1.18v12.5"/><path id="Stroke-41" class="cls-5" d="M170.21,79.39l9.62-16A1.36,1.36,0,0,1,181,63l16.81-.9a1.19,1.19,0,0,1,1,1.18l-.13,11.2"/><path id="Fill-43" class="cls-6" d="M338.19,285.58c18.58-7.19,27.86-16,28.26-18.72,1.51-10.26,5.72-41.05,5.72-41.05L338.39,215c-5.64,1.77-12.28,4.84-21.77,11.28-1.3,1.33-4.83,3.55-6,7.13-1.24,4-.8,9.38-4.35,16.1-3.14,5.95-.38,13.22-.13,20.53.33,9.58,2.47,13.32,9.41,13.32h3.76c10,0,14,7.13,14-2.28,0-1.3,4.83,4.53,4.83,4.53"/><polyline id="Fill-45" class="cls-6" points="341.57 282.06 351.34 279.91 351.58 302.06 341.46 304.42 341.17 304.42 331.07 302 331.56 275.43 341.92 281.89"/><path id="Fill-47" class="cls-7" d="M347.57,267.52s.15,11.23-4.18,16.34-12.18,8.43-12.18,8.43-1.17-7.19.16-6.31,12.07-17.47,12.07-17.47Z"/><path id="Fill-49" class="cls-8" d="M319.36,242.17c-1,0-1.79,1.84-1.8,4.11s.79,4.11,1.77,4.11,1.79-1.84,1.8-4.11-.78-4.1-1.77-4.11"/><path id="Fill-51" class="cls-9" d="M306.18,259.54c.38-1.12.23-9.31.24-10.13-.51.69-4.79,7.22-5.2,8.15-.28.63,4.84,2.33,5,2"/><path id="Fill-53" class="cls-10" d="M342.38,242.2c.13-.19,6.56-2.79,6.44,5.49s-4.57,7.14-6.62,7.35.06-12.65.18-12.84"/><path id="Fill-55" class="cls-11" d="M331.44,282.24c.09-.23,4.61-.56,5.94-1.65l.19,3.64-6.2,1.75Z"/><path id="Fill-57" class="cls-6" d="M282.27,290.39s-3.64-11.34-9.45-13.53c-6.28-2.36-12.85-10.73-12.84-13.6a3.18,3.18,0,0,1,4.1-3c2.86.65,4.45,7.77,9.06,7.17a4.31,4.31,0,0,0,2.72-1.59c3.21-3.87-1.48-9.3-6-7-2.13,1.09-4.53,1.87-6.06,1-3.28-1.94-2.46-5.22.19-5.8s6.2-4.6,12.62-3c6.16,1.55-5.54-13.17-6.72-15.49-.64-1.25.86-3.37,1.91-3.42,1.83-.1,3.59,1.62,4.64,2.45,1.32,1.06,8.82,16.06,8.82,16.06l-7-13.24c-2.48-3.43.69-6.77,2.8-4.58,1,1,8.52,17.15,8.52,17.15-.52-1.38-5.17-12.33-5-14a1.63,1.63,0,0,1,1.38-.89c1.4-.1,2.21,1,2.63,2.32.72,2.32,5.22,13.52,5.35,14.6s-.13,2.91-.91,9.51c0,10.21,1,23.62,1,23.62"/><path id="Fill-59" class="cls-6" d="M278.82,298c-.11.07-3.5-.81-5.43-.64s-1.81,4.37-1.81,4.37l5,1.41,4.27-1.35Z"/></g><g id="Group-81"><g id="Group-64"><g class="cls-12"><path id="Fill-62" class="cls-1" d="M264.66,286.53c-4.73-1.15-7.9.25-10.67,4-.3.4-.47.6-1.05.47-6.84-1.58-13.85-3-20.73-4.63l-4.83,4a1.76,1.76,0,0,0,.57.92s0,0,.09,0l.36.09,3.06-2.12a.74.74,0,0,1,0-.17c0-.09,0-.32.19-.28,5.83,1.36,11.74,2.58,17.54,3.94a1.78,1.78,0,0,1,1.14.82,2.65,2.65,0,0,1,.5,1.58,1.71,1.71,0,0,1-.49,1.35,1,1,0,0,1-1.15.31c-2-.41-4.1-.92-6.22-1.4-4.79-1.1-9.71-2.23-14.52-3.36l4.15,6.8c1-.62,1.8-1.17,2.83-1.91a.74.74,0,0,1,.75-.1c1.32.36,3.19.69,4.78,1.13a1.57,1.57,0,0,1,.74.63c.23.42,1.22,1.63,1.58,2.19,3.29.83,6.6,1.46,9.86,2.2a1.55,1.55,0,0,1,1,.93c2.33,4.27,5.24,7.42,9.91,9a1.42,1.42,0,0,0,.44.11c7,.57,10-3.7,10.87-10.29a16.65,16.65,0,0,0-.33-7.23c-1.25-4.48-5.93-7.87-10.39-9m8.47,15.4s-.12,0-.17,0,.14.05.17,0a5.56,5.56,0,0,1-1.54,3.46,3.2,3.2,0,0,1-3.23.76,5.67,5.67,0,0,1-3.2-2.37,7.48,7.48,0,0,1-1.34-4.2,4.06,4.06,0,0,1,1.68-3.48,4.58,4.58,0,0,1,3.93-.51A4.91,4.91,0,0,1,272.5,298a6.42,6.42,0,0,1,.63,3.91"/></g></g><g id="Group-68"><g class="cls-12"><path id="Fill-65" class="cls-13" d="M264.68,285.86c-4.86-1.19-8.12.31-11,4.11a.6.6,0,0,1-.75.32c-6.9-1.61-13.94-3-20.88-4.66l-5.36,4.46q2.92,4.76,5.83,9.53c1-.7,2-1.36,3.05-2.08a.65.65,0,0,1,.54-.06c1.09.31,3.74.81,4.59,1.07s.29.1.68.5c.65.66,1.13,1.64,1.76,2.37,3.29.82,6.67,1.49,10,2.2a1.07,1.07,0,0,1,.75.63c2.41,4.43,5.39,7.68,10.21,9.34a1.46,1.46,0,0,0,.45.1c7.33.59,10.41-4,11.22-10.86a17.76,17.76,0,0,0-.35-7.68c-1.34-4.6-6.12-8.16-10.72-9.29m-.61,27c-4.68-1.59-7.58-4.74-9.91-9a1.55,1.55,0,0,0-1-.93c-3.26-.74-6.57-1.37-9.86-2.2-.36-.56-1.34-1.77-1.58-2.19a1.57,1.57,0,0,0-.74-.63c-1.59-.44-3.47-.77-4.78-1.13a.73.73,0,0,0-.75.1c-1,.74-1.84,1.29-2.83,1.91-1.38-2.27-2.77-4.53-4.16-6.8a2.83,2.83,0,0,1-.37-.09c-.13,0-.2-.24-.2-.37s0-.22.11-.29l-.57-.93,4.83-4c6.88,1.61,13.89,3.05,20.73,4.63.58.13.75-.07,1.06-.47,2.76-3.7,5.93-5.11,10.66-4,4.46,1.09,9.13,4.48,10.39,9a16.65,16.65,0,0,1,.33,7.23c-.83,6.59-3.85,10.86-10.87,10.29a1.42,1.42,0,0,1-.44-.11"/></g><g class="cls-14"><path id="Stroke-67" class="cls-15" d="M264.68,285.86c-4.86-1.19-8.12.31-11,4.11a.6.6,0,0,1-.75.32c-6.9-1.61-13.94-3-20.88-4.66l-5.36,4.46q2.92,4.76,5.83,9.53c1-.7,2-1.36,3.05-2.08a.65.65,0,0,1,.54-.06c1.09.31,3.74.81,4.59,1.07s.29.1.68.5c.65.66,1.13,1.64,1.76,2.37,3.29.82,6.67,1.49,10,2.2a1.07,1.07,0,0,1,.75.63c2.41,4.43,5.39,7.68,10.21,9.34a1.46,1.46,0,0,0,.45.1c7.33.59,10.41-4,11.22-10.86a17.76,17.76,0,0,0-.35-7.68c-1.34-4.6-6.12-8.16-10.72-9.29m-.61,27c-4.68-1.59-7.58-4.74-9.91-9a1.55,1.55,0,0,0-1-.93c-3.26-.74-6.57-1.37-9.86-2.2-.36-.56-1.34-1.77-1.58-2.19a1.57,1.57,0,0,0-.74-.63c-1.59-.44-3.47-.77-4.78-1.13a.73.73,0,0,0-.75.1c-1,.74-1.84,1.29-2.83,1.91-1.38-2.27-2.77-4.53-4.16-6.8a2.83,2.83,0,0,1-.37-.09c-.13,0-.2-.24-.2-.37s0-.22.11-.29l-.57-.93,4.83-4c6.88,1.61,13.89,3.05,20.73,4.63.58.13.75-.07,1.06-.47,2.76-3.7,5.93-5.11,10.66-4,4.46,1.09,9.13,4.48,10.39,9a16.65,16.65,0,0,1,.33,7.23c-.83,6.59-3.85,10.86-10.87,10.29a1.42,1.42,0,0,1-.44-.11"/></g></g><g id="Group-71"><g class="cls-12"><path id="Fill-69" class="cls-1" d="M231.46,289.23c0,.09.08.2.18.23,5.84,1.38,11.67,2.65,17.55,4,0,0-.11,0,.06,0a2,2,0,0,1,.84.62,1.88,1.88,0,0,1,.32,1c0,.34,0,.62-.34.84a.87.87,0,0,1-.92.23c-2-.44-4.1-.93-6.22-1.41-4.79-1.09-9.71-2.21-14.53-3.34l3.06-2.12"/></g></g><g id="Group-74"><g class="cls-12"><path id="Fill-72" class="cls-13" d="M231.6,288.77c5.87,1.37,11.74,2.6,17.56,4a1.78,1.78,0,0,1,1.14.82,2.62,2.62,0,0,1,.5,1.57,1.72,1.72,0,0,1-.49,1.36,1,1,0,0,1-1.15.31c-2-.4-4.13-.93-6.22-1.4-4.72-1.08-9.85-2.26-14.43-3.34l-.44-.1c-.27-.07-.18-.25-.22-.38a.21.21,0,0,1,.1-.28c.11,0-.11,0,.12,0s-.15,0,.43.1c4.56,1.07,9.72,2.25,14.44,3.32,2.08.47,4.22,1,6.21,1.41a.86.86,0,0,0,.92-.23.91.91,0,0,0,.33-.84,1.76,1.76,0,0,0-1.4-1.67s1.76.39-.61-.13-12.74-2.79-16.67-3.76c-.07,0-.3-.17-.27-.24s0-.08,0-.17.13-.3.18-.29"/></g></g><g id="Group-77"><g class="cls-12"><path id="Fill-75" class="cls-1" d="M269.3,296.2s-.1,0,.05,0l.15.05a5.44,5.44,0,0,1,2.7,2.2,6.23,6.23,0,0,1,.56,3.37,4.91,4.91,0,0,1-1.38,3,3.28,3.28,0,0,1-3,.72s.11,0,0,0,.46.16-.16-.05a6.25,6.25,0,0,1-2.82-2.15,7.07,7.07,0,0,1-1.14-3.62,3.54,3.54,0,0,1,1.49-3,4.35,4.35,0,0,1,3.58-.5"/></g></g><g id="Group-80"><g class="cls-12"><path id="Fill-78" class="cls-13" d="M269.43,295.59a4.58,4.58,0,0,0-3.93.51,4.06,4.06,0,0,0-1.68,3.48,7.48,7.48,0,0,0,1.34,4.2,5.67,5.67,0,0,0,3.2,2.37,3.2,3.2,0,0,0,3.23-.76,5.56,5.56,0,0,0,1.54-3.46s-.12,0-.17,0l-.19,0,.19,0c.05,0,.14.05.17,0a6.42,6.42,0,0,0-.63-3.91,4.91,4.91,0,0,0-3.07-2.43m-.15.6c.15,0,0,0,0,0a4.84,4.84,0,0,1,2.85,2.24,5.66,5.66,0,0,1,.59,3.38,5.46,5.46,0,0,1-1.35,3c-.68.82-2.31.82-2.86.73l-.13,0h-.05a5.6,5.6,0,0,1-3-2.2,6.53,6.53,0,0,1-1.17-3.63,3.75,3.75,0,0,1,1.46-3c.86-.8,2.82-.66,3.43-.53l.16,0"/></g></g></g><g id="Group-114"><g id="Group-84"><g class="cls-16"><path id="Fill-82" class="cls-6" d="M285.82,341.1c-2.47-20.81-13.06-14.18-27.75-19.06-1.89-1.31-1.59-2.88-1.58-4.89s-1.24-2.91-1.39-4.84c.72-1.91,2.15-2.52.91-4.6-.54-.76,2.33-3.65,2-4.47-.5-1.16-4.85-3.15-5.11-4.12a3.12,3.12,0,0,1,4.32-3.79,56.74,56.74,0,0,0,11.13,4.93c4.57,1.17,12.36,2.43,9.4.16-1.16-.88-.2-2.53.52-2.45,8.8,1,17.19,20.15,24.35,40.77"/></g></g><path id="Fill-85" class="cls-8" d="M368.86,268.25c-1.39.6-4.23,6.18-5.42,7s-12.23,18.13-12.34,13l-.57-12.26a33.12,33.12,0,0,0-2.23-12.53c-3.72-9.64-10.52-30.22-12.66-36.51a6,6,0,0,0-5.37-3.95l-.6-.33a3.94,3.94,0,0,0-3.33.3c-5.48,2.45-13,11.15-15.67,10.36-19.17-5.76-6-42,22.85-40.53,6.08.31,9.41,6.64,14.47,4.51,13.35-5.62,32.81,7.24,33,21.37.09,7.59-3.24,6.73-1.77,9.71,7.28,14.78,8.1,31.91-10.35,39.8"/><path id="Fill-87" class="cls-8" d="M348.14,262.18l-.2,1.85s0,25.77-28.67,25.76c-26.58,0-14.37-26-13.87-27,0,0,11.1,3.55,22.08.27,4.31-1.29,2.92-26.94,4.07-29s4.47-7.69-1.28-11.06a6,6,0,0,1,5.37,3.95c2.8,8.23,8.89,26.51,12.5,35.17"/><path id="Fill-89" class="cls-6" d="M335.3,251.24c0,3.94,1.54,7.14,3.44,7.14s3.43-3.2,3.43-7.14-1.54-7.15-3.43-7.15-3.44,3.2-3.44,7.15"/><path id="Stroke-91" class="cls-17" d="M304.17,269.81s3.9,2.29,7.65.24"/><path id="Stroke-93" class="cls-18" d="M315.71,250.13s1.53,3.4,4.57,3.58"/><path id="Fill-95" class="cls-10" d="M150.28,296.72c.11.07,3.49-.81,5.42-.65s1.81,4.37,1.81,4.37l-5,1.42-4.28-1.36Z"/><path id="Fill-97" class="cls-10" d="M87.83,283.49c-22.9-3.85-28.49-12.91-28.85-15.72-1.36-10.49-1.79-45.39-1.79-45.39l30.46-11.07c5.09,1.81,11.07,4.95,19.63,11.54,3.57,2.74,5.27,10.54,8.72,23.91,1.68,6.5.92,13.35.69,20.82-.3,9.8-2.22,13.62-8.48,13.62h-3.39c-9,0-22.48-2.06-22.48-11.68,0-1.34,5.49,14,5.49,14"/><path id="Fill-99" class="cls-19" d="M104.8,239.11c.89,0,1.62,1.88,1.63,4.2s-.71,4.2-1.6,4.2-1.61-1.87-1.62-4.19.71-4.2,1.59-4.21"/><path id="Fill-101" class="cls-20" d="M116.69,258.68a25.92,25.92,0,0,1-.47-5.2c-.11-1.83-.18-5.74-.23-6.71.5.84,1.71,3.77,2.58,5.58.74,1.56,2.14,3.11,2.56,4.21.28.75-4.32,2.53-4.44,2.12"/><polyline id="Fill-103" class="cls-10" points="84.79 280.54 75.98 278.13 75.77 302.96 84.89 305.61 85.16 305.61 94.26 302.9 93.81 273.12 84.88 268.17"/><g id="Group-107"><g class="cls-21"><path id="Fill-105" class="cls-20" d="M112.78,230.25l-10.21.06c-.6-3-1.43-6.83-2.09-9.69-.37,2.9-.71,6.69-1,9.72l-11.44-.08c2,25.77,1.51,61.12-4.16,86.45H17.23c27.51-24.52,6.4-53.48,18-101.66,5.1-21.14,55.47-29.15,72.63-12a16.75,16.75,0,0,1,4.84,11.91c0,5.28.1,15.16.08,15.31"/></g></g><path id="Stroke-108" class="cls-22" d="M106.42,264.41c1.38,1.76,5.52,2.49,10,2.42"/><path id="Fill-110" class="cls-10" d="M84.05,239.14c-.11-.19-5.91-2.85-5.8,5.61s4.12,7.31,6,7.52,0-12.94-.16-13.13"/><path id="Fill-112" class="cls-11" d="M93.92,280.07c-.08-.23-4.16-.57-5.36-1.68l-.17,3.72L94,283.9Z"/></g><g id="Group-134"><g id="Group-117"><g class="cls-23"><path id="Fill-115" class="cls-1" d="M164.44,285.28c-4.47,1.08-9.14,4.47-10.4,9a16.75,16.75,0,0,0-.33,7.22c.84,6.59,3.85,10.86,10.87,10.29a1.46,1.46,0,0,0,.45-.1c4.67-1.6,7.57-4.74,9.91-9a1.47,1.47,0,0,1,1.05-.93c3.26-.75,6.57-1.38,9.85-2.21.37-.56,1.35-1.76,1.58-2.18a1.64,1.64,0,0,1,.75-.64c1.59-.44,3.46-.76,4.78-1.13a.72.72,0,0,1,.74.1c1,.74,1.84,1.3,2.84,1.91,1.37-2.26,2.77-4.53,4.15-6.79-4.81,1.13-9.74,2.26-14.53,3.35-2.11.48-4.21,1-6.21,1.41a1,1,0,0,1-1.15-.31,1.7,1.7,0,0,1-.5-1.36,2.66,2.66,0,0,1,.51-1.58,1.82,1.82,0,0,1,1.14-.82c5.8-1.35,11.71-2.58,17.54-3.94.15,0,.19.2.18.29a.88.88,0,0,1,0,.17c1,.7,2,1.41,3.06,2.11l.36-.09c.07,0,.05,0,.08,0a1.74,1.74,0,0,0,.57-.92l-4.82-4c-6.89,1.6-13.89,3-20.74,4.62-.57.14-.75-.07-1.05-.47-2.76-3.7-5.94-5.11-10.66-4M156,300.67a6.39,6.39,0,0,1,.62-3.9,4.92,4.92,0,0,1,3.07-2.44,4.58,4.58,0,0,1,3.93.52,4,4,0,0,1,1.68,3.47,7.55,7.55,0,0,1-1.33,4.2,5.74,5.74,0,0,1-3.21,2.38,3.25,3.25,0,0,1-3.23-.76,5.54,5.54,0,0,1-1.53-3.47s.12,0,.17,0-.14,0-.17,0"/></g></g><g id="Group-121"><g class="cls-23"><path id="Fill-118" class="cls-13" d="M164.42,284.61c-4.6,1.13-9.38,4.69-10.72,9.28a17.78,17.78,0,0,0-.36,7.68c.81,6.85,3.9,11.45,11.23,10.87a1.77,1.77,0,0,0,.44-.11c4.83-1.66,7.8-4.91,10.22-9.33a1,1,0,0,1,.75-.63c3.28-.72,6.66-1.39,10-2.21.64-.73,1.12-1.7,1.77-2.37.38-.39-.17-.23.68-.49s3.49-.77,4.58-1.08a.68.68,0,0,1,.55.06c1.09.72,2,1.38,3,2.08q2.91-4.77,5.84-9.53L197,284.37c-6.93,1.62-14,3.05-20.87,4.66a.62.62,0,0,1-.76-.31c-2.86-3.81-6.11-5.31-11-4.11m.61,27a1.46,1.46,0,0,1-.45.1c-7,.57-10-3.7-10.87-10.29a16.9,16.9,0,0,1,.33-7.22c1.26-4.49,5.93-7.88,10.4-9,4.72-1.15,7.89.25,10.66,4,.3.4.48.61,1.05.47,6.85-1.58,13.85-3,20.74-4.62l4.82,4c-.19.3-.38.61-.56.92a.33.33,0,0,1,.11.29c0,.13-.07.33-.21.38l-.37.09c-1.38,2.26-2.78,4.52-4.15,6.79-1-.61-1.8-1.17-2.84-1.91a.72.72,0,0,0-.74-.1c-1.32.37-3.19.69-4.78,1.13a1.64,1.64,0,0,0-.75.64c-.23.42-1.22,1.62-1.58,2.18-3.28.83-6.59,1.46-9.85,2.2a1.51,1.51,0,0,0-1.05.94c-2.34,4.27-5.24,7.41-9.91,9"/></g><g class="cls-24"><path id="Stroke-120" class="cls-15" d="M164.42,284.61c-4.6,1.13-9.38,4.69-10.72,9.28a17.78,17.78,0,0,0-.36,7.68c.81,6.85,3.9,11.45,11.23,10.87a1.77,1.77,0,0,0,.44-.11c4.83-1.66,7.8-4.91,10.22-9.33a1,1,0,0,1,.75-.63c3.28-.72,6.66-1.39,10-2.21.64-.73,1.12-1.7,1.77-2.37.38-.39-.17-.23.68-.49s3.49-.77,4.58-1.08a.68.68,0,0,1,.55.06c1.09.72,2,1.38,3,2.08q2.91-4.77,5.84-9.53L197,284.37c-6.93,1.62-14,3.05-20.87,4.66a.62.62,0,0,1-.76-.31c-2.86-3.81-6.11-5.31-11-4.11m.61,27a1.46,1.46,0,0,1-.45.1c-7,.57-10-3.7-10.87-10.29a16.9,16.9,0,0,1,.33-7.22c1.26-4.49,5.93-7.88,10.4-9,4.72-1.15,7.89.25,10.66,4,.3.4.48.61,1.05.47,6.85-1.58,13.85-3,20.74-4.62l4.82,4c-.19.3-.38.61-.56.92a.33.33,0,0,1,.11.29c0,.13-.07.33-.21.38l-.37.09c-1.38,2.26-2.78,4.52-4.15,6.79-1-.61-1.8-1.17-2.84-1.91a.72.72,0,0,0-.74-.1c-1.32.37-3.19.69-4.78,1.13a1.64,1.64,0,0,0-.75.64c-.23.42-1.22,1.62-1.58,2.18-3.28.83-6.59,1.46-9.85,2.2a1.51,1.51,0,0,0-1.05.94c-2.34,4.27-5.24,7.41-9.91,9"/></g></g><g id="Group-124"><g class="cls-23"><path id="Fill-122" class="cls-1" d="M197.64,288c0,.09-.08.2-.19.22-5.83,1.38-11.67,2.65-17.54,3.95l-.06,0a1.8,1.8,0,0,0-.84.62,2,2,0,0,0-.33,1c0,.34,0,.62.34.84a.85.85,0,0,0,.92.23c2-.43,4.1-.93,6.22-1.41,4.79-1.09,9.72-2.21,14.53-3.34L197.64,288"/></g></g><g id="Group-127"><g class="cls-23"><path id="Fill-125" class="cls-13" d="M197.5,287.52c-5.88,1.36-11.75,2.59-17.56,3.94a1.82,1.82,0,0,0-1.14.82,2.66,2.66,0,0,0-.51,1.58,1.74,1.74,0,0,0,.5,1.36,1,1,0,0,0,1.15.31c2-.41,4.12-.93,6.21-1.41,4.72-1.08,9.86-2.26,14.44-3.33l.43-.11c.28-.07.19-.25.23-.37s0-.26-.11-.29.12,0-.11,0a2.23,2.23,0,0,0-.43.1c-4.57,1.06-9.72,2.24-14.44,3.31-2.09.48-4.23,1-6.22,1.42a.85.85,0,0,1-.92-.24.94.94,0,0,1-.33-.84,1.73,1.73,0,0,1,1.41-1.66s-1.76.39.6-.14,12.75-2.79,16.68-3.75c.06,0,.3-.17.27-.24s0-.08,0-.18-.12-.3-.17-.28"/></g></g><g id="Group-130"><g class="cls-23"><path id="Fill-128" class="cls-1" d="M159.79,294.94s.11,0,0,0l-.15.05a5.25,5.25,0,0,0-2.7,2.2,6.22,6.22,0,0,0-.57,3.37,5,5,0,0,0,1.38,3,3.32,3.32,0,0,0,3,.71h0l.15-.05a6.24,6.24,0,0,0,2.82-2.16,7,7,0,0,0,1.15-3.62,3.58,3.58,0,0,0-1.49-3,4.41,4.41,0,0,0-3.59-.5"/></g></g><g id="Group-133"><g class="cls-23"><path id="Fill-131" class="cls-13" d="M159.66,294.33a4.92,4.92,0,0,0-3.07,2.44,6.39,6.39,0,0,0-.62,3.9.45.45,0,0,0,.17,0l.19,0-.19,0a.45.45,0,0,1-.17,0,5.54,5.54,0,0,0,1.53,3.47,3.23,3.23,0,0,0,3.23.76,5.74,5.74,0,0,0,3.21-2.38,7.55,7.55,0,0,0,1.33-4.2,4,4,0,0,0-1.68-3.47,4.58,4.58,0,0,0-3.93-.52m.16.61c.15,0-.46.09.15,0s2.57-.27,3.44.53a3.83,3.83,0,0,1,1.46,3,6.51,6.51,0,0,1-1.18,3.63,5.57,5.57,0,0,1-3,2.2s.1,0,0,0,.41-.06-.14,0-2.17.09-2.85-.74a5.34,5.34,0,0,1-1.36-3,5.64,5.64,0,0,1,.6-3.37,4.83,4.83,0,0,1,2.84-2.25h0"/></g></g></g><g id="Group-147"><path id="Fill-135" class="cls-10" d="M136.79,296.72s3.64-11.35,9.45-13.53c6.28-2.37,12.85-10.74,12.84-13.6a3.19,3.19,0,0,0-4.1-3c-2.85.66-4.44,7.77-9,7.18a4.36,4.36,0,0,1-2.72-1.59c-3.21-3.87,1.48-9.31,5.95-7,2.14,1.09,4.54,1.87,6.07,1,3.28-1.94,2.45-5.22-.2-5.8s-6.09-4.14-12.62-3,4.1-14,6.06-15.39c1.73-1.24-.19-3.47-1.24-3.53-1.84-.09-3.59,1.62-4.64,2.46-1.33,1.06-8.83,16-8.83,16l7-13.24c2.49-3.42-.69-6.76-2.79-4.57-1,1-8.52,17.15-8.52,17.15.52-1.39,5.17-12.34,5-14a1.62,1.62,0,0,0-1.38-.89c-1.41-.11-2.22,1-2.64,2.32-.71,2.31-5.21,13.52-5.34,14.59s.13,2.91.9,9.52c0,10.21-1,23.61-1,23.61"/><path id="Fill-137" class="cls-10" d="M143.27,339.85c2.47-20.81,13.07-14.19,27.75-19.07,1.89-1.31,1.59-2.88,1.59-4.89-.15-2,1.23-2.91,1.38-4.84-.71-1.91-2.14-2.52-.9-4.6.54-.75-2.34-3.65-2-4.47.49-1.15,4.85-3.15,5.11-4.12a3.12,3.12,0,0,0-4.33-3.79A56.4,56.4,0,0,1,160.77,299c-4.58,1.17-12.36,2.43-9.4.17,1.15-.88.2-2.53-.52-2.45-8.81,1-17.2,20.15-24.36,40.77"/><path id="Stroke-139" class="cls-25" d="M171.11,302s-4.86,1.34-7,1.88"/><path id="Stroke-141" class="cls-26" d="M134.32,256.8c.4-2.72,4.18-10.49,6.69-14.09"/><path id="Stroke-143" class="cls-27" d="M128.43,257.62s-1.08.09-.88,1.67"/><path id="Stroke-145" class="cls-27" d="M134.23,257.79s-1.08.09-.88,1.68"/></g></g></g></svg>