<svg id="Layer_1" data-name="Layer 1" xmlns="http://www.w3.org/2000/svg" xmlns:xlink="http://www.w3.org/1999/xlink" viewBox="0 0 400 400"><defs><style>.cls-1{fill:#fff;}.cls-1,.cls-11,.cls-2,.cls-23,.cls-25,.cls-3,.cls-4,.cls-5,.cls-6,.cls-7,.cls-8,.cls-9{fill-rule:evenodd;}.cls-2{fill:#a06e5f;}.cls-3{fill:#f1d5c3;}.cls-4{fill:#e58585;}.cls-5{fill:#f4d9ce;}.cls-6{fill:#69bac9;}.cls-7{fill:#c7c7c7;}.cls-8{fill:#ff3434;}.cls-9{fill:#383838;}.cls-10,.cls-12,.cls-13,.cls-14,.cls-15,.cls-16,.cls-17,.cls-18,.cls-19,.cls-20,.cls-21,.cls-24,.cls-26,.cls-27{fill:none;}.cls-10{stroke:#df715c;stroke-width:0.76px;}.cls-11{fill:#6d3224;}.cls-12{stroke:#383838;stroke-width:0.72px;}.cls-12,.cls-19,.cls-20,.cls-21{stroke-linecap:round;}.cls-13{stroke:#883434;}.cls-13,.cls-21{stroke-width:0.92px;}.cls-14,.cls-15,.cls-16,.cls-17{stroke:#fff;}.cls-14{stroke-width:2.08px;}.cls-15{stroke-width:1.83px;}.cls-16{stroke-width:1.65px;}.cls-17{stroke-width:1.51px;}.cls-18,.cls-19{stroke:#263238;stroke-width:1.47px;}.cls-20{stroke:#ff3434;stroke-width:0.83px;}.cls-20,.cls-21{stroke-linejoin:round;}.cls-21{stroke:#e58585;}.cls-22{mask:url(#mask);}.cls-23{fill:#2b5165;}.cls-24,.cls-26,.cls-27{stroke:#000;}.cls-24{stroke-width:1.24px;}.cls-26{stroke-width:1.27px;}.cls-27{stroke-width:1.06px;}</style><mask id="mask" x="317.39" y="36.29" width="65.93" height="68.63" maskUnits="userSpaceOnUse"><g id="mask-2"><polygon id="path-1" class="cls-1" points="317.39 36.3 383.32 36.3 383.32 104.93 317.39 104.93 317.39 36.3"/></g></mask></defs><path id="Fill-35" class="cls-2" d="M93.94,73.72c-2.41-2.67-1.67-5.36.47-7.29s3.42-.13,6.38,1.91c4.38,3,.72,9.86-3.21,11.46-2.67,1.1-1.23-3.4-3.64-6.08"/><g id="_04-how-to-4" data-name="04-how-to-4"><g id="Group-300"><path id="Fill-1" class="cls-3" d="M234.88,348.13c23.4-3,45.45-9.76,64.64-25.59,10.46-8.64,25.17-19.14,42.61-56.46l-5.94-10.2c-10.91,24.63-37.46,45.84-46.12,51.65-13.49,9.05-25.09,15.14-45.17,17.55Z"/><path id="Fill-3" class="cls-4" d="M334.48,244.29c2.29.43-4.69,15.21-4.32,15.48-.62-.37,10,1.39,10,1.39s-2.6-13.24-3-13.24-2.72-3.63-2.72-3.63"/><path id="Fill-5" class="cls-5" d="M340.17,261.1c-2.15-.6-8.66-3-10.36-1.22-2.71,2.85-.15,3.21-2.58,6.31-1.63,2.08-4.39,3.36-5.2,5.88.24.34,2,1.37,2.36,1.11s1.84-.84,2.15-1.13c1.53-1.4,1-3.06,3.11-2.93,4.55.29,7.3,5.17,6.35,9.45-.21,1,0,4,.74,4.87,1.48,1.72,2.17-2.62,2.84-3.72,1.33-2.18.81-4,.78-7.56,0-1.48.49-4.9.47-6.38,0-1.17-.47-3.07-.66-4.68"/><path id="Fill-7" class="cls-4" d="M338.88,110.7C350.51,131.24,360,164,360.24,188.91c.13,14.3-9.23,50-13.6,64.65a1.08,1.08,0,0,1-1.69.54l-10.32-7.92c6.86-19.3,7.24-44.5,8.24-57.81C344,173,326.42,150.67,320.36,137Z"/><path id="Fill-9" class="cls-4" d="M306.79,94.27S291,85,287.32,94.05c-19.45,41.27-21.91,37.76-24.51,45.32,1.79,3.08,37.84,26.24,40.06,25.75,1.35-1.55,18.84-17.56,26.13-20.52,1.5-.61,3.66-2.66,5.93-3.33l9.18-15.38Z"/><path id="Fill-11" class="cls-4" d="M322.88,93.7c-17.31-16-36.62-27-60.87-32.56-21.16-4.86-68.24-4.3-82.37-3.38l9.91,12.44c9.81-.31,56.18,5.18,66,7.6,15,3.67,24.67,14,40.29,26.85Z"/><path id="Fill-13" class="cls-2" d="M61.93,280.75c.3-.05,2.61-1.23,2.61-1.23s1.18-3.74.5-3.89-6-1.53-6-1.08.94,5.22.94,5.22l.56.65Z"/><path id="Fill-15" class="cls-3" d="M162.32,347c-23.4-3-45.45-9.75-64.63-25.59-10.47-8.64-25.18-19.14-42.62-56.46L61,254.73c10.91,24.63,37.9,43.33,46.55,49.14,13.5,9.06,27.83,7.89,46.59,17.23Z"/><path id="Fill-17" class="cls-6" d="M154.51,320.52s-32.9-13.66-33.28-11.93-6,27.9-7.7,28.1,74.55,34.17,83.79,31.09-42.81-47.26-42.81-47.26"/><path id="Fill-19" class="cls-2" d="M66.74,253.37a63,63,0,0,0-1.91-7.83L52.3,258.12s.06,8.18.24,8.18,3.3,1.91,3.3,1.91Z"/><path id="Fill-21" class="cls-7" d="M135.77,148.82a85.42,85.42,0,0,0-3.78-8l-38.4,27.88c-.69.5,1.37,2.18,1.5,2.6,13.83,23.74,28.6,30.71,41.79,34.68l.64-1.13c-4.9-6.91-15.78-20.07-17.29-38.88,12.44,11.34,23.08,25.71,24.88,35,0,.2,1.08-.4,1.29-.49,3-14.25-1.66-29.56-10.63-51.63"/><path id="Fill-23" class="cls-6" d="M248,197.55c.2.09,1.23.69,1.29.48,1.79-9.3,12.44-23.66,24.87-35-1.5,18.81-12.39,32-17.29,38.88l.65,1.13c13.18-4,27.95-10.94,41.78-34.67.13-.43,2.19-2.11,1.51-2.61l-38.41-27.88c-.88,1.31-2.9,6.06-3.77,8-9,22.07-13.65,37.39-10.63,51.64"/><path id="Fill-25" class="cls-2" d="M220.94,78.75c.3.35.77.75,1.13.5a.84.84,0,0,0,.26-.42,4.68,4.68,0,0,0-.7-3.56,12.36,12.36,0,0,0-4.73-4.51c-3.55-2.09-1.24-5.94,0-7.65a18,18,0,0,1,2.32-1.83c.78-.61,2-2.24,2.78-2.85.94-.74,2.24-.18,3.73-.86a.6.6,0,0,0,0-1.1c-2.26-.9-4.83-1.73-7-2.35a8.27,8.27,0,0,0-5.31.67,10.07,10.07,0,0,0-2.5,1.82l-.47.47a54.79,54.79,0,0,0-7,8.76A8.94,8.94,0,0,0,202,69.11c-.24,1.4,0,2.94,1.55,2.94a41.76,41.76,0,0,1,4.48-.1,20,20,0,0,1,12.89,6.8"/><path id="Fill-27" class="cls-2" d="M205,63.29l-.77,3.22s3.41.9,3.54.38,3.46-6.36,3.46-6.36Z"/><path id="Fill-29" class="cls-8" d="M84.59,102.2c16.57-16.79,41-30.4,64.88-37.41,13.71-4,36.29-6.74,56.74-4.57a1.11,1.11,0,0,1,1,1.48l-5.58,14.44c-14.66-3.48-38.66,2-47.93,5.51-14.44,5.38-30.61,13.24-42.1,22.8Z"/><path id="Fill-31" class="cls-3" d="M46.09,239.48c.38-.38,1.89-2.24,2.15-2.11S49.48,244,49.48,244L49,245.12Z"/><path id="Fill-33" class="cls-8" d="M63,114.42s-13.34,12.71-5.74,18.77c1.35.91,32.94,37.1,36.42,36.25s38.31-26.27,38.47-28.53c.15-2-12-27.3-14.58-33.42a19,19,0,0,1-1.5-6.63l-7.11-16.21Z"/><path id="Fill-35-2" data-name="Fill-35" class="cls-2" d="M51.45,106c0,3.6,4.09,6,1.37,7-4,1.43-11.28-1.19-10-6.37.83-3.5.57-5.69,3.46-5.69s5.22,1.5,5.22,5.11"/><path id="Fill-37" class="cls-9" d="M41.83,45C52.76,37.4,54.08,43.47,56,42.51s2.35-5.83,14.9-4.54S84.33,52.16,85.35,51.59s4.6-.06,8.52,5.86-.34,13.65-.34,13.65,14.1,10.64,11.7,23.59-16.52,20.92-16.52,20.92l-.19.13s-12.87,9.89-25.72,7-11.34-15.88-11.34-15.88S36.89,103.68,33,97.76,29.8,88.69,30.72,88,20.29,81.08,24,69,32.48,58.42,34,57.1s-3.42-5,7.84-12.12Z"/><path id="Fill-39" class="cls-2" d="M96.45,88.08c0,5.06-5.73,9.42-9.59,12.5a57.7,57.7,0,0,1-11.56,8.16,17.24,17.24,0,0,1-12.69,1.39,16.2,16.2,0,0,1-3.34-1.44,10.86,10.86,0,0,1-4.1-3.15c-2.67-3.43-3.11-8-4.74-11.9-1-2.71-3.31-4.62-3-7.51a5,5,0,0,1,6.24-4.74,27.12,27.12,0,0,0,5.68,1.06,10.64,10.64,0,0,0,3.38-.18A12.57,12.57,0,0,0,65.76,81c1.73-1,3.49-2.1,5.14-3.25,2.18-1.66,2.9-4,3.11-6.64.15-1.4.11-3,1-4.15h0s0,0,0-.06h0s.06-.06.07-.1a.11.11,0,0,0,.08-.07.07.07,0,0,0,0,0s.08-.07.12-.09v0a5.09,5.09,0,0,1,2.71-.89,4.09,4.09,0,0,1,4.07,1.57,23.2,23.2,0,0,1,1.7,3.51c.42.84,10.07,4.94,12.61,17.35"/><path id="Fill-41" class="cls-5" d="M370.9,94.31s-44.22-39.43-45.32-40.2c-6.08,6.58-27.12,29-27.44,29.92.07,5.74,8,16.08,11.54,20.78,1,1.26,1.95,2.74,3.1,3.9a73.43,73.43,0,0,0,6.52,4.85c2.7,1.82,14.27,7.52,14.27,7.52,11.8-5.27,37.33-26.77,37.33-26.77"/><path id="Stroke-43" class="cls-10" d="M92.29,99.77c1.18,1.39-6.11,7.58-7.29,6.18"/><path id="Fill-45" class="cls-11" d="M81.42,95l2,4.73a.4.4,0,0,0,.63.15l2.44-2.1a.41.41,0,0,0-.06-.65L82,94.54a.4.4,0,0,0-.57.5"/><path id="Fill-47" class="cls-9" d="M70.19,98.36c1.29,1.5,1.62,3.33.74,4.09s-2.64.17-3.93-1.33-1.63-3.33-.74-4.09,2.64-.16,3.93,1.33"/><path id="Stroke-49" class="cls-12" d="M73.8,98.18s1.58,1,.64,3.53"/><path id="Fill-51" class="cls-9" d="M86.15,86.4c1.12,1.29,2.65,1.81,3.41,1.15S90,85.3,88.92,84s-2.65-1.82-3.41-1.16-.48,2.25.64,3.55"/><path id="Stroke-53" class="cls-12" d="M84.64,89.29S85.45,91,88,90.43"/><path id="Stroke-55" class="cls-13" d="M93.73,169.49c32.16-21.84,32.12-21.8,38.51-28.42"/><path id="Fill-57" class="cls-2" d="M79.23,268.88c.43.19.94.53.8.94a.74.74,0,0,1-.33.37,4.62,4.62,0,0,1-3.61.33c-2.17-.49-4.18-1.49-6.38-1.89s-4.5-.59-5.79,1.11a6.92,6.92,0,0,0-.85,1.67L62,274.16c-.61,1.52-1.71,4.69-1.44,6.29a71.77,71.77,0,0,1-5.25-7.31c-.92-1.47-1-4.09-.76-5.77a7.33,7.33,0,0,1,1-2.43,54.64,54.64,0,0,1,6.76-9.73,8.94,8.94,0,0,1,2.72-2.32c1.28-.62,1.32-1,1.74.48s2.11,3.08,2.69,4.51c1.18,2.86,2.8,6,5.24,8.09a20.25,20.25,0,0,0,4.62,2.91"/><path id="Fill-59" class="cls-8" d="M56.55,122.62C45.11,143.26,38.83,165,38.83,189.84c0,14.8,10.52,58.06,14.78,71.57L67.12,251c-2.64-9.46-10-49.11-10-59.24,0-15.4,3.25-29.19,12-47.43Z"/><path id="Fill-61" class="cls-3" d="M65.83,237.52c.11,2.55-1.25,3.86-3.07,7-.75,1.29-1.21,5.95-2,7.23s-2,2.11-2.76,3.65-2.55,3.82-2.92,5.35c-.29,1.24,0,2.5-.39,3.72s.26,2.75-.31,3.71c-1.41-1-2.42-3.57-3-5.2-.94-2.57-1.82-5.16-2.52-7.81-1-3.81-1.64-7.71-2.27-11.6a21.87,21.87,0,0,1-.32-7.89c.38-.18,1.06-.1,1.23.29s.28,1.16.41,1.56c.67,2,.9,4.09,2.83,5,4.23,2,10-1.52,11.3-5.71.29-1,2-3.49,3.1-3.9,2.18-.78.62,3.35.67,4.63"/><path id="Fill-63" class="cls-3" d="M184.25,76.42c2.51-.48,3.47-2.06,6.11-4.5,1.09-1,4-2.93,5-3.94s2.78-3.7,4.12-4.76,3.54-1.55,4.95-2.24c1.13-.56,1.2-.31,2.28-.28,1.27,0,2.48-2.62,3.29-3.38-1.31-1.1-4-.31-5.68-.5a60.21,60.21,0,0,0-6.71-.49c-3.93-.09-7.87.19-11.8.48a22.52,22.52,0,0,0-7.75,1.49c-.09.4.14,1,.55,1.1s1.2,0,1.62,0c2.07.18,4.18-.08,5.48,1.55,2.84,3.57.73,9.84-3.07,12-.86.49-3,2.65-3.11,3.82-.27,2.25,3.4-.16,4.67-.41"/><path id="Fill-65" class="cls-3" d="M331.51,241.47c-.1,2.55,1.25,3.85,3.08,7,.75,1.29.46,6.14,1.48,7.24a17.27,17.27,0,0,1,2.66,4.38,21.82,21.82,0,0,1,1.74,4.39c.3,1.23-.25,3.7.09,4.92s2.94-3.93,3.54-5.56a39,39,0,0,0,1.66-5.18c1-3.81,6.2-9.39,6.83-13.29.43-2.61-1-3.15-1.53-5.74-.39-.18-1.07-.1-1.23.29s-.28,1.16-.42,1.56c-.67,2-.89,4.09-2.83,5-4.22,2-10-1.52-11.29-5.72-.29-.95-2-3.49-3.1-3.89-2.18-.78-.62,3.34-.68,4.63"/><path id="Stroke-67" class="cls-14" d="M69,150.23c.58-.2,35.41-16.36,52.42-37.22"/><path id="Stroke-69" class="cls-15" d="M75.9,156.42c.58-.21,35.17-16.61,52-37.66"/><path id="Stroke-71" class="cls-16" d="M79.34,163c.58-.2,35.15-16.91,51.92-38.21"/><path id="Stroke-73" class="cls-17" d="M84.2,168.27c.58-.21,35-17.11,51.7-38.58"/><path id="Fill-75" class="cls-1" d="M180.84,116.18a10.67,10.67,0,0,1-4.81,9,11.11,11.11,0,0,1-13.78-1,1,1,0,0,0-.94-.23l-8.89,2.68-1.95-1a.86.86,0,0,0-.64-.11l-4.4,1.32a.84.84,0,0,0-.51.36L142.83,130l-6.37-4.41a.26.26,0,0,1-.07-.36l3.37-5.43,18.59-5.59a1,1,0,0,0,.67-.72,11.06,11.06,0,0,1,21.82,2.71"/><path id="Stroke-77" class="cls-18" d="M180.84,116.18a10.67,10.67,0,0,1-4.81,9,11.11,11.11,0,0,1-13.78-1,1,1,0,0,0-.94-.23l-8.89,2.68-1.95-1a.86.86,0,0,0-.64-.11l-4.4,1.32a.84.84,0,0,0-.51.36L142.83,130l-6.37-4.41a.26.26,0,0,1-.07-.36l3.37-5.43,18.59-5.59a1,1,0,0,0,.67-.72,11.06,11.06,0,0,1,21.82,2.71Z"/><g id="Group-82"><path id="Fill-79" class="cls-1" d="M137.38,126.06c.31-.06,14.67-4.4,19.1-5.74a1.35,1.35,0,0,0-.78-2.58L140,122.47"/><path id="Stroke-81" class="cls-19" d="M137.38,126.06c.31-.06,14.67-4.4,19.1-5.74a1.35,1.35,0,0,0-.78-2.58L140,122.47"/></g><path id="Fill-83" class="cls-1" d="M177.8,113.62a4.2,4.2,0,1,1-5.23-2.81,4.21,4.21,0,0,1,5.23,2.81"/><path id="Stroke-85" class="cls-19" d="M177.8,113.62a4.2,4.2,0,1,1-5.23-2.81A4.21,4.21,0,0,1,177.8,113.62Z"/><path id="Fill-87" class="cls-1" d="M260.12,280.82a10.68,10.68,0,0,1-4.3-9.24,11.1,11.1,0,0,1,9.11-10.39,1,1,0,0,0,.74-.63l3.21-8.71,2-.92a1,1,0,0,0,.48-.45l1.58-4.31a.83.83,0,0,0,0-.62l-1-3.41,7.35-2.43a.26.26,0,0,1,.34.16l2.31,5.95-6.7,18.23a1,1,0,0,0,.16,1,11.06,11.06,0,0,1-15.27,15.81"/><path id="Stroke-89" class="cls-18" d="M260.12,280.82a10.68,10.68,0,0,1-4.3-9.24,11.1,11.1,0,0,1,9.11-10.39,1,1,0,0,0,.74-.63l3.21-8.71,2-.92a1,1,0,0,0,.48-.45l1.58-4.31a.83.83,0,0,0,0-.62l-1-3.41,7.35-2.43a.26.26,0,0,1,.34.16l2.31,5.95-6.7,18.23a1,1,0,0,0,.16,1,11.06,11.06,0,0,1-15.27,15.81Z"/><g id="Group-94"><path id="Fill-91" class="cls-1" d="M278.34,240.15c-.14.28-5.3,14.37-6.89,18.72a1.33,1.33,0,0,0,.8,1.72,1.35,1.35,0,0,0,1.73-.79l5.68-15.44"/><path id="Stroke-93" class="cls-19" d="M278.34,240.15c-.14.28-5.3,14.37-6.89,18.72a1.33,1.33,0,0,0,.8,1.72,1.35,1.35,0,0,0,1.73-.79l5.68-15.44"/></g><path id="Fill-95" class="cls-1" d="M264,279.93a4.2,4.2,0,1,1,5.4-2.49,4.19,4.19,0,0,1-5.4,2.49"/><path id="Stroke-97" class="cls-19" d="M264,279.93a4.2,4.2,0,1,1,5.4-2.49A4.19,4.19,0,0,1,264,279.93Z"/><path id="Fill-99" class="cls-6" d="M235.41,322s32.9-13.66,33.29-11.93,6,27.9,7.69,28.09S206.37,371,197.14,368s38.27-46,38.27-46"/><path id="Fill-101" class="cls-8" d="M155.19,345.74c-4-46,18-53.07,30.35-54.9a97.14,97.14,0,0,1,21.56-.07c12.36,1.74,29,8.58,30.71,54.7.79,21.79-39.22,31.44-39.22,31.44s-41.24-6.12-43.4-31.17"/><path id="Stroke-103" class="cls-20" d="M155.19,345.74c-4-46,18-53.07,30.35-54.9a97.14,97.14,0,0,1,21.56-.07c12.36,1.74,29,8.58,30.71,54.7.79,21.79-39.22,31.44-39.22,31.44S157.35,370.79,155.19,345.74Z"/><path id="Fill-105" class="cls-9" d="M324.61,80.85c-1.72,1.63-3.8,2.23-4.65,1.34s-.12-2.94,1.6-4.57,3.8-2.23,4.65-1.34.12,2.94-1.6,4.57"/><path id="Fill-107" class="cls-9" d="M344.38,98.1c-1.72,1.63-3.8,2.23-4.64,1.34s-.13-2.93,1.59-4.56,3.81-2.23,4.65-1.34.13,2.93-1.6,4.56"/><g id="Group-112"><path id="Fill-109" class="cls-4" d="M310.94,95.23c-1.68,1.43,9.69,14.82,11.37,13.39"/><path id="Stroke-111" class="cls-21" d="M310.94,95.23c-1.68,1.43,9.69,14.82,11.37,13.39"/></g><path id="Fill-113" class="cls-4" d="M326.06,92.1c.75-.26,1.12.24.67.89l-1.64,2.35-1.64,2.34c-.45.66-1.39,1-1.69.58l-1.07-1.41-1.07-1.42c-.29-.4.27-1.21,1-1.47l2.7-.93Z"/><path id="Stroke-115" class="cls-21" d="M326.06,92.1c.75-.26,1.12.24.67.89l-1.64,2.35-1.64,2.34c-.45.66-1.39,1-1.69.58l-1.07-1.41-1.07-1.42c-.29-.4.27-1.21,1-1.47l2.7-.93Z"/><g id="Group-119"><g class="cls-22"><path id="Fill-117" class="cls-23" d="M319.41,58.46s-5.64-10.92,1.92-19.92c5.61-6.68-.59,3.49,8.58,5.34,6.06,1.22,15-13.18,37.92,3.44,19.43,14.09,20.5,36.23,3.66,51.27-12.27,11-13.27,4.11-18.89,5.34-1.14.25-4-2.77-4-2.77L356,91.8Z"/></g></g><path id="Fill-120" class="cls-5" d="M316.8,68.27c-2.58,2.67-6.46,6.76-8.54,4.74s-1.6-9.4,1-12.07,6.37-3.17,8.46-1.15,1.68,5.82-.9,8.48"/><path id="Fill-122" class="cls-5" d="M351.62,105.07c-2.64,2.6-6.71,6.5-4.67,8.57s9.41,1.53,12.06-1.07,3.12-6.39,1.09-8.46-5.84-1.65-8.48,1"/><path id="Fill-124" class="cls-23" d="M323.73,61.44c-.27.09-4.78,5.18-7.36,6.29-.37.16-.6-.45-.6-.45L318.92,62a5.9,5.9,0,0,0-2.32-3l1.86-2.24s1.68-1.55,2-1,3.23,5.63,3.23,5.63"/><path id="Fill-126" class="cls-23" d="M279.73,154.68c14.93,11.8,19.62,13.7,19.62,13.7l3.51-3.25s-4.79-2.56-19.72-14.36l-.47-.37c-14.94-11.79-18.79-16.15-18.79-16.15l-1.83,4.34s2.27,3.92,17.21,15.72Z"/><path id="Fill-128" class="cls-7" d="M281.91,157.14l-4.13-3.26a.35.35,0,0,1,0-.49l3.83-4.37a.37.37,0,0,1,.51-.05l4.12,3.26a.32.32,0,0,1,.05.48l-3.82,4.38a.37.37,0,0,1-.51,0"/><path id="Fill-130" class="cls-4" d="M210.44,57.08c.23-.2-3.87-.62-3.87-.62l.13,4.21.4.12s1.06-.5,3.34-3.71"/><polygon id="Fill-132" class="cls-1" points="251.63 124.17 197.18 109.53 202.51 89.7 256.96 104.35 251.63 124.17"/><polygon id="Stroke-134" class="cls-24" points="251.63 124.17 197.18 109.53 202.51 89.7 256.96 104.35 251.63 124.17"/><path id="Fill-136" class="cls-25" d="M206.42,103.94a.37.37,0,0,1,0-.29s.19-.46.56-1.26l-1.27.55a.37.37,0,0,1-.18,0,.4.4,0,0,1-.28-.28.37.37,0,0,1,0-.21.32.32,0,0,1,.26-.25l1.37-.15-1.11-.82a.34.34,0,0,1-.09-.36.35.35,0,0,1,.1-.18.37.37,0,0,1,.38-.1.33.33,0,0,1,.16.09s.3.4.82,1.12c.09-.88.14-1.34.15-1.37a.38.38,0,0,1,.18-.23.42.42,0,0,1,.29,0,.43.43,0,0,1,.24.18.37.37,0,0,1,0,.29l-.55,1.26c.8-.36,1.23-.54,1.26-.55a.31.31,0,0,1,.19,0,.37.37,0,0,1,.28.27.44.44,0,0,1,0,.2.37.37,0,0,1-.26.28l-1.37.15,1.11.82a.34.34,0,0,1,.09.36.44.44,0,0,1-.1.17.39.39,0,0,1-.39.09.37.37,0,0,1-.15-.08s-.3-.39-.82-1.11c-.09.88-.14,1.34-.15,1.37a.38.38,0,0,1-.18.23.37.37,0,0,1-.29,0,.41.41,0,0,1-.24-.17"/><path id="Fill-138" class="cls-25" d="M211.61,105.33a.35.35,0,0,1,0-.28s.19-.46.55-1.27l-1.27.56a.5.5,0,0,1-.17,0,.4.4,0,0,1-.28-.28.37.37,0,0,1,0-.21.31.31,0,0,1,.25-.25l1.38-.15-1.11-.82a.34.34,0,0,1-.09-.36.39.39,0,0,1,.1-.19.37.37,0,0,1,.37-.09.29.29,0,0,1,.16.09s.31.4.83,1.12q.14-1.32.15-1.38a.39.39,0,0,1,.18-.22.42.42,0,0,1,.29,0,.38.38,0,0,1,.23.18.37.37,0,0,1,.05.29l-.56,1.26,1.27-.55a.31.31,0,0,1,.19,0,.37.37,0,0,1,.27.27.34.34,0,0,1,0,.2.39.39,0,0,1-.26.28l-1.37.15,1.11.82a.33.33,0,0,1,.09.36.62.62,0,0,1-.1.17.41.41,0,0,1-.39.09.37.37,0,0,1-.15-.08s-.3-.39-.82-1.11c-.09.88-.15,1.34-.15,1.37a.36.36,0,0,1-.19.23.37.37,0,0,1-.29,0,.37.37,0,0,1-.23-.18"/><path id="Fill-140" class="cls-25" d="M216.8,106.73a.31.31,0,0,1,0-.28s.19-.46.55-1.27l-1.27.56a.5.5,0,0,1-.17,0,.41.41,0,0,1-.29-.28.5.5,0,0,1,0-.21.31.31,0,0,1,.25-.25l1.38-.15L216.1,104a.39.39,0,0,1-.09-.36.4.4,0,0,1,.48-.29.39.39,0,0,1,.16.1s.31.4.82,1.12c.1-.89.15-1.34.16-1.38a.36.36,0,0,1,.18-.22.42.42,0,0,1,.29,0,.38.38,0,0,1,.23.18.37.37,0,0,1,0,.29l-.56,1.26,1.27-.55a.3.3,0,0,1,.19,0,.37.37,0,0,1,.27.27.34.34,0,0,1,0,.2.39.39,0,0,1-.26.28l-1.37.15,1.11.82a.32.32,0,0,1,.09.35.54.54,0,0,1-.1.18.41.41,0,0,1-.39.09.28.28,0,0,1-.15-.08s-.3-.39-.82-1.11c-.1.88-.15,1.34-.16,1.37a.34.34,0,0,1-.18.23.37.37,0,0,1-.29,0,.41.41,0,0,1-.23-.18"/><path id="Fill-142" class="cls-25" d="M222,108.13a.35.35,0,0,1-.05-.28l.56-1.27-1.27.56a.49.49,0,0,1-.17,0,.41.41,0,0,1-.29-.28.38.38,0,0,1,0-.21.3.3,0,0,1,.25-.25l1.38-.15-1.12-.82a.36.36,0,0,1-.09-.36.4.4,0,0,1,.48-.29.39.39,0,0,1,.16.1s.3.4.82,1.12c.1-.89.15-1.34.16-1.38a.31.31,0,0,1,.18-.22.42.42,0,0,1,.29,0,.41.41,0,0,1,.23.18.32.32,0,0,1,0,.28s-.19.46-.55,1.27l1.27-.55a.38.38,0,0,1,.19,0,.4.4,0,0,1,.27.28.34.34,0,0,1,0,.2.41.41,0,0,1-.26.28l-1.38.15,1.12.82a.36.36,0,0,1,.09.35.54.54,0,0,1-.1.18.41.41,0,0,1-.39.09.28.28,0,0,1-.15-.08s-.3-.39-.82-1.11c-.1.88-.15,1.34-.16,1.37a.36.36,0,0,1-.18.22.37.37,0,0,1-.29,0,.38.38,0,0,1-.23-.18"/><path id="Fill-144" class="cls-25" d="M227.18,109.53a.35.35,0,0,1-.05-.28s.2-.46.56-1.27c-.81.36-1.23.55-1.27.55a.33.33,0,0,1-.17,0,.39.39,0,0,1-.29-.28.3.3,0,0,1,0-.21.3.3,0,0,1,.25-.25l1.38-.15-1.12-.82a.34.34,0,0,1-.09-.36.49.49,0,0,1,.1-.19.42.42,0,0,1,.38-.1.39.39,0,0,1,.16.1s.3.4.82,1.12c.09-.89.15-1.34.16-1.38a.31.31,0,0,1,.18-.22.42.42,0,0,1,.29,0,.41.41,0,0,1,.23.18.35.35,0,0,1,0,.28s-.19.46-.55,1.27l1.27-.55a.28.28,0,0,1,.18,0,.37.37,0,0,1,.28.27.67.67,0,0,1,0,.2.41.41,0,0,1-.26.28l-1.38.14,1.11.83a.32.32,0,0,1,.09.35.33.33,0,0,1-.1.18.38.38,0,0,1-.38.09.28.28,0,0,1-.15-.08s-.31-.4-.82-1.11c-.1.88-.15,1.34-.16,1.37a.36.36,0,0,1-.18.22.37.37,0,0,1-.29,0,.38.38,0,0,1-.23-.18"/><path id="Fill-146" class="cls-25" d="M232.36,110.93a.35.35,0,0,1,0-.28s.19-.46.56-1.27c-.81.36-1.24.55-1.27.55h-.18a.4.4,0,0,1-.28-.28.37.37,0,0,1,0-.21.31.31,0,0,1,.26-.25l1.37-.15-1.11-.82a.34.34,0,0,1-.09-.36.39.39,0,0,1,.1-.19.42.42,0,0,1,.38-.1.47.47,0,0,1,.16.1s.3.4.82,1.12c.09-.89.14-1.34.15-1.38a.36.36,0,0,1,.18-.22.38.38,0,0,1,.29,0,.43.43,0,0,1,.24.18.35.35,0,0,1,0,.28s-.19.46-.55,1.27c.8-.36,1.23-.55,1.26-.55a.25.25,0,0,1,.19,0,.4.4,0,0,1,.28.28.67.67,0,0,1,0,.2.37.37,0,0,1-.27.27l-1.37.15,1.11.83a.32.32,0,0,1,.09.35.41.41,0,0,1-.1.18.39.39,0,0,1-.39.09.37.37,0,0,1-.15-.08l-.82-1.11c-.09.88-.14,1.33-.15,1.37a.36.36,0,0,1-.18.22.38.38,0,0,1-.29,0,.43.43,0,0,1-.24-.18"/><path id="Fill-148" class="cls-25" d="M237.55,112.33a.35.35,0,0,1,0-.28s.19-.46.55-1.27c-.81.36-1.23.55-1.27.55a.48.48,0,0,1-.17,0,.4.4,0,0,1-.28-.28.37.37,0,0,1,0-.21.31.31,0,0,1,.25-.25l1.38-.15-1.11-.82a.34.34,0,0,1-.09-.36.39.39,0,0,1,.1-.19.41.41,0,0,1,.37-.1.34.34,0,0,1,.16.1s.31.4.83,1.11c.09-.88.14-1.33.15-1.37a.36.36,0,0,1,.18-.22.38.38,0,0,1,.29,0,.38.38,0,0,1,.23.18.35.35,0,0,1,0,.28s-.2.46-.56,1.27c.81-.36,1.24-.55,1.27-.55a.25.25,0,0,1,.19,0,.4.4,0,0,1,.27.28.34.34,0,0,1,0,.2.36.36,0,0,1-.26.27l-1.37.15,1.11.82a.34.34,0,0,1,.09.36.54.54,0,0,1-.1.18.41.41,0,0,1-.39.09.37.37,0,0,1-.15-.08s-.3-.4-.82-1.11c-.09.88-.15,1.33-.15,1.37a.34.34,0,0,1-.19.22.42.42,0,0,1-.29,0,.41.41,0,0,1-.23-.18"/><path id="Fill-150" class="cls-25" d="M242.74,113.73a.31.31,0,0,1,0-.28s.19-.46.55-1.27l-1.27.55h-.17a.41.41,0,0,1-.29-.28.5.5,0,0,1,0-.21.33.33,0,0,1,.25-.26l1.38-.14L242,111a.34.34,0,0,1-.08-.35.39.39,0,0,1,.1-.19.4.4,0,0,1,.37-.1.39.39,0,0,1,.16.1s.31.4.82,1.11c.1-.88.15-1.34.16-1.37a.36.36,0,0,1,.18-.22.37.37,0,0,1,.29,0,.38.38,0,0,1,.23.18.35.35,0,0,1,0,.28s-.2.46-.56,1.27c.81-.36,1.23-.55,1.27-.55a.24.24,0,0,1,.19,0,.4.4,0,0,1,.27.28.34.34,0,0,1,0,.2.36.36,0,0,1-.26.27l-1.38.15,1.12.82a.34.34,0,0,1,.09.36.54.54,0,0,1-.1.18.41.41,0,0,1-.39.09.28.28,0,0,1-.15-.08s-.3-.4-.82-1.12c-.1.89-.15,1.34-.16,1.38a.31.31,0,0,1-.18.22.42.42,0,0,1-.29,0,.38.38,0,0,1-.23-.18"/><path id="Fill-152" class="cls-25" d="M100.81,190.22l-1.73.58.59,1.73,1.74-.58Zm17.76,15.23a.93.93,0,0,0-1.17-.57l-3.47,1.18a.92.92,0,0,0,.6,1.74l3.47-1.18a.93.93,0,0,0,.57-1.17Zm-1.42,4.36a.92.92,0,0,0-1.17-.57l-5.2,1.76a.92.92,0,0,0-.57,1.16.9.9,0,0,0,1.16.57l5.2-1.76a.91.91,0,0,0,.58-1.16Zm-4.66-2.29a.91.91,0,0,0-1.16-.58l-1.73.59a.93.93,0,0,0-.57,1.16.9.9,0,0,0,1.16.58l1.74-.59a.91.91,0,0,0,.56-1.16Zm6.91-8.15a.92.92,0,0,0-1.16-.58l-10.41,3.54a.92.92,0,0,0-.56,1.16.9.9,0,0,0,1.15.58l10.41-3.54a.91.91,0,0,0,.57-1.16Zm0,0a.92.92,0,0,0-1.16-.58l-10.41,3.54a.92.92,0,0,0-.56,1.16.9.9,0,0,0,1.15.58l10.41-3.54a.91.91,0,0,0,.57-1.16Zm-.83,6.08a.93.93,0,0,0-1.17-.57l-3.47,1.18a.92.92,0,0,0,.6,1.74l3.47-1.18a.93.93,0,0,0,.57-1.17Zm-1.42,4.36a.92.92,0,0,0-1.17-.57l-5.2,1.76a.92.92,0,0,0-.57,1.16.9.9,0,0,0,1.16.57l5.2-1.76a.91.91,0,0,0,.58-1.16Zm-4.66-2.29a.91.91,0,0,0-1.16-.58l-1.73.59a.93.93,0,0,0-.57,1.16.9.9,0,0,0,1.16.58l1.74-.59a.91.91,0,0,0,.56-1.16Zm-11.68-17.3-1.73.58.59,1.73,1.74-.58Zm0,0-1.73.58.59,1.73,1.74-.58Zm11.68,17.3a.91.91,0,0,0-1.16-.58l-1.73.59a.93.93,0,0,0-.57,1.16.9.9,0,0,0,1.16.58l1.74-.59a.91.91,0,0,0,.56-1.16Zm4.66,2.29a.92.92,0,0,0-1.17-.57l-5.2,1.76a.92.92,0,0,0-.57,1.16.9.9,0,0,0,1.16.57l5.2-1.76a.91.91,0,0,0,.58-1.16Zm1.42-4.36a.93.93,0,0,0-1.17-.57l-3.47,1.18a.92.92,0,0,0,.6,1.74l3.47-1.18a.93.93,0,0,0,.57-1.17Zm.83-6.08a.92.92,0,0,0-1.16-.58l-10.41,3.54a.92.92,0,0,0-.56,1.16.9.9,0,0,0,1.15.58l10.41-3.54a.91.91,0,0,0,.57-1.16Zm0,0a.92.92,0,0,0-1.16-.58l-10.41,3.54a.92.92,0,0,0-.56,1.16.9.9,0,0,0,1.15.58l10.41-3.54a.91.91,0,0,0,.57-1.16Zm-.83,6.08a.93.93,0,0,0-1.17-.57l-3.47,1.18a.92.92,0,0,0,.6,1.74l3.47-1.18a.93.93,0,0,0,.57-1.17Zm-1.42,4.36a.92.92,0,0,0-1.17-.57l-5.2,1.76a.92.92,0,0,0-.57,1.16.9.9,0,0,0,1.16.57l5.2-1.76a.91.91,0,0,0,.58-1.16Zm-4.66-2.29a.91.91,0,0,0-1.16-.58l-1.73.59a.93.93,0,0,0-.57,1.16.9.9,0,0,0,1.16.58l1.74-.59a.91.91,0,0,0,.56-1.16Zm-11.68-17.3-1.73.58.59,1.73,1.74-.58Zm.6,1.73-.6-1.73-1.73.58.59,1.73Zm10.52,16.73a.92.92,0,0,0-.6-1.74l-1.73.59a.93.93,0,0,0-.57,1.16.9.9,0,0,0,1.16.58Zm4,.56-5.2,1.76a.92.92,0,0,0-.57,1.16.9.9,0,0,0,1.16.57l5.2-1.76a.91.91,0,0,0,.58-1.16.92.92,0,0,0-1.17-.57Zm1.42-4.36-3.47,1.18a.92.92,0,0,0,.6,1.74l3.47-1.18a.92.92,0,0,0-.6-1.74Zm.84-6.09-10.41,3.54a.92.92,0,0,0-.56,1.16.9.9,0,0,0,1.15.58l10.41-3.54a.91.91,0,0,0,.57-1.16.92.92,0,0,0-1.16-.58Zm7.31,13L110.12,217a10.25,10.25,0,0,0-1.66-1.61s-1.25-1.25-4.87-.07c0,0-.3-.89-.32-.89a5.9,5.9,0,0,0,.67-1,3.83,3.83,0,0,0,.51-2.67c-.09-.49-.5-2.83-.81-3.75-.93-2.75-3-5.17-7-3.78l-.11,0c-4.06,1.39-4.21,4.54-3.28,7.29A36.48,36.48,0,0,0,94.86,214a3.86,3.86,0,0,0,2,1.81,6.4,6.4,0,0,0,1.16.4s.28.88.28.9c-3.59,1.26-3.79,3-3.81,3a10.3,10.3,0,0,0-.35,2.29l-1.55.52a1.81,1.81,0,0,1-2.32-1.15l-6.19-18.2a1.84,1.84,0,0,1,1.14-2.33l13-4.41a3.66,3.66,0,1,0,6.93-2.36l13-4.42a1.84,1.84,0,0,1,2.32,1.14l6.19,18.21a1.82,1.82,0,0,1-1.15,2.32Zm-29.47,10a4.06,4.06,0,0,1,.2-1.07,1.6,1.6,0,0,1,.41-.57A6.08,6.08,0,0,1,98.77,219a2,2,0,0,0,1.34-2.41c-.06-.14-.17-.47-.28-.75l-.19-.53s-.21-.68-.21-.68a10,10,0,0,1-2.17-.59,2.82,2.82,0,0,1-1.05-1c-.35-.68-1-2.43-1.3-3.14-.6-1.79-.35-4,2.22-4.9s4.13.75,4.73,2.53a30.51,30.51,0,0,1,.89,3.28,2.73,2.73,0,0,1-.24,1.4,10.45,10.45,0,0,1-1.35,1.8l.24.66s.31,1,.41,1.3a1.86,1.86,0,0,0,1.86,1.2,2,2,0,0,0,.67-.11c2.28-.66,3.06-.1,3.07-.09a4.52,4.52,0,0,1,.81.72Zm3.28-33a1.84,1.84,0,0,1,2.32,1.14l1.77,5.21A1.83,1.83,0,0,1,100,196.3l-1.77-5.2a1.84,1.84,0,0,1,1.15-2.33Zm29.07,20.1-6.18-18.21a3.67,3.67,0,0,0-4.65-2.28l-13,4.42-1.18-3.47a3.66,3.66,0,1,0-6.93,2.36l1.18,3.46-13,4.42a3.66,3.66,0,0,0-2.29,4.65l6.19,18.21a3.67,3.67,0,0,0,4.65,2.29l32.94-11.2a3.65,3.65,0,0,0,2.29-4.65Zm-27.62-18.65-1.73.58.59,1.73,1.74-.58Zm11.12,18.46a.92.92,0,0,0-.6-1.74l-1.73.59a.93.93,0,0,0-.57,1.16.9.9,0,0,0,1.16.58Zm4,.56-5.2,1.76a.92.92,0,0,0-.57,1.16.9.9,0,0,0,1.16.57l5.2-1.76a.91.91,0,0,0,.58-1.16.92.92,0,0,0-1.17-.57Zm1.42-4.36-3.47,1.18a.92.92,0,0,0,.6,1.74l3.47-1.18a.92.92,0,0,0-.6-1.74Zm2-5.51a.92.92,0,0,0-1.16-.58l-10.41,3.54a.92.92,0,0,0-.56,1.16.9.9,0,0,0,1.15.58l10.41-3.54a.91.91,0,0,0,.57-1.16Zm0,0a.92.92,0,0,0-1.16-.58l-10.41,3.54a.92.92,0,0,0-.56,1.16.9.9,0,0,0,1.15.58l10.41-3.54a.91.91,0,0,0,.57-1.16Zm-.83,6.08a.93.93,0,0,0-1.17-.57l-3.47,1.18a.92.92,0,0,0,.6,1.74l3.47-1.18a.93.93,0,0,0,.57-1.17Zm-1.42,4.36a.92.92,0,0,0-1.17-.57l-5.2,1.76a.92.92,0,0,0-.57,1.16.9.9,0,0,0,1.16.57l5.2-1.76a.91.91,0,0,0,.58-1.16Zm-4.66-2.29a.91.91,0,0,0-1.16-.58l-1.73.59a.93.93,0,0,0-.57,1.16.9.9,0,0,0,1.16.58l1.74-.59a.91.91,0,0,0,.56-1.16Zm-11.68-17.3-1.73.58.59,1.73,1.74-.58Zm0,0-1.73.58.59,1.73,1.74-.58Zm11.68,17.3a.91.91,0,0,0-1.16-.58l-1.73.59a.93.93,0,0,0-.57,1.16.9.9,0,0,0,1.16.58l1.74-.59a.91.91,0,0,0,.56-1.16Zm4.66,2.29a.92.92,0,0,0-1.17-.57l-5.2,1.76a.92.92,0,0,0-.57,1.16.9.9,0,0,0,1.16.57l5.2-1.76a.91.91,0,0,0,.58-1.16Zm1.42-4.36a.93.93,0,0,0-1.17-.57l-3.47,1.18a.92.92,0,0,0,.6,1.74l3.47-1.18a.93.93,0,0,0,.57-1.17Zm.83-6.08a.92.92,0,0,0-1.16-.58l-10.41,3.54a.92.92,0,0,0-.56,1.16.9.9,0,0,0,1.15.58l10.41-3.54a.91.91,0,0,0,.57-1.16Zm0,0a.92.92,0,0,0-1.16-.58l-10.41,3.54a.92.92,0,0,0-.56,1.16.9.9,0,0,0,1.15.58l10.41-3.54a.91.91,0,0,0,.57-1.16Zm-.83,6.08a.93.93,0,0,0-1.17-.57l-3.47,1.18a.92.92,0,0,0,.6,1.74l3.47-1.18a.93.93,0,0,0,.57-1.17Zm-1.42,4.36a.92.92,0,0,0-1.17-.57l-5.2,1.76a.92.92,0,0,0-.57,1.16.9.9,0,0,0,1.16.57l5.2-1.76a.91.91,0,0,0,.58-1.16Zm-4.66-2.29a.91.91,0,0,0-1.16-.58l-1.73.59a.93.93,0,0,0-.57,1.16.9.9,0,0,0,1.16.58l1.74-.59a.91.91,0,0,0,.56-1.16Zm-11.68-17.3-1.73.58.59,1.73,1.74-.58Z"/><path id="Fill-154" class="cls-1" d="M99.67,192.53l-.59-1.73,1.73-.58.6,1.73Zm3.78,2.59-1.77-5.21a1.83,1.83,0,0,0-3.47,1.18L100,196.3a1.83,1.83,0,0,0,3.47-1.18Z"/><path id="Fill-156" class="cls-1" d="M100.1,216.54c0-.14-.16-.46-.27-.75s-.2-.53-.2-.53-.21-.68-.21-.68a10,10,0,0,1-2.17-.59,2.84,2.84,0,0,1-1-1c-.36-.68-1-2.43-1.3-3.14-.6-1.79-.36-4,2.22-4.89s4.13.74,4.73,2.52a30.51,30.51,0,0,1,.89,3.28,2.85,2.85,0,0,1-.24,1.4,10.45,10.45,0,0,1-1.35,1.8l.23.67s.31,1,.42,1.3a1.85,1.85,0,0,0,1.85,1.19,2.25,2.25,0,0,0,.67-.1c2.28-.67,3.07-.1,3.08-.1a5.41,5.41,0,0,1,.81.72l-12.15,4.13a4.32,4.32,0,0,1,.2-1.06,1.61,1.61,0,0,1,.42-.58A6,6,0,0,1,98.77,219a2,2,0,0,0,1.33-2.41"/><path id="Fill-158" class="cls-1" d="M118.83,200.54l-10.41,3.53a.91.91,0,0,1-1.16-.58.92.92,0,0,1,.57-1.16l10.4-3.53a.92.92,0,0,1,1.17.57.94.94,0,0,1-.57,1.17m-.84,6.08-3.47,1.18a.92.92,0,0,1-.59-1.74l3.47-1.17a.9.9,0,0,1,1.16.56.92.92,0,0,1-.57,1.17M116.57,211l-5.21,1.76a.92.92,0,0,1-1.16-.56.93.93,0,0,1,.58-1.17l5.2-1.76a.91.91,0,1,1,.59,1.73M109,208.7a.92.92,0,0,1,.57-1.17l1.73-.58a.91.91,0,0,1,.59,1.73l-1.74.59a.9.9,0,0,1-1.15-.57m17.66.76-6.19-18.21a1.83,1.83,0,0,0-2.31-1.14l-13,4.42a3.67,3.67,0,1,1-6.94,2.36l-13,4.42a1.82,1.82,0,0,0-1.14,2.32l6.19,18.21A1.81,1.81,0,0,0,92.6,223l1.56-.52a10.3,10.3,0,0,1,.35-2.29s.22-1.76,3.81-3c0,0-.29-.85-.29-.9a6.31,6.31,0,0,1-1.15-.4,3.82,3.82,0,0,1-2-1.81,36.48,36.48,0,0,1-1.65-3.47c-.94-2.74-.78-5.9,3.28-7.29l.11,0c4.06-1.39,6.1,1,7,3.78a36,36,0,0,1,.8,3.75,3.91,3.91,0,0,1-.5,2.67,5.53,5.53,0,0,1-.67,1s.31.87.32.89c3.62-1.18,4.84.08,4.86.08a10.32,10.32,0,0,1,1.67,1.6l15.43-5.25a1.82,1.82,0,0,0,1.14-2.32"/><path id="Fill-160" class="cls-25" d="M138,258.21,131.4,284a1.67,1.67,0,0,1-2,1.2L92,275.62a1.65,1.65,0,0,1-1.2-2l6.61-25.8a1.66,1.66,0,0,1,2-1.2l37.43,9.58a1.66,1.66,0,0,1,1.19,2m-.83-3.48-37.41-9.58a3.17,3.17,0,0,0-3.85,2.27L89.3,273.23a3.18,3.18,0,0,0,2.28,3.85L129,286.66a3.16,3.16,0,0,0,3.84-2.27l6.61-25.82a3.16,3.16,0,0,0-2.28-3.84"/><path id="Fill-162" class="cls-1" d="M133.08,268.37,120,265l2.24-8.71,13.05,3.34Zm-3.35,13.07-8-2.05,1.49-5.81,8,2.05ZM112.31,277l1.5-5.81,8,2.05L120.3,279Zm-9.43-2.42,1.49-5.8,8,2-1.48,5.8Zm-9.43-2.42,1.48-5.8,8,2-1.49,5.81Zm4.28-16.69a.74.74,0,0,1,.9-.54l.73.19a.74.74,0,0,1,.54.91.75.75,0,0,1-.91.54l-.72-.18a.75.75,0,0,1-.54-.92Zm6.52,1.68a.74.74,0,0,1-.9.54l-1.46-.38a.74.74,0,1,1,.38-1.44l1.44.36a.75.75,0,0,1,.54.92Zm-5.6-5.3a.74.74,0,0,1,.92-.54l6.52,1.67a.73.73,0,0,1,.54.91.74.74,0,0,1-.9.54l-6.54-1.67a.75.75,0,0,1-.54-.91Zm9.23,6.22a.73.73,0,0,1-.91.54l-.72-.18a.75.75,0,0,1,.37-1.46l.72.2a.74.74,0,0,1,.54.9Zm4.36,1.12a.76.76,0,0,1-.92.54l-1.44-.38a.74.74,0,1,1,.36-1.44l1.46.37a.75.75,0,0,1,.54.91Zm2.9.74a.82.82,0,0,1-.35.47.77.77,0,0,1-1-.27.74.74,0,0,1-.08-.56.78.78,0,0,1,.34-.47.79.79,0,0,1,1,.26.77.77,0,0,1,.08.57Zm-7-5.67a.75.75,0,0,1,.91-.54l6.53,1.68a.75.75,0,1,1-.37,1.45l-6.53-1.68a.74.74,0,0,1-.54-.91Zm28.72,1.94L99.38,246.6a1.66,1.66,0,0,0-2,1.2l-6.61,25.8a1.65,1.65,0,0,0,1.2,2l37.41,9.59a1.65,1.65,0,0,0,2-1.2l6.61-25.8a1.67,1.67,0,0,0-1.19-2Z"/><path id="Fill-164" class="cls-25" d="M106.63,253.87a.74.74,0,0,1-.9.54l-6.54-1.67a.75.75,0,0,1,.38-1.46L106.1,253a.73.73,0,0,1,.53.91"/><path id="Fill-166" class="cls-25" d="M116.07,256.29a.74.74,0,0,1-.91.53l-6.53-1.67a.74.74,0,0,1-.54-.91.75.75,0,0,1,.91-.54l6.53,1.68a.74.74,0,0,1,.54.91"/><path id="Fill-168" class="cls-25" d="M99.91,256a.77.77,0,0,1-.92.54l-.72-.18a.75.75,0,0,1-.54-.92.74.74,0,0,1,.9-.54l.73.19a.76.76,0,0,1,.55.91"/><path id="Fill-170" class="cls-25" d="M104.25,257.13a.74.74,0,0,1-.9.54l-1.46-.38a.74.74,0,1,1,.38-1.44l1.44.36a.75.75,0,0,1,.54.92"/><path id="Fill-172" class="cls-25" d="M107.88,258.05a.74.74,0,0,1-.91.54l-.72-.18a.75.75,0,0,1,.37-1.46l.72.2a.74.74,0,0,1,.54.9"/><path id="Fill-174" class="cls-25" d="M112.24,259.17a.76.76,0,0,1-.92.54l-1.44-.38a.74.74,0,1,1,.36-1.44l1.46.37a.75.75,0,0,1,.54.91"/><path id="Fill-176" class="cls-25" d="M115.14,259.91a.82.82,0,0,1-.35.47.77.77,0,0,1-1-.27.74.74,0,0,1-.08-.56.78.78,0,0,1,.34-.47.8.8,0,0,1,1,.26.77.77,0,0,1,.08.57"/><path id="Fill-178" class="cls-25" d="M132,266.55,121.84,264l1.49-5.81,10.15,2.6Zm-9.75-10.23L120,265l13.07,3.34,2.22-8.71Z"/><polygon id="Fill-180" class="cls-1" points="133.48 260.74 132 266.55 121.84 263.95 123.33 258.14 133.48 260.74"/><path id="Fill-182" class="cls-25" d="M100.35,272.36l-5.08-1.3.74-2.9,5.09,1.3Zm-5.42-6-1.48,5.8,8,2.05,1.49-5.81Z"/><polygon id="Fill-184" class="cls-1" points="101.09 269.46 100.35 272.36 95.27 271.06 96.01 268.16 101.09 269.46"/><path id="Fill-186" class="cls-25" d="M109.79,274.78l-5.09-1.3.75-2.9,5.08,1.3Zm-5.42-6-1.49,5.8,8,2,1.48-5.8Z"/><polygon id="Fill-188" class="cls-1" points="110.53 271.88 109.78 274.78 104.7 273.48 105.45 270.58 110.53 271.88"/><path id="Fill-190" class="cls-25" d="M119.22,277.2l-5.08-1.3.75-2.9,5.07,1.3Zm-5.42-6L112.31,277l8,2,1.49-5.8Z"/><polygon id="Fill-192" class="cls-1" points="119.96 274.3 119.22 277.2 114.14 275.9 114.89 273 119.96 274.3"/><path id="Fill-194" class="cls-25" d="M128.65,279.62l-5.07-1.31.74-2.91,5.08,1.31Zm-5.41-6-1.49,5.81,8,2.05,1.49-5.81Z"/><polygon id="Fill-196" class="cls-1" points="129.4 276.71 128.65 279.62 123.58 278.31 124.32 275.4 129.4 276.71"/><path id="Fill-198" class="cls-25" d="M319.93,183.91l14.14,22.57a1.68,1.68,0,0,1-.53,2.3L300.8,229.26a1.67,1.67,0,0,1-2.3-.53l-14.13-22.58a1.66,1.66,0,0,1,.52-2.28l32.75-20.5a1.67,1.67,0,0,1,2.29.54m-3.09-1.8L284.11,202.6a3.15,3.15,0,0,0-1,4.35l14.13,22.59a3.19,3.19,0,0,0,4.36,1l32.74-20.49a3.16,3.16,0,0,0,1-4.36L321.2,183.11a3.16,3.16,0,0,0-4.36-1"/><path id="Fill-200" class="cls-1" d="M323.9,194.48l-11.43,7.16L307.7,194l11.43-7.15Zm7.15,11.44-7,4.36-3.18-5.08,7-4.37Zm-15.24,9.53-3.17-5.08,7-4.38,3.18,5.09Zm-8.25,5.17-3.18-5.09,7-4.36,3.18,5.07Zm-8.25,5.16-3.19-5.08,7-4.37,3.18,5.08Zm-9.15-14.61a.75.75,0,0,1,.24-1l.64-.39a.74.74,0,0,1,1,.23.76.76,0,0,1-.24,1l-.63.39a.75.75,0,0,1-1-.24Zm5.72-3.57a.75.75,0,0,1-.23,1l-1.28.8a.75.75,0,0,1-1-.24.74.74,0,0,1,.24-1l1.26-.8a.76.76,0,0,1,1,.24Zm-7.7.4a.75.75,0,0,1,.24-1l5.71-3.58a.75.75,0,0,1,.8,1.27l-5.72,3.58a.75.75,0,0,1-1-.24Zm10.87-2.39a.74.74,0,0,1-.23,1l-.64.4a.74.74,0,0,1-1-.24.74.74,0,0,1,.23-1l.64-.39a.74.74,0,0,1,1,.23Zm3.81-2.38a.73.73,0,0,1-.24,1l-1.26.79a.75.75,0,0,1-.8-1.26l1.28-.8a.73.73,0,0,1,1,.24Zm2.54-1.6a.79.79,0,0,1,.1.58.77.77,0,0,1-.9.56.74.74,0,0,1-.56-.91.79.79,0,0,1,.9-.56.82.82,0,0,1,.46.33Zm-9,1.2a.74.74,0,0,1,.23-1l5.72-3.57a.74.74,0,1,1,.79,1.26l-5.71,3.58a.73.73,0,0,1-1-.24Zm21.2-19.46-32.75,20.5a1.66,1.66,0,0,0-.52,2.28l14.13,22.58a1.67,1.67,0,0,0,2.3.53l32.74-20.48a1.68,1.68,0,0,0,.53-2.3l-14.14-22.57a1.67,1.67,0,0,0-2.29-.54Z"/><path id="Fill-202" class="cls-25" d="M295.16,203.63a.75.75,0,0,1-.23,1l-5.72,3.58a.75.75,0,0,1-.79-1.27l5.71-3.58a.75.75,0,0,1,1,.24"/><path id="Fill-204" class="cls-25" d="M303.42,198.46a.75.75,0,0,1-.24,1l-5.71,3.58a.75.75,0,0,1-.8-1.27l5.72-3.57a.75.75,0,0,1,1,.23"/><path id="Fill-206" class="cls-25" d="M292.07,210a.76.76,0,0,1-.24,1l-.63.39a.75.75,0,1,1-.8-1.27l.64-.39a.74.74,0,0,1,1,.23"/><path id="Fill-208" class="cls-25" d="M295.88,207.6a.75.75,0,0,1-.23,1l-1.28.8a.75.75,0,0,1-1-.24.74.74,0,0,1,.24-1l1.26-.8a.76.76,0,0,1,1,.24"/><path id="Fill-210" class="cls-25" d="M299.05,205.61a.74.74,0,0,1-.23,1l-.64.4a.74.74,0,0,1-1-.24.74.74,0,0,1,.23-1l.64-.39a.74.74,0,0,1,1,.23"/><path id="Fill-212" class="cls-25" d="M302.86,203.23a.73.73,0,0,1-.24,1l-1.26.79a.75.75,0,0,1-.8-1.26l1.28-.8a.73.73,0,0,1,1,.24"/><path id="Fill-214" class="cls-25" d="M305.4,201.63a.79.79,0,0,1,.1.58.77.77,0,0,1-.9.56.74.74,0,0,1-.56-.91.79.79,0,0,1,.9-.56.82.82,0,0,1,.46.33"/><path id="Fill-216" class="cls-25" d="M321.84,194l-8.9,5.57-3.17-5.08,8.88-5.56Zm-14.14,0,4.77,7.63,11.43-7.16-4.77-7.62Z"/><polygon id="Fill-218" class="cls-1" points="318.65 188.93 321.84 194 312.94 199.57 309.77 194.49 318.65 188.93"/><path id="Fill-220" class="cls-25" d="M304.23,220.93l-4.45,2.79-1.59-2.54,4.44-2.79Zm-8.11-.23,3.18,5.08,7-4.37-3.18-5.08Z"/><polygon id="Fill-222" class="cls-1" points="302.63 218.39 304.23 220.93 299.78 223.72 298.19 221.18 302.63 218.39"/><path id="Fill-224" class="cls-25" d="M312.48,215.77,308,218.55,306.45,216l4.44-2.78Zm-8.1-.24,3.18,5.09,7-4.38-3.18-5.07Z"/><polygon id="Fill-226" class="cls-1" points="310.89 213.23 312.48 215.77 308.03 218.55 306.45 216.01 310.89 213.23"/><path id="Fill-228" class="cls-25" d="M320.73,210.61l-4.44,2.77-1.59-2.54,4.44-2.77Zm-8.09-.24,3.17,5.08,7-4.37L319.62,206Z"/><polygon id="Fill-230" class="cls-1" points="319.14 208.07 320.73 210.6 316.29 213.38 314.7 210.84 319.14 208.07"/><path id="Fill-232" class="cls-25" d="M329,205.44l-4.45,2.77L323,205.67l4.45-2.77Zm-8.1-.24,3.18,5.08,7-4.36-3.17-5.09Z"/><polygon id="Fill-234" class="cls-1" points="327.4 202.9 328.99 205.44 324.54 208.21 322.95 205.67 327.4 202.9"/><polygon id="Fill-236" class="cls-1" points="208.09 230.94 147.88 249.4 119.6 157.15 179.81 138.69 208.09 230.94"/><polygon id="Stroke-238" class="cls-26" points="208.09 230.94 147.88 249.4 119.6 157.15 179.81 138.69 208.09 230.94"/><polygon id="Fill-240" class="cls-1" points="249.73 230.05 189.47 248.36 161.42 156.04 221.67 137.73 249.73 230.05"/><polygon id="Stroke-242" class="cls-26" points="249.73 230.05 189.47 248.36 161.42 156.04 221.67 137.73 249.73 230.05"/><polygon id="Fill-244" class="cls-1" points="252 244.48 190.05 233.13 207.44 138.23 269.39 149.58 252 244.48"/><polygon id="Stroke-246" class="cls-26" points="252 244.48 190.05 233.13 207.44 138.23 269.39 149.58 252 244.48"/><line id="Stroke-248" class="cls-27" x1="134.52" y1="170.52" x2="162.99" y2="161.74"/><line id="Stroke-250" class="cls-27" x1="136.36" y1="176.3" x2="164.83" y2="167.52"/><line id="Stroke-252" class="cls-27" x1="138" y1="182.08" x2="166.47" y2="173.3"/><line id="Stroke-254" class="cls-27" x1="140.14" y1="187.86" x2="168.6" y2="179.07"/><line id="Stroke-256" class="cls-27" x1="141.97" y1="193.64" x2="170.44" y2="184.85"/><line id="Stroke-258" class="cls-27" x1="143.62" y1="199.41" x2="172.08" y2="190.63"/><line id="Stroke-260" class="cls-27" x1="173.18" y1="162.14" x2="201.64" y2="153.35"/><line id="Stroke-262" class="cls-27" x1="175.02" y1="167.92" x2="203.48" y2="159.13"/><line id="Stroke-264" class="cls-27" x1="176.66" y1="173.69" x2="205.12" y2="164.91"/><line id="Stroke-266" class="cls-27" x1="178.79" y1="179.47" x2="207.26" y2="170.69"/><line id="Stroke-268" class="cls-27" x1="180.63" y1="185.25" x2="209.09" y2="176.47"/><line id="Stroke-270" class="cls-27" x1="182.27" y1="191.03" x2="210.74" y2="182.24"/><polygon id="Fill-272" class="cls-1" points="250.56 237.57 188.31 227.99 202.99 132.62 265.24 142.2 250.56 237.57"/><polygon id="Stroke-274" class="cls-26" points="250.56 237.57 188.31 227.99 202.99 132.62 265.24 142.2 250.56 237.57"/><path id="Fill-276" class="cls-25" d="M207.93,218.48a3.71,3.71,0,0,1-1.92.42,4,4,0,0,1-2-.72,3.84,3.84,0,0,1-1.41-1.61,3.61,3.61,0,0,1-.31-1.94,4,4,0,0,1,.71-1.87,4.07,4.07,0,0,1,.91-1,4.88,4.88,0,0,1,1-.58.59.59,0,0,1,.59,0,.61.61,0,0,1,.24.37.47.47,0,0,1-.07.42.67.67,0,0,1-.25.22,5.09,5.09,0,0,0-.76.48,3.19,3.19,0,0,0-.58.65,2.69,2.69,0,0,0-.51,2,2.61,2.61,0,0,0,1.18,1.67,2.64,2.64,0,0,0,2,.48,2.69,2.69,0,0,0,1.71-1.23,2.93,2.93,0,0,0,.39-.77,6.16,6.16,0,0,0,.17-.89.68.68,0,0,1,.11-.32.48.48,0,0,1,.37-.21.58.58,0,0,1,.43.08.61.61,0,0,1,.26.53,5.27,5.27,0,0,1-.18,1.16,3.88,3.88,0,0,1-.59,1.22,4.15,4.15,0,0,1-1.48,1.35"/><path id="Fill-278" class="cls-25" d="M213.09,209.05a2.2,2.2,0,0,0-.21-1.24,3.37,3.37,0,0,0-2.51-1.71,2.2,2.2,0,0,0-1.24.26,2.61,2.61,0,0,0-1.3,1.92,2.19,2.19,0,0,0,.22,1.23,3.46,3.46,0,0,0,2.51,1.71,2.18,2.18,0,0,0,1.23-.25,2.56,2.56,0,0,0,.89-.81,2.53,2.53,0,0,0,.41-1.11m-.92,3.16a3.25,3.25,0,0,1-1.87.31,4.24,4.24,0,0,1-1.94-.76,4.35,4.35,0,0,1-1.42-1.52,3.29,3.29,0,0,1-.4-1.86,3.92,3.92,0,0,1,.72-1.9,3.87,3.87,0,0,1,1.5-1.36,3.36,3.36,0,0,1,1.88-.32,4.33,4.33,0,0,1,1.94.75,4.38,4.38,0,0,1,1.42,1.53,3.42,3.42,0,0,1,.39,1.87,4.32,4.32,0,0,1-2.22,3.26"/><path id="Fill-280" class="cls-25" d="M216.73,205.89a.64.64,0,0,1-.5-.1l-5.2-3.54a.69.69,0,0,1-.29-.43.66.66,0,0,1,.1-.49.67.67,0,0,1,.44-.29.64.64,0,0,1,.5.11l.5.33a4.84,4.84,0,0,1-.14-1.54,3,3,0,0,1,.56-1.47,2.52,2.52,0,0,1,1.1-.94,2.45,2.45,0,0,1,1.37-.17,3.4,3.4,0,0,1,1.38.55l3.44,2.35a.59.59,0,0,1,.28.42.72.72,0,0,1-.11.51.7.7,0,0,1-.42.28.69.69,0,0,1-.5-.11l-3.32-2.26a1.51,1.51,0,0,0-2.39.33,2.39,2.39,0,0,0-.42,1.3,4.48,4.48,0,0,0,.24,1.48l3.63,2.47a.62.62,0,0,1,.28.43.64.64,0,0,1-.11.5.59.59,0,0,1-.42.28"/><path id="Fill-282" class="cls-25" d="M222,198.2a.62.62,0,0,1-.49-.1l-4.75-3.23-.49.71a.55.55,0,0,1-.37.24.52.52,0,0,1-.42-.09.53.53,0,0,1-.25-.37.57.57,0,0,1,.09-.42l.49-.72-.7-.47a2.87,2.87,0,0,1-1-1.08,2,2,0,0,1-.22-1.14,2.36,2.36,0,0,1,.39-1,2.64,2.64,0,0,1,1-.89.65.65,0,0,1,.31-.08.53.53,0,0,1,.3.09.54.54,0,0,1,.23.35.53.53,0,0,1-.07.41,1.34,1.34,0,0,1-.23.25c-.16.18-.24.28-.26.31a1.25,1.25,0,0,0-.27.9,1.36,1.36,0,0,0,.66.82l.67.45,1-1.52a.52.52,0,0,1,.36-.24.58.58,0,0,1,.44.09.6.6,0,0,1,.24.36.58.58,0,0,1-.09.44l-1,1.51,4.76,3.23a.66.66,0,0,1,.28.43.68.68,0,0,1-.11.5.62.62,0,0,1-.43.28"/><path id="Fill-284" class="cls-25" d="M224.79,194a.61.61,0,0,1-.49-.1l-5.21-3.54a.67.67,0,0,1-.19-.93.69.69,0,0,1,.44-.29.66.66,0,0,1,.5.12l5.21,3.53a.64.64,0,0,1,.27.43.64.64,0,0,1-.11.5.62.62,0,0,1-.42.28m-7.58-5a.74.74,0,0,1-.56-.12l-.05,0a.76.76,0,0,1-.2-1l0-.07a.76.76,0,0,1,.48-.32.7.7,0,0,1,.56.12l0,0a.76.76,0,0,1,.2,1l-.05.07a.76.76,0,0,1-.48.32"/><path id="Fill-286" class="cls-25" d="M228.23,186.68a3.4,3.4,0,0,0-.07-1.31l-2.54-1.73a3.66,3.66,0,0,0-1.26.41,3,3,0,0,0-1,.88,2.34,2.34,0,0,0-.41,1.83,3.2,3.2,0,0,0,3.23,2.2,2.32,2.32,0,0,0,1.55-1.06,2.71,2.71,0,0,0,.46-1.22m-.89,3.24a3.51,3.51,0,0,1-1.86.34,4.29,4.29,0,0,1-2-.75,4.14,4.14,0,0,1-1.43-1.59,3.48,3.48,0,0,1-.37-1.85,3.39,3.39,0,0,1,2.92-3.13l-3-2a.62.62,0,0,1-.28-.43.64.64,0,0,1,.11-.5.59.59,0,0,1,.42-.28.68.68,0,0,1,.5.11l7.88,5.35a.65.65,0,0,1,.17.92.64.64,0,0,1-.43.28.58.58,0,0,1-.49-.1l-.32-.21a3.39,3.39,0,0,1-1.84,3.86"/><path id="Fill-288" class="cls-25" d="M231.37,176.82a2.35,2.35,0,0,0-1.21-.37,2,2,0,0,0-1,.27,2.37,2.37,0,0,0-.75.69,2.43,2.43,0,0,0-.36.94,1.91,1.91,0,0,0,.14,1.07,2.27,2.27,0,0,0,.78,1Zm.25,5.82a3.94,3.94,0,0,1-2.94-.78,4.8,4.8,0,0,1-1.37-1.4,3.35,3.35,0,0,1-.52-1.77,3.43,3.43,0,0,1,.65-1.92,3.38,3.38,0,0,1,1.47-1.26,3.28,3.28,0,0,1,1.8-.24,4.17,4.17,0,0,1,1.75.69.66.66,0,0,1,.28.42.65.65,0,0,1-.11.51l-2.8,4.11a2.42,2.42,0,0,0,1.75.27,2.6,2.6,0,0,0,1.49-1.17,4.71,4.71,0,0,0,.51-.95,5,5,0,0,0,.23-.94.49.49,0,0,1,.1-.25.58.58,0,0,1,.36-.25.54.54,0,0,1,.44.08.64.64,0,0,1,.23.63,5,5,0,0,1-.23,1.2,5.39,5.39,0,0,1-.68,1.28,3.72,3.72,0,0,1-2.41,1.74Z"/><path id="Fill-290" class="cls-25" d="M236.71,176.49a.64.64,0,0,1-.5-.1l-5.2-3.54a.66.66,0,0,1-.29-.42.67.67,0,0,1,.54-.79.64.64,0,0,1,.5.11l.5.34a4.92,4.92,0,0,1-.14-1.55,3,3,0,0,1,.56-1.47,2.52,2.52,0,0,1,1.1-.94,2.45,2.45,0,0,1,1.37-.17,3.42,3.42,0,0,1,1.38.56l3.44,2.34a.6.6,0,0,1,.28.43.69.69,0,0,1-.11.5.7.7,0,0,1-.42.28.65.65,0,0,1-.5-.11l-3.32-2.26a1.51,1.51,0,0,0-2.39.33,2.42,2.42,0,0,0-.42,1.3,4.73,4.73,0,0,0,.23,1.48l3.64,2.48a.59.59,0,0,1,.28.42.68.68,0,0,1-.11.5.59.59,0,0,1-.42.28"/><path id="Fill-292" class="cls-25" d="M240.39,168.11l-3.76-2.56-.59.86a.23.23,0,0,1-.18.12.24.24,0,0,1-.2,0,.31.31,0,0,1-.14-.25l-.49-2.75a.41.41,0,0,1,0-.28.29.29,0,0,1,.19-.11.27.27,0,0,1,.21.05l1,.66.93-1.37a.58.58,0,0,1,.37-.25.53.53,0,0,1,.43.1.51.51,0,0,1,.24.36.56.56,0,0,1-.09.43l-.93,1.37,3.66,2.49c.32.21.57.28.75.18a1.32,1.32,0,0,0,.51-.47,2.07,2.07,0,0,0,.26-.54.61.61,0,0,1,.05-.12.56.56,0,0,1,.08-.15.53.53,0,0,1,.33-.21.51.51,0,0,1,.4.07.56.56,0,0,1,.24.57,2.93,2.93,0,0,1-.47,1.16c-.8,1.18-1.74,1.4-2.8.68"/><path id="Fill-294" class="cls-25" d="M244.78,164.62a.64.64,0,0,1-.5-.1l-5.2-3.54a.69.69,0,0,1-.29-.43.61.61,0,0,1,.1-.49.64.64,0,0,1,.94-.18l5.2,3.53a.62.62,0,0,1,.28.43.68.68,0,0,1-.11.5.64.64,0,0,1-.42.28m-7.58-5a.73.73,0,0,1-.56-.12l0,0a.71.71,0,0,1-.31-.48.7.7,0,0,1,.11-.56l.05-.07a.73.73,0,0,1,.48-.32.7.7,0,0,1,.56.12l.05,0a.76.76,0,0,1,.2,1l-.06.07a.71.71,0,0,1-.47.32"/><path id="Fill-296" class="cls-25" d="M247.76,158.05a3.41,3.41,0,0,0-.08-1.28l-1-.69-.9,1.32c-.83,1.22-.92,2-.28,2.49a1.13,1.13,0,0,0,.9.18,1.76,1.76,0,0,0,.94-.81,2.68,2.68,0,0,0,.44-1.21m-.64,3.12a2,2,0,0,1-1.12.29,2.09,2.09,0,0,1-1.15-.39,2.06,2.06,0,0,1-.95-1.68,4.15,4.15,0,0,1,.88-2.44l1-1.47-.1-.07a1.76,1.76,0,0,0-1.42-.38,2.18,2.18,0,0,0-1.19,1,4.45,4.45,0,0,0-.48.86,9.54,9.54,0,0,0-.32,1l-.08.17a.56.56,0,0,1-.35.23.59.59,0,0,1-.67-.72,6.63,6.63,0,0,1,1-2.4,3.42,3.42,0,0,1,1.3-1.18,2.62,2.62,0,0,1,1.46-.25,3.12,3.12,0,0,1,1.35.52l3.44,2.34a.6.6,0,0,1,.27.42.64.64,0,0,1-.11.5.63.63,0,0,1-.42.29.67.67,0,0,1-.49-.11l-.32-.21a3.65,3.65,0,0,1-.63,2.9,2.64,2.64,0,0,1-.89.84"/><path id="Fill-298" class="cls-25" d="M251.46,154.79a.62.62,0,0,1-.49-.11l-7.87-5.35a.65.65,0,0,1-.29-.43.58.58,0,0,1,.1-.49.65.65,0,0,1,.43-.3.69.69,0,0,1,.51.12l7.87,5.35a.6.6,0,0,1,.27.42.63.63,0,0,1-.11.51.65.65,0,0,1-.42.28"/></g></g></svg>