<?xml version="1.0" encoding="UTF-8"?>
<!-- by Tanja Rohlfs (https://consento.org/team/tanja) - license: CC-BY-NC-SA (see: https://creativecommons.org/licenses/by-nc-sa/4.0/) -->
<svg width="250" height="600" xmlns="http://www.w3.org/2000/svg"><g fill="none" fill-rule="evenodd"><path fill="#FFF" d="M0 0h250v600H0z"/><path d="M167.03 292.341l-2.603.95-.909-5.067-1.46-4.902.028-2.052v-.083c-.04-.261.055-.578.11-.826.386-1.24 1.64-2.134 2.933-2.162.386-.014.882.152.978.578 0 .689-.496 1.267-.688 1.915a11.703 11.703 0 00-.358 3.098c.027.66.096 1.336.413 1.942.495.88 1.294 1.68 1.308 2.767l.041.262c0 .22.138.689.055.909-.083.179-.427.179-.578.041l.73 2.63zm-5.826 97.783c.114 30.34-.616 60.742-3.471 90.958-2.071 21.26-5.112 42.587-11.519 63.004l-7.599.265c-.504-27.665 1.856-56.082.935-84.072-1.122-31.474-4.215-62.94-10.158-93.88a482.453 482.453 0 00-3.414-16.233c-.442-1.914-.897-3.889-1.373-5.796-.183-.637-.296-1.515-.598-2.116-.439-.54-1.374-.621-1.81.007-2.242 8.327-3.817 16.873-5.446 25.348-5.658 30.934-8.49 62.352-9.373 93.773-.702 27.668 1.411 55.417 1.384 83.007l-7.506-.132c-4.859-15.136-7.89-30.835-9.99-46.592-2.708-20.053-4.156-40.275-5.024-60.487-1.05-24.598-1.18-49.297-.734-73.912.23-12.08.603-24.192 1.175-36.259.472-6.268 1.556-13.373 2.177-19.626l.012-.012c.74-5.008 1.556-10.047 2.513-15.02l63.058-.23c1.607 7.918 2.82 16.016 3.723 24.05 1.076 7.197 1.508 14.89 1.772 22.126a1405.11 1405.11 0 011.266 51.829m-37.357-216.059l-9.169-2.465-.223 25.346 9.497 2.705.275-.002 9.476-2.765-.388-25.344-9.151 2.525z" fill="#F1D5C3"/><path d="M114.667 172.155s-.151 3.093-.153 3.668a62.84 62.84 0 00.004 1.079l18.871-1.815-.01-2.953-18.712.02z" fill="#DF715C"/><path d="M160.854 271.318c-.352-1.548-36.725-.33-36.725-.33l-36.314.33c-4.11 3.619-7.655 152.44-6.636 155.003 16.364 13.044 69.454 13.044 85.819 0 .672-2.689-4.147-144.102-6.144-155.003" fill="#383838"/><path fill="#C7C7C7" d="M115.844 195.648h8.248l.044 77.615h-5.824l-4.724-76.84z"/><path d="M125.046 91.842c37.894 1.6 42.499 19.002 41.96 29.016-.348 6.504-.127 13.023.955 19.448.143.848.283 1.706.421 2.563.336 2.093-.651 4.5-2.247 6.881-5.093 7.604-13.948 11.973-23.232 11.922l-36.632-.207c-8.398-.049-16.424-3.72-21.602-10.197-2.264-2.83-3.857-5.832-3.444-8.4.275-1.712.566-3.433.85-5.067.928-5.31 1.043-10.709.585-16.078-.84-9.842 2.893-28.234 41.901-29.88h.485z" fill="#69BAC9"/><path d="M124.544 114.236c.116.028 7.858-1.022 18.08-.484 10.225.54 9.889 14.488 9.889 14.488s-1.965 34.316-2.632 35.254c-.719 1.013-7.679 9.178-25.33 9.178l.006.001c-17.655 0-24.619-8.166-25.337-9.178-.667-.939-2.632-35.255-2.632-35.255s-.336-13.948 9.89-14.488c10.226-.538 17.97.512 18.087.484h-.02z" fill="#F1D5C3"/><path d="M117.633 140.061c0 5.806-4.135 10.513-9.235 10.513s-9.235-4.707-9.235-10.513c0-5.805 4.135-10.51 9.235-10.51s9.235 4.705 9.235 10.51z" stroke="#000"/><path d="M110.255 140.061c0 1.997-.831 3.616-1.857 3.616s-1.858-1.619-1.858-3.616c0-1.996.832-3.615 1.858-3.615 1.026 0 1.857 1.619 1.857 3.615" fill="#000"/><path d="M117.696 138.556c.352-.044 4.32-.747 6.432-.747m6.494 2.252c0 5.806 4.135 10.513 9.235 10.513s9.235-4.707 9.235-10.513c0-5.805-4.135-10.51-9.235-10.51s-9.235 4.705-9.235 10.51z" stroke="#000"/><path d="M138 140.061c0 1.997.831 3.616 1.857 3.616s1.858-1.619 1.858-3.616c0-1.996-.832-3.615-1.858-3.615-1.026 0-1.857 1.619-1.857 3.615" fill="#000"/><path d="M130.558 138.556c-.35-.044-4.32-.747-6.431-.747" stroke="#000"/><path d="M112.189 155.096c-.142 0-2.586-.046-2.726 2.587m26.648-.924c-2.112 2.112-21.855 2.112-23.968 0m23.923-1.663c.142 0 2.586-.046 2.726 2.587" stroke="#DF715C" stroke-width=".5" stroke-linecap="round" stroke-linejoin="round"/><path d="M98.277 137.74c0 3.371.301 7.557-2.732 7.557-3.033 0-8.253-4.186-8.253-7.557 0-3.37 2.459-6.103 5.492-6.103 3.034 0 5.493 2.732 5.493 6.103m52.284 0c0 3.371-.301 7.557 2.732 7.557 3.034 0 8.254-4.186 8.254-7.557 0-3.37-2.46-6.103-5.493-6.103-3.033 0-5.493 2.732-5.493 6.103" fill="#F1D5C3"/><path d="M124.022 91.2c.314 0 21.554-.309 21.554-10.385 0-10.074-16.96-11.815-21.455-11.815h-.004c-4.494 0-21.456 1.74-21.456 11.815 0 10.076 21.242 10.386 21.555 10.386h-.194zm27.156 21.475a1.879 1.879 0 00-1.432-.902l-25.042-2.451v-.002h-.014v.002l-24.113 2.447c-.604.06-1.14.406-1.439.925l-5.908 10.26c-.68 1.18.13 2.654 1.509 2.744a1.889 1.889 0 001.749-.923c1.33-2.247 5.441-7.338 14.617-5.271 5.648 1.272 9.668-1.815 13.593-1.818 4.066.003 8.234 3.09 14.088 1.818 9.551-2.077 13.809 3.068 15.168 5.3a1.88 1.88 0 001.73.896l.112-.006c1.395-.087 2.206-1.585 1.5-2.768l-6.118-10.251z" fill="#69BAC9"/><path d="M131.795 91.363c0 .777-3.44 1.407-7.682 1.407-4.243 0-7.683-.63-7.683-1.407s3.44-1.407 7.683-1.407 7.682.63 7.682 1.407" fill="#2B5165"/><path d="M124.091 149.553c-.898-.082-2.663-.248-2.904-.633-.336-.536.448-1.727.914-2.578.407-.74 1.298-1.844 1.786-2.466.11-.14.38-.142.49-.002.492.62 1.391 1.719 1.804 2.454.473.848 1.262 2.034.928 2.571-.238.388-2.124.566-3.018.654" fill="#FF3434"/><path d="M66.742 302.885c1.297.712 10.372 3.896 10.572 3.077 1.706-6.98.975-14.1 1.49-20.954.088-1.173-6.096-2.591-9.14-3.799-.537 7.717-1.944 14.032-2.922 21.676" fill="#C7C7C7"/><path d="M67.937 304.686c-65.663-67.089 16.237-119.937 41.649-123.424 5.153 20.147 11.187 36.412 14.554 56.433.343 2.04-.01 3.69-.014 5.913-2.567 9.99-3.283 29.845-4.677 38.172-1.88 11.223 1.097 11.883-7.795 16.067-7.049 3.318-17.745 5.192-25.982 7.132-1.678.395-1.89-1.557-2.108-2.751-1.838-10.058 15.7-75.512.501-79.03-19.05-4.407-32.632 39.317-13.447 57.274-1.509 8.383-.002 16.836-2.68 24.214" fill="#2B5165"/><path fill="#E58585" d="M113.706 179.396l-23.145 8.073 15.02 10.377-6.165 4.07 24.705 41.18-.005-6.818z"/><path stroke="#E58585" stroke-linecap="round" stroke-linejoin="round" d="M113.706 179.396l-23.145 8.073 15.02 10.377-6.165 4.07 24.705 41.18-.005-6.818z"/><path d="M87.36 283.322l-1.46 4.902-.908 5.068-2.589-.95.73-2.644c.014 0 .014 0 .028-.014.096-.096.124-.4.124-.523.027-.4-.014-.799.055-1.185-.083.358-.207 1.391-.152 1.336l.055-.014-.11.4c-.151.151-.496.151-.578-.028-.097-.22.041-.688.055-.909l.027-.261c.028-1.088.813-1.887 1.322-2.768.303-.606.372-1.28.4-1.942a10.666 10.666 0 00-.358-3.098c-.193-.647-.689-1.226-.689-1.914.11-.427.592-.592.992-.579 1.28.028 2.547.923 2.919 2.162.055.248.151.579.11.84v.07l.027 2.051z" fill="#F1D5C3"/><path d="M83.34 287.976c-.07.386-.028.785-.056 1.185 0 .123-.027.426-.124.523-.014.014-.014.014-.027.014l.11-.4-.055.014c-.055.055.069-.978.151-1.336" fill="#F1D5C3"/><path d="M83.34 287.976c-.07.386-.028.785-.056 1.185 0 .123-.027.426-.124.523-.014.014-.014.014-.027.014l.11-.4-.055.014c-.055.055.069-.978.151-1.336m1.37 19.328c1.101 1.094 2.128 2.734 2.497 4.19.102.4-.048 2.11-.824 1.725-.849-.42-1.442-1.526-2.263-2.07a35.744 35.744 0 00-2.082-1.3c-.51-.29-1.038-.537-1.546-.826-1.767-1.001-6.688-3.848-3.997-6.342l8.215 4.623z" fill="#F1D5C3"/><path d="M77.156 299.831c-.465.468-1.141 1.907-.784 2.438.99 1.473 3.1 2.1 4.58 2.834 1.934.96 3.638 2.131 5.413 3.307.804.53 3.046 2.444 3.747 1.53 1.384-1.805-2.19-6.088-2.711-6.606l-10.245-3.503z" fill="#F1D5C3"/><path d="M84.744 307.336c-1.207-1.055-3.963-2.47-5.034-2.927-.973-.442-2.137-1.19-2.853-2.011-.099-.13-.232-.255-.272-.416-.05-.442.173-.87.386-1.244.107-.187.255-.345.389-.512a.311.311 0 00-.234-.456c-.229-.025-.357.207-.485.358-.223.305-.409.64-.538.996-.113.323-.195.68-.115 1.02.054.241.223.433.374.621 1.29 1.498 3.275 2.031 4.985 2.887.678.338.995.428 2.738 1.375.398.218.634.316.66.309" fill="#E5B79E"/><path d="M76.932 294.823c-.3.364-.573.918-.813 1.794-.263.96.053 2.196.76 3.076.633.788 2.578.932 3.565 1.176 2.334.577 4.802 1.43 6.835 2.555.51.28 2.588 2.13 3.574.35.786-1.416-2.325-4.549-3.602-5.162l-10.32-3.79z" fill="#F1D5C3"/><path d="M87.776 303.754c-.417-.201-.935-.545-1.252-.747-.77-.378-1.027-.505-1.843-.848-1.605-.658-2.787-1.274-4.478-1.66-.904-.19-1.865-.275-2.696-.7-.346-.168-.558-.505-.738-.83-.31-.579-.484-1.245-.42-1.903.073-.542.27-1.068.505-1.558.125-.315.71-.783.14-.99-.22-.048-.35.157-.455.314-.199.29-.35.614-.474.943-.402.943-.47 2.01-.077 2.968l.043.106c.187.44.428.876.773 1.21.498.433 1.158.605 1.785.755 1.263.237 2.53.501 3.75.9 1.961.628 5.064 1.93 5.405 2.034l.032.006" fill="#E5B79E"/><path d="M85.277 289.309c.053.13-.179.02-.28.048-.85.247-1.621.207-2.491.306-1.602.183-3.89.158-5.4.73-1.009.381-1.763 2.06-1.416 3.091.333.986 2.119 1.869 3.035 2.128 2.983.841 6.124 2.093 9.034 3.175 1.038.387 3.431 1.274 3.75 1.012 2.896-2.364-3.782-5.898-6.32-6.524-.713-.175-2.37-.8-2.617-1.534l2.705-2.432z" fill="#F1D5C3"/><path d="M84.793 292.882c-.025-.01-.338-.197-.361-.205-.328-.136-.52-.098-.794-.135-.412-.055-.624-.178-.92-.541-.172-.19-.438-.543-.453-.288-.003.201.135.38.254.531.792.83.875.509 1.946.812.138.045.153.044.29.093.017-.133.028-.166.038-.267m-6.595 2.214c-.585-.248-1.153-.558-1.64-.968-.37-.301-.673-.724-.646-1.221.026-.78.387-1.581 1.01-2.063.399-.247 1.632-.795 2.098-.879-.146-.05-.276-.097-.353-.118-.096-.026-.265-.112-.43-.072-.525.098-1.04.232-1.52.464-.974.634-1.536 1.894-1.393 3.042.25 1.278 1.663 1.947 2.748 2.43 2.853.872 7.634 2.657 9.205 2.9-.013-.2-5.487-2.42-9.08-3.515" fill="#E5B79E"/><path fill="#C7C7C7" d="M132.387 195.648h-8.246l-.046 77.615h5.825l4.724-76.84zm-22.819 331.635h-14.3s-.773 12.487-3.136 13.725c-2.363 1.238-15.525 6.187-15.525 7.875v2.588h22.386s1.127-6.187 2.813-6.187c1.687 0 1.576 5.962 2.025 5.962h4.725s1.519-24.47 1.012-23.963m27.932 0h14.3s.775 12.487 3.138 13.725c2.362 1.238 15.524 6.187 15.524 7.875v2.588h-22.386s-1.125-6.187-2.813-6.187c-1.687 0-1.574 5.962-2.025 5.962h-4.725s-1.519-24.47-1.012-23.963m44.803-224.66c-1.295.71-10.37 3.894-10.572 3.075-1.706-6.979-.973-14.098-1.488-20.952-.088-1.174 6.094-2.593 9.14-3.8.537 7.718 1.944 14.032 2.92 21.677"/><path d="M181.109 304.686c65.663-67.089-16.237-119.937-41.648-123.424-5.154 20.147-11.188 36.412-14.554 56.433-.343 2.04.01 3.69.013 5.913 2.567 9.99 3.283 29.845 4.678 38.172 1.88 11.223-1.098 11.883 7.795 16.067 7.048 3.318 17.746 5.192 25.982 7.132 1.677.395 1.89-1.557 2.108-2.751 1.837-10.058-15.7-75.512-.502-79.03 19.05-4.407 32.633 39.317 13.447 57.274 1.51 8.383 2.51 16.312 2.68 24.214" fill="#2B5165"/><path fill="#E58585" d="M134.526 179.396l23.143 8.073-15.018 10.377 6.164 4.07-24.704 41.18.005-6.818z"/><path stroke="#E58585" stroke-linecap="round" stroke-linejoin="round" d="M134.526 179.396l23.143 8.073-15.018 10.377 6.164 4.07-24.704 41.18.005-6.818z"/><path d="M127.445 241.106a3.275 3.275 0 11-6.55 0 3.275 3.275 0 016.55 0" fill="#69BAC9"/><path d="M164.715 307.304c-1.102 1.094-2.129 2.734-2.498 4.19-.102.4.048 2.11.825 1.725.848-.42 1.441-1.526 2.262-2.07a35.744 35.744 0 012.082-1.3c.51-.29 1.038-.537 1.546-.826 1.767-1.001 6.688-3.848 3.998-6.342l-8.215 4.623z" fill="#F1D5C3"/><path d="M172.267 299.831c.465.468 1.14 1.907.785 2.438-.99 1.473-3.101 2.1-4.581 2.834-1.933.96-3.638 2.131-5.413 3.307-.804.53-3.046 2.444-3.747 1.53-1.383-1.805 2.191-6.088 2.712-6.606l10.244-3.503z" fill="#F1D5C3"/><path d="M164.68 307.336c1.207-1.055 3.962-2.47 5.033-2.927.974-.442 2.137-1.19 2.853-2.011.098-.13.233-.255.273-.416.048-.442-.174-.87-.387-1.244-.106-.187-.255-.345-.388-.512-.108-.185.02-.432.234-.456.228-.025.356.207.484.358.223.305.41.64.539.996.113.323.193.68.114 1.02-.054.241-.223.433-.373.621-1.29 1.498-3.276 2.031-4.986 2.887-.677.338-.994.428-2.737 1.375-.398.218-.635.316-.66.309" fill="#E5B79E"/><path d="M172.49 294.823c.301.364.575.918.813 1.794.263.96-.05 2.196-.758 3.076-.634.788-2.578.932-3.567 1.176-2.334.577-4.8 1.43-6.835 2.555-.51.28-2.587 2.13-3.572.35-.787-1.416 2.325-4.549 3.601-5.162l10.319-3.79z" fill="#F1D5C3"/><path d="M161.648 303.754c.417-.201.934-.545 1.251-.747.771-.378 1.027-.505 1.844-.848 1.604-.658 2.785-1.274 4.478-1.66.903-.19 1.864-.275 2.696-.7.345-.168.557-.505.738-.83.31-.579.483-1.245.42-1.903-.073-.542-.27-1.068-.506-1.558-.126-.315-.709-.783-.139-.99.22-.048.35.157.455.314.198.29.35.614.473.943.402.943.471 2.01.077 2.968l-.042.106c-.187.44-.428.876-.774 1.21-.497.433-1.16.605-1.785.755-1.262.237-2.529.501-3.75.9-1.961.628-5.063 1.93-5.405 2.034-.026.004-.03.006-.031.006" fill="#E5B79E"/><path d="M164.63 289.412c.852.246 1.416.151 2.288.25 1.601.184 3.89.159 5.4.73 1.008.382 1.763 2.06 1.416 3.092-.334.986-2.12 1.868-3.035 2.127-2.984.842-6.125 2.093-9.034 3.177-1.038.386-3.432 1.273-3.751 1.011-2.896-2.364 3.782-5.898 6.32-6.523.713-.176 2.371-.802 2.618-1.536l-2.221-2.328z" fill="#F1D5C3"/><path d="M164.63 292.882c.025-.01.338-.197.361-.205.328-.136.52-.098.795-.135.412-.055.624-.178.92-.541.172-.19.438-.543.453-.288.002.201-.135.38-.255.531-.792.83-.874.509-1.946.812-.137.045-.152.044-.289.093-.018-.133-.029-.166-.038-.267m6.595 2.214c.585-.248 1.152-.558 1.64-.968.37-.301.673-.724.644-1.221-.025-.78-.386-1.581-1.008-2.063-.4-.247-1.633-.795-2.098-.879.146-.05.275-.097.352-.118.096-.026.266-.112.431-.072.525.098 1.04.232 1.52.464.974.634 1.536 1.894 1.392 3.042-.25 1.278-1.663 1.947-2.748 2.43-2.853.872-7.634 2.657-9.205 2.9.014-.2 5.487-2.42 9.08-3.515" fill="#E5B79E"/></g></svg>