<?xml version="1.0" encoding="UTF-8"?>
<!-- by Tanja Rohlfs (https://consento.org/team/tanja) - license: CC-BY-NC-SA (see: https://creativecommons.org/licenses/by-nc-sa/4.0/) -->
<svg width="500" height="780" xmlns="http://www.w3.org/2000/svg" xmlns:xlink="http://www.w3.org/1999/xlink"><defs><path id="a" d="M.59.71h42.27V12.8H.59z"/></defs><g fill="none" fill-rule="evenodd"><path fill="#FFF" d="M0 0h500v780H0z"/><path d="M137.092 401.948c4.06.076 21.077 1.343 21.077 1.343l6.957 3.09s-13.598 4.665-14.726 4.288c-1.128-.375-14.661-4.886-14.888-5.413-.224-.525 1.58-3.308 1.58-3.308" fill="#883434"/><path d="M278.155 181.814c.188 1 1.522 4.028 1.522 4.028l.947 4.164 2.7-.78s-.244-2.048-.157-2.195c.1-.181-.044-.566-.058-.747l-.029-.215c-.028-.894-.847-1.55-1.378-2.275-.316-.497-.388-1.052-.417-1.595-.043-.86.101-1.72.374-2.545.2-.532.717-1.008.717-1.573-.114-.351-.617-.487-1.033-.475-1.336.022-2.657.757-3.044 1.776a4.776 4.776 0 00-.144 2.432m-55.64 1.246c-.188 1-1.522 4.029-1.522 4.029l-.948 4.163-2.699-.78s.244-2.048.158-2.195c-.101-.182.043-.567.057-.748l.03-.215c.027-.893.846-1.55 1.378-2.273.315-.499.387-1.053.416-1.596.043-.86-.101-1.72-.373-2.546-.202-.532-.719-1.007-.719-1.573.116-.351.618-.486 1.035-.475 1.335.022 2.656.758 3.044 1.776.209.643.331 1.434.143 2.433" fill="#F1D5C3"/><path d="M292.202 350.356c-.078.381 1.245 13.812 1.479 13.812.233 0 4.28-1.144 4.28-1.144s-.078-9.43-1.011-10.19c-.934-.763-4.748-2.478-4.748-2.478" fill="#D6948B"/><path d="M206.658 350.356c.078.312-1.246 11.284-1.48 11.284-.232 0-4.28-.933-4.28-.933s.078-7.704 1.013-8.327c.933-.623 4.747-2.024 4.747-2.024" fill="#E0B094"/><path d="M335.316 403.298c-.758.516 3.749 7.041 3.749 7.041s2.286 4.762 11.34 3.567c.856-.113 12.889-7.24 12.889-7.24l-2.14-2.984-14.946 5.266-10.892-5.65z" fill="#92E0EA"/><path d="M358.888 390.586l.68 15.418c-10.692 4.261-19.196 1.779-19.196 1.779l-1.307-21.118 19.823 3.921z" fill="#F4D9CE"/><path fill="#D6948B" d="M359.048 394.198l-13.118 2.258-6.33-1.238-.352-5.88 19.683 2.045z"/><path d="M372.528 385.597c1.184-1.22 11.172-19.704 11.172-19.704l-12.163-3.564.99 23.268zm-47.807 14.071s-15.56 2.832-15.656 2.032c-1.552-12.8-54.05-166.369-56.44-175.64-2.343-9.095-2.493-9.469-4.733-.06-2.217 9.314-54.387 162.9-55.939 175.7-.096.8-15.656-2.032-15.656-2.032l45.311-219.473 29.016 1.853 28.03-1.666 46.067 219.286z" fill="#2B5165"/><path d="M311.843 731.81s2.936 9.627 2.274 9.427c-.662-.201-41.968 0-41.968 0s-.971-1.61 1.306-2.572c2.275-.96 24.053-8.79 24.053-8.79l14.335 1.935z" fill="#383838"/><path d="M289.782 351.566c-.954 2.907-.594 4.62.344 8.78.387 1.72.676 5.83 1.07 7.548.42 1.838-.252 4.396-.805 6.429-.63 2.325-3.31 5.87-3.42 7.748-.088 1.513 4.326 2.461 3.67 3.571-.771 1.304 3.564 4.174 3.869 5.456 1.85-.744 2.265-4.746 2.777-6.746.821-3.21 2.685-4.618 4.31-7.447 2.345-4.079 4.314-8.375 6.28-12.662 1.318-2.88 2.66-5.84 2.942-8.993-.354-.324-.723-.707-1.115-.437-.691.477-2.052 1.382-2.33 1.801-1.371 2.069-2.983 4.906-5.365 5.342-5.21.956-8.762-1.188-8.77-6.421-.002-1.193-.51-6.892-1.608-7.715-2.097-1.572-1.368 2.28-1.85 3.746" fill="#F4D9CE"/><path d="M335.404 405.131s30.924 52.642-27.145 52.642c-62.427 0-21.417-79.124-21.417-79.124l11.127 9.23s-19.175 55.816 5.032 49.97c9.397-2.271 19.197-14.97 19.197-14.97" fill="#E58585"/><path d="M396.005 748.968c-5.304-.304-15.344-2.583-15.344-2.583S354.797 709.409 345.509 644c-2.928-20.608-7.032-55-10.016-79.527-19.928 28.591-31.608 163.615-23.768 167.512l-16.928-1c-14.64 2.424-16.952-183.529 9.936-217.121 11.224-14.023 38.504-.215 39.872.496 16.952.736 39.256 1.625 39.256 1.625-17.84 1.039-1.168 196.351 12.704 230.4 1.184 2.903.056 2.615-.56 2.583" fill="#69BAC9"/><path d="M380.331 501.6s5.2 38.1-15.373 56.014c-20.574 17.915-32.47-47.187-32.47-47.187s-2.242-10.773 0-10.905c2.243-.132 47.843 2.077 47.843 2.077" fill="#69BAC9"/><path d="M362.665 403.298c.613-1.552 28.051-.589 28.051 21.434 0 67.207-8.185 96.48-9.798 97.644-1.614 1.165-73.767-6.691-75.787-7.99 5.688-18.164 11.067-83.991 13.446-87.632 3.042-4.655 6.274-23.456 16.827-24.045 3.623 0 1.111 9.233 8.651 10.188 13.66 1.73 16.866-5.18 18.61-9.6" fill="#E58585"/><path d="M330.778 573.475c1.543-3.566 3.098-6.878 4.715-9.013l-2.52-31.205-2.195 40.218z" fill="#2B5165"/><path d="M283.407 381.87v.012c.048-.086.087-.173.137-.258-.05.086-.093.166-.137.246" fill="#E0B094"/><g transform="translate(356 745.677)"><mask id="b" fill="#fff"><use xlink:href="#a"/></mask><path d="M40.489 3.37s2.936 9.627 2.274 9.427c-.662-.2-41.968 0-41.968 0s-.97-1.61 1.306-2.57L24.658.708l15.83 2.661z" fill="#383838" mask="url(#b)"/></g><path d="M187.017 731.81s-2.936 9.627-2.273 9.427c.661-.201 41.967 0 41.967 0s.971-1.61-1.305-2.572c-2.276-.96-24.054-8.79-24.054-8.79l-14.335 1.935z" fill="#69BAC9"/><path d="M209.946 350.356c.953 2.908-.274 5.83-1.211 9.99-.388 1.72-.676 5.83-1.07 7.548-.42 1.838.251 4.396.803 6.429.632 2.325 3.312 5.87 3.421 7.749.089 1.513-4.326 2.46-3.67 3.57.77 1.304-3.564 4.174-3.868 5.456-1.852-.744-2.266-4.746-2.777-6.746-.822-3.21-2.686-4.617-4.311-7.447-2.344-4.08-5.907-8.7-7.872-12.986-1.32-2.88-3.19-2.296-3.47-5.45.098-.62.525-2.505.997-2.446 1.202.15 3.03 1.945 4.114 2.753 1.99 1.483 3.437 2.744 5.819 3.18 5.21.956 9.421-3.216 9.43-8.448.002-1.193.878-5.682 2.249-5.745 1.293-.06.934 1.127 1.416 2.593" fill="#E0B094"/><path d="M161.43 407.071s-26.295 59.063 31.774 59.063c62.427 0 19.583-85.898 19.583-85.898l-11.748 8.566s17.93 62.084-2.704 55.904c-16.728-5.01-18.848-26.232-18.848-26.232" fill="#FF3434"/><path d="M204.061 730.984l-16.928 1c7.848-3.896-3.832-138.928-23.76-167.512-2.984 24.528-7.088 58.92-10.016 79.528-9.288 65.408-35.152 102.384-35.152 102.384s-10.04 2.28-15.352 2.584c-.608.032-1.744.32-.56-2.584 13.872-34.048 30.552-229.36 12.712-230.4 0 0 22.304-.888 39.248-1.624 1.28-.656 27.904-14.08 38.752.248 23.856 31.504 26.28 217.576 11.056 216.376" fill="#C7C7C7"/><path d="M118.529 501.6s-5.2 38.1 15.374 56.014c20.573 17.915 32.47-47.187 32.47-47.187s2.242-10.773 0-10.905c-2.244-.132-47.844 2.077-47.844 2.077" fill="#C7C7C7"/><path d="M142.806 398.306s-.319 6.477-.319 8.26h16s-.8-11.467-.8-10.576c0 .892-14.881 2.316-14.881 2.316" fill="#E0B094"/><path d="M297.233 142.215s-1.436.174-1.719.266c-.417.134-.553-4.006-.553-4.006l2.905 3.634-.633.106zm5.845-21.758s2.678-.466 3.031-.595c.519-.188.12 4.74.12 4.74l-3.945-3.979.794-.166z" fill="#2B5165"/><path d="M281.173 157.488l-31.341.102-31.31.102s-2.266-11.565-3.382-11.555c-1.117.01-3.317 11.616-3.317 11.616l-6.767.067s-.624-8.638-.119-36.46c.26-14.27 11.805-19.242 9.976-44.651-3.36-46.683 15.08-53.826 25.441-55.67 4.665-.829 13.425-.857 18.096-.057 10.373 1.775 28.86 8.797 25.804 55.501-.24 3.66-.205 6.895.032 9.791 1.405 17.232 9.933 22.58 10.234 34.793.687 27.82.119 36.46.119 36.46l-6.767-.022s-2.276-11.591-3.392-11.595c-1.116-.002-3.307 11.578-3.307 11.578" fill="#FF3434"/><path d="M281.173 157.488l-31.341.102-31.31.102s-2.266-11.565-3.382-11.555c-1.117.01-3.317 11.616-3.317 11.616l-6.767.067s-.624-8.638-.119-36.46c.26-14.27 11.805-19.242 9.976-44.651-3.36-46.683 15.08-53.826 25.441-55.67 4.665-.829 13.425-.857 18.096-.057 10.373 1.775 28.86 8.797 25.804 55.501-.24 3.66-.205 6.895.032 9.791 1.405 17.232 9.933 22.58 10.234 34.793.687 27.82.119 36.46.119 36.46l-6.767-.022s-2.276-11.591-3.392-11.595c-1.116-.002-3.307 11.578-3.307 11.578z" stroke="#FF3434" stroke-width=".8" stroke-linecap="round" stroke-linejoin="round"/><path d="M239.19 92.907c.11 0 20.514-.063 20.821 0 .308.061-2.24 2.805-2.24 2.805s-11.29 1.074-11.443 1.012a2830.14 2830.14 0 01-7.402-3.364l.264-.453zm-37.403 49.197s1.843.27 2.088.359c.36.13-.069-3.747-.069-3.747l-2.567 3.286.548.102zm-5.911-21.107s-2.37-.416-2.684-.53c-.459-.167-.106 4.224-.106 4.224l3.493-3.545-.703-.149z" fill="#2B5165"/><path d="M293.663 136.498c-10.303-14.912 8.353-16.035 8.353-16.035s10.41 8.503 16.14 23.835c7.065 18.904 6.603 46.044-34.264 54.55l1.363-12.18c7.165-1.227 25.184-10.334 19.012-30.986-2.987-9.992-5.434-11.7-10.604-19.184m-68.16-84.374c-.11-.135-5.693-1.995-5.595 3.94.098 5.936 3.962 5.12 5.742 5.265 1.781.143-.036-9.07-.147-9.205m48.717-.159c.109-.136 5.678-2.033 5.62 3.903-.06 5.937-3.928 5.147-5.708 5.303-1.78.155-.022-9.07.087-9.206M249.36 83.237c-16.06-2.704-19.982-9.06-20.235-11.027-.955-7.36-1.255-31.838-1.255-31.838 7.12-2.59 17.803-6.473 21.364-7.768l21.419 7.628s-.143 24.48-1.047 31.846c-.24 1.956-4.07 8.262-19.83 11.1-.111.02-.417.06-.417.06" fill="#F1D5C3"/><path d="M238.07 52.186c.962-.003 1.748 1.314 1.753 2.94.005 1.626-.772 2.95-1.733 2.952-.962.004-1.748-1.315-1.752-2.94-.006-1.627.77-2.948 1.732-2.952m23.903-.078c.961-.003 1.747 1.314 1.752 2.94.005 1.626-.771 2.949-1.733 2.952-.962.003-1.747-1.314-1.753-2.94-.005-1.627.772-2.949 1.734-2.952" fill="#000"/><path d="M249.458 65.825c-.436-.121-1.304-.363-1.422-.913-.165-.763.211-2.456.434-3.667.236-1.27.812-3.3.976-3.96.166.659.756 2.685 1 3.954.232 1.209.617 2.9.458 3.663-.114.552-.982.8-1.414.923" fill="#FF3434"/><path d="M204.679 137.38c10.2-14.971-8.465-15.98-8.465-15.98s-10.349 8.565-15.972 23.93c-6.935 18.945-6.285 46.079 34.641 54.332l-1.448-12.17c-7.174-1.182-25.256-10.177-19.227-30.863 2.917-10.01 5.352-11.731 10.471-19.248m44.599-54.716l-6.99-1.547-.182 15.94 7.24 1.697h.21l7.23-1.744-.286-15.939-6.98 1.592" fill="#F1D5C3"/><path d="M281.593 192.281c.08.645.159 1.29.227 1.935a.582.582 0 01.022.136c.09.668.17 1.335.249 2.003a168.33 168.33 0 00-.498-4.074m.758 6.337c-.09-.759-.17-1.516-.26-2.264.057.408.102.815.147 1.223.046.35.08.701.113 1.04" fill="#2B5165"/><path d="M219.588 201.909c1.01.942 1.952 2.356 2.29 3.612.094.344-.043 1.82-.757 1.488-.777-.364-1.321-1.317-2.074-1.786a33.392 33.392 0 00-1.91-1.12c-.466-.25-.952-.464-1.417-.712-1.62-.865-6.133-3.318-3.666-5.468" fill="#F1D5C3"/><path d="M212.661 195.465c-.426.403-1.046 1.645-.72 2.101.909 1.272 2.845 1.812 4.202 2.444 1.773.828 3.336 1.838 4.965 2.852.736.457 2.792 2.108 3.435 1.32 1.27-1.557-2.01-5.25-2.487-5.696" fill="#F1D5C3"/><path d="M219.62 201.936c-1.108-.91-3.634-2.13-4.617-2.523-.893-.38-1.96-1.027-2.616-1.735-.09-.11-.214-.22-.25-.36-.045-.38.16-.749.355-1.07.097-.162.234-.299.355-.442.099-.16-.018-.373-.213-.394-.21-.02-.328.178-.446.31a3.436 3.436 0 00-.494.858c-.104.279-.176.587-.104.88.048.208.204.373.342.536 1.184 1.29 3.004 1.75 4.573 2.488.621.292.913.37 2.51 1.186.365.187.583.272.605.266" fill="#E5B79E"/><path d="M212.456 191.147c-.276.314-.526.792-.745 1.547-.242.828.047 1.894.696 2.652.58.68 2.365.804 3.27 1.014 2.14.497 4.403 1.234 6.268 2.203.467.24 2.373 1.836 3.277.302.72-1.22-2.132-3.922-3.303-4.45" fill="#F1D5C3"/><path d="M222.4 198.847c-.383-.173-.857-.469-1.148-.644-.706-.325-.941-.435-1.69-.73-1.471-.568-2.556-1.099-4.107-1.433-.828-.163-1.708-.235-2.472-.602-.317-.145-.512-.436-.678-.716-.284-.499-.442-1.075-.385-1.641.068-.467.248-.92.464-1.343.115-.272.65-.675.127-.854-.2-.042-.32.136-.416.27-.182.25-.321.53-.435.813-.368.814-.431 1.734-.07 2.56l.038.091c.173.38.394.756.71 1.044.457.372 1.063.52 1.637.65 1.158.205 2.319.432 3.44.776 1.798.542 4.644 1.665 4.956 1.754l.03.005" fill="#E5B79E"/><path d="M220.11 186.393c.047.113-.166.017-.257.042-.78.212-1.487.177-2.286.263-1.468.157-3.567.137-4.953.629-.924.33-1.616 1.776-1.298 2.666.306.85 1.944 1.611 2.784 1.834 2.736.726 5.616 1.805 8.285 2.738.952.334 3.147 1.098 3.44.873 2.655-2.04-3.469-5.086-5.797-5.625-.653-.151-2.174-.69-2.4-1.324" fill="#F1D5C3"/><path d="M213.616 191.382c-.537-.212-1.057-.48-1.504-.834-.34-.26-.617-.624-.591-1.053.024-.672.354-1.363.925-1.779.366-.213.449-.34-.199-.475-.892.545-1.397 1.586-1.266 2.576.23 1.103 1.526 1.68 2.52 2.097 2.617.752 7.002 2.29 8.442 2.499-.012-.172-5.032-2.086-8.327-3.03" fill="#E5B79E"/><path d="M249.7 45.32c-.509.001-11.201.06-11.201.06s-.78-8.952-1.252-8.948c-.472.004-1.583 8.968-1.583 8.968l-9.382-.073s-.041-4.52-.06-8.616l-.014-4.101 23.449-.29 23.45.138.014 4.102c.007 4.096-.004 8.616-.004 8.616l-9.382.134s-1.17-8.958-1.642-8.958-1.193 8.956-1.193 8.956l-11.2.012" fill="#FF3434"/><path d="M249.7 45.32c-.509.001-11.201.06-11.201.06s-.78-8.952-1.252-8.948c-.472.004-1.583 8.968-1.583 8.968l-9.382-.073s-.041-4.52-.06-8.616l-.014-4.101 23.449-.29h0l23.45.138.014 4.102c.007 4.096-.004 8.616-.004 8.616l-9.382.134s-1.17-8.958-1.642-8.958-1.193 8.956-1.193 8.956l-11.2.012" stroke="#FF3434" stroke-width=".8" stroke-linecap="round" stroke-linejoin="round"/><path d="M241.033 69.858c2.295 2.527 15.075 1.997 16.922-.066" stroke="#DF715C" stroke-width=".5" stroke-linecap="round" stroke-linejoin="round"/><path d="M242.277 81.541s-.116 2.359-.117 2.798c-.002.546.004.822.004.822l14.392-1.384-.008-2.252-14.27.016z" fill="#DF715C"/><path d="M280.512 198.6c-1.01.942-1.952 2.356-2.291 3.612-.093.344.044 1.82.758 1.487.776-.362 1.32-1.317 2.074-1.785.626-.39 1.255-.772 1.91-1.12.466-.25.95-.464 1.417-.712 1.62-.865 6.133-3.318 3.666-5.468" fill="#F1D5C3"/><path d="M287.439 192.156c.426.403 1.045 1.644.719 2.102-.908 1.27-2.844 1.812-4.2 2.444-1.774.827-3.337 1.837-4.966 2.852-.736.456-2.792 2.107-3.435 1.319-1.27-1.557 2.008-5.25 2.487-5.696" fill="#F1D5C3"/><path d="M280.48 198.627c1.108-.91 3.634-2.13 4.616-2.524.893-.38 1.96-1.026 2.617-1.734.09-.11.214-.22.25-.36.045-.38-.16-.749-.356-1.07-.096-.162-.233-.299-.354-.442-.099-.16.018-.373.213-.394.21-.02.328.178.445.31.205.262.375.552.494.858.104.279.177.587.104.88-.048.208-.204.373-.341.536-1.184 1.29-3.005 1.75-4.573 2.488-.622.292-.913.368-2.51 1.186-.365.187-.583.272-.605.266" fill="#E5B79E"/><path d="M287.644 187.838c.276.315.526.792.745 1.547.242.829-.047 1.893-.696 2.653-.58.678-2.365.804-3.27 1.014-2.14.496-4.403 1.233-6.268 2.202-.467.241-2.373 1.836-3.277.302-.722-1.22 2.132-3.922 3.303-4.45" fill="#F1D5C3"/><path d="M277.7 195.538c.383-.173.857-.468 1.147-.644.707-.325.943-.435 1.69-.73 1.473-.568 2.557-1.098 4.107-1.433.83-.163 1.71-.235 2.474-.601.317-.146.51-.436.677-.717.284-.499.442-1.075.384-1.641-.067-.466-.248-.92-.464-1.343-.115-.272-.65-.675-.127-.854.201-.041.321.136.417.27.182.25.32.53.435.813.368.814.43 1.734.07 2.56l-.039.092c-.172.379-.393.755-.71 1.044-.456.372-1.062.52-1.637.65-1.157.204-2.318.431-3.44.775-1.797.543-4.643 1.665-4.955 1.755l-.03.004" fill="#E5B79E"/><path d="M280.772 183.283c-.048.113.2-.083.292-.058.78.214.67.079 1.468.163 1.47.159 3.568.137 4.953.63.925.33 1.617 1.776 1.298 2.666-.305.85-1.943 1.61-2.783 1.833-2.736.727-5.616 1.806-8.285 2.74-.952.333-3.147 1.097-3.44.872-2.655-2.039 3.469-5.085 5.797-5.625.653-.152 2.174-.69 2.4-1.324" fill="#F1D5C3"/><path d="M280.044 186.152c.022-.008 1.361-.334 1.604-.41.344-.107.57-.152.844-.466.157-.164.4-.468.415-.249-.07.179-.235.338-.493.62-.258.281-2.203.7-2.32.76-.017-.117-.038-.165-.05-.255" fill="#E5B79E"/><path d="M280.044 186.152c.022-.008 1.361-.334 1.604-.41.344-.107.57-.152.844-.466.157-.164.4-.468.415-.249-.07.179-.235.338-.493.62-.258.281-2.203.7-2.32.76-.017-.117-.038-.165-.05-.255z" stroke="#E5B79E" stroke-width=".5"/><path d="M219.559 189.145c-.023-.008-1.362-.333-1.604-.41-.345-.106-.571-.153-.843-.466-.159-.164-.402-.468-.416-.248.068.178.235.337.492.619.259.281 2.204.7 2.32.76.017-.116.039-.164.05-.255" fill="#E5B79E"/><path d="M219.559 189.145c-.023-.008-1.362-.333-1.604-.41-.345-.106-.571-.153-.843-.466-.159-.164-.402-.468-.416-.248.068.178.235.337.492.619.259.281 2.204.7 2.32.76.017-.116.039-.164.05-.255z" stroke="#E5B79E" stroke-width=".5"/><path d="M288.538 185.797c.01.06.038.329.04.39.027.428-.25.792-.59 1.051-.447.354-.968.623-1.504.836-3.295.944-8.315 2.857-8.328 3.03 1.441-.209 5.826-1.748 8.442-2.5.995-.416 2.29-.993 2.52-2.096.04-.29.028-.64-.038-.93-.199.084-.356.11-.542.219" fill="#E5B79E"/><path d="M130.396 346.58c.867 2.795 1.211 5.715.887 8.63-.39 3.417-.735 8.654-.49 15.608 1.271 11.38 24.844 5.816 25.605 5.71v.1c.748-.1 15.82 1.164 15.371-10.171-.232-5.91-.788-10.31-1.278-13.192-.416-2.467-.337-4.985.132-7.408.563-2.889.543-6.754-3.244-7.88-4.487-1.335-3.713.353-6.956 4.651-2.582 3.424-14.339 3.632-17.51.07-4.196-4.715-3.408-6.54-8.922-5.237-4.985 1.183-4.648 5.74-3.595 9.12" fill="#E0B094"/><path d="M157.57 366.502l2.832 5.954c.065.198-.054.444-.233.475l-4.394.753c-.28.048-.477-.21-.37-.492l1.586-6.783c.107-.284.477-.219.58.093" fill="#DF715C"/><path d="M144.313 355.283c.99-.002 1.799 1.67 1.806 3.731.008 2.063-.789 3.74-1.778 3.743-.99.003-1.798-1.67-1.806-3.732-.007-2.063.789-3.739 1.778-3.742" fill="#383838"/><path d="M147.998 362.608s-1.404 2.635-4.213 2.77" stroke="#383838" stroke-width=".99" stroke-linecap="round"/><path d="M164.288 354.979c-.996-.003-1.81 1.632-1.818 3.65-.007 2.016.794 3.658 1.79 3.66.996.004 1.81-1.632 1.817-3.65.008-2.018-.794-3.658-1.79-3.66" fill="#383838"/><path d="M161.361 362.17s1.374 2.577 4.122 2.71" stroke="#383838" stroke-width=".99" stroke-linecap="round"/><path d="M133.988 337.46c5.517-1.303 4.727.525 8.925 5.24 3.171 3.562 14.927 3.353 17.51-.074 3.243-4.296 2.471-5.984 6.954-4.652 3.789 1.13 3.807 4.997 3.248 7.882-.47 2.421-.552 4.94-.137 7.407.493 2.885 1.052 7.282 1.284 13.194.444 11.336-14.626 9.976-15.374 10.077v-.005c-.76.107-24.334 5.668-25.604-5.708-.243-6.956.1-12.195.486-15.61.327-2.914-.017-5.838-.884-8.633-1.05-3.376-1.39-7.932 3.592-9.117m-23.478 29.346c4.982 5.295 8.67 6.216 10.254 6.334a8.727 8.727 0 01-2.196 1.79c-.724 7.38 3.504 13.042 10.54 18.755 11.335 9.18 39.908 3.878 46.22-7 3.052-5.269-.856-21.296-.992-24.644-.154-3.913 2.577-5.425 4.834-6.831.772-.48 2.903-2.32 2.91-7.407.005-1.553.07-5.533-1.705-7.08-4.715-4.122 4.353-10.767-3.622-19.128-8.55-8.965-11.198-5.312-13.016-5.781-1.989-.52-.178-6.357-12.861-7.734h-.006c-14.126-2.203-11.383 4.804-13.782 4.877-2.244.063-7.316-6.233-17.648 3.59-5.397 5.133-7.036 10.011-7.155 14.019-2.09 2.214-4.126 5.826-5.872 11.483-4.798 15.515-2.649 17.587 4.097 24.757" fill="#383838"/><path d="M151.226 382.795c3.353 3.366 11.51 2.012 11.297-1.298" stroke="#DF715C" stroke-width="1.2"/><path d="M123.245 367.552c0 4.142-2.412 7.498-5.387 7.498-2.976 0-5.387-3.356-5.387-7.498 0-4.14 2.411-7.498 5.387-7.498 2.975 0 5.387 3.357 5.387 7.498" fill="#E0B094"/><path d="M144.008 403.084c-8.832-2.264-34.267-6.983-35.864 21.648-3.8 68.107 9.526 96.677 9.799 97.644.54 1.915 73.766-6.69 75.786-7.99-5.688-18.164-12.291-98.656-15.74-101.438-3.386-2.73-19.09-9.334-19.09-9.334s4.7 2.48-1.03 2.48c-5.731 0-13.861-3.01-13.861-3.01" fill="#FF3434"/><path d="M168.082 573.475c-1.542-3.566-3.098-6.878-4.715-9.013l2.52-31.205 2.195 40.218z" fill="#666"/><path d="M215.453 381.87v.012c-.048-.086-.087-.173-.137-.258.05.086.093.166.137.246" fill="#E0B094"/><path d="M176.669 399.016c-.764.214-10.994 8.752-10.994 8.752s-2.623 4.617 0 4.745c2.573.125 6.818 1.508 10.49.007 4.881-1.997 16.317-12.072 14.503-12.072s-14-1.432-14-1.432m147.652-.979c.673.188 9.666 7.696 9.666 7.696s2.306 4.057 0 4.17c-2.262.11-5.994 1.327-9.222.006-4.292-1.755-14.345-10.612-12.75-10.612 1.594 0 12.307-1.26 12.307-1.26" fill="#E26666"/><path d="M176.751 395.392c.834 1.552 3.627 3.768 4.467 5.317.899 1.658.249 5.932.263 8.038.015 2.41.336 4.192.736 6.03.321 1.482 3.73 1.575 3.396 2.82-.392 1.463 2.268 3.63 2.906 4.782 1.583-1.212 2.86-3.36 3.542-5.307 1.076-3.07 1.075-5.685 1.881-8.846 1.163-4.56 1.397-9.05 2.139-13.707.498-3.128 4.378-11.556 1.948-12.895-1.16-.137-3.437 1.692-4.3 5.999-.46 2.294-1.272 3.657-3.45 4.717-4.762 2.319-10.265 2.387-11.678-2.652-.321-1.149-3.87 1.947-1.85 5.704" fill="#E0B094"/><path d="M104.431 439.053c.623.196 49.778 10.648 83.006 2.591m-82.085 11.227c.623.196 48.857 8.789 82.085.733m-82.2 11.934c.655.196 45.321 8.503 80.267.447m-82.109 10.031c.655.197 52.325 9.126 87.27 1.07" stroke="#FFF" stroke-width="2.4"/><path d="M111.644 434.402s2.517 53.212 47.512 53.212c42.819-1.456 36.072-79.933 36.533-79.848l-15.505-3.488c-.833 5.692 5.746 59.574-22.196 59.704-28.404-.62-22.244-41.602-22.244-41.602" fill="#FF3434"/><path d="M193.598 441.94c-.449.605-3.152 45.702-35.818 45.702-32.532 0-46.574-36.67-45.769-51.905" stroke="#883434" stroke-width=".8"/><path d="M135.745 422.38s-4.89 43.179 20.617 43.179c24.494 0 22.017-32.02 23.504-40.712" stroke="#883434" stroke-width=".8"/><path d="M102.371 749.047s-2.936 9.627-2.273 9.426c.661-.2 41.967 0 41.967 0s.971-1.61-1.306-2.57l-22.556-9.517-15.832 2.661z" fill="#69BAC9"/><path d="M301.412 385.64c-.617 2.996.626 4.783 2.03 8.813.58 1.665 1.333 5.714 1.918 7.376.627 1.778.25 4.396-.069 6.479-.363 2.38-.326 4.192-.221 6.07.085 1.514 3.436 2.144 2.91 3.32-.617 1.383 1.669 3.941 2.117 5.18 1.755-.948 3.353-2.868 4.334-4.685 1.545-2.862.993-5.595 2.287-8.59 1.866-4.32 3.335-8.811 4.801-13.293.984-3.012 1.982-6.105 1.904-9.27-.388-.282-.798-.62-1.156-.306-.633.552-1.883 1.605-2.112 2.052-1.128 2.212-2.407 5.213-4.724 5.917-5.068 1.54-5.77.53-8.02-4.405-.494-1.086-3.152-9.318-4.336-10.01-2.262-1.325-1.35 3.84-1.663 5.351" fill="#F4D9CE"/><path d="M387.216 434.402s-2.517 53.212-47.513 53.212c-43.116-1.356-36.21-79.886-36.532-79.848l15.506-3.488c.833 5.692-5.746 59.574 22.195 59.704 28.404-.62 22.243-41.602 22.243-41.602" fill="#E58585"/><path d="M304.211 437.788c.468.581 4.203 49.854 36.869 49.854 32.533 0 46.574-36.671 45.77-51.905" stroke="#883434" stroke-width=".8"/><path d="M320.78 443.623s1.566 22.739 22.067 22.623c17.805-.1 20.268-43.866 20.268-43.866" stroke="#883434" stroke-width=".8"/><path d="M347.85 344.835l24.746 1.839s-.137 35.881-.069 38.924c.204.416-8.294 9.12-26.604 7.208-14.733-3.557-19.004-7.935-18.832-8.212.172-.279-.376-41.328-.376-41.328l21.136 1.57z" fill="#F4D9CE"/><path d="M338.034 359.268c-.085 2.146-.947 3.775-1.918 3.64-.965-.135-1.674-1.961-1.59-4.08.085-2.12.931-3.752 1.897-3.644.973.108 1.697 1.936 1.611 4.084m23.113 2.052c-.094 2.324-1.1 4.077-2.237 3.919-1.129-.157-1.963-2.142-1.87-4.434.093-2.292 1.079-4.049 2.21-3.923 1.139.127 1.991 2.115 1.897 4.438" fill="#383838"/><path d="M339.027 381.63c.169 1.996 15.393 3.293 15.217 1.191" fill="#E58585"/><path d="M339.027 381.63c.169 1.996 15.393 3.293 15.217 1.191" stroke="#E58585" stroke-width=".8" stroke-linecap="round" stroke-linejoin="round"/><path d="M346.416 368.71c.238-.672.763-.59.946.148l.659 2.67.662 2.685c.185.748-.116 1.587-.541 1.51l-1.522-.275-1.505-.272c-.415-.075-.638-.995-.403-1.658l.85-2.398.854-2.41z" fill="#E58585"/><path d="M346.416 368.71c.238-.672.763-.59.946.148l.659 2.67.662 2.685c.185.748-.116 1.587-.541 1.51l-1.522-.275-1.505-.272c-.415-.075-.638-.995-.403-1.658l.85-2.398.854-2.41z" stroke="#E58585" stroke-width=".8" stroke-linecap="round" stroke-linejoin="round"/><path d="M316.802 325.41s-5.719 16.694 9.463 17.822l43.28 3.215-.724 17.7 14.88 1.746v-30.772c.261-6.362-3.04-11.662-7.427-15.892-4.221-4.07-17.065-7.952-27.092-7.552-17.7.708-23.256 10.076-24.364 12.363-.327.673-.724 1.301-1.227 1.794-1.23 1.207-3.554 2.423-6.789-.425" fill="#2B5165"/><path fill="#2B5165" d="M323.767 335.034l4.755.21-.927 23.485-4.735-.623z"/><path d="M329.076 361.569c-.127 3.223-.266 8.13-2.396 7.782-2.095-.343-5.288-5.657-5.166-8.79.124-3.133 1.88-5.489 3.954-5.258 2.106.235 3.735 3.042 3.608 6.266m40.242 3.219c-.152 3.728-.456 9.384 2.44 9.857 2.952.483 8.176-4.564 8.336-8.42.159-3.858-2.19-7.263-5.197-7.598-2.95-.33-5.426 2.433-5.579 6.161" fill="#F4D9CE"/><path fill="#883434" d="M178.594 440.26l-2.297-21.828 3.967 6.772zm143.821 9.615c.564-1.086 4.256-24.92 3.473-24.487-.782.433-4.639 14.561-5.561 16.774-.518 1.243 2.088 7.713 2.088 7.713"/><path d="M341.32 526.91c28.997 5.72 38.4 2.12 38.4 2.12l2.72-10.404s-9.878 2.617-38.874-3.103l-.91-.18c-28.997-5.72-35.72-12.41-35.72-12.41l-2.47 11.195s6.948 6.882 35.944 12.602l.91.18z" fill="#2B5165"/><path d="M336.947 527.364l-7.826-1.544a.644.644 0 01-.507-.757l2.572-13.038a.645.645 0 01.757-.508l7.826 1.544c.348.07.576.408.507.757l-2.572 13.038a.644.644 0 01-.757.508" fill="#C7C7C7"/><path d="M221.471 180.266c-.753-12.05 2.207-48.896 2.207-48.896s-20.332 14.828-19.765 10.443c.69-5.334-6.51-18.177-10.871-21.383-2.288-1.683 42.016-31.539 47.766-27.078.76.59 4.15 3.547 8.622 3.547 4.472 0 5.992-1.338 8.795-3.604 5.661-4.573 50.218 25.07 47.941 26.766-4.338 3.235-11.66 17.117-10.642 22.397.128.66-19.92-11.258-19.92-11.258s3.712 37.21 3.037 49.266c-.179 3.19-56.97 2.988-57.17-.2m142.896 222.577l-4.02 9.318-9.042 10.467.378-11.449.05-1.604-6.029 2.018-.431-2.7.402-.354 7.86-3.174c.352-.078.681-.199.992-.35a4.367 4.367 0 001.928-1.811l.67-1.191.442-.79 1.684-3 5.116 4.62z" fill="#69BAC9"/><path d="M334.615 403.575l1.556 15.914 2.835-9.637.4-1.35 6.298 3.09.505-2.643-1.13-.866s-4.626-2.74-4.732-3.05c-.091-.264-.322-4.59-.322-4.59l-1.613 1.149-3.797 1.983z" fill="#69BAC9"/><path stroke="#92E0EA" stroke-width=".8" d="M351.734 409.575l3.875-5.297m-16.203 4.224l-1.44-6.66"/><path d="M217.281 135.81c.187-.18 7.022-14.18 7.022-14.18l-.642 9.751s-6.566 4.609-6.38 4.429m64.364-1.046c-.187-.18-6.678-13.33-6.678-13.33l.637 9.766s6.227 3.744 6.04 3.564" fill="#2B5165"/><path d="M325.526 410.582c.28.145 4.025.893 9.579-.802m-170.397 2.696c.28.145 8.624 1.933 12.824-.441" stroke="#883434" stroke-width=".8"/></g></svg>