<?xml version="1.0" encoding="UTF-8"?>
<!-- by Tanja Rohlfs (https://consento.org/team/tanja) - license: CC-BY-NC-SA (see: https://creativecommons.org/licenses/by-nc-sa/4.0/) -->
<svg width="250" height="600" xmlns="http://www.w3.org/2000/svg"><g fill="none" fill-rule="evenodd"><path fill="#FFF" d="M0 0h250v600H0z"/><path d="M115.53 538.6c.253.66.048 12.687.048 12.687s-35.436 1.003-41.398.122c-2.714-.402 2.899-5.02 5.622-5.408 15.63-2.24 17.405-5.528 22.01-7.833 10.585-5.3 13.467-.228 13.719.433m29.215-.993c-.25.661.045 12.686.045 12.686s35.441.796 41.398-.12c2.71-.416-2.936-5-5.664-5.376-15.643-2.147-17.443-5.423-22.064-7.703-10.623-5.239-13.467-.148-13.715.513" fill="#69BAC9"/><path d="M170.52 259.568l1.83 5.482.488 5.618 3.896-1.009-.902-2.922c.198.144.604.135.712-.072.108-.235-.054-.757-.062-1.01l-.046-.298c-.027-1.217-1.01-2.1-1.65-3.101-.38-.668-.469-1.434-.506-2.173-.044-1.164.127-2.337.442-3.472.245-.721.866-1.371.866-2.138-.127-.478-.74-.667-1.226-.649-1.615.036-3.193 1.037-3.67 2.425-.062.272-.18.623-.135.93v.081l-.036 2.308zm-85 0l-1.83 5.482-.487 5.618-3.895-1.009.902-2.922c-.198.144-.627.344-.735.136-.11-.234-.944-1.85 1.78-4.617.38-.668.47-1.434.505-2.173.046-1.164-.125-2.337-.442-3.472-.243-.721-.864-1.371-.864-2.138.126-.478.738-.667 1.225-.649 1.614.036 3.192 1.037 3.67 2.425.063.272.18.623.136.93v.081l.036 2.308z" fill="#E0B094"/><path d="M128.566 309.516c0 .009-.008.009-.008.009v.019c.018-.02.044-.037.063-.055l-.055.027m-45.408-3.481l-.081 1.426c.015-.48.045-.95.081-1.426" fill="#C7C7C7"/><path d="M130.532 309.543c-.895-.668-1.962-.352-2.462.595.096-.35.195-.75.569-.892 0-.01.008-.018.008-.028.615-.286 1.407-.197 1.885.325m.316.802a2.438 2.438 0 01-.315-.802c.125.234.234.515.315.802" fill="#C7C7C7"/><path d="M174.245 271.985c-1.37-4.77-1.001-18.855-4.5-21.218l-81.185.27c-1.606.18-1.507 1.822-1.832 2.932-12.055 93.05-14.263 195.4 13.895 284.816l13.76.18c-2.966-72.59-4.661-150.763 15.03-223.336 18.71 72.673 21.803 148.121 15.266 222.354-.108 1.992 14.139.099 15.085.585 27.158-84.007 21.604-179.087 14.48-266.583" fill="#C7C7C7"/><path d="M116.06 147.615c.136 0 25.062-.077 25.438 0 .376.077-2.737 3.513-2.737 3.513s-13.792 1.342-13.98 1.265c-.188-.077-9.043-4.21-9.043-4.21l.323-.568z" fill="#883434"/><path fill="#E0B094" d="M128.567 145.939l-8.537-.823-.256 8.632 8.84.902.257-.002 8.834-.96-.312-8.628-8.53.877z"/><path d="M85.818 275.899c-.18 1.542-.36 3.093-.532 4.635.024-.139.493-4.496.532-4.635m.686-5.501a201.59 201.59 0 01-.631 5.077c.194-1.695.409-3.39.63-5.077m86.832 9.766c-.906-6.679-1.916-13.37-3.202-19.973 1.326 6.61 2.374 13.285 3.202 19.973m1 8.972a300.39 300.39 0 00-.757-6.952c.289 2.317.531 4.635.757 6.952" fill="#C7C7C7"/><path d="M174.65 283.555l1.741-15.817c8.612-1.524 18.754-14.986 18.628-42.833-.08-18.432-14.948-30.768-27.257-34.537-.01.163-.018.334-.018.496-.055 2.516 5.59 63.781 6.194 78.335.183 4.394-90.645 4.923-90.915.532-1.029-16.583 4.175-67.154 4.121-68.37.288-3.843.306-7.467.161-11.002-12.731 2.03-31.287 17.692-32.595 34.123-2.208 27.764 10.018 41.309 18.629 42.842l1.74 15.816c-43.271-13.011-45.868-47.396-41.622-70.58 4.989-27.196 40.938-51.103 45.383-54.066a8.8 8.8 0 011.017-.59c13.242-6.463 33.976-12 37.05-9.522 3.842 3.093 11.885 3.608 11.885 3.608s8.033-.569 11.857-3.688c3.083-2.507 19.818 4.021 32.541 12.11 12.767 6.691 38.177 25.827 43.081 52.564 4.247 23.184 1.651 57.567-41.62 70.579" fill="#FF3434"/><path d="M104.64 283.808s-5.864 12.684-12.683 16.64l12.683-16.64zm47.444 0s5.864 12.684 12.682 16.64l-12.682-16.64z" fill="#666"/><path d="M83.028 269.778l.572 3.126c3.839 2.506 86.774 2.425 90.18-.508.14-.12.128-3.087.128-3.087s-61.05 1.899-62.278 1.996c-1.227.098-28.602-1.527-28.602-1.527" fill="#883434"/><path d="M83.634 286.432c1.376 1.225 2.661 3.062 3.124 4.694.126.446-.06 2.363-1.033 1.932-1.06-.47-1.802-1.71-2.83-2.319a45.146 45.146 0 00-2.602-1.457c-.637-.323-1.298-.601-1.933-.925-2.209-1.122-8.362-4.31-4.998-7.104l10.272 5.179z" fill="#E0B094"/><path d="M74.19 278.06c-.581.524-1.427 2.135-.98 2.73 1.237 1.651 3.877 2.353 5.726 3.176 2.418 1.075 4.548 2.387 6.77 3.705 1.004.595 3.806 2.74 4.682 1.715 1.731-2.023-2.737-6.822-3.388-7.4l-12.81-3.927z" fill="#E0B094"/><path d="M83.677 286.468c-1.51-1.182-4.955-2.768-6.292-3.28-1.219-.494-2.673-1.334-3.568-2.253-.124-.145-.293-.286-.343-.466-.06-.496.218-.975.486-1.392.132-.21.318-.388.483-.574.135-.208-.024-.485-.29-.513-.286-.026-.448.232-.607.403a4.39 4.39 0 00-.674 1.115c-.141.362-.24.763-.141 1.143.066.27.278.485.465.697 1.614 1.677 4.096 2.275 6.235 3.233.848.38 1.243.48 3.421 1.54.499.245.795.355.825.347" fill="#CC957D"/><path d="M73.91 272.448c-.374.41-.717 1.03-1.016 2.01-.33 1.076.065 2.462.95 3.446.79.883 3.222 1.047 4.457 1.32 2.92.644 6.002 1.6 8.547 2.86.636.314 3.234 2.386 4.468.393.982-1.586-2.907-5.096-4.505-5.783l-12.9-4.246z" fill="#E0B094"/><path d="M87.468 282.454c-.522-.226-1.17-.61-1.566-.836-.962-.424-1.283-.566-2.303-.95-2.007-.738-3.485-1.427-5.6-1.86-1.13-.214-2.33-.307-3.371-.784-.433-.189-.697-.566-.923-.93-.387-.648-.603-1.396-.524-2.132.09-.606.337-1.197.632-1.745.157-.354.886-.877.173-1.11-.274-.055-.436.176-.569.351a4.873 4.873 0 00-.592 1.056c-.502 1.058-.588 2.253-.096 3.327l.052.119c.236.493.537.982.97 1.356.62.483 1.447.676 2.23.844 1.578.266 3.162.56 4.69 1.008 2.451.705 6.331 2.164 6.757 2.28.033.006.037.006.04.006" fill="#CC957D"/><path d="M173.589 192.737c-.018-.086-7.138-16.209-7.138-16.209s1.279 14.32 1.291 14.35c.595.061 4.416 1.212 5.847 1.86m-92.577-.541c.018-.086 7.138-16.208 7.138-16.208s-.655 14.268-.771 14.269c-.595.062-4.935 1.293-6.367 1.939" fill="#883434"/><path d="M82.668 267.24c.065.146.157-.813.032-.78-1.063.277-.733.096-1.82.207-2.003.205-4.865.178-6.754.818-1.26.427-2.204 2.308-1.768 3.463.415 1.106 2.649 2.093 3.794 2.384 3.73.943 7.656 2.345 11.295 3.558 1.299.434 4.29 1.427 4.689 1.134 3.621-2.65-4.698-6.774-7.873-7.476-.891-.196-2.994-.73-3.302-1.554l1.707-1.754z" fill="#E0B094"/><path d="M82.293 269.894c-.514-.062-.779-.2-1.15-.607-.215-.212-.546-.608-.567-.323-.002.225.17.426.319.595.99.93.915.537 1.598.628.194.026.47.028.639.084.023-.15-.496-.336-.839-.377m-6.801 2.861c-.73-.277-1.441-.625-2.051-1.085-.463-.338-.842-.81-.806-1.368.033-.874.365-1.996 1.143-2.538.406-.27.387-.301.967-.46-.184-.057-.47-.045-1.07.217-1.218.708-1.956 1.914-1.775 3.199.314 1.433 2.079 2.182 3.435 2.725 3.568.976 9.545 2.976 11.51 3.247-.018-.223-6.861-2.71-11.353-3.937" fill="#CC957D"/><path d="M172.408 286.432c-1.377 1.225-2.662 3.062-3.124 4.694-.127.446.06 2.363 1.032 1.932 1.06-.47 1.803-1.71 2.829-2.319a45.65 45.65 0 012.603-1.457c.637-.323 1.299-.601 1.934-.925 2.208-1.122 8.36-4.31 4.997-7.104l-10.271 5.179z" fill="#E0B094"/><path d="M181.852 278.06c.58.524 1.425 2.135.98 2.73-1.238 1.651-3.877 2.353-5.727 3.176-2.418 1.075-4.548 2.387-6.769 3.705-1.005.595-3.807 2.74-4.684 1.715-1.73-2.023 2.739-6.822 3.39-7.4l12.81-3.927z" fill="#E0B094"/><path d="M172.364 286.468c1.51-1.182 4.955-2.768 6.294-3.28 1.218-.494 2.672-1.334 3.566-2.253.124-.145.293-.286.343-.466.06-.496-.218-.975-.486-1.392-.132-.21-.317-.388-.484-.574-.135-.208.025-.485.292-.513.285-.026.448.232.606.403.28.341.512.717.673 1.115.142.362.241.763.144 1.143-.068.27-.278.485-.466.697-1.615 1.677-4.096 2.275-6.236 3.233-.847.38-1.243.48-3.42 1.54-.499.245-.796.355-.826.347" fill="#CC957D"/><path d="M182.131 272.448c.375.41.718 1.03 1.016 2.01.33 1.076-.064 2.462-.95 3.446-.79.883-3.222 1.047-4.457 1.32-2.919.644-6.003 1.6-8.546 2.86-.637.314-3.235 2.386-4.469.393-.981-1.586 2.907-5.096 4.504-5.783l12.902-4.246z" fill="#E0B094"/><path d="M168.573 282.454c.522-.226 1.17-.61 1.566-.836a35.422 35.422 0 012.303-.95c2.008-.738 3.485-1.427 5.599-1.86 1.132-.214 2.331-.307 3.373-.784.431-.189.696-.566.923-.93.387-.648.603-1.396.523-2.132-.09-.606-.337-1.197-.632-1.745-.157-.354-.885-.877-.172-1.11.273-.055.437.176.567.351.248.326.438.689.594 1.056.501 1.058.588 2.253.096 3.327l-.053.119c-.236.493-.537.982-.97 1.356-.62.483-1.447.676-2.23.844-1.578.266-3.162.56-4.69 1.008-2.451.705-6.331 2.164-6.756 2.28l-.04.006" fill="#CC957D"/><path d="M174.292 267.26c-.065.147-.157-.812-.032-.779 1.063.277-.186.075.902.186 2.002.206 4.865.178 6.753.818 1.26.427 2.204 2.307 1.769 3.464-.416 1.104-2.65 2.093-3.795 2.383-3.73.944-7.657 2.345-11.295 3.559-1.298.433-4.289 1.426-4.69 1.133-3.62-2.65 4.7-6.775 7.874-7.476.89-.196 2.994-.73 3.302-1.553l-.788-1.734z" fill="#E0B094"/><path d="M180.55 272.755c.73-.277 1.44-.625 2.05-1.085.464-.338.842-.81.806-1.368-.033-.874-.364-1.996-1.142-2.538-.407-.27-.389-.301-.967-.46.183-.057.47-.045 1.07.217 1.217.708 1.954 1.914 1.775 3.199-.314 1.433-2.08 2.182-3.437 2.725-3.566.976-9.545 2.976-11.51 3.247.02-.223 6.863-2.71 11.354-3.937" fill="#CC957D"/><path d="M85.707 194.564c.693.219 47.333 9.395 84.277.436m-84.277 12.862c.693.22 47.333 9.394 84.277.437m-86.841 13.348c.729.219 49.78 9.394 88.632.436m-88.747 11.879c.729.22 51.692 9.404 90.545.446" stroke="#FFF" stroke-width="3"/><path fill="#AA5D48" d="M120.1 143.148l-.118 3.594 17.398-.45-.011-3.156z"/><path d="M97.407 106.878c0 4.283-2.648 7.754-5.914 7.754-3.266 0-5.914-3.471-5.914-7.754 0-4.282 2.648-7.754 5.914-7.754 3.266 0 5.914 3.472 5.914 7.754m62.041 0c0 4.283 2.648 7.754 5.914 7.754 3.266 0 5.914-3.471 5.914-7.754 0-4.282-2.648-7.754-5.914-7.754-3.266 0-5.914 3.472-5.914 7.754" fill="#E0B094"/><path d="M128.42 51.012c15.516-.33 12.89 6.079 15.421 6.395 2.331.29 6.035-3.949 17.407 4.904 11.361 8.846 3.901 21.269 5.256 21.358 1.356.091 4.516 2.758 4.516 10.618s-9.125 12.377-9.125 12.377 6.867 18.43-3.793 28.91c-10.659 10.48-29.54 9.215-29.54 9.215h-.27s-18.88 1.265-29.539-9.215c-10.66-10.48-3.794-28.91-3.794-28.91s-9.124-4.516-9.124-12.377c0-7.86 2.75-10.301 4.105-10.39 1.355-.092-5.695-12.74 5.667-21.586 11.372-8.853 15.077-4.613 17.407-4.904 2.531-.316-.095-6.725 15.422-6.395h-.017z" fill="#383838"/><path d="M128.419 119.143c.515-.063 23.606 4.068 23.606-8.124 0-6.311-.515-11.046-1.012-14.145-.426-2.648-.185-5.332.577-7.913.913-3.093 1.094-7.256-3.904-8.405-5.74-1.322-4.841.43-9.128 4.902-3.322 3.467-16.939 3.467-20.263 0-4.285-4.471-3.387-6.224-9.126-4.902-4.998 1.15-4.818 5.312-3.903 8.405.761 2.58 1.002 5.265.576 7.913-.497 3.1-1.012 7.834-1.012 14.145 0 12.192 23.092 8.06 23.607 8.124h-.018z" fill="#E0B094"/><path d="M127.705 110.27l-1.647 4.978a.767.767 0 00.728 1.01h3.295a.767.767 0 00.729-1.01l-1.647-4.978c-.233-.702-1.226-.702-1.458 0" fill="#DF715C"/><path d="M114.602 103.47c0 2.474-1.181 4.48-2.64 4.48-1.457 0-2.637-2.006-2.637-4.48 0-2.475 1.18-4.48 2.638-4.48s2.64 2.005 2.64 4.48" fill="#383838"/><path d="M118.172 106.258s.632 2.277-2.277 3.86" stroke="#383838" stroke-linecap="round"/><path d="M142.253 103.47c0 2.474 1.181 4.48 2.64 4.48 1.457 0 2.639-2.006 2.639-4.48 0-2.475-1.182-4.48-2.64-4.48-1.458 0-2.64 2.005-2.64 4.48" fill="#383838"/><path d="M138.683 106.258s-.633 2.277 2.277 3.86" stroke="#383838" stroke-linecap="round"/><path d="M133.829 127.873c0 2.287-10.781 2.287-10.781 0" stroke="#DF715C"/></g></svg>