<?xml version="1.0" encoding="UTF-8"?>
<!-- by Tanja Rohlfs (https://consento.org/team/tanja) - license: CC-BY-NC-SA (see: https://creativecommons.org/licenses/by-nc-sa/4.0/) -->
<svg width="500" height="780" xmlns="http://www.w3.org/2000/svg" xmlns:xlink="http://www.w3.org/1999/xlink"><defs><path id="a" d="M.301.236H38.56v28.786H.3z"/></defs><g fill="none" fill-rule="evenodd"><path fill="#FFF" d="M0 0h500v780H0z"/><path stroke="#FF3434" stroke-width="4" stroke-linecap="round" d="M328 357l77 138"/><path d="M298.437 410.24c-.338.286-.806.42-1.277.308-51.023-12.189-70.046 13.137-75.753 54.1-.108.77-.75 1.207-1.402 1.23-.537.02-1.076-.244-1.313-.827-31.309-77.862-21.882-143.783 67.454-186.286-2.152 4.689-46.055 63.564 12.29 131.474" fill="#FFF"/><path d="M298.437 410.24c-.338.286-.806.42-1.277.308-51.023-12.189-70.046 13.137-75.753 54.1-.108.77-.75 1.207-1.402 1.23-.537.02-1.076-.244-1.313-.827-31.309-77.862-21.882-143.783 67.454-186.286-2.152 4.689-46.055 63.564 12.29 131.474z" stroke="#FF3434" stroke-width="3"/><path d="M385.312 366.314c-.38.045-.77-.047-1.085-.311-16.302-13.97-35.267-17.146-55.108-9.66-.909.344-1.83.712-2.74 1.101l.042.08c-19.687 11.452-29.3 29.162-27.483 51.55.034.465-.17.887-.501 1.165-57.148-66.52-16.204-124.364-12.472-131.118.055-.1.153-.283.181-.357.033.011.418.1.45.104 7.684 1.007 78.386 2.319 98.716 87.446" fill="#EDEDED"/><path d="M385.312 366.314c-.38.045-.77-.047-1.085-.311-16.302-13.97-35.267-17.146-55.108-9.66-.909.344-1.83.712-2.74 1.101l.042.08c-19.687 11.452-29.3 29.162-27.483 51.55.034.465-.17.887-.501 1.165-57.148-66.52-16.204-124.364-12.472-131.118.055-.1.153-.283.181-.357.033.011.418.1.45.104 7.684 1.007 78.386 2.319 98.716 87.446z" stroke="#FF3434" stroke-width="3" stroke-linecap="round" stroke-linejoin="round"/><path d="M385.312 366.314c-.38.045-.77-.047-1.085-.311-16.302-13.97-35.267-17.146-55.108-9.66-.909.344-1.83.712-2.74 1.101l.042.08c-19.687 11.452-29.3 29.162-27.483 51.55.034.465-.17.887-.501 1.165-57.148-66.52-16.204-124.364-12.472-131.118.055-.1.153-.283.181-.357.033.011.418.1.45.104 7.684 1.007 78.386 2.319 98.716 87.446z" stroke="#FF3434" stroke-width="3" stroke-linecap="round" stroke-linejoin="round"/><path d="M477.28 336.367c-.419.421-1.086.615-1.721.272-36.686-19.617-68.513-19.329-88.726 28.737-.208.5-.666.81-1.16.872-20.755-86.895-94.41-86.448-99.506-87.502 87.315-46.462 146.491-15.093 191.32 55.957.37.597.206 1.244-.206 1.664" fill="#FFF"/><path d="M477.28 336.367c-.419.421-1.086.615-1.721.272-36.686-19.617-68.513-19.329-88.726 28.737-.208.5-.666.81-1.16.872-20.755-86.895-94.41-86.448-99.506-87.502 87.315-46.462 146.491-15.093 191.32 55.957.37.597.206 1.244-.206 1.664z" stroke="#FF3434" stroke-width="3"/><path d="M359.067 404.248s18.397 52.277 12.198 53.715c-1.157.269-19.909-1.216-19.909-1.216l-10.85-43.82 18.56-8.679z" fill="#D33434"/><path d="M417.351 518.772c-7.218 6.356-13.23 9.476-25.929 7.31-14.691-2.505-8.01-28.984-17.507-37.92-9.499-8.935-19.087-1.787-27.533-2.63-1.842 18.53 21.078 46.699 40.498 52.72 8.982 2.784 15.392.933 31.367-7.893" fill="#F1D5C3"/><path fill="#FFF" d="M377.522 435.713l.004.012-.004-.02z"/><path d="M335.072 438s7.673 2.706 12.703 2.907c3.075.123 4.79.11 13.823-1.986 8.9-2.064 10.829-16.358 10.829-16.358L366.97 396.8l-2.1-7.127-42.382 10.625L335.072 438z" fill="#F1D5C3"/><path d="M360.265 410.81c.402 1.572 1.352 2.701 2.122 2.523.77-.18 1.069-1.598.667-3.17-.402-1.572-1.352-2.702-2.122-2.523-.77.178-1.069 1.597-.667 3.17m-16.098 3.733c.402 1.573 1.353 2.702 2.123 2.524.77-.18 1.068-1.599.666-3.17-.401-1.572-1.351-2.703-2.121-2.523-.77.178-1.069 1.597-.668 3.17" fill="#000"/><path d="M354.706 415.095s4.454 7.395 3.501 8.226c-.952.832-2.347.163-2.347.163l-1.154-8.39z" fill="#FF3434"/><path fill="#F1D5C3" d="M355.375 440.377l4.45 16.13-2.95 1.726-12.987 1.19-3.042-.504-5.454-21.335 19.366.813z"/><path d="M339.54 457.008c-.994.274-2.21.55-3.556.84 1.415-14.092.94-23.066-2.507-34.988 4.404 13.657 9.923 33.093 6.063 34.148" fill="#FF3434"/><path d="M369.447 396.94l-5.076 2.32-4.297-8.775.688 9.73-16.269 4.973-4.8-9.517.81 10.288-11.53 3.628c.031.069.054.145.077.214.39 1.1 2.278 6.392 4.427 13.059 3.448 11.923 3.922 20.897 2.507 34.988-6.758 1.428-16.835 2.948-18.876 3.842-2.454 1.069-11.017 15.359-11.017 15.359s-3.272-6.278-2.194-14.856c.573-4.574 11.598-13.731 3.838-46.84 0-.015-.008-.03-.008-.046a157.57 157.57 0 00-1.712-6.59c-2.898-10.227 7.026-30.536 24.342-34.179 17.31-3.635 33.12-3.085 37.623 8.677 4.51 11.761 1.467 13.724 1.467 13.724" fill="#FF3434"/><path d="M350.75 428.633c1.121-.005 4.944 2.277 12.995-.615" stroke="#DF715C" stroke-linecap="round" stroke-linejoin="round"/><path d="M315.768 467.243c.357-.346.702-.68 1.036-1" fill="#F1D5C3"/><path d="M377.172 505.707l1.873 29.442s-47.04 26.265-45.481 14.328c2.63-20.102-19.045-83.798-19.045-83.798 9.542-6.026 11.629-10.808 25.987-12.618 0 0 18.096 10.51 18.478.405 0 0 .046.016.13.038 1.018.34 4.966 3.464 10.184 11.426a38.975 38.975 0 015.865 14.966c2.262 13.65 2.01 25.81 2.01 25.81" fill="#69BAC9"/><path d="M359.114 453.504a1.914 1.914 0 01-.13-.038c0-.061.046-.038.13.038" fill="#69BAC9"/><path d="M429.953 524.217l-9.693 5.99a.624.624 0 01-.852-.195l-13.658-22.005a.605.605 0 01.194-.84l9.693-5.989a.624.624 0 01.852.195l13.658 22.003a.605.605 0 01-.194.841" fill="#FFF"/><path d="M429.953 524.217l-9.693 5.99a.624.624 0 01-.852-.195l-13.658-22.005a.605.605 0 01.194-.84l9.693-5.989a.624.624 0 01.852.195l13.658 22.003a.605.605 0 01-.194.841z" stroke="#B5B5B5"/><path d="M415.963 498.794c-.542 0-1.071.15-1.532.435l-9.693 5.99a2.88 2.88 0 00-1.303 1.815c-.174.76-.04 1.542.378 2.2l13.647 21.985a2.915 2.915 0 004.006.936l9.693-5.989a2.88 2.88 0 001.303-1.816c.174-.76.04-1.541-.378-2.2l-13.647-21.985a2.91 2.91 0 00-2.474-1.37m0 2.29c.206 0 .408.103.526.288l13.658 22.004a.604.604 0 01-.194.84l-9.693 5.99a.621.621 0 01-.852-.195l-13.658-22.005a.604.604 0 01.194-.84l9.693-5.99a.621.621 0 01.326-.092" fill="#FF3434"/><path d="M416.365 517.547l-.005-.001.005.001m-1.482-.864a3.115 3.115 0 00-.001 0zm1.393.839h-.004.004m3.441-1.252l.001-.003v.002zm.187-.324l-.044.084.044-.084" fill="#5600B7"/><path d="M416.44 517.565l-.075-.018a3.09 3.09 0 001.166.072.476.476 0 00.345-.728l-.144-.227a.487.487 0 00-.446-.226 1.904 1.904 0 01-1.342-.412 1.848 1.848 0 01.099-2.96 1.9 1.9 0 012.678.537 1.846 1.846 0 01.031 1.923.482.482 0 00.006.502l.144.228a.488.488 0 00.815.014 3.101 3.101 0 01-3.277 1.295" fill="#37AFCA"/><path d="M419.86 516.03l-.041.074.041-.074m-.045.08l-.047.08.047-.08" fill="#5600B7"/><path d="M414.113 513.898c.112-.484.336-.923.651-1.29a.475.475 0 00.042-.566l-.135-.213a.49.49 0 00-.777-.061 4.22 4.22 0 00-.916 3.944.49.49 0 00.727.283l.214-.133a.475.475 0 00.21-.525 3.011 3.011 0 01-.016-1.44m3.704-2.287c.488.11.931.332 1.304.643a.49.49 0 00.572.041l.214-.13a.477.477 0 00.06-.77 4.358 4.358 0 00-3.982-.913.477.477 0 00-.285.717l.135.212a.489.489 0 00.533.21 3.108 3.108 0 011.45-.01" fill="#EE3434"/><path d="M419.419 518.197a4.35 4.35 0 01-5.13-.418.477.477 0 01.06-.768l.215-.132a.492.492 0 01.573.043 3.127 3.127 0 003.693.223 3.026 3.026 0 001.141-1.344l.021-.048.02-.05.023-.061.001-.005a1.741 1.741 0 00.05-.146l.017-.058.005-.016a2.88 2.88 0 00.083-.391v-.005l.015-.117.001-.01c.005-.041.008-.082.01-.123 0-.019.002-.037.003-.056l.001-.057c.001-.033.002-.068.001-.101v-.038l-.001-.01-.002-.05-.002-.052v-.003a2.756 2.756 0 00-.057-.423l-.012-.053-.01-.045a.407.407 0 00-.015-.06l-.015-.052-.001-.002a.368.368 0 01.161-.414l.41-.252a.375.375 0 01.553.201 4.222 4.222 0 01-1.812 4.893" fill="#37AFCA"/><path d="M408.17 508.016a.591.591 0 01-.706.459.606.606 0 01-.465-.712.59.59 0 01.705-.459c.323.07.532.389.465.712" fill="#000"/><path stroke="#B5B5B5" stroke-width=".75" d="M417.587 527.098l10.738-6.636"/><path d="M424.774 524.957a.522.522 0 01-.168.726.537.537 0 01-.734-.17.522.522 0 01.168-.724.537.537 0 01.734.168z" stroke="#2B2B2B" stroke-width=".75"/><path d="M417.847 533.021c-1.132 2.153-3.96.436-4.514-.204-1.23-1.44-6.163-6.445-5.367-8.36.75-1.763 2.885-4.043 3.797-5.737.455-1.066.778-3.567 1.982-4.17.552-.273 1.124.434 1.45.856.824 1.072 1.016 1.813 1.124 2.712.134 1.06-.423 2.087-.902 3.05-.212.459-.52.929-.528 1.423a.167.167 0 00.01.078l.002.005c.003.016.02.028.031.043.792.543 3.424 9.339 2.915 10.304m8.17-24.302c-.335 1.081-1.83 2.274-3.194 2.596-.75.093-1.047.236-1.764.384-.864.47-2.358.086-2.853-.696-.485-.841.005-1.608.469-2.214.95-1.175 2.254-2.138 3.859-2.786a.756.756 0 01.356-.05c.104-.034.228-.072.343-.082.584-.106 1.295.161 1.766.559.46.376.809.84 1 1.302.131.34.116.683.018.987" fill="#F1D5C3"/><path d="M427.383 512.038c-.552.692-1.456 1.143-2.146 1.748-.64.586-.906.612-2.026.919-.388.106-1.11.354-1.435.102-.434-.303-.803-.681-.978-1.085-.354-.8.08-1.503.612-2.028.893-.88 2.173-1.461 3.324-2.138.358-.234.701-.49 1.035-.741.223-.166.435-.434.854-.3.922.21 1.647.825 1.65 1.537.018.765-.44 1.4-.89 1.986" fill="#F1D5C3"/><path d="M427.92 516.123c-.483.504-1.044.954-1.63 1.377-.73.494-1.679.858-2.589-.268-.944-1.675 1.072-3.166 1.74-4.138.734-.479 1.222-1.166 1.891-1.697-.343-.466.187-.933.75-.632.388.211.578.602.72.922.127.263.22.527.25.782.147.404.284.768.223 1.142-.12.996-.698 1.803-1.354 2.512" fill="#F1D5C3"/><path d="M429.296 518.15c-.3.596-.788 1.178-1.458 1.339-.638.185-1.333-.278-1.433-.93-.171-.853.107-1.718.43-2.503.222-.577.488-1.15.834-1.663.204-.281.442-.57.783-.686-.073-.472.537-.459.809-.251.33.21.549.563.645.938.187.653.137 1.353-.006 2.01-.123.602-.311 1.205-.604 1.747" fill="#F1D5C3"/><g transform="translate(449.01 736.978)"><mask id="b" fill="#fff"><use xlink:href="#a"/></mask><path d="M.301 19.663s2.78 13.553 13.672 8.04c.755-.38 16.303-13.79 20.807-19.49.552-.698 4.638-4.89 3.616-6.094-3.04-3.57-6.398-1.14-9.392-.193C24.624 3.32.302 17.027.301 19.663" fill="#E26666" mask="url(#b)"/></g><path d="M264.859 707.14s-4.011-13.242-14.352-6.756c-.717.447-14.97 15.225-18.932 21.312-.485.746-4.17 5.294-3.042 6.4 3.354 3.276 6.476.55 9.37-.669 4.234-1.786 27.197-17.662 26.956-20.287" fill="#E26666"/><path d="M456.398 751.065c-2.445 1.862-7.029 5.68-7.158 5.622-27.888-213.754-123.405-118.453-115.794-210.062 8.45-2.482 31.77-12.305 43.118-12.395 2.48-.02 2.596 1.592 3.403 5.725 4.048 15.562 5.452 22.846 18.415 33.93 52.367 43.12 68.406 105.811 63.23 173.725" fill="#2B5165"/><path d="M399.716 621.018c-11.699-10.755-23.732-16.485-34.235-21.634 15.5 5.904 25.932 13.11 34.235 21.634" fill="#2B5165"/><path d="M321.427 678.388c-1.307 1.217-1.34 2.909-5.3 3.824a140.538 140.538 0 005.3-3.824m57.617-106.526c-.12-.024-.309-.077-.413-.103-.104-.025-.156-.03-.234-.055-.078-.024-.124-.03-.197-.054-.072-.025-.176-.02-.244-.056-.068-.035-.32-.03-.334-.09-.123-.52-.174-1.076-.25-1.61.56.655 1.117 1.313 1.672 1.968" fill="#666"/><path d="M377.373 569.892c.065.573.145 1.029.235 1.647.028.188.097 1.13.16 1.196.027.029.13-.946.191-1.142.007-.025.03-.285.071-.347.043-.063-.128-.29.08-.307.208-.017.239.611.292.737.053.126.136.023.23.078.095.055.298.06.412.11-.554-.66-1.113-1.311-1.67-1.972" fill="#666"/><path d="M377.377 569.9c.057.556.143 1.025.231 1.64.028.187.097 1.127.16 1.196.027.031.128-.962.194-1.13.006-.017.238.103.221.014-.017-.088-.06-.167-.177-.418-.117-.251-.45-.972-.629-1.302m1.272 1.863" fill="#666"/><path d="M376.671 570.245c-.003-.007 0 0-.016-.063-.037-.054.135.195.016.063m1.526 1.41c-.752.72-.293 1.633-.824-1.763.558.66 1.116 1.314 1.671 1.97-.076-.01-.194-.054-.651-.158-51.955-19.46 17.985 111.341-117.272 129.094-.054 1.073-.563 5.268 1.362 9.698 68.922 18.401 142.272-69.046 115.714-138.842" fill="#2B5165"/><path d="M196.812 16.22c25.769 0 46.889 20.262 48.23 45.677 21.335.972 38.393 18.616 38.393 40.165 0 22.17-18.056 40.207-40.248 40.207H95.141c-18.05 0-32.733-14.67-32.733-32.7 0-18.031 14.684-32.7 32.733-32.7 2.221 0 4.418.222 6.564.66a30.504 30.504 0 01-.003-.373c0-20.692 16.852-37.526 37.565-37.526 5.04 0 9.96.996 14.53 2.916a48.19 48.19 0 0143.015-26.327" fill="#CBCBCB"/><path d="M187.317 91.133l15.552-2.74 15.552-2.739a17.064 17.064 0 01-13.714 13.153 17.08 17.08 0 01-17.39-7.674m-42.867-5.436l15.552 2.739 15.552 2.74a17.081 17.081 0 01-17.39 7.674 17.066 17.066 0 01-13.714-13.153" fill="#FFF"/><path d="M81.207 101.851c18.741 0 33.989 15.233 33.989 33.956 0 .822-.03 1.642-.093 2.46a24.69 24.69 0 017.816-1.271c13.652 0 24.756 11.094 24.756 24.73 0 13.638-11.104 24.733-24.756 24.733H36.358c-16.196 0-29.373-13.164-29.373-29.344s13.177-29.343 29.373-29.343c3.94 0 7.777.78 11.346 2.286 2.741-15.996 16.721-28.207 33.503-28.207" fill="#CBCBCB"/><path d="M81.207 101.851c18.741 0 33.989 15.233 33.989 33.956 0 .822-.03 1.642-.093 2.46a24.69 24.69 0 017.816-1.271c13.652 0 24.756 11.094 24.756 24.73 0 13.638-11.104 24.733-24.756 24.733H36.358c-16.196 0-29.373-13.164-29.373-29.344s13.177-29.343 29.373-29.343c3.94 0 7.777.78 11.346 2.286 2.741-15.996 16.721-28.207 33.503-28.207z" stroke="#FFF" stroke-width="3.205"/><path d="M282.334 91.325c14.046 0 25.746 10.22 28.04 23.607a24.365 24.365 0 019.497-1.912c13.556 0 24.584 11.017 24.584 24.559 0 13.542-11.028 24.559-24.584 24.559h-72.449c-11.425 0-20.72-9.285-20.72-20.699 0-11.413 9.295-20.7 20.72-20.7 2.239 0 4.446.366 6.541 1.065a27.211 27.211 0 01-.077-2.06c0-15.67 12.762-28.42 28.448-28.42" fill="#CBCBCB"/><path d="M282.334 91.325c14.046 0 25.746 10.22 28.04 23.607a24.365 24.365 0 019.497-1.912c13.556 0 24.584 11.017 24.584 24.559 0 13.542-11.028 24.559-24.584 24.559h-72.449c-11.425 0-20.72-9.285-20.72-20.699 0-11.413 9.295-20.7 20.72-20.7 2.239 0 4.446.366 6.541 1.065a27.211 27.211 0 01-.077-2.06c0-15.67 12.762-28.42 28.448-28.42z" stroke="#FFF" stroke-width="3.205"/><path stroke="#2B5165" stroke-width="3" d="M141.34 196.658l63.795 114.98m-8.629-93.064l18.531 33.399m-93.513-13.737l55.226 99.753m99.284-131.1l18.532 33.4m61.045-44.999l18.531 33.4M208.16 162.138l62.773 113.067m28.734-103.232l37.064 66.8"/><path d="M186.959 302.271c-4.064 0-7.962-.986-11.587-2.932a24.589 24.589 0 01-1.734-1.025l-1.805-1.171.066-2.149c.02-.661.07-1.337.147-2.01 1.426-12.459 12.014-21.854 24.63-21.854 4.063 0 7.96.986 11.585 2.932a24.86 24.86 0 011.735 1.025l1.804 1.171-.065 2.149a24.32 24.32 0 01-.147 2.01c-1.426 12.459-12.015 21.854-24.63 21.854" fill="#FFF"/><path d="M196.675 267.311c-14.558 0-26.78 10.852-28.427 25.24-.09.777-.146 1.56-.17 2.327l-.13 4.295 3.605 2.341a28.42 28.42 0 0015.406 4.576c14.558 0 26.78-10.85 28.427-25.239.09-.778.146-1.56.17-2.328l.13-4.294-3.605-2.342a28.429 28.429 0 00-15.405-4.576m0 7.638c3.273 0 6.616.781 9.776 2.477.503.27.991.559 1.462.864-.018.56-.059 1.125-.124 1.693-1.259 11.003-10.712 18.47-20.83 18.47-3.275 0-6.619-.782-9.778-2.478a20.72 20.72 0 01-1.462-.864c.017-.56.059-1.125.124-1.693 1.259-11.002 10.711-18.47 20.831-18.47" fill="#FFF"/><path d="M196.675 272.657c-11.837 0-21.772 8.814-23.11 20.501a22.83 22.83 0 00-.137 1.883l-.04 1.289 1.082.702c.52.338 1.067.661 1.627.961 3.399 1.826 7.054 2.75 10.862 2.75 11.836 0 21.772-8.812 23.11-20.5a22.8 22.8 0 00.137-1.883l.04-1.288-1.082-.703a22.576 22.576 0 00-1.626-.961c-3.4-1.826-7.054-2.75-10.863-2.75m0 2.29c3.274 0 6.617.782 9.777 2.478.503.27.991.559 1.462.864-.018.56-.059 1.125-.124 1.693-1.259 11.003-10.712 18.47-20.83 18.47-3.275 0-6.619-.782-9.778-2.478a20.72 20.72 0 01-1.462-.864c.017-.56.059-1.125.124-1.693 1.259-11.002 10.711-18.47 20.831-18.47" fill="#37B1CC"/><path d="M196.329 284.27a5.193 5.193 0 00-7.005-2.19 5.181 5.181 0 00-2.193 6.996 5.192 5.192 0 007.003 2.192 5.183 5.183 0 002.195-6.998z" stroke="#37B1CC" stroke-width="3"/><path d="M236.373 236.493c-4.064 0-7.962-.986-11.586-2.932a24.59 24.59 0 01-1.735-1.025l-1.804-1.171.065-2.149c.02-.661.07-1.337.147-2.01 1.426-12.459 12.015-21.854 24.63-21.854 4.063 0 7.961.986 11.586 2.932.595.32 1.179.665 1.734 1.025l1.805 1.171-.066 2.148a24.37 24.37 0 01-.147 2.01c-1.426 12.46-12.014 21.855-24.63 21.855" fill="#FFF"/><path d="M246.09 201.533c-14.56 0-26.78 10.851-28.428 25.24a27.97 27.97 0 00-.17 2.327l-.13 4.294 3.605 2.342a28.42 28.42 0 0015.406 4.576c14.558 0 26.78-10.85 28.428-25.24.088-.776.145-1.559.169-2.327l.131-4.294-3.606-2.342a28.42 28.42 0 00-15.405-4.576m0 7.638c3.273 0 6.617.78 9.776 2.477.503.27.991.558 1.462.864-.017.56-.059 1.125-.124 1.692-1.259 11.004-10.711 18.47-20.83 18.47-3.275 0-6.618-.781-9.778-2.477a20.72 20.72 0 01-1.462-.864c.018-.56.059-1.125.124-1.692 1.259-11.003 10.712-18.47 20.832-18.47" fill="#FFF"/><path d="M246.09 206.88c-11.837 0-21.773 8.813-23.111 20.5a22.83 22.83 0 00-.137 1.883l-.039 1.289 1.081.702c.52.338 1.068.661 1.627.961 3.399 1.826 7.054 2.75 10.862 2.75 11.837 0 21.772-8.812 23.11-20.5a22.8 22.8 0 00.137-1.883l.04-1.288-1.082-.703a22.914 22.914 0 00-1.626-.961c-3.4-1.826-7.054-2.75-10.862-2.75m0 2.29c3.273 0 6.617.782 9.776 2.478.503.27.991.558 1.462.864-.017.56-.059 1.125-.124 1.692-1.259 11.004-10.711 18.47-20.83 18.47-3.275 0-6.618-.781-9.778-2.477a20.72 20.72 0 01-1.462-.864c.018-.56.059-1.125.124-1.692 1.259-11.003 10.712-18.47 20.832-18.47" fill="#37B1CC"/><path d="M245.743 218.492a5.192 5.192 0 00-7.005-2.191 5.181 5.181 0 00-2.194 6.997 5.193 5.193 0 007.005 2.192 5.182 5.182 0 002.194-6.998z" stroke="#37B1CC" stroke-width="3"/><path d="M316.52 227.037c-4.063 0-7.962-.986-11.586-2.932a24.459 24.459 0 01-1.735-1.025l-1.804-1.171.065-2.149c.021-.661.07-1.337.147-2.009 1.426-12.46 12.015-21.855 24.63-21.855 4.063 0 7.961.986 11.586 2.932.595.32 1.179.666 1.735 1.025l1.804 1.171-.066 2.149c-.02.661-.07 1.337-.147 2.01-1.426 12.459-12.014 21.854-24.629 21.854" fill="#FFF"/><path d="M326.237 192.077c-14.559 0-26.78 10.852-28.428 25.24-.089.777-.146 1.56-.17 2.327l-.13 4.295 3.605 2.341a28.426 28.426 0 0015.407 4.576c14.558 0 26.78-10.85 28.426-25.239.09-.777.146-1.56.17-2.328l.13-4.294-3.605-2.342a28.42 28.42 0 00-15.405-4.576m0 7.638c3.274 0 6.617.781 9.777 2.477.503.27.99.559 1.461.864-.017.56-.058 1.125-.123 1.693-1.26 11.003-10.712 18.47-20.832 18.47-3.274 0-6.617-.782-9.777-2.477-.503-.27-.99-.56-1.462-.865.018-.56.06-1.125.124-1.692 1.26-11.003 10.712-18.47 20.831-18.47" fill="#FFF"/><path d="M326.237 197.424c-11.837 0-21.773 8.813-23.111 20.5a22.83 22.83 0 00-.137 1.883l-.039 1.289 1.081.703c.52.336 1.067.66 1.626.96 3.4 1.826 7.055 2.75 10.863 2.75 11.837 0 21.773-8.812 23.11-20.5a22.8 22.8 0 00.137-1.883l.04-1.288-1.082-.703a22.914 22.914 0 00-1.626-.961c-3.4-1.826-7.054-2.75-10.862-2.75m0 2.29c3.274 0 6.617.782 9.777 2.478.503.27.99.559 1.461.864-.017.56-.058 1.125-.123 1.693-1.26 11.003-10.712 18.47-20.832 18.47-3.274 0-6.617-.782-9.777-2.477-.503-.27-.99-.56-1.462-.865.018-.56.06-1.125.124-1.692 1.26-11.003 10.712-18.47 20.831-18.47" fill="#37B1CC"/><path d="M325.89 209.036a5.192 5.192 0 00-7.005-2.19 5.181 5.181 0 00-2.193 6.996 5.193 5.193 0 007.004 2.192 5.182 5.182 0 002.194-6.998z" stroke="#37B1CC" stroke-width="3"/><path fill="#152F38" d="M354.68 594.71l28.847 14.329-.092 1.304-29.398-10.685z"/><path d="M355.34 440.281c-3.507.479-16.702.222-16.702.222l.535 2.4 16.913-.068-.746-2.554z" fill="#DF715C"/><path d="M335.94 556.145c-30.592-6.55-24.478-28.204-7.393-47.042l2.148-1.488c-.739-.723-1.221-1.73-1.259-2.78-.271-7.645 3.915-16.196 10.055-21.167-18.984 5.724-34.885 20.676-39.7 41.275-5.607 23.98 9.434 38.707 30.675 38.718 11.258.005 13.209-5.86 5.473-7.516" fill="#F1D5C3"/><path fill="#69BAC9" d="M317.56 461.699l-16.036 40.148 29.551 9.81 12.62-43.44zm42.588-7.773l10.038 53.881 15.896-6.757-8.566-35.3c-1.847-3.609-11.306-9.036-14.991-10.73l-2.377-1.094z"/><path fill="#2B5165" d="M327.819 510.57l12.13-25.983-10.68 31.663z"/><path d="M340.906 453.107c1.269 18.304-33.744 58.578-34.585 58.241-.627-.252-8.632-3.26-10.054-4.2-.542-.36 1.766-8.753 1.766-8.753s-5.512 6.95-6.681 6.286c-10.375-5.873-20.575-16.123-23.235-28.213 27.11-8.554 28.22-13.404 33.938-24.974 8.203-16.581 6.552-31.55 5.68-36.14 0-.016-.007-.031-.007-.047l21.246-5.72c.03.069.053.145.076.214 1.828 4.872 3.287 9.126 4.427 13.059 3.447 11.923 6.45 16.119 7.429 30.247" fill="#FF3434"/><path d="M347.47 546.258c1.183.09 1.951 1.337 1.927 2.541-.024 1.205-.64 2.35-1.296 3.4a33.69 33.69 0 01-1.756 2.534c-.567.744-1.177 1.475-1.94 2.01-1.375.961-5.523 2.53-7.12 2.303-1.4-.2-2.62-2.196-1.818-3.599.94-1.647 3.083-1.934 4.702-2.89 1.204-.71 4.275-1.607 5.18-2.684.227-.268 2.244-3.605 2.122-3.615" fill="#F1D5C3"/><path d="M189.02 464.889c-.008-.092-.008-.175-.016-.267m85.536-44.015c-.046-.077-.092-.145-.138-.221m187.408-48.331c-.015-.015-.023-.038-.038-.053" stroke="#000"/><path d="M344.081 553.667c1.203-.471 2.298-1.284 3.52-1.679s2.729-.217 3.225.882c.137.597.276 1.196.34 1.814.097.95.018 1.93-.061 2.903-.034.412-.072.84-.282 1.215-.17.305-.444.556-.568.879-.122.315-.083.65-.112.977-.077.886-.644 1.693-1.189 2.443l-2.596 3.573c-.158.218-.322.441-.54.597-.243.176-.533.253-.816.314-2.01.437-4.075.314-5.9-.35-1.17-.427-2.233-1.067-3.29-1.703-1.12-.675-2.3-1.422-2.765-2.674-.484-1.31-.068-2.886.55-4.269.843-1.887 2.25-4.807 4.35-4.854 2.177-.05 3.836.833 6.134-.068m-19.535-136.526c-.163-.119-7.105-.712-5.374 5.78 1.732 6.492 5.962 4.593 8.055 4.29 2.091-.306-2.517-9.95-2.68-10.07" fill="#F1D5C3"/><path fill="#2B5165" d="M327.819 510.57l-1.031-.365-1.145 1.992zm49.341-5.791l-2.589-22.353 5.126 21.348z"/><path d="M427.416 515.442c.028-.039.955-1.656 1.195-1.814.035-.022-1.235 2.262-1.235 2.262l.04-.448zm-6.251-3.491a4.59 4.59 0 011.129-1.085c.646-.429 1.94-1.134 1.94-1.134l-3.069 2.219zm3.205 2.409c.24-.148 1.76-1.466 1.934-1.763.174-.297-.012-.199-.051-.177-.038.022-2.353 2.095-2.353 2.095.158-.043.315-.093.47-.156m3.006 1.531c.004-.162.015-.316.04-.448" fill="#DF715C"/></g></svg>