<?xml version="1.0" encoding="UTF-8"?>
<!-- by Tanja Rohlfs (https://consento.org/team/tanja) - license: CC-BY-NC-SA (see: https://creativecommons.org/licenses/by-nc-sa/4.0/) -->
<svg width="500" height="500" xmlns="http://www.w3.org/2000/svg" xmlns:xlink="http://www.w3.org/1999/xlink"><defs><path id="a" d="M.84.898h76.396v65.788H.84z"/><path id="c" d="M.048.812h48.146V33H.048z"/><path id="e" d="M.107 0h88.942v35H.107z"/></defs><g fill="none" fill-rule="evenodd"><path fill="#FFF" d="M0 0h500v500H0z"/><path d="M207.299 183.655c46.407 3.474 87.988 29.746 110.097 69.55 4.99 8.984-.286 20.218-10.583 22.393l-8.002 1.692c-6.676 1.41-13.447-1.567-16.8-7.327-7.685-13.204-18.547-24.495-31.972-32.99a99.883 99.883 0 00-44.153-15.086c-6.786-.637-12.34-5.455-13.717-11.968l-1.648-7.795c-2.12-10.031 6.307-19.253 16.778-18.47" fill="#EEA8A8"/><path d="M286.314 391.234c-46.476 2.374-91.024-18.476-117.95-55.192-6.078-8.287-2.252-20.094 7.691-23.544l7.726-2.682c6.447-2.237 13.537-.132 17.586 5.162 9.281 12.137 21.473 21.975 35.857 28.719 14.44 6.77 30.04 9.932 45.696 9.429 6.814-.218 12.928 3.864 15.111 10.154l2.612 7.526c3.361 9.687-3.842 19.892-14.329 20.428" fill="#9ADAE6"/><path d="M202.72 211.493c.68 2.125 1.577 4.218 1.803 6.418.26 2.532-.448 5.202-2.281 7.14 1.825 1.053 4.165.87 6.319 1.095 2.33.245 4.675 2.862 7.004 3.117.322.035 5.966-11.136 6.56-11.936 1.169-1.573 2.589-5.769-.335-5.52-3.287.278-3.167-3.426-6.6-3.528l-4.132-.122c-.558-.018-1.13-.037-1.648-.22-.485-.173-.894-.479-1.322-.748-1.272-.8-5.917-3.64-5.932-1.97-.02 2.116.13 4.916.564 6.274" fill="#E8C5A6"/><path fill="#FFF" d="M213.676 221.57l-9.888-7.62 12.47-27.486 13.037 1.889z"/><path stroke="#919191" stroke-width=".944" stroke-linecap="round" stroke-linejoin="round" d="M213.676 221.57l-9.888-7.62 12.47-27.486 13.037 1.889z"/><path fill="#FFF" d="M213.08 221.308l-10.454-6.812 12.975-28.505 13.03 2.108z"/><path stroke="#B5B5B5" stroke-width=".734" stroke-linecap="round" stroke-linejoin="round" d="M213.08 221.308l-10.454-6.812 12.975-28.505 13.03 2.108z"/><path d="M224.878 210.079c.087-.078.182-.148.26-.236.748-.82 1.31-1.834 1.218-2.934-.054-.627-.25-1.194-.751-1.651-.075-.068-.166-.126-.254-.187.225-.293.42-.596.504-.972.113-.514.11-.65.043-1.104-.063-.43-.12-.591-.368-1.03a1.842 1.842 0 00-.66-.655c-.247-.207-.32-.462-.653-.535-.341-.096-.743 1.186-2.16 1.326-1.048.104-6.298.338-6.88.65a1.885 1.885 0 00-.72.6 1.73 1.73 0 00-.46.794c-.148.599-.116 1.27.26 1.8.359.508.876.918 1.532 1.073.31.074.534.029.853.068.319.039 4.236-.364 4.558-.366l.04-.002-.001.029c-.053.028-.106.057-.161.082-.51.159-3.144.78-3.677.86-.477.048-.834.283-1.315.286-.66.003-.951.063-1.42.489-.444.405-.78 1.069-.75 1.65.029.605.247 1.232.75 1.652.5.417 2.716.18 3.409.175.435-.003.868-.028 1.3-.066-1.484.502-1.022.266-2.586.463-.59.074-1.247.63-1.532 1.072-.321.5-.458 1.238-.258 1.8.2.565.585 1.11 1.178 1.395l.612.236c.455.11.909.11 1.363 0 1.613-.203 1.216.046 2.74-.502 1.643-.59 3.246-1.404 4.353-2.694.437-.51.75-.975.75-1.651 0-.572-.28-1.257-.75-1.651a3.389 3.389 0 00-.367-.264m-15.231-6.52c.43 1.247 2.577 2.284 2.785 2.679.208.394-1.203 1.337-2.054 1.465-.615.092-1.229-.126-1.813-.342-2.11-.781-4.223-1.561-6.335-2.341-.243-1.89 2.157-5.006 3.871-5.664 2.385-.916 2.921 2.39 3.546 4.203" fill="#E8C5A6"/><path d="M203.604 222.221s-1.832 4.107-3.252 9.378c2.557-.536 4.621-.185 6.894.93 3.154 1.546 5.27 4.625 6.19 8.336a189.884 189.884 0 004.062-10.809c1.93-5.631-10.016-10.175-13.894-7.835" fill="#FFF"/><path d="M203.604 222.221s-1.832 4.107-3.252 9.378c2.557-.536 4.621-.185 6.894.93 3.154 1.546 5.27 4.625 6.19 8.336a189.884 189.884 0 004.062-10.809c1.93-5.631-10.016-10.175-13.894-7.835z" stroke="#919191" stroke-width=".865"/><path d="M132.01 200.319c-1.529 24.019 4.314 52.148 4.314 52.148s11.832 27.815 38.317 23.253c26.485-4.561 40.446-34.67 41.678-41.054.942-4.883-8.54-7.267-13.057-8.118-1.292-.245-2.2.73-3.022 1.914-3.913 5.638-9.877 26.048-24.34 24.83-21.727-1.832-32.427-48.798-36.733-50.284" fill="#2B5165"/><path d="M71.945 200.546c-3.002 1.46-22.285 8.135-21.543 12.832.74 4.696 6.578 46.525 6.823 48.31 2.443 17.726 13.2 69.523 14.83 67.112.97-1.434 71.547-16.04 71.547-16.04s-8.652-76.886-8.405-77.874c.247-.989 7.089-30.016 3.956-31.892-3.135-1.875-17.306-5.932-17.306-5.932l-7.09-3.548-42.812 7.032z" fill="#2B5165"/><path d="M113.05 194.11s5.948 44.116-1.408 81.726c.084.099 1.977-1.083 1.977-1.083s17.297-67.923 16.653-68.398c-.621-.458-9.512-5.396-9.512-5.396s8.016-1.882 7.577-1.994c-.45-.115-16.783-7.26-16.783-7.26l1.497 2.406z" fill="#A8A8A8"/><path d="M85.111 197.439l17.271 61.244 11.014 15.299s2.827-42.457 1.99-58.853c-.055-1.073-.88-13.473-.88-13.473l-29.395-4.217z" fill="#C1B9B2"/><path d="M146.9 148.11s6.483 21.61-1.842 28.35l-.25.2c-10.977 8.764-25.453 12.017-39.13 8.825-7.633-1.781-15.225-5.548-18.632-13.254-8.06-18.236 3.833-17.443 3.833-17.443s-1.189-9.382-.396-10.836c.792-1.453 3.567-6.078 3.567-6.078s-2.246-18.368 10.175-19.294c12.422-.925 36.076-4.757 37.265 1.189 1.19 5.947 5.41 28.342 5.41 28.342" fill="#E8C5A6"/><path d="M116.226 151.502c0 2.098-.796 3.797-1.777 3.797-.982 0-1.778-1.699-1.778-3.797 0-2.097.796-3.796 1.778-3.796.981 0 1.777 1.7 1.777 3.796m25.635-2.394c0 2.097-.795 3.797-1.777 3.797-.982 0-1.777-1.7-1.777-3.797 0-2.097.795-3.797 1.777-3.797.982 0 1.777 1.7 1.777 3.797m-21.259 21.102c.313.21-.208 3.445 11.17 2.401" fill="#000"/><path d="M126.899 152.622c.338 0 3.034 8.924 4.069 9.083 1.036.16-2.151 3.027-2.151 3.027l-1.832-.08" fill="#C16363"/><path d="M119.065 161.782l-12.096 1.298c-.717.076-1.308-.408-1.31-1.08l-.04-19.034c-.001-.733.617-1.33 1.369-1.324l12.639.092c.648.005 1.159.56 1.138 1.235l-.536 17.563c-.02.622-.541 1.184-1.164 1.25zm25.423-3.956l-9.283 1.202c-.548.07-.999-.375-1-.993l-.03-17.08c0-.64.458-1.168 1.017-1.17l9.463-.05c.488-.003.881.483.875 1.076l-.16 15.858c-.007.574-.402 1.094-.882 1.156z" stroke="#000"/><path d="M120.66 154.07c1.562-.477 6.68-5.086 13.535-1.112" stroke="#000" stroke-width="1.045"/><path d="M105.472 146.375c-1.022 0-22.574-.426-22.574-.426" stroke="#000"/><path d="M93.245 156.7c0 6.409-.46 12.014-5.42 12.014s-13.869-5.375-13.869-11.784c0-6.41 4.504-11.427 9.464-11.427 4.96 0 9.825 4.789 9.825 11.198" fill="#E8C5A6"/><g transform="translate(70 88.102)"><mask id="b" fill="#fff"><use xlink:href="#a"/></mask><path d="M6.284 61.517S-1.165 25.27 1.986 22.979l3.152-2.291-4.298-3.44s7.593 1.863 7.88.86c.286-1.003 4.871-9.742 4.871-9.742l1.289 4.729S31.784.342 49.119.915c17.335.574 27.936 12.178 27.936 12.178s.61 43.225-.411 44.606c-1.022 1.38-3.611-26.902-7.038-27.845-4.558-1.253-36.475-.457-41.161 3.936-5.108 4.79-4.106 15.122-4.394 15.98-.289.858 1.144 14.897 1.144 14.897l-4.316 2.017-.776-6.088s-7.515-7.677-13.819.92" fill="#000" mask="url(#b)"/></g><path d="M95.368 181.45l-4.96 11.054s10.437 11.052 10.976 11.052c.54 0 7.558-.9 7.558-.9s1.715-15.972 3.874-16.88c.995-.42-17.448-4.326-17.448-4.326" fill="#E8C5A6"/><path d="M101.384 203.556s.047-.013.135-.033c.74-.182 4.383-1.025 7.423-.866 3.4.176 2.891 7.81 2.891 7.81s-.254 1.273-3.138 1.866c-2.884.594-9.67 0-9.67 0s.17-5.852.254-6.107c.085-.255 2.105-2.67 2.105-2.67" fill="#69BAC9"/><path d="M110.856 190.858c-1.079 3.99-1.255 7.072-1.967 11.773l5.796 12.498s.073-20.695.073-21.615c0-.921-3.902-2.656-3.902-2.656" fill="#C1B9B2"/><path d="M108.695 212.333c1.158.265 6.347 17.182 6.547 18.906.798 6.88-1.96 41.294-1.96 41.294-.438 2.036-8.108-13.549-7.673-14.127.042-.055-3.724-43.845-3.146-45.808.577-1.963 6.232-.265 6.232-.265" fill="#69BAC9"/><path d="M86.526 196.764s8.113 43.768 26.834 77.206c-.048.12-.51.301-.51.301s-43.912-58.121-43.196-58.408c.716-.287 12.167-11.022 12.167-11.022s-10.154-4.473-9.725-4.616c.43-.143 15.807-5.975 15.807-5.975l-1.377 2.514z" fill="#A8A8A8"/><path d="M86.526 196.764c-.229 1.322 11.194 19.995 13.067 20.479.054.015.302.225.302.225s-6.13-8.857-7.64-11.137c-.92-1.392-5.729-9.567-5.729-9.567m14.147 15.684l-.708 5.003 1.652-4.975zm14.012 2.682l-2.81-6.062-.052.983" fill="#A8A8A8"/><path d="M109.21 212.98c-.374.096-6.808.533-6.808.533s.008-.871.078-.97c.069-.095 6.016-.257 6.215-.21.199.048.515.648.515.648" fill="#448A93"/><path d="M113.36 273.97c.46.703 6.885 44.074 6.885 44.074" stroke="#1F3C49"/><path d="M115.74 273.97c0 1.245-1.224 2.255-2.733 2.255-1.51 0-2.734-1.01-2.734-2.255 0-1.245 1.224-2.255 2.734-2.255 1.509 0 2.733 1.01 2.733 2.255m4.657 27.78c.204 1.23-.837 2.425-2.327 2.673-1.489.247-2.862-.548-3.066-1.777-.205-1.228.837-2.425 2.327-2.672 1.49-.248 2.861.547 3.066 1.776" fill="#353535"/><path d="M88.042 306.564c-15.373 1.71-16.232-.56-22.234-.47" stroke="#1F3C49"/><path fill="#919191" d="M145.26 350.638l78.641-31.132-30.52-23.692-92.329 26.979z"/><path d="M101.052 322.793s-.093.916 0 1.31c.124.52 44.11 28.208 44.11 28.208v-1.735l-44.11-27.783zm44.11 27.784l81.563-30.363-.055 1.972-81.508 30.125z" fill="#666"/><path fill="#D3D3D3" d="M149.592 342.52l42.347-16.764-16.435-12.758-49.717 14.528z"/><path fill="#666" d="M129.4 323.988l24.142-7.305-8.064-4.235-23.342 6.536z"/><path fill="#B5B5B5" d="M145.519 350.174l80.859-30.204.148-60.099-81.47 21.853z"/><path stroke="#B5B5B5" stroke-width=".583" d="M145.519 350.174l80.859-30.204.148-60.099-81.47 21.853z"/><path d="M113.937 321.783c.966.218 6.53 3.56 15.375 3.73 4.167.08 2.065-2.826 2.065-2.826s-8.099-3.167-14.613-7.076l-2.827 6.172z" fill="#E8C5A6"/><path d="M117.204 309.984s8.995 6.826 13.66 7.52c2.095.314 4.31 1.062 4.622 2.74.49 2.627-9.157.664-9.157.664l-6.14-2.324-2.985-8.6z" fill="#E8C5A6"/><path d="M126.354 315.833s7.07-.465 7.768-.64c.698-.174 2.446-3.063-.887-2.78-1.906.16-8.957-.818-9.232-.956 0 0-5.655-1.48-8.299-2.833-3.467-1.773-15.808.26-15.808.26l.446 13.257c.698 0 7.667-2.045 10.598-.509 2.932 1.535 6.637 4.898 11.175 6.295 3.374 1.038 5.441.61 5.47-.242.082-2.402-3.204-2.557-4.949-3.589-1.83-1.082-5.66-2.584-7.072-4.078" fill="#E8C5A6"/><path d="M126.58 315.348c-.957-.11-7.906-3.206-10.905-3.149m12.209 9.118c-.956-.111-7.681-4.277-10.68-4.221m8.534 7.727c-.956-.111-5.7-2.483-8.684-3.21" stroke="#C49E82" stroke-width=".75"/><path d="M98.015 306.366s-4.494.195-9.851 1.434c1.607 2.44 2.2 4.82 2.2 7.82 0 4.166-1.832 8.023-4.758 10.939 3.663-.282 7.489-.716 11.493-1.318 5.905-.886 4.724-15.97.916-18.875" fill="#FFF"/><path d="M98.015 306.366s-4.494.195-9.851 1.434c1.607 2.44 2.2 4.82 2.2 7.82 0 4.166-1.832 8.023-4.758 10.939 3.663-.282 7.489-.716 11.493-1.318 5.905-.886 4.724-15.97.916-18.875z" stroke="#919191" stroke-width=".942"/><path d="M101.534 203.016s-1.176 14.707-1.639 14.452c-4.474-2.465-14.698-21.964-14.323-22.294.366-.322 6.16-7.401 6.16-7.401l9.802 15.243z" fill="#C1B9B2"/><path d="M112.158 186.515c-1.573-.048-15.86-4.502-16.79-5.064-.116-.071-.686 1.413-.686 1.413l15.92 8.84 1.556-5.189z" fill="#A87F60"/><path fill="#1F3C49" d="M141.207 260.818l-4.952-22.225.81 15.683z"/><path d="M78.776 153.182c.231-.231 7.264-4.997 8.513 2.915" fill="#A87F60"/><path d="M86.738 198.642l13.157 18.826-5.785-6.977c-2.805-3.913-4.426-5.307-5.527-8.18l-1.845-3.67z" fill="#A8A8A8"/><path d="M51.407 211.033s-40.233 56.34-34.924 82.489c5.985 29.484 29.495 40.553 70.573 33.882 6.028-.978 4.95-17.164 1.062-20.372 0 0-45.457 6.2-42.108-20.85 3.35-27.05 17.261-32.461 17.261-32.461l-11.864-42.688z" fill="#2B5165"/><path d="M51.407 211.033s13.933 8.843 5.41 47.716m74.728-58.735l5.549 54.25" stroke="#1F3C49"/><path d="M220.194 194.114a1.906 1.906 0 00-.638-1.023c-.132-.107-.15-.317-.043-.523l.128-.247c.167-.321.549-.49.764-.334.984.712 1.352 2.077.944 3.555-.091.327-.463.56-.742.467l-.215-.072c-.177-.06-.261-.24-.21-.446.117-.478.124-.95.012-1.377m-3.361-.98c-.397.243-.75.562-1.038.931-.124.158-.3.234-.439.188l-.163-.055c-.208-.07-.234-.38-.054-.627.823-1.12 2.048-1.914 3.27-2.055.286-.034.42.25.262.565l-.122.242c-.1.202-.293.35-.476.37a3.015 3.015 0 00-1.24.441" fill="#EE3434"/><path d="M214.73 195.202l.158.06c.134.047.199.205.163.384-.08.396-.083.785-.005 1.144.044.206.115.399.209.574.039.071.082.143.13.207l.019.023c.157.175.47.085.607-.19l.11-.219c.073-.147.077-.31.003-.42-.195-.294-.262-.694-.18-1.116a2.19 2.19 0 01.204-.582c.425-.831 1.325-1.37 2.07-1.2l.017.004.017.005c.005 0 .01.003.017.004l.016.005.016.005c.006 0 .012.003.017.004l.016.006.017.006c.005 0 .01.003.016.006.002 0 .004 0 .006.002.73.274.955 1.212.5 2.105a2.43 2.43 0 01-.391.562c-.334.358-.754.592-1.162.658a.53.53 0 00-.368.285l-.116.224c-.144.278-.008.567.258.567l.033-.001c.093-.006.188-.021.283-.04.232-.046.466-.125.697-.233.41-.193.79-.474 1.119-.822.15-.161.369-.23.54-.166l.208.076c.269.098.299.455.062.706a5.383 5.383 0 01-1.106.899 5.004 5.004 0 01-.786.385 4.409 4.409 0 01-.395.127 3.647 3.647 0 01-.775.122 2.826 2.826 0 01-1.469-.316 2.458 2.458 0 01-.765-.638 2.683 2.683 0 01-.34-.56 2.825 2.825 0 01-.208-.641 3.28 3.28 0 01-.073-.706 4.27 4.27 0 01.094-.908c.058-.27.315-.47.517-.396" fill="#37AFCA"/><path d="M225.335 205.058c-.06.083-4.103 1.646-4.103 1.646s.09.232.223.206c.132-.027 4.282-1.525 4.282-1.525l-.402-.327zm-.457 5.021s-5.756 1.782-6.02 1.83l-.077.159-.156.044c.328.067 6.925-1.441 6.925-1.441a2.32 2.32 0 00-.672-.592m-1.758 5.241c-.346.043-5.494 1.783-6.517 1.442-.06-.02-.301.51-.364.693-.03.084 6.31-.768 6.31-.768l.571-1.367z" fill="#C49E82"/><path d="M359.976 297.272s-.533 1.896-.167 2.3c.365.405.741-.036.818-.036.078 0 1.732-1.251 1.732-1.251l-2.383-1.013zm11.873 24.968s-1.565.493-2.392-.35c-.827-.842-1.065-.763-.827-.842.24-.08 2.147-1.194 2.147-1.194s.95-.833.966-.721c.016.11.481 1.723.418 1.819-.063.096-.313 1.288-.313 1.288" fill="#2B5165"/><path d="M306.509 268.81c-.741 2.317-1.72 4.599-1.966 6.999-.284 2.762.372 3.933 2.024 8.49-1.991 1.149-4.08.244-6.427.49-2.542.267-5.594 1.88-8.134 2.16-.351.038-6.35-6.311-8.235-10.275-.918-1.93-4.533-8.473-1.345-8.204 3.584.304 6.74-3.055 10.485-3.165l4.505-.134c.609-.017 1.232-.038 1.797-.24.53-.186.976-.52 1.442-.813 1.387-.872 6.454-3.97 6.469-2.15.022 2.307-.141 5.36-.615 6.842" fill="#F1D5C3"/><path fill="#FFF" d="M294.561 279.8l10.781-8.31-13.596-29.974-14.217 2.06z"/><path stroke="#919191" stroke-width=".944" stroke-linecap="round" stroke-linejoin="round" d="M294.561 279.8l10.781-8.31-13.596-29.974-14.217 2.06z"/><path fill="#FFF" d="M295.212 279.514l11.398-7.429L292.46 241l-14.206 2.3z"/><path stroke="#B5B5B5" stroke-width=".734" stroke-linecap="round" stroke-linejoin="round" d="M295.212 279.514l11.398-7.429L292.46 241l-14.206 2.3z"/><path d="M282.346 267.268c-.095-.086-.198-.162-.285-.258-.814-.893-1.428-2-1.325-3.2.057-.683.272-1.302.818-1.8.08-.073.18-.138.276-.204-.245-.318-.458-.65-.548-1.06-.124-.56-.122-.707-.048-1.203.069-.467.13-.645.4-1.123a2.03 2.03 0 01.72-.715c.27-.224.349-.503.713-.583.372-.105.81 1.292 2.354 1.447 1.144.113 6.868.369 7.504.707.326.16.588.379.784.656.248.246.414.534.5.866.164.652.129 1.383-.281 1.962-.392.553-.955 1-1.671 1.17-.34.08-.582.03-.93.073-.347.043-4.62-.397-4.97-.398l-.045-.003.003.033c.057.03.115.06.175.089.556.174 2.753 1.01 3.334 1.098.52.052 1.585.147 2.109.15.72.006 1.038.069 1.549.534.485.443.849 1.167.818 1.8-.032.66-.27 1.343-.818 1.802-.545.455-2.962.195-3.717.19a17.17 17.17 0 01-1.418-.072c1.618.548 1.114.289 2.819.505.643.08 1.362.687 1.67 1.17.353.546.5 1.35.283 1.962-.218.616-.637 1.21-1.285 1.52a76.79 76.79 0 01-.668.258c-.495.12-.99.12-1.486 0-1.76-.222-1.325.05-2.986-.547-1.793-.643-3.54-1.53-4.747-2.937-.477-.556-.82-1.064-.82-1.801 0-.624.305-1.37.82-1.801.124-.103.258-.2.399-.287m16.608-7.109c-.468 1.36-2.81 2.49-3.036 2.92-.228.431 1.31 1.458 2.239 1.599.67.1 1.34-.138 1.977-.374l6.908-2.553c.265-2.059-2.352-5.458-4.221-6.177-2.6-.999-3.186 2.606-3.867 4.584m86.421 8.562c1.666 26.191-6.156 41.775-6.156 41.775-.057-.788-13.115 23.29-41.908 19.527-29.06-3.796-41.434-35.265-45.305-42.813-2.474-4.825 12.635-8.024 14.455-3.354 1.55 3.976 2.17 5.187 3.065 6.476 4.268 6.15 14.95 23.634 30.5 20.681 21.51-4.085 35.478-31.272 39.45-36.329" fill="#F1D5C3"/><path d="M378.925 199.112s-5.934 69.952 1.807 69.952c1.443 0 23.093-7.217 23.093-7.217l-.412-57.323-24.488-5.412z" fill="#FF3434"/><path d="M400.998 255.444c1.096-.144 19.328-2.88 22.306-2.88 2.977 0-.541 3.067-.993 3.157-.451.09-21.214 6.693-25.093 6.512-3.88-.181-5.918-1.56-6.37-2.404-.322-.6 2.852-.901 6.546-2.194 2.846-.996 4.443-1.504 3.604-2.191" fill="#2B5165"/><path d="M420.742 238.649s-8.227 5.55-14.094 7.24c-3.588 1.036-5.612 1.512-16.887 1.512-11.113 0-17.69-17.13-17.69-17.13l-1.33-33.438.327-9.42 53.148.982-3.474 50.254z" fill="#F1D5C3"/><path d="M382.863 212.24c0 2.06-.779 3.73-1.74 3.73-.962 0-1.74-1.67-1.74-3.73 0-2.061.778-3.73 1.74-3.73.961 0 1.74 1.669 1.74 3.73m20.095 0c0 2.06-.78 3.73-1.74 3.73-.962 0-1.741-1.67-1.741-3.73 0-2.061.779-3.73 1.74-3.73.962 0 1.74 1.669 1.74 3.73" fill="#000"/><path d="M390.704 215.946s-3.02 10.427-1.646 11.182c1.373.756 2.814-.471 2.814-.471l-1.168-10.711z" fill="#FF3434"/><path fill="#F1D5C3" d="M397.531 247.414l-.385 21.232 3.996 1.29 15.664-2.256 3.434-1.495v-27.959l-22.577 6.563z"/><path d="M376.963 187.045l2.118 12.23 20.673 1.482 2.797-13.148 2.144 12.961 14.673 1.181s-5.706 61.387 1.836 61.697c7.54.312 24.639-1.27 27.848-.648 3.209.621 18.109 19.31 18.109 19.31s1.46-12.174-2.39-22.477c-2.186-5.846-14.688-15.378-13.417-66.209.337-13.493-19.414-38.322-40.915-37.857-21.501.466-43.218 8.903-44.984 24.748-1.764 15.844 2.407 17.398 2.407 17.398l6.68 1.414 2.42-12.082z" fill="#FF3434"/><path d="M399.125 230.622c-.972.488-3.355 4.886-11.481 5" stroke="#DF715C" stroke-width=".5" stroke-linecap="round" stroke-linejoin="round"/><path d="M426.863 209.824c.157-.195 8.16-2.92 8.075 5.608-.086 8.529-5.642 7.393-8.2 7.618-2.557.222-.03-13.032.125-13.226" fill="#F1D5C3"/><path d="M390.785 259.766c-11.771 11.424-20.296 24.311-30.812 37.504 10.078 4.621 11.248 15.303 11.767 24.873.076 1.402 13.486-11.954 12.911-13.306 6.1 15.259-17.364 51.47-6.519 61.839 10.843 10.369 49.946-6.042 66.347-.884 2.763-15.62 7.972-44.106 7.574-55.748-.398-11.641-3.314-7.131-4.206-15.406-.002-12.982-.149-25.436-.228-38.839-5.359-5.009-22.278-6.938-26.357-4.357-9.146 5.785-18.837 10.392-30.477 4.324" fill="#69BAC9"/><path d="M465.334 285.131s37.642 58.883 4.544 78.806c-25.651 15.441-58.251 8.581-59.067 6.403-.817-2.177-5.48-10.467-4.42-10.216 1.155.274 46.13 2.386 53.945-14.549 8.098-17.546-13.323-45.175-13.323-45.175l18.32-15.269z" fill="#F1D5C3"/><path d="M447.4 259.633c9.312 7.16 24.056 27.094 31.904 41.638.58 2.072-22.75 5.955-27.135 10.118-5.173 4.91-22.632-17.242-22.632-17.242l17.862-34.514z" fill="#69BAC9"/><path d="M381.925 312.767c.782-.791 1.956-2.012 2.785-3.763.075-.16 1.222-16.353 1.222-16.353l-3.005 10.785-1.002 9.33zm35.872-58.427c.236 0 6.168.233 6.168.233-3.972 1.223-4.581 2.32-5.79 2.748l-.378-2.982zm31.767 50.433c.136.322 2.203 16.456 2.203 16.456l.342-5.28c.008-2.63-.158-5.09-.605-7.274l-1.94-3.902z" fill="#2B5165"/><path d="M431.754 287.342l1.266.657c11.073 12.094 16.617 16.426 16.548 16.824l.439 2.061c-1.452-.7-9.337-5.115-18.253-19.542" fill="#2B5165"/><path d="M397.545 247.286c4.277-.413 19.749-4.518 19.749-4.518l.093 3.124-19.952 4.768.11-3.374z" fill="#DF715C"/><path fill="#919191" d="M370.941 409.279l-85.755-33.948 33.281-25.837 100.681 29.42z"/><g transform="translate(371 378.102)"><mask id="d" fill="#fff"><use xlink:href="#c"/></mask><path d="M48.148.812s.102 1 0 1.427C48.013 2.807.048 33 .048 33v-1.892L48.148.812z" fill="#666" mask="url(#d)"/></g><g transform="translate(282 376.102)"><mask id="f" fill="#fff"><use xlink:href="#e"/></mask><path fill="#666" mask="url(#f)" d="M89.049 33.108L.107 0l.059 2.152 88.883 32.85z"/></g><path fill="#D3D3D3" d="M366.218 400.425l-46.178-18.28 17.922-13.912 54.215 15.841z"/><path fill="#666" d="M388.235 380.217l-26.325-7.965 8.794-4.62 25.452 7.128z"/><path fill="#B5B5B5" d="M370.659 408.772l-88.174-32.936-.161-65.535 88.839 23.828z"/><path stroke="#B5B5B5" stroke-width=".583" d="M370.659 408.772l-88.174-32.936-.161-65.535 88.839 23.828z"/><path d="M399.87 375.45c-1.209.272-8.163 4.45-19.22 4.663-5.209.101-2.848-3.3-2.582-3.533.267-.233 10.125-3.958 18.268-8.844l3.534 7.714z" fill="#F1D5C3"/><path d="M395.786 360.702s-11.244 8.531-17.076 9.401c-2.619.39-5.387 1.327-5.778 3.424-.614 3.283 11.446.83 11.446.83l7.677-2.907 3.731-10.748z" fill="#F1D5C3"/><path d="M383.127 367.643s-7.617-.211-8.49-.43c-.872-.217-3.058-3.83 1.109-3.476 2.383.202 11.197-1.022 11.54-1.194 0 0 4.922-.047 8.227-1.738 4.335-2.217 11.284-.626 11.284-.626l7.577 10.566c-.872 0-7.095 2.597-10.76 4.517-3.663 1.919-8.294 6.123-13.966 7.869-4.22 1.298-6.803.763-6.84-.302-.103-3.002 4.007-3.197 6.187-4.487 2.287-1.352 7.076-3.23 8.84-5.097" fill="#F1D5C3"/><path d="M384.22 368.08c.43-.05 1.223-.427 3.005-1.085 3.146-1.16 7.88-2.909 10.366-2.909.032 0-1.391-.31-1.36-.309l-1.335-.232c-3.15 1.013-3.567 1.058-6.796 2.25-1.23.454-4.696 1.827-4.997 1.861l1.118.424zm-1.95 6.657c.478-.057 1.57-.373 3.448-1.323 3.004-1.52 7.601-3.205 9.99-3.205h.066l-1.815-.368c-2.667-.058-5.398 1.388-8.728 3.073-1.2.607-3.555 1.885-3.862 1.93l.9-.107zm3.178 5.038c.568-.066 1.476-.455 3.486-1.296 2.27-.95 5.721-3.051 7.813-3.56l-.919-.282c-2.187.532-4.41 1.92-6.722 2.887-1.468.614-4.546 2.34-4.969 2.39l1.311-.14z" fill="#E5B79E"/><path d="M287.316 249.633c.122-.467.362-.847.695-1.116.144-.115.163-.345.047-.569l-.139-.27c-.182-.35-.598-.534-.833-.364-1.074.776-1.474 2.265-1.03 3.877.1.356.505.61.81.508l.233-.078c.195-.064.285-.26.23-.486a3.058 3.058 0 01-.013-1.502m3.664-1.067c.434.265.818.612 1.132 1.014.136.173.328.256.478.206l.178-.06c.227-.076.256-.417.06-.683-.899-1.223-2.234-2.087-3.565-2.243-.313-.036-.459.274-.287.618l.132.264c.11.22.32.38.52.403.45.047.911.21 1.352.48" fill="#EE3434"/><path d="M293.274 250.82l-.173.064c-.145.054-.217.225-.177.422.087.43.09.854.005 1.245a2.342 2.342 0 01-.228.627 1.542 1.542 0 01-.143.226l-.019.024c-.17.193-.512.093-.66-.205l-.122-.24c-.08-.16-.084-.338-.004-.458.213-.321.286-.757.197-1.218a2.367 2.367 0 00-.222-.634c-.464-.907-1.445-1.494-2.258-1.308-.006 0-.012.003-.018.004l-.019.005-.017.005a.133.133 0 01-.019.005l-.018.005-.017.006c-.006 0-.012.003-.019.005l-.017.007-.018.006a.049.049 0 01-.007.003c-.796.3-1.04 1.32-.547 2.296.117.228.263.434.428.612.364.39.822.644 1.268.718a.576.576 0 01.401.31l.126.244c.157.304.01.619-.28.62a2.366 2.366 0 01-.344-.045 3.341 3.341 0 01-.762-.255 4.052 4.052 0 01-1.219-.897c-.164-.175-.403-.25-.59-.18l-.226.083c-.294.107-.327.496-.068.77a5.834 5.834 0 00.788.698 5.567 5.567 0 00.845.515c.142.07.287.132.43.187a4.772 4.772 0 00.858.228 3.46 3.46 0 001.219-.016 2.774 2.774 0 001.394-.717 2.733 2.733 0 00.444-.557 2.59 2.59 0 00.168-.317 3.456 3.456 0 00.286-1.078 4.267 4.267 0 00.004-.798 4.595 4.595 0 00-.087-.584c-.062-.294-.343-.512-.563-.432" fill="#37AFCA"/><path d="M286.357 263.605l-4.527-1.8c-.176.106-.36.272-.534.493l5.323 1.633-.262-.326zm-4.011 3.663l6.627 2.012.209.33-7.45-1.846s.377-.386.614-.496m-.256 3.871c-.03.197 5.69 2.859 9.38 3.467.018.003.263.494.263.494s-6.066-.061-7.45-1.332c-.836-.77-2.193-2.629-2.193-2.629" fill="#E5B79E"/><path d="M251.332 165.708a43.669 43.669 0 011.935-3.124c17.81-26.272 56.91-26.272 74.72 0a44.032 44.032 0 011.936 3.124 44.24 44.24 0 01-1.935 3.123c-17.81 26.272-56.911 26.272-74.721 0a43.874 43.874 0 01-1.935-3.123" fill="#FFF"/><path d="M251.332 165.708a43.669 43.669 0 011.935-3.124c17.81-26.272 56.91-26.272 74.72 0a44.032 44.032 0 011.936 3.124 44.24 44.24 0 01-1.935 3.123c-17.81 26.272-56.911 26.272-74.721 0a43.874 43.874 0 01-1.935-3.123z" stroke="#CBCBCB" stroke-width="2"/><path d="M301.714 165.568c0-6.201-5.026-11.228-11.227-11.228-6.201 0-11.227 5.027-11.227 11.228 0 6.2 5.026 11.228 11.227 11.228 6.2 0 11.227-5.028 11.227-11.228z" stroke="#CBCBCB" stroke-width="2"/><path d="M266.065 189.837a.492.492 0 01-.349-.839l48.978-49.225a.492.492 0 11.698.694l-48.977 49.225a.492.492 0 01-.35.145" fill="#F03434"/><path d="M315.044 139.128a.985.985 0 00-.703.292l-48.98 49.225a.993.993 0 101.408 1.4l48.978-49.226a.993.993 0 00-.703-1.69m0 .5a.493.493 0 01.349.838l-48.978 49.225a.492.492 0 01-.698-.694l48.977-49.225a.492.492 0 01.35-.145" fill="#F03434"/></g></svg>