<!-- by Tanja Rohlfs (http://tanjarohlfs.de/) - license: CC-BY-NC-SA (see: https://creativecommons.org/licenses/by-nc-sa/4.0/) -->
<svg width="500" height="500" xmlns="http://www.w3.org/2000/svg"><g fill="none" fill-rule="evenodd"><path fill="#FFF" d="M0 0h500v500H0z"/><path d="M273.946 330.993c-1.02 1.042-2.506 1.695-3.647.746L143.35 225.866c-2.979-2.534-1.642-11.243 1.728-14.477l180.73-172.431c1.986-1.906 6.177-2.616 9.352-1.58l121.134 35.96c4.47 1.459 6.591 8.226 4.726 10.696L278.033 326.419c-1.98 2.622-3.16 3.628-4.087 4.574" fill="#FFF"/><path d="M273.946 330.993c-1.02 1.042-2.506 1.695-3.647.746L143.35 225.866c-2.979-2.534-1.642-11.243 1.728-14.477l180.73-172.431c1.986-1.906 6.177-2.616 9.352-1.58l121.134 35.96c4.47 1.459 6.591 8.226 4.726 10.696L278.033 326.419c-1.98 2.622-3.16 3.628-4.087 4.574z" stroke="#777" stroke-width="5.645"/><path fill="#777" d="M270.23 329.996h3.5v-2.848h-3.5z"/><path d="M273.567 324.322c-1.011 1.037-2.475 1.693-3.587.767L144.965 220.897c-2.904-2.475-2.505-7.13.83-10.348L326.84 35.857c1.965-1.896 6.086-2.63 9.195-1.634l118.552 37.999c4.377 1.403 6.492 4.554 4.642 7.005l-181.613 240.55c-1.965 2.604-3.131 3.605-4.05 4.545" fill="#FFF"/><path d="M273.567 324.322c-1.011 1.037-2.475 1.693-3.587.767L144.965 220.897c-2.904-2.475-2.505-7.13.83-10.348L326.84 35.857c1.965-1.896 6.086-2.63 9.195-1.634l118.552 37.999c4.377 1.403 6.492 4.554 4.642 7.005l-181.613 240.55c-1.965 2.604-3.131 3.605-4.05 4.545z" stroke="#B5B5B5" stroke-width="5.555"/><path d="M412.347 68.728L357.17 50.287c-3.385-1.131-4.51-3.71-2.543-5.73l.297-.303c1.952-2.003 6.278-2.758 9.657-1.678l55.007 17.566c3.982 1.272 5.733 4.182 3.838 6.47l-.289.349c-1.91 2.308-6.79 3.103-10.79 1.767" fill="#B5B5B5"/><path d="M412.347 68.728L357.17 50.287c-3.385-1.131-4.51-3.71-2.543-5.73l.297-.303c1.952-2.003 6.278-2.758 9.657-1.678l55.007 17.566c3.982 1.272 5.733 4.182 3.838 6.47l-.289.349c-1.91 2.308-6.79 3.103-10.79 1.767z" stroke="#B5B5B5" stroke-width=".59"/><path fill="#B5B5B5" d="M272.377 323.133l-130.672-107.96 9.436-10.047 131.24 106.01z"/><path stroke="#B5B5B5" stroke-width=".59" d="M272.377 323.133l-130.672-107.96 9.436-10.047 131.24 106.01z"/><path d="M294.741 198.224c-4.73 5.36-13.772 6.624-20.232 2.844-4.612-2.698-6.708-7.171-6.056-11.463.058-.375-.127-.74-.48-.96l-9.38-5.812-.314-2.3c-.059-.43-.349-.608-.349-.608l-4.503-2.771c-.38-.234-.725-.186-.725-.186l-4.438.116.165-8.104 8.177-.74 19.326 11.528c.36.214.833.25 1.247.099 4.523-1.658 9.947-1.38 14.268 1.142 6.64 3.874 8.231 11.62 3.294 17.215" fill="#FFF"/><path d="M294.741 198.224c-4.73 5.36-13.772 6.624-20.232 2.844-4.612-2.698-6.708-7.171-6.056-11.463.058-.375-.127-.74-.48-.96l-9.38-5.812-.314-2.3c-.059-.43-.349-.608-.349-.608l-4.503-2.771c-.38-.234-.725-.186-.725-.186l-4.438.116.165-8.104 8.177-.74 19.326 11.528c.36.214.833.25 1.247.099 4.523-1.658 9.947-1.38 14.268 1.142 6.64 3.874 8.231 11.62 3.294 17.215z" stroke="#263238" stroke-width="1.111"/><path d="M248.552 170.261c.271.212 14.912 9.09 19.58 11.917.757.46 1.843.31 2.426-.334.583-.643.44-1.534-.318-1.99l-16.244-9.785" fill="#FFF"/><path d="M248.552 170.261c.271.212 14.912 9.09 19.58 11.917.757.46 1.843.31 2.426-.334.583-.643.44-1.534-.318-1.99l-16.244-9.785" stroke="#263238" stroke-width="1.111" stroke-linecap="round"/><path d="M291.943 196.285c-1.834 2.131-5.388 2.596-7.91 1.04-2.5-1.545-3.019-4.485-1.187-6.569 1.823-2.073 5.306-2.54 7.808-1.042 2.523 1.51 3.113 4.452 1.29 6.571" fill="#FFF"/><path d="M291.943 196.285c-1.834 2.131-5.388 2.596-7.91 1.04-2.5-1.545-3.019-4.485-1.187-6.569 1.823-2.073 5.306-2.54 7.808-1.042 2.523 1.51 3.113 4.452 1.29 6.571z" stroke="#263238" stroke-width="1.111" stroke-linecap="round"/><path d="M402.13 110.623l-38.934 48.336c-1.59 1.974-5.16 2.47-7.905 1.105l-81.94-40.757c-2.104-1.049-2.504-3.216-.907-4.82l44.147-44.34c1.385-1.392 4.229-1.87 6.339-1.067l20.075 7.653c.29.11.494.293.569.504.753 2.118 1.394 5.2 2.177 7.262l53.943 21.104c2.702 1.056 3.809 3.315 2.436 5.02z" stroke="#F03434" stroke-width="3.889"/><path d="M335.916 99.554c1.671-1.814 5.657-2.206 8.895-.868l4.967 2.052c3.319 1.37 4.704 4.033 3.039 5.914" fill="#FFF"/><path d="M335.916 99.554c1.671-1.814 5.657-2.206 8.895-.868l4.967 2.052c3.319 1.37 4.704 4.033 3.039 5.914" stroke="#37B1CC" stroke-width="2.222"/><path fill="#FFF" d="M335.916 99.554l-3.318 3.603"/><path stroke="#37B1CC" stroke-width="2.222" d="M335.916 99.554l-3.318 3.603"/><path fill="#FFF" d="M352.817 106.652l-3.308 3.737"/><path stroke="#37B1CC" stroke-width="2.222" d="M352.817 106.652l-3.308 3.737"/><path d="M338.7 131.395c-1.467 0-2.894-.306-4.125-.884l-21.472-10.091c-1.52-.713-2.524-1.822-2.756-3.043-.193-1.01.144-2.011.976-2.897l9.272-9.868c1.232-1.312 3.46-2.126 5.814-2.126 1.287 0 2.536.243 3.61.702l21.424 9.159c1.772.758 2.966 1.963 3.276 3.305.223.967-.048 1.925-.782 2.773l-9.23 10.659c-1.234 1.425-3.535 2.31-6.006 2.31" fill="#37B1CC"/><path d="M326.408 101.374c-2.58 0-5.123.88-6.624 2.477l-9.272 9.868c-2.397 2.553-1.469 6.021 2.118 7.706l21.472 10.091c1.425.67 3.025.99 4.598.99 2.708 0 5.335-.949 6.847-2.695l9.23-10.659c2.297-2.653.967-6.174-2.898-7.827l-21.423-9.159c-1.255-.536-2.657-.792-4.048-.792m0 2.222c1.138 0 2.236.213 3.175.613l21.423 9.16c1.421.607 2.404 1.554 2.63 2.532.142.616-.04 1.22-.539 1.796l-9.23 10.66c-1.029 1.188-3.009 1.926-5.167 1.926-1.306 0-2.569-.269-3.653-.778l-21.472-10.09c-1.193-.562-1.972-1.38-2.138-2.247-.155-.815.292-1.498.695-1.927l9.272-9.869c1.03-1.095 2.947-1.776 5.004-1.776" fill="#37B1CC"/><path d="M336.546 115.55c-.88.981-2.74 1.266-4.146.637-1.399-.627-1.813-1.92-.932-2.89.88-.968 2.72-1.253 4.118-.637 1.405.618 1.838 1.912.96 2.89" fill="#18343A"/><path d="M328.82 120.15c-.465-.212-.602-.654-.305-.982l3.574-3.949c.293-.324.912-.419 1.377-.212.466.207.608.643.315.968l-3.573 3.963c-.296.33-.921.424-1.387.212" fill="#18343A"/><path d="M329.654 48.584v-.005.005m4.128 2.126c-.046 0-.093-.003-.14-.005l.14.005m.002 0h-.001zm-4.154-2.208l-.002-.004a.008.008 0 01.001.004m4.011 2.204h-.002.004-.003zm.574.004l-.146.002c.05 0 .097-.002.146-.003m-.277.004h-.012.012zm.131-.001h-.13.13m-.143.001l-.141-.002.14.002" fill="#5600B7"/><path d="M286.962 247.844c-1.94 0-3.783-.574-5.329-1.662l-79.31-55.776c-1.149-.807-1.843-1.983-1.958-3.31-.135-1.575.546-3.236 1.87-4.559l1.823-1.82c1.547-1.546 3.82-2.469 6.077-2.469 1.415 0 2.705.36 3.732 1.04l79.623 52.734c1.874 1.24 3.132 3.131 3.452 5.185.294 1.892-.215 3.77-1.434 5.284l-1.873 2.331c-1.545 1.92-3.977 3.022-6.673 3.022L198.5 179.5" fill="#37B1CC"/><path d="M210.136 177.137c-2.461 0-5.04.973-6.863 2.793l-1.822 1.821c-3.027 3.024-2.948 7.326.233 9.564l79.31 55.776c1.787 1.257 3.893 1.864 5.968 1.864 2.893 0 5.725-1.18 7.539-3.437l1.874-2.33c3.068-3.816 2.01-9.259-2.271-12.093l-79.623-52.734c-1.248-.827-2.772-1.224-4.345-1.224m0 2.222c1.196 0 2.274.296 3.119.855l79.622 52.734c1.614 1.07 2.697 2.684 2.968 4.431.246 1.58-.181 3.147-1.202 4.416l-1.873 2.33c-1.314 1.633-3.485 2.61-5.808 2.61a8.112 8.112 0 01-4.69-1.46l-79.31-55.778c-.887-.624-1.402-1.487-1.49-2.497-.107-1.246.457-2.587 1.549-3.677l1.823-1.82c1.343-1.343 3.322-2.144 5.293-2.144" fill="#37B1CC"/><path d="M132.534 105.43l-15.067 49.346c-.394 1.293-2.205 2.333-4.031 2.336l-62.257.126c-1.827.004-3.641-1.028-4.041-2.32L28.95 96.2c-.944-3.046.643-5.624 3.557-5.63l26.793-.054c.375-.001.754.168 1.05.46 2.905 2.865 6.537 7.08 9.135 9.564l59.582-.12c2.75-.006 4.299 2.286 3.467 5.01" fill="#F03434"/><path d="M132.534 105.43l-15.067 49.346c-.394 1.293-2.205 2.333-4.031 2.336l-62.257.126c-1.827.004-3.641-1.028-4.041-2.32L28.95 96.2c-.944-3.046.643-5.624 3.557-5.63l26.793-.054c.375-.001.754.168 1.05.46 2.905 2.865 6.537 7.08 9.135 9.564l59.582-.12c2.75-.006 4.299 2.286 3.467 5.01z" stroke="#F03434" stroke-width="3.037"/><path fill="#FFF" d="M50.812 72.166v52.488h60.297v-71.14H73.183z"/><path stroke="#37B1CC" stroke-width="3.037" stroke-linejoin="round" d="M50.812 72.166v52.488h60.297v-71.14H73.183z"/><path stroke="#37B1CC" stroke-width="3.037" stroke-linejoin="round" d="M73.053 53.514V71.95h-22.24"/><path d="M133.679 114.354l-15.398 51.884c-.404 1.36-2.254 2.452-4.121 2.456l-63.638.13c-1.866.003-3.721-1.083-4.13-2.44l-18.595-61.74c-.965-3.204.657-5.915 3.636-5.92l27.387-.056c.383 0 .77.176 1.074.485 2.969 3.011 6.68 7.445 9.337 10.055l60.904-.123c2.81-.005 4.394 2.405 3.544 5.27" fill="#FFF"/><path d="M133.679 114.354l-15.398 51.884c-.404 1.36-2.254 2.452-4.121 2.456l-63.638.13c-1.866.003-3.721-1.083-4.13-2.44l-18.595-61.74c-.965-3.204.657-5.915 3.636-5.92l27.387-.056c.383 0 .77.176 1.074.485 2.969 3.011 6.68 7.445 9.337 10.055l60.904-.123c2.81-.005 4.394 2.405 3.544 5.27z" stroke="#F03434" stroke-width="3.037"/><path d="M199.542 113.912a.438.438 0 01-.478.361l-10.27-1.266-9.775-1.206c-.343-.043-.435-.472-.147-.69l11.539-8.748 11.539-8.748c.288-.218.676-.014.624.328l-1.48 9.739-1.552 10.23z" fill="#F03434"/><path d="M126.81 80.625c21.839-6.26 45.661-1.486 71.47 16.34a.498.498 0 01.043.789c-4.238 3.6-13.017 11.39-13.532 10.75-21.847-27.103-45.81-28.395-57.78-26.908-.606.075-.788-.802-.2-.971" fill="#F03434"/><path fill="#FFF" d="M318.183 423.097H449.47v-67.635H318.183z"/><path d="M450.05 354.295H317.601a.588.588 0 00-.586.586v68.797c0 .322.264.586.586.586h132.45a.588.588 0 00.585-.586v-68.797a.588.588 0 00-.586-.586zm-130.702 67.636h128.954V356.63H319.348v65.302z" fill="#B5B5B5"/><path d="M473.14 463.063l1.213 2.042c.741 1.246-.236 2.795-1.839 2.817H295.172c-1.625-.006-2.68-1.505-1.959-2.783l1.36-2.406" fill="#919191"/><path d="M473.14 463.063l1.213 2.042c.741 1.246-.236 2.795-1.839 2.817H295.172c-1.625-.006-2.68-1.505-1.959-2.783l1.36-2.406" stroke="#919191" stroke-width=".438"/><path d="M470.55 464.42H297.124c-1.925 0-3.135-.624-2.693-1.378l22.476-38.65c.322-.372 1.742-.674 3.158-.674H447.61c1.416 0 2.836.302 3.158.673l22.476 38.651c.442.754-.768 1.377-2.693 1.377" fill="#B5B5B5"/><path d="M470.55 464.42H297.124c-1.925 0-3.135-.624-2.693-1.378l22.476-38.65c.322-.372 1.742-.674 3.158-.674H447.61c1.416 0 2.836.302 3.158.673l22.476 38.651c.442.754-.768 1.377-2.693 1.377z" stroke="#B5B5B5" stroke-width=".583"/><path d="M424.413 461.391H343.26c-2.086 0-3.538-.367-3.23-.81l4.73-6.813c.24-.348 1.923-.629 3.74-.629h70.676c1.816 0 3.498.281 3.74.629l4.73 6.813c.308.443-1.145.81-3.231.81" fill="#666"/><path d="M453.317 449.9H314.849c-1.827 0-2.987-.673-2.582-1.488l9.63-19.396c.3-.604 1.812-1.094 3.363-1.094h117.565c1.552 0 3.066.49 3.367 1.094l9.702 19.396c.408.815-.75 1.489-2.577 1.489" fill="#D3D3D3"/><path d="M453.317 449.9H314.849c-1.827 0-2.987-.673-2.582-1.488l9.63-19.396c.3-.604 1.812-1.094 3.363-1.094h117.565c1.552 0 3.066.49 3.367 1.094l9.702 19.396c.408.815-.75 1.489-2.577 1.489zm-136.242-5.185h134.261m-132.97-4.636h131.398m-129.916-4.332h128.436m-127.107-4.057h125.746" stroke="#B5B5B5" stroke-width=".583"/><path d="M404.365 378.449v27.316c0 1.037-.967 1.884-2.148 1.884h-40.285c-1.182 0-2.15-.847-2.15-1.884v-30.77c0-1.036.968-1.884 2.15-1.884h10.866c.152 0 .297.055.403.15 1.053.952 2.393 2.41 3.413 3.304h25.603c1.18 0 2.148.848 2.148 1.884z" stroke="#F03434" stroke-width="1.826"/><path d="M378.126 385.893c0-1.194 1.328-2.173 2.95-2.173h2.46c1.622 0 2.95.979 2.95 2.173" fill="#FFF"/><path d="M378.126 385.893c0-1.194 1.328-2.173 2.95-2.173h2.46c1.622 0 2.95.979 2.95 2.173" stroke="#37B1CC" stroke-width="1.044"/><path fill="#FFF" d="M378.126 385.893v2.354"/><path stroke="#37B1CC" stroke-width="1.044" d="M378.126 385.893v2.354"/><path fill="#FFF" d="M386.485 385.893v2.354"/><path stroke="#37B1CC" stroke-width="1.044" d="M386.485 385.893v2.354"/><path d="M376.8 399.908a2.613 2.613 0 01-2.61-2.61v-5.953a2.613 2.613 0 012.61-2.61h11.013a2.613 2.613 0 012.61 2.61v5.954a2.613 2.613 0 01-2.61 2.609H376.8z" fill="#37B1CC"/><path d="M387.813 388.213h-11.014a3.14 3.14 0 00-3.131 3.131v5.954a3.14 3.14 0 003.13 3.131h11.015a3.14 3.14 0 003.13-3.13v-5.955a3.14 3.14 0 00-3.13-3.13m0 1.042a2.09 2.09 0 012.087 2.088v5.954a2.09 2.09 0 01-2.087 2.087h-11.014a2.09 2.09 0 01-2.087-2.087v-5.954a2.09 2.09 0 012.087-2.088h11.014" fill="#37B1CC"/><path d="M383.56 393.099c0 .607-.562 1.1-1.254 1.1s-1.254-.493-1.254-1.1c0-.607.562-1.1 1.254-1.1s1.254.493 1.254 1.1" fill="#18343A"/><path d="M382.332 396.642h-.053a.392.392 0 01-.39-.392v-2.393c0-.215.175-.392.39-.392h.053c.216 0 .392.177.392.392v2.393a.393.393 0 01-.392.392" fill="#18343A"/><path d="M49.663 466.766a2.909 2.909 0 01-2.905-2.905V358.477a2.908 2.908 0 012.905-2.905h152.219a2.909 2.909 0 012.906 2.905v105.384a2.91 2.91 0 01-2.906 2.905H49.663z" fill="#B5B5B5"/><path d="M201.882 354.807H49.663a3.68 3.68 0 00-3.67 3.67v105.384a3.68 3.68 0 003.67 3.67h152.22a3.68 3.68 0 003.67-3.67V358.477a3.68 3.68 0 00-3.67-3.67m0 1.529c1.18 0 2.14.96 2.14 2.141v105.384c0 1.18-.96 2.14-2.14 2.14H49.662a2.143 2.143 0 01-2.14-2.14V358.477c0-1.181.96-2.141 2.14-2.141h152.22" fill="#B5B5B5"/><path fill="#FFF" d="M56.499 460.386h133.759v-98.038H56.499z"/><path d="M198.18 414.05c-1.5 0-2.719-1.22-2.719-2.72a2.72 2.72 0 012.72-2.719 2.72 2.72 0 012.718 2.718c0 1.5-1.219 2.72-2.719 2.72" fill="#B5B5B5"/><path d="M198.18 407.846a3.484 3.484 0 100 6.968 3.484 3.484 0 000-6.968m0 1.53c1.078 0 1.955.876 1.955 1.953a1.957 1.957 0 01-1.955 1.955 1.957 1.957 0 01-1.955-1.955c0-1.077.877-1.954 1.955-1.954m-146.917.853a1.253 1.253 0 110 2.506 1.253 1.253 0 010-2.506" fill="#FFF"/><path d="M144.972 395.437v32.792a2.27 2.27 0 01-2.26 2.262h-42.404a2.27 2.27 0 01-2.262-2.262V391.29a2.268 2.268 0 012.262-2.261h11.437c.161 0 .313.066.424.18 1.11 1.143 2.52 2.894 3.593 3.966h26.95a2.268 2.268 0 012.26 2.26z" stroke="#F03434" stroke-width="2.053"/><path d="M117.354 404.374c0-1.435 1.397-2.608 3.105-2.608h2.588c1.708 0 3.105 1.173 3.105 2.608" fill="#FFF"/><path d="M117.354 404.374c0-1.435 1.397-2.608 3.105-2.608h2.588c1.708 0 3.105 1.173 3.105 2.608" stroke="#37B1CC" stroke-width="1.173"/><path fill="#FFF" d="M117.354 404.374v2.826"/><path stroke="#37B1CC" stroke-width="1.173" d="M117.354 404.374v2.826"/><path fill="#FFF" d="M126.153 404.374v2.826"/><path stroke="#37B1CC" stroke-width="1.173" d="M126.153 404.374v2.826"/><path d="M116.182 421.236a2.936 2.936 0 01-2.933-2.933v-7.625a2.936 2.936 0 012.933-2.932h11.145a2.936 2.936 0 012.933 2.932v7.625a2.936 2.936 0 01-2.933 2.933h-11.145z" fill="#37B1CC"/><path d="M127.326 407.159h-11.145a3.53 3.53 0 00-3.519 3.52v7.625a3.529 3.529 0 003.52 3.519h11.144a3.53 3.53 0 003.52-3.52v-7.624a3.53 3.53 0 00-3.52-3.52m0 1.173a2.349 2.349 0 012.346 2.347v7.625a2.349 2.349 0 01-2.346 2.346h-11.145a2.35 2.35 0 01-2.346-2.346v-7.625a2.35 2.35 0 012.346-2.347h11.145" fill="#37B1CC"/><path d="M123.074 413.025a1.32 1.32 0 11-2.639 0 1.32 1.32 0 012.639 0" fill="#18343A"/><path d="M121.754 417.277a.44.44 0 01-.44-.44v-2.932c0-.242.198-.441.44-.441s.44.199.44.44v2.934a.44.44 0 01-.44.439" fill="#18343A"/><path d="M395.427 210.3s46.07 25.554 13.406 116.908" stroke="#F03434" stroke-width="3.774" stroke-linecap="round" stroke-linejoin="round" stroke-dasharray="16.175,16.175"/><path d="M426.981 319.476l-.542-1.047a1.3 1.3 0 00-1.752-.557l-14.123 7.329a1.298 1.298 0 01-1.79-.64l-6.279-14.623a1.299 1.299 0 00-1.707-.681l-1.084.466a1.299 1.299 0 00-.68 1.706l7.883 18.35a1.298 1.298 0 001.791.64l17.727-9.193c.637-.33.885-1.113.556-1.75" fill="#F03434"/><path d="M124.545 210.3s-46.07 25.554-13.405 116.908" stroke="#F03434" stroke-width="3.774" stroke-linecap="round" stroke-linejoin="round" stroke-dasharray="16.175,16.175"/><path d="M92.991 319.476l.542-1.047a1.3 1.3 0 011.752-.557l14.123 7.329c.67.347 1.494.053 1.791-.64l6.278-14.623a1.299 1.299 0 011.707-.681l1.084.466a1.3 1.3 0 01.68 1.706l-7.883 18.35a1.298 1.298 0 01-1.79.64l-17.728-9.193a1.298 1.298 0 01-.556-1.75" fill="#F03434"/><text transform="rotate(36 261.325 221.331)" font-family="WorkSans-Bold, Work Sans" font-size="12" font-weight="bold" fill="#FFF"><tspan x="226.325" y="225.331">LOCK</tspan></text></g></svg>