<!-- by Tanja Rohlfs (http://tanjarohlfs.de/) - license: CC-BY-NC-SA (see: https://creativecommons.org/licenses/by-nc-sa/4.0/) -->
<svg width="780" height="500" xmlns="http://www.w3.org/2000/svg" xmlns:xlink="http://www.w3.org/1999/xlink"><defs><path id="a" d="M.211.544h35.583v14.863H.211z"/><path id="c" d="M.135.592h69.448v50.976H.135z"/><path id="e" d="M0 472h668V1H0z"/></defs><g fill="none" fill-rule="evenodd"><path fill="#FFF" d="M0 0h780v500H0z"/><g transform="translate(56 14)"><path d="M539.225 106.757l5.236-2.548 5.539-1.112L548.51 99l-2.8 1.278c.119-.23.059-.666-.16-.761-.248-.092-.749.137-1 .174l-.29.08c-1.21.155-1.97 1.308-2.887 2.104-.619.478-1.37.656-2.104.772-1.153.17-2.343.108-3.514-.114-.75-.187-1.473-.79-2.238-.71-.46.186-.573.866-.494 1.39.237 1.738 1.43 3.335 2.873 3.705.277.04.643.13.943.05l.08-.01 2.306-.201z" fill="#E0B094"/><path d="M361.686 99l1.314 3.224-4.987 1.266-3.786 3.51-1.865-.314-.075.01c-.234.085-.54 0-.778-.041-1.203-.345-2.237-1.844-2.482-3.502-.078-.493.004-.762.38-.937.632-.084 1.232.095 1.858.264.966.196 1.567-.102 2.524-.264.602-.116 1.412-.386 1.915-.866.725-.743 1.501-1.417 2.497-1.566l.234-.085c.202-.026.608-.26.824-.18.18.084.237.525.136.736L361.686 99z" fill="#F1D5C3"/><path d="M596 79v22h-1.773a4.996 4.996 0 001.139-2.732l.154-1.53.098-1.012c-1.879 1.49-4.8 3.003-8.922 3.003-4.108 0-6.874-.995-9.02-1.999l.138 1.366.016.172a5.006 5.006 0 001.146 2.732H577V79h19z" fill="#F4D9CE"/><path d="M47.894 196.752c-.215 1.128-1.736 4.547-1.736 4.547L45.078 206 42 205.119s.278-2.313.18-2.478c-.115-.205.05-.639.066-.843l.032-.243c.033-1.01.966-1.75 1.572-2.568.36-.562.442-1.187.475-1.8.049-.972-.115-1.942-.426-2.874-.23-.6-.818-1.137-.818-1.776.13-.396.704-.549 1.178-.536 1.523.026 3.03.856 3.472 2.005.238.726.377 1.618.163 2.746" fill="#F1D5C3"/><path d="M392.881 458.648c.24.62.044 11.899.044 11.899s-33.589.94-39.24.113c-2.573-.376 2.747-4.706 5.328-5.072 14.816-2.1 16.498-5.183 20.864-7.346 10.034-4.971 12.766-.214 13.004.406m26.214-.948c-.236.626.043 11.997.043 11.997s33.545.752 39.183-.114c2.565-.393-2.779-4.728-5.36-5.083-14.807-2.03-16.511-5.129-20.884-7.285-10.056-4.954-12.748-.14-12.982.485" fill="#69BAC9"/><path d="M572.884 457.648c.233.62.043 11.899.043 11.899s-32.75.94-38.26.113c-2.508-.377 2.68-4.707 5.196-5.072 14.445-2.1 16.086-5.184 20.342-7.346 9.783-4.971 12.446-.214 12.679.406m27.208-.948c-.23.625.043 11.998.043 11.998s32.706.751 38.203-.115c2.501-.393-2.71-4.728-5.226-5.083-14.437-2.03-16.098-5.129-20.363-7.285-9.803-4.954-12.428-.14-12.657.485" fill="#383838"/><path d="M138.209 151.451s-2.663.41-3.017.544c-.52.197.18-5.995.18-5.995l3.628 5.295-.791.156zm6.568-25.82s2.617-.491 2.962-.626c.507-.197.118 4.995.118 4.995L144 125.807l.777-.176z" fill="#2B5165"/><path d="M119.358 168.621l-35.822.117-35.784.117s-2.59-13.213-3.866-13.202c-1.276.011-3.79 13.27-3.79 13.27l-7.734.077s-.714-9.867-.136-41.655c.297-16.302 13.492-21.984 11.402-51.012-3.84-53.335 17.234-61.496 29.077-63.601 5.332-.948 15.343-.98 20.682-.068 11.856 2.029 32.984 10.051 29.492 63.41-.274 4.182-.234 7.877.037 11.187 1.605 19.688 11.352 25.796 11.696 39.75.785 31.784.136 41.656.136 41.656l-7.734-.027s-2.601-13.242-3.876-13.245c-1.277-.004-3.78 13.226-3.78 13.226" fill="#FF3434"/><path d="M119.358 168.621l-35.822.117-35.784.117s-2.59-13.213-3.866-13.202c-1.276.011-3.79 13.27-3.79 13.27l-7.734.077s-.714-9.867-.136-41.655c.297-16.302 13.492-21.984 11.402-51.012-3.84-53.335 17.234-61.496 29.077-63.601 5.332-.948 15.343-.98 20.682-.068 11.856 2.029 32.984 10.051 29.492 63.41-.274 4.182-.234 7.877.037 11.187 1.605 19.688 11.352 25.796 11.696 39.75.785 31.784.136 41.656.136 41.656l-7.734-.027s-2.601-13.242-3.876-13.245c-1.277-.004-3.78 13.226-3.78 13.226z" stroke="#FF3434" stroke-linecap="round" stroke-linejoin="round"/><path d="M71.3 95.028c.124 0 23.32-.064 23.67 0 .35.065-2.546 2.918-2.546 2.918s-12.834 1.116-13.01 1.051C79.24 98.933 71 95.501 71 95.501l.3-.473zM26.985 151.42s3.315.434 3.756.575c.648.207-.123-5.995-.123-5.995L26 151.257l.985.164zm-5.762-24.789s-2.618-.49-2.962-.626c-.507-.197-.118 4.995-.118 4.995L22 126.807l-.777-.176z" fill="#2B5165"/><g transform="translate(36 456)"><mask id="b" fill="#fff"><use xlink:href="#a"/></mask><path d="M35.688 3.168c.213.613.04 11.79.04 11.79S5.847 15.89.82 15.07c-2.288-.373 2.444-4.664 4.74-5.026 13.18-2.08 14.677-5.135 18.56-7.278 8.926-4.927 11.356-.213 11.568.402" fill="#E26666" mask="url(#b)"/></g><path d="M96.083 458.7c-.207.626.038 11.997.038 11.997s29.352.752 34.285-.114c2.244-.393-2.432-4.728-4.69-5.083-12.957-2.03-14.447-5.129-18.274-7.285-8.798-4.954-11.154-.14-11.36.485" fill="#E26666"/><path d="M134.171 118.522C120.157 103.196 113 124.635 113 124.635s6.845 13.817 22.482 24.13C154.763 161.478 201 166.182 225 128.517l-15.206-2.471c-3.178 7.713-36 20.308-57.062 7.155-11.312-7.064-8.75-6.46-16.145-13.687l-2.416-.993zM55.007 48.437c-.118-.155-6.11-2.29-6.006 4.521.106 6.81 4.252 5.874 6.163 6.04 1.912.165-.039-10.406-.157-10.561m55.941-.985c.117-.156 6.114-2.329 6.052 4.472-.065 6.8-4.23 5.894-6.147 6.074-1.916.177-.023-10.391.095-10.546M82.613 84C64.22 80.903 59.728 73.623 59.437 71.368 58.344 62.938 58 34.898 58 34.898L82.469 26 107 34.738s-.163 28.041-1.2 36.479c-.274 2.24-4.66 9.464-22.71 12.715-.128.023-.477.068-.477.068" fill="#F1D5C3"/><path d="M69.989 48c1.104-.004 2.005 1.56 2.011 3.492.007 1.932-.885 3.504-1.989 3.508-1.104.003-2.005-1.562-2.011-3.494-.006-1.932.885-3.502 1.989-3.506m27 0c1.104-.004 2.005 1.56 2.011 3.492.006 1.932-.885 3.504-1.989 3.508-1.104.003-2.005-1.562-2.011-3.494-.007-1.932.885-3.502 1.989-3.506" fill="#000"/><path d="M82.49 64c-.444-.141-1.328-.424-1.45-1.069-.166-.893.217-2.876.444-4.293.24-1.488.827-3.865.993-4.638.169.772.77 3.144 1.02 4.63.235 1.416.627 3.395.465 4.29-.117.646-1 .935-1.44 1.08h-.033z" fill="#FF3434"/><path d="M42 208a74.18 74.18 0 00-3.792-1.241 6.641 6.641 0 01-1.585-.901c-.358-.28-.656-.67-.62-1.132.024-.718.37-1.46.978-1.91.38-.232 1.573-.744 2.026-.816.87.268 1.658.45 2.361.572l.072.62.035.268v.012L42 208zm-5.24-1.234a8.1 8.1 0 01-.736-.434.56.56 0 01.52-.173c.455.152.499.39.369.672v.022a.356.356 0 01-.152-.087" fill="#F1D5C3"/><path d="M42 207.857l-1-.714c.326.215.663.433.99.672l.01.042zm-4.076-.354c1.297.349 2.947.839 4.557 1.33L43 213c-.846-.31-1.706-.594-2.715-.8-1.01-.18-2.074-.258-2.988-.684-.383-.168-.615-.49-.82-.813-.34-.567-.532-1.226-.463-1.87.082-.53.3-1.046.56-1.536.04-.09.122-.193.204-.297.382.193.778.349 1.146.503" fill="#F1D5C3"/><path d="M43 216a101.49 101.49 0 01-5.242-1.21c-.065-.013-.142-.026-.205-.051a4.195 4.195 0 01-.385-.103h-.013c-.282-.065-.538-.142-.82-.219l-.423-.116C-3.401 203.313-3.67 174.594 3.765 154.213c4.114-11.284 10.46-19.338 14.445-23.636a57.237 57.237 0 012.051-2.11c1-.965 1.602-1.467 1.602-1.467s.064 0 .167.013c1 .077 6.19.592 9.665 3.178 3.384 2.51 5.152 6.961-.167 14.861l-.077.116c-.269.399-.525.785-.794 1.146a8.54 8.54 0 01-.45.655c-1.101 1.583-2.089 2.934-2.985 4.182h-.013c-3.153 4.4-5.243 7.708-7.627 15.904-6.05 20.857 9.344 31.266 18.586 34.303a.359.359 0 00-.167 0c-.538.102-1.076.231-1.577.463-1.012.617-1.602 1.852-1.448 2.972.141.682.64 1.184 1.243 1.583-.205.27-.359.566-.474.874-.41.914-.487 1.969-.077 2.908l.039.104c.205.41.435.836.781 1.158.078-.09.167-.168.27-.168.025-.013.05-.013.077-.013.012 0 .012 0 .025.013l.026-.025 2.704.874h.013c.256.051.5.09.692.142.77.18 1.552.386 2.333.617l.026.232.013.103L43 216zM82.306 82.802l-8.096-1.75-.21 18.03L82.385 101h.244L91 99.026 90.67 81l-8.084 1.801z" fill="#F1D5C3"/><path d="M82.73 196.965s-34.367.586-34.594-3.053c-.858-13.758 4.844-54.9 4.844-54.9s-23.15 16.928-22.505 11.922c.785-6.089-7.413-20.75-12.378-24.411-2.604-1.92 47.909-36.09 54.388-30.911 3.21 2.565 9.925 2.995 9.925 2.995s6.715-.474 9.907-3.06c6.445-5.222 57.18 28.617 54.587 30.554-4.94 3.695-12.944 18.694-12.119 24.778.678 5.002-22.68-12.06-22.68-12.06s4.824 40.887 4.055 54.651c-.203 3.64-33.43 3.495-33.43 3.495" fill="#69BAC9"/><path d="M116.543 190.615c-1.696.562-72.702-3.178-69.266 2.998-7.968 43.687-6.217 88.524-5.882 132.741 1.66 44.604 3.23 90.914 17.043 133.374l.437.103 11.47.169c.746-.065 1.21-.608 1.17-1.357-6.114-69.103-3.642-139.538 11.367-207.387 15.614 67.927 18.188 138.49 12.744 207.826-.09 1.86 11.79.09 12.589.556 17.261-51.814 15.948-110.18 16.785-164.928-1.377-34.28 1.403-71.624-8.457-104.095" fill="#2B5165"/><path d="M45.37 218.364c1.147 1.032 2.216 2.58 2.6 3.955.106.377-.05 1.992-.859 1.628-.882-.396-1.5-1.44-2.354-1.954a38.163 38.163 0 00-2.167-1.227c-.53-.272-1.08-.507-1.61-.78-1.838-.946-6.96-3.632-4.16-5.986l8.55 4.364z" fill="#F1D5C3"/><path d="M50.667 220.763c-.745.887-3.124-.964-3.974-1.484-.575-.342-1.15-.697-1.726-1.04-.052-.025-.104-.063-.156-.088-.105-.064-.21-.127-.327-.203-.13-.076-.274-.152-.418-.24-.993-.572-2.014-1.13-3.11-1.624-.302-.14-.629-.266-.969-.406-.927-.367-1.934-.76-2.758-1.318h-.013a7.221 7.221 0 01-.47-.342 3.931 3.931 0 01-.64-.672c-.314-.418.13-1.458.574-2.054.066-.09.131-.165.196-.228l.04-.038.026-.026 2.758.862h.013l3.111.977 1.764.545 2.367.735c.012.013.026.013.039.025l.797.241c.078.064.21.203.392.393v.013c.013 0 .013.013.026.013 1.098 1.204 3.712 4.462 2.458 5.959m-13.091-14.22a.342.342 0 01-.152-.087l.152.067v.02z" fill="#F1D5C3"/><path d="M37.136 211L40 212c-.855-.161-1.927-.338-2.634-.735h-.013a1.424 1.424 0 01-.285-.192c-.027-.015-.041-.029-.068-.044.027-.015.054-.015.081-.015.014 0 .014 0 .028.015l.027-.029" fill="#F1D5C3"/><path d="M50.874 215.262c-.796 1.354-2.287.532-3.134 0-.012 0-.012-.012-.025-.012v-.013c-.228-.14-.405-.253-.506-.316a14.57 14.57 0 00-.644-.317c-.013-.013-.026-.013-.038-.025a28.333 28.333 0 00-2.262-.924 39.935 39.935 0 00-1.757-.582l-.025-.19c-.784-.303-1.58-.582-2.515-.784-.935-.178-1.92-.253-2.767-.67-.354-.165-.57-.482-.759-.798-.316-.557-.492-1.202-.43-1.835.076-.519.279-1.024.519-1.505a1.6 1.6 0 01.19-.291c.353.19.72.341 1.06.493 1.201.342 2.73.823 4.221 1.303l-.037-.316 2.83.987 2.364.81a.039.039 0 00.025.012c1.301.583 4.486 3.607 3.69 4.973" fill="#F1D5C3"/><path d="M36.76 206.766a8.1 8.1 0 01-.736-.434.56.56 0 01.52-.173c.455.152.499.39.369.672v.022a.356.356 0 01-.152-.087" fill="#E5B79E"/><path d="M36.913 206.831v.021a.35.35 0 01-.152-.086c-.26-.13-.498-.282-.737-.434a.556.556 0 01.52-.173c.455.151.499.39.369.672m8.515-6.277l.13-.108c.043.087-.022.108-.13.108m6.826 10.4c-.333.25-2.828-.588-3.908-.963-.167-.05-.334-.112-.502-.162v-.013c-.81-.275-1.62-.55-2.455-.838-.952-.325-1.929-.663-2.893-.963l-.026-.263a83.01 83.01 0 00-4.088-1.275c-.605-.238-1.196-.538-1.71-.926-.386-.288-.707-.688-.669-1.163a2.546 2.546 0 011.055-1.964c.411-.238 1.697-.763 2.185-.838l-.013-.013c1.248-.138 2.585-.162 3.639-.275.064-.013.141-.013.206-.013.836-.087 1.569-.062 2.391-.274.052-.026.154 0 .218.012l-2.738 2.251c.051.15.167.288.334.413.103.1.219.176.36.25.63.4 1.543.688 2.032.8.09.026.193.051.308.076.013.012.039.012.052.012 2.854.801 9.115 3.978 6.222 6.13" fill="#F1D5C3"/><path d="M36.913 206.831v.021a.35.35 0 01-.152-.086c-.26-.13-.498-.282-.737-.434a.556.556 0 01.52-.173c.455.151.499.39.369.672" fill="#E5B79E"/><path d="M44.555 217.81c.091.063.169.114.247.19-.04 0-.285-.089-.674-.292-.052-.025-.09-.038-.13-.064-1.682-.838-2.02-.939-2.706-1.256-1.658-.762-3.56-1.245-4.895-2.49a1.857 1.857 0 01-.285-.266c-.155-.178-.336-.369-.388-.597-.078-.33 0-.673.116-.978.13-.343.324-.66.557-.952.052-.051.104-.115.156-.165-.35-.318-.583-.737-.79-1.143l-.04-.102c-.413-.927-.336-1.968.079-2.87.116-.304.271-.596.479-.863-.61-.394-1.114-.89-1.257-1.562-.155-1.105.44-2.324 1.464-2.933.505-.229 1.049-.356 1.593-.457a.37.37 0 01.168 0c.04.012.065.025.09.025.079.013.143.038.195.05.117.039.233.077.336.102h.027l.012.013c-.491.076-1.786.61-2.2.851a2.587 2.587 0 00-1.063 1.994c-.039.482.285.888.673 1.18.519.394 1.114.699 1.723.94 1.256.356 2.706.812 4.118 1.296 1.062.368 2.097.736 2.965 1.066 1.386.521 2.37.927 2.447 1.029v.012h-.025s-.013 0-.026-.012c-.544-.09-1.411-.318-2.448-.61-.854-.254-1.838-.559-2.836-.876a143.895 143.895 0 00-4.325-1.308c-.35-.152-.725-.305-1.087-.496-.078.102-.156.204-.194.293-.247.482-.454.99-.531 1.51-.066.636.116 1.284.44 1.842.194.318.414.635.777.8.867.42 1.877.495 2.836.673.958.203 1.774.483 2.577.788.582.215 1.165.456 1.825.71.091.039.195.077.298.115.855.33 1.114.457 1.93.825.025.013.064.038.09.051.013.013.026.013.04.025.31.178.724.433 1.087.61-.388-.127-1.93-.711-3.483-1.245a34.07 34.07 0 00-1.723-.57 6.949 6.949 0 00-.401-.128c-1.282-.38-2.616-.635-3.937-.863-.466-.102-.945-.216-1.372-.432-.13.14-.246.267-.337.419-.22.355-.453.762-.401 1.194.038.152.18.266.285.393.323.356.75.686 1.204.99.168.115.35.23.53.331.014.013.026.013.04.025.258.152.53.292.802.419.026 0 .04.013.065.026.104.05.22.101.324.14.906.355 3.004 1.333 4.415 2.234.143.09.285.178.415.267a.652.652 0 00.117.089c.012 0 .012.013.012.013" fill="#E5B79E"/><path d="M82.97 39.893c-.578.002-12.735.067-12.735.067s-.887-9.896-1.422-9.892c-.537.005-1.8 9.914-1.8 9.914l-10.67-.08s-.045-4.996-.067-9.525l-.015-4.533 26.66-.32 26.663.152.015 4.534a2309.7 2309.7 0 01-.003 9.524l-10.668.149s-1.33-9.902-1.866-9.903c-.537 0-1.357 9.9-1.357 9.9l-12.735.014" fill="#FF3434"/><path d="M82.97 39.893c-.578.002-12.735.067-12.735.067s-.887-9.896-1.422-9.892c-.537.005-1.8 9.914-1.8 9.914l-10.67-.08s-.045-4.996-.067-9.525l-.015-4.533 26.66-.32h0l26.663.152.015 4.534a2309.7 2309.7 0 01-.003 9.524l-10.668.149s-1.33-9.902-1.866-9.903c-.537 0-1.357 9.9-1.357 9.9l-12.735.014" stroke="#FF3434" stroke-linecap="round" stroke-linejoin="round"/><path d="M73 68.074c2.576 2.87 16.925 2.268 19-.074" stroke="#DF715C" stroke-width=".5" stroke-linecap="round" stroke-linejoin="round"/><path d="M75 85.085c-.002.607.004.915.004.915L91 84.46 90.956 82l-15.821.05" fill="#DF715C"/><path d="M46.004 143.994C46.217 143.791 54 128 54 128l-.732 10.999s-7.476 5.198-7.264 4.995m73.992-1C119.783 142.791 112 127 112 127l.732 10.999s7.476 5.198 7.264 4.995" fill="#2B5165"/><path d="M274.99 319.684c.107 28.383-.576 56.825-3.246 85.092-1.936 19.89-4.778 39.84-10.767 58.94l-7.104.248c-.47-25.88 1.736-52.464.874-78.649-1.05-29.445-3.94-58.88-9.495-87.827a457.696 457.696 0 00-3.192-15.185c-.415-1.79-.84-3.638-1.284-5.422-.172-.596-.278-1.416-.56-1.98-.41-.505-1.284-.58-1.691.006-2.095 7.79-3.569 15.786-5.092 23.715-5.288 28.938-7.937 58.33-8.762 87.724-.655 25.884 1.32 51.843 1.294 77.654l-7.016-.124c-4.543-14.16-7.376-28.846-9.34-43.587-2.53-18.76-3.885-37.677-4.696-56.585-.982-23.013-1.104-46.118-.687-69.146.215-11.3.565-22.631 1.099-33.92.441-5.865 1.454-12.511 2.035-18.36l.011-.011c.692-4.686 1.455-9.4 2.349-14.052l58.95-.215c1.502 7.408 2.636 14.983 3.48 22.5 1.005 6.732 1.409 13.928 1.657 20.697a1313.87 1313.87 0 011.182 48.487m-34.207-202.347l-8.574-2.28-.208 23.442 8.88 2.501.258-.001L250 138.44l-.363-23.44-8.558 2.336z" fill="#F1D5C3"/><path d="M232.147 116.018s-.145 2.594-.146 3.077c-.003.6.003.905.003.905L250 118.477l-.01-2.477-17.843.018z" fill="#DF715C"/><path d="M275.158 208.735c-.332-1.45-34.567-.308-34.567-.308l-34.178.308c-3.87 3.388-7.205 142.708-6.247 145.107 15.403 12.21 65.371 12.21 80.774 0 .632-2.517-3.903-134.903-5.782-145.107" fill="#383838"/><path fill="#C7C7C7" d="M233.14 138h7.817l.043 73h-5.52L231 138.727z"/><path d="M241.228 41c35.598 1.49 39.924 17.687 39.419 27.01-.329 6.053-.12 12.122.895 18.103.134.79.267 1.588.396 2.385.317 1.948-.612 4.19-2.11 6.405-4.786 7.078-13.103 11.146-21.825 11.097l-34.412-.193c-7.89-.043-15.429-3.462-20.294-9.49-2.127-2.636-3.623-5.43-3.236-7.82.26-1.594.532-3.196.8-4.716.87-4.944.979-9.969.549-14.967-.79-9.161 2.717-26.28 39.362-27.814h.456z" fill="#69BAC9"/><path d="M240.994 61.593c.109.026 7.306-.951 16.812-.45 9.505.501 9.193 13.489 9.193 13.489s-1.827 31.949-2.447 32.823c-.668.942-7.14 8.544-23.55 8.544l.004.001c-16.416 0-22.89-7.602-23.558-8.545-.62-.874-2.447-32.823-2.447-32.823s-.312-12.988 9.196-13.489c9.508-.501 16.707.476 16.816.45h-.019z" fill="#F1D5C3"/><path d="M235 86c0 5.523-3.805 10-8.5 10s-8.5-4.477-8.5-10 3.805-10 8.5-10 8.5 4.477 8.5 10z" stroke="#000"/><path d="M228 85.5c0 1.933-.672 3.5-1.5 3.5s-1.5-1.567-1.5-3.5.672-3.5 1.5-3.5 1.5 1.567 1.5 3.5" fill="#000"/><path d="M235 84c.328-.059 4.03-1 6-1m6 3c0 5.523 3.805 10 8.5 10s8.5-4.477 8.5-10-3.805-10-8.5-10-8.5 4.477-8.5 10z" stroke="#000"/><path d="M254 85.5c0 1.933.672 3.5 1.5 3.5s1.5-1.567 1.5-3.5-.672-3.5-1.5-3.5-1.5 1.567-1.5 3.5" fill="#000"/><path d="M247 84c-.328-.059-4.03-1-6-1" stroke="#000"/><path d="M230 100c-.155 0-2.845-.036-3 2m25 0c-1.94 1.333-20.061 1.333-22 0m22-2c.155 0 2.845-.036 3 2" stroke="#DF715C" stroke-width=".5" stroke-linecap="round" stroke-linejoin="round"/><path d="M215.992 83.808c0 3.208.275 7.192-2.484 7.192-2.76 0-7.508-3.984-7.508-7.192S208.236 78 210.996 78c2.76 0 4.996 2.6 4.996 5.808m50.016 0c0 3.208-.275 7.192 2.484 7.192 2.76 0 7.508-3.984 7.508-7.192S273.763 78 271.003 78c-2.759 0-4.995 2.6-4.995 5.808" fill="#F1D5C3"/><path d="M240.91 40c.292 0 20.09-.292 20.09-9.823S245.191 19 241.002 19h-.004C236.809 19 221 20.646 221 30.177 221 39.708 240.798 40 241.09 40h-.18zm25.065 20.07a1.78 1.78 0 00-1.352-.824L240.966 57h-.014v.001l-22.78 2.24a1.777 1.777 0 00-1.36.847l-5.58 9.393c-.643 1.081.123 2.43 1.425 2.512a1.798 1.798 0 001.652-.844c1.256-2.058 5.141-6.719 13.81-4.827 5.334 1.165 9.133-1.66 12.84-1.664 3.842.003 7.779 2.829 13.308 1.664 9.024-1.9 13.047 2.81 14.33 4.854.342.544.969.86 1.634.82l.108-.006c1.316-.08 2.083-1.452 1.416-2.535l-5.78-9.385z" fill="#69BAC9"/><path d="M248 40.5c0 .829-3.134 1.5-7 1.5s-7-.671-7-1.5 3.134-1.5 7-1.5 7 .671 7 1.5" fill="#2B5165"/><path d="M240.944 94c-.885-.071-2.625-.214-2.864-.548-.331-.463.442-1.493.902-2.228.4-.639 1.28-1.594 1.761-2.133.108-.121.376-.122.485 0 .484.535 1.371 1.485 1.778 2.121.466.734 1.244 1.758.916 2.223-.237.335-2.095.488-2.978.565" fill="#FF3434"/><path d="M187 238.034c1.263.656 10.102 3.6 10.297 2.843 1.662-6.451 1.2-9.911 1.702-16.246.086-1.085-6.188-5.516-9.154-6.631-.523 7.132-1.893 12.968-2.845 20.034" fill="#C7C7C7"/><path d="M188.315 239.677c-61.39-62.878 15.18-112.41 38.938-115.677 4.818 18.882 10.46 34.127 13.607 52.89.32 1.913-.01 3.458-.013 5.543-2.4 9.362-3.068 27.971-4.373 35.776-1.757 10.517 1.026 11.137-7.287 15.058-6.59 3.11-16.591 4.866-24.292 6.684-1.568.37-1.767-1.46-1.97-2.577-1.72-9.428 14.679-70.773.469-74.07-17.81-4.131-29.308 38.286-11.37 55.114-1.412 7.859-1.205 14.344-3.71 21.259" fill="#2B5165"/><path fill="#E58585" d="M231.38 122L210 129.605l13.873 9.773-5.694 3.835L241 182l-.005-6.423z"/><path stroke="#E58585" stroke-linecap="round" stroke-linejoin="round" d="M231.38 122L210 129.605l13.873 9.773-5.694 3.835L241 182l-.005-6.423z"/><path d="M207 219.752l-1.472 4.547-.917 4.701-2.611-.881.736-2.453c.014 0 .014 0 .028-.012.097-.09.125-.37.125-.486.028-.37-.014-.741.055-1.099-.083.333-.208 1.29-.152 1.24l.056-.013-.112.37c-.153.14-.5.14-.583-.025-.097-.205.042-.639.055-.843l.028-.243c.028-1.01.82-1.75 1.334-2.568.305-.562.374-1.187.402-1.8a9.122 9.122 0 00-.36-2.874c-.196-.6-.695-1.137-.695-1.776.11-.396.597-.549 1-.536 1.291.026 2.57.856 2.944 2.005.056.23.152.537.111.78v.063l.028 1.903z" fill="#F1D5C3"/><path d="M202.663 224c-.108.448-.043.912-.087 1.376 0 .144-.043.496-.195.608-.022.016-.022.016-.044.016l.174-.463-.087.015c-.087.064.109-1.136.239-1.552" fill="#F1D5C3"/><path d="M202.663 224c-.108.448-.043.912-.087 1.376 0 .144-.043.496-.195.608-.022.016-.022.016-.044.016l.174-.463-.087.015c-.087.064.109-1.136.239-1.552m.927 18.364c1.05 1.032 2.03 2.58 2.383 3.955.097.377-.046 1.991-.788 1.628-.808-.397-1.375-1.441-2.158-1.955a34.49 34.49 0 00-1.987-1.226c-.485-.272-.99-.508-1.475-.78-1.685-.946-6.38-3.632-3.814-5.986l7.838 4.364z" fill="#F1D5C3"/><path d="M196.812 235c-.427.452-1.047 1.842-.72 2.354.91 1.424 2.847 2.03 4.206 2.738 1.776.927 3.34 2.059 4.971 3.194.738.513 2.797 2.361 3.44 1.479 1.272-1.744-2.01-5.88-2.49-6.381L196.812 235z" fill="#F1D5C3"/><path d="M204 242c-1.1-.976-3.608-2.286-4.582-2.707-.887-.409-1.947-1.101-2.598-1.86-.09-.12-.213-.236-.249-.386-.044-.408.158-.805.353-1.149.096-.173.232-.32.353-.473a.29.29 0 00-.213-.423c-.208-.023-.325.19-.441.331a3.728 3.728 0 00-.49.922c-.104.298-.176.628-.104.943.048.222.202.4.339.575 1.175 1.385 2.982 1.878 4.54 2.67.617.312.905.395 2.49 1.272.364.2.58.291.602.285" fill="#E5B79E"/><path d="M196.847 231c-.28.338-.537.85-.76 1.662-.247.89.047 2.035.71 2.85.593.73 2.415.864 3.34 1.09 2.184.533 4.494 1.324 6.4 2.366.476.258 2.422 1.973 3.345.325.737-1.313-2.176-4.214-3.372-4.782L196.847 231z" fill="#F1D5C3"/><path d="M207 239c-.38-.195-.853-.53-1.143-.727-.703-.368-.937-.492-1.682-.826-1.465-.64-2.544-1.24-4.088-1.617-.825-.184-1.701-.265-2.461-.68-.316-.164-.509-.492-.675-.809-.282-.563-.44-1.213-.382-1.853.067-.527.247-1.04.461-1.517.115-.307.647-.762.127-.964-.2-.047-.319.154-.415.306-.18.282-.32.598-.432.917-.367.919-.43 1.958-.07 2.892l.038.103c.172.427.392.852.708 1.179.453.419 1.057.587 1.628.734 1.152.23 2.308.487 3.424.876 1.79.612 4.622 1.88 4.932 1.98l.03.006" fill="#E5B79E"/><path d="M204.313 225c.05.124-.173.018-.27.046-.818.234-1.56.195-2.399.29-1.541.173-3.745.15-5.2.692-.97.363-1.696 1.955-1.361 2.934.32.935 2.04 1.773 2.922 2.019 2.871.799 5.895 1.987 8.697 3.014 1 .366 3.302 1.208 3.61.96 2.788-2.245-3.641-5.597-6.085-6.19-.686-.168-2.282-.76-2.52-1.458l2.606-2.307z" fill="#F1D5C3"/><path d="M204 228.825c-.02-.007-.267-.129-.285-.135-.26-.089-.412-.064-.629-.088-.325-.036-.493-.116-.728-.355-.136-.124-.345-.356-.358-.189-.001.132.107.25.201.349.627.543.692.332 1.54.532.108.029.12.029.228.061.015-.088.023-.11.031-.175m-6.34 1.996c-.538-.223-1.06-.504-1.507-.875-.341-.273-.619-.655-.592-1.104.024-.706.355-1.43.927-1.867.366-.223 1.499-.718 1.926-.794-.133-.045-.252-.088-.323-.108-.09-.023-.244-.1-.395-.063-.483.087-.956.207-1.397.419-.894.572-1.41 1.712-1.279 2.75.23 1.157 1.528 1.762 2.525 2.2 2.62.787 7.012 2.402 8.455 2.621-.013-.18-5.04-2.188-8.34-3.179" fill="#E5B79E"/><path fill="#C7C7C7" d="M248.861 138h-7.819L241 211h5.52l4.48-72.273zm-21.958 310.007h-13.407s-.726 11.87-2.94 13.047C208.34 462.23 196 466.937 196 468.54V471h20.99s1.054-5.881 2.635-5.881c1.583 0 1.477 5.668 1.9 5.668h4.429s1.424-23.26.95-22.78m26.193 0h13.407s.726 11.87 2.942 13.047C271.66 462.23 284 466.937 284 468.54V471h-20.989s-1.055-5.881-2.636-5.881c-1.582 0-1.477 5.668-1.899 5.668h-4.43s-1.424-23.26-.95-22.78"/><path d="M283.933 158.907c-16.324-6.714-1.957 70.074-3.683 79.474-.206 1.115-.405 2.94-1.98 2.57-7.737-1.812-17.783-3.565-24.403-6.664-8.351-3.911-5.555-4.528-7.321-15.016-1.31-7.782-1.982-26.338-4.393-35.673-.003-2.079-.335-3.62-.012-5.527 3.161-18.708 6.48-32.004 11.32-50.832 10.307 1.407 23.65 2.907 42.156 14.654 2.154.351 39.046 24.398 62.565-33.8C366.887 86.554 372 106.19 372 106.19s-10.987 84.421-88.067 52.717" fill="#2B5165"/><path fill="#E58585" d="M250.62 122l21.38 7.605-13.873 9.773 5.694 3.835L241 182l.005-6.423z"/><path stroke="#E58585" stroke-linecap="round" stroke-linejoin="round" d="M250.62 122l21.38 7.605-13.873 9.773 5.694 3.835L241 182l.005-6.423z"/><path d="M244 180a3 3 0 11-6 0 3 3 0 016 0" fill="#69BAC9"/><path d="M364 197.457l-1.757 5.207-.467 5.336-3.739-.96.865-2.774c-.19.137-.602.326-.706.129-.104-.223-.905-1.758 1.71-4.387.364-.633.45-1.361.485-2.063.043-1.105-.121-2.219-.424-3.298-.234-.685-.831-1.301-.831-2.03.12-.454.71-.633 1.177-.616 1.549.034 3.064.985 3.522 2.303.061.257.174.592.13.883v.077l.035 2.193z" fill="#E0B094"/><path d="M404.465 244.5c0 .015-.015.015-.015.015v.028c.029-.028.072-.058.1-.086l-.085.043m-42.901-3.5l-.128 1c.024-.335.071-.665.128-1" fill="#C7C7C7"/><path d="M406 244.45c-.727-.618-1.595-.327-2 .55.077-.324.158-.694.462-.826 0-.008.007-.016.007-.025.5-.266 1.143-.182 1.531.3m.748.551a2.74 2.74 0 01-.496-1c.198.292.368.64.496 1" fill="#C7C7C7"/><path d="M447.548 208.878c-1.278-4.468-.933-17.664-4.197-19.878l-75.75.253c-1.497.17-1.405 1.707-1.708 2.746-11.248 87.176-13.31 183.061 12.965 266.832l12.838.169c-2.768-68.007-4.35-141.243 14.024-209.233 17.456 68.083 20.342 138.768 14.243 208.313-.102 1.866 13.191.092 14.075.549 25.34-78.702 20.157-167.78 13.51-249.75" fill="#C7C7C7"/><path d="M392.3 92.036c.124 0 23.32-.08 23.67 0 .35.08-2.547 3.647-2.547 3.647s-12.834 1.395-13.009 1.314c-.174-.08-8.414-4.371-8.414-4.371l.3-.59z" fill="#883434"/><path fill="#E0B094" d="M404.336 90.824l-8.092-.77-.244 8.099 8.381.847h.244l8.375-.901-.297-8.099-8.086.824z"/><path d="M364.919 213a412.48 412.48 0 00-.838 4c.038-.12.776-3.88.838-4m.078-5a127.838 127.838 0 01-.994 5c.306-1.67.646-3.34.994-5M446 217c-.85-6.353-1.795-12.719-3-19 1.242 6.288 2.224 12.637 3 19m1 9a234.663 234.663 0 00-1-7c.38 2.334.702 4.667 1 7" fill="#C7C7C7"/><path d="M561 101.713c-12.469 41.545-43.252 50.848-75.34 50.627-20.442-.14-44.833-15.312-44.582-17.35.29-2.343 5.187 58.28 5.75 71.931.173 4.123-84.827 4.624-85.082.5-.957-15.557 3.911-62.992 3.858-64.136.273-3.605.285-7.007.154-10.32-11.917 1.901-29.284 16.595-30.503 32.009-2.068 26.044 9.374 38.754 17.433 40.19L354.317 220c-40.5-12.203-42.925-44.462-38.954-66.21 4.671-25.514 38.312-47.941 42.473-50.718.302-.209.618-.393.95-.554 12.393-6.06 31.793-11.256 34.676-8.932 3.589 2.902 11.12 3.384 11.12 3.384s7.518-.53 11.097-3.461c2.882-2.348 18.543 3.771 30.454 11.362 5.26 2.765 19.612 25.622 47.805 25.021 26.045-.556 52.869-19.11 53.23-27.303l13.832-.876z" fill="#FF3434"/><path d="M382 220s-5.548 12.197-12 16l12-16zm44 0s5.548 12.197 12 16l-12-16z" fill="#666"/><path d="M362 207.435l.533 2.902c3.591 2.326 81.161 2.25 84.349-.471.128-.111.118-2.866.118-2.866s-57.1 1.762-58.248 1.853c-1.147.09-26.752-1.418-26.752-1.418" fill="#883434"/><path d="M362.932 222.8c1.338 1.135 2.584 2.839 3.034 4.35.123.415-.06 2.192-1.003 1.792-1.03-.437-1.75-1.585-2.747-2.15-.83-.47-1.662-.93-2.528-1.35-.618-.3-1.26-.558-1.877-.857-2.145-1.041-8.121-3.996-4.855-6.585l9.976 4.8z" fill="#E0B094"/><path d="M353.062 215c-.559.497-1.37 2.026-.942 2.59 1.19 1.565 3.724 2.232 5.5 3.011 2.323 1.02 4.37 2.265 6.501 3.514.966.564 3.658 2.597 4.499 1.626 1.662-1.92-2.63-6.469-3.256-7.019L353.062 215z" fill="#E0B094"/><path d="M362 223c-1.375-1.115-4.51-2.612-5.728-3.093-1.108-.467-2.432-1.26-3.246-2.127-.114-.136-.266-.269-.312-.44-.055-.467.198-.92.442-1.314.12-.198.289-.366.44-.541.123-.196-.023-.458-.265-.483-.26-.026-.407.218-.552.379a4.143 4.143 0 00-.613 1.053c-.129.341-.22.718-.13 1.078.06.254.254.458.424.657 1.47 1.583 3.728 2.146 5.675 3.05.771.359 1.132.453 3.114 1.455.453.23.723.333.751.326" fill="#CC957D"/><path d="M353.089 210c-.362.376-.69.946-.978 1.847-.317.989.062 2.26.914 3.166.762.81 3.104.96 4.293 1.211 2.81.593 5.78 1.473 8.229 2.63.613.287 3.115 2.191 4.302.36.946-1.458-2.799-4.682-4.337-5.313L353.089 210z" fill="#E0B094"/><path d="M366 219c-.485-.217-1.087-.589-1.454-.808-.895-.409-1.193-.546-2.141-.917-1.865-.712-3.238-1.378-5.203-1.797-1.05-.205-2.165-.295-3.134-.755-.4-.182-.646-.547-.857-.899-.36-.626-.56-1.348-.487-2.06.085-.585.314-1.154.587-1.685.146-.34.824-.846.161-1.071-.253-.052-.406.17-.527.34a4.683 4.683 0 00-.551 1.02c-.467 1.02-.546 2.175-.09 3.211l.05.116c.218.474.498.947.9 1.309.577.466 1.346.653 2.073.816 1.466.256 2.938.54 4.358.973 2.277.68 5.882 2.089 6.278 2.201L366 219" fill="#CC957D"/><path d="M446 139c-.017-.081-6-19-6-19s1.445 15.318 1.458 15.347c.465.756 1.998 2.322 4.542 3.653m-86-5c.017-.08 7-15 7-15s-.643 13.205-.756 13.206c-.583.056-4.84 1.196-6.244 1.794" fill="#883434"/><path d="M361.524 204.74c.06.138.144-.77.03-.74-.972.263-.67.092-1.665.197-1.83.193-4.447.168-6.173.774-1.153.405-2.015 2.185-1.618 3.28.38 1.046 2.422 1.982 3.469 2.256 3.41.893 7 2.221 10.327 3.37 1.186.41 3.922 1.35 4.288 1.073 3.31-2.509-4.297-6.415-7.199-7.079-.815-.186-2.737-.69-3.019-1.47l1.56-1.662z" fill="#E0B094"/><path d="M361.343 206.732c-.402-.045-.61-.142-.9-.432-.168-.15-.428-.432-.443-.229-.002.16.132.303.25.423.774.66.716.382 1.249.446.152.019.368.02.5.06.019-.107-.387-.239-.656-.268m-6.959 3.504c-.684-.264-1.348-.597-1.918-1.037-.433-.322-.787-.774-.753-1.307.03-.835.34-1.909 1.068-2.425.38-.259.362-.289.903-.441-.17-.053-.438-.043-1 .208-1.137.677-1.827 1.829-1.659 3.058.293 1.37 1.944 2.086 3.213 2.604 3.335.933 8.925 2.844 10.762 3.104-.016-.214-6.416-2.59-10.616-3.764" fill="#CC957D"/><path d="M364 137c.646.193 42.578 8.497 77 .597M364 149c.65.2 44.37 8.63 79 .401M362 162c.682.2 46.616 8.63 83 .401M362 174c.684.2 48.527 8.624 85 .41" stroke="#FFF" stroke-width="3"/><path fill="#AA5D48" d="M397.107 89.011L397 92l16-.374-.01-2.626z"/><path d="M375 54.5c0 4.142-2.462 7.5-5.5 7.5s-5.5-3.358-5.5-7.5c0-4.142 2.462-7.5 5.5-7.5s5.5 3.358 5.5 7.5m58 0c0 4.142 2.462 7.5 5.5 7.5s5.5-3.358 5.5-7.5c0-4.142-2.462-7.5-5.5-7.5s-5.5 3.358-5.5 7.5" fill="#E0B094"/><path d="M403.993 2.012c14.572-.31 12.105 5.7 14.482 5.997 2.189.273 5.669-3.704 16.347 4.599 10.67 8.296 3.664 19.945 4.937 20.03 1.273.085 4.241 2.586 4.241 9.957 0 7.37-8.568 11.607-8.568 11.607s6.448 17.284-3.564 27.111c-10.01 9.828-27.74 8.642-27.74 8.642h-.255s-17.731 1.186-27.741-8.642c-10.011-9.827-3.563-27.111-3.563-27.111S364 49.966 364 42.595c0-7.371 2.582-9.66 3.854-9.746 1.273-.084-5.347-11.945 5.324-20.241 10.678-8.303 14.158-4.326 16.347-4.6 2.377-.296-.089-6.307 14.482-5.996h-.014z" fill="#383838"/><path d="M403.992 66.418c.479-.06 21.942 3.796 21.942-7.584 0-5.89-.479-10.309-.941-13.202-.395-2.472-.171-4.977.537-7.385.848-2.887 1.017-6.771-3.628-7.846-5.336-1.234-4.5.402-8.485 4.576-3.089 3.236-15.745 3.236-18.834 0-3.984-4.174-3.148-5.81-8.485-4.576-4.645 1.075-4.476 4.96-3.628 7.846.708 2.408.932 4.913.537 7.385-.462 2.893-.941 7.312-.941 13.202 0 11.38 21.464 7.524 21.942 7.584h-.016z" fill="#E0B094"/><path d="M404.173 56.23l-2.155 6.331a.336.336 0 00.326.439h4.312c.234 0 .4-.222.326-.439l-2.155-6.332c-.105-.305-.55-.305-.654 0" fill="#DF715C"/><path d="M391 51c0 2.21-1.12 4-2.5 4s-2.5-1.79-2.5-4 1.12-4 2.5-4 2.5 1.79 2.5 4" fill="#383838"/><path d="M394.95 54s.542 2.36-1.95 4" stroke="#383838" stroke-linecap="round"/><path d="M417 51c0 2.21 1.12 4 2.5 4s2.5-1.79 2.5-4-1.12-4-2.5-4-2.5 1.79-2.5 4" fill="#383838"/><path d="M414.05 54s-.542 2.36 1.95 4" stroke="#383838" stroke-linecap="round"/><path d="M409 74c0 2.667-10 2.667-10 0" stroke="#DF715C"/><path d="M585.465 245.5c0 .014-.014.014-.014.014v.028c.029-.028.07-.056.098-.084l-.084.042m-42.902-2.5l-.126 1c.023-.335.069-.665.126-1M587 246.45c-.727-.618-1.595-.327-2 .55.077-.324.158-.694.462-.826 0-.008.007-.017.007-.025.5-.265 1.143-.183 1.531.3" fill="#C7C7C7"/><path d="M586.745 247a2.784 2.784 0 01-.49-1c.196.292.365.64.49 1" fill="#C7C7C7"/><path d="M627.606 210.657c-1.265-4.42-.924-17.468-4.154-19.657l-74.952.25c-1.481.168-1.39 1.688-1.69 2.716-11.13 86.207-13.169 181.027 12.828 263.867l12.703.167c-2.739-67.251-4.304-139.674 13.877-206.908 17.273 67.326 20.128 137.226 14.093 205.998-.1 1.846 13.052.091 13.926.543 25.073-77.828 19.945-165.915 13.369-246.976" fill="#69BAC9"/><path d="M636.148 219.113c-.125.05-.25.109-.384.16-.2.083-.41.167-.618.259h-.008a80.05 80.05 0 01-6.564 2.326c-.15.05-.308.092-.467.142l.276-2.535.058-.51.017-.11.025-.234.016-.218.485-4.367.041-.351v-.025l.034-.285.45-4.125.15-1.363.06-.553c.776-.133 1.57-.385 2.363-.736 7.356-3.238 14.997-15.688 14.888-39.007-.067-14.458-9.92-24.883-19.857-29.861a34.93 34.93 0 00-5.386-2.184c-.008.15-.016.309-.016.46v.017c-.017 2.024 3.156 37.024 4.81 58.66.459 6.059.809 11.062.926 14.007.009.109-.05.209-.158.31-.176.167-.485.317-.91.468-.226.076-.494.15-.786.226-.007 0-.025.008-.041.008-10.872 2.72-65.416 3.121-79.152.703a14.82 14.82 0 01-1.244-.25 3.789 3.789 0 01-.36-.093 3.742 3.742 0 01-.375-.109c-.008-.008-.016-.008-.025-.008-.425-.134-.735-.276-.926-.427-.135-.109-.21-.217-.217-.334-.218-3.498-.134-8.627.116-14.484.868-19.88 3.74-48.085 3.7-48.955.266-3.564.283-6.928.15-10.208-.685.11-1.379.26-2.096.46a18.505 18.505 0 00-1.436.427c-.167.059-.334.11-.502.168-11.322 4.016-25.075 17.026-26.152 30.606-2.046 25.762 9.276 38.329 17.251 39.751l.042.36.017.184.016.16.401 3.597.009.125.033.285.008.042v.008l.034.351.016.126.51 4.636.016.192.025.192.042.369.31 2.87.024.183.017.168.05.418.042.41a61.03 61.03 0 01-2.372-.761c-37.793-12.592-40.03-43.65-36.173-64.727 4.618-25.235 37.91-47.416 42.027-50.168.3-.201.609-.385.935-.544 6.38-3.121 14.274-7.065 21.13-8.797 1.911-.485 4.063.187 5.69-.09 3.35-.585 5.938-.702 7.132-.158.142.05.267.126.367.21.677.552 1.504 1.011 2.388 1.405.268.117.552.226.835.335l.017.175c.1 1.03.518 2 1.177 2.778.25.301.535.577.861.82l6.863 5.12v2.343h.201v-2.342l6.872-5.12c.326-.244.61-.52.86-.82a5.06 5.06 0 001.17-2.779l.158-1.556c.175-.117.334-.243.492-.36.034-.025.06-.05.093-.075.55-.444 1.56-.586 2.922-.46 1.778.158 4.142.761 6.856 1.69 1.16.402 3.103-.203 4.372.316 5.319 2.159 10.674 6.31 15.985 9.69 11.824 6.21 35.355 23.964 39.897 48.772 3.65 19.972 1.837 48.896-30.503 62.601" fill="#E58585"/><path d="M563 222s-5.548 11.434-12 15l12-15zm44 0s5.548 11.434 12 15l-12-15z" fill="#666"/><path d="M627 138c-.018-.08-7-15-7-15s1.254 13.252 1.267 13.28c.582.057 4.33 1.122 5.733 1.72m-86-1c.017-.08 7-15 7-15s-.643 13.205-.757 13.206c-.582.057-4.84 1.196-6.243 1.794" fill="#883434"/><path d="M585.802 218c32.748 0 42.198-5.394 42.198-5.394l-1.276-11.394s-8.174 5.092-40.922 5.092h-1.026c-32.748 0-41.491-5.304-41.491-5.304L543 212.55s9.028 5.45 41.776 5.45h1.026z" fill="#2B5165"/><path d="M591.534 219h-9.069a.47.47 0 01-.465-.475v-14.05a.47.47 0 01.465-.475h9.07a.47.47 0 01.465.475v14.05a.47.47 0 01-.466.475" fill="#C7C7C7"/><path d="M586.5 35h25.496s-.208 43.117 0 43.463c.21.346-7.985 5.537-25.496 5.537-17.51 0-25.704-5.19-25.496-5.537.208-.346 0-43.463 0-43.463H586.5z" fill="#F4D9CE"/><path d="M576 50c0 2.21-.896 4-2 4-1.105 0-2-1.79-2-4s.895-4 2-4c1.104 0 2 1.79 2 4m25 0c0 2.21-.896 4-2 4-1.105 0-2-1.79-2-4s.895-4 2-4c1.104 0 2 1.79 2 4" fill="#383838"/><path d="M578.035 73.398c0 1.77 16.56 1.77 16.56 0" fill="#E58585"/><path d="M578.035 73.398c0 1.77 16.56 1.77 16.56 0" stroke="#E58585" stroke-linecap="round" stroke-linejoin="round"/><path d="M585.927 59.514c.254-.685.891-.685 1.146 0l.919 2.472.918 2.472c.255.685-.063 1.542-.573 1.542h-3.674c-.51 0-.828-.857-.573-1.542l.918-2.472.919-2.472z" fill="#E58585"/><path d="M585.927 59.514c.254-.685.891-.685 1.146 0l.919 2.472.918 2.472c.255.685-.063 1.542-.573 1.542h-3.674c-.51 0-.828-.857-.573-1.542l.918-2.472.919-2.472z" stroke="#E58585" stroke-linecap="round" stroke-linejoin="round"/><g transform="translate(545)"><mask id="d" fill="#fff"><use xlink:href="#c"/></mask><path d="M1.345 14.945s-7.24 19.687 13.695 19.687h48.483v16.936h6.06V24.031c0-5.956-2.33-11.736-6.665-15.785C58.625 4.236 51.77.591 41.03.591c-20.882 0-27.534 10.2-28.87 12.75-.396.756-.888 1.461-1.53 2.02-1.58 1.373-4.66 2.795-9.285-.416" fill="#2B5165" mask="url(#d)"/></g><mask id="f" fill="#fff"><use xlink:href="#e"/></mask><path fill="#2B5165" mask="url(#f)" d="M557 51h6V25h-6z"/><path d="M562 52.271c0 3.463.069 8.729-2.693 8.729-2.76 0-7.307-5.266-7.307-8.729 0-3.463 2.238-6.271 5-6.271s5 2.808 5 6.271m48 0c0 3.463-.069 8.729 2.693 8.729 2.76 0 7.307-5.266 7.307-8.729 0-3.463-2.239-6.271-5-6.271s-5 2.808-5 6.271M595 96l-.098 1.056-.155 1.596a5.328 5.328 0 01-1.983 3.69l-6.715 5.254V110h-.196v-2.404l-6.707-5.253a5.017 5.017 0 01-.84-.84 5.337 5.337 0 01-1.151-2.85l-.016-.18-.139-1.426c2.154 1.047 4.928 2.086 9.049 2.086 4.136 0 7.066-1.58 8.951-3.133" fill="#F4D9CE" mask="url(#f)"/><path d="M579.164 102.43l6.836 5.194V110c-.141 0-.282 0-.424-.008-2.628-.026-4.973-.238-7.078-.586-3.842-.636-6.861-1.722-9.232-2.996-5.771-3.097-7.692-7.247-8.15-8.452-.083-.22-.116-.348-.116-.348.258-.085 4.931-1.876 8.433-2.444.882-.136 1.697-.204 2.346-.144.531.05 1.047.204 1.596.416.882.348 1.821.865 2.91 1.417.226.11.45.229.691.34l.142 1.408.016.178a5.184 5.184 0 001.173 2.817c.25.306.533.586.857.832M610 99.414s-.025.17-.1.47c-.339 1.176-1.606 4.32-6.178 6.793-2.212 1.2-5.201 2.236-9.226 2.82-2.071.3-4.415.486-7.074.503H587v-2.27l6.816-4.96c.323-.235.605-.503.853-.794a4.844 4.844 0 001.16-2.691l.157-1.508.1-.997c.14-.106.264-.21.389-.308 1.565-1.289 2.294-2.472 2.294-2.472l.042.016.439.21 7.271 3.51L610 99.415z" fill="#92E0EA" mask="url(#f)"/><path d="M606 96.864l-.263.83-2.602 8.325-4.68 14.981-4.766-12.093-.67-1.693-6.57 2.208H586l.017-2.325 6.977-5.079c.331-.24.62-.515.873-.813a4.957 4.957 0 001.188-2.756l.16-1.544.103-1.02.398-3.885 2.348 1.037.043.017.432.2 1.942.854L606 96.864z" fill="#69BAC9" mask="url(#f)"/><path d="M593 108s11.422-15 2.747-15" stroke="#92E0EA" mask="url(#f)"/><path d="M587 107.097l-.017 2.325-.61-.009-6.471-2.2-.635 1.627L574.55 121l-4.551-15.09-2.84-9.412-.158-.522 3.165-1.063 2.388-.805 1.912-.854 2.58-1.163.201-.091.493 4.897.142 1.378.017.174c.1 1.02.517 1.983 1.177 2.756.25.298.535.572.86.813l7.065 5.08z" fill="#69BAC9" mask="url(#f)"/><path d="M580 108s-11.422-15-2.747-15" stroke="#92E0EA" mask="url(#f)"/><path d="M543.151 224.8c1.243 1.135 2.4 2.839 2.817 4.35.115.415-.054 2.191-.931 1.792-.955-.437-1.625-1.586-2.55-2.15-.772-.47-1.544-.93-2.348-1.35-.575-.3-1.17-.558-1.744-.857-1.991-1.041-7.54-3.995-4.507-6.585l9.263 4.8z" fill="#F4D9CE" mask="url(#f)"/><path d="M535 217c-.526.497-1.29 2.026-.887 2.59 1.12 1.566 3.505 2.232 5.177 3.011 2.185 1.02 4.111 2.265 6.118 3.514.909.564 3.442 2.597 4.234 1.626 1.565-1.919-2.475-6.469-3.064-7.018L535 217z" fill="#F4D9CE" mask="url(#f)"/><path d="M537.99 221.896c-1.137-.458-2.803-1.048-3.66-1.896-.19.035-.18.063-.33.192 1.543 1.526 3.939 2.13 5.945 3.022.81.359 1.187.453 3.267 1.46.475.229.759.334.788.326-1.442-1.119-4.732-2.621-6.01-3.104" fill="#E2C3B5" mask="url(#f)"/><path d="M535.029 212c-.341.375-.652.946-.924 1.847-.3.989.058 2.26.863 3.166.72.811 2.931.96 4.054 1.211 2.654.593 5.459 1.473 7.772 2.63.58.287 2.942 2.191 4.063.36.894-1.457-2.643-4.682-4.096-5.313L535.03 212z" fill="#F4D9CE" mask="url(#f)"/><path d="M545.608 220.225c-.856-.392-1.141-.524-2.047-.88-1.784-.683-3.099-1.322-4.978-1.725-1.005-.196-2.053-.184-3.028-.492a5.977 5.977 0 00-.43-.128c-.006.017.008-.045-.125.147.024.023.132.093.158.116.551.447.935.53 1.631.686 1.403.245 2.81.519 4.17.934 2.178.653 5.626 2.004 6.004 2.112L547 221c-.465-.209-1.04-.564-1.392-.775" fill="#E2C3B5" mask="url(#f)"/><path d="M542.743 206.891c0-.558.047-.893.021-.891-1.015.069-.767.092-1.775.197-1.853.194-4.503.168-6.252.774-1.166.406-2.04 2.185-1.637 3.28.384 1.046 2.451 1.982 3.512 2.256 3.454.893 7.09 2.221 10.459 3.37 1.2.41 3.971 1.35 4.341 1.073 3.352-2.509-8.73-6.125-8.73-7.482 0-.951.061-2.577.061-2.577" fill="#F4D9CE" mask="url(#f)"/><path d="M535.63 212.33c-.369-.142-1.11-.141-1.454-.33-.089.16-.086.132-.176.272.487.274 1.014.509 1.486.701 3.26.91 8.72 2.774 10.514 3.027-.016-.209-6.268-2.526-10.37-3.67M543 210c-.146 0-.992-.498-1.84-.824-1.23-.47-3.416-1.02-4.16-.797l.342-.241c.895-.269 2.407-.183 4.435.595.435.168.65.447.864.707l.244.431c-.011.001.126.129.114.129" fill="#E2C3B5" mask="url(#f)"/><path d="M626.849 223.8c-1.243 1.135-2.4 2.838-2.817 4.35-.115.415.054 2.191.93 1.792.957-.437 1.626-1.586 2.552-2.15.77-.47 1.543-.93 2.347-1.35.575-.3 1.17-.558 1.743-.857 1.992-1.041 7.541-3.996 4.508-6.585l-9.263 4.8z" fill="#F4D9CE" mask="url(#f)"/><path d="M635 216c.526.497 1.29 2.026.887 2.59-1.12 1.566-3.505 2.232-5.177 3.011-2.186 1.02-4.111 2.265-6.118 3.515-.909.563-3.442 2.597-4.234 1.625-1.565-1.919 2.475-6.469 3.064-7.018L635 216z" fill="#F4D9CE" mask="url(#f)"/><path d="M632.01 220.896c1.137-.458 2.803-1.049 3.66-1.896.19.035.18.063.33.192-1.543 1.526-3.939 2.13-5.945 3.021-.81.36-1.187.454-3.267 1.46-.475.23-.759.335-.788.327 1.442-1.119 4.731-2.622 6.01-3.104" fill="#E2C3B5" mask="url(#f)"/><path d="M634.971 211c.341.376.652.946.924 1.847.3.989-.058 2.26-.863 3.166-.72.811-2.931.96-4.054 1.211-2.654.593-5.459 1.472-7.772 2.629-.58.288-2.942 2.192-4.063.362-.894-1.458 2.643-4.683 4.096-5.314L634.97 211z" fill="#F4D9CE" mask="url(#f)"/><path d="M624.392 219.225c.856-.392 1.141-.524 2.047-.88 1.784-.683 3.099-1.322 4.978-1.724 1.005-.197 2.053-.185 3.028-.493.223-.07.392-.123.43-.128.006.017-.008-.045.125.147-.024.023-.133.093-.158.116-.552.448-.935.53-1.631.686-1.403.245-2.81.519-4.17.934-2.178.652-5.627 2.003-6.004 2.112L623 220c.464-.209 1.04-.565 1.392-.775" fill="#E2C3B5" mask="url(#f)"/><path d="M627.4 205.881c0-.558-.089-.883-.063-.881 1.015.069.671.086 1.679.191 1.852.194 4.5.168 6.248.774 1.166.406 2.039 2.187 1.637 3.282-.386 1.047-2.45 1.983-3.51 2.257-3.453.894-7.086 2.223-10.453 3.372-1.201.41-3.969 1.351-4.34 1.074-3.349-2.51 8.435-6.13 8.74-7.45.227-.98.063-2.619.063-2.619" fill="#F4D9CE" mask="url(#f)"/><path d="M633.371 211.33c.369-.142 1.109-.141 1.453-.33.09.16.086.132.176.272a13.35 13.35 0 01-1.486.701c-3.259.91-8.72 2.774-10.514 3.027.016-.209 6.268-2.526 10.371-3.67M627 209c.146 0 .992-.497 1.84-.824 1.23-.47 3.416-1.02 4.16-.797l-.342-.24c-.894-.27-2.407-.183-4.435.594-.435.168-.65.446-.864.707l-.243.431c.01.001-.126.129-.115.129" fill="#E2C3B5" mask="url(#f)"/><path fill="#D6948B" mask="url(#f)" d="M576.042 83L576 87l20-1.072v-2.877z"/><path d="M44 203.767c-.027-.008-.171.001-.476-.03-.456-.043-.691-.142-1.021-.434-.19-.152-.485-.436-.503-.232.083.167.284.315.596.577.313.262 1.218.297 1.36.352.02-.108.03-.15.044-.233" fill="#E5B79E" mask="url(#f)"/><path d="M211.835 128.334c-.14-.006-.189-.012-.298-.018 0-.03.042-.161.073-.448a1.429 1.429 0 00-.006-.43c0-.006-.006-.018-.006-.03-.013-.042-.03-.078-.043-.114-.018-.041-.03-.077-.049-.113a3.27 3.27 0 00-.097-.203c-.03-.054-.067-.102-.11-.162 0-.006-.006-.006-.006-.011a.765.765 0 00-.207-.186c-.006-.006-.012-.012-.024-.012l.012-.006c.012.012.03.018.043.036.018.006.042.018.079.03-.134-.197-.28-.424-.073-.388.134.09.243.233.39.448.054.078.115.161.182.263.256.358.104 1.2.14 1.344m4.914 5.127c-.018-.174-.042-.353-.06-.532-.22-.24-1.072-6.208-1.28-10.062-.103-.663-.273-1.314-.56-1.894-.207-.448-.548-.854-1.047-.926-.761-.144-1.632.042-2.253.567-.347.365-1.175 1.494-1.364 1.948v.006c-.438 1.19-.792 1.84-1.145 2.85l-1.315.496c-1.011 0-4.555 1.022-5.426.508-.548-.364-1.498-.812-2.143-.956-.426.042-1.011.705-1.108 1.171-.317 1.5 1.01 2.773 2.07 3.466a5.649 5.649 0 002.728.776c1.187.048 4.981-.669 4.981-.669l3.154.006c.232 3.095 2.052 9.59 4.866 7.308.335-.275.036-2.916-.098-4.063" fill="#F1D5C3" mask="url(#f)"/><path d="M208.465 128.51l.07-.04c0 .06-.01.08-.07.04m3.518.49c-.191-.007-.258-.014-.408-.021 0-.035.058-.19.1-.528.025-.197.025-.36-.008-.507 0-.007-.009-.021-.009-.036a2.445 2.445 0 00-.408-.697c0-.007-.008-.007-.008-.014A1 1 0 00211 127c.025.007.058.021.108.035.1.021.25.042.434.07.075.092.158.19.25.31.35.423.141 1.416.191 1.585m13.502 3.46c.01.03.02.06.03.08-.01-.01-.02-.01-.02-.02l-.01-.06zm3.579 3.361c-1.35-.715-2.731-2.156-3.555-3.554v-.007c.012-.037-.025-.308-.143-.745-.52-2.051-.539-2.409-.712-3.203-.434-1.99-.49-4.183-1.654-5.884 3.054-2.026 4.664 3.684 5.228 5.748.161.598.285 1.214.446 1.817.235.844.508 1.67.793 2.49.347.991 1.3 1.866 1.517 2.858.199.905-1.548.677-1.92.48" fill="#F1D5C3" mask="url(#f)"/><path d="M227.58 138.85c-1.887.895-4.737-2.455-5.738-3.81a5.738 5.738 0 01-.329-.466l-.082-.876v-.007l-.007-.066c.007.036.02.073.026.109a12.962 12.962 0 01.38 1.18c-.07-.702-.564-3.914-.716-5.94-.095-1.366-.05-2.727.019-4.082-.006-.502-.013-1.01-.133-1.494a4.41 4.41 0 01.456-.211c.43-.133.925-.272 1.368-.121.152.078.24.242.348.375.665.925 1.14 2.292 1.356 3.398.19 1.192.912 4.264 1.69 5.776 0 .006.007.012.007.018a.331.331 0 00.02.049c0 .006.005.006.005.012v.006c.228.64.463 1.282.697 1.929.342.955 1.742 3.701.633 4.221" fill="#F1D5C3" mask="url(#f)"/><path d="M220.955 137.957c-1.528.485-3.787-3.299-4.07-4.712v-.029c.106-1.7-.472-6.773-.637-9.769-.071-.368-.136-.76-.248-1.144.118-.053.236-.106.33-.123.531-.129 1.074-.21 1.605-.17.637.082 1.233.398 1.71.83.266.257.531.537.614.917.218.922.07 1.903.035 2.843-.012 1.775.301 3.09.549 4.835.141.888.206 1.174.383 2.038.012.03.018.058.03.088l-.006-.065c.006.035.018.07.023.105 0 .012.006.024.012.035.047.228.1.45.16.672.029.117.106.31.194.555.342.946.844 2.616-.684 3.094m-12.49-9.447l.07-.04c0 .06-.01.08-.07.04m3.52.49a4.306 4.306 0 00-.28-.87c0-.006-.007-.018-.007-.03a1.99 1.99 0 00-.36-.574c0-.006-.007-.006-.007-.012a.874.874 0 00-.214-.162c.022.006.052.017.096.029-.162-.192-.338-.412-.088-.377.162.087.294.226.47.435.067.075.14.157.221.255.309.348.125 1.167.17 1.306" fill="#F1D5C3" mask="url(#f)"/><path d="M211.985 131c-.17-.014-.228-.029-.36-.043 0-.073.051-.392.088-1.089.022-.406.022-.74-.008-1.044 0-.015-.006-.044-.006-.073-.045-.464-.162-.885-.36-1.436 0-.014-.008-.014-.008-.03a4.662 4.662 0 00-.118-.333c-.162-.478-.338-1.03-.088-.943.162.218.294.566.47 1.089.067.188.14.392.22.638.31.87.126 2.915.17 3.264m3.963-9.536c-.183.103-.739-.535-.948-.457a6.6 6.6 0 01.502 1.653c.237 3.958 1.217 10.088 1.468 10.334 0 0 0 .006.007.006 0-.012 0-.025.007-.037v-.03c.126-1.786-.546-7.168-.742-10.316l-.294-1.153zm5.207 3.36c-.007-.51-.015-1.026-.16-1.517.007-.004.015-.005.023-.01a4.437 4.437 0 01-.954-.297l-.064.039c.097.126.178.258.219.41.284.97.092 2.002.046 2.99-.015 1.867.391 3.249.714 5.085.184.934.269 1.234.499 2.143.015.031.023.062.038.092l-.007-.067c.007.037.023.074.03.11 0 .013.008.025.016.037.146.332.33.786.445 1.161-.084-.712-.683-3.973-.868-6.03-.115-1.389-.061-2.77.023-4.146m4.708 6.494c-.493-1.878-.51-2.205-.675-2.932-.41-1.822-.463-3.829-1.567-5.385-.005-.011-.43.1-.621.178.051.063.096.132.146.194.616.863 1.056 2.137 1.256 3.169.176 1.11.845 3.975 1.567 5.385 0 .005.005.011.005.017a.379.379 0 00.018.045c0 .005.006.005.006.011.012-.034-.024-.282-.135-.682" fill="#E5B79E" mask="url(#f)"/><path d="M221.49 133.53v-.01l-.01-.11c.01.06.03.12.04.18-.01-.03-.02-.04-.03-.06" fill="#E5B79E" mask="url(#f)"/><path d="M376.263 100.156c1.142.906 2.78 1.672 4.167 1.84.38.046 1.939-.31 1.49-.998-.492-.75-1.584-1.172-2.185-1.882-.5-.59-.993-1.184-1.452-1.808-.328-.446-.622-.915-.95-1.36-1.14-1.546-4.362-5.849-6.333-2.99l5.263 7.198z" fill="#F1D5C3" mask="url(#f)"/><path d="M368 94.053c.373-.477 1.61-1.26 2.139-1.002 1.47.72 2.3 2.555 3.152 3.807 1.114 1.636 2.394 3.038 3.687 4.503.584.664 2.61 2.465 1.857 3.208-1.488 1.469-5.845-1.253-6.383-1.663L368 94.053z" fill="#F1D5C3" mask="url(#f)"/><path d="M375.612 99.438c-1.157-1.465-1.286-1.741-1.707-2.315-.974-1.327-2.088-3.108-3.465-4.123-.183.11-.219.034-.44.106.872.557 1.928 1.876 2.473 2.682.585.916 2.335 3.243 3.527 4.212.004-.023-.123-.226-.388-.562" fill="#E5B79E" mask="url(#f)"/><path d="M363 94.158c.314-.318.812-.636 1.626-.96.892-.358 2.123-.219 3.061.322.84.484 1.228 2.245 1.589 3.12.852 2.065 1.99 4.218 3.333 5.944.335.431 2.383 2.108.794 3.226-1.265.89-4.68-1.577-5.435-2.67L363 94.157z" fill="#F1D5C3" mask="url(#f)"/><path d="M372.992 102.97c-.128-.316-1.599-3.149-2.362-4.963-.482-1.13-.852-2.321-1.199-3.511-.2-.586-.342-1.07-.769-1.496-.063-.006-.134.097-.19.164-.209-.244-.336-.133-.472.004.17.104.328.227.437.41.46.752.64 1.669.906 2.519.525 1.584 1.188 2.649 1.936 4.116.387.744.525.976.937 1.673.21.28.563.736.784 1.114l-.008-.03" fill="#E5B79E" mask="url(#f)"/><path d="M359.203 102.115c.129-.832-.034-1.354-.05-2.187-.027-1.532-.34-3.686.015-5.181.238-.998 1.746-1.919 2.775-1.72.984.191 2.052 1.764 2.415 2.596 1.182 2.707 2.775 5.51 4.176 8.12.5.93 1.65 3.074 1.44 3.408-1.892 3.025-6.111-2.83-7.03-5.145-.258-.649-1.064-2.134-1.797-2.275l-1.944 2.384z" fill="#F1D5C3" mask="url(#f)"/><path d="M361.713 101c-.014-.02-.257-.29-.271-.309-.193-.255-.18-.42-.259-.642-.12-.335-.281-.496-.717-.702-.23-.122-.65-.302-.377-.343.218-.024.43.07.61.153 1.012.564.676.667 1.159 1.52.068.109.07.122.142.229-.142.03-.179.075-.287.094m2.664-5.941c-.25-.419-.593-.513-.947-.913-.256-.235-.26-.136-.43-.047.326.347.613.732.85 1.145 1.383 3.104 3.972 7.767 4.15 7.756-.396-1.386-2.524-5.477-3.623-7.941" fill="#E5B79E" mask="url(#f)"/><path d="M563.8 102.932c1.135 1.338 2.838 2.584 4.35 3.034.415.123 2.191-.06 1.792-1.003-.437-1.03-1.585-1.75-2.15-2.747-.47-.83-.93-1.662-1.35-2.528-.3-.618-.558-1.26-.858-1.877-1.04-2.146-3.994-8.121-6.584-4.855l4.8 9.976z" fill="#E0B094" mask="url(#f)"/><path d="M556 94.062c.498-.559 2.026-1.37 2.59-.942 1.565 1.19 2.232 3.724 3.011 5.5 1.02 2.323 2.265 4.37 3.515 6.502.563.965 2.596 3.657 1.625 4.498-1.919 1.663-6.468-2.63-7.019-3.256L556 94.062z" fill="#E0B094" mask="url(#f)"/><path d="M563.688 102.21c-.959-2.088-1.049-2.467-1.391-3.28-.865-2.05-1.24-4.148-2.753-5.696-.04-.037-.116-.196-.156-.234-.125.106-.439.497-.38.55.828.857 1.587 2.251 2.033 3.418.46 1.283 1.893 4.584 2.959 6.032.007-.03-.093-.313-.312-.79" fill="#CC957D" mask="url(#f)"/><path d="M551 94.09c.376-.362.945-.691 1.847-.979.988-.317 2.26.062 3.166.914.81.762.96 3.104 1.21 4.293.594 2.81 1.473 5.78 2.63 8.23.288.612 2.192 3.113.361 4.3-1.458.947-4.682-2.798-5.313-4.336L551 94.089z" fill="#E0B094" mask="url(#f)"/><path d="M559.994 106.962c-.119-.407-1.604-4.12-2.322-6.465-.456-1.462-.756-2.978-1.026-4.488-.172-.749-.198-1.227-.69-1.822-.07-.075-.077-.063-.156-.127-.231.244-.25.045-.37-.048-.07-.054-.355.087-.43.136.199.153.378.33.488.566.486.996.581 2.144.797 3.226.442 2.023 1.144 3.438 1.895 5.358.392.976.537 1.283.967 2.205.232.378.623.997.853 1.497l-.006-.038" fill="#CC957D" mask="url(#f)"/><path d="M545.741 101.685c.139.06-.77.144-.74.03.263-.973.072.17.177-.826.194-1.83.169-4.446.776-6.173.405-1.153 2.188-2.015 3.285-1.618 1.048.38 1.986 2.421 2.26 3.47.895 3.41 2.226 7 3.376 10.327.41 1.185 1.353 3.92 1.074 4.287-2.512 3.31-6.425-4.297-7.09-7.2-.186-.813-.692-2.736-1.473-3.018l-1.645.72z" fill="#E0B094" mask="url(#f)"/><path d="M551.089 95.354c-.256-.661-.394-.735-.816-1.354-.014.011-.114.019-.273.084.202.596.264.852.47 1.414 1.1 4.155 3.33 10.486 3.53 10.502-.243-1.817-2.036-7.347-2.911-10.646" fill="#CC957D" mask="url(#f)"/></g></g></svg>