<!-- by Tanja Rohlfs (http://tanjarohlfs.de/) - license: CC-BY-NC-SA (see: https://creativecommons.org/licenses/by-nc-sa/4.0/) -->
<svg width="120" height="120" xmlns="http://www.w3.org/2000/svg" xmlns:xlink="http://www.w3.org/1999/xlink"><defs><path id="a" d="M.288.103h21.391V4.55H.288z"/><path id="c" d="M.236.153h1.4v13.62h-1.4z"/><path id="e" d="M0 .244h12.722V3.54H0z"/><path id="g" d="M.273.172h12.723v3.356H.273z"/></defs><g fill="none" fill-rule="evenodd"><path fill="#FFF" d="M0 0h120v120H0z"/><path d="M50.759 84.463h18.629v-5.89c0-2.108.94-4.136 2.577-5.564a18.097 18.097 0 006.206-13.64 17.96 17.96 0 00-5.455-12.95c-3.516-3.434-8.163-5.258-13.084-5.143-9.662.23-17.583 8.283-17.656 17.952a18.07 18.07 0 006.31 13.87c1.571 1.351 2.473 3.346 2.473 5.475v5.89zm19.329 1.4h-20.03a.7.7 0 01-.7-.7v-6.59c0-1.72-.723-3.328-1.984-4.412a19.468 19.468 0 01-6.798-14.943c.08-10.417 8.612-19.094 19.023-19.341 5.297-.137 10.307 1.84 14.095 5.54a19.349 19.349 0 015.877 13.951c0 5.634-2.437 10.99-6.686 14.696-1.333 1.162-2.097 2.806-2.097 4.51v6.59a.7.7 0 01-.7.7zm.078 3.402H50.4a.81.81 0 01-.807-.807.81.81 0 01.807-.807h19.765a.81.81 0 01.807.807.81.81 0 01-.807.807m.001 3.108H50.4a.81.81 0 01-.807-.807.81.81 0 01.807-.807h19.765a.81.81 0 01.807.807.81.81 0 01-.807.807" fill="#37B1CC"/><g transform="translate(49.3 93.997)"><mask id="b" fill="#fff"><use xlink:href="#a"/></mask><path d="M1.739 1.503a.054.054 0 00-.051.051v.287c0 .026.024.05.05.05l.095.007 9.129 1.24 9.266-1.246a.054.054 0 00.051-.051v-.287a.054.054 0 00-.05-.051H1.738zm9.223 3.047l-.094-.013-9.184-1.246A1.453 1.453 0 01.288 1.84v-.287c0-.8.65-1.451 1.45-1.451h18.49c.8 0 1.451.65 1.451 1.451v.287c0 .782-.621 1.421-1.396 1.45l-9.321 1.26z" fill="#37B1CC" mask="url(#b)"/></g><g transform="translate(59.1 21.197)"><mask id="d" fill="#fff"><use xlink:href="#c"/></mask><path d="M.936 13.772a.7.7 0 01-.7-.7V.852a.7.7 0 011.4 0v12.22a.7.7 0 01-.7.7" fill="#37B1CC" mask="url(#d)"/></g><path d="M41.422 41.94a.697.697 0 01-.495-.206l-8.116-8.117a.7.7 0 11.99-.99l8.116 8.117a.7.7 0 01-.495 1.195" fill="#37B1CC"/><g transform="translate(22 52.697)"><mask id="f" fill="#fff"><use xlink:href="#e"/></mask><path d="M12.022 3.54a.734.734 0 01-.116-.01L.584 1.636A.7.7 0 01.816.254L12.137 2.15a.7.7 0 01-.115 1.39" fill="#37B1CC" mask="url(#f)"/></g><path d="M78.758 41.995a.7.7 0 01-.495-1.195l8.125-8.124a.7.7 0 11.99.99l-8.125 8.124a.697.697 0 01-.495.205" fill="#37B1CC"/><g transform="translate(85 52.697)"><mask id="h" fill="#fff"><use xlink:href="#g"/></mask><path d="M.972 3.528a.7.7 0 01-.118-1.39L12.177.18a.7.7 0 11.238 1.38L1.092 3.518a.738.738 0 01-.12.01" fill="#37B1CC" mask="url(#h)"/></g><path d="M65.31 66.393c0-.728-.33-1.293-.993-1.694-.663-.402-1.648-.78-2.954-1.134v6.02c2.632-.187 3.948-1.25 3.948-3.192m-8.414-7.028c.625.448 1.544.83 2.758 1.148v-6.16c-1.12.149-2.016.49-2.688 1.022-.672.532-1.008 1.227-1.008 2.086 0 .821.312 1.456.938 1.904m10.136 9.884c-.532.802-1.288 1.442-2.268 1.918-.98.476-2.114.75-3.402.826v1.988a.82.82 0 01-.238.602c-.159.158-.369.238-.63.238a.843.843 0 01-.602-.224c-.159-.15-.238-.355-.238-.616v-1.988c-2.016-.131-3.902-.57-5.656-1.316a1.267 1.267 0 01-.56-.462 1.175 1.175 0 01-.224-.686c0-.318.107-.593.322-.826.214-.234.49-.35.826-.35.186 0 .364.037.532.112a13.05 13.05 0 004.76 1.12v-6.44c-1.27-.336-2.338-.7-3.206-1.092a5.81 5.81 0 01-2.17-1.666c-.579-.719-.868-1.629-.868-2.73 0-.97.238-1.867.714-2.688.476-.822 1.185-1.503 2.128-2.044.942-.542 2.076-.868 3.402-.98v-1.96c0-.243.079-.448.238-.616a.791.791 0 01.602-.252c.242 0 .448.084.616.252a.839.839 0 01.252.616v1.932c1.829.074 3.453.382 4.872.924.522.186.784.56.784 1.12 0 .298-.103.569-.308.812a1.011 1.011 0 01-.812.364c-.112 0-.262-.038-.448-.112-1.27-.448-2.632-.7-4.088-.756v6.664c1.344.317 2.459.662 3.346 1.036a5.644 5.644 0 012.226 1.666c.597.737.896 1.712.896 2.926 0 .99-.266 1.885-.798 2.688" fill="#F03433"/></g></svg>