<!-- by Tanja Rohlfs (http://tanjarohlfs.de/) - license: CC-BY-NC-SA (see: https://creativecommons.org/licenses/by-nc-sa/4.0/) -->
<svg width="120" height="120" xmlns="http://www.w3.org/2000/svg" xmlns:xlink="http://www.w3.org/1999/xlink"><defs><path id="a" d="M.282 0H72.03v72.1H.282z"/><path id="c" d="M0 .06h68.871v50.891H0z"/></defs><g fill="none" fill-rule="evenodd"><path fill="#FFF" d="M0 0h120v120H0z"/><g transform="translate(23.65 24)"><mask id="b" fill="#fff"><use xlink:href="#a"/></mask><path d="M71.725 1.792l-69.654 70c-.196.2-.462.308-.742.308-.36 0-.696-.185-.892-.493-.26-.406-.186-.963.171-1.323L70.234.312A1.052 1.052 0 0171.72.308c.41.406.41 1.075.004 1.484" fill="#F03434" mask="url(#b)"/></g><g transform="translate(10 30.65)"><mask id="d" fill="#fff"><use xlink:href="#c"/></mask><path d="M22.472 49.923C14.984 45.745 8.706 39.97 3.795 32.727a54.601 54.601 0 01-2.187-3.502 54.608 54.608 0 012.187-3.502c5.314-7.839 12.226-13.96 20.543-18.196C32.131 3.558 40.937 1.46 49.803 1.46c6.125 0 12.22 1.002 17.973 2.929l1.095-1.1A58.094 58.094 0 0049.803.06c-9.086 0-18.111 2.151-26.1 6.22-8.53 4.343-15.618 10.62-21.066 18.657a55.736 55.736 0 00-2.444 3.945L0 29.225l.193.343a55.736 55.736 0 002.444 3.945c4.96 7.316 11.282 13.169 18.812 17.438l1.023-1.028z" fill="#37B1CC" mask="url(#d)"/></g><path d="M109.413 59.532a55.762 55.762 0 00-2.443-3.945c-4.911-7.243-11.158-13.053-18.589-17.31l-1.023 1.028c7.389 4.167 13.591 9.897 18.453 17.068a54.64 54.64 0 012.187 3.502 54.55 54.55 0 01-2.187 3.502c-5.314 7.839-12.226 13.96-20.543 18.196-7.793 3.969-16.599 6.067-25.465 6.067a56.717 56.717 0 01-17.709-2.843L40.995 85.9a58.108 58.108 0 0018.808 3.139c9.086 0 18.112-2.151 26.1-6.22 8.53-4.343 15.618-10.621 21.067-18.657a55.762 55.762 0 002.443-3.945l.193-.343-.193-.343zM47.6 65.369a13.221 13.221 0 01-1.272-5.67c0-7.333 5.967-13.3 13.3-13.3 2.003 0 3.902.449 5.607 1.245l1.043-1.047A14.602 14.602 0 0059.628 45c-8.106 0-14.7 6.595-14.7 14.7 0 2.419.59 4.7 1.63 6.715l1.042-1.046z" fill="#37B1CC"/><path d="M71.975 54.765c.612 1.528.953 3.192.953 4.935 0 7.334-5.966 13.3-13.3 13.3-1.72 0-3.362-.332-4.872-.928l-1.066 1.07a14.608 14.608 0 005.938 1.258c8.106 0 14.7-6.595 14.7-14.7 0-2.139-.463-4.17-1.288-6.005l-1.065 1.07z" fill="#37B1CC"/></g></svg>