<?xml version="1.0" encoding="UTF-8"?>
<!-- by Tanja Rohlfs (https://consento.org/team/tanja) - license: CC-BY-NC-ND (see: https://creativecommons.org/licenses/by-nc-nd/4.0/) -->
<svg width="300" height="300" xmlns="http://www.w3.org/2000/svg" xmlns:xlink="http://www.w3.org/1999/xlink"><defs><path id="a" d="M0 280h216.269V0H0z"/></defs><g transform="translate(41.5 20)" fill="none" fill-rule="evenodd"><path d="M10.793 87.761c-1.963 3.91 5.09 47.015 5.09 47.015l16.734-.568s8.146-35.016 6.968-35.016c-1.177 0-28.792-11.43-28.792-11.43m190.504-.001c1.963 3.91-5.092 47.015-5.092 47.015l-16.732-.568s-8.146-35.016-6.969-35.016c1.178 0 28.793-11.43 28.793-11.43" fill="#331709"/><mask id="b" fill="#fff"><use xlink:href="#a"/></mask><path fill="#E0B094" mask="url(#b)" d="M87.761 280h37.612v-30.299H87.761z"/><path d="M87.761 253.391v7.341c12.768 2.195 25.308 2.056 37.612-.841l-.012-7.055-37.6.555z" fill="#AA5D48" mask="url(#b)"/><path d="M31.69 134.539c-1.644-5.5-7.818-8.586-13.196-6.333-2.372.995-5.471 2.496-4.825 6.79 1.663 11.041 5.344 16.301 4.82 20.84-.523 4.538 4.023 19.98 15.608 20.687 11.586.707 6.649-7.304 6.649-7.304l-9.056-34.68zm147.665 0c1.644-5.5 7.818-8.586 13.196-6.333 2.372.995 5.471 2.496 4.825 6.79-1.663 11.041-5.345 16.301-4.82 20.84.523 4.538-4.023 19.98-15.609 20.687-11.585.707-6.648-7.304-6.648-7.304l9.056-34.68z" fill="#E0B094" mask="url(#b)"/><path d="M179.701 143.134c0 61.74-33.913 111.791-75.746 111.791s-75.746-50.05-75.746-111.79c0-61.742 33.913-111.792 75.746-111.792S179.7 81.393 179.7 143.134" fill="#E0B094" mask="url(#b)"/><path d="M112.683 140c0 1.12 7.466 34.702 7.466 34.702s-7.89 9.179-13.529 9.179h-.106c-5.64 0-13.529-9.18-13.529-9.18s7.466-33.581 7.466-34.701" fill="#CE6F65" mask="url(#b)"/><path d="M113.82 235.104c-2.471.322-5.231.534-8.32.613-2.682-.071-5.115-.236-7.321-.495-24.82-2.828-21.374-16.214-21.374-20.432 0-4.635 6.449-14.918 28.696-14.918s28.695 10.283 28.695 14.918c0 4.163 3.353 17.242-20.375 20.314zm65.48-104.989c-.195.747-9.03 41.815-9.03 41.815s-13.521 30.794-22.442 30.794c-8.172 0-13.147-16.16-24.641-16.16-4.67 0-13.202 1.258-17.685 1.973-4.484-.715-13.015-1.972-17.686-1.972-11.494 0-16.469 16.159-24.64 16.159-8.921 0-22.443-30.794-22.443-30.794s-11.159-48.945-11.353-49.69l-3.26 5.567s4.383 43.386 5.623 52.569c1.442 10.605 17.428 49.426 37.39 64.58 12.648 9.607 25.834 13.189 33.437 13.99 1.115.118 2.058.095 2.885.134 1.863.102 2.979-.134 2.979-.134 7.602-.801 21.342-3.692 33.436-13.99 17.873-15.2 35.543-53.496 35.94-64.195.398-10.707 6.072-52.629 6.072-52.629l-4.582 1.984z" fill="#331709" mask="url(#b)"/><path d="M53.947 70.444c-.094.073-.188.146-.272.22-.01-.095-.01-.189-.01-.283l.282.063" fill="#000" mask="url(#b)"/><path d="M53.947 70.444c-.094.073-.188.146-.272.22-.01-.095-.01-.189-.01-.283l.282.063" fill="#000" mask="url(#b)"/><path d="M53.947 70.444c-.094.073-.188.146-.272.22-.01-.095-.01-.189-.01-.283l.282.063" fill="#000" mask="url(#b)"/><path d="M168.132 70.264c-.074-.063-.157-.118-.24-.18.243-.097.285-.026.24.18m-122.8 0c-.046-.207-.003-.277.24-.18-.084.062-.167.117-.24.18m163.46 34.137c4.353-4.647 5.446-12.44 2.5-18.035 3.111-3.542 4.977-8.098 4.977-13.086 0-8.248-5.106-15.34-12.462-18.561 1.116-12.294-9.579-23.42-22.79-23.007-.798-12.668-14.667-22.176-28.742-19.017-2.304-3.784-8.579-6.257-14.382-5.545-4.45-11.23-22.839-7.072-31.162-2.098C98.404.06 80.027-4.065 75.57 7.149c-5.8-.706-12.08 1.76-14.382 5.546-14.07-3.156-27.95 6.346-28.743 19.017-13.203-.414-23.917 10.715-22.79 23.007-12.528 4.846-4.912 24.28-9.038 36.2-6.457 18.655 39.878 22.43 37.305 21.241 7.544 3.484 15.587-2.61 19.651-13.718 2.514-6.872 7.432-7.099 14.438-3.99 5.138 2.28 13.108.76 16.102-2.87 7.041 6.732 30.198 6.732 37.235 0 3.185 3.898 12.978 4.8 18.6 2.266 6.378-2.874 9.424-2.975 11.715 3.302 4.333 11.87 15.266 19.828 23.043 17.412 2.16-.67.264 2.743 2.476 2.433 3.064-.43 26.02-2.587 27.608-12.594" fill="#331709" mask="url(#b)"/><path d="M127.463 206.866s-2.4 8.364-8.422 11.48c-2.837 1.47-21.576 1.347-23.904 0-7.485-4.329-8.42-11.48-8.42-11.48" fill="#CE6F65" mask="url(#b)"/><path d="M78.358 140.522c0 3.174-5.613 5.747-12.537 5.747s-12.537-2.573-12.537-5.747c0-3.173 5.613-5.746 12.537-5.746s12.537 2.573 12.537 5.746" fill="#FFF" mask="url(#b)"/><path d="M72.09 140.522a5.746 5.746 0 11-11.493 0 5.746 5.746 0 0111.493 0" fill="#000" mask="url(#b)"/><path d="M53.895 138.955l-1.656-1.8c2.556-2.777 7.614-4.448 13.53-4.468 5.93-.025 11.04 1.65 13.634 4.469l-1.656 1.8c-2.131-2.316-6.732-3.742-11.972-3.724-5.15.018-9.814 1.48-11.88 3.723" fill="#000" mask="url(#b)"/><path d="M126.418 206.866H87.76s7.673 6.268 19.329 6.268c11.655 0 19.328-6.268 19.328-6.268" fill="#981709" mask="url(#b)"/><path d="M89.163 207.61c2.46 1.457 9.049 4.78 17.927 4.78 8.877 0 15.465-3.323 17.927-4.78H89.163zm17.927 5.524c-11.584 0-19.37-5.542-19.448-5.599l-.926-.67h40.747l-.926.67c-.077.057-7.864 5.6-19.447 5.6z" fill="#84151E" mask="url(#b)"/><path d="M113.88 223.857v10.603c-2.476.323-5.242.536-8.335.615-2.688-.071-5.125-.237-7.336-.497v-10.72c0-1.301 1.055-2.365 2.344-2.365h10.984c1.289 0 2.344 1.064 2.344 2.364" fill="#331709" mask="url(#b)"/><path d="M134.776 140.522c0 3.174 5.613 5.747 12.537 5.747 6.925 0 12.538-2.573 12.538-5.747 0-3.173-5.613-5.746-12.538-5.746-6.924 0-12.537 2.573-12.537 5.746" fill="#FFF" mask="url(#b)"/><path d="M141.045 140.522a5.746 5.746 0 1011.493 0 5.746 5.746 0 00-11.493 0" fill="#000" mask="url(#b)"/><path d="M159.24 138.955c-4.571-4.983-19.282-4.983-23.853 0l-1.656-1.806c5.459-5.95 21.707-5.95 27.165 0l-1.657 1.806z" fill="#000" mask="url(#b)"/><path d="M130.597 131.642c2.603-2.65 5.579-4.741 8.84-6.43 3.274-1.624 6.938-2.834 10.835-2.957 3.892-.156 7.766.844 11.075 2.448a35.723 35.723 0 018.952 6.259c-3.657-.406-7.065-1.365-10.352-2.052-3.288-.707-6.375-1.112-9.475-1.007-3.1.084-6.282.727-9.577 1.478-3.302.763-6.655 1.717-10.298 2.26m-44.925.001c-3.645-.544-6.996-1.498-10.3-2.26-3.294-.752-6.474-1.395-9.575-1.479-3.1-.105-6.187.3-9.474 1.007-3.288.687-6.696 1.646-10.353 2.052a35.713 35.713 0 018.952-6.259c3.309-1.604 7.183-2.604 11.075-2.448 3.897.123 7.56 1.333 10.834 2.956 3.261 1.69 6.238 3.782 8.84 6.43" fill="#331709" mask="url(#b)"/><path d="M166.081 151.773c0 .429-.35.78-.78.78h-37.558a.788.788 0 01-.781-.78v-25.636c0-.429.359-.78.78-.78H165.3c.43 0 .781.351.781.78v25.636zm-80.668 0c0 .429-.359.78-.78.78H47.074a.783.783 0 01-.781-.78v-25.636c0-.429.351-.78.78-.78h37.558c.422 0 .781.351.781.78v25.636zm103.691-25.9l-19.899.202a3.906 3.906 0 00-3.905-3.836h-37.557a3.908 3.908 0 00-3.905 3.898v10.16h-35.3v-10.16a3.908 3.908 0 00-3.906-3.898H47.075a3.903 3.903 0 00-3.905 3.898v.063l-18.095 1.231 1.12.876 16.975 1.02v22.446a3.903 3.903 0 003.905 3.899h37.557a3.908 3.908 0 003.905-3.899v-12.358h35.3v12.358a3.908 3.908 0 003.906 3.899H165.3a3.903 3.903 0 003.905-3.899v-22.58l19.75-1.815.15-1.506z" fill="#000" mask="url(#b)"/><path stroke="#CE6F65" stroke-width="2" mask="url(#b)" d="M86.716 206.341l40.747.004"/><path d="M18.806 134.776s7.746 2.07 8.706 10.313c.985 8.45.637 18.94.637 18.94m166.179-29.253s-7.746 2.07-8.706 10.313c-.985 8.45-.637 18.94-.637 18.94" fill="#C98258" mask="url(#b)"/></g></svg>