<?xml version="1.0" encoding="UTF-8"?>
<!-- by Tanja Rohlfs (https://consento.org/team/tanja) - license: CC-BY-NC-ND (see: https://creativecommons.org/licenses/by-nc-nd/4.0/) -->
<svg width="300" height="300" xmlns="http://www.w3.org/2000/svg" xmlns:xlink="http://www.w3.org/1999/xlink"><defs><path id="a" d="M.766.127h29.633v47.46H.766z"/><path d="M84.62.152h-1.223C70.253.085-5.237-2.735.35 95.542l83.665-12.488 83.658 12.489C172.907 3.488 106.993.133 87.835.133c-1.298 0-2.382.015-3.215.019" id="c"/><path d="M84.62.152h-1.223C70.253.085-5.237-2.735.35 95.542l83.665-12.488 83.658 12.489C172.907 3.488 106.993.133 87.835.133c-1.298 0-2.382.015-3.215.019" id="e"/><path d="M84.62.152h-1.223C70.253.085-5.237-2.735.35 95.542l83.665-12.488 83.658 12.489C172.907 3.488 106.993.133 87.835.133c-1.298 0-2.382.015-3.215.019" id="g"/><path d="M84.62.152h-1.223C70.253.085-5.237-2.735.35 95.542l83.665-12.488 83.658 12.489C172.907 3.488 106.993.133 87.835.133c-1.298 0-2.382.015-3.215.019" id="i"/><path id="k" d="M0 290h191.624V.772H0z"/></defs><g fill="none" fill-rule="evenodd"><path fill="#F1D5C3" d="M128.339 300h40.537v-43.656H128.34z"/><g transform="translate(214.725 137.934)"><mask id="b" fill="#fff"><use xlink:href="#a"/></mask><path d="M.766 25.552c0 12.287.723 22.036 9.342 22.036 8.62 0 20.172-11.444 20.172-23.73C30.28 11.57 31.892.126 23.273.126 14.653.127.766 13.265.766 25.552" fill="#F1D5C3" mask="url(#b)"/></g><path d="M83.134 163.487c0 12.287-.724 22.035-9.343 22.035-8.62 0-20.171-11.443-20.171-23.73s-1.613-23.73 7.006-23.73c8.62 0 22.508 13.138 22.508 25.425" fill="#F1D5C3"/><path d="M224.993 150.05c0 59.49-33.912 107.715-75.745 107.715-41.832 0-75.743-48.225-75.743-107.714 0-59.49 33.911-107.715 75.743-107.715 41.833 0 75.745 48.225 75.745 107.715" fill="#F1D5C3"/><path d="M150.534 262.518v.017s-.025 0-.067-.008c.017 0 .042-.009.067-.009" fill="#3F2E2B"/><path d="M150.4 262.518c.025 0 .05.009.067.009-.042.008-.067.008-.067.008v-.017zm.084-30.148c-.034 0-.076 0-.126.009.017-.009.025-.009.042-.009h.084z" fill="#3F2E2B"/><path d="M119.406 206.087a.888.888 0 01.084-.1c.034-.051.067-.11.11-.16-.068.084-.127.168-.194.26" fill="#5B1813"/><path d="M89.009 132.083c7.68-1.882 29.816-.183 39.225-1.818 5.066-.88 1.401 3.556 1.401 3.556s-9.847 2.512-20.36 2.143c-13.407-.472-20.266-3.881-20.266-3.881m120.955-4.439c-10.78-3.121-22.87-5.719-39.456 2.02-4.66 2.173 1.68-6.04 1.68-6.04s7.173-3.993 17.687-3.623c13.407.47 20.089 7.643 20.089 7.643m-76.696 2.158c.033.034.065.07.095.106-.074-.099-.082-.106-.023-.02.038.07.127.166.136.245-.048-.117-.053-.126-.016-.028a2.871 2.871 0 01.137.558c-.018-.13-.02-.142-.009-.034.006.098.016.195.019.292a6.616 6.616 0 01-.034.878c.021-.214-.025.134-.033.174a3.206 3.206 0 01-.147.492c.051-.118.054-.129.01-.034-.046.081-.087.164-.139.243a1.86 1.86 0 01-.08.115c.078-.1.083-.11.015-.03-.065.059-.124.146-.2.19.22-.124-.057.019-.1.042-.435.234-.609.871-.338 1.29a.967.967 0 001.292.338c1.116-.603 1.544-1.843 1.628-3.034.08-1.11-.091-2.274-.877-3.117-.338-.36-1-.366-1.336 0a.961.961 0 000 1.334m16.236 84.588s-11.094-.313-11.436.941c-.341 1.254-4.096 11.286-4.096 11.286l15.532 10.345V214.39z" fill="#3F2E2B"/><path d="M159.538 151.876s6.444 27.12 5.884 28.517c-.561 1.397-12.468 5.172-15.83 5.172h-.56c-3.362 0-15.27-3.775-15.83-5.172-.56-1.398 5.885-28.517 5.885-28.517h20.45z" fill="#E5897C"/><path d="M149.12 214.39s11.094-.313 11.436.941c.341 1.254 4.096 11.286 4.096 11.286l-15.532 10.345V214.39z" fill="#3F2E2B"/><path d="M181.973 205.132c-.533-1.715-4.109-3.418-3.83-.511-3.854 1.378-55.97 2.2-57.46.394 0 0 .008-.009.008-.017 1.177-2.039-1.785-2.572-2.78-1.014-1.486.957-1.163 3.787.916 2.84 1.133.83 5.223 1.819 22.076 1.819 2.586 0 5.475-.017 8.7-.067 21.538-.344 28.247-1.09 30.38-1.936.976 1.07 2.76-.286 1.99-1.508" fill="#84312F"/><path d="M149.711 87.136c-.134-.008-.268-.008-.403-.017.135 0 .269-.008.403-.008v.025zm-.403-.016c-.134.008-.268.008-.403.016v-.025c.135 0 .269.008.403.008" fill="#FF6845"/><path d="M117.52 151.14c0 3.793-3.944 6.867-8.81 6.867-4.867 0-8.812-3.074-8.812-6.867 0-3.792 3.945-6.866 8.812-6.866 4.866 0 8.81 3.074 8.81 6.866" fill="#FFFBFA"/><path d="M114.32 150.814c0 2.955-2.4 5.35-5.36 5.35a5.356 5.356 0 01-5.363-5.35c0-2.955 2.4-5.35 5.362-5.35a5.356 5.356 0 015.362 5.35" fill="#000"/><path d="M118.577 149.67c-.412 0-.825-.15-1.149-.453-5.624-5.264-11.186-5.526-16.533-.775-.165.147-.293.258-.38.328a1.677 1.677 0 01-2.084-2.629c.054-.043.131-.113.231-.202 6.674-5.93 14.155-5.634 21.064.833a1.676 1.676 0 01-1.15 2.898m-10.209 9.624c-2.163 0-4.14-.789-5.912-2.365a.418.418 0 01-.034-.591.421.421 0 01.592-.035c4.446 3.953 9.15 1.453 10.695.632l.168-.089a.42.42 0 11.39.742l-.162.086c-2.033 1.08-3.949 1.62-5.737 1.62" fill="#000"/><path d="M178.927 151.14c0 3.793 3.945 6.867 8.812 6.867 4.866 0 8.81-3.074 8.81-6.867 0-3.792-3.944-6.866-8.81-6.866-4.867 0-8.812 3.074-8.812 6.866" fill="#FFFBFA"/><path d="M182.54 150.814c0 2.955 2.4 5.35 5.362 5.35a5.356 5.356 0 005.361-5.35c0-2.955-2.4-5.35-5.361-5.35a5.357 5.357 0 00-5.363 5.35" fill="#000"/><path d="M177.87 149.67a1.675 1.675 0 01-1.149-2.898c6.91-6.467 14.39-6.762 21.064-.833.1.088.178.159.232.202a1.676 1.676 0 01-2.083 2.629 9.474 9.474 0 01-.381-.328c-5.348-4.749-10.91-4.49-16.533.775a1.676 1.676 0 01-1.15.453m10.211 9.624c-1.788 0-3.704-.54-5.737-1.62l-.162-.086a.418.418 0 11.389-.742l.168.088c1.546.821 6.25 3.32 10.696-.63a.42.42 0 11.558.626c-1.773 1.575-3.75 2.364-5.912 2.364" fill="#000"/><path d="M175.004 230.812l-26.317 1.827-26.317-1.827s-10.294-26.914-10.538-27.643c-.243-.737 9.556-4.65 12.008-4.893 2.452-.243 4.66.98 8.338 1.952 2.922.78 12.63-.603 16.509-1.198 3.888.595 13.595 1.978 16.517 1.198 3.67-.972 5.878-2.195 8.33-1.952 2.452.243 12.26 4.156 12.016 4.893-.252.73-10.546 27.643-10.546 27.643zm45.84-113.26l-3.183 21.77 1.226 7.34s.243 26.175.243 28.379c0 2.195-11.764 30.818-13.729 30.818-1.956 0-8.825 1.952-11.52 1.224-2.696-.738-7.6-16.876-12.009-17.613-4.416-.738-16.92-3.184-20.102-2.933-3.09.235-11.236 2.991-13.083 3.167-1.839-.176-9.993-2.932-13.074-3.167-3.191-.251-15.695 2.195-20.103 2.933-4.417.737-9.32 16.875-12.016 17.613-2.696.728-9.556-1.224-11.521-1.224-1.957 0-13.73-28.623-13.73-30.818 0-2.204.253-28.38.253-28.38l1.225-7.34-3.19-21.769h-8.582l.982 16.147 2.94 48.188 16.18 35.225 25.99 44.828h69.3l25.982-44.828 16.18-35.225 2.94-48.188.982-16.147h-8.582z" fill="#3F2E2B"/><path d="M233.323 112.713l-83.854-12.475-83.862 12.475c-5.6-98.17 70.066-95.352 83.241-95.285h1.226c13.141-.067 88.85-2.9 83.249 95.285" fill="#F43D28"/><g transform="translate(65.973 17.276)"><mask id="d" fill="#fff"><use xlink:href="#c"/></mask><path d="M113.183 2.362c9.947 1.872 10.366 9.642-1.618 10.637-4.66 9.569-16.048 7.49-14.926-1.59-7.294-2.528-3.947-8.37 3.943-9.408 3.713-4.711 11.373-4.777 12.6.361" fill="#FFE176" mask="url(#d)"/></g><g transform="translate(65.973 17.276)"><mask id="f" fill="#fff"><use xlink:href="#e"/></mask><path d="M107.588 4.979a2.404 2.404 0 010 3.396 2.396 2.396 0 01-3.392 0 2.404 2.404 0 010-3.396 2.396 2.396 0 013.392 0" fill="#F43D28" mask="url(#f)"/></g><g transform="translate(65.973 17.276)"><mask id="h" fill="#fff"><use xlink:href="#g"/></mask><path d="M55.695 7.18c7.047 3.556 5.836 8.979-1.568 7.305-2.545 4.027-8.07 1.256-8.42-3.542-4.3-2.852-3.51-6.809 1.309-6.384 2.171-4 8.104-2.662 8.68 2.622" fill="#FFE176" mask="url(#h)"/></g><g transform="translate(65.973 17.276)"><mask id="j" fill="#fff"><use xlink:href="#i"/></mask><path d="M53.081 8.009c.89 1.183.999 2.401-.266 2.832-1.223.416-3.85.145-4.625-.99-.753-1.103.454-2.726 1.561-3.188 1.144-.477 2.468.199 3.33 1.346" fill="#E89A34" mask="url(#j)"/></g><g transform="translate(53.5 10)"><path d="M174.297 122.556c-11.024-10.412-57.316-17.244-78.489-17.244-21.172 0-67.458 6.83-78.48 17.244-8.461 7.996-8.774-18.073 2.581-30.062 10.204-10.75 45.913-12.104 75.503-12.909.132-.008.264-.008.396-.016.133.008.265.008.397.016 29.598.805 65.306 2.16 75.503 12.909 11.363 11.989 11.049 38.06 2.589 30.062" fill="#C12708"/><path d="M30.917 138.386c-.3 0-.607-.064-.897-.201l-17.169-8.087a2.084 2.084 0 01-.999-2.782 2.102 2.102 0 012.795-.994l17.17 8.086c1.047.494.89 1.39.395 2.433-.36.755-.51 1.545-1.295 1.545m129.373.419c-.78 0-.41-.615-.772-1.36-.505-1.04-.166-2.499-.143-2.61L176 126.837a2.103 2.103 0 012.804.972 2.086 2.086 0 01-.977 2.79l-16.623 7.996a2.093 2.093 0 01-.912.209" fill="#000"/><path fill="#D39279" d="M74.818 251.518l.165 4.607 41.052-.818-.165-3.789zm-58.243-85.353c-.737-.367-2.6-34.457-8.584-30.614-2.633 1.691-4.24 5.504-3.686 7.337m171.733 21.557c.738-.367 1.557-32.56 7.653-28.894 3.79 2.28 3.827 4.974 3.274 6.81"/><path d="M85.956 50.884l5.464-1.204s2.743 7.917-2.363 12.518c-6.8 6.129-17.945 1.951-24.217 9.293-3.781 4.426 1.079-3.182 5.534-9.923a25.16 25.16 0 0115.582-10.684" fill="#E5897C"/><path d="M35.323 30.141c3.873 0 7.081 2.03 10.197 4.002 3.23 2.045 6.279 3.988 10.037 3.873 5.053-.136 7.773-5.177 8.419-6.547l-4.083-2.17a22.122 22.122 0 00-16.56-1.746c-4.425 1.268-7.094 2.084-8.7 2.61.232-.015.462-.022.69-.022m19.957 8.715c-3.877 0-7.095-2.037-10.21-4.007-3.603-2.28-7.006-4.431-11.375-3.744-1.54.245-2.047.282-2.157-.208-.116-.523-.175-.785 11.563-4.147a22.971 22.971 0 0117.189 1.81l4.756 2.53-.137.346c-.117.296-2.95 7.243-9.329 7.415-.1.002-.2.004-.299.004m36.523-8.714c3.872 0 7.081 2.03 10.197 4.002 3.23 2.045 6.278 3.988 10.036 3.873 5.054-.136 7.774-5.177 8.42-6.547l-4.083-2.17a22.122 22.122 0 00-16.56-1.746c-4.426 1.268-7.094 2.084-8.7 2.61.232-.015.462-.022.69-.022m19.957 8.715c-3.878 0-7.095-2.037-10.21-4.007-3.603-2.28-7.009-4.431-11.375-3.744-1.54.245-2.047.282-2.157-.208-.117-.523-.175-.785 11.563-4.147a22.963 22.963 0 0117.188 1.811l4.756 2.53-.138.346c-.116.296-2.95 7.243-9.327 7.415-.1.002-.2.004-.3.004m-41.938.674c1.445.467 7.002 1.937 10.557-1.64 2.64-2.658 3.31-6.194 4.02-9.938.724-3.823 1.471-7.767 4.524-10.63-1.484.808-3.907 2.188-7.862 4.536a21.941 21.941 0 00-10.041 13.223l-1.198 4.45zm4.37 1.557c-2.682 0-4.868-.837-5.031-.901l-.349-.137 1.397-5.184A22.769 22.769 0 0180.632 21.14c10.488-6.227 10.641-6.006 10.945-5.564.285.414-.09.757-1.32 1.71-3.494 2.701-4.241 6.645-5.032 10.82-.701 3.703-1.427 7.531-4.248 10.371-2.027 2.04-4.574 2.61-6.784 2.61zm59.004-1.557c1.445.467 7.001 1.937 10.557-1.64 2.613-2.63 2.522-5.203 2.435-7.692-.09-2.578-.184-5.234 2.762-7.681-.937.29-2.611.998-5.485 2.706l-.397.234c-4.818 2.859-7.237 4.293-8.674 9.624l-1.198 4.45zm4.37 1.557c-2.682 0-4.868-.837-5.031-.901l-.349-.137 1.397-5.184c1.525-5.66 4.2-7.245 9.055-10.125l.396-.235c4.297-2.55 6.57-3.281 7.414-2.698a.379.379 0 010 .642c-3.608 2.393-3.521 4.861-3.421 7.72.09 2.542.19 5.423-2.677 8.31-2.027 2.04-4.574 2.608-6.784 2.608z" fill="#DD3218"/><path d="M44.482 48.395l-5.264-1.89s-3.737 7.504.736 12.716c5.96 6.943 17.549 4.217 22.827 12.296 3.183 4.87-.66-3.295-4.215-10.546a25.12 25.12 0 00-14.084-12.576" fill="#E5897C"/><path d="M47.946 64.015l2.215-1.372s2.438 3.059.91 5.87c-2.036 3.743-7.588 3.626-9.204 7.822-.973 2.53-.021-1.566.89-5.218a11.677 11.677 0 015.189-7.102" fill="#E5897C"/><path d="M29.318 69.317l-2.609-.019s-.475 3.875 2.304 5.478c3.701 2.135 8.374-.852 11.953 1.887 2.158 1.652-.804-1.347-3.496-3.988a11.76 11.76 0 00-8.152-3.358m119.377-7.301l5.674 1.26s-.922 8.652-7.762 10.744c-9.11 2.786-17.75-6.03-26.899-1.871-5.516 2.508 2.423-2.521 9.599-6.912a26.244 26.244 0 0119.388-3.221" fill="#E5897C"/><path d="M110.26 41.679l-4.117-4.086s-6.836 5.424-4.934 12.287c2.534 9.145 14.647 11.66 16.038 21.575.839 5.977.835-3.389.7-11.77a25.954 25.954 0 00-7.687-18.006" fill="#E5897C"/><path d="M75.006 53.986c4.647 8.907-2.784 15.411-11.066 9.687-8.947 4.625-15.484-2.772-9.732-11.014-4.647-8.905 2.785-15.41 11.066-9.686 8.948-4.625 15.484 2.771 9.732 11.013" fill="#FFE176"/><path d="M68.973 53.602c-.155 2.399-2.235 4.22-4.645 4.066-2.412-.153-4.241-2.224-4.087-4.624.155-2.4 2.235-4.22 4.646-4.066 2.411.154 4.24 2.224 4.086 4.624" fill="#E89A34"/><path d="M44.38 62.672c5.89 1.855 5.503 7.879-.578 8.97-1.865 5.864-7.917 5.477-9.013-.576-5.892-1.855-5.504-7.879.578-8.97 1.863-5.864 7.916-5.477 9.012.576" fill="#FFE176"/><path d="M41.597 65.107a2.66 2.66 0 01-.243 3.766 2.69 2.69 0 01-3.784-.242 2.66 2.66 0 01.243-3.766 2.69 2.69 0 013.784.242" fill="#FF6845"/><path d="M142.704 62.426c-1.892 15.416-17.097 17.253-22.64 2.734-15.49-1.883-17.334-17.015-2.748-22.532 1.893-15.417 17.097-17.253 22.64-2.735 15.49 1.883 17.336 17.016 2.748 22.533" fill="#FFE176"/><path d="M135.34 56.683c-2.307 2.929-6.562 3.443-9.505 1.148a6.717 6.717 0 01-1.154-9.46c2.306-2.93 6.562-3.443 9.505-1.148a6.717 6.717 0 011.154 9.46" fill="#FF6845"/><path d="M18.4 90.36c-.656-37.285 20.52-57.895 38.4-68.62C76.085 10.173 95.81 7.34 96.007 7.313l.347 2.484c-.192.027-19.475 2.806-38.322 14.132C32.895 39.033 20.41 61.37 20.92 90.317l-2.519.044z" fill="#C12708"/><mask id="l" fill="#fff"><use xlink:href="#k"/></mask><path fill="#C12708" mask="url(#l)" d="M94 77.184h2.52V8.596H94z"/><path d="M177.49 65.876c-.502-2.281-9.556-4.675-9.722 2.937-.167 7.613-3.58 10.632 4.069 15.432 7.648 4.799 8.11 15.562 8.177 13.474.073-2.258 1.216-14.864-2.524-31.843" fill="#FFE176" mask="url(#l)"/><path d="M173.397 90.658l-2.52-.045c.511-28.975-12-51.366-37.184-66.548C114.844 12.703 95.631 9.885 95.44 9.858l.354-2.481c.197.027 19.921 2.919 39.205 14.544 17.88 10.778 39.055 31.453 38.399 68.737" fill="#C12708" mask="url(#l)"/><path d="M175.505 120.935c-11.193-10.597-58.198-17.55-79.697-17.55-21.498 0-68.497 6.95-79.688 17.55-8.592 8.138-8.91-18.395 2.62-30.596C29.102 79.399 65.36 78.02 95.405 77.2c.135-.008.27-.008.403-.017.135.009.27.009.404.017 30.053.819 66.312 2.198 76.665 13.138 11.538 12.201 11.219 38.736 2.628 30.596" fill="#FF6845" mask="url(#l)"/><path d="M16.123 59.203c-1 4.245 7.494-2.233 10.073-8.81 5.143-13.117-.17-10.712-1.522-10.79-1.213 1.848-6.722 11.836-8.551 19.6" fill="#FFE176" mask="url(#l)"/><path d="M86.538 4.664c0 2.148 3.905 3.891 8.723 3.891 4.817 0 8.722-1.743 8.722-3.891 0-2.15-3.905-3.892-8.722-3.892-4.818 0-8.723 1.742-8.723 3.892" fill="#F43D28" mask="url(#l)"/><path d="M159.03 150.02c0 .92-.747 1.672-1.68 1.672h-45.109a1.68 1.68 0 01-1.679-1.672v-17.09c0-.92.756-1.672 1.68-1.672h45.109c.932 0 1.68.752 1.68 1.671v17.091zm-77.967 0a1.68 1.68 0 01-1.68 1.672H34.267a1.68 1.68 0 01-1.68-1.672v-17.09c0-.92.756-1.672 1.68-1.672h45.118a1.68 1.68 0 011.679 1.671v17.091zm76.288-20.434h-45.11c-1.847 0-3.358 1.505-3.358 3.343v9.269c-3.258-1.771-10.43-1.948-13.058-1.948-2.637 0-9.841.177-13.083 1.964v-9.285c0-1.838-1.511-3.343-3.358-3.343H34.266c-1.848 0-3.359 1.505-3.359 3.343v17.091c0 1.847 1.511 3.343 3.359 3.343h45.118c1.847 0 3.358-1.496 3.358-3.343v-5.374a.713.713 0 00.06-.3c0-.87 4.349-2.424 13.023-2.424 3.577 0 6.903.284 9.363.794 3.006.627 3.661 1.387 3.661 1.63 0 .075.008.15.034.217v5.457c0 1.847 1.511 3.343 3.358 3.343h45.11a3.35 3.35 0 003.359-3.343v-17.09a3.355 3.355 0 00-3.36-3.344z" fill="#000" mask="url(#l)"/></g></g></svg>