<?xml version="1.0" encoding="UTF-8"?>
<!-- by Tanja Rohlfs (https://consento.org/team/tanja) - license: CC-BY-NC-ND (see: https://creativecommons.org/licenses/by-nc-nd/4.0/) -->
<svg width="300" height="300" xmlns="http://www.w3.org/2000/svg"><g fill="none" fill-rule="evenodd"><path fill="#FAD5C3" d="M128.756 265.694v33.73h45.497v-33.73z"/><path d="M128.745 265.696s10.454 7.118 22.384 7.024c11.93-.093 23.083-8.74 23.083-8.74l.025 12.663c-14.527 3.623-29.895 3.277-45.447-.057l-.045-10.89z" fill="#C98E77"/><path d="M218.479 161.848c.52-.52 4.51-6.591 7.806-6.245 3.295.348 7.98 3.123 8.327 4.858.347 1.735 1.387 19.428 1.387 19.428l-24.806 30.532-5.724-5.032 13.01-43.54zm-135.474 0c-.521-.52-4.51-6.591-7.806-6.245-3.296.348-7.98 3.123-8.327 4.858-.347 1.735-1.388 19.428-1.388 19.428l24.807 30.532 5.724-5.032-13.01-43.54z" fill="#FAD5C3"/><path d="M150.435 70.155L93.59 78.973l-9.254 50.237-1.33 32.638 4.855 32.142 7.179 39.127 38.237 31.73 17.206 8.244 23.77-7.397 33.474-32.484s7.593-33.322 6.881-33.186c-.712.135 3.69-107.443 3.69-107.443l-22.47-18.456-45.393-3.97z" fill="#FAD5C3"/><path d="M113.76 160.597a.38.38 0 01-.13-.736c.062-.03.273-.171.477-.309 7.068-4.753 13.604-5.03 19.43-.82a.38.38 0 01-.446.615c-5.54-4.003-11.784-3.722-18.56.836-.387.26-.527.352-.647.393a.387.387 0 01-.123.021" fill="#422D22"/><path d="M98.717 151.93c2.775-1.887 11.438-6.774 12.437-6.551 1 .222 27.43 3.887 27.43 3.887l-3.554 5.885-25.986-3.442-10.327.222zm37.922 3.76a.379.379 0 01-.277-.64c2.247-2.394 2.746-4.946 2.751-4.971a.38.38 0 11.747.138c-.02.112-.537 2.788-2.945 5.353a.376.376 0 01-.276.12m29.02 0a.376.376 0 01-.277-.12c-2.407-2.565-2.923-5.24-2.944-5.353a.379.379 0 11.746-.138c.006.025.505 2.577 2.752 4.971a.38.38 0 01-.277.64" fill="#8C5523"/><path d="M151.518 232.509c-.488-.179-1.82-.982-2.657-.982s-17.275-1.046-18.74-1.675" stroke="#7C2C0D" stroke-width="1.52" stroke-linecap="round"/><path d="M130.22 230.5c1.468 0 1.47-2.28 0-2.28-1.467 0-1.47 2.28 0 2.28" fill="#7C2C0D"/><path d="M151.774 232.509c.489-.179 1.82-.982 2.657-.982.838 0 17.276-1.046 18.741-1.675" stroke="#7C2C0D" stroke-width="1.52" stroke-linecap="round"/><path d="M173.072 230.5c1.468 0 1.47-2.28 0-2.28-1.467 0-1.47 2.28 0 2.28" fill="#7C2C0D"/><path d="M152.316 179.154l3.427.107 5.471 15.368s8.73 6.957 4.932 10.713c-2.466 2.44-8.94-.18-13.774 4.119h-.556c-4.833-4.299-11.307-1.68-13.774-4.12-3.797-3.755 4.933-10.712 4.933-10.712l5.471-15.368 3.426-.107h.444z" fill="#BA5435"/><path d="M98.372 177.708s1.068 10.064 14.373 16.751m90.582-16.751s-1.07 10.064-14.374 16.751" fill="#C98E77"/><path d="M151.76 86.912s-15.234-1.333-17.71-2.475c-2.476-1.142-33.323-10.093-36.37 3.237-3.047 13.33-3.047 57.698-3.047 57.698l-7.807 7.236 4.76 21.709-3.999 25.707-15.805-67.03 2.476-45.32 12.568-17.519h64.934s-.476 16.281 0 16.757" fill="#8C5523"/><path d="M150.435 86.912s15.234-1.333 17.71-2.475c2.476-1.142 31.542-9.989 34.588 3.34 3.047 13.33 4.83 57.595 4.83 57.595l7.807 7.236-4.76 21.709 3.998 25.707 15.805-67.03-2.475-45.32-12.568-17.519h-64.935s.477 16.281 0 16.757" fill="#8C5523"/><path d="M97.142 89.667S70.156 67.746 86.978 54.578c16.82-13.168 31.622-16.894 37.838-14.073 6.216 2.822 19.207 2.786 19.207 2.786s15.724-3.449 35.836 5.957c20.112 9.405 14.86 10.833 23.404 17.244 2.924 2.195 11.479-1.876 24.744 23.175 0 0-13.775 3.217-23.847 2.653-6.043-.337-8.836-9.286-22.476-2.997-21.073 9.716-54.454 3.406-67.927-2.41-9.971-4.306-16.615 2.754-16.615 2.754" fill="#8C5523"/><path d="M145.132 37.672s-25.823 8.911-22.807 31.532c1.888 14.149-.67 12.902 4.493 20.997m36.382-51.88s-2.79 14.393-1.282 22.445c1.51 8.05 7.977 31.126 7.977 31.126m33.648-32.909s-16.174 8.545-2.136 31.128M85.244 72.574c1.398 1.572 9.15 13.606 12.436 15.1" stroke="#5B2E09" stroke-width=".76"/><path d="M176.263 60.517c14.145-10.648 16.742 26.937.524 40.46-6.001 5.004 29.517-14.564 31.14-18.564 1.623-4-1.099-31.967-1.099-31.967s-11.314-5.868-14.527-5.448c-19.334 2.522-27.84 16.458-16.038 15.52" fill="#8C5523"/><path d="M184.063 51.031s6.116-5.862 6.371-3.823c.255 2.04 2.548 29.309-3.568 38.74" stroke="#5B2E09" stroke-width=".76"/><path d="M133.784 166.532c0 2.916-4.388 5.28-9.802 5.28s-9.803-2.364-9.803-5.28c0-2.917 4.39-5.281 9.803-5.281 5.414 0 9.802 2.364 9.802 5.28" fill="#FFF"/><path d="M130.199 166.452a5.644 5.644 0 11-11.289 0 5.644 5.644 0 1111.289 0" fill="#2F2F47"/><path d="M114.098 165.918a1.141 1.141 0 01-.46-2.184c.083-.048.211-.137.383-.252 5.058-3.403 12.684-6.307 20.299-.806a1.14 1.14 0 01-1.337 1.847c-5.256-3.798-11.209-3.511-17.69.85-.414.28-.603.406-.824.482a1.134 1.134 0 01-.37.063m75.133-5.321a.365.365 0 01-.12-.02c-.12-.042-.26-.134-.647-.395-6.773-4.557-13.018-4.839-18.56-.835a.38.38 0 01-.445-.616c5.828-4.21 12.364-3.932 19.43.82.206.14.42.284.48.31a.39.39 0 01.208.49.376.376 0 01-.346.246" fill="#422D22"/><path d="M204.28 151.93c-2.776-1.887-11.439-6.774-12.438-6.551-1 .222-27.43 3.887-27.43 3.887l3.554 5.885 25.986-3.442 10.327.222z" fill="#8C5523"/><path d="M169.212 166.532c0 2.916 4.388 5.28 9.802 5.28s9.804-2.364 9.804-5.28c0-2.917-4.39-5.281-9.804-5.281-5.414 0-9.802 2.364-9.802 5.28" fill="#FFF"/><path d="M172.797 166.452a5.644 5.644 0 1011.29 0 5.644 5.644 0 00-11.29 0" fill="#2F2F47"/><path d="M188.898 165.918c-.122 0-.248-.02-.371-.063-.22-.076-.41-.203-.825-.481-6.482-4.361-12.433-4.648-17.69-.85a1.14 1.14 0 01-1.336-1.848c7.614-5.5 15.24-2.598 20.3.806.171.115.299.204.382.252a1.14 1.14 0 01-.46 2.184" fill="#422D22"/><path d="M221.387 171.562l-14.812 61.552s-27.284 28.409-32.939 33.129c-7.645 6.376-22.503 6.847-22.503 6.847s-14.866-.471-22.512-6.847c-5.654-4.72-32.937-33.129-32.937-33.129L80.87 171.562l9.006 13.27s9.842 47.188 10.58 47.553c.728.364 18.702 20.17 19.432 20.535.274.137 1.93 1.657 4.036 3.572v-4.347l21.95 6.893a20.922 20.922 0 0012.181.09l20.566-6.117v3.222c1.961-1.793 3.481-3.184 3.747-3.313.73-.365 18.704-20.17 19.433-20.535.737-.365 10.572-47.447 10.572-47.447l9.013-13.376z" fill="#B58054"/><path d="M119.89 252.92l.38-36.574a3.8 3.8 0 013.8-3.76h12.52l15.205.649-.316 11.908-20.383-2.416c-2.206-.48-4.414.904-4.885 3.113-2.295 10.757-1.155 31.464-2.118 31.188-1.233-.351-4.203-4.107-4.203-4.107" fill="#B58054"/><path d="M182.982 252.92l-.38-36.747a3.8 3.8 0 00-3.849-3.76l-13.285.172-14.392.57.316 11.988 20.383-2.416c2.206-.48 4.414.904 4.886 3.113 2.293 10.757 1.153 31.464 2.117 31.188 1.233-.351 4.204-4.107 4.204-4.107m-30.942-11.158v.015l-.015-.007z" fill="#B58054"/><path d="M161.54 236.592c.337-.018.45.443.144.588l-9.643 4.583-.016.007-.022-.007-9.643-4.583c-.307-.145-.194-.606.143-.588 2.675.145 7.979.405 9.5.277h.038c1.52.128 6.824-.132 9.499-.277m-9.515 5.178l-.022.008v-.015z" fill="#B58054"/><path d="M239.762 126.652c-1.157 7.745-74.352-17.697-89.522-20.1-15.171 2.403-88.374 27.845-89.523 20.1-2.676-17.95 1.913-38.34 1.913-38.34-3.56-9.366 11.201-12.22 11.474-15.263.82-9.382 20.876-29.9 26.646-29.117 10.253-13.974 24.677-5.477 27.28-8.204 6.79-7.129 18.642-7.95 22.21-6.157 3.56-1.794 15.42-.972 22.21 6.157 2.595 2.727 17.027-5.77 27.28 8.204 5.769-.782 25.818 19.735 26.645 29.117.265 3.043 15.026 5.897 11.475 15.262 0 0 4.588 20.39 1.912 38.34" fill="#42C697"/><path d="M169.101 39.843c1.871 4.398-10.765 58.869-13.722 59.367-1.39.234 25.948-14.492 30.25-48.221 1.404-11.003-16.528-11.146-16.528-11.146m69.898 48.931s-.586-.404-5.486 2.343c-7.32 4.104-21.817 5.89-21.56 5.89.257 0 17.459.62 21.592.101 1.4-.175 7.226-1.752 7.497-2.456 1.417-3.686-2.043-5.878-2.043-5.878m-39.911-37.593c1.002 5.195-18.515 34.787-20.853 38.156-2.582 3.72 44.242-3.044 42.89-8.778-2.437-12.728-7.285-22.75-22.037-29.378M149.92 76.638c-4.244-1.083-7.933-34.69-5.997-36.935 1.601-1.856 5.476-2.437 6.26-2.694h.111c.783.257 4.658.838 6.26 2.694 1.936 2.245-1.755 35.852-5.998 36.935h-.635zm-18.546-36.795c-1.87 4.398 10.767 58.869 13.723 59.367 1.39.234-25.947-14.492-30.25-48.221-1.404-11.003 16.527-11.146 16.527-11.146M61.477 88.774s.586-.404 5.487 2.343c7.32 4.104 21.816 5.89 21.56 5.89-.257 0-17.46.62-21.594.101-1.399-.175-7.224-1.752-7.495-2.456-1.418-3.686 2.042-5.878 2.042-5.878m39.912-37.593c-1.002 5.195 18.514 34.787 20.852 38.156 2.582 3.72-44.241-3.044-42.89-8.778 2.438-12.728 7.285-22.75 22.038-29.378" fill="#14676D"/><path d="M230.449 143.28c-11.579 0-9.924-19.11-26.998-19.276l-53.131-2.877-53.13 2.877c-17.076.166-15.428 19.277-27.008 19.277-9.248 0-14.334-23.324-9.039-26.912 9.233-8.79 45.255-10.354 89.097-9.817h.152c43.842-.537 79.864 1.028 89.105 9.817 5.287 3.588.201 26.912-9.048 26.912" fill="#00A4B9"/></g></svg>