<!-- by Tanja Rohlfs (http://tanjarohlfs.de/) - license: CC-BY-NC-ND (see: https://creativecommons.org/licenses/by-nc-nd/4.0/) -->
<svg width="300" height="300" xmlns="http://www.w3.org/2000/svg" xmlns:xlink="http://www.w3.org/1999/xlink"><defs><path id="a" d="M.509.131h27.538v45.492H.509z"/><path id="c" d="M0 .642h27.538V45.35H0z"/><path id="e" d="M0 283h188.32V0H0z"/></defs><g transform="translate(55 17)" fill="none" fill-rule="evenodd"><g transform="translate(160.228 116.53)"><mask id="b" fill="#fff"><use xlink:href="#a"/></mask><path d="M.509 24.502c0 11.778.672 21.121 8.682 21.121s18.745-10.968 18.745-22.746C27.936 11.1 29.434.131 21.425.131 13.415.131.509 12.725.509 24.502" fill="#F7DAD2" mask="url(#b)"/></g><path d="M169.592 153.985c.671-.354 2.538-33.593 7.988-29.884 2.398 1.633 3.861 5.312 3.358 7.082" fill="#E59993"/><g transform="translate(0 116.53)"><mask id="d" fill="#fff"><use xlink:href="#c"/></mask><path d="M27.538 24.592c0 11.574-.672 20.757-8.682 20.757S.111 34.569.111 22.995-1.387.642 6.623.642s20.915 12.376 20.915 23.95" fill="#F7DAD2" mask="url(#d)"/></g><path d="M165.43 142.54c0 58.612-32.141 106.125-71.79 106.125-39.65 0-71.79-47.513-71.79-106.125 0-58.611 32.14-106.125 71.79-106.125 39.649 0 71.79 47.514 71.79 106.125" fill="#F7DAD2"/><mask id="f" fill="#fff"><use xlink:href="#e"/></mask><path fill="#F7DAD2" mask="url(#f)" d="M74.912 283h38.496v-41.618H74.912z"/><path d="M74.912 253.868l.155 6.284c-.021 2.482 38.132 2.82 38.154.338l.187-6.622H74.912z" fill="#C69C87" mask="url(#f)"/><path d="M17.688 152.945c-.687-.347-4.422-32.475-9.993-28.847-2.452 1.597-3.947 5.197-3.432 6.93" fill="#E59993" mask="url(#f)"/><path d="M33.294 123.133c1.328-1.302 2.748-2.41 4.213-3.468a53.954 53.954 0 012.269-1.486c.79-.455 1.583-.904 2.41-1.31 3.29-1.617 7.192-2.604 11.07-2.392 3.866.227 7.468 1.43 10.718 3.037 3.244 1.654 6.214 3.709 8.857 6.299-3.64-.452-6.995-1.375-10.3-2.115-3.296-.748-6.476-1.397-9.56-1.585-3.08-.159-6.12.225-9.385.938-3.263.685-6.657 1.675-10.292 2.082" fill="#6B6867" mask="url(#f)"/><path d="M52.817 139.42c-2.239 0-4.737-.69-7.414-2.536-.119-.082-.206-.144-.262-.175a.78.78 0 01-.313-1.039.765.765 0 011.018-.332c.082.04.233.137.442.282 4.335 2.988 8.651 3.023 12.835.1a.78.78 0 011.081.186.766.766 0 01-.188 1.071c-1.848 1.292-4.307 2.442-7.199 2.442" fill="#000" mask="url(#f)"/><path d="M108.206 174.496c0-1.092-8.505-36.886-8.799-37.636-.293-.75-12.282-.75-12.575 0-.294.75-8.799 36.05-8.799 37.636 0 5.947 30.173 5.947 30.173 0" fill="#E59993" mask="url(#f)"/><path d="M62.426 184.158s.699 9.769 1.46 9.463c.764-.306 9.19-1.468 10.257-.856 1.068.612 1.983 1.988 2.898 1.835.915-.152 3.204-.764 3.204-.764 2.44.764 5.032-.153 5.032-.153s1.068.765 2.136.917c1.068.153 5.186 1.323 5.186.918v-9.33l-30.173-2.03zm57.734 0s4.649 9.685 1.543 9.292c-.805-.102-8.484-1.292-9.538-.686-1.054.607-1.959 1.971-2.862 1.82-.904-.152-3.163-.758-3.163-.758-2.41.757-4.97-.152-4.97-.152s-1.054.758-2.108.91c-1.055.151-5.422 1.39-5.422.909v-9.249l26.52-2.086z" fill="#D8D8D8" mask="url(#f)"/><path d="M22.422 127.974c-.073-1.355-.105-2.08-.105-2.08" stroke="#F1D5C3" stroke-width="2" mask="url(#f)"/><path d="M163.402 127.588c-2.828 11.936-14.664 64.522-23.975 84.804-.996 2.152-4.381 1.969-5.098-.278l-8.157-25.555c-.318-1.009-1.298-1.723-2.437-1.779-1.752-.095-4.58-1.199-4.166.365.566 2.192 2.796 7.465 3.306 8.188 4.89 6.94 3.409 20.766 2.612 29.35a2.38 2.38 0 01-.294.945c-16.385 28.684-50.014 25.07-64.957-.19a2.248 2.248 0 01-.319-.977c-.796-8.584-2.27-22.394 2.613-29.327.51-.722 1.282-3.406 1.848-5.59.398-1.525-.868-2.97-2.541-2.97-.056 0-.104.008-.16.008-1.146.055-2.118.77-2.437 1.778l-8.156 25.555c-.717 2.247-4.11 2.43-5.098.278-9.43-20.52-20.415-71.613-22.183-82.882-.016-.087-.032-.174-.056-.254.247-.42.542-1.358.956-3.081 16.918-70.565 119.415-99.447 138.245-.238.143.754.295 1.358.454 1.842v.008zm8.881-86.193c-3.943-12.428-45.49-36.53-84.567-37.22-39.078-.691-69.41 27.055-75.861 32.233-6.197 4.963-2.573 75.861-1.514 82.556.016.127 6.667 4.923 9.527 6.9.151 2.177.613 8.1.685 9.189 1.657 15.104 2.238 56.962 7.44 79.562a2.3 2.3 0 00.223.596c8.148 15.302 26.357 28.262 36.21 34.679 14.8 9.656 42.9 8.52 52.985 2.207 6.619-4.145 29.328-13.635 35.93-24.61 6.835-11.34 13.797-84.255 13.2-99.542 0-.095-.025-.19-.048-.278 1.824-2.16 4.317-6.241 7.853-7.996 0 0 1.88-65.856-2.063-78.276z" fill="#D8D8D8" mask="url(#f)"/><path d="M67.629 197.684s5.549 11.445 25.49 11.445c19.942 0 25.491-11.098 25.491-11.098" fill="#CC7B71" mask="url(#f)"/><path d="M97.42 203.926c-1.156 0-2.35-.014-3.583-.045a36.199 36.199 0 00-.688-.013c-.185 0-.419.005-.747.013-14.099.342-23.302-1.29-26.612-4.73a.897.897 0 01-.016-1.208.762.762 0 011.13-.017c1.71 1.777 7.3 4.69 25.461 4.247.346-.009.593-.015.725-.015.191 0 .438.006.784.015 18.17.447 23.751-2.47 25.461-4.247a.762.762 0 011.13.017c.308.339.3.88-.016 1.209-3.02 3.138-10.95 4.774-23.028 4.774" fill="#823C37" mask="url(#f)"/><path d="M56.985 193.522a.811.811 0 01-.789-.956c.931-5.245 9.644-15.982 10.015-16.437a.792.792 0 011.128-.108c.34.286.388.798.106 1.144-.088.108-8.816 10.861-9.673 15.688a.804.804 0 01-.787.67m72.269-.001a.804.804 0 01-.787-.669c-.857-4.827-9.585-15.58-9.673-15.688a.821.821 0 01.106-1.144.792.792 0 011.128.108c.37.455 9.084 11.192 10.014 16.437a.811.811 0 01-.788.956" fill="#D99380" mask="url(#f)"/><path d="M78.033 215.371c0 2.775 29.132 2.775 29.132 0" stroke="#DBD2D1" stroke-width="7" mask="url(#f)"/><path d="M61.386 132.136c0 3.448-3.727 6.243-8.323 6.243-4.597 0-8.324-2.795-8.324-6.243 0-3.448 3.727-6.243 8.324-6.243 4.596 0 8.323 2.795 8.323 6.243" fill="#FFF" mask="url(#f)"/><path d="M58.265 131.096a5.202 5.202 0 11-10.405 0 5.202 5.202 0 0110.405 0" fill="#303349" mask="url(#f)"/><path d="M63.339 129.642a.787.787 0 01-1.086.22c-4.562-3.056-9.15-3.857-13.634-2.372-3.367 1.123-5.438 3.15-5.664 3.378a.798.798 0 01-.93.133.803.803 0 01-.39-.864l.937-4.258a.783.783 0 01.93-.605.79.79 0 01.593.943l-.453 2.074c3.063-2.145 9.743-5.366 18.032-.636-.077-.637-.164-1.367-.226-1.925a.783.783 0 01.68-.872.788.788 0 01.868.683c.132 1.116.359 2.939.397 3.34a.784.784 0 01-.054.761" fill="#000" mask="url(#f)"/><path d="M50.727 144.621c-.395 0-.737-.316-.78-.744-.049-.459.262-.873.694-.924 9.487-1.12 15.639-6.412 15.7-6.465a.756.756 0 011.108.115.872.872 0 01-.106 1.176c-.263.231-6.554 5.66-16.528 6.837a.79.79 0 01-.088.005" fill="#D99380" mask="url(#f)"/><path d="M151.904 123.133c-3.635-.407-7.029-1.397-10.292-2.082-3.264-.713-6.305-1.097-9.385-.938-3.083.188-6.264.837-9.56 1.585-3.305.74-6.66 1.663-10.3 2.115 2.644-2.59 5.613-4.645 8.857-6.299 3.25-1.606 6.852-2.81 10.72-3.037 3.876-.212 7.778.775 11.069 2.391.827.407 1.62.856 2.41 1.31.767.48 1.528.972 2.268 1.487 1.466 1.057 2.885 2.166 4.213 3.468" fill="#6B6867" mask="url(#f)"/><path d="M133.414 139.42c-2.89 0-5.345-1.15-7.192-2.442a.766.766 0 01-.187-1.071.778.778 0 011.08-.186c4.179 2.92 8.492 2.887 12.821-.1.21-.144.36-.241.442-.282a.777.777 0 011.04.345.766.766 0 01-.339 1.027c-.055.032-.141.093-.258.174-2.675 1.845-5.171 2.534-7.407 2.534" fill="#000" mask="url(#f)"/><path d="M124.853 132.136c0 3.448 3.727 6.243 8.323 6.243 4.597 0 8.324-2.795 8.324-6.243 0-3.448-3.727-6.243-8.324-6.243-4.596 0-8.323 2.795-8.323 6.243" fill="#FFF" mask="url(#f)"/><path d="M127.974 131.096a5.202 5.202 0 1010.405 0 5.202 5.202 0 00-10.405 0" fill="#303349" mask="url(#f)"/><path d="M135.512 144.621a.79.79 0 01-.088-.005c-9.974-1.178-16.265-6.606-16.527-6.837a.872.872 0 01-.107-1.176.756.756 0 011.108-.115c.061.054 6.213 5.344 15.7 6.465.432.05.743.465.695.924-.044.428-.386.744-.781.744" fill="#D99380" mask="url(#f)"/><g mask="url(#f)"><path d="M53.899 36.141L32.5 54.85c-.375.328-.04.94.435.793l12.889-3.984c.464-.144.803.445.449.78L31.71 66.263c-.338.32-.044.888.41.79l8.488-1.818c.421-.09.723.403.454.743l-7.849 9.908c-.286.361.072.877.506.729l19.846-6.784a.459.459 0 01.565.629c-1.799 3.877-8.248 17.884-6.765 16.386 1.517-1.532 14.808-11.442 17.92-13.756a.457.457 0 01.725.333l1.223 13.287a.458.458 0 00.735.326l17.094-13.108a.459.459 0 01.736.406l-1.185 14.944c-.035.444.51.678.802.343l11.268-12.918a.458.458 0 01.783.172l1.95 6.468c.1.331.51.439.757.2 2.427-2.364 12.27-11.849 12.872-10.936.567.858 1.834 5.49 2.263 7.094a.457.457 0 00.648.292l4.046-2.043a.458.458 0 01.494.055l10.22 8.386c.259.213.65.083.733-.244l2.398-9.382a.457.457 0 01.727-.248l6.732 5.32c.278.22.687.054.737-.3l.92-6.499" fill="#D8D8D8"/><path d="M53.899 36.141L32.5 54.85c-.375.328-.04.94.435.793l12.889-3.984c.464-.144.803.445.449.78L31.71 66.263c-.338.32-.044.888.41.79l8.488-1.818c.421-.09.723.403.454.743l-7.849 9.908c-.286.361.072.877.506.729l19.846-6.784a.459.459 0 01.565.629c-1.799 3.877-8.248 17.884-6.765 16.386 1.517-1.532 14.808-11.442 17.92-13.756a.457.457 0 01.725.333l1.223 13.287a.458.458 0 00.735.326l17.094-13.108a.459.459 0 01.736.406l-1.185 14.944c-.035.444.51.678.802.343l11.268-12.918a.458.458 0 01.783.172l1.95 6.468c.1.331.51.439.757.2 2.427-2.364 12.27-11.849 12.872-10.936.567.858 1.834 5.49 2.263 7.094a.457.457 0 00.648.292l4.046-2.043a.458.458 0 01.494.055l10.22 8.386c.259.213.65.083.733-.244l2.398-9.382a.457.457 0 01.727-.248l6.732 5.32c.278.22.687.054.737-.3l.92-6.499" stroke="#AAA9A9"/></g><path d="M126.934 12.64L115.236 1.415l1.061 6.796-8.651-4.93.32 4.73L95.52.722l2.153 8.738L77.562 0l5.052 6.955-13.465-5.19 1.535 7.017L56.14 2.225l7.171 7.38-18.288-6.03s8.466 7.704 7.757 7.37c-.71-.334-18.093 2.629-17.383 2.962.71.335 14.906 2.74 14.906 2.74" fill="#D8D8D8" mask="url(#f)"/><path d="M152.118 137.982c0 4.055-3.74 7.357-8.338 7.357h-14.774c-19.134 0-20.733-10.05-20.733-19.466 0-4.92 1.543-5.93 3.858-5.938l32.23-.128h.04c2.211 0 4.328.841 5.8 2.316 1.233 1.242 1.917 2.837 1.917 4.488v11.371zM56.2 145.339H41.419c-4.591 0-8.33-3.302-8.33-7.357v-11.371c0-1.651.676-3.246 1.917-4.488 1.464-1.475 3.58-2.316 5.8-2.316h.032l32.23.128c2.323.008 3.866 1.018 3.866 5.938 0 9.416-1.607 19.466-20.733 19.466zm118.552-28.81l-20.248 10.418v-.336c0-2.3-.931-4.496-2.626-6.187-1.91-1.923-4.638-3.021-7.478-3.021h-.048l-32.23.128c-6.237.024-6.237 6.283-6.237 8.342 0 .345 0 .714.008 1.098h-26.58c.008-.384.008-.753.008-1.098 0-2.06 0-8.318-6.238-8.342l-32.237-.128h-.04c-2.848 0-5.57 1.098-7.487 3.021-1.686 1.69-2.617 3.895-2.617 6.187v.344L10.446 116.53l-1.082 2.148 21.338 10.97v8.335c0 5.377 4.805 9.76 10.717 9.76H56.2c19.77 0 22.634-10.802 23.048-18.367h26.708c.414 7.565 3.278 18.368 23.049 18.368h14.774c5.911 0 10.725-4.384 10.725-9.761v-8.334l21.33-10.97-1.082-2.149z" fill="#8C8786" mask="url(#f)"/><path d="M144.219 131.001a.784.784 0 01-.93-.134c-.344-.345-8.423-8.295-19.306-1.005a.776.776 0 01-1.078-.22.732.732 0 01-.102-.628c-.008-.008 0-.016 0-.016v-.04c.008-.133.258-2.199.406-3.417a.79.79 0 01.875-.683.795.795 0 01.68.872c-.07.573-.164 1.312-.234 1.948 8.305-4.768 15-1.54 18.063.613l-.453-2.074a.79.79 0 01.594-.943.78.78 0 01.93.605l.937 4.258a.788.788 0 01-.382.864" fill="#000" mask="url(#f)"/></g></svg>