<!-- by Tanja Rohlfs (http://tanjarohlfs.de/) - license: CC-BY-NC-ND (see: https://creativecommons.org/licenses/by-nc-nd/4.0/) -->
<svg width="300" height="300" xmlns="http://www.w3.org/2000/svg" xmlns:xlink="http://www.w3.org/1999/xlink"><defs><path id="a" d="M0 .003h206.4v256H0z"/><path id="c" d="M0 256h206.4V0H0z"/></defs><g transform="translate(46.5 44)" fill="none" fill-rule="evenodd"><g transform="translate(0 -.003)"><mask id="b" fill="#fff"><use xlink:href="#a"/></mask><path d="M111.026.003c35.681 0 44.319 12.16 51.518 19.253 7.2 7.093 43.203 61.181 43.829 82.758.626 21.576-10.25 113.69-1.879 153.99H3.2C18.013 225.731-4.94 108.22 1.01 93.146 23.355 19.758 66.8.003 111.025.003" fill="#C1772D" mask="url(#b)"/></g><mask id="d" fill="#fff"><use xlink:href="#c"/></mask><path fill="#F1D5C3" mask="url(#d)" d="M88.969 266.078h36.812v-46.105H88.97z"/><path d="M88.977 226.995c11.685 2.757 23.973 2.59 36.804-.215l.041-6.974-36.845.925" fill="#DD885E" mask="url(#d)"/><path d="M166.828 175.296c-.11 1.877-22.113 46.777-60.555 49.57h-.107c-38.437-2.86-60.869-47.661-60.555-49.57.321-1.917-5.378-64.346-5.378-64.346 0-1.272 1.91-68.163 1.91-68.163h64.023s.024 4.09.05 11.046c.032-6.957.057-11.046.057-11.046h64.024s1.916 66.89 1.916 68.163c0 0-5.27 62.407-5.385 64.346" fill="#F1D5C3" mask="url(#d)"/><path d="M52.616 110.262c2.34-1.342 5.03-2.02 7.702-2.441.674-.124 1.344-.168 2.02-.241a25.781 25.781 0 012.027-.15c1.355-.065 2.703-.038 4.056-.009.673.026 1.348.048 2.028.048l2.033.067c1.351.076 2.682.313 3.964.735 2.554.86 5.037 2.028 7.17 4.05l-.14.453c-1.443.264-2.796.331-4.125.335a38.03 38.03 0 01-3.898-.203 20.318 20.318 0 01-3.744-.74l-1.845-.538a45.588 45.588 0 00-1.865-.438c-1.25-.232-2.508-.465-3.768-.612a23.794 23.794 0 00-1.894-.237c-.632-.057-1.271-.144-1.902-.152-2.54-.162-5.109-.094-7.642.514l-.177-.44z" fill="#A05E17" mask="url(#d)"/><path d="M87.447 190.804c0 11.039 38.428 11.039 38.428 0-12.596 1.04-25.415.991-38.428 0" fill="#DF715C" mask="url(#d)"/><path d="M43.855 118.561s-12.212-15.415-16.016-2.402c-3.804 13.013-6.807 46.646 17.417 51.45 0-6.606-1.401-49.048-1.401-49.048" fill="#F1D5C3" mask="url(#d)"/><path d="M106.19 145.618v.116a.373.373 0 00-.049-.058.373.373 0 01.05-.058m-.05 33.206c.017-.008.033-.017.049-.017v.033s-.016-.007-.049-.016" fill="#DF715C" mask="url(#d)"/><path d="M115.444 176.623c-2.214-.373-8.37 1.856-9.254 2.183a.107.107 0 00-.049.018c-.016-.01-.033-.01-.058-.018-.884-.327-7.04-2.556-9.254-2.183-2.371.4 5.007-29.186 9.254-34.224a.207.207 0 01.058-.064.356.356 0 01.05.064c4.246 5.038 11.624 34.624 9.253 34.224" fill="#E57055" mask="url(#d)"/><path d="M106.083 178.808c.025.008.042.008.058.016a.233.233 0 00-.058.017v-.033zm.058-33.132a.2.2 0 00-.058.058v-.116l.058.058" fill="#DF715C" mask="url(#d)"/><path d="M127.709 3.974s-1.153 57.037 1.53 57.518c2.683.48 39.836 35.962 42.974 49.657 3.139 13.694 29.196-2.437 29.196-2.437s-22.334-70.729-28.952-74.451c-6.618-3.722-44.748-30.287-44.748-30.287" fill="#C1772D" mask="url(#d)"/><path d="M127.425 3.55l1.56 57.499c-20.95-25.927-103.777 79.773-102.122 84.64 0 0-19.277-81.323 17.273-108.094C79.358 11.798 62.245 5.97 127.425 3.551" fill="#C1772D" mask="url(#d)"/><path d="M128.447 61.318c-.097-2.362-2.255-58.012-2.25-60.232l3.16.008c-.003 1.722.773 41.483 1.589 61.474l-2.5-1.25z" fill="#A05E17" mask="url(#d)"/><path d="M82.73 122.231c-5.472-2.392-12.957-5.36-21.709-1.017" stroke="#000" stroke-width=".75" mask="url(#d)"/><path d="M83.18 129.06c0 3.7-5.04 6.699-11.259 6.699-6.217 0-11.258-3-11.258-6.7s5.04-6.699 11.258-6.699c6.218 0 11.259 3 11.259 6.7" fill="#FFF" mask="url(#d)"/><path d="M83.391 124.734c-4.234-2.711-9.254-4.996-14.38-4.161-2.3.374-4.542 1.335-6.448 2.67-.476.332-.938.689-1.38 1.063-.26.218-.501.455-.756.676-.082.07-.671.48-.425.439.223-.038-.127-.119-.225-.187-.13-.092-.275-.168-.408-.256a13.183 13.183 0 01-1.086-.833c-1.17-.962-2.855.705-1.676 1.677 1.346 1.107 2.995 2.714 4.736 1.466.984-.705 1.793-1.602 2.813-2.27a14.226 14.226 0 013.318-1.625c2.39-.791 4.841-.86 7.26-.15 2.645.777 5.146 2.055 7.46 3.537 1.29.825 2.48-1.226 1.197-2.046" fill="#000" mask="url(#d)"/><path d="M77.358 128.313a5.724 5.724 0 11-11.448 0 5.724 5.724 0 0111.448 0" fill="#2F2F47" mask="url(#d)"/><path d="M157.617 110.702c-2.533-.607-5.103-.675-7.642-.513-.631.008-1.27.095-1.902.152-.631.052-1.263.134-1.895.238-1.259.145-2.517.379-3.767.612-.624.135-1.247.275-1.865.437l-1.844.538c-1.228.365-2.47.61-3.746.74-1.275.129-2.57.205-3.897.202-1.329-.002-2.683-.07-4.126-.334l-.14-.453c2.134-2.022 4.617-3.189 7.172-4.05a15.437 15.437 0 013.963-.735l2.032-.067c.681 0 1.356-.022 2.03-.047 1.352-.03 2.7-.056 4.055.007.675.024 1.35.073 2.028.15.675.073 1.347.118 2.02.243 2.67.42 5.36 1.099 7.703 2.44l-.179.44z" fill="#A05E17" mask="url(#d)"/><path d="M127.68 122.231c5.473-2.392 12.957-5.36 21.709-1.017" stroke="#000" stroke-width=".75" mask="url(#d)"/><path d="M127.23 129.06c0 3.7 5.041 6.699 11.259 6.699 6.217 0 11.258-3 11.258-6.7s-5.04-6.699-11.258-6.699c-6.218 0-11.259 3-11.259 6.7" fill="#FFF" mask="url(#d)"/><path d="M128.216 126.78c2.316-1.482 4.816-2.756 7.46-3.537 2.417-.714 4.871-.641 7.26.15 1.125.372 2.186.9 3.182 1.54 1.075.687 1.921 1.617 2.95 2.355 1.74 1.25 3.391-.36 4.735-1.466 1.18-.97-.506-2.64-1.676-1.677-.426.35-1.236 1.195-1.814 1.284.353-.054-.141-.281-.33-.446-.253-.224-.496-.458-.755-.677-.401-.341-.82-.666-1.248-.972-1.937-1.383-4.227-2.378-6.58-2.761-5.127-.835-10.146 1.45-14.381 4.16-1.281.82-.093 2.873 1.197 2.047" fill="#000" mask="url(#d)"/><path d="M133.052 128.313a5.724 5.724 0 1011.448 0 5.724 5.724 0 00-11.448 0" fill="#2F2F47" mask="url(#d)"/><path d="M168.693 122.435s12.212-14.198 16.016-2.213c3.803 11.986 6.806 42.962-17.417 47.388 0-6.085 1.4-45.175 1.4-45.175" fill="#F1D5C3" mask="url(#d)"/><path d="M45.113 167.587c-.56-.15-1.155-.235-1.696-.415l.41-37.208 1.653-2.165-.367 39.788zm123.853-.35c-.121.07-.74.177-1.505.344l.222-37.092 1.653-2.164-.37 38.912z" fill="#DD885E" mask="url(#d)"/><path d="M181.931 127.775s-.76-4.563-2.662-3.232c-1.9 1.331-3.803 13.88-2.66 22.245M33.788 132.632s5.398 4.884 2.699 14.01" fill="#CE8E6E" mask="url(#d)"/><path d="M26.284 146.075c-.139-.222-.154-.401-.305-.766-.74-2.224-3.786-12.095-4.28-25.09-.51-13.442 1.77-32.811 15.533-48.757l2.393 2.066c-20.526 23.778-14.59 56.044-11.68 67.197a93.1 93.1 0 012.463-3.802c3.103-4.582 7.47-10.458 12.294-16.545 7.316-9.23 22.023-26.924 38.324-41.737 22.811-20.728 39.4-27.377 49.308-19.763l-1.925 2.506c-3.776-2.903-9.054-3.136-15.682-.697-13.267 4.884-32.191 20.729-53.287 44.615-17.857 20.22-30.056 38.98-30.129 39.287-.096.05-.106.05-.203.12l-2.824 1.366z" fill="#A05E17" mask="url(#d)"/><path d="M126.36 192.518c-.166.04-.309-.055-.363-.205a5.698 5.698 0 00-.214-.506c-5.31 2.331-11.085 3.492-17.415 3.492-6.391 0-13.344-1.185-20.953-3.563-.055.119-.095.23-.134.348a.3.3 0 01-.364.205c-.158-.031-.253-.213-.205-.363.237-.767.64-1.47 1.177-2.063.11-.118.308-.11.419 0a.3.3 0 010 .42c-.198.22-.38.473-.538.734 14.863 4.622 27.173 4.645 37.61.095a5.33 5.33 0 00-.663-.83.304.304 0 010-.419c.11-.11.308-.118.418 0a6.606 6.606 0 011.43 2.292c.056.15-.063.324-.205.363" fill="#992E26" mask="url(#d)"/></g></svg>