<svg xmlns="http://www.w3.org/2000/svg" xmlns:xlink="http://www.w3.org/1999/xlink" viewBox="0 0 94.74 185.92"><defs><style>.cls-1,.cls-25,.cls-26,.cls-27,.cls-9{fill:none;}.cls-1{clip-rule:evenodd;}.cls-2{fill:#f9f9f9;stroke-width:2px;}.cls-13,.cls-2,.cls-26{stroke:#e2e2e2;stroke-miterlimit:10;}.cls-3{fill:#e2e2e2;}.cls-4{fill:#5600b7;}.cls-5{fill:#37b1cc;}.cls-12,.cls-6{fill:#f4d9ce;}.cls-6,.cls-7{fill-rule:evenodd;}.cls-7{fill:#d6948b;}.cls-8{fill:#383838;}.cls-10{fill:#e58585;stroke:#e58585;stroke-width:0.46px;}.cls-10,.cls-25,.cls-27{stroke-linecap:round;stroke-linejoin:round;}.cls-11{fill:#2b5165;}.cls-13,.cls-20{fill:#fff;}.cls-13,.cls-26{stroke-width:0.5px;}.cls-14{font-size:5px;font-family:WorkSans-Medium, Work Sans;font-weight:500;}.cls-14,.cls-21{fill:#3a3a3a;}.cls-15{letter-spacing:-0.1em;}.cls-16{letter-spacing:-0.02em;}.cls-17{letter-spacing:-0.02em;}.cls-18{letter-spacing:-0.01em;}.cls-19{letter-spacing:0em;}.cls-21{font-size:7px;font-family:WorkSans-Light, Work Sans;font-weight:300;}.cls-22{letter-spacing:-0.02em;}.cls-23{letter-spacing:-0.03em;}.cls-24{letter-spacing:-0.02em;}.cls-25{stroke:#0bd88f;}.cls-25,.cls-27{stroke-width:2.22px;}.cls-26{stroke-linecap:square;}.cls-27{stroke:#f03434;}.cls-28{clip-path:url(#clip-path);}.cls-29{fill:#ee3434;}.cls-30{clip-path:url(#clip-path-2);}.cls-31{clip-path:url(#clip-path-3);}.cls-32{fill:#37afca;}</style><clipPath id="clip-path"><path class="cls-1" d="M42.5,19.15a5.69,5.69,0,0,1,2.34-1.48.92.92,0,0,0,.62-.89V16.3a.92.92,0,0,0-1.19-.86A8.18,8.18,0,0,0,38.87,21a.92.92,0,0,0,.9,1.17h.48a.92.92,0,0,0,.86-.66,5.83,5.83,0,0,1,1.39-2.37"/></clipPath><clipPath id="clip-path-2"><path class="cls-1" d="M50.87,19.16a5.8,5.8,0,0,1,1.48,2.32.92.92,0,0,0,.89.63h.48a.92.92,0,0,0,.86-1.2A8.17,8.17,0,0,0,49,15.52a.91.91,0,0,0-1.17.9v.48a.92.92,0,0,0,.66.86,5.85,5.85,0,0,1,2.37,1.4"/></clipPath><clipPath id="clip-path-3"><path class="cls-1" d="M53.75,24.45h-.49a.9.9,0,0,0-.86.65,5.82,5.82,0,0,1-1.33,2.29,5.66,5.66,0,0,1-1.2,1,6.12,6.12,0,0,1-.56.31l-.08,0A.91.91,0,0,1,48,27.88v-.51a.9.9,0,0,1,.47-.82,3.53,3.53,0,0,0,1.71-2,3.44,3.44,0,0,0,.17-1.25,3.57,3.57,0,0,0-3.44-3.38H46.5a3.57,3.57,0,0,0-3.32,3.5,3.46,3.46,0,0,0,.21,1.25,3.6,3.6,0,0,0,1.78,2,.88.88,0,0,1,.5.8v.51a.92.92,0,0,1-1.22.88l-.07,0a5.07,5.07,0,0,1-.57-.29,6,6,0,0,1-1.24-.94,5.8,5.8,0,0,1-1.4-2.24.94.94,0,0,0-.89-.63H39.8a.92.92,0,0,0-.86,1.2,8.11,8.11,0,0,0,.31.82,7.22,7.22,0,0,0,.41.78,5.84,5.84,0,0,0,.48.74c.17.23.36.45.55.67s.41.42.63.61a7.33,7.33,0,0,0,.68.54,8.35,8.35,0,0,0,.74.47c.26.14.52.27.8.39s.55.21.83.3a6.63,6.63,0,0,0,.88.21c.3.06.61.09.91.12a10.46,10.46,0,0,0,1.12,0,9.24,9.24,0,0,0,.92-.11,6.63,6.63,0,0,0,.88-.21,7.55,7.55,0,0,0,.84-.29c.28-.12.54-.25.8-.39a7.17,7.17,0,0,0,.75-.46c.23-.17.46-.35.68-.54s.43-.39.63-.6a8.64,8.64,0,0,0,.56-.67,7.06,7.06,0,0,0,.48-.73,8.14,8.14,0,0,0,.41-.77,8.36,8.36,0,0,0,.32-.83c0-.11.07-.22.1-.33a.91.91,0,0,0-.9-1.16"/></clipPath></defs><g id="Layer_2" data-name="Layer 2"><g id="Layer_1-2" data-name="Layer 1"><rect class="cls-2" x="1" y="1" width="92.74" height="183.92" rx="14.1"/><path class="cls-3" d="M71.41,5a4.75,4.75,0,0,1-4.75,4.75H27.86a4.75,4.75,0,1,1,0-9.5h38.8A4.75,4.75,0,0,1,71.41,5Z"/><path class="cls-4" d="M10.61,17.73l-.06-.07Z"/><path class="cls-4" d="M10.62,17.74h0Z"/><path class="cls-4" d="M14.37,18.43l-.09,0Z"/><path class="cls-4" d="M14.37,18.43Z"/><path class="cls-4" d="M10.55,17.66Z"/><polygon class="cls-4" points="14.28 18.47 14.28 18.48 14.28 18.47 14.28 18.47"/><path class="cls-4" d="M14.62,18.28l-.08,0Z"/><path class="cls-4" d="M14.46,18.38h0Z"/><path class="cls-4" d="M14.54,18.33l-.08.05Z"/><path class="cls-4" d="M14.45,18.38l-.08.05Z"/><circle class="cls-5" cx="47.26" cy="95.48" r="22.35"/><path class="cls-6" d="M50.88,106.33l-.14,6.06a5.44,5.44,0,0,1-3.36,1.08,7.91,7.91,0,0,1-3.4-.72l-.26-6.42Z"/><polygon class="cls-7" points="43.77 107.65 43.83 108.96 50.84 108.61 50.85 107.66 43.77 107.65"/><path class="cls-6" d="M47.37,90.32h9.1s-.08,15.45,0,15.57-2.85,2-9.1,2-9.17-1.86-9.1-2,0-15.57,0-15.57Z"/><ellipse class="cls-8" cx="42.8" cy="95.71" rx="0.76" ry="1.47"/><ellipse class="cls-8" cx="51.91" cy="95.71" rx="0.76" ry="1.47"/><line class="cls-9" x1="44.24" y1="104.1" x2="44.23" y2="104.1"/><path class="cls-10" d="M44.37,104.1c0,.75,6,.75,6,0"/><path class="cls-10" d="M47.18,99.08c.08-.26.29-.26.38,0l.3.93.3.92c.09.26,0,.58-.18.58H46.76c-.17,0-.27-.32-.19-.58l.31-.92Z"/><path class="cls-11" d="M33.16,83.32s-2.6,7,4.9,7H55.42v6h2.17V86.55a7.65,7.65,0,0,0-2.38-5.61,11.11,11.11,0,0,0-7.84-2.72c-7.48,0-9.86,3.63-10.34,4.53a2.42,2.42,0,0,1-.55.72C35.92,84,34.81,84.46,33.16,83.32Z"/><rect class="cls-11" x="36.74" y="87.13" width="2.22" height="9.2"/><path class="cls-12" d="M38.73,96.53c0,1.27,0,3.2-1,3.2s-2.63-1.93-2.63-3.2a2.1,2.1,0,0,1,1.8-2.29A2.09,2.09,0,0,1,38.73,96.53Z"/><path class="cls-12" d="M55.6,96.53c0,1.27,0,3.2,1,3.2s2.63-1.93,2.63-3.2a1.85,1.85,0,1,0-3.6,0Z"/><path class="cls-13" d="M46.54,42.52c21.56,0,39,4.59,39,10.24,0,3.4-6.29,6.4-16,8.27l-6.83,9.86a.55.55,0,0,1-1-.13l-2.92-8.28c-3.88.34-8,.52-12.34.52-21.56,0-39-4.58-39-10.24S25,42.52,46.54,42.52Z"/><text class="cls-14" transform="translate(14.41 54.58)"><tspan class="cls-15">T</tspan><tspan x="2.57" y="0">o</tspan><tspan class="cls-16" x="5.57" y="0">n</tspan><tspan class="cls-17" x="8.58" y="0">y</tspan><tspan x="11.11" y="0" xml:space="preserve"> is </tspan><tspan class="cls-18" x="18.38" y="0">r</tspan><tspan class="cls-19" x="20.38" y="0">equesting access.</tspan></text><rect class="cls-20" x="2.01" y="136.78" width="90.74" height="47.14" rx="12.69"/><text class="cls-21" transform="translate(12.15 170.94)"><tspan class="cls-22">A</tspan><tspan x="4.26" y="0">CCEP</tspan><tspan class="cls-23" x="22.02" y="0">T</tspan></text><text class="cls-21" transform="translate(53.26 170.94)">D<tspan class="cls-24" x="4.92" y="0">E</tspan><tspan x="9.08" y="0">CLINE</tspan></text><line class="cls-25" x1="18.73" y1="152.23" x2="24.43" y2="157.93"/><line class="cls-25" x1="24.58" y1="157.93" x2="32.81" y2="146.58"/><line class="cls-26" x1="47.37" y1="136.98" x2="47.37" y2="183.59"/><line class="cls-27" x1="64.39" y1="157.22" x2="74.27" y2="147.34"/><line class="cls-27" x1="64.87" y1="147.34" x2="74.76" y2="157.22"/><g class="cls-28"><rect class="cls-29" x="38.29" y="14.85" width="7.59" height="7.76" transform="translate(-0.32 0.74) rotate(-1)"/></g><g class="cls-30"><rect class="cls-29" x="47.41" y="14.94" width="7.76" height="7.59" transform="translate(-0.32 0.9) rotate(-1)"/></g><g class="cls-31"><rect class="cls-32" x="38.3" y="19.38" width="16.93" height="12.67" transform="translate(-0.44 0.82) rotate(-1)"/></g></g></g></svg>