<?xml version="1.0" encoding="utf-8"?>
<!-- Generator: Adobe Illustrator 25.2.1, SVG Export Plug-In . SVG Version: 6.00 Build 0)  -->
<svg version="1.1" id="Layer_1" xmlns="http://www.w3.org/2000/svg" xmlns:xlink="http://www.w3.org/1999/xlink" x="0px" y="0px"
	 viewBox="0 0 300 200" style="enable-background:new 0 0 300 200;" xml:space="preserve">
<style type="text/css">
	.st0{clip-path:url(#SVGID_2_);}
	.st1{clip-path:url(#SVGID_4_);fill:#FFFFFF;}
	.st2{fill:none;}
	.st3{fill:#37B1CC;}
	.st4{fill:none;stroke:#F03434;stroke-width:5;stroke-linecap:round;stroke-linejoin:round;stroke-miterlimit:10;}
</style>
<g>
	<defs>
		<path id="SVGID_1_" d="M-96.1-241.9c0.1,0.7-0.3,1.3-1,1.5s-1.3-0.3-1.5-1s0.3-1.3,1-1.5S-96.2-242.5-96.1-241.9"/>
	</defs>
	<clipPath id="SVGID_2_">
		<use xlink:href="#SVGID_1_"  style="overflow:visible;"/>
	</clipPath>
	<g class="st0">
		<defs>
			
				<rect id="SVGID_3_" x="-153.7" y="-324" transform="matrix(0.9847 -0.174 0.174 0.9847 14.3569 15.6243)" width="500" height="500"/>
		</defs>
		<clipPath id="SVGID_4_">
			<use xlink:href="#SVGID_3_"  style="overflow:visible;"/>
		</clipPath>
		
			<rect x="-103.6" y="-247.9" transform="matrix(0.9847 -0.174 0.174 0.9847 40.5716 -20.6294)" class="st1" width="12.5" height="12.5"/>
	</g>
</g>
<g>
	<g id="IiT3JT.tif_1_">
		<g>
			<g>
				<path class="st2" d="M188.5,89.2c2-3.7,4.4-6.9,5.6-10.5c1.8-5.5-2-9.2-7.7-7.8c-4,1-8.1,1.8-11.9,3.2c-3.1,1.1-5.2,0.3-7.5-1.7
					c-1.1-1-2.8-1.6-4.2-1.7c-7.4-0.2-14.7-0.1-22.1-0.1c-4.4,0-7.9,2-10.5,5.6c-0.9,1.3-1.6,2.9-2.6,4.1c-0.7,0.8-1.8,1.6-2.8,1.6
					c-7.2,0.1-14.4,0.1-21.5,0c-0.7,0-1.5-0.6-2.1-1.1c-1-0.8-1.7-2-2.8-2.7c-1.9-1.2-4-2.1-5.8-3.3c-0.6-0.4-1.1-1.9-0.8-2.5
					c1.5-2.6,0.3-3.9-2-5.1C75.8,59.7,61.9,52,48,44.4c-0.6-0.3-1.3-0.9-1.9-0.9c-0.9,0-1.7,0.4-2.6,0.6c0.3,0.8,0.4,1.8,0.9,2.5
					c0.4,0.6,1.3,0.9,2,1.2c12.8,7,25.6,14.1,38.4,21.1c1,0.6,2,1.2,3.1,1.8c-0.3,0.8-0.5,1.5-0.9,2.1
					C72.9,98.5,58.8,124.2,44.8,150c-1,1.8-2,2.1-3.8,1.1c-5.2-3-10.5-5.9-15.8-8.6c-0.8-0.4-2.2,0.1-3.3,0.2c0.5,1,0.8,2.4,1.6,2.9
					c6.1,3.5,12.4,6.9,18.6,10.3c2.1,1.2,3.5,0.6,4.6-1.5c1.5-2.9,3.3-5.8,4.7-8.8c1.1-2.3,2.3-2.5,4.3-1.2c1.6,1.1,3.5,1.8,5.2,2.9
					c2.2,1.4,3.6,1,4.7-1.3c1.5-3,3.2-6,5-8.9c0.4-0.7,1.7-1.4,2.4-1.3c1.6,0.4,3.1,1.3,4.7,2c-0.3,0.7-0.5,1.2-0.8,1.7
					c-1.9,3.3-2.8,6.6,0,10c2.7,3.3,6.1,4.2,10.1,3c2.2-0.6,4.5-1.2,6.8-1.8c0.8-0.2,1.7-0.2,2.7-0.3c0,3.9,1,7,4.2,9.1
					c3.2,2.1,6.4,1.4,9.5-0.1c1.9,8.6,5.2,10.6,14.2,8.7c0.2,0.7,0.4,1.3,0.6,2c0.8,3.6,2.9,6,6.3,7c3.3,0.9,6.3-0.1,8.5-2.7
					c1.1-1.3,2-1,3.3-0.5c6.4,2.5,12.2-0.3,14.2-6.8c0.2-0.6,0.5-1.1,0.8-1.7c3.5,1.6,6.9,2.3,10.5,0.7c3.6-1.6,5.1-4.8,6-8.3
					c9.7,2.5,12,1.4,16.7-7.8c0.3,0.1,0.7,0.1,1,0.2c7.4,3.7,16.4-1.9,15.1-10.8c-0.1-0.9,0.9-2.3,1.8-2.8c4.2-2.4,8.5-4.6,12.7-7
					c2-1.2,2.9-0.6,3.9,1.3c2.7,5.1,5.5,10.1,8.2,15.1c1.1,2,2.3,2.5,4.3,1.2c1.9-1.2,4-2.1,5.9-3.3c1.9-1.2,2.8-0.6,3.7,1.2
					c1.5,3,3.3,6,4.9,9c1.2,2.3,2.6,2.6,4.8,1.4c5.9-3.3,11.9-6.6,17.9-9.9c1.3-0.7,2.9-1.4,2-3.2c-0.9-1.9-2.4-0.8-3.7-0.1
					c-4.9,2.7-9.8,5.3-14.6,8c-3.2,1.7-3.2,1.7-4.9-1.3c-13.9-25.3-27.7-50.6-41.6-76c-0.4-0.8-0.8-1.6-1.2-2.6
					c1.2-0.7,2.2-1.4,3.3-2c13.1-7.2,26.3-14.4,39.4-21.6c1.2-0.7,2.7-1.5,1.7-3c-0.4-0.6-2.5-0.7-3.4-0.2
					c-14.5,7.8-29,15.8-43.4,23.7c-2,1.1-2.6,2.4-1.4,4.3c1,1.6,0.3,2.4-1.1,3.1c-2.2,1.1-4.5,2.2-6.6,3.7c-0.8,0.5-1.3,2-1.2,3
					c0.1,1.4,1.5,3.1,1.1,4.1c-0.5,1.1-2.4,1.7-3.7,2.5c-0.9,0.6-1.9,1.1-2.8,1.6C191.2,90.9,189.5,90.5,188.5,89.2z"/>
				<path class="st3" d="M188.5,89.2c1,1.3,2.7,1.6,4.8,0.7c1-0.5,1.9-1,2.8-1.6c1.3-0.8,3.2-1.3,3.7-2.5c0.4-1-1-2.7-1.1-4.1
					c-0.1-1,0.4-2.5,1.2-3c2-1.4,4.3-2.6,6.6-3.7c1.4-0.7,2.1-1.5,1.1-3.1c-1.2-1.9-0.6-3.3,1.4-4.3c14.5-7.9,28.9-15.9,43.4-23.7
					c0.9-0.5,3-0.4,3.4,0.2c1,1.5-0.5,2.3-1.7,3c-13.1,7.2-26.3,14.4-39.4,21.6c-1.1,0.6-2.1,1.3-3.3,2c0.5,1,0.8,1.8,1.2,2.6
					c13.9,25.3,27.7,50.7,41.6,76c1.7,3.1,1.7,3.1,4.9,1.3c4.9-2.7,9.7-5.4,14.6-8c1.2-0.7,2.7-1.7,3.7,0.1c0.9,1.8-0.8,2.5-2,3.2
					c-6,3.3-12,6.5-17.9,9.9c-2.2,1.2-3.6,0.9-4.8-1.4c-1.5-3-3.3-5.9-4.9-9c-0.9-1.8-1.9-2.4-3.7-1.2c-1.9,1.2-4,2.1-5.9,3.3
					c-2,1.2-3.3,0.8-4.3-1.2c-2.7-5.1-5.6-10-8.2-15.1c-1-1.9-1.9-2.5-3.9-1.3c-4.2,2.4-8.6,4.5-12.7,7c-0.9,0.5-1.9,1.9-1.8,2.8
					c1.3,8.9-7.7,14.4-15.1,10.8c-0.3-0.1-0.7-0.1-1-0.2c-4.6,9.2-7,10.3-16.7,7.8c-0.9,3.5-2.4,6.7-6,8.3c-3.6,1.6-7,0.9-10.5-0.7
					c-0.3,0.6-0.6,1.1-0.8,1.7c-2,6.5-7.8,9.3-14.2,6.8c-1.3-0.5-2.2-0.8-3.2,0.4c-2.1,2.4-5.4,3.6-8.5,2.8c-3.5-1-5.6-3.5-6.3-7
					c-0.1-0.7-0.4-1.4-0.6-2c-9,1.9-12.3-0.1-14.2-8.7c-3.2,1.5-6.4,2.2-9.5,0.1c-3.2-2.1-4.2-5.2-4.2-9.1c-1,0.1-1.9,0.1-2.7,0.3
					c-2.3,0.5-4.5,1.1-6.8,1.8c-4,1.1-7.4,0.3-10.1-3c-2.8-3.4-1.9-6.6,0-10c0.3-0.5,0.4-0.9,0.8-1.7c-1.6-0.7-3.1-1.7-4.7-2
					c-0.7-0.2-2,0.6-2.4,1.3c-1.8,2.9-3.4,5.9-5,8.9c-0.9,1.8-3,2.4-4.7,1.3c-1.7-1.1-3.5-1.8-5.1-2.9c-2-1.3-3.2-1.2-4.3,1.2
					c-1.4,3-3.2,5.8-4.7,8.8c-1.1,2.1-2.5,2.6-4.6,1.5c-6.2-3.4-12.4-6.8-18.6-10.3c-0.8-0.5-1.1-1.9-1.6-2.9
					c1.1-0.1,2.4-0.7,3.3-0.2c5.3,2.7,10.6,5.6,15.8,8.6c1.8,1.1,2.8,0.7,3.8-1.1C58.8,124.2,72.9,98.5,87,72.8
					c0.3-0.6,0.5-1.3,0.9-2.1c-1.1-0.7-2.1-1.3-3.1-1.8c-12.8-7-25.6-14.1-38.4-21.1c-0.7-0.4-1.6-0.7-2-1.2
					c-0.5-0.7-0.6-1.7-0.9-2.5c0.9-0.2,1.8-0.6,2.6-0.6c0.7,0,1.3,0.6,1.9,0.9C61.9,52,75.8,59.7,89.8,67.3c2.2,1.2,3.4,2.4,2,5.1
					c-0.3,0.5,0.2,2,0.8,2.5c1.8,1.3,3.9,2.1,5.8,3.3c1.1,0.7,1.8,1.9,2.8,2.7c0.6,0.5,1.4,1,2.1,1.1c7.2,0.1,14.4,0.1,21.5,0
					c1,0,2.1-0.8,2.8-1.6c1-1.2,1.7-2.8,2.6-4.1c2.6-3.6,6-5.5,10.5-5.6c7.4,0,14.8-0.1,22.1,0.1c1.5,0,3,0.6,4.2,1.7
					c2.3,2,4.4,2.8,7.5,1.7c3.9-1.4,7.9-2.2,11.9-3.2c5.6-1.4,9.5,2.3,7.7,7.8C192.9,82.3,190.5,85.5,188.5,89.2z M128.3,154.4
					c0.7-0.2,1.2-0.4,1.7-0.6c5.5-2.9,11.9,2.4,11.9,8c0,1.3,0.1,2.7,0,4c-0.2,2.3,0.4,4,2.6,5c2.3,1,4.4,0.8,6.4-0.6
					c3.5-2.4,4.1-6.4,1.3-9.5c-2.6-2.9-5.7-5.5-8.4-8.3c-0.1-0.1-0.1-0.1-0.2-0.2c-0.8-1.3,0.6-2.9,2.1-2.5c0.2,0,0.3,0.1,0.4,0.2
					c1.3,0.8,2.3,2,3.4,3c3.4,3.1,6.7,6.2,10.2,9.2c2.1,1.8,4.4,2.3,7,1c4.3-2.2,5.2-7,1.8-10.5c-3.4-3.4-7.1-6.6-10.6-10
					c-1.2-1.1-2.8-2.3-1.2-4c1.5-1.5,2.6,0.3,3.6,1.1c2,1.8,3.9,3.7,5.9,5.5c3.3,3,6.6,6.1,10,9c2.9,2.4,6.4,2.1,8.9-0.6
					c2.5-2.7,2.5-6.1-0.1-8.9c-1.6-1.7-3.4-3.2-5.1-4.8c-3.3-3.1-6.6-6.1-9.8-9.2c-0.1-0.1-0.1-0.1-0.2-0.2
					c-0.7-1.2,0.5-2.8,1.9-2.5c0.2,0,0.5,0.1,0.7,0.2c0.5,0.2,0.9,0.8,1.4,1.2c6.1,5.6,12.1,11.2,18.3,16.7
					c3.7,3.3,8.1,2.6,10.5-1.5c1.7-3,0.9-6-2.4-9c-10.5-9.4-21-18.8-31.5-28.2c-5.1-4.6-10.3-9.3-15.4-13.8c-2.7-2.4-5.1-2-7.2,0.9
					c-5,7-11.4,10.5-20.3,8.9c-6.5-1.2-8.8-5.5-5.5-11.2c1.1-1.9,2.2-3.8,3.5-6.1c-2.4-0.3-3.6-0.6-5.4-0.2
					c-4.2,1.1-8.6,1.3-12.8,0.3c-5-1.1-7.1-0.7-8.8,2.3c-7.3,13.5-14.7,26.9-22.1,40.4c-0.5,0.9-0.9,1.9-1.4,3c1.1,0.6,2,1,2.9,1.4
					c5.7,2.6,11.5,5,17.2,7.7c2.1,1,3.3,1.1,4.9-1.1c2-2.8,4.9-4.1,8.5-3.1c3.7,1,5.8,3.4,6.4,7.1c0.1,0.7,0.3,1.5,0.5,2.2
					C122.9,143.5,126,145.3,128.3,154.4z M222.3,125.4c-0.7-1.3-1.1-2.3-1.6-3.2c-5-9.2-10.1-18.4-15.1-27.6c-3-5.5-3-5.5-8.4-2.5
					c-0.2,0.1-0.5,0.3-0.7,0.4c-4.2,2.3-7.4,2.1-11.2-0.9c-6.3-5-12.5-10.2-19-15.1c-1.5-1.2-3.6-2.1-5.5-2.2
					c-6.4-0.3-12.7-0.1-19.1-0.1c-4.2,0-7.2,1.7-9.2,5.4c-2.8,4.8-5.7,9.5-8.5,14.3c-2.1,3.6-1.3,5.1,2.9,5.7
					c8,1.1,13.8-1.9,17.7-9.2c0.4-0.8,1.5-1.8,2.3-1.9c4.3-0.2,8.6-0.2,12.9,0c0.7,0,1.7,0.9,1.8,1.5c0.1,0.5-0.8,1.3-1.4,1.9
					c-0.3,0.3-0.9,0.5-1.4,0.7c0.2,0.4,0.3,0.7,0.5,0.8c14.9,13.4,29.7,26.7,44.7,40.1c0.5,0.5,1.8,0.7,2.4,0.4
					C211.5,131.2,216.7,128.3,222.3,125.4z M210.3,77.3c-1.8,0.9-3.2,1.9-4.8,2.5c-2.6,1-2.7,2.3-1.4,4.7
					c10.1,18.3,20.1,36.6,30.2,54.9c2.9,5.3,1.8,4.9,7.2,2c3.1-1.7,3.1-1.7,1.4-4.8c-10.2-18.7-20.5-37.4-30.8-56.1
					C211.7,79.5,211.1,78.6,210.3,77.3z M89.1,77.3c-0.8,1.3-1.5,2.3-2,3.4c-9.9,18.1-19.8,36.1-29.7,54.2c-3,5.4-3.3,4.2,2.1,7.4
					c2.3,1.4,3.4,1.2,4.7-1.3c10.1-18.7,20.4-37.3,30.6-55.9c0.4-0.8,1-1.6,1.2-2.4c0.1-0.6-0.1-1.7-0.5-1.9
					C93.4,79.6,91.3,78.5,89.1,77.3z M109.9,148.6C109.9,148.6,109.9,148.6,109.9,148.6c0-1.4,0.1-2.9-0.1-4.3
					c-0.3-2.4-2.2-4.1-4.5-4.2c-2.3-0.1-4.4,0.6-4.7,3c-0.4,3.2-0.5,6.6-0.3,9.9c0.2,2.8,2.4,4.2,5.1,4.1c2.4-0.1,4.2-1.9,4.5-4.5
					C110,151.3,109.9,149.9,109.9,148.6z M114.4,157c0,1.3-0.1,2.6,0,3.9c0.1,2.4,2.1,4.4,4.5,4.5c2.9,0.1,4.9-1.5,5-4.3
					c0.1-2.7,0.1-5.4,0-8.1c-0.1-2.7-2-4.5-4.7-4.5c-2.9,0-4.7,1.5-4.8,4.5C114.4,154.4,114.4,155.7,114.4,157z M138,165.3
					c0-1.4,0.1-2.9,0-4.3c-0.2-2.6-1.8-4-4.4-4.1c-2.8-0.1-4.8,1.3-5,3.8c-0.2,3-0.2,6.1,0,9.1c0.2,2.5,2.3,4.1,4.8,4.1
					c2.6-0.1,4.4-1.7,4.6-4.3C138.1,168.2,138,166.8,138,165.3z M174.2,78c3.6,2.9,6.5,5.2,9.5,7.5c0.4,0.3,1.2,0.1,1.7-0.1
					c2.7-1.2,5.6-5.9,5.2-8.8c-0.1-0.8-1.4-2.3-1.9-2.2C184.2,75.3,179.6,76.6,174.2,78z M95.3,146.5c0-0.5,0-0.4,0.1-0.9
					c-4.2-1.8-8.4-3.8-12.7-5.3c-0.8-0.3-2.8,1.1-3.4,2.2c-1.5,3.1,1.2,7,4.6,6.6C87.7,148.6,91.5,147.4,95.3,146.5z"/>
			</g>
		</g>
	</g>
	<g>
		<line class="st4" x1="149.8" y1="50" x2="149.8" y2="22.4"/>
		<line class="st4" x1="170.1" y1="58.4" x2="189.6" y2="38.9"/>
		<line class="st4" x1="130.9" y1="58.4" x2="111.4" y2="38.9"/>
	</g>
</g>
</svg>
