<?xml version="1.0" encoding="UTF-8"?>
<!-- by Tanja Rohlfs (https://consento.org/team/tanja) - license: CC-BY-NC-SA (see: https://creativecommons.org/licenses/by-nc-sa/4.0/) -->
<svg width="120" height="120" xmlns="http://www.w3.org/2000/svg" xmlns:xlink="http://www.w3.org/1999/xlink"><defs><path id="a" d="M0 .338h72.982V75.6H0z"/></defs><g fill="none" fill-rule="evenodd"><path fill="#FFF" d="M0 0h120v120H0z"/><path d="M37.848 73.533a.7.7 0 01-.656-.944c3.372-9.093 9.548-14.895 16.944-15.919 7.273-1.006 14.694 2.87 20.36 10.637a.7.7 0 11-1.13.825c-5.354-7.337-12.294-11.008-19.038-10.075-6.869.951-12.636 6.425-15.824 15.019a.7.7 0 01-.656.457" fill="#37B1CC"/><g transform="translate(24 22.012)"><mask id="b" fill="#fff"><use xlink:href="#a"/></mask><path d="M22.193 75.6c-9.95 0-18.473-1.786-21.965-4.98a.7.7 0 11.944-1.033c3.024 2.765 11.217 4.578 20.874 4.62l.364.001c10.73 0 21.657-2.094 30.036-5.763 8.641-3.785 18.946-11.132 19.134-24.678l-4.217-5.062a.696.696 0 01-.16-.39c-.986-11.76-15.535-21.772-30.352-31.019l-2.824-1.661a28.214 28.214 0 00-14.951-3.89l-3.978.091a.807.807 0 00-.58.266l-5.914 6.57a5.293 5.293 0 00-1.36 3.547v.22c0 1.994.45 3.074.897 3.26.163.066.808.171 2.29-1.31a.695.695 0 01.615-.195l11.688 2.045a.7.7 0 01-.242 1.379l-11.335-1.984c-1.4 1.322-2.564 1.766-3.552 1.358-1.533-.635-1.762-3.126-1.762-4.554v-.219c0-1.658.611-3.25 1.72-4.483l5.915-6.57a2.21 2.21 0 011.588-.73l3.978-.09a29.592 29.592 0 0115.693 4.082l2.84 1.67c15.043 9.389 29.803 19.573 31 31.878l4.243 5.092a.703.703 0 01.162.451c-.052 11.446-6.96 20.508-19.975 26.208-9.239 4.046-20.755 5.873-30.814 5.873" fill="#37B1CC" mask="url(#b)"/></g><path d="M48.968 59.627a.698.698 0 01-.555-.274C39.44 47.671 25.787 48.972 25.65 48.986a.7.7 0 01-.15-1.392c.144-.016 14.56-1.415 24.022 10.907a.7.7 0 01-.555 1.126m18.435 1.85a.701.701 0 01-.661-.47l-6.685-19.269-5.063-3.198-2.315.772a.7.7 0 01-.222.036c-3.225 0-5.708-2.406-6.451-3.214h-5.382a4.064 4.064 0 01-4.06-4.06 4.064 4.064 0 014.06-4.06h5.99a.7.7 0 010 1.4h-5.99a2.663 2.663 0 00-2.66 2.66 2.663 2.663 0 002.66 2.66h5.698a.7.7 0 01.541.257c.024.028 2.414 2.889 5.484 2.956l2.519-.84c.2-.066.418-.04.595.073l5.551 3.506a.701.701 0 01.288.362l6.765 19.5a.7.7 0 01-.662.929" fill="#37B1CC"/><path d="M51.193 69.358a5.16 5.16 0 00-3.672 1.525 5.142 5.142 0 00-1.523 3.667c0 1.386.54 2.69 1.523 3.667l8.442 8.442 8.442-8.442a5.142 5.142 0 001.522-3.667c0-1.386-.54-2.688-1.522-3.667a5.16 5.16 0 00-3.672-1.525c-1.38 0-2.681.541-3.664 1.525l-1.106 1.106-1.106-1.107a5.153 5.153 0 00-3.664-1.524zm4.77 19.281l-9.432-9.43a6.534 6.534 0 01-1.933-4.659c0-1.76.687-3.415 1.934-4.658a6.55 6.55 0 014.66-1.934c1.754 0 3.407.687 4.655 1.935l.116.115.116-.115a6.542 6.542 0 014.654-1.935 6.55 6.55 0 014.661 1.935 6.533 6.533 0 011.933 4.657 6.535 6.535 0 01-1.934 4.659l-9.43 9.43z" fill="#F03434"/></g></svg>