<?xml version="1.0" encoding="UTF-8"?>
<!-- by Tanja Rohlfs (https://consento.org/team/tanja) - license: CC-BY-NC-SA (see: https://creativecommons.org/licenses/by-nc-sa/4.0/) -->
<svg width="120" height="120" xmlns="http://www.w3.org/2000/svg" xmlns:xlink="http://www.w3.org/1999/xlink"><defs><path id="a" d="M.012.241h7.732v18.49H.012z"/><path id="c" d="M.012.06h7.732v18.49H.012z"/><path id="e" d="M0 .26h18.49v7.73H0z"/></defs><g fill="none" fill-rule="evenodd"><path fill="#FFF" d="M0 0h120v120H0z"/><path d="M79.9 82.293c-.079-.475-.139-2.095-.214-4.332a89.198 89.198 0 00-.097-2.41c-.148-1.814-.155-3.785-.02-5.856 1.293-19.753-3.548-30.29-14.798-32.215-2.7-.463-7.805-.446-10.503.034C43.031 39.513 38.26 50.08 39.68 69.824c.238 3.302.098 10.174-.254 12.463l-1.037-.159c.336-2.19.473-9.047.244-12.228-.873-12.13.663-21.112 4.565-26.698 2.569-3.677 6.13-5.876 10.886-6.722 2.791-.496 8.07-.514 10.864-.035 4.762.814 8.337 2.99 10.93 6.65 3.939 5.56 5.533 14.533 4.74 26.668-.133 2.02-.127 3.94.017 5.704.03.357.062 1.331.1 2.459.054 1.583.127 3.752.2 4.196l-1.036.171z" fill="#37B1CC"/><path d="M44.303 60.248c-.095-.003-.196-.003-.301-.007-1.17-.01-2.38-.024-2.422-2.576-.014-.885.203-1.484.647-1.778.273-.181.613-.238.928-.238.308 0 .595.057.773.102.455 1.69.466 3.976.375 4.497" fill="#FFF"/><path d="M42.227 55.887c.273-.182.613-.238.928-.238.307 0 .594.056.773.102.455 1.69.466 3.976.375 4.497-.095-.003-.197-.003-.301-.007-1.17-.01-2.38-.024-2.423-2.576-.014-.885.203-1.484.648-1.778m2.537-.87c-.255-.31-1.623-.617-2.628-.25-.749.273-1.638 1.001-1.607 2.916.06 3.57 2.356 3.598 3.458 3.608.154.004.294.004.417.014.021.004.045.004.066.004.309 0 .575-.172.736-.48.15-.287.21-.808.21-1.428 0-1.7-.448-4.13-.651-4.385" fill="#37B1CC"/><path d="M77.164 57.665c-.042 2.552-1.25 2.566-2.419 2.576-.105.004-.206.004-.3.007-.095-.52-.081-2.807.37-4.497.364-.095 1.162-.22 1.701.136.445.294.662.893.648 1.778" fill="#FFF"/><path d="M74.745 60.242c-.105.003-.206.003-.3.007-.095-.522-.081-2.807.37-4.498.364-.095 1.163-.22 1.702.137.444.293.66.892.647 1.778-.042 2.551-1.25 2.565-2.419 2.576m1.862-5.475c-1-.367-2.373-.06-2.625.25h-.003c-.276.35-1.005 4.731-.441 5.813.16.308.427.48.735.48.024 0 .045 0 .07-.004.122-.01.262-.01.413-.014 1.102-.01 3.398-.039 3.458-3.61.031-1.913-.854-2.641-1.607-2.915M58.922 74.15a35.253 35.253 0 01-2.895-.64l2.895.64zm1.018-1.042l-.413.094h-.024l-.406-.091c.133.028.27.049.406.073.049-.007.112-.014.143-.02.098-.018.2-.035.294-.057m3.077.379c-.956.262-2.013.503-3.185.713l3.185-.713z" fill="#37B1CC"/><path d="M59.545 82.701l-3.805-.889.095-8.344.136.028.057.014 2.894.64c.158.029.319.056.483.085l.077.014.077-.011.207-.028.035-.007.031-.003 3.185-.714.178-.042.148 8.344-3.798.913zM71.525 51.8c-.031 2.996-.168 11.739-.602 15.263-.115.945-1.928 3.686-8.239 5.418l-.035.01a33.87 33.87 0 01-2.709.617l-.413.094h-.024l-.406-.091h-.007a33.034 33.034 0 01-2.737-.605c-6.328-1.691-8.162-4.417-8.285-5.366-.458-3.528-.661-12.285-.72-15.27l-1.05-.007c.055 2.978.255 11.767.727 15.41.007.042.56 3.602 7.763 5.877l-.108 9.492 4.686 1.095.06.014h.185l4.799-1.141-.171-9.492c7.192-2.324 7.72-5.883 7.727-5.926.448-3.64.581-12.414.613-15.406l-1.053.014z" fill="#37B1CC"/><path d="M52.828 55.385c.568-.002 1.031.775 1.034 1.735.003.96-.455 1.741-1.023 1.743-.567.002-1.031-.776-1.034-1.736-.003-.96.455-1.74 1.023-1.742m14.112-.047c.567-.001 1.03.776 1.034 1.736.003.96-.456 1.741-1.024 1.743-.567.002-1.031-.776-1.034-1.736-.003-.96.455-1.74 1.023-1.743m-7.389 8.098c-.256-.07-.77-.214-.839-.539-.097-.45.125-1.45.257-2.164.138-.75.48-1.949.575-2.338.098.389.447 1.585.591 2.334.137.714.364 1.712.27 2.163-.067.325-.58.472-.835.544h-.019zm.39 9.672a33.87 33.87 0 002.71-.617l-2.71.617zm-.381 1.13l-.077.01-.077-.014a51.875 51.875 0 01-.483-.083l.465.101h.203l.175-.042c-.087.01-.206.028-.206.028zm-3.206-1.733c.833.225 1.743.428 2.737.606l-2.737-.606zm17.689-21.259a.524.524 0 01-.515.526l-.948.014-1.054.014-3.538.049a.527.527 0 01-.529-.455 99.56 99.56 0 00-.381-2.643c-.091.816-.175 1.74-.249 2.614a.523.523 0 01-.521.483l-6.612.008h-.003c-.343 0-6.608.035-6.608.035h-.004a.52.52 0 01-.521-.48 31.341 31.341 0 01-.049-.57c-.07-.708-.144-1.422-.217-2.066a92.798 92.798 0 00-.287 2.066c-.028.203-.053.402-.077.602a.523.523 0 01-.522.458h-.003l-4.057-.032-1.05-.007-.434-.003a.524.524 0 01-.521-.518s-.025-2.67-.035-5.089l-.007-.144a.525.525 0 111.05-.048l.007.164v.063c.007 1.771.024 3.644.031 4.526l4.025.034.532.004v-.007c.14-1.113.263-1.992.368-2.684.41-2.597.637-2.597 1.025-2.601.452 0 .683-.003 1.04 3.381.056.539.115 1.169.182 1.897a222.56 222.56 0 011.785-.007c.994-.007 2.124-.014 2.982-.014h.003c.739-.007 1.278-.01 1.362-.01.084 0 .637 0 1.39-.004h.003c1.487 0 3.752 0 4.739-.004.06-.714.115-1.326.164-1.858.34-3.381.567-3.381 1.022-3.381.392 0 .616 0 1.043 2.597.112.683.238 1.547.385 2.639l4.557-.066c0-.872.004-2.713 0-4.449v-.095l-.003-.045a.522.522 0 01.465-.578.526.526 0 01.578.466l.007.077c.003.018.003.035.003.053.004 2.418-.003 5.088-.003 5.088M59.255 67.343c-1.254 0-4.111-.12-5.067-1.173a.525.525 0 01.777-.706c.38.419 1.862.825 4.351.83 2.451-.009 4.492-.455 4.86-.866a.525.525 0 11.783.7c-.794.886-3.534 1.208-5.64 1.215h-.064m39.261 6.58c-4.167 11.528-13.325 20.69-24.854 24.856v1.113C85.77 95.64 95.373 86.03 99.627 73.923h-1.111z" fill="#37B1CC"/><g transform="translate(55.8 11.108)"><mask id="b" fill="#fff"><use xlink:href="#a"/></mask><path d="M7.539 15.379l-3.15 3.15a.695.695 0 01-.497.203h-.028a.695.695 0 01-.497-.203l-3.15-3.15a.701.701 0 01.99-.99l1.967 1.966V.941a.7.7 0 111.4 0v15.422l1.974-1.975a.701.701 0 01.99.99" fill="#F03434" mask="url(#b)"/></g><g transform="translate(55.8 89.859)"><mask id="d" fill="#fff"><use xlink:href="#c"/></mask><path d="M7.539 4.403a.696.696 0 01-.497.203.694.694 0 01-.494-.203l-1.97-1.97V17.85a.7.7 0 11-1.4 0V2.433l-1.97 1.97a.694.694 0 01-.494.203.696.696 0 01-.497-.203.701.701 0 010-.99l3.15-3.15c.14-.14.325-.21.511-.203a.684.684 0 01.511.203l3.15 3.15a.701.701 0 010 .99" fill="#F03434" mask="url(#d)"/></g><path d="M108.401 60.381a.7.7 0 01-.7.7h-15.42l1.973 1.975a.701.701 0 010 .99.703.703 0 01-.99 0l-3.15-3.15a.691.691 0 01-.203-.51.684.684 0 01.203-.512l3.15-3.15a.701.701 0 01.99.99l-1.967 1.967h15.414c.385 0 .7.315.7.7" fill="#F03434"/><g transform="translate(11 56.258)"><mask id="f" fill="#fff"><use xlink:href="#e"/></mask><path d="M18.49 4.127a.695.695 0 01-.206.51l-3.15 3.15a.694.694 0 01-.494.204.694.694 0 01-.493-.203.701.701 0 010-.99l1.974-1.975H.7a.7.7 0 010-1.4h15.414l-1.967-1.967a.701.701 0 010-.99.697.697 0 01.987 0l3.15 3.15c.143.14.21.325.207.51" fill="#F03434" mask="url(#f)"/></g><path d="M73.662 19.96v1.11c11.529 4.167 20.69 13.323 24.857 24.853h1.114c-4.253-12.108-13.864-21.71-25.97-25.964M20.812 73.923H19.7c4.254 12.105 13.855 21.715 25.961 25.968v-1.113c-11.528-4.166-20.684-13.327-24.85-24.855m-1.111-28h1.112c4.166-11.528 13.322-20.689 24.85-24.855v-1.113c-12.106 4.253-21.707 13.863-25.961 25.968" fill="#37B1CC"/></g></svg>