<?xml version="1.0" encoding="utf-8"?>
<!-- Generator: Adobe Illustrator 25.2.1, SVG Export Plug-In . SVG Version: 6.00 Build 0)  -->
<svg version="1.1" id="Layer_1" xmlns="http://www.w3.org/2000/svg" xmlns:xlink="http://www.w3.org/1999/xlink" x="0px" y="0px"
	 viewBox="0 0 300 200" style="enable-background:new 0 0 300 200;" xml:space="preserve">
<style type="text/css">
	.st0{clip-path:url(#SVGID_2_);}
	.st1{clip-path:url(#SVGID_4_);fill:#FFFFFF;}
	.st2{clip-path:url(#SVGID_6_);}
	.st3{clip-path:url(#SVGID_8_);fill:#FFFFFF;}
	.st4{fill:#F03434;}
	.st5{fill:#37B1CC;}
</style>
<g>
	<defs>
		<path id="SVGID_1_" d="M-96.1-241.9c0.1,0.7-0.3,1.3-1,1.5s-1.3-0.3-1.5-1s0.3-1.3,1-1.5S-96.2-242.5-96.1-241.9"/>
	</defs>
	<clipPath id="SVGID_2_">
		<use xlink:href="#SVGID_1_"  style="overflow:visible;"/>
	</clipPath>
	<g class="st0">
		<defs>
			
				<rect id="SVGID_3_" x="-153.7" y="-324" transform="matrix(0.9847 -0.174 0.174 0.9847 14.3569 15.6243)" width="500" height="500"/>
		</defs>
		<clipPath id="SVGID_4_">
			<use xlink:href="#SVGID_3_"  style="overflow:visible;"/>
		</clipPath>
		
			<rect x="-103.6" y="-247.9" transform="matrix(0.9847 -0.174 0.174 0.9847 40.5716 -20.6294)" class="st1" width="12.5" height="12.5"/>
	</g>
</g>
<g>
	<defs>
		<path id="SVGID_5_" d="M52.6,109.9c0.1,0.6-0.3,1.2-0.9,1.3s-1.2-0.3-1.3-0.9c-0.1-0.6,0.3-1.2,0.9-1.3S52.5,109.3,52.6,109.9"/>
	</defs>
	<clipPath id="SVGID_6_">
		<use xlink:href="#SVGID_5_"  style="overflow:visible;"/>
	</clipPath>
	<g class="st2">
		<defs>
			
				<rect id="SVGID_7_" x="0.1" y="35" transform="matrix(0.9847 -0.174 0.174 0.9847 -42.2717 43.6924)" width="455.7" height="455.7"/>
		</defs>
		<clipPath id="SVGID_8_">
			<use xlink:href="#SVGID_7_"  style="overflow:visible;"/>
		</clipPath>
		
			<rect x="45.8" y="104.4" transform="matrix(0.9847 -0.174 0.174 0.9847 -18.3771 10.6474)" class="st3" width="11.4" height="11.4"/>
	</g>
</g>
<path d="M55.8,104.8l3.4,4.8l-2.6,1.9l-3.5-4.8l-2-3.6l-2,3.6l-3.5,4.8l-2.6-1.9l3.4-4.8l2.8-3l-4-0.8l-5.6-1.9l0.9-3l5.7,1.8
	l3.7,1.7l-0.5-4v-6h3.3v6l-0.5,4l3.7-1.7l5.7-1.8l0.9,3L57,101l-4,0.8L55.8,104.8z"/>
<path d="M84,104.8l3.4,4.8l-2.6,1.9l-3.5-4.8l-2-3.6l-2,3.6l-3.5,4.8l-2.6-1.9l3.4-4.8l2.8-3l-4-0.8l-5.6-1.9l0.9-3l5.7,1.8l3.7,1.7
	l-0.5-4v-6H81v6l-0.5,4l3.7-1.7l5.7-1.8l0.9,3l-5.6,1.9l-4,0.8L84,104.8z"/>
<path d="M112.1,104.8l3.4,4.8l-2.6,1.9l-3.5-4.8l-2-3.6l-2,3.6l-3.5,4.8l-2.6-1.9l3.4-4.8l2.8-3l-4-0.8L96,99.1l0.9-3l5.7,1.8
	l3.7,1.7l-0.5-4v-6h3.3v6l-0.5,4l3.7-1.7l5.7-1.8l0.9,3l-5.6,1.9l-4,0.8L112.1,104.8z"/>
<path d="M196.7,104.8l3.4,4.8l-2.6,1.9l-3.5-4.8l-2-3.6l-2,3.6l-3.5,4.8l-2.6-1.9l3.4-4.8l2.8-3l-4-0.8l-5.6-1.9l0.9-3l5.7,1.8
	l3.7,1.7l-0.5-4v-6h3.3v6l-0.5,4l3.7-1.7l5.7-1.8l0.9,3l-5.6,1.9l-4,0.8L196.7,104.8z"/>
<path d="M224.8,104.8l3.4,4.8l-2.6,1.9l-3.5-4.8l-2-3.6l-2,3.6l-3.5,4.8l-2.6-1.9l3.4-4.8l2.8-3l-4-0.8l-5.6-1.9l0.9-3l5.7,1.8
	l3.7,1.7l-0.5-4v-6h3.3v6l-0.5,4l3.7-1.7l5.7-1.8l0.9,3l-5.6,1.9l-4,0.8L224.8,104.8z"/>
<path d="M253,104.8l3.4,4.8l-2.6,1.9l-3.5-4.8l-2-3.6l-2,3.6l-3.5,4.8l-2.6-1.9l3.4-4.8l2.8-3l-4-0.8l-5.6-1.9l0.9-3l5.7,1.8
	l3.7,1.7l-0.5-4v-6h3.3v6l-0.5,4l3.7-1.7l5.7-1.8l0.9,3l-5.6,1.9l-4,0.8L253,104.8z"/>
<path class="st4" d="M209.8,32.9c-0.5,0-1,0.2-1.4,0.6L78.9,163.7c-0.7,0.7-0.8,1.7-0.3,2.5c0.4,0.6,1,0.9,1.7,0.9
	c0.5,0,1-0.2,1.4-0.6L211.2,36.3c0.8-0.8,0.8-2,0-2.8C210.8,33.1,210.3,32.9,209.8,32.9z"/>
<polygon points="175.3,99.1 174.4,96.1 168.7,97.9 165,99.6 165.5,95.5 165.5,95 162.5,97.9 162.7,99.6 161.5,99 159.3,101.2 
	162,101.8 159.2,104.8 155.8,109.6 158.3,111.5 161.9,106.7 163.8,103.1 165.8,106.7 169.4,111.5 171.9,109.6 168.5,104.8 
	165.7,101.8 169.7,101 "/>
<polygon points="131.4,98.1 130.8,97.9 125.1,96.1 124.2,99.1 128.9,100.7 "/>
<polygon points="137.3,92.2 137.3,89.6 134,89.6 134,95.5 "/>
<path class="st5" d="M280.1,60.4h-80.2l-5,5h85.2c6.9,0,12.6,5.6,12.6,12.6V122c0,6.9-5.6,12.6-12.6,12.6H126l-5,5h159
	c9.7,0,17.6-7.9,17.6-17.6V78C297.7,68.3,289.8,60.4,280.1,60.4z"/>
<path class="st5" d="M95.1,134.6H19.9C13,134.6,7.3,129,7.3,122V78c0-6.9,5.6-12.6,12.6-12.6H164l5-5H19.9
	c-9.7,0-17.6,7.9-17.6,17.6V122c0,9.7,7.9,17.6,17.6,17.6h70.3L95.1,134.6z"/>
</svg>
