<svg id="Layer_1" data-name="Layer 1" xmlns="http://www.w3.org/2000/svg" xmlns:xlink="http://www.w3.org/1999/xlink" viewBox="0 0 400 400"><defs><style>.cls-1{fill:#fff;}.cls-1,.cls-10,.cls-11,.cls-12,.cls-13,.cls-15,.cls-17,.cls-18,.cls-2,.cls-22,.cls-23,.cls-24,.cls-27,.cls-29,.cls-3,.cls-30,.cls-31,.cls-33,.cls-4,.cls-5,.cls-8,.cls-9{fill-rule:evenodd;}.cls-2{fill:#a06e5f;}.cls-3{fill:#f03434;}.cls-4{fill:#b5b5b5;}.cls-5{fill:#919191;}.cls-14,.cls-16,.cls-19,.cls-20,.cls-21,.cls-25,.cls-26,.cls-28,.cls-32,.cls-34,.cls-35,.cls-6,.cls-7{fill:none;}.cls-6{stroke:#919191;stroke-width:0.43px;}.cls-7{stroke:#b5b5b5;}.cls-28,.cls-32,.cls-34,.cls-35,.cls-7{stroke-width:0.58px;}.cls-8{fill:#666;}.cls-9{fill:#d3d3d3;}.cls-10{fill:#883434;}.cls-11{fill:#7a4537;}.cls-12{fill:#ff3434;}.cls-13{fill:#e58585;}.cls-14{stroke:#666;stroke-width:1.04px;}.cls-15{fill:#5600b7;}.cls-16{stroke:#7a4537;}.cls-16,.cls-25,.cls-26{stroke-width:0.52px;}.cls-17{fill:#383838;}.cls-18{fill:#6d3224;}.cls-19{stroke:#383838;}.cls-19,.cls-26,.cls-28,.cls-35{stroke-linecap:round;}.cls-19,.cls-20{stroke-width:0.6px;}.cls-20{stroke:#df715c;}.cls-21{stroke:#fff;stroke-width:1.73px;}.cls-22{fill:#bf0000;}.cls-23{fill:#263238;}.cls-24{fill:#37b1cc;}.cls-25,.cls-26,.cls-34,.cls-35{stroke:#263238;}.cls-27{fill:#f9e6dc;}.cls-28{stroke:#e58585;stroke-linejoin:round;}.cls-29{fill:#2b5165;}.cls-30{fill:#92e0ea;}.cls-31{fill:#69bac9;}.cls-32{stroke:#92e0ea;}.cls-33{fill:#d6948b;}.cls-36{mask:url(#mask);}</style><mask id="mask" x="365.38" y="312.31" width="8.03" height="7.84" maskUnits="userSpaceOnUse"><g id="mask-2"><polygon id="path-1" class="cls-1" points="365.38 312.31 373.41 312.31 373.41 320.15 365.38 320.15 365.38 312.31"/></g></mask></defs><path id="Fill-168" class="cls-2" d="M369,300c.21,0,1.19,0,1.19,0a9.13,9.13,0,0,1-.29,1.23,3.6,3.6,0,0,1-.9-.62c0-.1,0-.61,0-.61"/><path id="Fill-1" class="cls-3" d="M62.2,253.05a.62.62,0,0,0,.7,0l8.75-6.7L80,240c.29-.22.08-.6-.34-.6l-16.91-.21L45.82,239c-.43,0-.65.37-.36.6l8.17,6.57Z"/><path id="Fill-3" class="cls-3" d="M108.45,159.4C80.46,171.85,60.37,197.66,50,239a.71.71,0,0,0,.67.87c7.58.1,23.58.65,23.54-.47-2-47.63,21.31-69.89,34.91-78.76a.69.69,0,0,0-.67-1.2"/><path id="Fill-5" class="cls-3" d="M351.23,253.05a.62.62,0,0,1-.7,0l-8.74-6.7L333.46,240c-.29-.22-.07-.6.35-.6l16.9-.21,16.91-.21c.42,0,.64.37.36.6l-8.17,6.57Z"/><path id="Fill-7" class="cls-3" d="M305,159.4c28,12.45,48.08,38.26,58.44,79.56a.7.7,0,0,1-.66.87c-7.58.1-23.59.65-23.54-.47,2-47.63-21.32-69.89-34.91-78.76a.69.69,0,0,1,.67-1.2"/><polygon id="Fill-9" class="cls-1" points="34.64 315.37 98.2 315.37 98.2 278.44 34.64 278.44 34.64 315.37"/><path id="Fill-11" class="cls-4" d="M98.8,277.23H34a.61.61,0,0,0-.61.61V316a.61.61,0,0,0,.61.6H98.8a.6.6,0,0,0,.6-.6V277.84a.6.6,0,0,0-.6-.61Zm-63,36.94H97V279.64H35.84Z"/><g id="Group-14"><path id="Fill-12" class="cls-5" d="M110.73,338.36l.6,1.15a1.07,1.07,0,0,1-.9,1.58H22.87a1.09,1.09,0,0,1-1-1.56l.68-1.36"/><path id="Stroke-13" class="cls-6" d="M110.73,338.36l.6,1.15a1.07,1.07,0,0,1-.9,1.58H22.87a1.09,1.09,0,0,1-1-1.56l.68-1.36"/></g><path id="Fill-15" class="cls-4" d="M109.46,339.12H23.83c-.95,0-1.54-.35-1.33-.77l11.1-21.74a2.62,2.62,0,0,1,1.56-.37h63a2.62,2.62,0,0,1,1.56.37l11.1,21.74c.21.42-.38.77-1.33.77"/><path id="Stroke-16" class="cls-7" d="M109.46,339.12H23.83c-.95,0-1.54-.35-1.33-.77l11.1-21.74a2.62,2.62,0,0,1,1.56-.37h63a2.62,2.62,0,0,1,1.56.37l11.1,21.74C111,338.77,110.41,339.12,109.46,339.12Z"/><path id="Fill-17" class="cls-8" d="M86.68,337.42H46.61c-1,0-1.74-.21-1.59-.46l2.33-3.83a3.33,3.33,0,0,1,1.85-.35H84.09a3.33,3.33,0,0,1,1.85.35L88.27,337c.15.25-.56.46-1.59.46"/><path id="Fill-18" class="cls-9" d="M101,331H32.59c-.91,0-1.48-.38-1.28-.84l4.75-10.91c.15-.34.9-.61,1.67-.61h58c.76,0,1.51.27,1.66.61l4.79,10.91c.2.46-.37.84-1.27.84"/><path id="Stroke-19" class="cls-7" d="M101,331H32.59c-.91,0-1.48-.38-1.28-.84l4.75-10.91c.15-.34.9-.61,1.67-.61h58c.76,0,1.51.27,1.66.61l4.79,10.91C102.42,330.58,101.85,331,101,331Z"/><line id="Stroke-20" class="cls-7" x1="33.68" y1="328.04" x2="99.97" y2="328.04"/><line id="Stroke-21" class="cls-7" x1="34.32" y1="325.43" x2="99.19" y2="325.43"/><line id="Stroke-22" class="cls-7" x1="35.05" y1="323" x2="98.46" y2="323"/><line id="Stroke-23" class="cls-7" x1="35.71" y1="320.72" x2="97.79" y2="320.72"/><path id="Fill-24" class="cls-10" d="M278.32,309.38c.1,0,20.48-.08,20.74,0s-3,2.34-3,2.34-9.63.93-9.76.88-6.31-2.93-6.31-2.93Z"/><polyline id="Fill-25" class="cls-2" points="288.95 308.08 283 307.51 282.82 313.52 288.99 314.15 289.17 314.15 295.33 313.48 295.11 307.47 289.16 308.08"/><polygon id="Fill-26" class="cls-11" points="283.05 306.14 282.96 308.64 295.1 308.33 295.1 306.13 283.05 306.14"/><polygon id="Fill-27" class="cls-8" points="342.89 333.69 368.32 333.69 368.32 331.43 342.89 331.43 342.89 333.69"/><path id="Fill-28" class="cls-12" d="M364.21,343.72c-2.89,9.11-26.75,24.14-41.95,4.47-34.68,16.43-117.68,3.36-68.66-30.62,7.6-5.36,25.32-9.45,27.21-7.78,6.21,3.49,11.31,3.34,16.86-.4,3.26-2.09,23.77,1.46,38.43,24,3.06,4.71,6.25,10.49,11.19,4.47,1.65-2,0-4.92-.46-7.46,0,0,19.69-2.2,19.91.88s-2.53,12.41-2.53,12.41"/><path id="Fill-29" class="cls-13" d="M168.66,313.62a16.64,16.64,0,0,0,8.85-2.51c1.89-1.67,19.62,2.42,27.22,7.78,36.64,25.41-.5,39.12-36.07,37.56C133.09,358,96,344.3,132.6,318.89c7.6-5.36,25.32-9.45,27.21-7.78a16.67,16.67,0,0,0,8.85,2.51"/><path id="Fill-30" class="cls-1" d="M367.23,334h-23a1.3,1.3,0,0,1-1.3-1.3V282.24a1.3,1.3,0,0,1,1.3-1.3h23a1.3,1.3,0,0,1,1.3,1.3V332.7a1.31,1.31,0,0,1-1.3,1.3"/><path id="Stroke-31" class="cls-14" d="M367.23,334h-23a1.3,1.3,0,0,1-1.3-1.3V282.24a1.3,1.3,0,0,1,1.3-1.3h23a1.3,1.3,0,0,1,1.3,1.3V332.7A1.31,1.31,0,0,1,367.23,334Z"/><path id="Fill-32" class="cls-8" d="M361.07,283.34H350.36a1.31,1.31,0,0,1-1.3-1.3v-.11a1.3,1.3,0,0,1,1.3-1.29h10.71a1.3,1.3,0,0,1,1.3,1.29V282a1.3,1.3,0,0,1-1.3,1.3"/><path id="Fill-33" class="cls-15" d="M345.62,285.35l0,0,0,0"/><path id="Fill-34" class="cls-15" d="M345.62,285.35h0"/><path id="Fill-35" class="cls-15" d="M346.65,285.53h0"/><path id="Fill-37" class="cls-15" d="M345.6,285.33h0"/><path id="Fill-38" class="cls-15" d="M346.63,285.54h0"/><path id="Fill-39" class="cls-15" d="M346.72,285.49h0"/><path id="Fill-40" class="cls-15" d="M346.68,285.52h0"/><path id="Fill-41" class="cls-15" d="M346.7,285.5l0,0,0,0"/><path id="Fill-42" class="cls-15" d="M346.68,285.52h0"/><path id="Fill-43" class="cls-2" d="M342.43,308.1s-6.78,5.58-3.91,8.86,7.7,2.28,9.46,1.74,2.65-2.21,1.86-4.76c-.33-1.1-7.29-.52-7.34-2.07,0-1-.07-3.77-.07-3.77"/><g id="Group-46"><path id="Fill-44" class="cls-1" d="M342.47,311.46c-.54.21-1.87,0-2.12-.47"/><path id="Stroke-45" class="cls-16" d="M342.47,311.46c-.54.21-1.87,0-2.12-.47"/></g><path id="Fill-47" class="cls-2" d="M267.21,280.87c0,3-1.85,5.4-4.12,5.4s-4.13-2.42-4.13-5.4,1.85-5.4,4.13-5.4,4.12,2.42,4.12,5.4"/><path id="Fill-48" class="cls-2" d="M310.5,280.87c0,3,1.85,5.4,4.13,5.4s4.12-2.42,4.12-5.4-1.85-5.4-4.12-5.4-4.13,2.42-4.13,5.4"/><path id="Fill-49" class="cls-17" d="M288.85,242c10.83-.23,9,4.24,10.76,4.46s4.21-2.76,12.14,3.41,2.73,14.82,3.67,14.88,3.15,1.92,3.15,7.4-6.36,8.62-6.36,8.62,4.79,12.84-2.65,20.14S289,307.28,289,307.28h-.19s-13.17.88-20.61-6.42-2.65-20.14-2.65-20.14-6.36-3.15-6.36-8.62,1.92-7.18,2.86-7.24-4-8.88,4-15,10.52-3.21,12.14-3.41-.06-4.69,10.76-4.46Z"/><path id="Fill-50" class="cls-2" d="M288.85,289.42c.36-.05,16.47,2.83,16.47-5.66a62.18,62.18,0,0,0-.71-9.86,12.41,12.41,0,0,1,.41-5.51c.63-2.16.76-5.06-2.73-5.86-4-.92-3.38.3-6.37,3.42-2.31,2.41-11.81,2.41-14.13,0-3-3.12-2.37-4.34-6.37-3.42-3.49.8-3.36,3.7-2.72,5.86a12.55,12.55,0,0,1,.4,5.51,62.18,62.18,0,0,0-.71,9.86c0,8.49,16.11,5.61,16.47,5.66Z"/><path id="Fill-51" class="cls-18" d="M288.53,282.7,287.12,287a.36.36,0,0,0,.33.46h2.81a.36.36,0,0,0,.34-.46l-1.41-4.25a.35.35,0,0,0-.66,0"/><path id="Fill-52" class="cls-17" d="M279.21,278.5c0,1.72-.82,3.12-1.84,3.12s-1.84-1.4-1.84-3.12.82-3.12,1.84-3.12,1.84,1.39,1.84,3.12"/><path id="Stroke-53" class="cls-19" d="M281.7,280.44s.44,1.59-1.59,2.69"/><path id="Fill-54" class="cls-17" d="M298.5,278.5c0,1.72.83,3.12,1.84,3.12s1.84-1.4,1.84-3.12-.82-3.12-1.84-3.12-1.84,1.39-1.84,3.12"/><path id="Stroke-55" class="cls-19" d="M296,280.44s-.44,1.59,1.59,2.69"/><path id="Stroke-56" class="cls-20" d="M292.62,295.5c0,1.59-7.52,1.59-7.52,0"/><path id="Stroke-57" class="cls-21" d="M259,339.17c.47.15,31.61,6.27,56.28.29"/><path id="Fill-58" class="cls-22" d="M322.26,348.19l-12.35-17.67s7.16,19.79,7.32,19.73,5-2.06,5-2.06"/><path id="Fill-59" class="cls-22" d="M256.91,351.89l2.39-19.16a.15.15,0,0,1,.3,0l-.73,19.66Z"/><path id="Fill-60" class="cls-10" d="M133.62,352.52,136,341.09c0-.11.3-.1.31,0l-.88,12Z"/><path id="Fill-61" class="cls-10" d="M202.54,352.89s-2.4-11.47-2.4-11.47-.3-.1-.3,0l.88,12,1.82-.51"/><path id="Fill-62" class="cls-1" d="M297.88,91.92a45.63,45.63,0,0,1-30.74,30.84c-23.1,6.83-44.75-3.47-55.16-21.17a4.19,4.19,0,0,0-3.61-2.07H168.69L162,92.84a3.88,3.88,0,0,0-2.51-1.25H139.84a3.69,3.69,0,0,0-2.51.83l-12.12,9.19L104.58,75.75a1.15,1.15,0,0,1,.14-1.59L125.21,56.1h83A4.21,4.21,0,0,0,211.87,54a47.23,47.23,0,0,1,40.85-23.48c30.71,0,54.58,29.27,45.16,61.39"/><path id="Fill-63" class="cls-1" d="M197.35,73.12A4.32,4.32,0,0,1,193,77.44c-36.11.08-74.92.12-83.48,0l12-9.23a1.4,1.4,0,0,0,1.14.56H193a4.33,4.33,0,0,1,4.32,4.32"/><path id="Fill-64" class="cls-1" d="M288.6,77.71a18,18,0,1,1-18-17.95,18,18,0,0,1,18,17.95"/><path id="Fill-65" class="cls-23" d="M270.62,61.19a16.52,16.52,0,1,0,16.54,16.52,16.55,16.55,0,0,0-16.54-16.52m0,35.91A19.39,19.39,0,1,1,290,77.71,19.42,19.42,0,0,1,270.62,97.1"/><path id="Fill-66" class="cls-23" d="M117.16,93.83l3.08-.76L110.08,80.34c4,0,12.45,0,22.89,0,18.21,0,42.51,0,60.07-.07a7.2,7.2,0,0,0,0-14.39H122.7a1.43,1.43,0,0,0-1.13,2.31,1.39,1.39,0,0,0,1.13.56H193a4.32,4.32,0,0,1,0,8.64c-36.11.08-74.92.11-83.48,0-.94,0-1.51,0-1.68,0h-.12l-1.9-2.38,19.89-17.53h82.5a5.65,5.65,0,0,0,4.86-2.8A46,46,0,0,1,252.72,32a45.49,45.49,0,0,1,36.69,18.34,46.32,46.32,0,0,1,7.1,41.21,43.91,43.91,0,0,1-6.83,13.66c1,.31,2,.61,3,.92a47.15,47.15,0,0,0,6.62-13.77C303.77,77,301,61,291.7,48.6a48.29,48.29,0,0,0-39-19.5,48.91,48.91,0,0,0-42.1,24.18,2.74,2.74,0,0,1-2.37,1.39H124.66L103.77,73.08a2.59,2.59,0,0,0-.32,3.56Z"/><path id="Fill-67" class="cls-24" d="M127.52,110.86a1.29,1.29,0,0,1-.41,1,1.35,1.35,0,0,1-.94.37h-4.44a1.29,1.29,0,0,1-1-.41,1.26,1.26,0,0,1-.37-.93,1.28,1.28,0,0,1,.39-1,1.26,1.26,0,0,1,1-.4h1v-5.37l-.41.2a1.46,1.46,0,0,1-1.62-.22,1.43,1.43,0,0,1-.39-1,1.35,1.35,0,0,1,.79-1.24l2-1a1.53,1.53,0,0,1,.73-.19h.31a1.42,1.42,0,0,1,1,.42,1.36,1.36,0,0,1,.42,1v7.37h.69a1.35,1.35,0,0,1,1,.4,1.32,1.32,0,0,1,.39,1"/><path id="Fill-68" class="cls-24" d="M125,126.18a1.53,1.53,0,0,1-2.6,0,5.93,5.93,0,0,1,0-5,1.53,1.53,0,0,1,2.6,0,5.93,5.93,0,0,1,0,5m2.19-6.69a4.43,4.43,0,0,0-7,0,8.31,8.31,0,0,0,0,8.37,4.44,4.44,0,0,0,7,0,8.21,8.21,0,0,0,0-8.38"/><path id="Fill-69" class="cls-24" d="M127.52,145.3a1.27,1.27,0,0,1-.41,1,1.31,1.31,0,0,1-.94.38h-4.44a1.27,1.27,0,0,1-1-.39,1.28,1.28,0,0,1-.39-.95,1.33,1.33,0,0,1,1.34-1.35h1v-5.36l-.41.2a1.74,1.74,0,0,1-.66.16,1.39,1.39,0,0,1-1-.39,1.39,1.39,0,0,1,.4-2.2l1.94-1a1.57,1.57,0,0,1,.74-.19h.31a1.4,1.4,0,0,1,1,.42,1.34,1.34,0,0,1,.42,1V144h.69a1.31,1.31,0,0,1,1,.4,1.32,1.32,0,0,1,.4,1"/><path id="Fill-70" class="cls-24" d="M125,160.63a1.56,1.56,0,0,1-2.6,0,4.79,4.79,0,0,1-.55-2.51,4.74,4.74,0,0,1,.55-2.49,1.55,1.55,0,0,1,2.6,0,4.64,4.64,0,0,1,.55,2.49,4.7,4.7,0,0,1-.55,2.51m2.19-6.7a4.44,4.44,0,0,0-7,0,8.31,8.31,0,0,0,0,8.37,4.43,4.43,0,0,0,7,0,8.21,8.21,0,0,0,0-8.38"/><path id="Fill-71" class="cls-24" d="M144.47,120.75a1.28,1.28,0,0,1-.4,1,1.4,1.4,0,0,1-1,.39h-4.43a1.36,1.36,0,0,1-1-.39,1.38,1.38,0,0,1,0-1.9,1.28,1.28,0,0,1,1-.4h1V114l-.41.2a1.66,1.66,0,0,1-.65.16,1.36,1.36,0,0,1-1-.38,1.38,1.38,0,0,1-.38-1,1.35,1.35,0,0,1,.77-1.24l2-1a1.54,1.54,0,0,1,.74-.19h.3a1.41,1.41,0,0,1,1,.42,1.38,1.38,0,0,1,.42,1v7.38h.68a1.37,1.37,0,0,1,1.36,1.35"/><path id="Fill-72" class="cls-24" d="M142,136.07a1.43,1.43,0,0,1-1.31.71,1.4,1.4,0,0,1-1.29-.71,5.86,5.86,0,0,1,0-5,1.42,1.42,0,0,1,1.29-.71,1.45,1.45,0,0,1,1.31.71,6,6,0,0,1,0,5m2.18-6.69a4.43,4.43,0,0,0-7,0,8.25,8.25,0,0,0,0,8.37,4.07,4.07,0,0,0,3.49,1.7,4.11,4.11,0,0,0,3.49-1.69,8.27,8.27,0,0,0,0-8.38"/><path id="Fill-73" class="cls-24" d="M144.47,155.19a1.31,1.31,0,0,1-.4,1,1.38,1.38,0,0,1-1,.37h-4.43a1.34,1.34,0,0,1-1-2.27,1.29,1.29,0,0,1,1-.41h1v-5.37l-.41.2a1.5,1.5,0,0,1-.65.16,1.36,1.36,0,0,1-1-.38,1.34,1.34,0,0,1-.38-1,1.33,1.33,0,0,1,.77-1.23l2-1a1.53,1.53,0,0,1,.74-.18h.3a1.4,1.4,0,0,1,1,.41,1.42,1.42,0,0,1,.42,1v7.37h.68a1.36,1.36,0,0,1,1,.39,1.35,1.35,0,0,1,.4,1"/><path id="Fill-74" class="cls-24" d="M142,170.52a1.44,1.44,0,0,1-1.31.7,1.41,1.41,0,0,1-1.29-.7,4.69,4.69,0,0,1-.56-2.51,4.61,4.61,0,0,1,.56-2.49,1.4,1.4,0,0,1,1.29-.71,1.43,1.43,0,0,1,1.31.71,4.71,4.71,0,0,1,.55,2.49,4.79,4.79,0,0,1-.55,2.51m2.18-6.7a4.43,4.43,0,0,0-7,0,8.25,8.25,0,0,0,0,8.37,4.42,4.42,0,0,0,7,0,8.25,8.25,0,0,0,0-8.37"/><path id="Fill-75" class="cls-24" d="M160.7,110.4a1.28,1.28,0,0,1-.41.95,1.31,1.31,0,0,1-.95.38H154.9a1.36,1.36,0,0,1-1-.39,1.31,1.31,0,0,1-.38-.94,1.36,1.36,0,0,1,.37-1,1.29,1.29,0,0,1,1-.4h1v-5.38l-.41.21a1.66,1.66,0,0,1-.65.16,1.35,1.35,0,0,1-1.36-1.35,1.37,1.37,0,0,1,.79-1.25l1.94-1a1.69,1.69,0,0,1,.74-.19h.3a1.42,1.42,0,0,1,1.42,1.43v7.38h.69a1.3,1.3,0,0,1,1,.39,1.28,1.28,0,0,1,.4,1"/><path id="Fill-76" class="cls-24" d="M158.17,125.71a1.54,1.54,0,0,1-2.59,0,5.84,5.84,0,0,1,0-5,1.54,1.54,0,0,1,2.59,0,5.84,5.84,0,0,1,0,5m2.19-6.69a4.45,4.45,0,0,0-7,0,8.33,8.33,0,0,0,0,8.38,4.45,4.45,0,0,0,7,0,8.27,8.27,0,0,0,0-8.38"/><path id="Fill-77" class="cls-24" d="M160.7,144.84a1.33,1.33,0,0,1-1.36,1.33H154.9a1.31,1.31,0,0,1-1-.39,1.27,1.27,0,0,1-.38-.94,1.36,1.36,0,0,1,.37-1,1.33,1.33,0,0,1,1-.4h1v-5.37l-.41.2a1.5,1.5,0,0,1-.65.16,1.35,1.35,0,0,1-1.36-1.35,1.36,1.36,0,0,1,.79-1.24l1.94-1a1.68,1.68,0,0,1,.74-.18h.3a1.37,1.37,0,0,1,1,.42,1.39,1.39,0,0,1,.41,1v7.38h.69a1.34,1.34,0,0,1,1,.39,1.29,1.29,0,0,1,.4,1"/><path id="Fill-78" class="cls-24" d="M158.17,160.16a1.54,1.54,0,0,1-2.59,0,5.86,5.86,0,0,1,0-5,1.55,1.55,0,0,1,2.59,0,5.86,5.86,0,0,1,0,5m2.19-6.69a4.43,4.43,0,0,0-7,0,8.31,8.31,0,0,0,0,8.37,4.43,4.43,0,0,0,7,0,8.25,8.25,0,0,0,0-8.37"/><path id="Fill-79" class="cls-24" d="M288.49,117.85a1.52,1.52,0,0,1-2.59,0,5.84,5.84,0,0,1,0-5,1.54,1.54,0,0,1,2.59,0,5.84,5.84,0,0,1,0,5m2.19-6.69a4.45,4.45,0,0,0-7,0,8.27,8.27,0,0,0,0,8.38,4.45,4.45,0,0,0,7,0,8.27,8.27,0,0,0,0-8.38"/><path id="Fill-80" class="cls-24" d="M291,137a1.28,1.28,0,0,1-.4,1,1.33,1.33,0,0,1-.95.38h-4.44a1.32,1.32,0,0,1-1-.4,1.27,1.27,0,0,1-.38-.94,1.38,1.38,0,0,1,.37-.95,1.33,1.33,0,0,1,1-.4h1v-5.37l-.41.21a1.66,1.66,0,0,1-.65.16,1.37,1.37,0,0,1-1.36-1.35,1.36,1.36,0,0,1,.79-1.25l1.94-1a1.66,1.66,0,0,1,.74-.19h.3a1.41,1.41,0,0,1,1,.42,1.39,1.39,0,0,1,.41,1v7.38h.69a1.34,1.34,0,0,1,1,.39,1.32,1.32,0,0,1,.39,1"/><path id="Fill-81" class="cls-24" d="M291,154.2a1.28,1.28,0,0,1-.4,1,1.32,1.32,0,0,1-.95.37h-4.44a1.3,1.3,0,0,1-1.33-1.33,1.33,1.33,0,0,1,1.33-1.35h1v-5.37l-.41.2a1.5,1.5,0,0,1-.65.16,1.3,1.3,0,0,1-1-.38,1.34,1.34,0,0,1-.4-1,1.36,1.36,0,0,1,.79-1.24l1.94-1a1.53,1.53,0,0,1,.74-.18h.3a1.4,1.4,0,0,1,1,.41,1.41,1.41,0,0,1,.41,1v7.37h.69A1.33,1.33,0,0,1,291,154.2"/><path id="Fill-82" class="cls-24" d="M288.49,169.53a1.55,1.55,0,0,1-2.59,0,4.69,4.69,0,0,1-.56-2.51,4.61,4.61,0,0,1,.56-2.49,1.54,1.54,0,0,1,2.59,0,4.61,4.61,0,0,1,.56,2.49,4.69,4.69,0,0,1-.56,2.51m2.19-6.7a4.43,4.43,0,0,0-7,0,8.25,8.25,0,0,0,0,8.37,4.42,4.42,0,0,0,7,0,8.25,8.25,0,0,0,0-8.37"/><path id="Fill-83" class="cls-24" d="M270.66,132.93a1.55,1.55,0,0,1-2.6,0,6,6,0,0,1,0-5,1.55,1.55,0,0,1,2.6,0,6,6,0,0,1,0,5m2.18-6.7a4.43,4.43,0,0,0-7,0,8.25,8.25,0,0,0,0,8.37,4.43,4.43,0,0,0,7,0,8.23,8.23,0,0,0,0-8.39"/><path id="Fill-84" class="cls-24" d="M273.19,152.05a1.31,1.31,0,0,1-.41,1,1.32,1.32,0,0,1-.94.38h-4.45a1.28,1.28,0,0,1-.95-.39,1.35,1.35,0,0,1,0-1.89,1.34,1.34,0,0,1,1-.41h1v-5.36l-.4.2a1.7,1.7,0,0,1-.65.16,1.37,1.37,0,0,1-1-.39,1.34,1.34,0,0,1-.38-1,1.36,1.36,0,0,1,.77-1.25l1.95-1a1.65,1.65,0,0,1,.74-.18h.3a1.43,1.43,0,0,1,1.42,1.42v7.37h.7a1.35,1.35,0,0,1,1.35,1.35"/><path id="Fill-85" class="cls-24" d="M273.19,169.28a1.34,1.34,0,0,1-.41,1,1.31,1.31,0,0,1-.94.37h-4.45a1.28,1.28,0,0,1-.95-.39,1.3,1.3,0,0,1-.39-.94,1.33,1.33,0,0,1,1.34-1.35h1v-5.38l-.4.2a1.57,1.57,0,0,1-.65.17,1.32,1.32,0,0,1-1.35-1.35,1.34,1.34,0,0,1,.77-1.24l1.95-1a1.65,1.65,0,0,1,.74-.18h.3a1.37,1.37,0,0,1,1,.41,1.4,1.4,0,0,1,.42,1v7.38h.7a1.36,1.36,0,0,1,1,.39,1.33,1.33,0,0,1,.4,1"/><path id="Fill-86" class="cls-24" d="M270.66,184.6a1.55,1.55,0,0,1-2.6,0,6,6,0,0,1,0-5,1.55,1.55,0,0,1,2.6,0,6,6,0,0,1,0,5m2.18-6.7a4.44,4.44,0,0,0-7,0,8.27,8.27,0,0,0,0,8.38,4.42,4.42,0,0,0,7,0,8.21,8.21,0,0,0,0-8.38"/><path id="Fill-87" class="cls-24" d="M252.83,117.85a1.53,1.53,0,0,1-2.6,0,5.84,5.84,0,0,1,0-5,1.55,1.55,0,0,1,2.6,0,5.84,5.84,0,0,1,0,5m2.18-6.69a4.44,4.44,0,0,0-7,0,8.27,8.27,0,0,0,0,8.38,4.44,4.44,0,0,0,7,0,8.21,8.21,0,0,0,0-8.38"/><path id="Fill-88" class="cls-24" d="M255.35,137a1.28,1.28,0,0,1-.41,1,1.31,1.31,0,0,1-.94.38h-4.44a1.29,1.29,0,0,1-.95-.4,1.24,1.24,0,0,1-.39-.94,1.38,1.38,0,0,1,.37-.95,1.35,1.35,0,0,1,1-.4h1v-5.37l-.41.21a1.66,1.66,0,0,1-.66.16,1.35,1.35,0,0,1-1.35-1.35,1.35,1.35,0,0,1,.78-1.25l1.94-1a1.74,1.74,0,0,1,.75-.19h.3a1.42,1.42,0,0,1,1,.42,1.39,1.39,0,0,1,.41,1v7.38H254a1.36,1.36,0,0,1,1,.39,1.32,1.32,0,0,1,.39,1"/><path id="Fill-89" class="cls-24" d="M255.35,154.2a1.33,1.33,0,0,1-1.35,1.33h-4.44a1.31,1.31,0,0,1-1.34-1.33,1.34,1.34,0,0,1,.37-.94,1.36,1.36,0,0,1,1-.41h1v-5.37l-.41.2a1.51,1.51,0,0,1-.66.16,1.34,1.34,0,0,1-1-.38,1.37,1.37,0,0,1-.39-1,1.35,1.35,0,0,1,.78-1.24l1.94-1a1.59,1.59,0,0,1,.75-.18h.3a1.4,1.4,0,0,1,1.42,1.42v7.37H254a1.36,1.36,0,0,1,1,.39,1.34,1.34,0,0,1,.39,1"/><path id="Fill-90" class="cls-24" d="M252.83,169.53a1.56,1.56,0,0,1-2.6,0,4.69,4.69,0,0,1-.56-2.51,4.61,4.61,0,0,1,.56-2.49,1.55,1.55,0,0,1,2.6,0,4.71,4.71,0,0,1,.56,2.49,4.79,4.79,0,0,1-.56,2.51m2.18-6.7a4.42,4.42,0,0,0-7,0,8.25,8.25,0,0,0,0,8.37,4.41,4.41,0,0,0,7,0,8.19,8.19,0,0,0,0-8.37"/><path id="Fill-91" class="cls-24" d="M195.33,101.3a.58.58,0,0,1-.18-.43.6.6,0,0,1,.18-.44.55.55,0,0,1,.43-.18h1.71V93l-1.47.72a.82.82,0,0,1-.33.09.6.6,0,0,1-.44-.17.61.61,0,0,1-.18-.45.63.63,0,0,1,.38-.59l1.95-1a1,1,0,0,1,.4-.1h.31a.68.68,0,0,1,.68.69v8.11h1.43a.61.61,0,0,1,.62.62.58.58,0,0,1-.18.43.64.64,0,0,1-.44.17h-4.44a.58.58,0,0,1-.43-.17"/><path id="Fill-92" class="cls-24" d="M200.2,102.2h-4.44a1.33,1.33,0,0,1-1.34-1.33,1.35,1.35,0,0,1,.38-1,1.3,1.3,0,0,1,1-.4h1V94.15l-.4.2a1.74,1.74,0,0,1-.66.16,1.33,1.33,0,0,1-1.35-1.35,1.34,1.34,0,0,1,.78-1.24l1.94-1a1.68,1.68,0,0,1,.74-.18h.31a1.39,1.39,0,0,1,1,.41,1.42,1.42,0,0,1,.42,1v7.38h.69a1.28,1.28,0,0,1,1,.39,1.35,1.35,0,0,1,0,1.92,1.38,1.38,0,0,1-1,.37"/><path id="Fill-93" class="cls-24" d="M199,116.19a1.42,1.42,0,0,1-1.3.71,1.4,1.4,0,0,1-1.3-.71,5.86,5.86,0,0,1,0-5,1.4,1.4,0,0,1,1.3-.71,1.42,1.42,0,0,1,1.3.71,6,6,0,0,1,0,5m2.18-6.7a4.43,4.43,0,0,0-7,0,8.25,8.25,0,0,0,0,8.37,4.42,4.42,0,0,0,7,0,8.27,8.27,0,0,0,0-8.38"/><path id="Fill-94" class="cls-24" d="M201.55,135.31a1.3,1.3,0,0,1-.4,1,1.35,1.35,0,0,1-1,.38h-4.44a1.32,1.32,0,0,1-1.34-1.34,1.32,1.32,0,0,1,.38-.94,1.31,1.31,0,0,1,1-.41h1V128.6l-.41.2a1.62,1.62,0,0,1-.64.16,1.3,1.3,0,0,1-1-.4,1.27,1.27,0,0,1-.39-1,1.35,1.35,0,0,1,.78-1.25l1.94-1a1.74,1.74,0,0,1,.75-.19h.29a1.43,1.43,0,0,1,1.43,1.42V134h.69a1.35,1.35,0,0,1,1.35,1.35"/><path id="Fill-95" class="cls-24" d="M199,150.63a1.4,1.4,0,0,1-1.3.71,1.38,1.38,0,0,1-1.3-.71,5.84,5.84,0,0,1,0-5,1.38,1.38,0,0,1,1.3-.71,1.4,1.4,0,0,1,1.3.71,5.93,5.93,0,0,1,0,5m2.18-6.69a4.44,4.44,0,0,0-7,0,8.27,8.27,0,0,0,0,8.38,4.42,4.42,0,0,0,7,0,8.27,8.27,0,0,0,0-8.38"/><path id="Fill-96" class="cls-24" d="M186.81,142.66a1.31,1.31,0,0,1-.4,1,1.34,1.34,0,0,1-.95.37H181a1.33,1.33,0,0,1-1.34-1.33,1.35,1.35,0,0,1,.38-.94,1.28,1.28,0,0,1,1-.41h1v-5.37l-.42.2a1.46,1.46,0,0,1-.64.16,1.31,1.31,0,0,1-1-.39,1.29,1.29,0,0,1-.39-1,1.35,1.35,0,0,1,.78-1.24l1.94-1a1.72,1.72,0,0,1,.75-.18h.3a1.42,1.42,0,0,1,1.42,1.42v7.38h.69a1.32,1.32,0,0,1,.95.39,1.31,1.31,0,0,1,.4,1"/><path id="Fill-97" class="cls-24" d="M184.29,158a1.42,1.42,0,0,1-1.3.71,1.4,1.4,0,0,1-1.3-.71,5.93,5.93,0,0,1,0-5,1.38,1.38,0,0,1,1.3-.71,1.4,1.4,0,0,1,1.3.71,5.93,5.93,0,0,1,0,5m2.18-6.69a4.42,4.42,0,0,0-7,0,8.25,8.25,0,0,0,0,8.37,4.42,4.42,0,0,0,7,0,8.25,8.25,0,0,0,0-8.37"/><path id="Fill-98" class="cls-24" d="M186.81,177.11a1.31,1.31,0,0,1-.4.95,1.35,1.35,0,0,1-.95.38H181a1.33,1.33,0,0,1-1.34-1.33,1.39,1.39,0,0,1,.38-1,1.28,1.28,0,0,1,1-.4h1v-5.38l-.42.21a1.62,1.62,0,0,1-.64.16,1.35,1.35,0,0,1-1-.39,1.32,1.32,0,0,1-.39-1,1.36,1.36,0,0,1,.78-1.25l1.94-1a1.72,1.72,0,0,1,.75-.18h.3a1.43,1.43,0,0,1,1,.41,1.4,1.4,0,0,1,.41,1v7.38h.69a1.35,1.35,0,0,1,1.35,1.35"/><path id="Fill-99" class="cls-24" d="M184.29,192.42a1.41,1.41,0,0,1-1.3.72,1.39,1.39,0,0,1-1.3-.72,5.93,5.93,0,0,1,0-5,1.4,1.4,0,0,1,1.3-.71,1.43,1.43,0,0,1,1.3.7,4.83,4.83,0,0,1,.55,2.5,4.73,4.73,0,0,1-.55,2.5m2.18-6.69a4.44,4.44,0,0,0-7,0,8.27,8.27,0,0,0,0,8.38,4.44,4.44,0,0,0,7,0,8.27,8.27,0,0,0,0-8.38"/><path id="Fill-100" class="cls-24" d="M213.77,117.85a1.42,1.42,0,0,1-1.31.72,1.39,1.39,0,0,1-1.29-.72,5.93,5.93,0,0,1,0-5,1.4,1.4,0,0,1,1.29-.71,1.43,1.43,0,0,1,1.31.71,5.93,5.93,0,0,1,0,5m2.18-6.69a4.45,4.45,0,0,0-7,0,8.33,8.33,0,0,0,0,8.38,4.45,4.45,0,0,0,7,0,8.27,8.27,0,0,0,0-8.38"/><path id="Fill-101" class="cls-24" d="M216.29,137a1.28,1.28,0,0,1-.41,1,1.31,1.31,0,0,1-.94.38h-4.45a1.32,1.32,0,0,1-1-.4,1.27,1.27,0,0,1-.38-.94,1.38,1.38,0,0,1,.37-.95,1.33,1.33,0,0,1,1-.4h1v-5.37l-.41.21a1.62,1.62,0,0,1-.65.16,1.37,1.37,0,0,1-1.36-1.35,1.36,1.36,0,0,1,.79-1.25l1.94-1a1.7,1.7,0,0,1,.75-.19h.29a1.43,1.43,0,0,1,1.43,1.42v7.38h.69a1.32,1.32,0,0,1,.95.39,1.29,1.29,0,0,1,.4,1"/><path id="Fill-102" class="cls-24" d="M216.29,154.2a1.33,1.33,0,0,1-1.35,1.33h-4.45a1.3,1.3,0,0,1-1.33-1.33,1.33,1.33,0,0,1,1.33-1.35h1v-5.37l-.41.2a1.47,1.47,0,0,1-.65.16,1.32,1.32,0,0,1-1-.38,1.34,1.34,0,0,1-.4-1,1.36,1.36,0,0,1,.79-1.24l1.94-1a1.56,1.56,0,0,1,.75-.18h.29a1.4,1.4,0,0,1,1,.41,1.42,1.42,0,0,1,.42,1v7.37h.69a1.32,1.32,0,0,1,.95.39,1.31,1.31,0,0,1,.4,1"/><path id="Fill-103" class="cls-24" d="M213.77,169.53a1.44,1.44,0,0,1-1.31.7,1.41,1.41,0,0,1-1.29-.7,4.7,4.7,0,0,1-.55-2.51,4.62,4.62,0,0,1,.55-2.49,1.4,1.4,0,0,1,1.29-.71,1.43,1.43,0,0,1,1.31.71,4.71,4.71,0,0,1,.55,2.49,4.79,4.79,0,0,1-.55,2.51m2.18-6.7a4.43,4.43,0,0,0-7,0,8.31,8.31,0,0,0,0,8.37,4.42,4.42,0,0,0,7,0,8.25,8.25,0,0,0,0-8.37"/><path id="Fill-104" class="cls-24" d="M228.5,99a1.54,1.54,0,0,1-2.59,0,4.69,4.69,0,0,1-.56-2.51,4.61,4.61,0,0,1,.56-2.49,1.54,1.54,0,0,1,2.59,0,4.61,4.61,0,0,1,.56,2.49A4.69,4.69,0,0,1,228.5,99m2.19-6.7a4.43,4.43,0,0,0-7,0,8.27,8.27,0,0,0,0,8.38,4.43,4.43,0,0,0,7,0,8.27,8.27,0,0,0,0-8.38"/><path id="Fill-105" class="cls-24" d="M231,118.09a1.24,1.24,0,0,1-.4,1,1.32,1.32,0,0,1-1,.39h-4.44a1.31,1.31,0,0,1-1.33-1.34,1.38,1.38,0,0,1,.37-1,1.33,1.33,0,0,1,1-.4h1v-5.37l-.41.2a1.66,1.66,0,0,1-.65.16,1.3,1.3,0,0,1-1-.38,1.34,1.34,0,0,1-.4-1,1.36,1.36,0,0,1,.79-1.24l1.94-1a1.57,1.57,0,0,1,.74-.19h.3a1.41,1.41,0,0,1,1,.42,1.38,1.38,0,0,1,.41,1v7.37h.69a1.28,1.28,0,0,1,1,.4,1.3,1.3,0,0,1,.39,1"/><path id="Fill-106" class="cls-24" d="M231,135.31a1.26,1.26,0,0,1-.4,1,1.31,1.31,0,0,1-1,.38h-4.44a1.36,1.36,0,0,1-.95-.39,1.31,1.31,0,0,1-.38-.95,1.36,1.36,0,0,1,.37-.94,1.34,1.34,0,0,1,1-.41h1V128.6l-.41.2a1.66,1.66,0,0,1-.65.16,1.37,1.37,0,0,1-1.36-1.35,1.36,1.36,0,0,1,.79-1.25l1.94-1a1.69,1.69,0,0,1,.74-.19h.3a1.41,1.41,0,0,1,1,.42,1.39,1.39,0,0,1,.41,1V134h.69a1.33,1.33,0,0,1,1.35,1.35"/><path id="Fill-107" class="cls-24" d="M228.5,150.63a1.54,1.54,0,0,1-2.59,0,5.84,5.84,0,0,1,0-5,1.54,1.54,0,0,1,2.59,0,5.84,5.84,0,0,1,0,5m2.19-6.69a4.45,4.45,0,0,0-7,0,8.27,8.27,0,0,0,0,8.38,4.43,4.43,0,0,0,7,0,8.27,8.27,0,0,0,0-8.38"/><path id="Fill-108" class="cls-24" d="M361.51,291.52a.45.45,0,0,0-.41.22,1.52,1.52,0,0,0-.18.81,1.5,1.5,0,0,0,.18.81.47.47,0,0,0,.81,0h0a1.5,1.5,0,0,0,.18-.81,1.52,1.52,0,0,0-.18-.81.43.43,0,0,0-.4-.22m0,3a1.36,1.36,0,0,1-1.18-.57h0a2.77,2.77,0,0,1,0-2.8,1.48,1.48,0,0,1,2.35,0,2.71,2.71,0,0,1,0,2.8,1.36,1.36,0,0,1-1.17.57"/><path id="Fill-109" class="cls-24" d="M362.32,300.17h-1.46a.45.45,0,0,1-.47-.47.46.46,0,0,1,.47-.47h.29v-1.7l-.09,0a.44.44,0,0,1-.57-.08.48.48,0,0,1,.13-.77l.65-.34a.58.58,0,0,1,.26-.06h.09a.48.48,0,0,1,.5.5v2.41h.2a.46.46,0,0,1,.34.14.45.45,0,0,1,.14.33.48.48,0,0,1-.14.34.47.47,0,0,1-.34.13"/><path id="Fill-110" class="cls-24" d="M362.32,305.87h-1.46a.48.48,0,0,1-.34-.14.48.48,0,0,1,0-.66.43.43,0,0,1,.34-.15h.29v-1.7l-.09,0a.45.45,0,0,1-.57-.08.48.48,0,0,1,.14-.78l.64-.33a.51.51,0,0,1,.26-.07h.09a.49.49,0,0,1,.36.15.52.52,0,0,1,.14.35v2.41h.2a.48.48,0,0,1,.34.14.49.49,0,0,1,.14.34.48.48,0,0,1-.14.34.51.51,0,0,1-.34.13"/><path id="Fill-111" class="cls-24" d="M361.51,308.61a.45.45,0,0,0-.41.22,1.91,1.91,0,0,0,0,1.62.47.47,0,0,0,.81,0h0a1.91,1.91,0,0,0,0-1.62.43.43,0,0,0-.4-.22m0,3a1.36,1.36,0,0,1-1.18-.57,2.77,2.77,0,0,1,0-2.8,1.48,1.48,0,0,1,2.35,0,2.71,2.71,0,0,1,0,2.8,1.36,1.36,0,0,1-1.17.57"/><path id="Fill-112" class="cls-24" d="M355.61,291.52a.46.46,0,0,0-.41.22,1.52,1.52,0,0,0-.18.81,1.5,1.5,0,0,0,.18.81.47.47,0,0,0,.81,0h0a1.5,1.5,0,0,0,.18-.81,1.52,1.52,0,0,0-.18-.81.43.43,0,0,0-.4-.22m0,3a1.36,1.36,0,0,1-1.18-.57h0a2.77,2.77,0,0,1,0-2.8,1.48,1.48,0,0,1,2.35,0,2.71,2.71,0,0,1,0,2.8,1.36,1.36,0,0,1-1.17.57"/><path id="Fill-113" class="cls-24" d="M356.43,300.17H355a.45.45,0,0,1-.47-.47.44.44,0,0,1,.13-.33.46.46,0,0,1,.34-.14h.29v-1.7l-.09,0a.45.45,0,0,1-.57-.08.48.48,0,0,1,.14-.77l.64-.34a.58.58,0,0,1,.26-.06h.1a.5.5,0,0,1,.35.14.49.49,0,0,1,.15.36v2.41h.2a.49.49,0,0,1,.34.14.49.49,0,0,1,.13.33.48.48,0,0,1-.14.34.46.46,0,0,1-.33.13"/><path id="Fill-114" class="cls-24" d="M356.43,305.87H355a.48.48,0,0,1-.34-.14.48.48,0,0,1,.34-.81h.29v-1.7l-.09,0a.46.46,0,0,1-.57-.08.48.48,0,0,1,.14-.78l.64-.33a.51.51,0,0,1,.26-.07h.1a.47.47,0,0,1,.35.15.49.49,0,0,1,.15.35v2.41h.2a.48.48,0,0,1,.47.48.48.48,0,0,1-.14.34.51.51,0,0,1-.33.13"/><path id="Fill-115" class="cls-24" d="M355.61,308.61a.46.46,0,0,0-.41.22,1.91,1.91,0,0,0,0,1.62.47.47,0,0,0,.81,0h0a1.91,1.91,0,0,0,0-1.62.43.43,0,0,0-.4-.22m0,3a1.36,1.36,0,0,1-1.18-.57,2.77,2.77,0,0,1,0-2.8,1.48,1.48,0,0,1,2.35,0,2.71,2.71,0,0,1,0,2.8,1.36,1.36,0,0,1-1.17.57"/><path id="Fill-116" class="cls-24" d="M349.71,291.52a.43.43,0,0,0-.4.22,1.52,1.52,0,0,0-.18.81,1.5,1.5,0,0,0,.18.81.47.47,0,0,0,.81,0h0a1.59,1.59,0,0,0,.18-.81,1.62,1.62,0,0,0-.18-.81.46.46,0,0,0-.41-.22m0,3a1.38,1.38,0,0,1-1.18-.57h0a2.77,2.77,0,0,1,0-2.8,1.49,1.49,0,0,1,2.36,0,2.77,2.77,0,0,1,0,2.8,1.38,1.38,0,0,1-1.18.57"/><path id="Fill-117" class="cls-24" d="M350.53,300.17h-1.47a.47.47,0,0,1-.34-.13.51.51,0,0,1-.13-.34.44.44,0,0,1,.13-.33.48.48,0,0,1,.34-.14h.29v-1.7l-.09,0a.48.48,0,1,1-.43-.85l.64-.34a.62.62,0,0,1,.26-.06h.1a.48.48,0,0,1,.35.14.49.49,0,0,1,.15.36v2.41h.2a.48.48,0,0,1,.34.14.44.44,0,0,1,.13.33.48.48,0,0,1-.14.34.44.44,0,0,1-.33.13"/><path id="Fill-118" class="cls-24" d="M350.53,305.87h-1.47a.48.48,0,0,1-.34-.14.49.49,0,0,1-.13-.33.48.48,0,0,1,.47-.48h.29v-1.7l-.09,0a.46.46,0,0,1-.57-.08.5.5,0,0,1,.14-.78l.64-.33a.51.51,0,0,1,.26-.07h.1a.45.45,0,0,1,.35.15.49.49,0,0,1,.15.35v2.41h.2a.49.49,0,0,1,.34.14.48.48,0,0,1,.13.34.48.48,0,0,1-.14.34.49.49,0,0,1-.33.13"/><path id="Fill-119" class="cls-24" d="M349.71,308.61a.43.43,0,0,0-.4.22,1.91,1.91,0,0,0,0,1.62.47.47,0,0,0,.81,0h0a1.91,1.91,0,0,0,0-1.62.46.46,0,0,0-.41-.22m0,3a1.38,1.38,0,0,1-1.18-.57,2.77,2.77,0,0,1,0-2.8,1.49,1.49,0,0,1,2.36,0,2.77,2.77,0,0,1,0,2.8,1.38,1.38,0,0,1-1.18.57"/><path id="Fill-120" class="cls-1" d="M363.88,323.82a3.74,3.74,0,0,1-7,1.83.34.34,0,0,0-.29-.16H353.5L353,325a.31.31,0,0,0-.2-.1h-1.55a.29.29,0,0,0-.2.06l-1,.73-1.69-2.11,1.69-1.49h6.57a.33.33,0,0,0,.28-.16,3.74,3.74,0,0,1,7,1.93"/><path id="Stroke-121" class="cls-25" d="M363.88,323.82a3.74,3.74,0,0,1-7,1.83.34.34,0,0,0-.29-.16H353.5L353,325a.31.31,0,0,0-.2-.1h-1.55a.29.29,0,0,0-.2.06l-1,.73-1.69-2.11,1.69-1.49h6.57a.33.33,0,0,0,.28-.16,3.74,3.74,0,0,1,7,1.93Z"/><g id="Group-124"><path id="Fill-122" class="cls-1" d="M348.68,323.85c.1,0,5.18,0,6.74,0a.46.46,0,0,0,.46-.45.47.47,0,0,0-.46-.46h-5.56"/><path id="Stroke-123" class="cls-26" d="M348.68,323.85c.1,0,5.18,0,6.74,0a.46.46,0,0,0,.46-.45.47.47,0,0,0-.46-.46h-5.56"/></g><path id="Fill-125" class="cls-1" d="M363,323.76a1.42,1.42,0,1,1-1.42-1.42,1.42,1.42,0,0,1,1.42,1.42"/><path id="Stroke-126" class="cls-26" d="M363,323.76a1.42,1.42,0,1,1-1.42-1.42A1.42,1.42,0,0,1,363,323.76Z"/><path id="Fill-127" class="cls-27" d="M176.4,297.55V315.2H175a4,4,0,0,0,.93-2.19l.12-1.23.08-.81a11.49,11.49,0,0,1-7.25,2.41,16.61,16.61,0,0,1-7.33-1.6l.11,1.09V313a4,4,0,0,0,.93,2.19H161V297.55Z"/><path id="Fill-128" class="cls-27" d="M168.83,262H189s-.17,34.25,0,34.52-6.33,4.4-20.2,4.4-20.37-4.12-20.21-4.4,0-34.52,0-34.52Z"/><path id="Fill-129" class="cls-17" d="M160.36,274c0,1.79-.75,3.25-1.68,3.25S157,275.78,157,274s.76-3.26,1.69-3.26,1.68,1.46,1.68,3.26"/><path id="Fill-130" class="cls-17" d="M180.6,274c0,1.79-.75,3.25-1.68,3.25s-1.69-1.46-1.69-3.25.76-3.26,1.69-3.26,1.68,1.46,1.68,3.26"/><g id="Group-133"><path id="Fill-131" class="cls-13" d="M162.17,292.59c0,1.67,13.33,1.67,13.33,0"/><path id="Stroke-132" class="cls-28" d="M162.17,292.59c0,1.67,13.33,1.67,13.33,0"/></g><path id="Fill-134" class="cls-13" d="M168.41,281.45c.18-.57.65-.57.84,0l.67,2.06.67,2.07c.19.57,0,1.28-.42,1.28h-2.69c-.38,0-.61-.71-.42-1.28l.67-2.07Z"/><path id="Stroke-135" class="cls-28" d="M168.41,281.45c.18-.57.65-.57.84,0l.67,2.06.67,2.07c.19.57,0,1.28-.42,1.28h-2.69c-.38,0-.61-.71-.42-1.28l.67-2.07Z"/><path id="Fill-136" class="cls-29" d="M137.27,246.52S131.51,262,148.16,262h38.55v13.35h4.82V253.68a16.91,16.91,0,0,0-5.3-12.44c-3.41-3.16-8.86-6-17.4-6-16.61,0-21.9,8-23,10a5.58,5.58,0,0,1-1.22,1.59c-1.25,1.08-3.7,2.2-7.38-.33"/><polygon id="Fill-137" class="cls-29" points="145.22 275.39 150.15 275.39 150.15 254.97 145.22 254.97 145.22 275.39"/><path id="Fill-138" class="cls-27" d="M149.64,275.82c0,2.81.06,7.08-2.15,7.08s-5.83-4.27-5.83-7.08,1.79-5.09,4-5.09,4,2.28,4,5.09"/><path id="Fill-139" class="cls-27" d="M187.11,275.82c0,2.81-.05,7.08,2.15,7.08s5.84-4.27,5.84-7.08-1.79-5.09-4-5.09-4,2.28-4,5.09"/><path id="Fill-140" class="cls-27" d="M176.09,311l-.08.81-.12,1.23a4,4,0,0,1-.93,2.19,3.82,3.82,0,0,1-.68.65l-5.44,4v1.85h-.16v-1.85l-5.44-4a4.19,4.19,0,0,1-.68-.65,4,4,0,0,1-.93-2.19v-.14l-.11-1.09a16.61,16.61,0,0,0,7.33,1.6,11.49,11.49,0,0,0,7.25-2.41"/><path id="Fill-141" class="cls-30" d="M163.24,315.85l5.44,4v1.85h-.34a37.42,37.42,0,0,1-5.62-.45,23.93,23.93,0,0,1-7.34-2.33c-4.59-2.41-6.12-5.64-6.48-6.58-.07-.17-.1-.27-.1-.27a43.2,43.2,0,0,1,6.71-1.9,7.77,7.77,0,0,1,1.86-.11,4.56,4.56,0,0,1,1.27.32c.7.27,1.45.67,2.32,1.1l.55.27.11,1.09V313a4,4,0,0,0,.93,2.19,4.19,4.19,0,0,0,.68.65"/><path id="Fill-142" class="cls-30" d="M187.2,313.12s0,.14-.08.38c-.27,1-1.28,3.52-4.93,5.53a21.49,21.49,0,0,1-7.37,2.3,38.89,38.89,0,0,1-5.64.41h-.34v-1.85l5.44-4a3.82,3.82,0,0,0,.68-.65,4,4,0,0,0,.93-2.19l.12-1.23.08-.81.31-.25a9.13,9.13,0,0,0,1.83-2h0l.35.17,5.8,2.86Z"/><path id="Fill-143" class="cls-31" d="M184.42,311.75l-.2.66-2,6.62L178.54,331l-3.72-9.62L174.3,320l-5.12,1.76h-.35v-1.85l5.44-4a3.82,3.82,0,0,0,.68-.65,4,4,0,0,0,.93-2.19l.12-1.23.08-.81.31-3.09,1.83.83h0l.34.16,1.51.68Z"/><path id="Stroke-144" class="cls-32" d="M174.3,320s8.74-12.1,2.1-12.1"/><path id="Fill-145" class="cls-31" d="M168.84,319.89v1.85h-.49L163.22,320l-.5,1.3L159,331l-3.6-12-2.25-7.49L153,311l2.51-.84,1.89-.64,1.51-.68L161,308l.15-.07.4,3.9.11,1.09V313a4,4,0,0,0,.93,2.19,4.19,4.19,0,0,0,.68.65Z"/><path id="Stroke-146" class="cls-32" d="M163.22,320s-8.74-12.1-2.1-12.1"/><polygon id="Fill-147" class="cls-33" points="160.96 300.48 160.92 303.38 176.4 302.6 176.4 300.51 160.96 300.48"/><path id="Fill-148" class="cls-24" d="M49.22,288.93H47.69a.48.48,0,0,1-.36-.15h0a.52.52,0,0,1,.37-.88H48v-1.72l-.07,0a.5.5,0,0,1-.62-.08.55.55,0,0,1-.14-.37.49.49,0,0,1,.29-.47l.67-.35a.55.55,0,0,1,.28-.07h.1a.55.55,0,0,1,.54.54v2.49h.19a.51.51,0,0,1,.52.52.48.48,0,0,1-.16.36.49.49,0,0,1-.36.15"/><path id="Fill-149" class="cls-24" d="M48.37,291.78A.44.44,0,0,0,48,292a2,2,0,0,0,0,1.67.48.48,0,0,0,.82,0,2,2,0,0,0,0-1.67.45.45,0,0,0-.41-.23m0,3.14a1.46,1.46,0,0,1-1.25-.61h0a2.9,2.9,0,0,1,0-2.94,1.46,1.46,0,0,1,1.25-.61,1.43,1.43,0,0,1,1.24.61,2.9,2.9,0,0,1,0,2.94,1.46,1.46,0,0,1-1.24.61"/><path id="Fill-150" class="cls-24" d="M49.22,300.81H47.69a.48.48,0,0,1-.36-.15h0a.52.52,0,0,1-.14-.36.54.54,0,0,1,.14-.36.51.51,0,0,1,.37-.15H48v-1.73l-.07,0a.49.49,0,0,1-.62-.09.53.53,0,0,1-.14-.37.51.51,0,0,1,.29-.47l.67-.35a.68.68,0,0,1,.28-.07h.1a.53.53,0,0,1,.38.16.52.52,0,0,1,.16.38v2.5h.19a.51.51,0,0,1,.37.15.53.53,0,0,1,.15.36.51.51,0,0,1-.52.51"/><path id="Fill-151" class="cls-24" d="M48.37,303.67a.45.45,0,0,0-.41.22,2,2,0,0,0,0,1.67.48.48,0,0,0,.82,0,2,2,0,0,0,0-1.67.46.46,0,0,0-.41-.22m0,3.13a1.45,1.45,0,0,1-1.25-.6h0a2.92,2.92,0,0,1,0-2.95,1.59,1.59,0,0,1,2.49,0,2.92,2.92,0,0,1,0,2.95,1.45,1.45,0,0,1-1.24.6"/><path id="Fill-152" class="cls-24" d="M54.56,288.93H53a.51.51,0,0,1-.37-.15h0a.53.53,0,0,1,0-.72.5.5,0,0,1,.37-.15h.29v-1.73l-.08,0a.47.47,0,0,1-.61-.08.51.51,0,0,1-.15-.37.5.5,0,0,1,.3-.47l.67-.35a.55.55,0,0,1,.28-.07h.1a.55.55,0,0,1,.54.54v2.5h.19a.51.51,0,0,1,.36.14.51.51,0,0,1,.15.37.48.48,0,0,1-.15.36.49.49,0,0,1-.36.15"/><path id="Fill-153" class="cls-24" d="M53.71,291.78a.44.44,0,0,0-.41.23,1.93,1.93,0,0,0,0,1.67.47.47,0,0,0,.81,0,1.93,1.93,0,0,0,0-1.67.42.42,0,0,0-.4-.23m0,3.14a1.47,1.47,0,0,1-1.25-.61h0a2.9,2.9,0,0,1,0-2.94,1.46,1.46,0,0,1,1.25-.61,1.43,1.43,0,0,1,1.24.61,2.9,2.9,0,0,1,0,2.94,1.43,1.43,0,0,1-1.24.61"/><path id="Fill-154" class="cls-24" d="M54.56,300.81H53a.51.51,0,0,1-.37-.15h0a.52.52,0,0,1-.14-.36.54.54,0,0,1,.14-.36.51.51,0,0,1,.37-.15h.29v-1.73l-.08,0a.48.48,0,0,1-.61-.09.54.54,0,0,1-.15-.37.51.51,0,0,1,.3-.47l.67-.35a.68.68,0,0,1,.28-.07h.1a.55.55,0,0,1,.54.54v2.5h.19a.48.48,0,0,1,.36.15.49.49,0,0,1,.15.36.51.51,0,0,1-.15.37.52.52,0,0,1-.36.14"/><path id="Fill-155" class="cls-24" d="M53.71,303.67a.45.45,0,0,0-.41.22,1.93,1.93,0,0,0,0,1.67.47.47,0,0,0,.81,0,1.93,1.93,0,0,0,0-1.67.43.43,0,0,0-.4-.22m0,3.13a1.45,1.45,0,0,1-1.25-.6h0a2.92,2.92,0,0,1,0-2.95,1.59,1.59,0,0,1,2.49,0,2.92,2.92,0,0,1,0,2.95,1.45,1.45,0,0,1-1.24.6"/><path id="Fill-156" class="cls-24" d="M60,288.93H58.47a.49.49,0,0,1-.36-.15h0a.53.53,0,0,1-.15-.36.51.51,0,0,1,.51-.51h.29v-1.73l-.07,0a.47.47,0,0,1-.61-.08.51.51,0,0,1-.15-.37.5.5,0,0,1,.3-.47l.66-.35a.61.61,0,0,1,.28-.07h.11a.51.51,0,0,1,.38.16.53.53,0,0,1,.16.38v2.5H60a.52.52,0,0,1,.36.14.51.51,0,0,1,.15.37.48.48,0,0,1-.15.36.51.51,0,0,1-.36.15"/><path id="Fill-157" class="cls-24" d="M59.15,291.78a.45.45,0,0,0-.41.23,2,2,0,0,0,0,1.67.48.48,0,0,0,.82,0,2,2,0,0,0,0-1.67.44.44,0,0,0-.41-.23m0,3.14a1.44,1.44,0,0,1-1.24-.61h0a2.9,2.9,0,0,1,0-2.94,1.46,1.46,0,0,1,1.24-.61,1.42,1.42,0,0,1,1.24.61,2.84,2.84,0,0,1,0,2.94,1.42,1.42,0,0,1-1.24.61"/><path id="Fill-158" class="cls-24" d="M60,300.81H58.47a.49.49,0,0,1-.36-.15h0a.53.53,0,0,1-.15-.36.51.51,0,0,1,.15-.36.48.48,0,0,1,.36-.15h.29v-1.73l-.07,0a.48.48,0,0,1-.61-.09.5.5,0,0,1-.15-.37.51.51,0,0,1,.3-.47l.66-.35a.77.77,0,0,1,.28-.07h.11a.55.55,0,0,1,.38.16.53.53,0,0,1,.16.38v2.5H60a.51.51,0,0,1,.51.51.51.51,0,0,1-.15.37.54.54,0,0,1-.36.14"/><path id="Fill-159" class="cls-24" d="M59.15,303.67a.46.46,0,0,0-.41.22,2,2,0,0,0,0,1.67.48.48,0,0,0,.82,0,2,2,0,0,0,0-1.67.45.45,0,0,0-.41-.22m0,3.13a1.45,1.45,0,0,1-1.24-.6h0a2.92,2.92,0,0,1,0-2.95,1.58,1.58,0,0,1,2.48,0,2.86,2.86,0,0,1,0,2.95,1.44,1.44,0,0,1-1.24.6"/><path id="Fill-160" class="cls-1" d="M88.4,295.59a5,5,0,0,1-9.33,2.46.44.44,0,0,0-.38-.22H74.48l-.71-.71a.42.42,0,0,0-.27-.13H71.42a.39.39,0,0,0-.27.09l-1.28,1-2.27-2.84,2.27-2h8.8a.44.44,0,0,0,.39-.22,5,5,0,0,1,9.34,2.59"/><path id="Stroke-161" class="cls-34" d="M88.4,295.59a5,5,0,0,1-9.33,2.46.44.44,0,0,0-.38-.22H74.48l-.71-.71a.42.42,0,0,0-.27-.13H71.42a.39.39,0,0,0-.27.09l-1.28,1-2.27-2.84,2.27-2h8.8a.44.44,0,0,0,.39-.22,5,5,0,0,1,9.34,2.59Z"/><g id="Group-164"><path id="Fill-162" class="cls-1" d="M68,295.64h9a.61.61,0,0,0,.61-.61.61.61,0,0,0-.61-.61H69.6"/><path id="Stroke-163" class="cls-35" d="M68,295.64h9a.61.61,0,0,0,.61-.61.61.61,0,0,0-.61-.61H69.6"/></g><path id="Fill-165" class="cls-1" d="M87.2,295.51a1.91,1.91,0,1,1-1.91-1.9,1.91,1.91,0,0,1,1.91,1.9"/><path id="Stroke-166" class="cls-35" d="M87.2,295.51a1.91,1.91,0,1,1-1.91-1.9A1.91,1.91,0,0,1,87.2,295.51Z"/><path id="Fill-170" class="cls-2" d="M365.94,303.3c-1.43,1.52-5.74,2.89-4,4.88s6.54.11,6.54.11,3.41-2.74,3.17-3.8-.93-4.59-1.43-4.5a17.55,17.55,0,0,0-4.27,3.31"/><path id="Fill-172" class="cls-2" d="M368.5,306.31s-8.85,5.56-7.12,7.56,8.19-.9,8.19-.9,3.41-2.74,3.17-3.8-.93-4.6-1.44-4.5a19.84,19.84,0,0,0-2.8,1.64"/><path id="Fill-174" class="cls-2" d="M369,310.33s-8.05,4.89-6.32,6.88,7.39-.22,7.39-.22,3.41-2.74,3.18-3.8-.94-4.59-1.44-4.5a20,20,0,0,0-2.81,1.64"/><g id="Group-178"><g class="cls-36"><path id="Fill-176" class="cls-2" d="M369.14,314s-5.13,3.5-3.4,5.49,4.39-.84,4.39-.84,3.51-2.18,3.27-3.24-.95-3.14-1.45-3.05a20,20,0,0,0-2.81,1.64"/></g></g><path id="Stroke-179" class="cls-16" d="M364.59,309.09a72.3,72.3,0,0,0,7-4.17"/><path id="Stroke-181" class="cls-16" d="M363.53,314.56a58.26,58.26,0,0,0,9-4.69"/><path id="Stroke-183" class="cls-16" d="M365.45,318.07A41,41,0,0,0,373,314"/></svg>