<?xml version="1.0" encoding="UTF-8"?>
<!-- by Tanja Rohlfs (https://consento.org/team/tanja) - license: CC-BY-NC-SA (see: https://creativecommons.org/licenses/by-nc-sa/4.0/) -->
<svg width="500" height="500" xmlns="http://www.w3.org/2000/svg" xmlns:xlink="http://www.w3.org/1999/xlink"><defs><path d="M1.338 36.05c20.672 4.842 41.366 9.278 61.853 14.898-.056-11.742 4.071-24.018 3.841-35.011C45.805 8.462 22.054 5.319.185.205.573 12.154.971 24.1 1.338 36.05" id="a"/><path d="M1.338 36.05c20.672 4.842 41.366 9.278 61.853 14.898-.056-11.742 4.071-24.018 3.841-35.011C45.805 8.462 22.054 5.319.185.205.573 12.154.971 24.1 1.338 36.05" id="c"/><path d="M1.338 36.05c20.672 4.842 41.366 9.278 61.853 14.898-.056-11.742 4.071-24.018 3.841-35.011C45.805 8.462 22.054 5.319.185.205.573 12.154.971 24.1 1.338 36.05" id="e"/><path d="M1.338 36.05c20.672 4.842 41.366 9.278 61.853 14.898-.056-11.742 4.071-24.018 3.841-35.011C45.805 8.462 22.054 5.319.185.205.573 12.154.971 24.1 1.338 36.05" id="g"/><path d="M1.338 36.05c20.672 4.842 41.366 9.278 61.853 14.898-.056-11.742 4.071-24.018 3.841-35.011C45.805 8.462 22.054 5.319.185.205.573 12.154.971 24.1 1.338 36.05" id="i"/><path d="M1.338 36.05c20.672 4.842 41.366 9.278 61.853 14.898-.056-11.742 4.071-24.018 3.841-35.011C45.805 8.462 22.054 5.319.185.205.573 12.154.971 24.1 1.338 36.05" id="k"/><path id="m" d="M.886.299h63.502V59H.886z"/><path id="o" d="M0 .335h121.676v156.6H0z"/><path d="M.486 16.338c-.229 10.993 3.897 23.269 3.842 35.01 20.486-5.621 41.181-10.056 61.853-14.898.368-11.949.764-23.897 1.153-35.844C45.465 5.72 21.714 8.862.486 16.338" id="q"/><path d="M.486 16.338c-.229 10.993 3.897 23.269 3.842 35.01 20.486-5.621 41.181-10.056 61.853-14.898.368-11.949.764-23.897 1.153-35.844C45.465 5.72 21.714 8.862.486 16.338" id="s"/><path d="M.486 16.338c-.229 10.993 3.897 23.269 3.842 35.01 20.486-5.621 41.181-10.056 61.853-14.898.368-11.949.764-23.897 1.153-35.844C45.465 5.72 21.714 8.862.486 16.338" id="u"/><path d="M.486 16.338c-.229 10.993 3.897 23.269 3.842 35.01 20.486-5.621 41.181-10.056 61.853-14.898.368-11.949.764-23.897 1.153-35.844C45.465 5.72 21.714 8.862.486 16.338" id="w"/><path d="M.486 16.338c-.229 10.993 3.897 23.269 3.842 35.01 20.486-5.621 41.181-10.056 61.853-14.898.368-11.949.764-23.897 1.153-35.844C45.465 5.72 21.714 8.862.486 16.338" id="y"/><path d="M.486 16.338c-.229 10.993 3.897 23.269 3.842 35.01 20.486-5.621 41.181-10.056 61.853-14.898.368-11.949.764-23.897 1.153-35.844C45.465 5.72 21.714 8.862.486 16.338" id="A"/></defs><g fill="none" fill-rule="evenodd"><path fill="#FFF" d="M0 0h500v500H0z"/><path d="M180 176.981c.085-5.683 4.029-9.932 8.92-9.35l7.753.923c5.36.638 8.764 4.873 8.717 11.093" fill="#FFF"/><path d="M180 176.981c.085-5.683 4.029-9.932 8.92-9.35l7.753.923c5.36.638 8.764 4.873 8.717 11.093M180 176.982l-.164 10.965m25.561-8.553v13.689" stroke="#37B1CC" stroke-width="2.806"/><path d="M208.234 250.317c-.854 0-1.736-.185-2.627-.548l-31.1-12.704c-3.846-1.572-6.92-7.42-6.852-13.036v-28.047c.061-5.016 2.743-8.958 6.105-8.958.328 0 .661.038.994.113l33.168 7.496c5.328 1.205 7.268 8.483 6.827 15.162l-.003 32.62c-.312 4.69-2.93 7.902-6.512 7.902" fill="#37B1CC"/><path d="M173.76 185.622c-4.074 0-7.435 4.374-7.508 10.36v28.03c-.075 6.16 3.349 12.564 7.726 14.353l31.099 12.704c1.08.44 2.144.652 3.158.652 4.185 0 7.538-3.59 7.915-9.307v-32.526c.509-7.725-1.961-15.276-7.917-16.622l-33.17-7.497a5.937 5.937 0 00-1.302-.147m0 2.806c.223 0 .453.027.685.079l33.169 7.496c4.494 1.016 6.123 7.814 5.735 13.7l-.007.093v32.521c-.287 3.95-2.333 6.597-5.108 6.597-.67 0-1.375-.15-2.096-.443l-31.1-12.704c-3.645-1.49-6.035-7.262-5.98-11.754v-27.996c.05-4.185 2.16-7.59 4.702-7.59" fill="#37B1CC"/><path d="M193.145 213.859c-.098 2.769-1.864 4.495-3.919 3.883-2.024-.603-3.588-3.264-3.518-5.967.07-2.723 1.768-4.513 3.821-3.975 2.083.546 3.715 3.27 3.616 6.059" fill="#18343A"/><path d="M188.969 228.518l-.137-.046c-.628-.211-1.12-1.057-1.095-1.882l.314-10.938c.024-.85.566-1.4 1.206-1.216l.14.04c.643.185 1.149 1.039 1.122 1.896l-.353 11.024c-.027.83-.566 1.334-1.197 1.122" fill="#18343A"/><path d="M332.587 178.138c-.174-5.402-4.003-9.588-8.678-9.244l-7.467.55c-5.198.383-9.36 5.669-9.037 11.675" fill="#FFF"/><path d="M332.587 178.138c-.174-5.402-4.003-9.588-8.678-9.244l-7.467.55c-5.198.383-9.36 5.669-9.037 11.675m25.182-2.981l.337 10.499m-25.519-7.518l.625 11.653" stroke="#37B1CC" stroke-width="2.806"/><path d="M305.618 250.01c-3.988-.001-8.32-3.107-8.665-8.307l.003-32.923c-.466-7.052 3.602-13.791 8.881-14.808l32.204-6.721c.191-.037.401-.058.604-.058 2.753 0 4.975 4.16 5.168 9.676v26.89c.183 5.26-.923 11.369-4.569 12.887l-30.743 12.798a7.451 7.451 0 01-2.883.566" fill="#37B1CC"/><path d="M338.645 185.79a4.7 4.7 0 00-.892.087l-32.182 6.717c-5.915 1.14-10.53 8.475-10.019 16.186v33.016c.392 5.903 5.25 9.618 10.065 9.618a8.892 8.892 0 003.423-.674l30.743-12.798c4.218-1.756 5.645-8.094 5.432-14.183v-26.94c-.206-5.905-2.686-11.03-6.57-11.03m0 2.808c1.673 0 3.58 3.322 3.765 8.274v26.937l.001.049c.206 5.867-1.284 10.486-3.705 11.494l-30.744 12.798a6.061 6.061 0 01-2.344.458c-3.321 0-6.927-2.583-7.26-6.91v-33.011l-.006-.092c-.41-6.18 3.212-12.37 7.792-13.252l32.142-6.71a2 2 0 01.36-.035" fill="#37B1CC"/><path d="M320.352 213.574c.127 2.748 1.887 4.495 3.897 3.923 1.978-.562 3.469-3.163 3.363-5.83-.108-2.68-1.788-4.477-3.786-3.995-2.033.49-3.603 3.14-3.474 5.902" fill="#18343A"/><path d="M324.644 228.24l.136-.044c.614-.204 1.088-1.044 1.052-1.868l-.457-10.88c-.036-.842-.573-1.395-1.198-1.226l-.136.037c-.628.17-1.115 1.005-1.078 1.855l.487 10.987c.037.833.576 1.344 1.195 1.14" fill="#18343A"/><path stroke="#FF3434" stroke-width="5.498" stroke-linecap="round" stroke-linejoin="round" d="M291.335 146.419l90.886-20.029-134.351-19.846-90.301 12.76"/><path d="M290.878 146.52l-7.104-11.815c-.832-1.418-2.773-2.211-4.717-1.926l-15.903 2.325c-2.053.3-3.543 1.716-3.543 3.366v173.61l104.09-59.537 18.52-126.152m-122.61 26.79l-99.97-22.424s-2.676-12.468-3.897-15.738c-.283-.76-1.094-1.352-2.132-1.559l-23.039-4.592c-1.33-.266-2.644.467-2.644 1.477l13.22 142.198L259.61 312.08V153.181" stroke="#FF3434" stroke-width="5.498" stroke-linecap="round" stroke-linejoin="round"/><path d="M346.632 120.107l12.746-13.785a1.714 1.714 0 011.518-.53l19.987 3.421a1.522 1.522 0 011.289 1.503v15.909m-171.367-14.899l12.249-20.303a1.714 1.714 0 011.518-.53l21.405-1.144a1.522 1.522 0 011.289 1.503l-.16 14.265" stroke="#FF3434" stroke-width="5.498" stroke-linecap="round" stroke-linejoin="round"/><path d="M424.71 374.29c23.661-9.155 35.466-20.338 35.978-23.833 1.92-13.068 7.292-52.28 7.292-52.28-14.336-4.598-35.847-11.494-43.017-13.793-7.189 2.258-15.639 6.17-27.73 14.372-1.646 1.693-6.146 4.515-7.579 9.076-1.583 5.043-1.02 11.941-5.547 20.508-4.001 7.574-.484 16.827-.165 26.135.42 12.202 3.145 16.967 11.981 16.967 1.426 0 3.501-.015 4.789-.015 12.727 0 17.843 9.082 17.843-2.902 0-1.66 6.155 5.765 6.155 5.765" fill="#E0B094"/><path fill="#E0B094" d="M429.005 369.81l12.442-2.741.31 28.207-12.887 3.006-.374-.002-12.861-3.08.624-33.83 13.195 8.219"/><path d="M436.652 351.294s.186 14.301-5.32 20.805-15.51 10.737-15.51 10.737-1.5-9.158.204-8.041c1.704 1.118 15.36-22.24 15.36-22.24l5.266-1.261z" fill="#AA5D48"/><path d="M400.731 319.017c-1.254-.003-2.28 2.337-2.29 5.224-.01 2.887.998 5.234 2.251 5.238 1.254.004 2.28-2.338 2.291-5.226.011-2.886-.998-5.232-2.252-5.236" fill="#383838"/><path d="M383.94 341.13c.488-1.42.298-11.853.313-12.901-.65.878-6.105 9.2-6.63 10.383-.354.803 6.165 2.96 6.317 2.519" fill="#DF715C"/><path d="M430.044 319.055c.162-.24 8.348-3.552 8.194 6.987-.155 10.54-5.815 9.098-8.425 9.357-2.612.258.069-16.105.23-16.344" fill="#F1D5C3"/><path d="M416.107 370.032c.118-.29 5.874-.708 7.566-2.09l.237 4.63-7.884 2.223.081-4.763z" fill="#DF715C"/><path d="M353.503 380.418s-4.64-14.444-12.035-17.229c-7.996-3.012-16.363-13.672-16.35-17.314.013-2.855 2.67-4.39 5.218-3.804 3.636.836 5.664 9.895 11.529 9.135 1.303-.169 2.534-.901 3.467-2.025 4.088-4.932-1.883-11.848-7.586-8.929-2.716 1.391-5.774 2.384-7.718 1.237-4.181-2.466-3.128-6.649.243-7.385 3.37-.738 7.893-5.864 16.07-3.807 7.842 1.972-7.052-16.768-8.558-19.725-.811-1.594 1.092-4.291 2.43-4.359 2.339-.119 4.57 2.06 5.907 3.126 1.687 1.345 11.24 20.443 11.24 20.443l-8.875-16.859c-3.166-4.365.878-8.614 3.557-5.823 1.24 1.293 10.848 21.834 10.848 21.834-.658-1.761-6.58-15.708-6.417-17.824.232-.628 1.014-1.081 1.757-1.135 1.792-.133 2.82 1.238 3.353 2.955.913 2.946 6.645 17.215 6.81 18.585.166 1.371-.17 3.706-1.15 12.114.038 13.004 1.27 30.072 1.27 30.072" fill="#E0B094"/><path d="M349.1 390.073c-.137.09-4.451-1.032-6.91-.823-2.46.21-2.304 5.57-2.304 5.57l6.404 1.796 5.443-1.72-2.633-4.823z" fill="#F1D5C3"/><g transform="translate(282 362.996)"><mask id="b" fill="#fff"><use xlink:href="#a"/></mask><path d="M49.067 12.507c-6.013-1.465-10.056.322-13.576 5.036-.383.513-.605.772-1.338.602-8.72-2.016-17.64-3.851-26.406-5.893-2.05 1.702-4.094 3.408-6.144 5.11.164.418.327.922.725 1.172.037.024.022-.028.108-.005.086.024.344.08.461.11 1.305-.895 2.598-1.796 3.898-2.69-.022-.09-.03-.107-.036-.219-.005-.113.048-.407.235-.364 7.424 1.731 14.951 3.294 22.336 5.016.728.17 1.033.505 1.456 1.044.423.538.647 1.349.637 2.011-.008.661-.127 1.318-.629 1.73-.502.412-.668.559-1.465.396-2.554-.525-5.217-1.18-7.913-1.795-6.1-1.392-12.37-2.829-18.498-4.268 1.76 2.881 3.536 5.766 5.29 8.654 1.267-.785 2.29-1.495 3.608-2.436.054-.038.308-.307.947-.129 1.68.468 4.062.883 6.091 1.443.03.008.651.273.946.808.295.534 1.55 2.072 2.01 2.78 4.182 1.062 8.403 1.865 12.55 2.809.72.164 1.016.596 1.34 1.185 2.97 5.438 6.668 9.445 12.618 11.476.214.072.351.117.566.134 8.938.721 12.777-4.717 13.843-13.106.404-3.181.526-5.806-.424-9.199-1.596-5.709-7.55-10.026-13.236-11.412m10.788 19.604c-.038.016-.15-.034-.216-.042.066.008.178.058.216.042-.223 1.66-.743 3.323-1.958 4.416-1.214 1.091-2.476 1.379-4.109.966-1.633-.412-3.047-1.528-4.084-3.022-1.037-1.494-1.72-3.501-1.696-5.351.025-1.848.638-3.375 2.136-4.425 1.498-1.05 3.284-1.123 5.005-.654s3.073 1.564 3.908 3.101c.836 1.537 1.022 3.31.798 4.969" fill="#FFF" mask="url(#b)"/></g><g transform="translate(282 362.996)"><mask id="d" fill="#fff"><use xlink:href="#c"/></mask><path d="M49.096 11.655c-6.19-1.52-10.335.385-13.974 5.233-.253.34-.43.523-.961.4-8.784-2.05-17.754-3.87-26.583-5.933-2.28 1.894-4.554 3.79-6.833 5.683 2.48 4.042 4.96 8.084 7.428 12.133 1.314-.893 2.484-1.73 3.882-2.646a.854.854 0 01.693-.08c1.386.397 4.76 1.03 5.837 1.368 1.076.34.373.13.863.63.83.85 1.44 2.087 2.252 3.022 4.185 1.038 8.492 1.896 12.677 2.805.522.114.743.418.952.801 3.077 5.635 6.864 9.773 13.006 11.89.217.075.35.115.569.132 9.333.745 13.26-5.118 14.295-13.836.398-3.36.586-6.217-.452-9.778-1.706-5.853-7.794-10.385-13.651-11.824m-.777 34.435c-5.952-2.03-9.65-6.039-12.62-11.475-.323-.59-.62-1.023-1.34-1.187-4.146-.944-8.366-1.747-12.548-2.808-.46-.708-1.714-2.246-2.01-2.78-.295-.536-.917-.8-.946-.808-2.03-.56-4.413-.976-6.091-1.443-.64-.178-.894.09-.947.13-1.32.94-2.342 1.65-3.61 2.435-1.754-2.889-3.526-5.772-5.291-8.654-.166-.046-.298-.06-.471-.116-.175-.054-.257-.313-.261-.476-.003-.162.02-.276.14-.373-.24-.389-.478-.783-.72-1.173 2.049-1.702 4.093-3.409 6.143-5.11 8.767 2.042 17.686 3.877 26.407 5.892.733.17.954-.089 1.338-.6 3.522-4.715 7.56-6.502 13.576-5.037 5.688 1.385 11.636 5.704 13.236 11.412.95 3.392.826 6.017.423 9.2-1.063 8.388-4.906 13.826-13.842 13.104a2.024 2.024 0 01-.566-.133" fill="#263238" mask="url(#d)"/><path d="M49.096 11.655c-6.19-1.52-10.335.385-13.974 5.233-.253.34-.43.523-.961.4-8.784-2.05-17.754-3.87-26.583-5.933-2.28 1.894-4.554 3.79-6.833 5.683 2.48 4.042 4.96 8.084 7.428 12.133 1.314-.893 2.484-1.73 3.882-2.646a.854.854 0 01.693-.08c1.386.397 4.76 1.03 5.837 1.368 1.076.34.373.13.863.63.83.85 1.44 2.087 2.252 3.022 4.185 1.038 8.492 1.896 12.677 2.805.522.114.743.418.952.801 3.077 5.635 6.864 9.773 13.006 11.89.217.075.35.115.569.132 9.333.745 13.26-5.118 14.295-13.836.398-3.36.586-6.217-.452-9.778-1.706-5.853-7.794-10.385-13.651-11.824m-.777 34.435c-5.952-2.03-9.65-6.039-12.62-11.475-.323-.59-.62-1.023-1.34-1.187-4.146-.944-8.366-1.747-12.548-2.808-.46-.708-1.714-2.246-2.01-2.78-.295-.536-.917-.8-.946-.808-2.03-.56-4.413-.976-6.091-1.443-.64-.178-.894.09-.947.13-1.32.94-2.342 1.65-3.61 2.435-1.754-2.889-3.526-5.772-5.291-8.654-.166-.046-.298-.06-.471-.116-.175-.054-.257-.313-.261-.476-.003-.162.02-.276.14-.373-.24-.389-.478-.783-.72-1.173 2.049-1.702 4.093-3.409 6.143-5.11 8.767 2.042 17.686 3.877 26.407 5.892.733.17.954-.089 1.338-.6 3.522-4.715 7.56-6.502 13.576-5.037 5.688 1.385 11.636 5.704 13.236 11.412.95 3.392.826 6.017.423 9.2-1.063 8.388-4.906 13.826-13.842 13.104a2.024 2.024 0 01-.566-.133" stroke="#263238" stroke-width=".878" mask="url(#d)"/></g><g transform="translate(282 362.996)"><mask id="f" fill="#fff"><use xlink:href="#e"/></mask><path d="M6.795 15.948c.046.112.1.252.23.282 7.436 1.757 14.86 3.377 22.345 5.03.02.004-.14-.043.074.02.213.064.872.428 1.069.79.197.362.462.83.416 1.26-.046.428-.048.784-.432 1.067-.385.283-.511.44-1.173.295-2.563-.556-5.217-1.186-7.92-1.8a2538.157 2538.157 0 01-18.501-4.253c1.292-.897 2.596-1.795 3.892-2.69" fill="#FFF" mask="url(#f)"/></g><g transform="translate(282 362.996)"><mask id="h" fill="#fff"><use xlink:href="#g"/></mask><path d="M6.97 15.36c7.48 1.74 14.96 3.303 22.36 5.021.73.17 1.032.506 1.455 1.044.424.54.648 1.35.639 2.011-.008.663-.13 1.32-.63 1.732-.5.413-.675.556-1.465.395-2.53-.52-5.252-1.188-7.91-1.794a3005.496 3005.496 0 01-18.386-4.242c-.732-.172-.205-.044-.553-.134-.348-.088-.235-.32-.282-.479-.048-.158-.001-.324.133-.363.135-.04-.15-.064.142-.008.29.053-.19-.046.553.128 5.809 1.36 12.378 2.86 18.383 4.221 2.659.605 5.38 1.25 7.915 1.8.654.143.802-.009 1.17-.296.369-.287.428-.629.426-1.07-.002-.44-.091-.861-.438-1.264-.348-.4-.346-.598-1.351-.856-.034-.008 2.24.495-.774-.17-3.017-.665-16.231-3.558-21.23-4.783-.088-.021-.384-.218-.346-.305.036-.085-.01-.104-.035-.222-.024-.118.163-.38.225-.366" fill="#263238" mask="url(#h)"/></g><g transform="translate(282 362.996)"><mask id="j" fill="#fff"><use xlink:href="#i"/></mask><path d="M54.982 24.816c.018.004-.13-.043.06.02s-.575-.198.192.065c.768.262 2.894 1.459 3.44 2.799.544 1.339.97 2.83.715 4.29s-.667 2.772-1.758 3.785c-1.089 1.013-2.357 1.139-3.81.906-.016-.003.138.045-.056-.018-.194-.064.591.202-.192-.062-.782-.263-2.863-1.432-3.594-2.745-.73-1.311-1.556-2.986-1.46-4.61.096-1.622.56-2.825 1.901-3.795 1.341-.971 2.955-.965 4.562-.635" fill="#FFF" mask="url(#j)"/></g><g transform="translate(282 362.996)"><mask id="l" fill="#fff"><use xlink:href="#k"/></mask><path d="M55.15 24.041c-1.722-.469-3.508-.396-5.006.653-1.498 1.051-2.11 2.577-2.136 4.426-.025 1.85.66 3.857 1.696 5.351 1.037 1.494 2.451 2.61 4.084 3.022 1.632.413 2.895.125 4.11-.967 1.214-1.092 1.734-2.756 1.958-4.415-.043.013-.145-.029-.22-.045-.073-.015-.16-.043-.237-.059.076.016.164.043.237.06.075.015.177.057.22.044.223-1.659.036-3.432-.799-4.969-.835-1.538-2.187-2.632-3.908-3.1m-.2.77c.192.038.043.007.06.013 1.582.534 2.847 1.445 3.625 2.86.78 1.415.88 2.81.754 4.302-.125 1.492-.849 2.742-1.72 3.792-.873 1.05-2.938 1.046-3.639.937-.702-.11 0-.003-.175-.03-.175-.03-.035-.005-.053-.01-1.616-.54-2.81-1.416-3.782-2.806-.97-1.39-1.458-2.962-1.5-4.622-.042-1.66.76-2.783 1.861-3.805 1.103-1.022 3.594-.835 4.373-.676.78.158.003.004.196.044" fill="#263238" mask="url(#l)"/></g><g transform="translate(315 385.996)"><mask id="n" fill="#fff"><use xlink:href="#m"/></mask><path d="M43.023 59c-3.15-26.5-16.638-18.066-35.342-24.283-2.406-1.666-2.02-3.664-2.013-6.226.187-2.563-1.575-3.7-1.769-6.159.915-2.436 2.731-3.207 1.158-5.862-.689-.96 2.97-4.645 2.522-5.688-.634-1.474-6.18-4.01-6.51-5.25C-.06 1.278 4.315-.594 6.58.705c3.836 2.203 10.304 5.292 14.164 6.281 5.823 1.493 15.738 3.098 11.967.211-1.466-1.123-.25-3.222.662-3.12 11.215 1.27 21.898 25.656 31.016 51.915" fill="#E0B094" mask="url(#n)"/></g><path d="M463.763 352.226c-1.768.756-5.39 7.864-6.901 8.939-1.332.949-15.573 23.087-15.722 16.599l-.718-15.607a42.389 42.389 0 00-2.838-15.96c-4.745-12.27-13.398-38.477-16.126-46.483-.96-2.834-3.686-4.815-6.84-5.04a27.81 27.81 0 00-.767-.414c-1.14-.575-2.59-.351-4.23.384-6.988 3.11-16.598 14.2-19.964 13.188-24.41-7.335-7.622-53.48 29.104-51.605 7.738.395 11.98 8.448 18.418 5.737 17.003-7.16 41.78 9.224 42.012 27.214.124 9.669-4.118 8.567-2.248 12.363 9.272 18.826 10.309 40.635-13.18 50.685" fill="#383838"/><path d="M437.374 344.491l-.256 2.354s-.053 32.825-36.51 32.802c-33.838-.02-18.288-33.073-17.652-34.354.008-.016 14.132 4.517 28.113.344 5.489-1.639 3.719-34.3 5.179-36.878 1.417-2.483 5.688-9.79-1.63-14.084 3.153.223 5.881 2.205 6.84 5.04 3.568 10.471 11.324 33.75 15.916 44.776" fill="#383838"/><path d="M421.031 330.558c0 5.025 1.956 9.099 4.368 9.099 2.413 0 4.368-4.074 4.368-9.1 0-5.024-1.955-9.098-4.368-9.098-2.412 0-4.368 4.074-4.368 9.099" fill="#E0B094"/><path d="M381.388 354.214s4.962 2.908 9.743.3" stroke="#DF715C" stroke-width="1.319"/><path d="M396.085 329.154s1.937 4.33 5.811 4.553" stroke="#383838" stroke-width="1.238" stroke-linecap="round"/><path d="M185.419 388.474c.137.089 4.452-1.032 6.91-.823 2.459.21 2.304 5.569 2.304 5.569l-6.404 1.797-5.442-1.722 2.632-4.821zm-79.525-16.844c-29.152-4.91-36.272-16.446-36.734-20.02-1.731-13.361-2.277-57.798-2.277-57.798 12.925-4.7 32.32-11.75 38.783-14.102 6.481 2.309 14.1 6.309 25 14.695 4.547 3.497 6.712 13.423 11.106 30.453 2.135 8.27 1.165 16.997.877 26.513-.378 12.475-2.835 17.348-10.802 17.348-1.285 0-3.155-.016-4.317-.016-11.475 0-28.628-2.63-28.628-14.881 0-1.697 6.992 17.808 6.992 17.808" fill="#F1D5C3"/><path d="M127.513 315.12c1.13-.005 2.056 2.388 2.065 5.34.01 2.951-.9 5.351-2.03 5.355-1.13.003-2.056-2.39-2.065-5.342-.01-2.952.9-5.35 2.03-5.354" fill="#000"/><path d="M142.643 340.04c-.514-1.689-.464-4.36-.595-6.62-.134-2.34-.23-7.312-.294-8.544.636 1.058 2.177 4.794 3.282 7.101.95 1.986 2.73 3.953 3.264 5.365.362.956-5.497 3.222-5.657 2.697" fill="#FF3434"/><path fill="#F1D5C3" d="M102.026 367.877l-11.218-3.076-.27 31.621 11.618 3.374.338-.001 11.595-3.45-.573-37.924-11.382-6.296"/><g transform="translate(16 256.996)"><mask id="p" fill="#fff"><use xlink:href="#o"/></mask><path d="M121.675 46.832c-.976 0-13.22.096-13.01.082-.757-3.862-1.822-8.695-2.664-12.345-.464 3.698-.894 8.522-1.241 12.386l-14.575-.1c2.557 32.81 1.925 77.83-5.292 110.08H0C35.02 125.71 8.148 88.832 22.922 27.486 29.407.56 93.546-9.638 115.405 12.181c4.136 4.128 6.15 9.615 6.166 15.155.02 6.733.118 19.31.104 19.496" fill="#FF3434" mask="url(#p)"/></g><path d="M129.574 347.335c1.756 2.245 7.02 3.164 12.702 3.078" stroke="#DF715C" stroke-width=".878" stroke-linecap="round" stroke-linejoin="round"/><path d="M101.085 315.158c-.146-.246-7.525-3.632-7.388 7.144.14 10.775 5.243 9.3 7.597 9.566 2.354.264-.063-16.466-.209-16.71" fill="#F1D5C3"/><path d="M113.65 367.276c-.106-.296-5.296-.724-6.822-2.137l-.213 4.733 7.108 2.273-.073-4.869z" fill="#DF715C"/><g transform="translate(185 360.996)"><mask id="r" fill="#fff"><use xlink:href="#q"/></mask><path d="M18.451 12.907C12.765 14.293 6.812 18.61 5.215 24.32c-.95 3.393-.828 6.018-.424 9.2 1.066 8.388 4.905 13.826 13.843 13.105.215-.018.352-.062.566-.134 5.951-2.03 9.65-6.038 12.62-11.476.322-.589.62-1.022 1.34-1.186 4.145-.943 8.366-1.746 12.55-2.808.458-.708 1.713-2.246 2.008-2.78.295-.535.917-.8.946-.809 2.03-.559 4.413-.974 6.092-1.442.638-.178.892.09.946.13 1.32.94 2.342 1.65 3.61 2.434 1.752-2.887 3.528-5.772 5.288-8.653a3041.142 3041.142 0 01-18.498 4.268c-2.696.614-5.359 1.27-7.912 1.795-.797.163-.964.016-1.466-.396-.502-.412-.62-1.069-.629-1.73-.009-.662.215-1.473.637-2.012.424-.538.728-.874 1.456-1.043 7.385-1.722 14.912-3.285 22.336-5.016.187-.044.24.251.235.364-.005.111-.014.128-.036.22 1.3.892 2.593 1.793 3.898 2.69.117-.03.376-.087.462-.11.086-.024.07.028.107.003.398-.25.562-.754.725-1.17-2.05-1.703-4.093-3.409-6.144-5.11-8.765 2.041-17.685 3.875-26.405 5.892-.734.17-.956-.089-1.339-.602-3.52-4.715-7.563-6.502-13.576-5.036M7.663 32.511c-.223-1.659-.037-3.432.798-4.969.836-1.537 2.187-2.632 3.908-3.1 1.721-.47 3.507-.398 5.005.653 1.5 1.05 2.111 2.577 2.137 4.425.024 1.85-.66 3.856-1.697 5.35-1.037 1.494-2.45 2.611-4.084 3.023-1.633.413-2.894.124-4.109-.967-1.215-1.092-1.735-2.755-1.958-4.415.04.016.151-.035.217-.043-.066.008-.179.06-.217.043" fill="#FFF" mask="url(#r)"/></g><g transform="translate(185 360.996)"><mask id="t" fill="#fff"><use xlink:href="#s"/></mask><path d="M18.423 12.056c-5.856 1.439-11.945 5.97-13.651 11.824-1.037 3.56-.85 6.417-.452 9.778 1.034 8.717 4.962 14.58 14.295 13.836.22-.017.352-.058.569-.132 6.142-2.117 9.929-6.256 13.006-11.89.209-.384.43-.687.952-.801 4.185-.91 8.492-1.767 12.677-2.806.81-.935 1.422-2.173 2.252-3.022.49-.5-.213-.29.863-.63 1.076-.338 4.45-.97 5.837-1.368a.853.853 0 01.694.08c1.397.917 2.567 1.754 3.88 2.647a4326.69 4326.69 0 017.43-12.134c-2.28-1.893-4.554-3.79-6.834-5.682-8.83 2.062-17.8 3.882-26.583 5.932-.531.124-.707-.061-.961-.4-3.638-4.847-7.785-6.753-13.974-5.232M19.2 46.49c-.214.072-.35.116-.566.133-8.936.722-12.778-4.717-13.842-13.105-.403-3.182-.528-5.808.423-9.2 1.6-5.708 7.549-10.027 13.236-11.411 6.015-1.465 10.054.32 13.576 5.036.384.512.605.77 1.338.6 8.72-2.015 17.64-3.85 26.407-5.891 2.05 1.7 4.094 3.408 6.143 5.11-.242.39-.481.783-.721 1.173.12.097.145.21.14.373-.003.163-.085.422-.26.476-.173.054-.304.07-.471.116-1.764 2.882-3.537 5.764-5.29 8.653-1.27-.784-2.291-1.494-3.611-2.435-.053-.04-.307-.307-.946-.13-1.68.468-4.062.883-6.092 1.443-.03.009-.65.273-.946.808-.295.535-1.55 2.073-2.01 2.78-4.182 1.062-8.402 1.865-12.55 2.808-.72.165-1.014.597-1.338 1.187-2.971 5.437-6.668 9.444-12.62 11.476" fill="#263238" mask="url(#t)"/><path d="M18.423 12.056c-5.856 1.439-11.945 5.97-13.651 11.824-1.037 3.56-.85 6.417-.452 9.778 1.034 8.717 4.962 14.58 14.295 13.836.22-.017.352-.058.569-.132 6.142-2.117 9.929-6.256 13.006-11.89.209-.384.43-.687.952-.801 4.185-.91 8.492-1.767 12.677-2.806.81-.935 1.422-2.173 2.252-3.022.49-.5-.213-.29.863-.63 1.076-.338 4.45-.97 5.837-1.368a.853.853 0 01.694.08c1.397.917 2.567 1.754 3.88 2.647a4326.69 4326.69 0 017.43-12.134c-2.28-1.893-4.554-3.79-6.834-5.682-8.83 2.062-17.8 3.882-26.583 5.932-.531.124-.707-.061-.961-.4-3.638-4.847-7.785-6.753-13.974-5.232M19.2 46.49c-.214.072-.35.116-.566.133-8.936.722-12.778-4.717-13.842-13.105-.403-3.182-.528-5.808.423-9.2 1.6-5.708 7.549-10.027 13.236-11.411 6.015-1.465 10.054.32 13.576 5.036.384.512.605.77 1.338.6 8.72-2.015 17.64-3.85 26.407-5.891 2.05 1.7 4.094 3.408 6.143 5.11-.242.39-.481.783-.721 1.173.12.097.145.21.14.373-.003.163-.085.422-.26.476-.173.054-.304.07-.471.116-1.764 2.882-3.537 5.764-5.29 8.653-1.27-.784-2.291-1.494-3.611-2.435-.053-.04-.307-.307-.946-.13-1.68.468-4.062.883-6.092 1.443-.03.009-.65.273-.946.808-.295.535-1.55 2.073-2.01 2.78-4.182 1.062-8.402 1.865-12.55 2.808-.72.165-1.014.597-1.338 1.187-2.971 5.437-6.668 9.444-12.62 11.476" stroke="#263238" stroke-width=".878" mask="url(#t)"/></g><g transform="translate(185 360.996)"><mask id="v" fill="#fff"><use xlink:href="#u"/></mask><path d="M60.724 16.349c-.046.11-.101.252-.23.282-7.436 1.757-14.861 3.377-22.345 5.03-.021.004.139-.043-.073.02-.214.064-.873.428-1.07.79-.197.362-.462.829-.416 1.258.046.43.048.786.433 1.069.384.282.51.439 1.172.295 2.563-.557 5.217-1.187 7.92-1.801 6.1-1.385 12.373-2.814 18.5-4.252-1.291-.898-2.595-1.795-3.891-2.691" fill="#FFF" mask="url(#v)"/></g><g transform="translate(185 360.996)"><mask id="x" fill="#fff"><use xlink:href="#w"/></mask><path d="M60.548 15.76c-7.48 1.74-14.96 3.303-22.36 5.022-.73.17-1.031.505-1.454 1.043-.424.54-.648 1.35-.64 2.01.009.663.13 1.32.63 1.733.5.413.677.557 1.466.395 2.53-.52 5.252-1.188 7.91-1.794a3005.027 3005.027 0 0018.386-4.242c.732-.172.205-.044.553-.133.348-.09.235-.321.282-.48.048-.157.002-.323-.133-.363-.135-.04.15-.064-.141-.008-.291.054.189-.047-.554.128a2895.342 2895.342 0 01-18.382 4.222c-2.66.604-5.382 1.249-7.915 1.8-.654.142-.803-.01-1.171-.296-.368-.287-.427-.63-.426-1.07.002-.442.09-.863.438-1.264s.347-.598 1.35-.856c.035-.01-2.24.494.776-.171s16.23-3.557 21.23-4.782c.087-.022.383-.22.346-.305-.037-.086.008-.104.034-.222.025-.118-.162-.381-.225-.366" fill="#263238" mask="url(#x)"/></g><g transform="translate(185 360.996)"><mask id="z" fill="#fff"><use xlink:href="#y"/></mask><path d="M12.536 25.216c-.017.003.13-.043-.06.02-.189.063.575-.198-.192.064-.768.263-2.894 1.46-3.439 2.799-.544 1.34-.97 2.831-.716 4.291.255 1.46.668 2.771 1.758 3.784 1.09 1.014 2.357 1.139 3.81.906.016-.002-.137.046.057-.017.193-.065-.592.202.191-.062.783-.263 2.863-1.433 3.594-2.745.73-1.311 1.556-2.986 1.46-4.609-.096-1.624-.56-2.826-1.9-3.796-1.342-.971-2.956-.965-4.563-.635" fill="#FFF" mask="url(#z)"/></g><g transform="translate(185 360.996)"><mask id="B" fill="#fff"><use xlink:href="#A"/></mask><path d="M12.37 24.442c-1.722.468-3.074 1.563-3.909 3.1-.835 1.537-1.022 3.31-.798 4.97.043.011.145-.03.22-.047.072-.015.161-.042.236-.058-.076.017-.163.044-.237.059-.075.015-.176.059-.219.045.223 1.66.743 3.323 1.958 4.414 1.214 1.094 2.477 1.382 4.11.969 1.632-.413 3.046-1.53 4.083-3.023 1.037-1.494 1.721-3.502 1.697-5.35-.026-1.85-.638-3.376-2.137-4.427-1.498-1.05-3.284-1.122-5.005-.652m.2.768c.193-.038-.584.116.196-.043s3.27-.346 4.373.675c1.102 1.024 1.903 2.146 1.861 3.806-.042 1.66-.528 3.232-1.5 4.622-.97 1.39-2.166 2.266-3.782 2.805-.018.006.123-.02-.052.01-.175.029.526-.08-.176.03-.7.11-2.766.114-3.638-.937-.872-1.048-1.596-2.298-1.72-3.79-.126-1.492-.026-2.887.753-4.302.778-1.415 2.043-2.326 3.626-2.86.016-.006-.133.024.06-.015" fill="#263238" mask="url(#B)"/></g><path d="M168.243 388.474s4.64-14.444 12.036-17.23c7.995-3.011 16.362-13.671 16.348-17.313-.012-2.855-2.669-4.39-5.217-3.804-3.636.836-5.664 9.895-11.529 9.135-1.303-.17-2.534-.901-3.466-2.025-4.089-4.931 1.883-11.848 7.585-8.928 2.716 1.39 5.774 2.383 7.718 1.236 4.182-2.466 3.128-6.65-.243-7.385-3.37-.738-7.766-5.267-16.07-3.807-8.282 1.456 5.218-17.811 7.71-19.6 2.2-1.576-.244-4.416-1.582-4.484-2.338-.12-4.57 2.06-5.906 3.126-1.687 1.345-11.242 20.443-11.242 20.443l8.876-16.86c3.166-4.364-.878-8.613-3.557-5.822-1.24 1.293-10.848 21.835-10.848 21.835.658-1.762 6.58-15.71 6.418-17.825-.232-.628-1.014-1.081-1.757-1.135-1.793-.133-2.822 1.239-3.354 2.956-.912 2.945-6.645 17.214-6.81 18.584-.165 1.37.17 3.706 1.151 12.114-.039 13.004-1.27 30.072-1.27 30.072m23.261 61.639c3.151-26.5 16.638-18.066 35.342-24.284 2.407-1.665 2.021-3.663 2.013-6.225-.187-2.563 1.575-3.7 1.77-6.159-.916-2.436-2.732-3.207-1.159-5.863.69-.96-2.969-4.644-2.52-5.687.632-1.474 6.18-4.01 6.508-5.25 1.131-4.254-3.245-6.126-5.509-4.827-3.837 2.202-10.305 5.291-14.165 6.281-5.823 1.493-15.738 3.098-11.967.21 1.466-1.122.25-3.222-.66-3.119-11.217 1.27-21.899 25.656-31.018 51.915" fill="#F1D5C3"/><path d="M211.94 395.179s-6.185 1.698-8.866 2.39" stroke="#E5B79E" stroke-width=".878"/><path d="M165.103 337.64c.501-3.462 5.311-13.358 8.512-17.94" stroke="#E5B79E" stroke-width=".734"/><path d="M157.603 338.68s-1.377.116-1.126 2.137m8.511-1.916s-1.377.115-1.126 2.136" stroke="#E5B79E" stroke-width=".891"/></g></svg>