<?xml version="1.0" encoding="UTF-8"?>
<!-- by Tanja Rohlfs (https://consento.org/team/tanja) - license: CC-BY-NC-SA (see: https://creativecommons.org/licenses/by-nc-sa/4.0/) -->
<svg width="900" height="600" xmlns="http://www.w3.org/2000/svg" xmlns:xlink="http://www.w3.org/1999/xlink"><defs><path id="a" d="M.166.945h74.352v54.172H.166z"/><path id="c" d="M.411.593h37.665v15.932H.411z"/><path id="e" d="M0 .532h46.192v95.25H0z"/></defs><g fill="none" fill-rule="evenodd"><path fill="#FFF" d="M0 0h900v600H0z"/><path d="M798.21 133v24h-1.96a5.42 5.42 0 001.26-2.98l.171-1.67.107-1.104c-2.076 1.624-5.304 3.276-9.86 3.276-4.542 0-7.598-1.085-9.97-2.18l.151 1.489.018.189a5.43 5.43 0 001.268 2.98h-2.184v-24h21z" fill="#F4D9CE"/><path d="M773.47 537.08c.248.652.045 12.526.045 12.526s-34.985.989-40.872.12c-2.68-.397 2.861-4.956 5.55-5.34 15.432-2.212 17.183-5.456 21.731-7.734 10.451-5.233 13.296-.226 13.545.428m28.845-.98c-.247.653.045 12.525.045 12.525s34.992.785 40.873-.12c2.675-.41-2.898-4.937-5.592-5.306-15.446-2.12-17.222-5.355-21.786-7.606-10.488-5.173-13.297-.146-13.54.506" fill="#383838"/><path d="M786.34 310.9c0 .008-.009.008-.009.008v.019c.017-.02.045-.036.062-.055a.99.99 0 01-.053.027m-44.833-3.436l-.08 1.406c.016-.471.045-.935.08-1.406" fill="#C7C7C7"/><path d="M788.28 310.926c-.884-.66-1.937-.348-2.43.588.095-.347.193-.74.562-.881 0-.01.008-.02.008-.028.607-.283 1.39-.195 1.86.321" fill="#C7C7C7"/><path d="M788.592 311.718a2.479 2.479 0 01-.312-.792c.125.232.232.507.312.792" fill="#C7C7C7"/><path d="M831.439 273.845c-1.352-4.71-.987-18.618-4.442-20.95l-80.157.266c-1.585.18-1.487 1.8-1.808 2.895-11.902 91.871-14.083 192.922 13.719 281.206l13.586.177c-2.93-71.67-4.603-148.85 14.84-220.504 18.472 71.75 21.526 146.244 15.071 219.534-.106 1.969 13.96.099 14.894.58 26.813-82.943 21.33-176.818 14.297-263.204" fill="#69BAC9"/><path d="M744.134 277.708a720.082 720.082 0 00-.525 4.576c.023-.136.486-4.44.525-4.576m.676-5.431a189.842 189.842 0 01-.624 5.013c.193-1.675.406-3.348.624-5.013m85.73 9.643c-.893-6.594-1.892-13.2-3.16-19.721 1.308 6.527 2.344 13.118 3.16 19.72m.989 8.859a299.554 299.554 0 00-.748-6.864c.285 2.288.524 4.576.748 6.864" fill="#C7C7C7"/><path d="M840.417 282.196c-.134.054-.267.116-.41.17-.214.087-.436.177-.659.275h-.008a85.413 85.413 0 01-6.998 2.476c-.16.053-.33.097-.498.151l.293-2.698.062-.544.018-.115.028-.25.018-.23.516-4.648.044-.374v-.027l.036-.302.48-4.39.161-1.451.061-.587c.829-.143 1.674-.41 2.521-.785 7.842-3.445 15.988-16.692 15.872-41.505-.072-15.385-10.576-26.478-21.17-31.776a37.348 37.348 0 00-5.742-2.324c-.008.161-.018.33-.018.49v.018c-.017 2.155 3.365 39.397 5.128 62.42.49 6.446.863 11.77.988 14.904.01.116-.053.223-.169.33-.187.177-.516.338-.97.498-.24.08-.525.16-.837.24-.01 0-.027.009-.045.009-11.591 2.893-69.74 3.321-84.385.748-.499-.08-.935-.168-1.326-.267a3.778 3.778 0 01-.383-.098 4.363 4.363 0 01-.4-.116c-.01-.008-.019-.008-.028-.008-.455-.143-.782-.295-.988-.455-.143-.115-.223-.23-.231-.356-.233-3.721-.143-9.18.124-15.41.925-21.155 3.989-51.168 3.943-52.093.286-3.794.303-7.373.162-10.862a19.27 19.27 0 00-2.235.49c-.018 0-.028 0-.046.008a21.03 21.03 0 00-1.485.445c-.178.063-.357.117-.535.179-12.071 4.273-26.734 18.118-27.882 32.567-2.182 27.413 9.891 40.786 18.393 42.299l.044.383.018.195.017.17.427 3.83.01.131.036.303.008.046v.008l.036.373.018.135.542 4.931.018.206.026.205.046.39.329 3.055.026.196.02.177.052.447.044.435c-.862-.258-1.7-.525-2.527-.81-40.293-13.399-42.68-46.448-38.567-68.875 4.924-26.852 40.418-50.455 44.807-53.384.321-.213.649-.409.997-.578 6.8-3.321 15.218-7.516 22.525-9.36 2.04-.516 4.334.199 6.069-.095 3.57-.624 6.33-.747 7.603-.17.151.055.285.134.392.224.72.587 1.602 1.077 2.546 1.495.284.124.588.241.89.357l.018.186a5.392 5.392 0 001.256 2.957c.265.319.57.614.917.871l7.317 5.45v2.492h.213v-2.493l7.328-5.449c.347-.257.649-.552.916-.871a5.37 5.37 0 001.246-2.957l.17-1.655c.186-.126.356-.26.525-.383.036-.028.062-.054.098-.081.588-.471 1.665-.623 3.116-.49 1.896.17 4.416.81 7.309 1.8 1.236.426 3.307-.217 4.66.335 5.67 2.299 11.381 6.716 17.044 10.312 12.605 6.607 37.693 25.5 42.535 51.896 3.89 21.252 1.96 52.03-32.52 66.614" fill="#E58585"/><path d="M762.717 285.517s-5.79 12.523-12.522 16.429l12.522-16.429zm46.842 0s5.79 12.523 12.522 16.429l-12.522-16.429z" fill="#666"/><path d="M830.792 195.601c-.018-.085-7.048-16.003-7.048-16.003s1.262 14.139 1.275 14.167c.587.061 4.36 1.199 5.773 1.836m-91.404-.533c.018-.085 7.047-16.003 7.047-16.003s-.648 14.087-.761 14.089c-.587.06-4.873 1.276-6.286 1.914" fill="#883434"/><path d="M786.807 280.772c35.05 0 45.165-5.926 45.165-5.926l-1.366-12.523s-8.75 5.596-43.799 5.596h-1.099c-35.048 0-44.407-5.828-44.407-5.828l-.305 12.693s9.664 5.988 44.712 5.988h1.1z" fill="#2B5165"/><path d="M792.36 282.203h-8.77a1.109 1.109 0 01-1.109-1.108v-13.928c0-.613.497-1.11 1.108-1.11h8.77a1.11 1.11 0 011.109 1.11v13.928c0 .612-.496 1.108-1.109 1.108" fill="#C7C7C7"/><path d="M787.974 85.119h27.2s-.222 46.182 0 46.553c.223.37-8.519 5.93-27.2 5.93-18.68 0-27.423-5.56-27.2-5.93.222-.37 0-46.553 0-46.553h27.2z" fill="#F4D9CE"/><path d="M776.578 101.23c0 2.424-1.015 4.39-2.266 4.39-1.253 0-2.267-1.966-2.267-4.39 0-2.423 1.014-4.39 2.267-4.39 1.251 0 2.266 1.967 2.266 4.39m27.248 0c0 2.424-1.015 4.39-2.267 4.39-1.251 0-2.266-1.966-2.266-4.39 0-2.423 1.015-4.39 2.266-4.39 1.252 0 2.267 1.967 2.267 4.39" fill="#383838"/><path d="M779.015 126.312c0 2.248 17.942 2.248 17.942 0" fill="#E58585"/><path d="M779.015 126.312c0 2.248 17.942 2.248 17.942 0" stroke="#E58585" stroke-linecap="round" stroke-linejoin="round"/><path d="M787.408 111.298c.252-.771.881-.771 1.133 0l.906 2.78.91 2.779c.25.771-.064 1.734-.568 1.734h-3.63c-.502 0-.818-.963-.566-1.734l.908-2.779.907-2.78z" fill="#E58585"/><path d="M787.408 111.298c.252-.771.881-.771 1.133 0l.906 2.78.91 2.779c.25.771-.064 1.734-.568 1.734h-3.63c-.502 0-.818-.963-.566-1.734l.908-2.779.907-2.78z" stroke="#E58585" stroke-linecap="round" stroke-linejoin="round"/><g transform="translate(744.025 48)"><mask id="b" fill="#fff"><use xlink:href="#a"/></mask><path d="M1.462 16.198S-6.29 37.119 16.123 37.119H68.03v17.998h6.488V25.854c0-6.33-2.494-12.47-7.136-16.774C62.788 4.818 55.447.944 43.948.944c-22.356 0-29.477 10.84-30.908 13.55-.422.802-.95 1.552-1.637 2.144-1.692 1.46-4.988 2.972-9.941-.44" fill="#2B5165" mask="url(#b)"/></g><path fill="#2B5165" d="M756.192 103.118h6.635V75.595h-6.635z"/><path d="M762.149 103.7c0 3.786.074 9.545-2.895 9.545-2.968 0-7.856-5.759-7.856-9.546 0-3.787 2.405-6.858 5.375-6.858 2.969 0 5.376 3.071 5.376 6.858m50.445.001c0 3.786-.075 9.545 2.894 9.545 2.969 0 7.857-5.759 7.857-9.546 0-3.787-2.406-6.858-5.376-6.858-2.969 0-5.375 3.071-5.375 6.858m-14.837 47.398l-.108 1.095-.17 1.656a5.37 5.37 0 01-1.245 2.957c-.267.32-.57.613-.916.872l-7.328 5.449v2.492h-.213v-2.492l-7.319-5.45a5.463 5.463 0 01-.917-.871 5.39 5.39 0 01-1.254-2.957l-.018-.187-.152-1.477c2.35 1.086 5.377 2.163 9.873 2.163 4.514 0 7.71-1.639 9.767-3.25" fill="#F4D9CE"/><path d="M780.459 157.676l7.317 5.45v2.492c-.15 0-.302 0-.453-.008-2.813-.028-5.323-.25-7.576-.615-4.113-.667-7.345-1.808-9.882-3.142-6.179-3.251-8.234-7.604-8.725-8.868a4.204 4.204 0 01-.123-.365c.275-.09 5.279-1.968 9.027-2.564.943-.143 1.815-.214 2.51-.152.569.054 1.12.214 1.709.437.944.365 1.95.907 3.116 1.486.24.115.48.24.74.356l.15 1.478.017.187a5.392 5.392 0 001.256 2.957c.267.32.57.614.917.871m32.254-3.685s-.028.187-.108.516c-.365 1.29-1.727 4.746-6.64 7.461-2.377 1.318-5.591 2.457-9.919 3.099-2.225.329-4.743.534-7.602.55h-.454v-2.492l7.328-5.449c.347-.257.648-.552.915-.872a5.37 5.37 0 001.247-2.956l.17-1.655.106-1.096c.152-.116.285-.232.419-.338 1.683-1.415 2.466-2.715 2.466-2.715l.044.017.472.232 7.816 3.856 3.74 1.842z" fill="#92E0EA"/><path d="M808.973 152.148l-.275.89-2.734 8.93-4.914 16.07-5.004-12.972-.702-1.816-6.9 2.368h-.47l.016-2.492 7.328-5.45c.346-.258.649-.551.916-.872a5.362 5.362 0 001.246-2.955l.17-1.657.107-1.095.418-4.167 2.466 1.114.044.017.455.213 2.038.919 5.795 2.955z" fill="#69BAC9"/><path d="M795.344 163.25s11.771-16.32 2.83-16.32" stroke="#92E0EA"/><path d="M787.99 163.125l-.018 2.493-.65-.008-6.9-2.36-.675 1.745-5.03 13.044-4.853-16.186-3.026-10.096-.168-.562 3.373-1.14 2.546-.863 2.038-.917 2.751-1.246.214-.099.526 5.253.151 1.478.018.187a5.39 5.39 0 001.254 2.957c.268.32.57.613.917.871l7.532 5.45z" fill="#69BAC9"/><path d="M780.426 163.25s-11.77-16.32-2.831-16.32" stroke="#92E0EA"/><path d="M741.976 288.108c1.36 1.21 2.629 3.024 3.084 4.634.126.442-.059 2.335-1.019 1.908-1.046-.465-1.779-1.688-2.792-2.29-.845-.5-1.69-.99-2.57-1.437-.63-.32-1.283-.595-1.91-.913-2.18-1.109-8.255-4.257-4.934-7.015l10.141 5.113z" fill="#F4D9CE"/><path d="M732.653 279.841c-.574.518-1.407 2.11-.97 2.696 1.225 1.63 3.83 2.325 5.656 3.136 2.387 1.062 4.491 2.357 6.683 3.659.992.586 3.76 2.703 4.624 1.692 1.709-1.998-2.703-6.735-3.346-7.308l-12.647-3.875z" fill="#F4D9CE"/><path d="M735.806 284.906c-1.176-.478-2.898-1.092-3.787-1.977-.194.037-.184.066-.34.2 1.596 1.591 4.073 2.222 6.148 3.151.838.375 1.227.474 3.378 1.522.492.24.785.348.815.342-1.491-1.167-4.894-2.734-6.214-3.238" fill="#E2C3B5"/><path d="M732.376 274.301c-.37.404-.707 1.017-1.003 1.985-.324 1.063.064 2.43.937 3.402.782.872 3.182 1.033 4.402 1.302 2.881.637 5.927 1.583 8.438 2.825.628.31 3.193 2.357 4.41.389.971-1.567-2.869-5.032-4.447-5.71l-12.737-4.193z" fill="#F4D9CE"/><path d="M744.217 283.354c-.95-.417-1.268-.557-2.275-.937-1.981-.727-3.44-1.41-5.528-1.837-1.117-.21-2.28-.197-3.363-.526a6.541 6.541 0 00-.477-.137c-.007.02.008-.048-.14.157.027.026.146.1.175.124.613.477 1.04.565 1.812.731 1.559.262 3.122.554 4.632.995 2.42.696 6.25 2.135 6.669 2.251l.041.006c-.516-.223-1.155-.602-1.546-.827" fill="#E2C3B5"/><path d="M741.128 269.318c0-.582.05-.933.022-.93-1.083.072-.818.096-1.894.205-1.976.203-4.801.176-6.667.809-1.243.42-2.175 2.277-1.746 3.419.41 1.09 2.615 2.067 3.746 2.353 3.684.931 7.56 2.316 11.154 3.513 1.28.428 4.234 1.409 4.63 1.12 3.574-2.617-9.31-6.389-9.31-7.803 0-.991.065-2.686.065-2.686" fill="#F4D9CE"/><path d="M733.938 274.604c-.398-.15-1.198-.149-1.57-.35-.096.17-.093.14-.19.29.527.29 1.095.538 1.606.742 3.52.963 9.424 2.938 11.364 3.205-.018-.22-6.775-2.675-11.21-3.887m7.417-2.164c-.164 0-1.117-.481-2.071-.796-1.384-.456-3.846-.986-4.683-.773l.385-.233c1.006-.26 2.71-.176 4.992.577.49.163.734.431.973.683l.274.418c-.012 0 .142.125.13.125" fill="#E2C3B5"/><path d="M830.42 287.062c-1.36 1.209-2.627 3.024-3.085 4.634-.125.442.061 2.335 1.02 1.908 1.047-.465 1.778-1.688 2.792-2.29a46.3 46.3 0 012.57-1.437c.63-.32 1.282-.595 1.909-.913 2.181-1.109 8.256-4.257 4.935-7.015l-10.141 5.113z" fill="#F4D9CE"/><path d="M839.744 278.795c.574.518 1.407 2.11.968 2.696-1.223 1.63-3.828 2.325-5.654 3.136-2.388 1.061-4.492 2.357-6.684 3.658-.992.587-3.759 2.704-4.623 1.693-1.71-1.998 2.703-6.735 3.346-7.308l12.647-3.875z" fill="#F4D9CE"/><path d="M836.59 283.86c1.176-.478 2.898-1.092 3.786-1.977.195.037.185.066.34.2-1.595 1.591-4.072 2.222-6.146 3.151-.837.375-1.228.474-3.38 1.522-.49.24-.784.348-.814.341 1.491-1.166 4.893-2.733 6.214-3.237" fill="#E2C3B5"/><path d="M840.02 273.255c.37.404.708 1.016 1.002 1.984.325 1.063-.063 2.43-.936 3.403-.782.872-3.183 1.033-4.402 1.301-2.882.638-5.926 1.584-8.438 2.826-.629.31-3.193 2.356-4.41.388-.972-1.567 2.87-5.031 4.446-5.71l12.738-4.192z" fill="#F4D9CE"/><path d="M828.179 282.308c.951-.417 1.268-.558 2.275-.938 1.981-.727 3.44-1.408 5.528-1.837 1.117-.209 2.28-.197 3.363-.526.247-.075.435-.13.477-.136.007.02-.008-.048.14.157-.027.026-.147.1-.175.124-.613.476-1.04.564-1.813.731-1.558.262-3.121.554-4.63.994-2.42.697-6.251 2.136-6.67 2.252l-.04.005c.515-.223 1.154-.601 1.545-.826" fill="#E2C3B5"/><path d="M831.416 268.267c0-.582-.095-.92-.067-.919 1.082.073.716.09 1.79.2 1.977.202 4.802.175 6.667.807 1.245.422 2.175 2.279 1.747 3.419-.412 1.09-2.616 2.067-3.746 2.353-3.684.931-7.56 2.317-11.152 3.515-1.282.426-4.236 1.408-4.63 1.12-3.575-2.617 8.999-6.389 9.325-7.766.242-1.02.066-2.73.066-2.73" fill="#F4D9CE"/><path d="M838.458 273.558c.397-.15 1.197-.15 1.57-.35.097.17.093.14.19.289-.527.29-1.095.538-1.606.742-3.521.964-9.424 2.939-11.364 3.206.018-.22 6.774-2.676 11.21-3.887m-7.417-2.163c.164 0 1.117-.482 2.071-.798 1.385-.456 3.847-.986 4.684-.772l-.385-.233c-1.007-.26-2.711-.176-4.993.577-.49.162-.733.431-.973.683l-.274.417c.012.002-.142.126-.13.126" fill="#E2C3B5"/><path fill="#D6948B" d="M777.379 136.949l-.044 3.916 20.84-1.05v-2.817z"/><path d="M81.61 258.46c-.229 1.216-1.852 4.903-1.852 4.903l-1.154 5.067-3.284-.95s.296-2.492.191-2.671c-.122-.22.053-.689.07-.91l.035-.261c.036-1.088 1.031-1.887 1.678-2.768.385-.606.471-1.28.507-1.941.052-1.047-.122-2.094-.454-3.099-.245-.647-.875-1.225-.875-1.914.14-.427.752-.592 1.259-.578 1.625.027 3.233.922 3.705 2.162.254.782.404 1.744.174 2.96m73.873.274c.23 1.216 1.852 4.902 1.852 4.902l1.154 5.068 3.286-.95s-.298-2.493-.193-2.672c.122-.22-.052-.688-.07-.909l-.035-.261c-.034-1.088-1.031-1.887-1.677-2.768-.385-.606-.472-1.28-.507-1.942-.052-1.046.122-2.093.455-3.098.244-.647.873-1.226.873-1.914-.14-.427-.75-.592-1.259-.579-1.625.028-3.231.923-3.704 2.162-.253.782-.403 1.745-.175 2.961" fill="#F1D5C3"/><path d="M177.498 209.345s-3.161.404-3.581.536c-.617.193.213-5.898.213-5.898l4.307 5.21-.939.152zm6.499-26.467s2.885-.506 3.265-.645c.559-.203.13 5.14.13 5.14l-4.251-4.315.856-.18z" fill="#2B5165"/><path d="M156.865 227.835l-38.14.124-38.1.124s-2.756-14.075-4.115-14.063c-1.36.013-4.037 14.137-4.037 14.137l-8.233.082s-.76-10.512-.146-44.373c.317-17.365 14.366-23.417 12.14-54.339-4.089-56.811 18.35-65.504 30.96-67.748 5.675-1.009 16.335-1.043 22.02-.071 12.623 2.16 35.118 10.706 31.4 67.545-.291 4.454-.249 8.39.039 11.915 1.71 20.972 12.087 27.48 12.453 42.343.836 33.856.145 44.372.145 44.372l-8.235-.027s-2.769-14.107-4.126-14.11c-1.36-.004-4.025 14.089-4.025 14.089" fill="#FF3434"/><path d="M156.865 227.835l-38.14.124-38.1.124s-2.756-14.075-4.115-14.063c-1.36.013-4.037 14.137-4.037 14.137l-8.233.082s-.76-10.512-.146-44.373c.317-17.365 14.366-23.417 12.14-54.339-4.089-56.811 18.35-65.504 30.96-67.748 5.675-1.009 16.335-1.043 22.02-.071 12.623 2.16 35.118 10.706 31.4 67.545-.291 4.454-.249 8.39.039 11.915 1.71 20.972 12.087 27.48 12.453 42.343.836 33.856.145 44.372.145 44.372l-8.235-.027s-2.769-14.107-4.126-14.11c-1.36-.004-4.025 14.089-4.025 14.089z" stroke="#FF3434" stroke-linecap="round" stroke-linejoin="round"/><path d="M105.63 149.464c.134 0 24.965-.076 25.34 0 .374.075-2.727 3.415-2.727 3.415s-13.738 1.305-13.925 1.23c-.187-.075-9.008-4.093-9.008-4.093l.32-.552zm-46.54 59.789s3.467.44 3.928.584c.676.21-.13-6.096-.13-6.096l-4.827 5.344 1.03.168zm-6.1-26.173s-2.887-.505-3.267-.644c-.557-.203-.13 5.14-.13 5.14l4.253-4.315-.857-.18z" fill="#2B5165"/><g transform="translate(68.554 535.413)"><mask id="d" fill="#fff"><use xlink:href="#c"/></mask><path d="M37.964 3.406c.226.658.041 12.637.041 12.637s-31.626.998-36.95.12c-2.42-.398 2.588-5 5.018-5.386 13.951-2.23 15.536-5.506 19.646-7.802 9.449-5.28 12.02-.229 12.245.43" fill="#E26666" mask="url(#d)"/></g><path d="M132.595 537.83c-.223.659.041 12.636.041 12.636s31.634.792 36.95-.12c2.42-.414-2.62-4.98-5.055-5.353-13.963-2.14-15.57-5.404-19.694-7.675-9.483-5.219-12.022-.148-12.242.511" fill="#E26666"/><path d="M173.439 202.935c-12.537-18.148 10.166-19.514 10.166-19.514s12.666 10.347 19.639 29.006c8.597 23.007 8.034 56.035-41.695 66.386l1.66-14.824c8.718-1.492 30.644-12.575 23.134-37.707-3.635-12.161-6.612-14.239-12.904-23.347M89.121 99.609c-.134-.165-6.927-2.43-6.808 4.795.12 7.224 4.82 6.23 6.987 6.407 2.167.174-.044-11.038-.179-11.202m59.283-.194c.132-.165 6.91-2.473 6.839 4.751-.073 7.224-4.78 6.261-6.947 6.451-2.164.19-.026-11.037.108-11.202m-30.252 38.057c-19.542-3.29-24.314-11.024-24.624-13.42C92.368 115.095 92 85.305 92 85.305l25.998-9.453 26.064 9.284s-.174 29.791-1.274 38.756c-.292 2.38-4.951 10.054-24.13 13.509-.136.023-.507.071-.507.071" fill="#F1D5C3"/><path d="M104.415 99.684c1.17-.004 2.124 1.599 2.131 3.578.007 1.978-.938 3.588-2.108 3.592-1.17.003-2.126-1.6-2.133-3.579-.005-1.978.94-3.587 2.11-3.59m29.086-.095c1.17-.005 2.125 1.598 2.131 3.577.007 1.979-.937 3.588-2.108 3.593-1.17.002-2.126-1.6-2.133-3.58-.006-1.978.94-3.588 2.11-3.59" fill="#000"/><path d="M118.271 116.282c-.53-.147-1.586-.44-1.73-1.111-.2-.928.257-2.99.528-4.462.287-1.546.989-4.015 1.187-4.82.203.803.921 3.268 1.219 4.812.28 1.472.75 3.528.556 4.459-.14.67-1.194.972-1.721 1.122h-.039z" fill="#FF3434"/><path d="M75.16 269.996a87.316 87.316 0 00-4.38-1.405c-.646-.261-1.28-.592-1.83-1.019-.414-.317-.758-.757-.717-1.28.028-.813.427-1.653 1.13-2.162.44-.262 1.817-.84 2.34-.923 1.005.303 1.914.51 2.727.647l.082.702.042.303v.014l.605 5.123zm-5.591-1.626a5.22 5.22 0 01-.468-.275.354.354 0 01.33-.11c.29.096.317.248.234.427v.014a.222.222 0 01-.096-.055m5.632 1.941l-1.308-.454c.427.138.867.275 1.294.427l.014.027zm-4.558-1.074c1.308.372 2.975.895 4.6 1.418l.523 4.448c-.854-.33-1.722-.633-2.74-.854-1.02-.192-2.093-.275-3.016-.73-.386-.178-.62-.523-.826-.867-.344-.606-.537-1.308-.468-1.997.082-.564.303-1.115.564-1.638.042-.097.124-.207.207-.317.385.206.785.372 1.156.537" fill="#F1D5C3"/><g transform="translate(30 182.888)"><mask id="f" fill="#fff"><use xlink:href="#e"/></mask><path d="M46.192 95.783c-1.955-.4-3.828-.826-5.632-1.295-.068-.013-.151-.027-.22-.055a4.581 4.581 0 01-.413-.11h-.014c-.303-.069-.578-.151-.88-.234l-.455-.124C-3.652 82.205-3.942 51.47 4.044 29.657 8.464 17.58 15.28 8.96 19.562 4.361a61.37 61.37 0 012.203-2.259C22.84 1.07 23.486.532 23.486.532s.07 0 .18.014c1.074.083 6.65.634 10.382 3.401 3.635 2.686 5.535 7.45-.18 15.905l-.082.124c-.29.427-.565.84-.854 1.226a8.981 8.981 0 01-.482.702c-1.184 1.694-2.244 3.14-3.208 4.476h-.014c-3.387 4.71-5.631 8.248-8.192 17.02C14.536 65.722 31.073 76.862 41 80.112a.392.392 0 00-.179 0c-.578.11-1.157.248-1.694.496-1.087.66-1.72 1.983-1.555 3.18.151.73.688 1.268 1.335 1.695-.22.289-.385.605-.51.936-.44.978-.523 2.107-.082 3.112l.041.11c.22.44.469.895.84 1.24.083-.097.18-.18.29-.18.027-.013.055-.013.082-.013.014 0 .014 0 .028.014l.027-.028 2.905.936h.014c.276.055.537.097.744.152.826.193 1.666.413 2.506.66l.027.249.014.11.358 3.002z" fill="#F1D5C3" mask="url(#f)"/></g><path fill="#F1D5C3" d="M118.053 136.776l-8.508-1.882-.22 19.4 8.812 2.064.256-.001 8.794-2.122-.347-19.398-8.493 1.938z"/><path d="M118.695 258.088s-36.73.625-36.972-3.256c-.917-14.667 5.177-58.524 5.177-58.524s-24.74 18.046-24.052 12.709c.84-6.492-7.923-22.12-13.228-26.024-2.783-2.046 51.2-38.473 58.125-32.951 3.43 2.733 10.607 3.192 10.607 3.192s7.177-.506 10.589-3.263c6.887-5.566 61.108 30.509 58.337 32.573-5.279 3.937-13.832 19.927-12.951 26.413.724 5.332-24.24-12.856-24.24-12.856s5.156 43.588 4.335 58.26c-.217 3.882-35.727 3.727-35.727 3.727" fill="#69BAC9"/><path d="M154.911 252.094c-1.813.6-77.769-3.387-74.093 3.195-8.523 46.558-6.65 94.341-6.292 141.464 1.776 47.536 3.456 96.89 18.23 142.14l.469.11 12.268.178c.799-.069 1.294-.647 1.253-1.446-6.54-73.644-3.897-148.707 12.158-221.016 16.703 72.391 19.457 147.592 13.632 221.485-.096 1.983 12.613.096 13.467.592 18.464-55.22 17.06-117.421 17.955-175.767-1.474-36.533 1.5-76.33-9.047-110.935" fill="#2B5165"/><path d="M78.048 281.399c1.23 1.147 2.375 2.868 2.788 4.395.113.42-.055 2.215-.923 1.811-.946-.44-1.608-1.601-2.523-2.173a41.06 41.06 0 00-2.325-1.364c-.567-.302-1.158-.564-1.724-.865-1.971-1.052-7.464-4.038-4.46-6.654l9.167 4.85z" fill="#F1D5C3"/><path d="M84.082 284.166c-.785.964-3.29-1.047-4.186-1.612-.606-.371-1.212-.757-1.817-1.129-.056-.027-.11-.069-.166-.096-.11-.069-.22-.138-.344-.22-.138-.083-.29-.166-.44-.262-1.047-.62-2.121-1.226-3.278-1.763-.316-.151-.66-.289-1.019-.44-.977-.4-2.037-.827-2.905-1.433h-.014a7.743 7.743 0 01-.495-.371 4.204 4.204 0 01-.675-.73c-.33-.455.138-1.584.606-2.231.069-.096.137-.179.206-.248l.042-.041.027-.028 2.905.937h.014l3.277 1.06 1.86.592 2.491.799c.014.014.028.014.042.027l.84.262c.082.069.22.22.413.427v.014c.014 0 .014.013.027.013 1.157 1.309 3.91 4.848 2.589 6.473m-14.416-15.74a.222.222 0 01-.097-.055l.097.041v.014z" fill="#F1D5C3"/><path d="M69.624 273.562l2.905.936c-.867-.151-1.955-.316-2.67-.688h-.015a1.474 1.474 0 01-.289-.18c-.027-.013-.041-.027-.069-.04.028-.014.056-.014.083-.014.014 0 .014 0 .028.014l.027-.028" fill="#F1D5C3"/><path d="M84.908 277.693c-.867 1.474-2.492.579-3.415 0-.013 0-.013-.014-.027-.014v-.013c-.248-.152-.44-.276-.55-.345a16.826 16.826 0 00-.703-.344c-.014-.014-.028-.014-.041-.027a30.681 30.681 0 00-2.465-1.006c-.633-.22-1.267-.44-1.914-.633l-.028-.207c-.853-.33-1.72-.633-2.74-.853-1.019-.193-2.093-.276-3.015-.73-.386-.18-.62-.524-.826-.868-.345-.606-.537-1.308-.468-1.997.082-.564.302-1.115.564-1.638.041-.097.124-.207.207-.317.385.207.784.372 1.156.537 1.308.372 2.974.895 4.6 1.418l-.042-.344 3.084 1.074 2.575.882a.043.043 0 00.028.013c1.418.634 4.888 3.925 4.02 5.412" fill="#F1D5C3"/><path d="M69.569 268.37a5.22 5.22 0 01-.468-.275.354.354 0 01.33-.11c.29.096.317.248.234.427v.014a.222.222 0 01-.096-.055" fill="#E5B79E"/><path d="M69.666 268.412v.014a.222.222 0 01-.097-.055 5.22 5.22 0 01-.468-.275.354.354 0 01.33-.11c.29.096.317.247.235.426m8.936-5.825l.082-.07c.028.056-.013.07-.082.07m7.036 10.934c-.358.276-3.029-.647-4.186-1.06-.179-.055-.358-.124-.537-.18v-.013a606.56 606.56 0 01-2.63-.923c-1.018-.358-2.065-.73-3.098-1.06l-.027-.29a87.315 87.315 0 00-4.379-1.404c-.647-.261-1.28-.592-1.831-1.019-.413-.316-.757-.757-.716-1.28.027-.813.427-1.653 1.129-2.162.44-.262 1.818-.84 2.34-.923l-.013-.014c1.336-.151 2.768-.179 3.897-.303.069-.013.151-.013.22-.013.895-.097 1.68-.07 2.561-.303.055-.028.165 0 .234.013l-2.933 2.479c.055.165.18.317.358.454.11.11.233.193.386.276.675.44 1.652.757 2.175.881.097.028.207.055.33.083.015.014.042.014.056.014 3.057.88 9.762 4.379 6.664 6.747" fill="#F1D5C3"/><path d="M69.666 268.412v.014a.222.222 0 01-.097-.055 5.22 5.22 0 01-.468-.275.354.354 0 01.33-.11c.29.096.317.247.235.426" fill="#E5B79E"/><path d="M77.707 281.219c.096.068.179.123.262.206-.042 0-.303-.096-.716-.317-.056-.027-.097-.04-.138-.068-1.79-.91-2.148-1.02-2.878-1.364-1.762-.826-3.787-1.35-5.205-2.699a1.992 1.992 0 01-.303-.289c-.165-.193-.358-.4-.413-.647-.082-.358 0-.73.124-1.06.138-.372.344-.717.592-1.033.055-.055.11-.124.165-.18-.371-.344-.62-.798-.84-1.239l-.04-.11c-.441-1.005-.359-2.134.082-3.112.124-.33.289-.647.51-.936-.648-.427-1.185-.964-1.336-1.694-.166-1.198.468-2.52 1.556-3.181.537-.248 1.115-.386 1.693-.496a.392.392 0 01.18 0c.04.014.068.028.096.028.082.013.151.041.206.055.124.041.248.082.358.11h.028l.013.014c-.523.082-1.9.66-2.34.922-.703.51-1.102 1.35-1.13 2.162-.04.524.304.964.717 1.281.55.427 1.184.757 1.83 1.019 1.337.386 2.879.881 4.38 1.405 1.129.399 2.23.798 3.153 1.156 1.473.565 2.52 1.006 2.602 1.116v.013h-.027s-.014 0-.028-.013c-.578-.097-1.5-.345-2.602-.661a165.1 165.1 0 01-3.016-.95 149.738 149.738 0 00-4.599-1.419c-.372-.165-.77-.33-1.156-.537-.083.11-.166.22-.207.317-.262.523-.482 1.074-.564 1.639-.07.688.123 1.39.468 1.996.206.345.44.689.826.868.922.454 1.996.537 3.015.73 1.02.22 1.887.523 2.74.853.62.235 1.24.496 1.942.772.096.04.206.082.317.124.908.358 1.184.495 2.051.895.028.013.07.04.097.055.013.013.027.013.04.027.331.193.772.468 1.158.661-.414-.137-2.052-.77-3.704-1.35a36.07 36.07 0 00-1.832-.619c-.151-.055-.289-.096-.427-.138-1.363-.413-2.781-.688-4.185-.936-.496-.11-1.006-.234-1.46-.468a2.73 2.73 0 00-.358.454c-.234.386-.482.826-.427 1.295.041.165.193.289.303.426.344.386.799.744 1.28 1.075.18.124.372.247.565.358.014.013.028.013.041.027.276.165.565.317.854.455.028 0 .041.013.069.027.11.055.234.11.344.152.964.385 3.195 1.445 4.696 2.423.151.097.303.193.44.29.042.04.083.068.124.096.014 0 .014.014.014.014" fill="#E5B79E"/><path d="M118.566 91.327c-.618.001-13.63.074-13.63.074s-.95-10.895-1.523-10.89c-.575.003-1.927 10.914-1.927 10.914l-11.417-.088s-.05-5.5-.073-10.487l-.017-4.99 28.534-.354v.001l28.537.168.017 4.992c.01 4.985-.006 10.485-.006 10.485l-11.416.164s-1.423-10.902-1.998-10.902c-.574 0-1.451 10.9-1.451 10.9l-13.63.014" fill="#FF3434"/><path d="M118.566 91.327c-.618.001-13.63.074-13.63.074s-.95-10.895-1.523-10.89c-.575.003-1.927 10.914-1.927 10.914l-11.417-.088s-.05-5.5-.073-10.487l-.017-4.99 28.534-.354v.001l28.537.168.017 4.992c.01 4.985-.006 10.485-.006 10.485l-11.416.164s-1.423-10.902-1.998-10.902c-.574 0-1.451 10.9-1.451 10.9l-13.63.014" stroke="#FF3434" stroke-linecap="round" stroke-linejoin="round"/><path d="M108.019 121.19c2.792 3.075 18.345 2.43 20.593-.08" stroke="#DF715C" stroke-width=".5" stroke-linecap="round" stroke-linejoin="round"/><path d="M109.392 138.814c-.003.663.003 1 .003 1l17.505-1.683-.049-2.693-17.313.056" fill="#DF715C"/><path d="M79.136 201.707c.227-.22 8.546-17.256 8.546-17.256l-.783 11.866s-7.99 5.609-7.763 5.39m78.722-.201c-.227-.22-8.545-17.256-8.545-17.256l.782 11.866s7.99 5.609 7.763 5.39" fill="#2B5165"/><path d="M159.214 281.399c-1.23 1.147-2.375 2.868-2.788 4.395-.113.42.054 2.215.922 1.811.946-.44 1.609-1.601 2.524-2.173a41.06 41.06 0 012.325-1.364c.567-.302 1.158-.564 1.724-.865 1.971-1.052 7.464-4.038 4.46-6.654l-9.167 4.85z" fill="#F1D5C3"/><path d="M167.643 273.557c.518.491 1.273 2 .876 2.557-1.106 1.546-3.462 2.204-5.113 2.974-2.157 1.008-4.059 2.238-6.04 3.472-.898.556-3.4 2.564-4.18 1.605-1.547-1.894 2.442-6.39 3.025-6.932l11.432-3.676z" fill="#F1D5C3"/><path d="M167.893 268.302c.335.383.64.964.906 1.882.295 1.008-.057 2.306-.846 3.228-.707.826-2.877.98-3.98 1.234-2.605.605-5.357 1.502-7.628 2.681-.569.293-2.886 2.235-3.988.368-.877-1.486 2.595-4.773 4.021-5.416l11.515-3.977z" fill="#F1D5C3"/><path d="M159.53 262.759c-.058.136.245-.1.357-.07.949.26.815.095 1.786.198 1.787.193 4.341.166 6.027.765 1.125.401 1.967 2.162 1.579 3.245-.37 1.035-2.364 1.96-3.386 2.232-3.33.884-6.835 2.198-10.083 3.332-1.158.407-3.828 1.338-4.186 1.062-3.23-2.48 4.222-6.188 7.055-6.845.795-.185 2.645-.84 2.92-1.61l-2.069-2.31z" fill="#F1D5C3"/><path d="M159.932 265.946c.026-.01.172.001.478-.037.46-.058.695-.186 1.027-.568.192-.2.488-.57.506-.303-.084.218-.287.41-.6.754-.315.343-1.223.387-1.367.46-.02-.14-.03-.196-.044-.306m8.969 6.584c-.193.426-.454.867-.798 1.197a.965.965 0 00.11.138c.248.317.468.675.606 1.047.124.344.22.716.124 1.074-.056.247-.248.454-.414.647-1.445 1.57-3.648 2.134-5.562 3.03-.758.357-1.116.454-3.057 1.445-.413.22-.675.317-.716.317 1.35-1.115 4.406-2.589 5.604-3.057 1.088-.468 2.382-1.253 3.18-2.12.11-.138.262-.262.304-.428.055-.468-.193-.922-.427-1.308a4.48 4.48 0 00-.317-.4c-.468.235-.991.359-1.5.483-1.405.248-2.81.523-4.187.936-2.038.62-5.218 1.86-5.92 2.093.426-.22.95-.537 1.253-.73.867-.399 1.156-.537 2.065-.895 1.79-.688 3.112-1.335 4.998-1.748 1.005-.193 2.08-.276 3.002-.73.385-.18.62-.524.826-.868.344-.606.537-1.308.468-1.997-.082-.564-.303-1.115-.564-1.638a1.757 1.757 0 00-.207-.317c-.385.207-.785.372-1.156.537-3.181.909-8.51 2.782-10.272 3.043.013-.22 6.127-2.547 10.134-3.69.66-.262 1.294-.592 1.831-1.02.413-.316.757-.757.716-1.28-.027-.812-.427-1.652-1.115-2.162-.455-.261-1.831-.84-2.34-.922.15-.055.302-.11.385-.124.11-.028.303-.124.482-.083.592.11 1.156.248 1.693.496 1.088.66 1.721 1.983 1.556 3.18-.151.73-.675 1.268-1.322 1.68.207.29.358.62.496.95.454.979.523 2.108.083 3.113l-.042.11zm-92.457-6.973c-.027-.01-.172.002-.479-.037-.458-.058-.695-.186-1.026-.567-.191-.2-.487-.57-.505-.303.084.217.286.41.6.753s1.223.387 1.366.46c.02-.14.03-.195.044-.306" fill="#E5B79E"/><path d="M551.53 538.6c.253.66.048 12.687.048 12.687s-35.436 1.003-41.398.122c-2.714-.402 2.899-5.02 5.622-5.408 15.63-2.24 17.405-5.528 22.01-7.833 10.585-5.3 13.467-.228 13.719.433m29.215-.993c-.25.661.045 12.686.045 12.686s35.441.796 41.398-.12c2.71-.416-2.936-5-5.664-5.376-15.643-2.147-17.443-5.423-22.064-7.703-10.623-5.239-13.467-.148-13.715.513" fill="#69BAC9"/><path d="M606.52 259.568l1.83 5.482.488 5.618 3.896-1.009-.902-2.922c.198.144.604.135.712-.072.108-.235-.054-.757-.062-1.01l-.046-.298c-.027-1.217-1.01-2.1-1.65-3.101-.38-.668-.469-1.434-.506-2.173-.044-1.164.127-2.337.442-3.472.245-.721.866-1.371.866-2.138-.127-.478-.74-.667-1.226-.649-1.615.036-3.193 1.037-3.67 2.425-.062.272-.18.623-.135.93v.081l-.036 2.308zm-85 0l-1.83 5.482-.487 5.618-3.895-1.009.902-2.922c-.198.144-.627.344-.735.136-.11-.234-.944-1.85 1.78-4.617.38-.668.47-1.434.505-2.173.046-1.164-.125-2.337-.442-3.472-.243-.721-.864-1.371-.864-2.138.126-.478.738-.667 1.225-.649 1.614.036 3.192 1.037 3.67 2.425.063.272.18.623.136.93v.081l.036 2.308z" fill="#E0B094"/><path d="M564.566 309.516c0 .009-.008.009-.008.009v.019c.018-.02.044-.037.063-.055l-.055.027m-45.408-3.481l-.081 1.426c.015-.48.045-.95.081-1.426" fill="#C7C7C7"/><path d="M566.532 309.543c-.895-.668-1.962-.352-2.462.595.096-.35.195-.75.569-.892 0-.01.008-.018.008-.028.615-.286 1.407-.197 1.885.325m.316.802a2.438 2.438 0 01-.315-.802c.125.234.234.515.315.802" fill="#C7C7C7"/><path d="M610.245 271.985c-1.37-4.77-1.001-18.855-4.5-21.218l-81.185.27c-1.606.18-1.507 1.822-1.832 2.932-12.055 93.05-14.263 195.4 13.895 284.816l13.76.18c-2.966-72.59-4.661-150.763 15.03-223.336 18.71 72.673 21.803 148.121 15.266 222.354-.108 1.992 14.139.099 15.085.585 27.158-84.007 21.604-179.087 14.48-266.583" fill="#C7C7C7"/><path d="M552.06 147.615c.136 0 25.062-.077 25.438 0 .376.077-2.737 3.513-2.737 3.513s-13.792 1.342-13.98 1.265c-.188-.077-9.043-4.21-9.043-4.21l.323-.568z" fill="#883434"/><path fill="#E0B094" d="M564.567 145.939l-8.537-.823-.256 8.632 8.84.902.257-.002 8.834-.96-.312-8.628-8.53.877z"/><path d="M521.818 275.899c-.18 1.542-.36 3.093-.532 4.635.024-.139.493-4.496.532-4.635m.686-5.501a201.59 201.59 0 01-.631 5.077c.194-1.695.409-3.39.63-5.077m86.832 9.766c-.906-6.679-1.916-13.37-3.202-19.973 1.326 6.61 2.374 13.285 3.202 19.973m1 8.972a300.39 300.39 0 00-.757-6.952c.289 2.317.531 4.635.757 6.952" fill="#C7C7C7"/><path d="M610.65 283.555l1.741-15.817c8.612-1.524 18.754-14.986 18.628-42.833-.08-18.432-14.948-30.768-27.257-34.537-.01.163-.018.334-.018.496-.055 2.516 5.59 63.781 6.194 78.335.183 4.394-90.645 4.923-90.915.532-1.029-16.583 4.175-67.154 4.121-68.37.288-3.843.306-7.467.161-11.002-12.731 2.03-31.287 17.692-32.595 34.123-2.208 27.764 10.018 41.309 18.629 42.842l1.74 15.816c-43.271-13.011-45.868-47.396-41.622-70.58 4.989-27.196 40.938-51.103 45.383-54.066a8.8 8.8 0 011.017-.59c13.242-6.463 33.976-12 37.05-9.522 3.842 3.093 11.885 3.608 11.885 3.608s8.033-.569 11.857-3.688c3.083-2.507 19.818 4.021 32.541 12.11 12.767 6.691 38.177 25.827 43.081 52.564 4.247 23.184 1.651 57.567-41.62 70.579" fill="#FF3434"/><path d="M540.64 283.808s-5.864 12.684-12.683 16.64l12.683-16.64zm47.444 0s5.864 12.684 12.682 16.64l-12.682-16.64z" fill="#666"/><path d="M519.028 269.778l.572 3.126c3.839 2.506 86.774 2.425 90.18-.508.14-.12.128-3.087.128-3.087s-61.05 1.899-62.278 1.996c-1.227.098-28.602-1.527-28.602-1.527" fill="#883434"/><path d="M519.634 286.432c1.376 1.225 2.661 3.062 3.124 4.694.126.446-.06 2.363-1.033 1.932-1.06-.47-1.802-1.71-2.83-2.319a45.146 45.146 0 00-2.602-1.457c-.637-.323-1.298-.601-1.933-.925-2.209-1.122-8.362-4.31-4.998-7.104l10.272 5.179z" fill="#E0B094"/><path d="M510.19 278.06c-.581.524-1.427 2.135-.98 2.73 1.237 1.651 3.877 2.353 5.726 3.176 2.418 1.075 4.548 2.387 6.77 3.705 1.004.595 3.806 2.74 4.682 1.715 1.731-2.023-2.737-6.822-3.388-7.4l-12.81-3.927z" fill="#E0B094"/><path d="M519.677 286.468c-1.51-1.182-4.955-2.768-6.292-3.28-1.219-.494-2.673-1.334-3.568-2.253-.124-.145-.293-.286-.343-.466-.06-.496.218-.975.486-1.392.132-.21.318-.388.483-.574.135-.208-.024-.485-.29-.513-.286-.026-.448.232-.607.403a4.39 4.39 0 00-.674 1.115c-.141.362-.24.763-.141 1.143.066.27.278.485.465.697 1.614 1.677 4.096 2.275 6.235 3.233.848.38 1.243.48 3.421 1.54.499.245.795.355.825.347" fill="#CC957D"/><path d="M509.91 272.448c-.374.41-.717 1.03-1.016 2.01-.33 1.076.065 2.462.95 3.446.79.883 3.222 1.047 4.457 1.32 2.92.644 6.002 1.6 8.547 2.86.636.314 3.234 2.386 4.468.393.982-1.586-2.907-5.096-4.505-5.783l-12.9-4.246z" fill="#E0B094"/><path d="M523.468 282.454c-.522-.226-1.17-.61-1.566-.836-.962-.424-1.283-.566-2.303-.95-2.007-.738-3.485-1.427-5.6-1.86-1.13-.214-2.33-.307-3.371-.784-.433-.189-.697-.566-.923-.93-.387-.648-.603-1.396-.524-2.132.09-.606.337-1.197.632-1.745.157-.354.886-.877.173-1.11-.274-.055-.436.176-.569.351a4.873 4.873 0 00-.592 1.056c-.502 1.058-.588 2.253-.096 3.327l.052.119c.236.493.537.982.97 1.356.62.483 1.447.676 2.23.844 1.578.266 3.162.56 4.69 1.008 2.451.705 6.331 2.164 6.757 2.28.033.006.037.006.04.006" fill="#CC957D"/><path d="M609.589 192.737c-.018-.086-7.138-16.209-7.138-16.209s1.279 14.32 1.291 14.35c.595.061 4.416 1.212 5.847 1.86m-92.577-.541c.018-.086 7.138-16.208 7.138-16.208s-.655 14.268-.771 14.269c-.595.062-4.935 1.293-6.367 1.939" fill="#883434"/><path d="M518.668 267.24c.065.146.157-.813.032-.78-1.063.277-.733.096-1.82.207-2.003.205-4.865.178-6.754.818-1.26.427-2.204 2.308-1.768 3.463.415 1.106 2.649 2.093 3.794 2.384 3.73.943 7.656 2.345 11.295 3.558 1.299.434 4.29 1.427 4.689 1.134 3.621-2.65-4.698-6.774-7.873-7.476-.891-.196-2.994-.73-3.302-1.554l1.707-1.754z" fill="#E0B094"/><path d="M518.293 269.894c-.514-.062-.779-.2-1.15-.607-.215-.212-.546-.608-.567-.323-.002.225.17.426.319.595.99.93.915.537 1.598.628.194.026.47.028.639.084.023-.15-.496-.336-.839-.377m-6.801 2.861c-.73-.277-1.441-.625-2.051-1.085-.463-.338-.842-.81-.806-1.368.033-.874.365-1.996 1.143-2.538.406-.27.387-.301.967-.46-.184-.057-.47-.045-1.07.217-1.218.708-1.956 1.914-1.775 3.199.314 1.433 2.079 2.182 3.435 2.725 3.568.976 9.545 2.976 11.51 3.247-.018-.223-6.861-2.71-11.353-3.937" fill="#CC957D"/><path d="M608.408 286.432c-1.377 1.225-2.662 3.062-3.124 4.694-.127.446.06 2.363 1.032 1.932 1.06-.47 1.803-1.71 2.829-2.319a45.65 45.65 0 012.603-1.457c.637-.323 1.299-.601 1.934-.925 2.208-1.122 8.36-4.31 4.997-7.104l-10.271 5.179z" fill="#E0B094"/><path d="M617.852 278.06c.58.524 1.425 2.135.98 2.73-1.238 1.651-3.877 2.353-5.727 3.176-2.418 1.075-4.548 2.387-6.769 3.705-1.005.595-3.807 2.74-4.684 1.715-1.73-2.023 2.739-6.822 3.39-7.4l12.81-3.927z" fill="#E0B094"/><path d="M608.364 286.468c1.51-1.182 4.955-2.768 6.294-3.28 1.218-.494 2.672-1.334 3.566-2.253.124-.145.293-.286.343-.466.06-.496-.218-.975-.486-1.392-.132-.21-.317-.388-.484-.574-.135-.208.025-.485.292-.513.285-.026.448.232.606.403.28.341.512.717.673 1.115.142.362.241.763.144 1.143-.068.27-.278.485-.466.697-1.615 1.677-4.096 2.275-6.236 3.233-.847.38-1.243.48-3.42 1.54-.499.245-.796.355-.826.347" fill="#CC957D"/><path d="M618.131 272.448c.375.41.718 1.03 1.016 2.01.33 1.076-.064 2.462-.95 3.446-.79.883-3.222 1.047-4.457 1.32-2.919.644-6.003 1.6-8.546 2.86-.637.314-3.235 2.386-4.469.393-.981-1.586 2.907-5.096 4.504-5.783l12.902-4.246z" fill="#E0B094"/><path d="M604.573 282.454c.522-.226 1.17-.61 1.566-.836a35.422 35.422 0 012.303-.95c2.008-.738 3.485-1.427 5.599-1.86 1.132-.214 2.331-.307 3.373-.784.431-.189.696-.566.923-.93.387-.648.603-1.396.523-2.132-.09-.606-.337-1.197-.632-1.745-.157-.354-.885-.877-.172-1.11.273-.055.437.176.567.351.248.326.438.689.594 1.056.501 1.058.588 2.253.096 3.327l-.053.119c-.236.493-.537.982-.97 1.356-.62.483-1.447.676-2.23.844-1.578.266-3.162.56-4.69 1.008-2.451.705-6.331 2.164-6.756 2.28l-.04.006" fill="#CC957D"/><path d="M610.292 267.26c-.065.147-.157-.812-.032-.779 1.063.277-.186.075.902.186 2.002.206 4.865.178 6.753.818 1.26.427 2.204 2.307 1.769 3.464-.416 1.104-2.65 2.093-3.795 2.383-3.73.944-7.657 2.345-11.295 3.559-1.298.433-4.289 1.426-4.69 1.133-3.62-2.65 4.7-6.775 7.874-7.476.89-.196 2.994-.73 3.302-1.553l-.788-1.734z" fill="#E0B094"/><path d="M616.55 272.755c.73-.277 1.44-.625 2.05-1.085.464-.338.842-.81.806-1.368-.033-.874-.364-1.996-1.142-2.538-.407-.27-.389-.301-.967-.46.183-.057.47-.045 1.07.217 1.217.708 1.954 1.914 1.775 3.199-.314 1.433-2.08 2.182-3.437 2.725-3.566.976-9.545 2.976-11.51 3.247.02-.223 6.863-2.71 11.354-3.937" fill="#CC957D"/><path d="M521.707 194.564c.693.219 47.333 9.395 84.277.436m-84.277 12.862c.693.22 47.333 9.394 84.277.437m-86.841 13.348c.729.219 49.78 9.394 88.632.436m-88.747 11.879c.729.22 51.692 9.404 90.545.446" stroke="#FFF" stroke-width="3"/><path fill="#AA5D48" d="M556.1 143.148l-.118 3.594 17.398-.45-.011-3.156z"/><path d="M533.407 106.878c0 4.283-2.648 7.754-5.914 7.754-3.266 0-5.914-3.471-5.914-7.754 0-4.282 2.648-7.754 5.914-7.754 3.266 0 5.914 3.472 5.914 7.754m62.041 0c0 4.283 2.648 7.754 5.914 7.754 3.266 0 5.914-3.471 5.914-7.754 0-4.282-2.648-7.754-5.914-7.754-3.266 0-5.914 3.472-5.914 7.754" fill="#E0B094"/><path d="M564.42 51.012c15.516-.33 12.89 6.079 15.421 6.395 2.331.29 6.035-3.949 17.407 4.904 11.361 8.846 3.901 21.269 5.256 21.358 1.356.091 4.516 2.758 4.516 10.618s-9.125 12.377-9.125 12.377 6.867 18.43-3.793 28.91c-10.659 10.48-29.54 9.215-29.54 9.215h-.27s-18.88 1.265-29.539-9.215c-10.66-10.48-3.794-28.91-3.794-28.91s-9.124-4.516-9.124-12.377c0-7.86 2.75-10.301 4.105-10.39 1.355-.092-5.695-12.74 5.667-21.586 11.372-8.853 15.077-4.613 17.407-4.904 2.531-.316-.095-6.725 15.422-6.395h-.017z" fill="#383838"/><path d="M564.419 119.143c.515-.063 23.606 4.068 23.606-8.124 0-6.311-.515-11.046-1.012-14.145-.426-2.648-.185-5.332.577-7.913.913-3.093 1.094-7.256-3.904-8.405-5.74-1.322-4.841.43-9.128 4.902-3.322 3.467-16.939 3.467-20.263 0-4.285-4.471-3.387-6.224-9.126-4.902-4.998 1.15-4.818 5.312-3.903 8.405.761 2.58 1.002 5.265.576 7.913-.497 3.1-1.012 7.834-1.012 14.145 0 12.192 23.092 8.06 23.607 8.124h-.018z" fill="#E0B094"/><path d="M563.705 110.27l-1.647 4.978a.767.767 0 00.728 1.01h3.295a.767.767 0 00.729-1.01l-1.647-4.978c-.233-.702-1.226-.702-1.458 0" fill="#DF715C"/><path d="M550.602 103.47c0 2.474-1.181 4.48-2.64 4.48-1.457 0-2.637-2.006-2.637-4.48 0-2.475 1.18-4.48 2.638-4.48s2.64 2.005 2.64 4.48" fill="#383838"/><path d="M554.172 106.258s.632 2.277-2.277 3.86" stroke="#383838" stroke-linecap="round"/><path d="M578.253 103.47c0 2.474 1.181 4.48 2.64 4.48 1.457 0 2.639-2.006 2.639-4.48 0-2.475-1.182-4.48-2.64-4.48-1.458 0-2.64 2.005-2.64 4.48" fill="#383838"/><path d="M574.683 106.258s-.633 2.277 2.277 3.86" stroke="#383838" stroke-linecap="round"/><path d="M569.829 127.873c0 2.287-10.781 2.287-10.781 0" stroke="#DF715C"/><path d="M383.03 292.341l-2.603.95-.909-5.067-1.46-4.902.028-2.052v-.083c-.04-.261.055-.578.11-.826.386-1.24 1.64-2.134 2.933-2.162.386-.014.882.152.978.578 0 .689-.496 1.267-.688 1.915a11.703 11.703 0 00-.358 3.098c.027.66.096 1.336.413 1.942.495.88 1.294 1.68 1.308 2.767l.041.262c0 .22.138.689.055.909-.083.179-.427.179-.578.041l.73 2.63zm-5.826 97.783c.114 30.34-.616 60.742-3.471 90.958-2.071 21.26-5.112 42.587-11.519 63.004l-7.599.265c-.504-27.665 1.856-56.082.935-84.072-1.122-31.474-4.215-62.94-10.158-93.88a482.453 482.453 0 00-3.414-16.233c-.442-1.914-.897-3.889-1.373-5.796-.183-.637-.296-1.515-.598-2.116-.439-.54-1.374-.621-1.81.007-2.242 8.327-3.817 16.873-5.446 25.348-5.658 30.934-8.49 62.352-9.373 93.773-.702 27.668 1.411 55.417 1.384 83.007l-7.506-.132c-4.859-15.136-7.89-30.835-9.99-46.592-2.708-20.053-4.156-40.275-5.024-60.487-1.05-24.598-1.18-49.297-.734-73.912.23-12.08.603-24.192 1.175-36.259.472-6.268 1.556-13.373 2.177-19.626l.012-.012c.74-5.008 1.556-10.047 2.513-15.02l63.058-.23c1.607 7.918 2.82 16.016 3.723 24.05 1.076 7.197 1.508 14.89 1.772 22.126a1405.11 1405.11 0 011.266 51.829m-37.357-216.059l-9.169-2.465-.223 25.346 9.497 2.705.275-.002 9.476-2.765-.388-25.344-9.151 2.525z" fill="#F1D5C3"/><path d="M330.667 172.155s-.151 3.093-.153 3.668a62.84 62.84 0 00.004 1.079l18.871-1.815-.01-2.953-18.712.02z" fill="#DF715C"/><path d="M376.854 271.318c-.352-1.548-36.725-.33-36.725-.33l-36.314.33c-4.11 3.619-7.655 152.44-6.636 155.003 16.364 13.044 69.454 13.044 85.819 0 .672-2.689-4.147-144.102-6.144-155.003" fill="#383838"/><path fill="#C7C7C7" d="M331.844 195.648h8.248l.044 77.615h-5.824l-4.724-76.84z"/><path d="M341.046 91.842c37.894 1.6 42.499 19.002 41.96 29.016-.348 6.504-.127 13.023.955 19.448.143.848.283 1.706.421 2.563.336 2.093-.651 4.5-2.247 6.881-5.093 7.604-13.948 11.973-23.232 11.922l-36.632-.207c-8.398-.049-16.424-3.72-21.602-10.197-2.264-2.83-3.857-5.832-3.444-8.4.275-1.712.566-3.433.85-5.067.928-5.31 1.043-10.709.585-16.078-.84-9.842 2.893-28.234 41.901-29.88h.485z" fill="#69BAC9"/><path d="M340.544 114.236c.116.028 7.858-1.022 18.08-.484 10.225.54 9.889 14.488 9.889 14.488s-1.965 34.316-2.632 35.254c-.719 1.013-7.679 9.178-25.33 9.178l.006.001c-17.655 0-24.619-8.166-25.337-9.178-.667-.939-2.632-35.255-2.632-35.255s-.336-13.948 9.89-14.488c10.226-.538 17.97.512 18.087.484h-.02z" fill="#F1D5C3"/><path d="M333.633 140.061c0 5.806-4.135 10.513-9.235 10.513s-9.235-4.707-9.235-10.513c0-5.805 4.135-10.51 9.235-10.51s9.235 4.705 9.235 10.51z" stroke="#000"/><path d="M326.255 140.061c0 1.997-.831 3.616-1.857 3.616s-1.858-1.619-1.858-3.616c0-1.996.832-3.615 1.858-3.615 1.026 0 1.857 1.619 1.857 3.615" fill="#000"/><path d="M333.696 138.556c.352-.044 4.32-.747 6.432-.747m6.494 2.252c0 5.806 4.135 10.513 9.235 10.513s9.235-4.707 9.235-10.513c0-5.805-4.135-10.51-9.235-10.51s-9.235 4.705-9.235 10.51z" stroke="#000"/><path d="M354 140.061c0 1.997.831 3.616 1.857 3.616s1.858-1.619 1.858-3.616c0-1.996-.832-3.615-1.858-3.615-1.026 0-1.857 1.619-1.857 3.615" fill="#000"/><path d="M346.558 138.556c-.35-.044-4.32-.747-6.431-.747" stroke="#000"/><path d="M328.189 155.096c-.142 0-2.586-.046-2.726 2.587m26.648-.924c-2.112 2.112-21.855 2.112-23.968 0m23.923-1.663c.142 0 2.586-.046 2.726 2.587" stroke="#DF715C" stroke-width=".5" stroke-linecap="round" stroke-linejoin="round"/><path d="M314.277 137.74c0 3.371.301 7.557-2.732 7.557-3.033 0-8.253-4.186-8.253-7.557 0-3.37 2.459-6.103 5.492-6.103 3.034 0 5.493 2.732 5.493 6.103m52.284 0c0 3.371-.301 7.557 2.732 7.557 3.034 0 8.254-4.186 8.254-7.557 0-3.37-2.46-6.103-5.493-6.103-3.033 0-5.493 2.732-5.493 6.103" fill="#F1D5C3"/><path d="M340.022 91.2c.314 0 21.554-.309 21.554-10.385 0-10.074-16.96-11.815-21.455-11.815h-.004c-4.494 0-21.456 1.74-21.456 11.815 0 10.076 21.242 10.386 21.555 10.386h-.194zm27.156 21.475a1.879 1.879 0 00-1.432-.902l-25.042-2.451v-.002h-.014v.002l-24.113 2.447c-.604.06-1.14.406-1.439.925l-5.908 10.26c-.68 1.18.13 2.654 1.509 2.744a1.889 1.889 0 001.749-.923c1.33-2.247 5.441-7.338 14.617-5.271 5.648 1.272 9.668-1.815 13.593-1.818 4.066.003 8.234 3.09 14.088 1.818 9.551-2.077 13.809 3.068 15.168 5.3a1.88 1.88 0 001.73.896l.112-.006c1.395-.087 2.206-1.585 1.5-2.768l-6.118-10.251z" fill="#69BAC9"/><path d="M347.795 91.363c0 .777-3.44 1.407-7.682 1.407-4.243 0-7.683-.63-7.683-1.407s3.44-1.407 7.683-1.407 7.682.63 7.682 1.407" fill="#2B5165"/><path d="M340.091 149.553c-.898-.082-2.663-.248-2.904-.633-.336-.536.448-1.727.914-2.578.407-.74 1.298-1.844 1.786-2.466.11-.14.38-.142.49-.002.492.62 1.391 1.719 1.804 2.454.473.848 1.262 2.034.928 2.571-.238.388-2.124.566-3.018.654" fill="#FF3434"/><path d="M282.742 302.885c1.297.712 10.372 3.896 10.572 3.077 1.706-6.98.975-14.1 1.49-20.954.088-1.173-6.096-2.591-9.14-3.799-.537 7.717-1.944 14.032-2.922 21.676" fill="#C7C7C7"/><path d="M283.937 304.686c-65.663-67.089 16.237-119.937 41.649-123.424 5.153 20.147 11.187 36.412 14.554 56.433.343 2.04-.01 3.69-.014 5.913-2.567 9.99-3.283 29.845-4.677 38.172-1.88 11.223 1.097 11.883-7.795 16.067-7.049 3.318-17.745 5.192-25.982 7.132-1.678.395-1.89-1.557-2.108-2.751-1.838-10.058 15.7-75.512.501-79.03-19.05-4.407-32.632 39.317-13.447 57.274-1.509 8.383-.002 16.836-2.68 24.214" fill="#2B5165"/><path fill="#E58585" d="M329.706 179.396l-23.145 8.073 15.02 10.377-6.165 4.07 24.705 41.18-.005-6.818z"/><path stroke="#E58585" stroke-linecap="round" stroke-linejoin="round" d="M329.706 179.396l-23.145 8.073 15.02 10.377-6.165 4.07 24.705 41.18-.005-6.818z"/><path d="M303.36 283.322l-1.46 4.902-.908 5.068-2.589-.95.73-2.644c.014 0 .014 0 .028-.014.096-.096.124-.4.124-.523.027-.4-.014-.799.055-1.185-.083.358-.207 1.391-.152 1.336l.055-.014-.11.4c-.151.151-.496.151-.578-.028-.097-.22.041-.688.055-.909l.027-.261c.028-1.088.813-1.887 1.322-2.768.303-.606.372-1.28.4-1.942a10.666 10.666 0 00-.358-3.098c-.193-.647-.689-1.226-.689-1.914.11-.427.592-.592.992-.579 1.28.028 2.547.923 2.919 2.162.055.248.151.579.11.84v.07l.027 2.051z" fill="#F1D5C3"/><path d="M299.34 287.976c-.07.386-.028.785-.056 1.185 0 .123-.027.426-.124.523-.014.014-.014.014-.027.014l.11-.4-.055.014c-.055.055.069-.978.151-1.336" fill="#F1D5C3"/><path d="M299.34 287.976c-.07.386-.028.785-.056 1.185 0 .123-.027.426-.124.523-.014.014-.014.014-.027.014l.11-.4-.055.014c-.055.055.069-.978.151-1.336m1.37 19.328c1.101 1.094 2.128 2.734 2.497 4.19.102.4-.048 2.11-.824 1.725-.849-.42-1.442-1.526-2.263-2.07a35.744 35.744 0 00-2.082-1.3c-.51-.29-1.038-.537-1.546-.826-1.767-1.001-6.688-3.848-3.997-6.342l8.215 4.623z" fill="#F1D5C3"/><path d="M293.156 299.831c-.465.468-1.141 1.907-.784 2.438.99 1.473 3.1 2.1 4.58 2.834 1.934.96 3.638 2.131 5.413 3.307.804.53 3.046 2.444 3.747 1.53 1.384-1.805-2.19-6.088-2.711-6.606l-10.245-3.503z" fill="#F1D5C3"/><path d="M300.744 307.336c-1.207-1.055-3.963-2.47-5.034-2.927-.973-.442-2.137-1.19-2.853-2.011-.099-.13-.232-.255-.272-.416-.05-.442.173-.87.386-1.244.107-.187.255-.345.389-.512a.311.311 0 00-.234-.456c-.229-.025-.357.207-.485.358-.223.305-.409.64-.538.996-.113.323-.195.68-.115 1.02.054.241.223.433.374.621 1.29 1.498 3.275 2.031 4.985 2.887.678.338.995.428 2.738 1.375.398.218.634.316.66.309" fill="#E5B79E"/><path d="M292.932 294.823c-.3.364-.573.918-.813 1.794-.263.96.053 2.196.76 3.076.633.788 2.578.932 3.565 1.176 2.334.577 4.802 1.43 6.835 2.555.51.28 2.588 2.13 3.574.35.786-1.416-2.325-4.549-3.602-5.162l-10.32-3.79z" fill="#F1D5C3"/><path d="M303.776 303.754c-.417-.201-.935-.545-1.252-.747-.77-.378-1.027-.505-1.843-.848-1.605-.658-2.787-1.274-4.478-1.66-.904-.19-1.865-.275-2.696-.7-.346-.168-.558-.505-.738-.83-.31-.579-.484-1.245-.42-1.903.073-.542.27-1.068.505-1.558.125-.315.71-.783.14-.99-.22-.048-.35.157-.455.314-.199.29-.35.614-.474.943-.402.943-.47 2.01-.077 2.968l.043.106c.187.44.428.876.773 1.21.498.433 1.158.605 1.785.755 1.263.237 2.53.501 3.75.9 1.961.628 5.064 1.93 5.405 2.034l.032.006" fill="#E5B79E"/><path d="M301.277 289.309c.053.13-.179.02-.28.048-.85.247-1.621.207-2.491.306-1.602.183-3.89.158-5.4.73-1.009.381-1.763 2.06-1.416 3.091.333.986 2.119 1.869 3.035 2.128 2.983.841 6.124 2.093 9.034 3.175 1.038.387 3.431 1.274 3.75 1.012 2.896-2.364-3.782-5.898-6.32-6.524-.713-.175-2.37-.8-2.617-1.534l2.705-2.432z" fill="#F1D5C3"/><path d="M300.793 292.882c-.025-.01-.338-.197-.361-.205-.328-.136-.52-.098-.794-.135-.412-.055-.624-.178-.92-.541-.172-.19-.438-.543-.453-.288-.003.201.135.38.254.531.792.83.875.509 1.946.812.138.045.153.044.29.093.017-.133.028-.166.038-.267m-6.595 2.214c-.585-.248-1.153-.558-1.64-.968-.37-.301-.673-.724-.646-1.221.026-.78.387-1.581 1.01-2.063.399-.247 1.632-.795 2.098-.879-.146-.05-.276-.097-.353-.118-.096-.026-.265-.112-.43-.072-.525.098-1.04.232-1.52.464-.974.634-1.536 1.894-1.393 3.042.25 1.278 1.663 1.947 2.748 2.43 2.853.872 7.634 2.657 9.205 2.9-.013-.2-5.487-2.42-9.08-3.515" fill="#E5B79E"/><path fill="#C7C7C7" d="M348.387 195.648h-8.246l-.046 77.615h5.825l4.724-76.84zm-22.819 331.635h-14.3s-.773 12.487-3.136 13.725c-2.363 1.238-15.525 6.187-15.525 7.875v2.588h22.386s1.127-6.187 2.813-6.187c1.687 0 1.576 5.962 2.025 5.962h4.725s1.519-24.47 1.012-23.963m27.932 0h14.3s.775 12.487 3.138 13.725c2.362 1.238 15.524 6.187 15.524 7.875v2.588h-22.386s-1.125-6.187-2.813-6.187c-1.687 0-1.574 5.962-2.025 5.962h-4.725s-1.519-24.47-1.012-23.963m44.803-224.66c-1.295.71-10.37 3.894-10.572 3.075-1.706-6.979-.973-14.098-1.488-20.952-.088-1.174 6.094-2.593 9.14-3.8.537 7.718 1.944 14.032 2.92 21.677"/><path d="M397.109 304.686c65.663-67.089-16.237-119.937-41.648-123.424-5.154 20.147-11.188 36.412-14.554 56.433-.343 2.04.01 3.69.013 5.913 2.567 9.99 3.283 29.845 4.678 38.172 1.88 11.223-1.098 11.883 7.795 16.067 7.048 3.318 17.746 5.192 25.982 7.132 1.677.395 1.89-1.557 2.108-2.751 1.837-10.058-15.7-75.512-.502-79.03 19.05-4.407 32.633 39.317 13.447 57.274 1.51 8.383 2.51 16.312 2.68 24.214" fill="#2B5165"/><path fill="#E58585" d="M350.526 179.396l23.143 8.073-15.018 10.377 6.164 4.07-24.704 41.18.005-6.818z"/><path stroke="#E58585" stroke-linecap="round" stroke-linejoin="round" d="M350.526 179.396l23.143 8.073-15.018 10.377 6.164 4.07-24.704 41.18.005-6.818z"/><path d="M343.445 241.106a3.275 3.275 0 11-6.55 0 3.275 3.275 0 016.55 0" fill="#69BAC9"/><path d="M380.715 307.304c-1.102 1.094-2.129 2.734-2.498 4.19-.102.4.048 2.11.825 1.725.848-.42 1.441-1.526 2.262-2.07a35.744 35.744 0 012.082-1.3c.51-.29 1.038-.537 1.546-.826 1.767-1.001 6.688-3.848 3.998-6.342l-8.215 4.623z" fill="#F1D5C3"/><path d="M388.267 299.831c.465.468 1.14 1.907.785 2.438-.99 1.473-3.101 2.1-4.581 2.834-1.933.96-3.638 2.131-5.413 3.307-.804.53-3.046 2.444-3.747 1.53-1.383-1.805 2.191-6.088 2.712-6.606l10.244-3.503z" fill="#F1D5C3"/><path d="M380.68 307.336c1.207-1.055 3.962-2.47 5.033-2.927.974-.442 2.137-1.19 2.853-2.011.098-.13.233-.255.273-.416.048-.442-.174-.87-.387-1.244-.106-.187-.255-.345-.388-.512-.108-.185.02-.432.234-.456.228-.025.356.207.484.358.223.305.41.64.539.996.113.323.193.68.114 1.02-.054.241-.223.433-.373.621-1.29 1.498-3.276 2.031-4.986 2.887-.677.338-.994.428-2.737 1.375-.398.218-.635.316-.66.309" fill="#E5B79E"/><path d="M388.49 294.823c.301.364.575.918.813 1.794.263.96-.05 2.196-.758 3.076-.634.788-2.578.932-3.567 1.176-2.334.577-4.8 1.43-6.835 2.555-.51.28-2.587 2.13-3.572.35-.787-1.416 2.325-4.549 3.601-5.162l10.319-3.79z" fill="#F1D5C3"/><path d="M377.648 303.754c.417-.201.934-.545 1.251-.747.771-.378 1.027-.505 1.844-.848 1.604-.658 2.785-1.274 4.478-1.66.903-.19 1.864-.275 2.696-.7.345-.168.557-.505.738-.83.31-.579.483-1.245.42-1.903-.073-.542-.27-1.068-.506-1.558-.126-.315-.709-.783-.139-.99.22-.048.35.157.455.314.198.29.35.614.473.943.402.943.471 2.01.077 2.968l-.042.106c-.187.44-.428.876-.774 1.21-.497.433-1.16.605-1.785.755-1.262.237-2.529.501-3.75.9-1.961.628-5.063 1.93-5.405 2.034-.026.004-.03.006-.031.006" fill="#E5B79E"/><path d="M380.63 289.412c.852.246 1.416.151 2.288.25 1.601.184 3.89.159 5.4.73 1.008.382 1.763 2.06 1.416 3.092-.334.986-2.12 1.868-3.035 2.127-2.984.842-6.125 2.093-9.034 3.177-1.038.386-3.432 1.273-3.751 1.011-2.896-2.364 3.782-5.898 6.32-6.523.713-.176 2.371-.802 2.618-1.536l-2.221-2.328z" fill="#F1D5C3"/><path d="M380.63 292.882c.025-.01.338-.197.361-.205.328-.136.52-.098.795-.135.412-.055.624-.178.92-.541.172-.19.438-.543.453-.288.002.201-.135.38-.255.531-.792.83-.874.509-1.946.812-.137.045-.152.044-.289.093-.018-.133-.029-.166-.038-.267m6.595 2.214c.585-.248 1.152-.558 1.64-.968.37-.301.673-.724.644-1.221-.025-.78-.386-1.581-1.008-2.063-.4-.247-1.633-.795-2.098-.879.146-.05.275-.097.352-.118.096-.026.266-.112.431-.072.525.098 1.04.232 1.52.464.974.634 1.536 1.894 1.392 3.042-.25 1.278-1.663 1.947-2.748 2.43-2.853.872-7.634 2.657-9.205 2.9.014-.2 5.487-2.42 9.08-3.515" fill="#E5B79E"/></g></svg>