<?xml version="1.0" encoding="UTF-8"?>
<!-- by Tanja Rohlfs (https://consento.org/team/tanja) - license: CC-BY-NC-SA (see: https://creativecommons.org/licenses/by-nc-sa/4.0/) -->
<svg width="500" height="500" xmlns="http://www.w3.org/2000/svg" xmlns:xlink="http://www.w3.org/1999/xlink"><defs><path id="a" d="M.095.498H289.2V165.54H.095z"/></defs><g fill="none" fill-rule="evenodd"><path fill="#FFF" d="M0 0h500v500H0z"/><g transform="translate(102 138.502)"><mask id="b" fill="#fff"><use xlink:href="#a"/></mask><path d="M175.895.497c33.707 0 61.331 26.532 63.086 59.807 27.905 1.273 50.218 24.376 50.218 52.59 0 29.029-23.617 52.645-52.645 52.645H42.911c-23.61 0-42.816-19.207-42.816-42.815 0-23.61 19.206-42.817 42.816-42.817 2.904 0 5.778.293 8.584.867 0-.165-.003-.326-.003-.49 0-27.093 22.042-49.134 49.135-49.134a48.93 48.93 0 0119.006 3.819A63.026 63.026 0 01175.895.498" fill="#CBCBCB" mask="url(#b)"/></g><path d="M265.477 237.087l20.342-3.587 20.342-3.586a22.331 22.331 0 01-40.684 7.173m-56.071-7.117l20.342 3.586 20.343 3.587a22.333 22.333 0 01-40.685-7.174" fill="#FFF"/><path d="M126.684 251.121c24.515 0 44.458 19.944 44.458 44.46 0 1.074-.04 2.148-.12 3.221a32.23 32.23 0 0110.222-1.665c17.856 0 32.382 14.526 32.382 32.38 0 17.857-14.526 32.382-32.382 32.382H68.022c-21.184 0-38.42-17.235-38.42-38.42 0-21.184 17.236-38.42 38.42-38.42a38.016 38.016 0 0114.84 2.994c3.587-20.944 21.872-36.932 43.822-36.932" fill="#CBCBCB"/><path d="M126.684 251.121c24.515 0 44.458 19.944 44.458 44.46 0 1.074-.04 2.148-.12 3.221a32.23 32.23 0 0110.222-1.665c17.856 0 32.382 14.526 32.382 32.38 0 17.857-14.526 32.382-32.382 32.382H68.022c-21.184 0-38.42-17.235-38.42-38.42 0-21.184 17.236-38.42 38.42-38.42a38.016 38.016 0 0114.84 2.994c3.587-20.944 21.872-36.932 43.822-36.932z" stroke="#FFF" stroke-width="3.205"/><path d="M120.638 342.929c-11.192-.08-21.126-3.623-29.887-10.521-.816-.642-1.584-1.345-2.371-2.023-.124-.107-.288-.213-.335-.352-.073-.215-.162-.558-.057-.666.14-.145.516-.234.692-.147.865.426 1.69.93 2.542 1.385 5.563 2.966 11.446 5.037 17.628 6.263a66.135 66.135 0 0010.889 1.229c3.362.103 6.695-.112 10.022-.556 5.735-.763 11.25-2.308 16.568-4.577.164-.07.345-.121.522-.143.462-.057.825.11 1.036.54.217.442.025.806-.31 1.058-.786.59-1.577 1.18-2.41 1.7-4.66 2.903-9.732 4.749-15.1 5.818-1.033.205-2.07.427-3.116.525-2.101.198-4.208.316-6.313.467m-4.414-23.71c.307-1.284.615-2.568.918-3.853.805-3.402 1.607-6.803 2.413-10.205.25-1.054.468-1.227 1.531-1.235.511-.004 1.022-.01 1.533.002.88.02 1.125.197 1.332 1.062.914 3.826 1.813 7.654 2.718 11.48.233.984.467 1.967.823 2.959.165-.62.333-1.24.494-1.862l3.192-12.318c.302-1.164.508-1.322 1.701-1.324.53-.001 1.058-.01 1.587.004.53.015.684.196.63.72a3.048 3.048 0 01-.135.585c-1.77 5.645-3.543 11.29-5.317 16.934-.325 1.035-.517 1.173-1.603 1.177-.51.002-1.022.008-1.532-.002-.89-.018-1.155-.221-1.369-1.098-.844-3.448-1.679-6.9-2.518-10.348l-.906-3.706c-.095.31-.15.466-.19.626-1.062 4.425-2.122 8.85-3.183 13.277-.254 1.057-.493 1.245-1.584 1.25a82.22 82.22 0 01-1.314 0c-1.14-.002-1.345-.15-1.674-1.233-1.358-4.458-2.713-8.917-4.068-13.376-.376-1.237-.76-2.471-1.115-3.713-.254-.893-.09-1.095.812-1.097.511-.001 1.021-.002 1.532 0 1.056.005 1.292.176 1.563 1.215.5 1.92.982 3.845 1.473 5.767l2.118 8.302.138.01m-13.432-3.331c-.042 3.519-2.924 5.777-6.354 4.972-1.03-.242-1.699-.871-1.964-1.908-.608-2.376.64-4.168 3.11-4.432 1.628-.174 3.236.02 4.833.342.277.055.413.183.38.48-.022.18-.005.363-.005.546m4.567 5.309c-.84-1.36-.999-2.846-.982-4.41.028-2.55.045-5.106-.094-7.652-.168-3.08-2.032-5.033-5.069-5.568-2.813-.495-5.507-.088-8.138.983-.906.369-1.29.904-1.236 1.904.077 1.424.16 1.526 1.473.997 1.866-.75 3.78-1.201 5.812-1.043 1.938.15 3.114.939 3.43 2.557.215 1.114.221 2.269.332 3.53-.357-.058-.534-.08-.708-.116-1.99-.418-3.989-.673-6.027-.385-3.047.432-5.144 2.404-5.556 5.254-.453 3.134 1.306 5.843 4.268 6.41 2.847.544 5.392-.126 7.508-2.181.204-.197.396-.407.63-.65.183.349.314.65.491.92.288.442.586.879.92 1.287.35.427.802.48 1.27.188.48-.3.948-.615 1.413-.938.403-.28.531-.654.263-1.087m35.53 2.715a14.046 14.046 0 01-4.933-1.014c-1.238-.507-1.72-1.633-1.284-2.898.124-.359.404-.41.707-.32.347.103.678.263 1.018.392 2.192.831 4.438 1.194 6.755.664 1.054-.24 1.94-.763 2.243-1.92.274-1.048-.063-2.008-1-2.543-.643-.366-1.35-.634-2.051-.88-1.135-.396-2.3-.709-3.432-1.109-1.705-.6-3.045-1.633-3.715-3.38-.86-2.244-.09-4.663 1.969-6.123 1.737-1.23 3.722-1.586 5.782-1.368 1.256.133 2.51.441 3.72.82 1.267.398 1.738 1.56 1.29 2.814-.162.454-.507.376-.863.261-.881-.286-1.751-.632-2.653-.825-1.33-.284-2.683-.3-4.013.048-1.306.342-1.95 1.113-1.963 2.287-.01.841.345 1.511 1.066 1.906.682.374 1.41.674 2.145.938 1.096.395 2.215.724 3.322 1.09.294.097.579.221.864.342 4.196 1.784 4.029 6.888 1.049 9.172-1.391 1.067-3.325 1.651-6.023 1.646" fill="#FFF"/><path d="M147.462 330.49l-4.95.472c-.144.013-.296.048-.433.02-.147-.03-.348-.094-.401-.202-.05-.104.023-.316.112-.424a2.07 2.07 0 01.502-.412c1.666-1.058 3.517-1.523 5.459-1.73 1.552-.167 3.093-.128 4.61.227 1.458.342 1.757.447 1.616 2.234-.224 2.844-1.16 5.467-2.92 7.75-.418.543-.928 1.024-1.443 1.482-.164.146-.478.124-.723.18-.001-.237-.065-.492.006-.702.602-1.809 1.264-3.598 1.829-5.417.194-.626.215-1.323.22-1.988.006-.624-.406-1.012-1.004-1.122-.855-.157-1.72-.259-2.48-.369" fill="#FFF"/><path d="M389.759 237.338c18.371 0 33.676 13.382 36.678 30.91a31.838 31.838 0 0112.42-2.504c17.73 0 32.156 14.425 32.156 32.157 0 17.73-14.425 32.156-32.155 32.156h-94.764c-14.945 0-27.103-12.158-27.103-27.103 0-14.944 12.159-27.102 27.103-27.102a27 27 0 018.557 1.393 35.66 35.66 0 01-.103-2.696c0-20.518 16.692-37.211 37.21-37.211" fill="#CBCBCB"/><path d="M389.759 237.338c18.371 0 33.676 13.382 36.678 30.91a31.838 31.838 0 0112.42-2.504c17.73 0 32.156 14.425 32.156 32.157 0 17.73-14.425 32.156-32.155 32.156h-94.764c-14.945 0-27.103-12.158-27.103-27.103 0-14.944 12.159-27.102 27.103-27.102a27 27 0 018.557 1.393 35.66 35.66 0 01-.103-2.696c0-20.518 16.692-37.211 37.21-37.211z" stroke="#FFF" stroke-width="3.205"/><path d="M410.841 306.75c-.28.06-.387.272-.392.524-.096.068-.19.108-.252.177-.596.694-1.197 1.388-1.783 2.092-.493.594-1.09 1.093-1.676 1.57-.875.71-1.837 1.318-2.808 1.894a18.393 18.393 0 01-4.132 1.824c-.926.275-1.875.483-2.82.687-.533.113-1.082.146-1.62.231-1.096.173-2.204.186-3.303.135a24.12 24.12 0 01-3.105-.336c-1.01-.18-2.007-.46-2.996-.745a16.733 16.733 0 01-3.469-1.429c-.805-.445-1.587-.934-2.372-1.415a14.289 14.289 0 01-1.084-.73c-.459-.343-.935-.673-1.336-1.075a44.036 44.036 0 01-2.15-2.318 20.482 20.482 0 01-1.432-1.864c-.426-.625-.79-1.294-1.17-1.95-.725-1.248-1.246-2.588-1.693-3.95a19.238 19.238 0 01-.906-4.586 38.246 38.246 0 01-.107-3.176c.01-1.255.186-2.498.452-3.725.099-.45.219-.897.315-1.347.036-.172.031-.352.043-.49.137-.327.27-.63.393-.937.42-1.033.8-2.082 1.266-3.093.275-.599.68-1.14 1.029-1.705.714-1.163 1.555-2.236 2.47-3.245.514-.569 1.093-1.08 1.665-1.59.454-.408.974-.746 1.411-1.169.488-.47 1.106-.732 1.644-1.12a8.996 8.996 0 011.745-.97c1.317-.56 2.637-1.135 3.998-1.563a16.742 16.742 0 013.79-.717c.654-.048 1.306-.129 1.96-.149a21 21 0 011.81.05c.582.034 1.168.075 1.743.161 1.404.211 2.795.49 4.127.991a45.99 45.99 0 012.563 1.042c.574.256 1.113.586 1.668.878.094.05.2.075.3.11.024.006.063-.009.075.004.558.591 1.313.917 1.933 1.421.375.307.745.62 1.118.93.142.117.07.223-.029.322-.524.522-1.051 1.04-1.57 1.566-.55.557-1.086 1.132-1.642 1.683-.569.567-1.16 1.111-1.733 1.672-.443.435-.883.871-1.305 1.326-.166.181-.279.166-.459.036-.226-.163-.486-.278-.715-.435-.254-.173-.474-.397-.735-.553a12.668 12.668 0 00-3.71-1.499 13.62 13.62 0 00-3.735-.313 13.247 13.247 0 00-4.517 1.06 12.732 12.732 0 00-3.195 1.954c-.904.757-1.73 1.598-2.4 2.575a14.44 14.44 0 00-1.71 3.375c-.53 1.487-.75 3.008-.728 4.572.014 1.07.13 2.136.409 3.175.093.351.213.698.345 1.038.044.116.163.204.226.278 0 .131-.041.28.007.39.587 1.358 1.34 2.607 2.339 3.714.743.825 1.54 1.587 2.46 2.203.762.512 1.546 1.01 2.437 1.292.815.26 1.615.593 2.447.764.945.195 1.907.333 2.885.243.565-.053 1.142.008 1.697-.079a30.616 30.616 0 002.623-.554c.476-.118.937-.308 1.394-.49.195-.08.363-.224.507-.315.132-.026.257-.017.339-.07.635-.416 1.281-.814 1.882-1.274.775-.592 1.407-1.337 1.928-2.16.66-1.046 1.163-2.167 1.44-3.383.056-.246-.019-.304-.25-.304-2.827.004-5.656.001-8.485.001-.988 0-1.976-.004-2.964.005-.243.002-.346-.074-.34-.33.013-.658.003-1.316.003-1.973 0-.959.005-1.918 0-2.877-.01-1.06-.034-2.118-.043-3.178-.005-.47.03-.498.493-.498h20.183c.553 0 .56.013.644.574.11.742.238 1.481.34 2.223.04.28.027.565.038.85.07 1.823-.088 3.63-.415 5.424-.122.665-.249 1.33-.41 1.987-.114.468-.28.926-.44 1.382-.168.48-.356.953-.537 1.427-.413 1.08-.975 2.083-1.56 3.075-.113.188-.24.367-.346.556-.026.046-.005.12-.005.215" fill="#FFF"/></g></svg>