<svg id="Layer_1" data-name="Layer 1" xmlns="http://www.w3.org/2000/svg" viewBox="0 0 786.26 480.95"><defs><style>.cls-1,.cls-37{fill:#ff3434;}.cls-1,.cls-10,.cls-12,.cls-14,.cls-15,.cls-18,.cls-19,.cls-2,.cls-20,.cls-21,.cls-22,.cls-23,.cls-25,.cls-26,.cls-27,.cls-28,.cls-3,.cls-32,.cls-33,.cls-34,.cls-36,.cls-37,.cls-38,.cls-4,.cls-5,.cls-6,.cls-7,.cls-8,.cls-9{fill-rule:evenodd;}.cls-2,.cls-24{fill:#a06e5f;}.cls-3{fill:#f1d5c3;}.cls-31,.cls-4{fill:#f4d9ce;}.cls-16,.cls-5{fill:#69bac9;}.cls-11,.cls-6{fill:#383838;}.cls-17,.cls-7{fill:#2b5165;}.cls-8{fill:#e26666;}.cls-9{fill:#e5b79e;}.cls-10{fill:#df715c;}.cls-12,.cls-29{fill:#c7c7c7;}.cls-13,.cls-14,.cls-15,.cls-22,.cls-26,.cls-27,.cls-33,.cls-39{fill:none;}.cls-13,.cls-14{stroke:#000;}.cls-13,.cls-14,.cls-22,.cls-26,.cls-27,.cls-33{stroke-miterlimit:10;}.cls-13,.cls-14,.cls-18,.cls-26,.cls-30,.cls-33,.cls-37{stroke-width:0.53px;}.cls-15,.cls-27,.cls-39{stroke:#df715c;}.cls-15,.cls-18,.cls-26,.cls-30,.cls-37,.cls-39{stroke-linecap:round;}.cls-15,.cls-18,.cls-30,.cls-37,.cls-39{stroke-linejoin:round;}.cls-15,.cls-39{stroke-width:0.26px;}.cls-18,.cls-28,.cls-30{fill:#e58585;}.cls-18,.cls-30{stroke:#e58585;}.cls-19{fill:#883434;}.cls-20{fill:#666;}.cls-21{fill:#845a4d;}.cls-22{stroke:#fff;stroke-width:1.59px;}.cls-23{fill:#7a4537;}.cls-25{fill:#6d3224;}.cls-26{stroke:#383838;}.cls-32{fill:#92e0ea;}.cls-33{stroke:#92e0ea;}.cls-34,.cls-35{fill:#e2c3b5;}.cls-36{fill:#d6948b;}.cls-37{stroke:#ff3434;}</style></defs><path class="cls-1" d="M208.4,139.05c-.3-12.38-9-17.8-10.37-35.26a68,68,0,0,1,0-9.93c3.09-47.33-15.64-54.45-26.15-56.25a68.26,68.26,0,0,0-18.34.06c-10.51,1.87-29.2,9.11-25.79,56.42,1.85,25.76-9.85,30.8-10.11,45.26-.51,28.2.12,37,.12,37l6.86-.07s2.23-11.76,3.36-11.77,3.43,11.71,3.43,11.71l31.73-.1,31.77-.11s2.22-11.73,3.35-11.73S201.67,176,201.67,176l6.85,0S209.1,167.25,208.4,139.05ZM183.15,89.4c-.24,2-4.12,8.37-20.1,11.25l-.42.06c-16.27-2.74-20.25-9.18-20.51-11.18-.69-5.34-1-19.58-1.19-27.23-.05-3-.08-5-.08-5l9.23-3.36c.11-.4.2-.64.28-.64s.14.17.21.46l11.93-4.34,12.77,4.55c.09-.47.19-.75.27-.75s.23.38.37,1l8.3,2.95s0,2-.05,5.05C184.07,69.82,183.81,84.05,183.15,89.4Z"/><path class="cls-2" d="M568.11,121.55l4.58-2.34,4.84-1-1.31-3.75-2.44,1.17c.1-.21.05-.61-.14-.69s-.66.12-.88.15l-.25.08c-1.06.14-1.72,1.2-2.52,1.92a3.74,3.74,0,0,1-1.84.71,8.88,8.88,0,0,1-3.08-.1c-.65-.17-1.28-.73-2-.65-.4.17-.5.79-.43,1.27a4,4,0,0,0,2.51,3.39,2,2,0,0,0,.82,0h.07Z"/><path class="cls-3" d="M410.37,114.14l1.18,2.91-4.49,1.14-3.4,3.16-1.68-.29h-.07a1.35,1.35,0,0,1-.69,0,3.81,3.81,0,0,1-2.24-3.15c-.07-.44,0-.68.34-.84a4.08,4.08,0,0,1,1.68.24,5.69,5.69,0,0,0,2.27-.24,3.68,3.68,0,0,0,1.72-.78,4.1,4.1,0,0,1,2.24-1.41l.21-.08c.19,0,.55-.23.75-.16s.21.47.12.66Z"/><path class="cls-4" d="M618.83,96.93v19.82h-1.62a4.46,4.46,0,0,0,1-2.46l.14-1.38.09-.91a12.9,12.9,0,0,1-8.13,2.71,18.48,18.48,0,0,1-8.23-1.81l.13,1.24v.15a4.47,4.47,0,0,0,1,2.46h-1.8V96.93Z"/><path class="cls-3" d="M132.2,201.47a34,34,0,0,1-1.55,4.08l-1,4.22L127,209a16.56,16.56,0,0,0,.16-2.23c-.1-.18,0-.57.06-.76l0-.21c0-.91.85-1.57,1.39-2.31a3.11,3.11,0,0,0,.42-1.62,7.11,7.11,0,0,0-.37-2.58c-.21-.53-.73-1-.73-1.59.12-.35.62-.49,1-.48a3.37,3.37,0,0,1,3.08,1.8A4.87,4.87,0,0,1,132.2,201.47Z"/><path class="cls-5" d="M437.68,434.43c.21.55,0,10.57,0,10.57s-29.51.83-34.48.1c-2.26-.33,2.42-4.18,4.68-4.5,13-1.87,14.5-4.61,18.34-6.53,8.81-4.41,11.21-.19,11.42.36Z"/><path class="cls-5" d="M462,433.61c-.2.55,0,10.56,0,10.56s29.52.66,34.48-.1c2.26-.34-2.44-4.16-4.72-4.47-13-1.79-14.52-4.52-18.37-6.42-8.85-4.36-11.22-.12-11.43.43Z"/><path class="cls-6" d="M598.25,433.45c.21.54,0,10.43,0,10.43s-29.14.82-34,.1c-2.23-.33,2.38-4.13,4.62-4.45,12.85-1.84,14.31-4.54,18.1-6.44,8.71-4.35,11.07-.18,11.28.36Z"/><path class="cls-6" d="M622.28,432.63c-.21.55,0,10.43,0,10.43s29.15.66,34.05-.1c2.22-.34-2.42-4.11-4.66-4.41-12.87-1.77-14.35-4.46-18.15-6.34-8.73-4.31-11.07-.12-11.27.42Z"/><path class="cls-7" d="M212.06,160.56s-2.63.34-3,.45c-.52.16.17-4.91.17-4.91l3.59,4.33Z"/><path class="cls-7" d="M217.47,138.52s2.41-.42,2.72-.54c.47-.17.11,4.28.11,4.28l-3.54-3.59Z"/><path class="cls-5" d="M152.2,110.69c.12,0,20.8-.06,21.11,0s-2.27,2.85-2.27,2.85-11.45,1.08-11.6,1-7.5-3.41-7.5-3.41Z"/><path class="cls-7" d="M113.44,160.48s2.89.37,3.27.49c.57.18-.11-5.08-.11-5.08l-4,4.46Z"/><path class="cls-7" d="M108.36,138.69s-2.4-.42-2.72-.54c-.47-.17-.11,4.28-.11,4.28l3.54-3.59Z"/><path class="cls-8" d="M152.94,435c.19.55,0,10.52,0,10.52s-26.34.84-30.78.1c-2-.33,2.16-4.16,4.18-4.48,11.62-1.86,12.94-4.59,16.36-6.5,7.87-4.4,10-.19,10.2.36Z"/><path class="cls-8" d="M174.66,434.13c-.18.54,0,10.52,0,10.52s26.34.66,30.77-.1c2-.35-2.18-4.15-4.21-4.46-11.63-1.78-13-4.5-16.4-6.39-7.9-4.35-10-.12-10.2.43Z"/><path class="cls-3" d="M208.22,131.57C195.8,118,189.45,137,189.45,137a61.2,61.2,0,0,0,19.94,21.3c17.1,11.22,58.11,15.37,79.4-17.87l-13.49-2.18c-2.82,6.8-31.93,17.92-50.61,6.31-10-6.23-7.76-5.7-14.32-12.08Z"/><path class="cls-3" d="M126.82,211.07c-1.25-.43-2.53-.85-3.64-1.17a6.36,6.36,0,0,1-1.53-.85,1.26,1.26,0,0,1-.59-1.06,2.31,2.31,0,0,1,.94-1.8,8.71,8.71,0,0,1,2-.77,19.73,19.73,0,0,0,2.27.54l.07.58,0,.25v0Z"/><path class="cls-3" d="M122.17,209.72c-.14-.07-.26-.15-.39-.23a.27.27,0,0,1,.27-.09c.25.08.27.2.2.35h0A.15.15,0,0,1,122.17,209.72Z"/><path class="cls-3" d="M126.86,211.34l-1.09-.38,1.08.35Z"/><path class="cls-3" d="M123.06,210.44c1.09.31,2.48.75,3.83,1.18l.44,3.71a13.88,13.88,0,0,0-2.28-.71,9.91,9.91,0,0,1-2.51-.61,1.65,1.65,0,0,1-.69-.72,2.81,2.81,0,0,1-.39-1.67,4.49,4.49,0,0,1,.47-1.36,1.46,1.46,0,0,1,.17-.27C122.42,210.17,122.75,210.3,123.06,210.44Z"/><path class="cls-3" d="M127.69,218.3c-1.63-.34-3.19-.69-4.7-1.08a.7.7,0,0,1-.18-.05,2.14,2.14,0,0,1-.34-.09h0l-.74-.19-.38-.11C86.17,207,85.93,181.39,92.58,163.23a63.29,63.29,0,0,1,12.93-21.07c.7-.76,1.33-1.39,1.83-1.88.9-.86,1.43-1.31,1.43-1.31h.15c.9.07,5.54.53,8.65,2.84s4.61,6.2-.15,13.24l-.07.1c-.24.36-.47.7-.71,1a6,6,0,0,1-.4.58c-1,1.41-1.87,2.61-2.67,3.73h0c-2.82,3.92-4.69,6.87-6.83,14.17-5.41,18.59,8.36,27.87,16.63,30.58a.19.19,0,0,0-.15,0,5.84,5.84,0,0,0-1.41.41,2.77,2.77,0,0,0-1.29,2.65,2.3,2.3,0,0,0,1.11,1.41,3,3,0,0,0-.43.78,3.2,3.2,0,0,0-.06,2.59l0,.09a3.3,3.3,0,0,0,.7,1,.34.34,0,0,1,.24-.14.1.1,0,0,1,.07,0l0,0,0,0,2.42.78h0c.23.05.44.08.62.13.68.16,1.38.34,2.08.55l0,.21v.09Z"/><polygon class="cls-3" points="162.55 100.13 155.46 98.56 155.28 114.71 162.62 116.43 162.83 116.43 170.16 114.67 169.87 98.51 162.79 100.13 162.55 100.13"/><path class="cls-5" d="M163.08,201.15s-30.59.52-30.79-2.71c-.76-12.21,4.31-48.74,4.31-48.74s-20.6,15-20,10.59c.7-5.41-6.6-18.42-11-21.67-2.31-1.71,42.65-32.05,48.42-27.45a10.69,10.69,0,0,0,3.56,1.7,18,18,0,0,0,10.54,0,11,11,0,0,0,3.55-1.72c5.74-4.64,50.89,25.4,48.59,27.12-4.4,3.28-11.52,16.6-10.79,22,.6,4.44-20.19-10.71-20.19-10.71s4.3,36.3,3.61,48.52c-.18,3.23-29.76,3.1-29.76,3.1Z"/><path class="cls-7" d="M193.25,196.16c-1.51.5-64.77-2.82-61.71,2.66-7.1,38.78-5.54,78.57-5.24,117.82,1.48,39.58,2.88,80.69,15.18,118.37l.39.09,10.22.15a1.08,1.08,0,0,0,1-1.2c-5.44-61.33-3.24-123.85,10.13-184.07,13.91,60.29,16.2,122.92,11.35,184.46-.08,1.65,10.51.08,11.22.49,15.38-46,14.21-97.79,14.95-146.38C199.56,258.13,202,225,193.25,196.16Z"/><path class="cls-3" d="M129.23,220.57a8.53,8.53,0,0,1,2.32,3.66c.1.35,0,1.84-.76,1.51s-1.34-1.34-2.11-1.81-1.27-.78-1.93-1.14c-.48-.25-1-.47-1.44-.72-1.64-.88-6.22-3.36-3.72-5.54Z"/><path class="cls-3" d="M134.26,222.87c-.66.81-2.74-.87-3.49-1.34l-1.51-.94-.14-.08-.29-.18-.37-.22a30.55,30.55,0,0,0-2.72-1.47c-.27-.13-.55-.24-.85-.37a11.83,11.83,0,0,1-2.42-1.19h0c-.15-.1-.29-.21-.42-.31a3.22,3.22,0,0,1-.56-.61c-.27-.37.12-1.32.51-1.85a1.2,1.2,0,0,1,.17-.21l0,0,0,0,2.42.78h0l2.73.89,1.54.49,2.08.66,0,0,.7.21c.07.06.19.19.35.36h0C133.06,218.57,135.36,221.52,134.26,222.87Z"/><path class="cls-3" d="M122.25,209.76a.15.15,0,0,1-.08,0l.08,0Z"/><path class="cls-3" d="M122.21,214l2.42.78a8.22,8.22,0,0,1-2.22-.57h0a1.4,1.4,0,0,1-.24-.15l-.06,0a.1.1,0,0,1,.07,0l0,0Z"/><path class="cls-3" d="M134.94,217.48c-.72,1.23-2.07.48-2.84,0h0l-.46-.29-.59-.28,0,0c-.65-.29-1.34-.58-2.05-.83-.53-.19-1.06-.37-1.6-.53l0-.17a13.88,13.88,0,0,0-2.28-.71,9.91,9.91,0,0,1-2.51-.61,1.65,1.65,0,0,1-.69-.72,2.81,2.81,0,0,1-.39-1.67,4.49,4.49,0,0,1,.47-1.36,1.46,1.46,0,0,1,.17-.27c.32.18.65.31,1,.45,1.09.31,2.48.75,3.83,1.18l0-.28,2.57.89,2.14.73a0,0,0,0,0,0,0C132.78,213.5,135.67,216.24,134.94,217.48Z"/><path class="cls-9" d="M122.17,209.72c-.14-.07-.26-.15-.39-.23a.27.27,0,0,1,.27-.09c.25.08.27.2.2.35h0A.15.15,0,0,1,122.17,209.72Z"/><path class="cls-3" d="M122.25,209.75h0a.15.15,0,0,1-.08,0c-.14-.07-.26-.15-.39-.23a.27.27,0,0,1,.27-.09C122.3,209.48,122.32,209.6,122.25,209.75Z"/><path class="cls-3" d="M129.69,204.9l.07-.06S129.75,204.9,129.69,204.9Z"/><path class="cls-3" d="M135.55,214c-.3.23-2.52-.54-3.48-.89l-.45-.14v0l-2.19-.76c-.85-.3-1.72-.61-2.58-.89l0-.24c-1.25-.43-2.53-.85-3.64-1.17a6.36,6.36,0,0,1-1.53-.85,1.26,1.26,0,0,1-.59-1.06,2.31,2.31,0,0,1,.94-1.8,8.71,8.71,0,0,1,2-.77h0c1.11-.13,2.3-.15,3.24-.26h.18a12.88,12.88,0,0,0,2.14-.25.42.42,0,0,1,.19,0L127.25,207a.85.85,0,0,0,.3.37.94.94,0,0,0,.32.23,6.52,6.52,0,0,0,1.81.74l.28.07h0C132.55,209.12,138.13,212,135.55,214Z"/><path class="cls-9" d="M122.25,209.75h0a.15.15,0,0,1-.08,0c-.14-.07-.26-.15-.39-.23a.27.27,0,0,1,.27-.09C122.3,209.48,122.32,209.6,122.25,209.75Z"/><path class="cls-9" d="M129,220.42a1.2,1.2,0,0,1,.21.17,2.9,2.9,0,0,1-.59-.26l-.12-.06c-1.49-.76-1.79-.85-2.39-1.14-1.47-.68-3.16-1.12-4.34-2.24a1.88,1.88,0,0,1-.25-.24,1.37,1.37,0,0,1-.34-.54,1.59,1.59,0,0,1,.1-.89,3.35,3.35,0,0,1,.49-.86s.09-.1.14-.15a3.3,3.3,0,0,1-.7-1l0-.09a3.2,3.2,0,0,1,.06-2.59,3,3,0,0,1,.43-.78,2.3,2.3,0,0,1-1.11-1.41,2.77,2.77,0,0,1,1.29-2.65,5.84,5.84,0,0,1,1.41-.41.19.19,0,0,1,.15,0l.08,0,.17,0,.3.1h0a8.71,8.71,0,0,0-2,.77,2.31,2.31,0,0,0-.94,1.8,1.26,1.26,0,0,0,.59,1.06,6.36,6.36,0,0,0,1.53.85c1.11.32,2.39.74,3.64,1.17,1,.33,1.86.67,2.63,1a15.32,15.32,0,0,1,2.17.92v0h0a0,0,0,0,1,0,0,20.72,20.72,0,0,1-2.16-.55c-.76-.23-1.63-.5-2.52-.79-1.35-.43-2.74-.87-3.83-1.18-.31-.14-.64-.27-1-.45a1.46,1.46,0,0,0-.17.27,4.49,4.49,0,0,0-.47,1.36,2.81,2.81,0,0,0,.39,1.67,1.65,1.65,0,0,0,.69.72,9.91,9.91,0,0,0,2.51.61,13.88,13.88,0,0,1,2.28.71c.52.19,1,.41,1.62.64l.26.1c.76.3,1,.41,1.71.75l.08,0,0,0c.28.16.65.39,1,.55-.35-.12-1.71-.65-3.09-1.13-.53-.19-1-.36-1.52-.51l-.36-.12a31.8,31.8,0,0,0-3.48-.78,4.7,4.7,0,0,1-1.22-.39,2.08,2.08,0,0,0-.3.38,1.77,1.77,0,0,0-.35,1.08c0,.14.16.24.25.35a5.58,5.58,0,0,0,1.06.9c.15.1.31.21.47.3l0,0c.23.14.47.26.71.38l.06,0,.28.13a26.4,26.4,0,0,1,3.91,2l.37.24.11.08Z"/><path class="cls-10" d="M155.34,102.87V104l14.58-1.92,0-3.09-14.42,0"/><path class="cls-7" d="M130.14,154.2c.19-.18,7.11-14.37,7.11-14.37l-.65,9.88S130,154.38,130.14,154.2Z"/><path class="cls-7" d="M195.7,154c-.19-.18-7.11-14.37-7.11-14.37l.65,9.88S195.89,154.22,195.7,154Z"/><path class="cls-3" d="M334.06,310.79c.09,25.26-.51,50.58-2.89,75.75-1.73,17.7-4.26,35.46-9.6,52.47l-6.33.22c-.42-23,1.55-46.71.78-70A510.46,510.46,0,0,0,307.56,291c-.87-4.52-1.82-9-2.84-13.52-.37-1.6-.75-3.24-1.14-4.83a11.79,11.79,0,0,0-.5-1.76,1,1,0,0,0-1.51,0C299.7,277.86,298.39,285,297,292a513.86,513.86,0,0,0-7.8,78.09c-.59,23,1.17,46.15,1.15,69.13l-6.25-.11a223.25,223.25,0,0,1-8.32-38.8c-2.26-16.7-3.46-33.54-4.19-50.38-.87-20.48-1-41.05-.61-61.55.19-10.06.51-20.15,1-30.2.39-5.22,1.3-11.14,1.81-16.34h0c.62-4.17,1.3-8.37,2.1-12.51l52.52-.19c1.34,6.59,2.35,13.34,3.1,20A169.94,169.94,0,0,1,333,267.62Q333.93,289.18,334.06,310.79Z"/><polygon class="cls-3" points="302.94 130.85 295.31 128.8 295.12 149.91 303.03 152.16 303.26 152.16 311.15 149.85 310.83 128.75 303.21 130.85 302.94 130.85"/><path class="cls-10" d="M295.3,129.26s-.13,2.58-.13,3.06v.89l15.72-1.51v-2.46l-15.58,0Z"/><path class="cls-11" d="M333.77,211.84c-.3-1.29-30.59-.27-30.59-.27l-30.25.27c-3.42,3-6.37,127-5.52,129.09,13.63,10.86,57.84,10.86,71.47,0C339.44,338.69,335.43,220.92,333.77,211.84Z"/><polygon class="cls-12" points="296.28 148.82 303.15 148.82 303.19 213.46 298.33 213.46 294.4 149.47 296.28 148.82"/><path class="cls-5" d="M303.94,62.38c31.56,1.33,35.4,15.82,34.95,24.16a73.18,73.18,0,0,0,.8,16.2c.11.7.23,1.42.35,2.13.28,1.74-.55,3.75-1.87,5.73a23.09,23.09,0,0,1-19.35,9.93l-30.51-.17a23.17,23.17,0,0,1-18-8.5c-1.88-2.35-3.21-4.85-2.86-7,.22-1.43.47-2.86.7-4.22a51.76,51.76,0,0,0,.49-13.39c-.7-8.2,2.41-23.51,34.9-24.88Z"/><path class="cls-3" d="M303.53,81a97,97,0,0,1,15.05-.4c8.52.45,8.24,12.07,8.24,12.07s-1.64,28.58-2.19,29.36-6.4,7.64-21.1,7.64h0c-14.71,0-20.51-6.8-21.11-7.64s-2.19-29.36-2.19-29.36-.28-11.62,8.24-12.07a97.16,97.16,0,0,1,15.06.4Z"/><ellipse class="cls-13" cx="290.08" cy="102.53" rx="7.69" ry="8.75"/><ellipse cx="290.08" cy="102.53" rx="1.55" ry="3.01"/><path class="cls-14" d="M297.82,101.28a44.65,44.65,0,0,1,5.36-.62"/><ellipse class="cls-13" cx="316.28" cy="102.53" rx="7.69" ry="8.75"/><ellipse cx="316.28" cy="102.53" rx="1.55" ry="3.01"/><path class="cls-14" d="M308.53,101.28a44.41,44.41,0,0,0-5.35-.62"/><path class="cls-15" d="M293.23,115.05a2.16,2.16,0,0,0-2.27,2.16"/><path class="cls-15" d="M313.16,116.44c-1.76,1.76-18.2,1.76-20,0"/><path class="cls-15" d="M313.12,115.05a2.16,2.16,0,0,1,2.27,2.16"/><path class="cls-3" d="M281.65,100.6c0,2.81.25,6.29-2.28,6.29s-6.87-3.48-6.87-6.29a4.6,4.6,0,1,1,9.15,0Z"/><path class="cls-3" d="M325.19,100.6c0,2.81-.25,6.29,2.28,6.29s6.87-3.48,6.87-6.29a4.6,4.6,0,1,0-9.15,0Z"/><path class="cls-5" d="M303.09,61.84c.26,0,18-.26,18-8.65s-14.12-9.84-17.87-9.84h0c-3.74,0-17.87,1.45-17.87,9.84s17.69,8.65,17.95,8.65Z"/><path class="cls-16" d="M325.71,79.72a1.58,1.58,0,0,0-1.19-.75l-20.86-2h0l-20.09,2a1.58,1.58,0,0,0-1.2.77l-4.92,8.54a1.54,1.54,0,0,0,1.26,2.29h0a1.57,1.57,0,0,0,1.46-.77c1.11-1.87,4.53-6.11,12.17-4.39,4.71,1.06,8.05-1.51,11.32-1.51s6.86,2.57,11.74,1.51c7.95-1.73,11.5,2.56,12.63,4.42a1.56,1.56,0,0,0,1.44.74h.09a1.53,1.53,0,0,0,1.25-2.31Z"/><ellipse class="cls-17" cx="303.17" cy="61.98" rx="6.4" ry="1.17"/><path class="cls-1" d="M303.15,110.44c-.75-.07-2.22-.21-2.42-.53s.37-1.44.76-2.15a19.56,19.56,0,0,1,1.49-2.05.28.28,0,0,1,.41,0,19.88,19.88,0,0,1,1.5,2c.39.71,1.05,1.7.77,2.14s-1.77.47-2.51.55Z"/><path class="cls-12" d="M257.93,238.9c1.08.6,8.64,3.25,8.8,2.57,1.42-5.82,1-8.93,1.46-14.64.07-1-5.29-5-7.83-6C259.91,227.28,258.74,232.54,257.93,238.9Z"/><path class="cls-7" d="M258.05,238c-53.25-58.77,12.08-98.37,33.24-101.27,4.29,16.78,9.32,30.32,12.12,47a27.89,27.89,0,0,1,0,4.92c-2.14,8.32-2.73,24.86-3.89,31.79-1.57,9.35.91,9.9-6.5,13.38-5.87,2.76-14.78,4.33-21.64,5.94-1.39.33-1.57-1.3-1.75-2.29-1.53-8.38,13.07-62.89.42-65.82-15.87-3.67-25.75,35.62-9.77,50.57C260.17,225.83,260.28,231.82,258.05,238Z"/><polygon class="cls-18" points="294.5 135.29 275.22 142.01 287.73 150.66 282.6 154.05 303.17 188.34 303.17 182.66 294.5 135.29"/><path class="cls-3" d="M272.56,221.84l-1.22,4.08-.76,4.22-2.15-.79.6-2.2h0a.82.82,0,0,0,.1-.44,7.94,7.94,0,0,1,0-1,4.9,4.9,0,0,0-.13,1.11h.05l-.1.33c-.12.13-.41.13-.48,0s0-.58.05-.76l0-.22a5.07,5.07,0,0,1,1.1-2.3,4.13,4.13,0,0,0,.34-1.62,9.34,9.34,0,0,0-.3-2.58c-.16-.54-.58-1-.58-1.59a.79.79,0,0,1,.83-.49,2.66,2.66,0,0,1,2.43,1.8,1.88,1.88,0,0,1,.09.7v.06Z"/><path class="cls-3" d="M269.21,225.72a7.94,7.94,0,0,0,0,1,.82.82,0,0,1-.1.44h0l.1-.33h-.05A4.9,4.9,0,0,1,269.21,225.72Z"/><path class="cls-3" d="M269.21,225.72a7.94,7.94,0,0,0,0,1,.82.82,0,0,1-.1.44h0l.1-.33h-.05A4.9,4.9,0,0,1,269.21,225.72Z"/><path class="cls-3" d="M270.35,241.81a8.35,8.35,0,0,1,2.08,3.49c.08.33,0,1.76-.69,1.44s-1.2-1.27-1.88-1.73-1.14-.74-1.74-1.08c-.42-.24-.86-.45-1.29-.69-1.47-.83-5.57-3.2-3.33-5.28Z"/><path class="cls-3" d="M264.06,235.59c-.39.39-.95,1.59-.66,2,.83,1.23,2.59,1.75,3.82,2.36a42.06,42.06,0,0,1,4.51,2.75c.67.45,2.53,2,3.12,1.28,1.15-1.51-1.83-5.07-2.26-5.5Z"/><path class="cls-9" d="M270.38,241.84a20.87,20.87,0,0,0-4.2-2.44,7.44,7.44,0,0,1-2.37-1.67,1,1,0,0,1-.23-.35,1.74,1.74,0,0,1,.32-1,3.5,3.5,0,0,1,.33-.43.26.26,0,0,0-.2-.38c-.19,0-.3.17-.4.3a3.17,3.17,0,0,0-.45.83,1.54,1.54,0,0,0-.1.85,1.4,1.4,0,0,0,.31.51c1.08,1.25,2.73,1.69,4.16,2.41.56.28.83.35,2.28,1.14A2.53,2.53,0,0,0,270.38,241.84Z"/><path class="cls-3" d="M263.87,231.42a3.92,3.92,0,0,0-.68,1.49,3,3,0,0,0,.64,2.56c.52.66,2.14.78,3,1a24.43,24.43,0,0,1,5.69,2.13c.42.23,2.15,1.78,3,.29.66-1.18-1.93-3.78-3-4.3Z"/><path class="cls-9" d="M272.9,238.86a10.55,10.55,0,0,1-1-.63c-.64-.31-.86-.42-1.54-.7a22.61,22.61,0,0,0-3.73-1.39,8.21,8.21,0,0,1-2.24-.58,1.54,1.54,0,0,1-.62-.69,2.91,2.91,0,0,1-.35-1.58,4.62,4.62,0,0,1,.43-1.3c.1-.26.59-.65.11-.83-.18,0-.29.14-.38.27a3.79,3.79,0,0,0-.39.78,3.21,3.21,0,0,0-.07,2.47l0,.09a3.21,3.21,0,0,0,.64,1,3.53,3.53,0,0,0,1.49.63,23.62,23.62,0,0,1,3.12.75c1.64.52,4.22,1.61,4.5,1.69Z"/><path class="cls-3" d="M270.82,226.83c0,.11-.15,0-.23,0a12.06,12.06,0,0,1-2.08.25,20.5,20.5,0,0,0-4.5.61,2.36,2.36,0,0,0-1.17,2.57c.27.82,1.76,1.56,2.52,1.78,2.49.7,5.1,1.74,7.53,2.64.86.32,2.85,1.06,3.12.84,2.41-2-3.15-4.91-5.26-5.43-.6-.15-2-.67-2.18-1.28Z"/><path class="cls-9" d="M270.42,229.8l-.3-.17a2.17,2.17,0,0,0-.67-.11,1,1,0,0,1-.76-.45c-.15-.16-.37-.45-.38-.24a.73.73,0,0,0,.21.44c.66.69.73.42,1.62.68l.24.07C270.4,229.91,270.41,229.89,270.42,229.8Z"/><path class="cls-9" d="M264.92,231.65a5.5,5.5,0,0,1-1.36-.81,1.27,1.27,0,0,1-.54-1,2.31,2.31,0,0,1,.84-1.72,8.4,8.4,0,0,1,1.75-.73l-.29-.1a.69.69,0,0,0-.36-.05,5,5,0,0,0-1.27.38,2.72,2.72,0,0,0-1.16,2.53c.21,1.07,1.39,1.63,2.29,2,2.38.72,6.36,2.21,7.67,2.41A54.28,54.28,0,0,0,264.92,231.65Z"/><polygon class="cls-12" points="310.06 148.82 303.19 148.82 303.15 213.46 308 213.46 311.94 149.47 310.06 148.82"/><path class="cls-12" d="M291.05,425H279.14s-.64,10.4-2.61,11.43S263.6,441.6,263.6,443v2.16h18.64s.94-5.16,2.35-5.16,1.31,5,1.68,5h3.94S291.47,424.59,291.05,425Z"/><path class="cls-12" d="M314.32,425h11.91s.64,10.4,2.61,11.43,12.93,5.16,12.93,6.56v2.16H323.12s-.93-5.16-2.34-5.16-1.31,5-1.69,5h-3.93S313.89,424.59,314.32,425Z"/><path class="cls-7" d="M341.9,168c-14.48-6-1.74,62.45-3.27,70.83-.18,1-.36,2.61-1.75,2.29-6.86-1.62-15.77-3.18-21.64-5.94-7.41-3.49-4.93-4-6.5-13.38-1.16-6.94-1.75-23.47-3.89-31.79a28,28,0,0,1,0-4.93c2.8-16.67,5.74-28.52,10-45.3,9.14,1.26,21,2.59,37.38,13.06,1.91.31,34.63,21.74,55.48-30.12C415.46,103.51,420,121,420,121S410.25,196.25,341.9,168Z"/><polygon class="cls-18" points="311.84 135.29 331.11 142.01 318.61 150.66 323.74 154.05 303.16 188.34 303.17 182.66 311.84 135.29"/><circle class="cls-16" cx="303.21" cy="186.68" r="2.73"/><path class="cls-2" d="M412.69,202.05l-1.53,4.57-.4,4.68-3.25-.84.75-2.44c-.16.12-.52.29-.61.12s-.78-1.54,1.48-3.85a3.92,3.92,0,0,0,.43-1.81,9.81,9.81,0,0,0-.37-2.89c-.21-.6-.72-1.14-.72-1.78.1-.4.61-.55,1-.54a3.31,3.31,0,0,1,3.05,2,2.22,2.22,0,0,1,.12.77v.07Z"/><path class="cls-12" d="M448.54,243.65h0l.05,0Z"/><path class="cls-12" d="M410.72,240.75c0,.4-.05.79-.07,1.19C410.66,241.54,410.69,241.15,410.72,240.75Z"/><path class="cls-12" d="M450.18,243.67a1.33,1.33,0,0,0-2.05.5c.08-.29.16-.63.47-.74,0,0,0,0,0,0A1.37,1.37,0,0,1,450.18,243.67Z"/><path class="cls-12" d="M450.44,244.34a1.83,1.83,0,0,1-.26-.67A4.06,4.06,0,0,1,450.44,244.34Z"/><path class="cls-12" d="M486.58,212.39c-1.14-4-.83-15.7-3.74-17.67l-67.62.23c-1.34.15-1.26,1.52-1.53,2.44-10,77.49-11.88,162.73,11.58,237.2l11.46.15c-2.47-60.46-3.89-125.56,12.51-186C464.83,309.26,467.4,372.1,462,433.92c-.09,1.66,11.77.08,12.56.49C497.14,364.45,492.52,285.26,486.58,212.39Z"/><path class="cls-19" d="M436,109c.11,0,24.31-.06,24.63,0s-3.64,2.78-3.64,2.78-11.49,1.12-11.64,1.06l-7.54-3.51Z"/><polygon class="cls-2" points="448.54 107.42 441.43 106.74 441.21 113.93 448.58 114.68 448.79 114.68 456.15 113.88 455.89 106.69 448.79 107.42 448.54 107.42"/><path class="cls-12" d="M412.93,215.65c-.15,1.29-.3,2.58-.44,3.86C412.51,219.4,412.9,215.77,412.93,215.65Z"/><path class="cls-12" d="M413.51,211.07c-.15,1.38-.33,2.79-.53,4.23C413.14,213.89,413.32,212.48,413.51,211.07Z"/><path class="cls-12" d="M485.82,219.21c-.75-5.57-1.59-11.14-2.66-16.64C484.26,208.08,485.14,213.64,485.82,219.21Z"/><path class="cls-12" d="M486.66,226.68c-.19-1.93-.4-3.87-.63-5.79C486.27,222.82,486.47,224.75,486.66,226.68Z"/><path class="cls-1" d="M587.94,116.67c-11.1,36.88-38.5,45.14-67.05,45-18.2-.13-39.91-13.6-39.68-15.41.26-2.08,4.61,51.74,5.12,63.86.15,3.66-76,4.1-75.73.45,1.21-15.2,3.49-55.93,3.44-56.94a80.88,80.88,0,0,0,.14-9.16c-10.61,1.68-26.07,14.73-27.15,28.41-1.84,23.12,9,34.54,16.17,35.82l.79,13c-36-10.83-38.2-39.47-34.67-58.78,4.16-22.65,34.1-42.56,37.8-45a5.51,5.51,0,0,1,.85-.49c11-5.38,28.29-10,30.86-7.93,3.2,2.57,9.9,3,9.9,3s6.69-.47,9.87-3.07c2.57-2.09,16.51,3.35,27.11,10.09,4.68,2.45,17.45,22.74,42.54,22.21,23.18-.49,47-17,47.38-24.24Z"/><path class="cls-20" d="M428.61,222.24s-4.88,10.56-10.56,13.86Z"/><path class="cls-20" d="M468.13,222.24S473,232.8,478.69,236.1Z"/><path class="cls-19" d="M410.61,210.56l.48,2.6c3.19,2.09,72.27,2,75.11-.42a20.8,20.8,0,0,0,.1-2.57s-50.84,1.58-51.87,1.66S410.61,210.56,410.61,210.56Z"/><path class="cls-2" d="M411.11,224.43a9.12,9.12,0,0,1,2.61,3.91c.1.37-.05,2-.86,1.6s-1.5-1.42-2.36-1.93c-.71-.42-1.42-.83-2.17-1.21-.53-.27-1.08-.5-1.61-.77-1.84-.94-7-3.59-4.16-5.92Z"/><path class="cls-2" d="M403.25,217.45c-.48.44-1.19,1.78-.82,2.28,1,1.37,3.23,2,4.77,2.64a53.67,53.67,0,0,1,5.64,3.09c.84.49,3.17,2.28,3.9,1.43,1.44-1.69-2.28-5.68-2.82-6.17Z"/><path class="cls-21" d="M411.15,224.46a26.69,26.69,0,0,0-5.24-2.73,9.62,9.62,0,0,1-3-1.88,1.37,1.37,0,0,1-.29-.39,1.89,1.89,0,0,1,.41-1.16,4.42,4.42,0,0,1,.4-.48.28.28,0,0,0-.24-.42c-.24,0-.37.19-.51.33a3.84,3.84,0,0,0-.56.93,1.56,1.56,0,0,0-.12,1,1.53,1.53,0,0,0,.39.58c1.35,1.4,3.41,1.9,5.19,2.69.71.32,1,.4,2.85,1.29A5.09,5.09,0,0,0,411.15,224.46Z"/><path class="cls-2" d="M403,212.78a4.2,4.2,0,0,0-.85,1.67,3.15,3.15,0,0,0,.79,2.87c.66.74,2.69.88,3.71,1.1a32.4,32.4,0,0,1,7.12,2.39c.53.26,2.7,2,3.72.32.82-1.32-2.42-4.24-3.75-4.81Z"/><path class="cls-21" d="M414.31,221.11a11.08,11.08,0,0,1-1.3-.69c-.81-.36-1.07-.47-1.92-.79a29.73,29.73,0,0,0-4.67-1.55,12.11,12.11,0,0,1-2.81-.66,1.71,1.71,0,0,1-.76-.77,2.83,2.83,0,0,1-.44-1.78,4.61,4.61,0,0,1,.53-1.45c.13-.29.73-.73.14-.92-.23-.05-.36.14-.47.29a3.84,3.84,0,0,0-.5.88,3.27,3.27,0,0,0-.08,2.77l.05.1a3.38,3.38,0,0,0,.8,1.13,4.61,4.61,0,0,0,1.86.7,34,34,0,0,1,3.91.84c2,.59,5.27,1.8,5.63,1.9Z"/><path class="cls-19" d="M485.18,149.78l-5.09-16.88s1.23,13.61,1.24,13.63A10.61,10.61,0,0,0,485.18,149.78Z"/><path class="cls-19" d="M408.93,146c0-.08,5.95-13.5,5.95-13.5s-.55,11.88-.65,11.88A38.37,38.37,0,0,0,408.93,146Z"/><path class="cls-2" d="M410.31,208.44c.06.12.13-.67,0-.65a6,6,0,0,1-1.52.18c-1.67.17-4.05.14-5.62.68a2.57,2.57,0,0,0-1.48,2.88c.35.92,2.21,1.74,3.16,2,3.11.78,6.38,1.95,9.41,3,1.08.36,3.57,1.19,3.91.94,3-2.2-3.92-5.64-6.56-6.22-.74-.17-2.49-.61-2.75-1.3Z"/><path class="cls-21" d="M410,210.65a1.31,1.31,0,0,1-1-.5c-.18-.18-.45-.51-.47-.27a.82.82,0,0,0,.26.49c.83.78.77.45,1.34.53a3,3,0,0,1,.53.07C410.72,210.84,410.28,210.69,410,210.65Z"/><path class="cls-21" d="M404.33,213a7.3,7.3,0,0,1-1.7-.91A1.36,1.36,0,0,1,402,211a2.73,2.73,0,0,1,1-2.11,1.71,1.71,0,0,1,.8-.38c-.15-.05-.39,0-.89.18a2.71,2.71,0,0,0-1.48,2.66c.26,1.19,1.73,1.82,2.86,2.27,3,.81,7.95,2.48,9.59,2.7A71.77,71.77,0,0,0,404.33,213Z"/><path class="cls-22" d="M412.84,147.92c.58.18,38.06,8,68.83.56"/><path class="cls-22" d="M412.84,159c.58.18,39.43,7.83,70.19.37"/><path class="cls-22" d="M410.71,170.47c.6.18,41.46,7.83,73.82.37"/><path class="cls-22" d="M410.61,180.73c.61.18,43.05,7.83,75.41.37"/><polygon class="cls-23" points="441.49 105.1 441.39 108.09 455.88 107.72 455.87 105.09 441.49 105.1 441.49 105.1"/><ellipse class="cls-24" cx="417.66" cy="74.89" rx="4.93" ry="6.46"/><ellipse class="cls-24" cx="479.19" cy="74.89" rx="4.93" ry="6.46"/><path class="cls-6" d="M448.42,28.37c12.92-.28,10.73,5.06,12.84,5.32,1.94.25,5-3.29,14.5,4.09s3.25,17.71,4.38,17.78,3.76,2.3,3.76,8.85-7.6,10.3-7.6,10.3,5.72,15.35-3.16,24.08-24.6,7.67-24.6,7.67h-.23s-15.72,1.06-24.6-7.67-3.16-24.08-3.16-24.08S413,71,413,64.41s2.29-8.58,3.42-8.66-4.75-10.61,4.72-18,12.55-3.84,14.5-4.09c2.1-.26-.08-5.6,12.84-5.32Z"/><path class="cls-2" d="M448.42,85.11c.42-.06,19.66,3.38,19.66-6.77a74.09,74.09,0,0,0-.85-11.78,15,15,0,0,1,.48-6.59c.77-2.57.92-6-3.25-7-4.78-1.1-4,.36-7.6,4.08-2.77,2.89-14.11,2.89-16.88,0-3.56-3.72-2.82-5.18-7.6-4.08-4.16,1-4,4.43-3.25,7a14.73,14.73,0,0,1,.48,6.59,75.58,75.58,0,0,0-.84,11.78c0,10.15,19.23,6.71,19.66,6.77Z"/><path class="cls-25" d="M448.15,76.73l-1.85,5.59a.29.29,0,0,0,.28.38h3.7a.29.29,0,0,0,.28-.38l-1.85-5.59A.29.29,0,0,0,448.15,76.73Z"/><ellipse class="cls-11" cx="434.71" cy="72.05" rx="2.2" ry="3.73"/><path class="cls-26" d="M439.88,74.38s.53,1.89-1.89,3.21"/><ellipse class="cls-11" cx="462.14" cy="72.05" rx="2.2" ry="3.73"/><path class="cls-26" d="M457,74.38s-.52,1.89,1.9,3.21"/><path class="cls-27" d="M452.92,92.38c0,1.9-9,1.9-9,0"/><path class="cls-12" d="M609,245.08h0v0l.06-.05Z"/><path class="cls-12" d="M571.63,242.22c0,.4,0,.78-.07,1.17C571.58,243,571.6,242.61,571.63,242.22Z"/><path class="cls-12" d="M610.59,245.11a1.32,1.32,0,0,0-2,.49c.08-.29.16-.62.47-.74,0,0,0,0,0,0A1.34,1.34,0,0,1,610.59,245.11Z"/><path class="cls-12" d="M610.85,245.77a2.07,2.07,0,0,1-.26-.66A3.63,3.63,0,0,1,610.85,245.77Z"/><path class="cls-5" d="M646.53,214.22c-1.12-3.92-.82-15.5-3.7-17.44l-66.76.22c-1.32.15-1.24,1.5-1.5,2.41C564.65,275.92,562.84,360.08,586,433.6l11.32.15c-2.44-59.69-3.83-124,12.36-183.64,15.38,59.76,17.93,121.79,12.55,182.83-.09,1.64,11.63.08,12.41.48C657,364.35,652.39,286.17,646.53,214.22Z"/><path class="cls-28" d="M654,221.18l-.34.14-.55.23h0q-2.75,1.11-5.82,2.06l-.42.13.25-2.25,0-.45v-.1l0-.2,0-.2.43-3.87,0-.31v0l0-.25.4-3.66.13-1.21,0-.49a9.05,9.05,0,0,0,2.1-.65c6.53-2.87,13.32-13.9,13.22-34.57-.06-12.81-8.81-22-17.63-26.46a30.87,30.87,0,0,0-4.78-1.93c0,.13,0,.27,0,.4v0c0,1.79,2.8,32.81,4.27,52,.41,5.37.72,9.8.83,12.41a.38.38,0,0,1-.15.28,2.25,2.25,0,0,1-.8.41,6.75,6.75,0,0,1-.7.2h0c-9.65,2.41-58.08,2.77-70.28.62-.42-.06-.78-.14-1.11-.22l-.31-.08-.34-.1h0a2.75,2.75,0,0,1-.82-.38.46.46,0,0,1-.2-.3c-.19-3.1-.12-7.64.11-12.83.77-17.62,3.32-42.61,3.28-43.39a78.76,78.76,0,0,0,.14-9,15,15,0,0,0-1.87.41h0c-.41.11-.83.23-1.24.37l-.45.15c-10.05,3.56-22.26,15.09-23.22,27.13-1.81,22.82,8.24,34,15.32,35.22l0,.32v.16l0,.14.35,3.19v.11l0,.26v0h0l0,.31V215l.45,4.11,0,.17,0,.17,0,.33.27,2.54,0,.16v.15l0,.37,0,.37c-.72-.22-1.41-.44-2.1-.68-33.56-11.16-35.55-38.68-32.12-57.36,4.1-22.36,33.66-42,37.31-44.45a7,7,0,0,1,.83-.49c5.67-2.76,12.68-6.26,18.77-7.79,1.69-.43,3.6.16,5.05-.08,3-.52,5.27-.62,6.33-.14a1,1,0,0,1,.33.18,9.33,9.33,0,0,0,2.12,1.25l.74.3v.15a4.47,4.47,0,0,0,1,2.46,4.39,4.39,0,0,0,.76.73l6.1,4.54v2.07h.18V122l6.1-4.54a4.39,4.39,0,0,0,.76-.73,4.46,4.46,0,0,0,1-2.46l.14-1.38a5,5,0,0,0,.44-.32l.08-.06a3.75,3.75,0,0,1,2.6-.41,27.6,27.6,0,0,1,6.08,1.5c1,.35,2.76-.18,3.88.28,4.73,1.91,9.48,5.59,14.2,8.58,10.5,5.51,31.39,21.24,35.43,43.22C684.34,183.4,682.73,209,654,221.18Z"/><path class="cls-20" d="M589.3,224s-4.83,10.43-10.43,13.68Z"/><path class="cls-20" d="M628.31,224s4.82,10.43,10.43,13.68Z"/><path class="cls-19" d="M646,149.06c0-.07-5.86-13.32-5.86-13.32s1,11.77,1.06,11.8A33.07,33.07,0,0,1,646,149.06Z"/><path class="cls-19" d="M569.87,148.62c0-.07,5.87-13.33,5.87-13.33S575.2,147,575.1,147A37.7,37.7,0,0,0,569.87,148.62Z"/><path class="cls-7" d="M609.36,220c29.19,0,37.62-4.93,37.62-4.93l-1.14-10.43s-7.29,4.66-36.48,4.66h-.91c-29.2,0-37-4.85-37-4.85L571.21,215s8,5,37.24,5Z"/><rect class="cls-29" x="605.76" y="207.74" width="9.15" height="13.45" rx="0.43"/><path class="cls-4" d="M610.33,57.05H633s-.19,38.46,0,38.77-7.1,4.94-22.66,4.94-22.84-4.63-22.65-4.94,0-38.77,0-38.77Z"/><ellipse class="cls-11" cx="598.95" cy="70.47" rx="1.89" ry="3.66"/><ellipse class="cls-11" cx="621.65" cy="70.47" rx="1.89" ry="3.66"/><path class="cls-30" d="M602.87,91.36c0,1.87,14.94,1.87,14.94,0"/><path class="cls-30" d="M609.86,78.85c.21-.64.74-.64.94,0l.76,2.32.76,2.31c.21.65-.06,1.45-.48,1.45h-3c-.42,0-.68-.8-.47-1.45l.76-2.31Z"/><path class="cls-17" d="M575,39.63s-6.46,17.42,12.21,17.42h43.23V72h5.4V47.67a19,19,0,0,0-5.94-14c-3.83-3.55-9.94-6.77-19.52-6.77-18.62,0-24.55,9-25.74,11.28A6.11,6.11,0,0,1,583.23,40C581.82,41.21,579.07,42.47,575,39.63Z"/><rect class="cls-17" x="583.86" y="49.12" width="5.53" height="22.92"/><path class="cls-31" d="M588.82,72.53c0,3.15.07,8-2.41,8s-6.54-4.8-6.54-8,2-5.71,4.48-5.71S588.82,69.37,588.82,72.53Z"/><path class="cls-31" d="M630.84,72.53c0,3.15-.06,8,2.41,8s6.54-4.8,6.54-8-2-5.71-4.47-5.71S630.84,69.37,630.84,72.53Z"/><path class="cls-4" d="M618.48,112l-.09.91-.14,1.38a4.46,4.46,0,0,1-1,2.46,4.39,4.39,0,0,1-.76.73l-6.1,4.54v2.07h-.18V122l-6.1-4.54a4.39,4.39,0,0,1-.76-.73,4.47,4.47,0,0,1-1-2.46v-.15l-.13-1.24a18.48,18.48,0,0,0,8.23,1.81A12.9,12.9,0,0,0,618.48,112Z"/><path class="cls-32" d="M604.07,117.48l6.1,4.54v2.07h-.38a42.12,42.12,0,0,1-6.31-.52,26.67,26.67,0,0,1-8.23-2.61c-5.15-2.71-6.86-6.34-7.27-7.39-.07-.19-.1-.3-.1-.3a48.67,48.67,0,0,1,7.52-2.14,8.67,8.67,0,0,1,2.09-.12,5.11,5.11,0,0,1,1.42.36c.79.3,1.63.76,2.6,1.24l.61.29.13,1.24v.15a4.47,4.47,0,0,0,1,2.46A4.39,4.39,0,0,0,604.07,117.48Z"/><path class="cls-32" d="M630.94,114.41s0,.16-.09.43c-.31,1.08-1.44,4-5.53,6.21a24.16,24.16,0,0,1-8.26,2.58,43.79,43.79,0,0,1-6.34.46h-.37V122l6.1-4.54a4.39,4.39,0,0,0,.76-.73,4.46,4.46,0,0,0,1-2.46l.14-1.38.09-.91.35-.28a10.25,10.25,0,0,0,2-2.26h0l.39.19,6.51,3.22Z"/><path class="cls-5" d="M627.82,112.88l-.23.74-2.27,7.43-4.1,13.39-4.16-10.81-.59-1.51-5.75,2h-.39l0-2.07,6.1-4.54a4.39,4.39,0,0,0,.76-.73,4.46,4.46,0,0,0,1-2.46l.14-1.38.09-.91.35-3.47,2.27.45-.18.49.38.18,1.7.76Z"/><path class="cls-33" d="M616.47,122.12s9.8-13.59,2.36-13.59"/><path class="cls-5" d="M610.35,122l0,2.07h-.54l-5.75-2-.56,1.45-4.19,10.87-4-13.48-2.52-8.41-.29-1,2.73-.88,2.34-.76,1.51-.76,2.49-.59.18-.08.43,4.37.13,1.24v.15a4.47,4.47,0,0,0,1,2.46,4.39,4.39,0,0,0,.76.73Z"/><path class="cls-33" d="M604.05,122.12s-9.81-13.59-2.36-13.59"/><path class="cls-4" d="M572,226.1a8.94,8.94,0,0,1,2.57,3.86c.11.37-.05,1.95-.85,1.59s-1.48-1.4-2.32-1.9-1.41-.83-2.14-1.2c-.53-.27-1.07-.5-1.59-.76-1.82-.93-6.88-3.55-4.11-5.84Z"/><path class="cls-4" d="M564.26,219.22c-.48.43-1.18,1.76-.81,2.24,1,1.36,3.19,1.94,4.71,2.62a53.26,53.26,0,0,1,5.57,3c.82.49,3.13,2.25,3.85,1.41,1.42-1.66-2.25-5.61-2.79-6.08Z"/><path class="cls-34" d="M566.88,223.44a10.29,10.29,0,0,1-3.15-1.65c-.16,0-.15.06-.28.17,1.33,1.32,3.39,1.85,5.12,2.62.69.31,1,.4,2.81,1.27a3,3,0,0,0,.68.28A26.83,26.83,0,0,0,566.88,223.44Z"/><path class="cls-4" d="M564,214.61a4.16,4.16,0,0,0-.84,1.65,3.1,3.1,0,0,0,.78,2.83c.65.73,2.65.86,3.67,1.09a31.75,31.75,0,0,1,7,2.35c.52.26,2.66,2,3.67.32.81-1.3-2.39-4.19-3.7-4.75Z"/><path class="cls-34" d="M573.89,222.15c-.79-.35-1.06-.47-1.9-.79a30.63,30.63,0,0,0-4.6-1.53,25.89,25.89,0,0,1-2.8-.43l-.4-.12s0,0-.11.13l.14.11a3.2,3.2,0,0,0,1.51.61,33.51,33.51,0,0,1,3.86.82c2,.58,5.2,1.78,5.55,1.88h0A13.79,13.79,0,0,1,573.89,222.15Z"/><path class="cls-4" d="M571.32,210.45a6.5,6.5,0,0,0,0-.77c-.9.06-.68.08-1.57.17a29.25,29.25,0,0,0-5.56.67,2.54,2.54,0,0,0-1.45,2.85c.34.91,2.18,1.72,3.12,2,3.07.78,6.3,1.93,9.29,2.93,1.07.35,3.53,1.17,3.85.93,3-2.18-7.75-5.32-7.75-6.5C571.26,211.87,571.32,210.45,571.32,210.45Z"/><path class="cls-34" d="M565.33,214.86c-.33-.13-1-.13-1.31-.29-.08.14-.08.11-.16.24a12.25,12.25,0,0,0,1.34.62c2.93.8,7.85,2.44,9.46,2.67A69.18,69.18,0,0,0,565.33,214.86Z"/><path class="cls-35" d="M571.5,213.06c-.13,0-.92-.41-1.72-.67a10.83,10.83,0,0,0-3.9-.64l.32-.19a7.89,7.89,0,0,1,4.16.48,1.76,1.76,0,0,1,.81.56l.23.35S571.52,213.06,571.5,213.06Z"/><path class="cls-4" d="M645.68,225.23a9,9,0,0,0-2.56,3.86c-.11.37,0,1.95.85,1.59s1.48-1.41,2.32-1.91,1.41-.82,2.14-1.19c.53-.27,1.07-.5,1.59-.76,1.82-.93,6.88-3.55,4.11-5.85Z"/><path class="cls-4" d="M653.45,218.35c.48.43,1.17,1.75.81,2.24-1,1.36-3.19,1.94-4.71,2.61a55.25,55.25,0,0,0-5.57,3.05c-.83.49-3.13,2.25-3.85,1.41-1.42-1.66,2.25-5.61,2.79-6.08Z"/><path class="cls-34" d="M650.82,222.57a10.35,10.35,0,0,0,3.16-1.65c.16,0,.15.05.28.17-1.33,1.32-3.39,1.85-5.12,2.62-.7.31-1,.39-2.81,1.27a3.16,3.16,0,0,1-.68.28A26.76,26.76,0,0,1,650.82,222.57Z"/><path class="cls-4" d="M653.68,213.73a4.29,4.29,0,0,1,.84,1.66,3.13,3.13,0,0,1-.78,2.83c-.66.73-2.66.86-3.67,1.08a32.11,32.11,0,0,0-7,2.36c-.52.26-2.66,2-3.67.32-.81-1.3,2.39-4.19,3.7-4.75Z"/><path class="cls-34" d="M643.82,221.27c.79-.34,1-.46,1.89-.78a30.75,30.75,0,0,1,4.61-1.53,23.65,23.65,0,0,0,2.8-.44l.4-.11s0,0,.11.13l-.14.1a3.1,3.1,0,0,1-1.51.61,33.54,33.54,0,0,0-3.86.83c-2,.58-5.21,1.78-5.56,1.88h0A12.73,12.73,0,0,0,643.82,221.27Z"/><path class="cls-4" d="M646.51,209.58c0-.48-.07-.77,0-.76.9.05.59.07,1.49.16a29,29,0,0,1,5.55.67A2.54,2.54,0,0,1,655,212.5c-.34.91-2.18,1.72-3.12,2-3.07.78-6.3,1.93-9.29,2.93-1.07.35-3.53,1.17-3.86.93-3-2.18,7.5-5.32,7.77-6.47A8.77,8.77,0,0,0,646.51,209.58Z"/><path class="cls-34" d="M652.38,214c.33-.13,1-.13,1.31-.29a2,2,0,0,0,.16.24,13,13,0,0,1-1.34.61c-2.94.81-7.85,2.45-9.47,2.67A72.21,72.21,0,0,1,652.38,214Z"/><path class="cls-35" d="M646.2,212.18c.14,0,.93-.4,1.73-.66a10.83,10.83,0,0,1,3.9-.64l-.32-.2a8.11,8.11,0,0,0-4.16.48,1.85,1.85,0,0,0-.81.57l-.23.35Z"/><polygon class="cls-36" points="601.51 100.22 601.47 103.48 618.83 102.6 618.83 100.26 601.51 100.22"/><path class="cls-9" d="M127.89,207.38s-.14,0-.39,0a1.13,1.13,0,0,1-.86-.47c-.16-.16-.4-.47-.42-.25a2.6,2.6,0,0,0,.5.63c.26.28,1,.32,1.14.38C127.88,207.51,127.88,207.47,127.89,207.38Z"/><path class="cls-3" d="M282,145.33l-.06-.47a61.92,61.92,0,0,1-1.11-8.91,6.15,6.15,0,0,0-.48-1.68,1.27,1.27,0,0,0-.91-.82,2.38,2.38,0,0,0-2,.5,10,10,0,0,0-1.19,1.73h0c-.38,1.06-.68,1.63-1,2.53l-1.14.44c-.88,0-4,.9-4.72.45a6.4,6.4,0,0,0-1.86-.85,1.5,1.5,0,0,0-1,1c-.28,1.32.88,2.45,1.8,3.06a4.86,4.86,0,0,0,2.37.69,34.36,34.36,0,0,0,4.32-.59h2.74c.21,2.74,1.79,8.49,4.23,6.47C282.37,148.68,282.11,146.34,282,145.33Zm-7.19-4.83,0,0S274.84,140.52,274.81,140.5Zm2.92.29-.26,0a2.76,2.76,0,0,0,.06-.39,1.27,1.27,0,0,0,0-.39v0a219789425107.33,219789425107.33,0,0,0-.08-.2,1.59,1.59,0,0,0-.08-.18l-.1-.15h0a.52.52,0,0,0-.16-.14l0,0h0l0,0,.07,0c-.11-.17-.24-.37-.06-.34a1.3,1.3,0,0,1,.34.4c.05.06.1.14.16.23C277.83,139.92,277.7,140.66,277.73,140.79Z"/><path class="cls-3" d="M274.81,140.5l0,0S274.84,140.52,274.81,140.5Z"/><path class="cls-3" d="M277.73,140.79l-.26,0a2.76,2.76,0,0,0,.06-.39,1.2,1.2,0,0,0,0-.38v0a1.8,1.8,0,0,0-.26-.52v0a.52.52,0,0,0-.16-.14l.07,0,.28.06c.05.06.1.14.16.23C277.83,139.92,277.7,140.66,277.73,140.79Z"/><path class="cls-3" d="M289.88,144.19s0,0,0,0h0Z"/><path class="cls-3" d="M292.94,147.3a8.46,8.46,0,0,1-3-3.05h0a2.68,2.68,0,0,0-.12-.64c-.45-1.76-.46-2.07-.61-2.75-.37-1.71-.42-3.59-1.41-5,2.6-1.74,4,3.16,4.46,4.94.14.51.24,1,.38,1.56.2.72.44,1.43.68,2.13s1.11,1.61,1.3,2.46S293.25,147.47,292.94,147.3Z"/><path class="cls-3" d="M291,149.63c-1.58.78-4-2.15-4.79-3.34a4.65,4.65,0,0,1-.28-.4l-.07-.77h0v-.06a.29.29,0,0,0,0,.09s0,0,0,0c.1.29.23.68.31,1-.06-.61-.47-3.42-.6-5.19a30.35,30.35,0,0,1,0-3.57,6.39,6.39,0,0,0-.12-1.31,3.39,3.39,0,0,1,.39-.18,1.79,1.79,0,0,1,1.14-.11,1.17,1.17,0,0,1,.29.33,8.43,8.43,0,0,1,1.13,3,23.1,23.1,0,0,0,1.41,5s0,0,0,0,0,0,0,0a0,0,0,0,0,0,0h0c.19.56.39,1.12.58,1.69C290.77,146.77,291.94,149.17,291,149.63Z"/><path class="cls-3" d="M285.6,149.1c-1.37.44-3.39-3-3.65-4.27v0c.1-1.54-.42-6.13-.57-8.85-.06-.33-.12-.68-.22-1a1.11,1.11,0,0,1,.3-.11,4.69,4.69,0,0,1,1.44-.16,2.91,2.91,0,0,1,1.53.75,1.71,1.71,0,0,1,.55.83,9.69,9.69,0,0,1,0,2.58,28,28,0,0,0,.49,4.38c.13.8.19,1.06.35,1.85,0,0,0,.05,0,.08v-.06a.29.29,0,0,0,0,.09s0,0,0,0c0,.21.09.41.14.61s.1.28.18.5C286.52,147.15,287,148.66,285.6,149.1Z"/><path class="cls-3" d="M274.81,140.5l0,0S274.84,140.52,274.81,140.5Z"/><path class="cls-3" d="M277.73,140.79a4.8,4.8,0,0,0-.2-.79v0a1.8,1.8,0,0,0-.26-.52v0a.52.52,0,0,0-.16-.14l.07,0c-.11-.17-.24-.37-.06-.34a1.43,1.43,0,0,1,.34.4c.05.06.1.14.16.23C277.83,139.92,277.7,140.66,277.73,140.79Z"/><path class="cls-9" d="M278,142.53l-.37,0c0-.07,0-.36.09-1a6,6,0,0,0,0-1v-.07a5.15,5.15,0,0,0-.37-1.31s0,0,0,0a2.45,2.45,0,0,0-.12-.31c-.16-.44-.34-.94-.09-.86a3.62,3.62,0,0,1,.48,1c.07.18.14.36.22.59A12.18,12.18,0,0,1,278,142.53Z"/><path class="cls-9" d="M281.17,134.92c-.14.09-.56-.46-.72-.4a5.69,5.69,0,0,1,.38,1.43,61.92,61.92,0,0,0,1.11,8.91h0v-.06c.1-1.54-.41-6.17-.56-8.89Z"/><path class="cls-9" d="M285.63,137.42a6.39,6.39,0,0,0-.12-1.31h0a2.64,2.64,0,0,1-.66-.25l0,0a1.09,1.09,0,0,1,.15.35,9.69,9.69,0,0,1,0,2.58,28,28,0,0,0,.49,4.38c.13.8.19,1.06.35,1.85,0,0,0,.05,0,.08v-.06a.29.29,0,0,0,0,.09s0,0,0,0c.1.29.23.68.31,1-.06-.61-.47-3.42-.6-5.19A30.35,30.35,0,0,1,285.63,137.42Z"/><path class="cls-9" d="M289.78,143.6c-.45-1.76-.46-2.07-.61-2.75-.37-1.71-.42-3.59-1.41-5a2.74,2.74,0,0,0-.56.17l.13.18a8.43,8.43,0,0,1,1.13,3,23.1,23.1,0,0,0,1.41,5s0,0,0,0,0,0,0,0a0,0,0,0,0,0,0A2.68,2.68,0,0,0,289.78,143.6Z"/><path class="cls-9" d="M285.87,145.12h0v-.06a.29.29,0,0,0,0,.09Z"/><path class="cls-3" d="M423.08,115.24a8.2,8.2,0,0,0,3.73,1.6c.34,0,1.74-.27,1.34-.87s-1.42-1-2-1.64-.89-1-1.3-1.58c-.29-.39-.56-.8-.85-1.18-1-1.35-3.91-5.11-5.67-2.61Z"/><path class="cls-3" d="M416.09,109.82c.33-.44,1.45-1.15,1.92-.92,1.33.66,2.08,2.33,2.84,3.47a40.36,40.36,0,0,0,3.33,4.11c.52.61,2.35,2.25,1.67,2.93-1.34,1.34-5.27-1.14-5.75-1.52Z"/><path class="cls-9" d="M422.79,114.75c-1-1.33-1.09-1.59-1.44-2.11a16.91,16.91,0,0,0-2.91-3.75c-.16.1-.19,0-.37.09a9.77,9.77,0,0,1,2.08,2.45,21,21,0,0,0,3,3.83A2.36,2.36,0,0,0,422.79,114.75Z"/><path class="cls-3" d="M411.93,110.18a3.86,3.86,0,0,1,1.39-.87,3,3,0,0,1,2.62.29c.72.44,1.06,2,1.36,2.82a23.92,23.92,0,0,0,2.86,5.36c.29.39,2,1.91.68,2.91-1.08.81-4-1.42-4.66-2.41Z"/><path class="cls-9" d="M420.48,118.13c-.12-.27-1.54-2.69-2.27-4.24a22.64,22.64,0,0,1-1.15-3,3,3,0,0,0-.74-1.28c-.06,0-.13.09-.19.14-.2-.2-.32-.11-.45,0a1.1,1.1,0,0,1,.42.35,8.58,8.58,0,0,1,.87,2.15,23.24,23.24,0,0,0,1.86,3.52c.37.63.51.83.9,1.42.2.24.54.63.76,1Z"/><path class="cls-3" d="M408.32,117.26a10.27,10.27,0,0,0,0-1.92,20.18,20.18,0,0,1,0-4.53,2.36,2.36,0,0,1,2.4-1.51c.85.17,1.77,1.54,2.08,2.27,1,2.37,2.4,4.83,3.61,7.12.44.81,1.43,2.69,1.25,3-1.64,2.65-5.28-2.48-6.08-4.51-.22-.56-.92-1.86-1.55-2Z"/><path class="cls-9" d="M410.72,116.11l-.2-.31a2,2,0,0,1-.2-.64,1,1,0,0,0-.55-.7c-.17-.12-.49-.3-.28-.34a.72.72,0,0,1,.46.15c.77.56.52.67.88,1.52a2.4,2.4,0,0,1,.11.23C410.83,116.05,410.81,116.09,410.72,116.11Z"/><path class="cls-9" d="M412.82,111c-.24-.38-.56-.47-.89-.83s-.25-.13-.41,0a5.4,5.4,0,0,1,.8,1,54.53,54.53,0,0,0,3.89,7.12C415.84,117,413.85,113.28,412.82,111Z"/><path class="cls-2" d="M589.94,118a9.22,9.22,0,0,0,3.9,2.6c.38.1,2,0,1.61-.86s-1.42-1.5-1.93-2.36-.83-1.42-1.21-2.17c-.27-.53-.5-1.08-.77-1.61-.94-1.84-3.59-7-5.92-4.16Z"/><path class="cls-2" d="M583,110.12c.44-.48,1.78-1.19,2.28-.82,1.37,1,2,3.23,2.64,4.77a53.67,53.67,0,0,0,3.09,5.64c.49.84,2.28,3.17,1.43,3.9-1.69,1.44-5.69-2.28-6.17-2.82Z"/><path class="cls-21" d="M589.68,117.34c-.89-1.82-1-2.15-1.29-2.85-.79-1.79-1.14-3.61-2.54-4.95,0,0-.1-.17-.14-.21s-.41.44-.35.48a9.53,9.53,0,0,1,1.87,3A27.23,27.23,0,0,0,590,118,3.16,3.16,0,0,0,589.68,117.34Z"/><path class="cls-2" d="M578.29,109.89A4.33,4.33,0,0,1,580,109a3.18,3.18,0,0,1,2.87.79c.74.66.87,2.69,1.1,3.72a32.83,32.83,0,0,0,2.38,7.11c.27.53,2,2.7.33,3.72-1.32.82-4.24-2.42-4.81-3.75Z"/><path class="cls-21" d="M586.61,121.14c-.1-.35-1.31-3.58-1.9-5.62a34.88,34.88,0,0,1-.84-3.91,3.34,3.34,0,0,0-.56-1.59l-.13-.11c-.19.22-.21,0-.3,0s-.29.08-.35.12a1.35,1.35,0,0,1,.39.49,12.11,12.11,0,0,1,.66,2.81,29.27,29.27,0,0,0,1.55,4.66c.32.85.43,1.12.79,1.92a12.14,12.14,0,0,1,.69,1.31Z"/><path class="cls-2" d="M574,116.42c.12,0-.68.13-.65,0,.23-.88.06.16.15-.75.18-1.67.15-4,.69-5.62a2.57,2.57,0,0,1,2.88-1.48c.92.35,1.74,2.21,2,3.16.78,3.11,2,6.38,3,9.41.36,1.08,1.19,3.58.94,3.91-2.2,3-5.64-3.92-6.22-6.56-.17-.74-.61-2.49-1.3-2.75Z"/><path class="cls-21" d="M579.12,111.08a4.51,4.51,0,0,0-.76-1.22,1.77,1.77,0,0,0-.25.07c.19.54.24.77.43,1.28a73,73,0,0,0,3.28,9.45C581.6,119,579.93,114.05,579.12,111.08Z"/><path class="cls-37" d="M184.21,57.12s0,2-.05,5.05c-.09,7.65-.35,21.88-1,27.23-.24,2-4.12,8.37-20.1,11.25l-.42.06c-16.27-2.74-20.25-9.18-20.51-11.18-.69-5.34-1-19.58-1.19-27.23-.05-3-.08-5-.08-5l9.23-3.36c.11-.4.2-.64.28-.64s.14.17.21.46l11.93-4.34,12.77,4.55c.09-.47.19-.75.27-.75s.23.38.37,1Z"/><path class="cls-3" d="M138.45,69.17c-.11-.13-5.77-2-5.67,4s4,5.18,5.82,5.33,0-9.19-.15-9.33Z"/><path class="cls-3" d="M187.83,69c.11-.14,5.75-2.06,5.69,4s-4,5.21-5.78,5.37,0-9.19.09-9.33Z"/><path class="cls-3" d="M184.21,57.16s0,2-.05,5.07c-.09,7.69-.35,22-1,27.38-.24,2-4.12,8.41-20.1,11.31l-.42.06c-16.27-2.76-20.25-9.23-20.51-11.24-.69-5.37-1-19.69-1.19-27.38-.05-3-.08-5-.08-5l9.23-3.38.49-.18,11.93-4.36L175.27,54l.64.23Z"/><path class="cls-38" d="M151.19,69.24c1,0,1.77,1.33,1.78,3s-.79,3-1.76,3-1.77-1.34-1.78-3,.79-3,1.76-3Z"/><path class="cls-38" d="M175.42,69.16c1,0,1.77,1.33,1.77,3s-.78,3-1.75,3-1.78-1.33-1.78-3,.78-3,1.76-3Z"/><path class="cls-1" d="M162.73,83.06c-.44-.12-1.32-.37-1.44-.93a13.45,13.45,0,0,1,.44-3.71c.24-1.29.82-3.35,1-4,.17.67.77,2.72,1,4a13.67,13.67,0,0,1,.47,3.71c-.12.56-1,.81-1.44.94Z"/><path class="cls-1" d="M140.13,57.31l10-3.47c-.58,2.13-1.44,8.73-1.44,8.73l-8.51-.06C140.17,59.38,140.13,57.31,140.13,57.31Z"/><path class="cls-1" d="M162.5,49.17l13.19,4.7c-.46,2.24-1,8.61-1,8.61H163l-11.73.06s-.61-7-1.09-8.9Z"/><path class="cls-1" d="M184.93,56.35s0,2.38-.06,6l-8.11.12s-.87-6.86-1.5-9.64Z"/><path class="cls-39" d="M154.19,87.15c2.33,2.56,15.28,2,17.15-.07"/><path class="cls-4" d="M574,203l-1.71,3.79-1.06,3.9-3-.73s.23-2.59.25-2.76l0-.2c0-.84.95-1.46,1.55-2.14a2.71,2.71,0,0,0,.47-1.5,5.79,5.79,0,0,0-.42-2.38c-.23-.5-.81-.95-.81-1.48.13-.33.69-.46,1.16-.45,1.5,0,3,.71,3.42,1.67a1.25,1.25,0,0,1,.13.65v0Z"/><path class="cls-4" d="M649,210.43l-2.46.65-.86-3.47-.87-2.11a3.84,3.84,0,0,1,.28-3.59,2.43,2.43,0,0,1,2.11-1.18c.36,0,.83.11.92.4,0,.47-.46.87-.65,1.31a6.21,6.21,0,0,0-.34,2.13,2.45,2.45,0,0,0,.4,1.33c.46.6,1.16.46,1.63,1.43,0,0,.15,1.17.18,1.49-.07.12.13,1.06,0,1Z"/></svg>