<?xml version="1.0" encoding="UTF-8"?>
<!-- by Tanja Rohlfs (https://consento.org/team/tanja) - license: CC-BY-NC-SA (see: https://creativecommons.org/licenses/by-nc-sa/4.0/) -->
<svg width="500" height="500" xmlns="http://www.w3.org/2000/svg" xmlns:xlink="http://www.w3.org/1999/xlink"><defs><path id="a" d="M.698.226h191.863V255H.698z"/></defs><g fill="none" fill-rule="evenodd"><path fill="#FFF" d="M0 0h500v500H0z"/><path d="M461.239 256.5H38.907c-10.222 0-18.584-8.362-18.584-18.583v-7.334c0-10.22 8.362-18.583 18.584-18.583h422.332c10.222 0 18.584 8.363 18.584 18.583v7.334c0 10.22-8.362 18.583-18.584 18.583z" stroke="#595959" stroke-width="4.646"/><path d="M47.113 236.79a4.919 4.919 0 001.43-1.09v-4.2a4.954 4.954 0 00-1.43-1.09 3.783 3.783 0 00-1.73-.41c-.987 0-1.78.313-2.38.94-.6.627-.9 1.514-.9 2.66 0 1.147.3 2.034.9 2.66.6.627 1.393.94 2.38.94.613 0 1.19-.137 1.73-.41m-4.34 1.48c-.74-.42-1.34-1.033-1.8-1.84-.46-.807-.69-1.75-.69-2.83s.23-2.023.69-2.83c.46-.806 1.06-1.42 1.8-1.84.74-.42 1.523-.63 2.35-.63 1.306 0 2.446.507 3.42 1.52v-4.9a.905.905 0 01.92-.92c.254 0 .466.09.64.27.173.18.26.396.26.65v12.98a.87.87 0 01-.26.64.871.871 0 01-.64.26.905.905 0 01-.65-.26.852.852 0 01-.27-.64v-.52c-.974 1.013-2.114 1.52-3.42 1.52-.827 0-1.61-.21-2.35-.63m11.17.27a.866.866 0 01-.26-.64v-12.34a.9.9 0 01.26-.65.854.854 0 01.64-.27c.253 0 .47.09.65.27.18.18.27.396.27.65v12.34c0 .253-.09.466-.27.64a.907.907 0 01-.65.26.871.871 0 01-.64-.26m14.401-2.06a4.736 4.736 0 001.8-1.96c.413-.827.62-1.76.62-2.8 0-1.04-.207-1.974-.62-2.8a4.742 4.742 0 00-1.8-1.96c-.787-.48-1.714-.72-2.78-.72-1.08 0-2.01.24-2.79.72a4.745 4.745 0 00-1.79 1.96c-.413.826-.62 1.76-.62 2.8 0 1.04.207 1.973.62 2.8a4.739 4.739 0 001.79 1.96c.78.48 1.71.72 2.79.72 1.066 0 1.993-.24 2.78-.72m-6.46 1.5a6.294 6.294 0 01-2.44-2.54c-.574-1.08-.873-2.32-.901-3.72.028-1.4.327-2.64.9-3.72a6.3 6.3 0 012.44-2.54c1.054-.614 2.28-.92 3.68-.92 1.4 0 2.624.306 3.67.92a6.38 6.38 0 012.44 2.55c.58 1.086.884 2.323.91 3.71-.026 1.386-.33 2.623-.91 3.71a6.367 6.367 0 01-2.44 2.55c-1.046.613-2.27.92-3.67.92s-2.626-.307-3.68-.92m14.741.48a.814.814 0 01-.24-.6c0-.24.08-.444.24-.61a.797.797 0 01.6-.25h2.379v-10.14l-2.04 1c-.186.08-.34.12-.46.12a.843.843 0 01-.62-.24.838.838 0 01-.24-.62c0-.374.174-.647.52-.82l2.72-1.42c.187-.094.373-.14.56-.14h.42a.93.93 0 01.68.28.93.93 0 01.28.68V237h1.98c.24 0 .444.083.61.25.167.166.25.37.25.61a.8.8 0 01-.25.6.85.85 0 01-.61.24h-6.18a.81.81 0 01-.6-.24m17-6.92c1.146 0 2.057-.227 2.73-.68.673-.454 1.01-1.094 1.01-1.92 0-.8-.29-1.413-.87-1.84-.58-.426-1.57-.64-2.97-.64h-3.52v5.08h3.62zm-5.18 7a.865.865 0 01-.26-.64v-12.24a.9.9 0 01.26-.65.854.854 0 01.64-.27h4.66c1.814 0 3.173.374 4.08 1.12.906.747 1.36 1.727 1.36 2.94 0 .8-.223 1.53-.67 2.19-.447.66-1.097 1.136-1.95 1.43.96.254 1.617.85 1.97 1.79.354.94.53 1.864.53 2.77v.92a.866.866 0 01-.26.64.871.871 0 01-.64.26c-.28 0-.503-.083-.67-.25-.167-.166-.25-.383-.25-.65v-.6a8.94 8.94 0 00-.18-1.85c-.12-.566-.407-1.073-.86-1.52-.453-.447-1.14-.67-2.06-.67h-4.14v4.64c0 .253-.09.466-.27.64a.905.905 0 01-.65.26.871.871 0 01-.64-.26zm14.38-3.86a.598.598 0 01-.2-.42l-.36-6.6v-1.98c0-.293.1-.54.3-.74.2-.2.447-.3.74-.3s.537.1.73.3c.193.2.29.447.29.74v1.98l-.359 6.6a.624.624 0 01-.191.42c-.113.107-.27.16-.47.16-.2 0-.36-.053-.48-.16m-.35 3.75a1.159 1.159 0 01-.35-.85c0-.32.117-.597.35-.83.233-.233.51-.35.83-.35.333 0 .617.117.85.35.233.233.35.51.35.83 0 .333-.117.617-.35.85-.233.233-.517.35-.85.35-.32 0-.597-.117-.83-.35m13.17-8.51c-.36-2.453-1.58-3.68-3.66-3.68-.613 0-1.157.13-1.63.39a2.75 2.75 0 00-1.09 1.05c-.254.44-.38.92-.38 1.44 0 .906.253 1.633.76 2.18.507.547 1.246.82 2.22.82 1.733 0 2.993-.733 3.78-2.2m-5.92 8.74a8.667 8.667 0 01-1.58-.62.814.814 0 01-.3-.3.817.817 0 01.11-.99.764.764 0 01.59-.25c.12 0 .233.02.34.06.826.387 1.713.58 2.66.58 1.506 0 2.567-.527 3.18-1.58.613-1.054.953-2.233 1.02-3.54-.4.506-.933.927-1.6 1.26-.667.333-1.5.5-2.5.5-.907 0-1.703-.193-2.39-.58a4.1 4.1 0 01-1.61-1.64c-.387-.707-.58-1.534-.58-2.48 0-.84.2-1.607.6-2.3.4-.693.973-1.24 1.72-1.64.746-.4 1.62-.6 2.62-.6 3.653 0 5.48 2.387 5.48 7.16 0 1.16-.19 2.287-.57 3.38a6.111 6.111 0 01-1.87 2.73c-.867.727-1.987 1.09-3.36 1.09-.747 0-1.4-.08-1.96-.24m10.63-3.79a.746.746 0 01-.23-.55.74.74 0 01.23-.56.767.767 0 01.55-.22h9.76c.226 0 .413.074.56.22a.756.756 0 01.22.56.762.762 0 01-.22.55.74.74 0 01-.56.23h-9.76a.749.749 0 01-.55-.23m0-4.48a.746.746 0 01-.23-.55.74.74 0 01.23-.56.767.767 0 01.55-.22h9.76c.226 0 .413.074.56.22a.756.756 0 01.22.56.762.762 0 01-.22.55.74.74 0 01-.56.23h-9.76a.749.749 0 01-.55-.23m20.34 6.4a4.919 4.919 0 001.43-1.09v-4.2a4.954 4.954 0 00-1.43-1.09 3.783 3.783 0 00-1.73-.41c-.987 0-1.78.313-2.38.94-.6.627-.9 1.514-.9 2.66 0 1.147.3 2.034.9 2.66.6.627 1.393.94 2.38.94.613 0 1.19-.137 1.73-.41m-4.34 1.48c-.74-.42-1.34-1.033-1.8-1.84-.46-.807-.69-1.75-.69-2.83s.23-2.023.69-2.83c.46-.806 1.06-1.42 1.8-1.84.74-.42 1.523-.63 2.35-.63 1.306 0 2.446.507 3.42 1.52v-4.9a.905.905 0 01.92-.92c.254 0 .466.09.64.27.173.18.26.396.26.65v12.98a.87.87 0 01-.26.64.871.871 0 01-.64.26.905.905 0 01-.65-.26.852.852 0 01-.27-.64v-.52c-.974 1.013-2.114 1.52-3.42 1.52-.827 0-1.61-.21-2.35-.63m11.01.27a.87.87 0 01-.26-.64v-8.58c0-.253.087-.47.26-.65a.854.854 0 01.641-.27c.253 0 .469.09.649.27.18.18.271.396.271.65v.82a6.623 6.623 0 011.639-1.34c.587-.334 1.28-.5 2.08-.5.734 0 1.37.173 1.91.52.54.346.954.82 1.24 1.42.287.6.43 1.26.43 1.98v5.68a.848.848 0 01-.27.64.905.905 0 01-.65.26.873.873 0 01-.64-.26.87.87 0 01-.26-.64v-5.48c0-1.628-.733-2.44-2.2-2.44a3.18 3.18 0 00-1.79.52c-.527.346-1.024.812-1.489 1.4v6a.853.853 0 01-.271.64.903.903 0 01-.649.26.872.872 0 01-.641-.26m16.899-1.67a4.735 4.735 0 001.381-1.07v-1.68h-2.18c-2.014 0-3.02.527-3.02 1.58 0 .48.163.867.49 1.16.326.294.87.44 1.63.44a3.61 3.61 0 001.7-.43m-4.01 1.67c-.5-.24-.897-.59-1.19-1.05-.294-.46-.44-.99-.44-1.59 0-.987.39-1.773 1.17-2.36.78-.587 1.922-.88 3.43-.88h2.42v-.16c0-.88-.218-1.513-.65-1.9-.434-.386-1.11-.58-2.03-.58a6.8 6.8 0 00-1.35.12c-.394.08-.83.2-1.31.36-.107.027-.194.04-.26.04a.706.706 0 01-.52-.22.728.728 0 01-.22-.54c0-.36.173-.613.52-.76a8.79 8.79 0 013.46-.72c.92 0 1.696.187 2.33.56.632.373 1.1.857 1.4 1.45.3.594.45 1.237.45 1.93v5.66c0 .254-.09.467-.27.64a.91.91 0 01-.65.26.867.867 0 01-.64-.26.866.866 0 01-.26-.64v-.52c-.987 1.013-2.24 1.52-3.76 1.52-.588 0-1.13-.12-1.63-.36m16.48-1.75a4.919 4.919 0 001.43-1.09v-4.2a4.954 4.954 0 00-1.43-1.09 3.783 3.783 0 00-1.73-.41c-.987 0-1.78.313-2.38.94-.6.627-.9 1.514-.9 2.66 0 1.147.3 2.034.9 2.66.6.627 1.393.94 2.38.94.613 0 1.19-.137 1.73-.41m-4.34 1.48c-.74-.42-1.34-1.033-1.8-1.84-.46-.807-.69-1.75-.69-2.83s.23-2.023.69-2.83c.46-.806 1.06-1.42 1.8-1.84.74-.42 1.523-.63 2.35-.63 1.306 0 2.446.507 3.42 1.52v-4.9a.905.905 0 01.92-.92c.254 0 .466.09.64.27.173.18.26.396.26.65v12.98a.87.87 0 01-.26.64.871.871 0 01-.64.26.905.905 0 01-.65-.26.852.852 0 01-.27-.64v-.52c-.974 1.013-2.114 1.52-3.42 1.52-.827 0-1.61-.21-2.35-.63m11.01.27a.87.87 0 01-.26-.64v-12.98c0-.254.087-.47.26-.65a.854.854 0 01.641-.27c.253 0 .469.09.649.27.18.18.271.396.271.65v8.18l4.759-4.4c.201-.174.4-.26.6-.26.307 0 .53.086.67.26.14.172.21.38.21.62 0 .226-.113.452-.34.68l-2.88 2.58 3.62 4.8c.133.173.2.352.2.54 0 .266-.087.48-.259.64a.938.938 0 01-.661.24.967.967 0 01-.74-.38l-3.44-4.68-1.739 1.58v2.58a.853.853 0 01-.271.64.903.903 0 01-.649.26.872.872 0 01-.641-.26m10.201-.54a.761.761 0 01-.34-.66c0-.214.072-.4.22-.56a.724.724 0 01.56-.24c.12 0 .24.026.36.08.427.186.853.333 1.28.44.426.106.906.16 1.44.16 1.48 0 2.22-.474 2.22-1.42 0-.307-.17-.54-.51-.7-.34-.16-.897-.34-1.67-.54a14.973 14.973 0 01-1.95-.58 3.427 3.427 0 01-1.32-.91c-.367-.407-.55-.944-.55-1.61 0-.934.336-1.694 1.01-2.28.673-.587 1.637-.88 2.89-.88a8.35 8.35 0 012.9.5c.187.053.33.153.43.3a.786.786 0 01-.08 1.02.76.76 0 01-.57.24 1.1 1.1 0 01-.26-.04 7.674 7.674 0 00-2.28-.36c-.72 0-1.284.13-1.69.39-.407.26-.61.596-.61 1.01 0 .4.186.693.56.88.373.186.953.366 1.74.54.786.2 1.426.396 1.92.59a3.18 3.18 0 011.27.91c.353.413.53.966.53 1.66 0 .852-.337 1.56-1.01 2.12-.674.56-1.624.84-2.85.84-1.333 0-2.547-.3-3.64-.9m10.199.54a.87.87 0 01-.26-.64v-12.98c0-.254.087-.47.26-.65a.854.854 0 01.641-.27c.265 0 .486.086.66.26a.895.895 0 01.26.66v12.98a.853.853 0 01-.27.64.903.903 0 01-.65.26.872.872 0 01-.64-.26m29.839-2.06a4.736 4.736 0 001.8-1.96c.413-.827.62-1.76.62-2.8 0-1.04-.207-1.974-.62-2.8a4.742 4.742 0 00-1.8-1.96c-.787-.48-1.714-.72-2.78-.72-1.08 0-2.01.24-2.79.72a4.745 4.745 0 00-1.79 1.96c-.413.826-.62 1.76-.62 2.8 0 1.04.207 1.973.62 2.8a4.739 4.739 0 001.79 1.96c.78.48 1.71.72 2.79.72 1.066 0 1.993-.24 2.78-.72m.6 4.94l-2.18-2.6c-.334.053-.733.08-1.2.08-1.4 0-2.627-.307-3.68-.92a6.294 6.294 0 01-2.44-2.54c-.574-1.08-.873-2.32-.9-3.72.027-1.4.326-2.64.9-3.72a6.3 6.3 0 012.44-2.54c1.053-.614 2.28-.92 3.68-.92 1.4 0 2.623.306 3.67.92a6.38 6.38 0 012.44 2.55c.58 1.086.883 2.323.91 3.71-.027 1.56-.404 2.923-1.13 4.09a6.318 6.318 0 01-3.01 2.55l1.76 1.94c.16.16.24.352.24.58a.759.759 0 01-.24.6.846.846 0 01-.62.26.793.793 0 01-.64-.32m8.64-2.86c-.214-.16-.36-.36-.44-.6l-2.84-8.32a1.078 1.078 0 01-.06-.34c0-.254.087-.468.26-.64a.871.871 0 01.64-.26c.186 0 .356.05.51.15.154.1.256.23.31.39l2.34 7.7 2.32-7.52a1 1 0 01.37-.52c.18-.134.383-.2.61-.2.227 0 .43.066.61.2.18.132.303.306.37.52l2.32 7.52 2.34-7.7a.739.739 0 01.31-.39c.153-.1.323-.15.51-.15a.87.87 0 01.64.26.868.868 0 01.26.64c0 .106-.02.22-.06.34l-2.84 8.32c-.08.24-.226.44-.44.6a1.17 1.17 0 01-.72.24c-.267 0-.507-.08-.72-.24a1.319 1.319 0 01-.46-.62l-2.12-6.62-2.12 6.62c-.093.253-.247.46-.46.62a1.17 1.17 0 01-.72.24c-.267 0-.507-.08-.72-.24m13.64-.46a.87.87 0 01-.38-.29.767.767 0 01-.14-.47c0-.226.077-.423.23-.59a.741.741 0 01.57-.25c.12 0 .246.027.38.08.96.386 2.02.58 3.18.58 1.04 0 1.917-.17 2.63-.51.713-.34 1.07-.91 1.07-1.71 0-1.68-1.474-2.52-4.42-2.52h-.32a.804.804 0 01-.59-.25.806.806 0 01-.25-.59c0-.228.083-.424.25-.59a.808.808 0 01.59-.25h.12c1.333 0 2.352-.204 3.06-.61.707-.407 1.06-1.01 1.06-1.81 0-.64-.268-1.147-.8-1.52-.534-.374-1.32-.56-2.36-.56-1.12 0-2.153.22-3.1.66a.975.975 0 01-.36.08.73.73 0 01-.52-.21.702.702 0 01-.22-.53c0-.308.133-.534.4-.68 1.28-.68 2.6-1.02 3.96-1.02 1.533 0 2.72.312 3.56.94.84.626 1.26 1.513 1.26 2.66 0 .92-.23 1.643-.69 2.17a4.13 4.13 0 01-1.73 1.17 4.366 4.366 0 012.03 1.09c.593.552.89 1.376.89 2.47 0 1.226-.484 2.176-1.45 2.85-.967.672-2.21 1.01-3.73 1.01-1.48 0-2.873-.267-4.18-.8m12.699.44a.87.87 0 01-.26-.64v-8.58c0-.253.087-.47.26-.65a.854.854 0 01.641-.27c.253 0 .47.09.65.27.18.18.27.396.27.65v.86c.932-1.254 1.98-1.88 3.14-1.88h.1c.253 0 .463.086.63.26.166.172.25.386.25.64 0 .253-.087.46-.26.62a.936.936 0 01-.66.24h-.1c-.64 0-1.227.156-1.76.47a4.03 4.03 0 00-1.34 1.29v6.08a.853.853 0 01-.27.64.903.903 0 01-.65.26.872.872 0 01-.64-.26m7.999-2.28v-6.2h-1.42a.367.367 0 01-.269-.11.364.364 0 01-.11-.27.42.42 0 01.18-.34l2.72-2.66c.12-.12.232-.18.34-.18.106 0 .196.04.27.12.072.08.11.173.11.28v1.6h2.26a.76.76 0 01.56.22.76.76 0 01.22.56.77.77 0 01-.78.78h-2.26v6.04c0 .52.122.85.37.99.246.14.556.21.93.21.266 0 .532-.04.8-.12l.17-.04c.06-.013.136-.02.23-.02.186 0 .353.07.5.21.146.14.22.31.22.51 0 .307-.154.54-.46.7a3.91 3.91 0 01-1.66.36c-1.947 0-2.92-.88-2.92-2.64m8.61 6.88a.862.862 0 01-.25-.62c0-.107.02-.213.06-.32l1.3-3.34-3.76-9.16a1.03 1.03 0 01-.08-.38c0-.253.086-.47.26-.65a.854.854 0 01.64-.27c.186 0 .356.053.51.16.153.107.263.24.33.4l3.08 7.64 3.14-7.6c.173-.4.454-.6.84-.6.253 0 .466.09.64.27.173.18.26.397.26.65 0 .12-.02.234-.06.34l-5.46 13.12c-.187.413-.467.62-.84.62a.816.816 0 01-.61-.26m9.829-8.46a.598.598 0 01-.2-.42l-.36-6.6v-1.98c0-.293.1-.54.3-.74.2-.2.447-.3.74-.3s.537.1.73.3c.193.2.29.447.29.74v1.98l-.36 6.6a.624.624 0 01-.19.42c-.113.107-.27.16-.47.16-.2 0-.36-.053-.48-.16m-.35 3.75a1.159 1.159 0 01-.35-.85c0-.32.117-.597.35-.83.233-.233.51-.35.83-.35.333 0 .617.117.85.35.233.233.35.51.35.83 0 .333-.117.617-.35.85-.233.233-.517.35-.85.35-.32 0-.597-.117-.83-.35m4.94-1.12a.773.773 0 01-.23-.57c0-.16.05-.31.15-.45.1-.14.23-.243.39-.31l7.2-3.2-7.2-3.2a.88.88 0 01-.39-.31.753.753 0 01-.15-.45c0-.226.077-.416.23-.57a.776.776 0 01.57-.23c.12 0 .227.02.32.06l7.98 3.58c.227.107.403.25.53.43s.19.384.19.61v.16c0 .227-.063.43-.19.61s-.303.323-.53.43l-7.98 3.58a.813.813 0 01-.32.06.772.772 0 01-.57-.23m18.08-.52a4.919 4.919 0 001.43-1.09v-4.2a4.954 4.954 0 00-1.43-1.09 3.783 3.783 0 00-1.73-.41c-.987 0-1.78.313-2.38.94-.6.627-.9 1.514-.9 2.66 0 1.147.3 2.034.9 2.66.6.627 1.393.94 2.38.94.613 0 1.19-.137 1.73-.41m-4.34 1.48c-.74-.42-1.34-1.033-1.8-1.84-.46-.807-.69-1.75-.69-2.83s.23-2.023.69-2.83c.46-.806 1.06-1.42 1.8-1.84.74-.42 1.523-.63 2.35-.63 1.306 0 2.446.507 3.42 1.52v-4.9a.905.905 0 01.92-.92c.254 0 .466.09.64.27.173.18.26.396.26.65v12.98a.87.87 0 01-.26.64.871.871 0 01-.64.26.905.905 0 01-.65-.26.852.852 0 01-.27-.64v-.52c-.974 1.013-2.114 1.52-3.42 1.52-.827 0-1.61-.21-2.35-.63m11.51-3.59a.598.598 0 01-.2-.42l-.36-6.6v-1.98c0-.293.1-.54.3-.74.2-.2.447-.3.74-.3s.537.1.73.3c.193.2.29.447.29.74v1.98l-.36 6.6a.624.624 0 01-.19.42c-.113.107-.27.16-.47.16-.2 0-.36-.053-.48-.16m-.35 3.75a1.159 1.159 0 01-.35-.85c0-.32.117-.597.35-.83.233-.233.51-.35.83-.35.333 0 .617.117.85.35.233.233.35.51.35.83 0 .333-.117.617-.35.85-.233.233-.517.35-.85.35-.32 0-.597-.117-.83-.35m5.83.11a.866.866 0 01-.26-.64v-12.34a.9.9 0 01.26-.65.854.854 0 01.64-.27c.253 0 .47.09.65.27.18.18.27.396.27.65v12.34c0 .253-.09.466-.27.64a.907.907 0 01-.65.26.871.871 0 01-.64-.26m8.34-.24c-.88-.4-1.6-1.01-2.16-1.83-.56-.82-.84-1.823-.84-3.01v-7.9c0-.253.087-.47.26-.65a.854.854 0 01.64-.27c.253 0 .47.09.65.27.18.18.27.397.27.65v7.96c0 .8.183 1.48.55 2.04.366.56.85.98 1.45 1.26s1.241.42 1.92.42c.68 0 1.321-.14 1.92-.42.6-.28 1.083-.7 1.45-1.26s.55-1.24.55-2.04v-7.96c0-.253.087-.47.26-.65a.856.856 0 01.641-.27c.252 0 .469.09.649.27.181.18.27.397.27.65v7.9c0 1.187-.28 2.19-.839 3.01a5.174 5.174 0 01-2.161 1.83 6.547 6.547 0 01-5.48 0m19.86-8.38c-.36-2.453-1.58-3.68-3.66-3.68-.613 0-1.157.13-1.63.39a2.75 2.75 0 00-1.09 1.05c-.254.44-.38.92-.38 1.44 0 .906.253 1.633.76 2.18.507.547 1.246.82 2.22.82 1.733 0 2.993-.733 3.78-2.2m-5.92 8.74a8.667 8.667 0 01-1.58-.62.814.814 0 01-.3-.3.817.817 0 01.11-.99.764.764 0 01.59-.25c.12 0 .233.02.34.06.826.387 1.713.58 2.66.58 1.506 0 2.567-.527 3.18-1.58.613-1.054.953-2.233 1.02-3.54-.4.506-.933.927-1.6 1.26-.667.333-1.5.5-2.5.5-.907 0-1.703-.193-2.39-.58a4.1 4.1 0 01-1.61-1.64c-.387-.707-.58-1.534-.58-2.48 0-.84.2-1.607.6-2.3.4-.693.973-1.24 1.72-1.64.746-.4 1.62-.6 2.62-.6 3.653 0 5.48 2.387 5.48 7.16 0 1.16-.19 2.287-.57 3.38a6.111 6.111 0 01-1.87 2.73c-.867.727-1.987 1.09-3.36 1.09-.747 0-1.4-.08-1.96-.24m17.89-2.9c.62-.973.93-2.32.93-4.04 0-1.707-.31-3.046-.93-4.02-.62-.973-1.51-1.46-2.67-1.46s-2.05.487-2.67 1.46c-.62.974-.93 2.313-.93 4.02 0 1.72.31 3.067.93 4.04.62.973 1.51 1.46 2.67 1.46s2.05-.487 2.67-1.46m-6.7 1.2c-.927-1.293-1.39-3.04-1.39-5.24s.463-3.947 1.39-5.24c.927-1.293 2.27-1.94 4.03-1.94 1.746 0 3.086.647 4.02 1.94.933 1.293 1.4 3.04 1.4 5.24s-.467 3.947-1.4 5.24c-.934 1.293-2.274 1.94-4.02 1.94-1.76 0-3.103-.647-4.03-1.94m12.619 1.37a1.215 1.215 0 01-.369-.89v-11.88c0-.253.086-.47.26-.65a.85.85 0 01.639-.27c.253 0 .47.09.651.27a.89.89 0 01.269.65v11.32h6.54c.253 0 .47.09.651.27a.89.89 0 01.269.65c0 .253-.09.466-.269.64a.905.905 0 01-.651.26h-7.099c-.347 0-.644-.124-.891-.37m10.45 3.12a.62.62 0 01-.2-.47c0-.174.066-.327.2-.46a.632.632 0 01.46-.2h9.86c.186 0 .343.067.47.2a.649.649 0 01.19.46.64.64 0 01-.19.47.643.643 0 01-.47.19h-9.86a.65.65 0 01-.46-.19m14.329-3.12a1.215 1.215 0 01-.369-.89v-11.88c0-.253.086-.47.26-.65a.85.85 0 01.64-.27c.252 0 .47.09.65.27a.89.89 0 01.27.65v11.32h6.54c.252 0 .47.09.65.27a.89.89 0 01.27.65c0 .253-.09.466-.27.64a.905.905 0 01-.65.26h-7.1c-.347 0-.644-.124-.89-.37M418.1 226.9c-.2-.2-.3-.44-.3-.72 0-.28.1-.52.3-.72.2-.2.44-.3.72-.3.28 0 .52.1.72.3.2.2.3.44.3.72 0 .28-.1.52-.3.72-.2.2-.44.3-.72.3-.28 0-.52-.1-.72-.3m-3.36 0c-.2-.2-.3-.44-.3-.72 0-.28.1-.52.3-.72.2-.2.44-.3.72-.3.28 0 .52.1.72.3.2.2.3.44.3.72 0 .28-.1.52-.3.72-.2.2-.44.3-.72.3-.28 0-.52-.1-.72-.3m3.97 9.96c.5-.253.913-.653 1.24-1.2.327-.547.49-1.24.49-2.08 0-.827-.163-1.513-.49-2.06-.327-.547-.74-.943-1.24-1.19a3.5 3.5 0 00-1.57-.37 3.54 3.54 0 00-1.59.37c-.5.247-.91.643-1.23 1.19-.32.547-.48 1.233-.48 2.06 0 .84.16 1.533.48 2.08.32.547.73.947 1.23 1.2a3.472 3.472 0 003.16 0m-4.27 1.38a4.48 4.48 0 01-1.79-1.87c-.42-.807-.63-1.73-.63-2.77s.21-1.963.63-2.77a4.48 4.48 0 011.79-1.87c.773-.44 1.673-.66 2.7-.66 1.013 0 1.906.22 2.68.66a4.552 4.552 0 011.8 1.87c.426.807.64 1.73.64 2.77s-.214 1.963-.64 2.77a4.552 4.552 0 01-1.8 1.87c-.774.44-1.667.66-2.68.66-1.027 0-1.927-.22-2.7-.66m18.32-8.32c-.36-2.453-1.58-3.68-3.66-3.68-.613 0-1.157.13-1.63.39a2.75 2.75 0 00-1.09 1.05c-.253.44-.38.92-.38 1.44 0 .906.253 1.633.76 2.18.507.547 1.247.82 2.22.82 1.733 0 2.993-.733 3.78-2.2m-5.92 8.74a8.667 8.667 0 01-1.58-.62.814.814 0 01-.3-.3.817.817 0 01.11-.99.764.764 0 01.59-.25c.12 0 .233.02.34.06.827.387 1.714.58 2.66.58 1.506 0 2.567-.527 3.18-1.58.614-1.054.954-2.233 1.02-3.54-.4.506-.933.927-1.6 1.26-.666.333-1.5.5-2.5.5-.906 0-1.702-.193-2.39-.58a4.1 4.1 0 01-1.61-1.64c-.387-.707-.58-1.534-.58-2.48 0-.84.2-1.607.6-2.3.4-.693.974-1.24 1.72-1.64.747-.4 1.62-.6 2.62-.6 3.654 0 5.48 2.387 5.48 7.16 0 1.16-.19 2.287-.57 3.38a6.111 6.111 0 01-1.87 2.73c-.867.727-1.987 1.09-3.36 1.09-.747 0-1.4-.08-1.96-.24m16.73-1.87a4.919 4.919 0 001.43-1.09v-4.2a4.954 4.954 0 00-1.43-1.09 3.783 3.783 0 00-1.73-.41c-.987 0-1.78.313-2.38.94-.6.627-.9 1.514-.9 2.66 0 1.147.3 2.034.9 2.66.6.627 1.393.94 2.38.94.613 0 1.19-.137 1.73-.41m-4.34 1.48c-.74-.42-1.34-1.033-1.8-1.84-.46-.807-.69-1.75-.69-2.83s.23-2.023.69-2.83c.46-.806 1.06-1.42 1.8-1.84.74-.42 1.523-.63 2.35-.63 1.306 0 2.446.507 3.42 1.52v-4.9a.905.905 0 01.92-.92c.254 0 .466.09.64.27.173.18.26.396.26.65v12.98a.87.87 0 01-.26.64.871.871 0 01-.64.26.905.905 0 01-.65-.26.852.852 0 01-.27-.64v-.52c-.974 1.013-2.114 1.52-3.42 1.52-.827 0-1.61-.21-2.35-.63m11.01.27a.87.87 0 01-.26-.64v-8.58c0-.253.087-.47.26-.65a.854.854 0 01.641-.27c.253 0 .469.09.649.27.18.18.271.396.271.65v.82a6.623 6.623 0 011.639-1.34c.587-.334 1.28-.5 2.08-.5.734 0 1.37.173 1.91.52.54.346.954.82 1.24 1.42.287.6.43 1.26.43 1.98v5.68a.848.848 0 01-.27.64.905.905 0 01-.65.26.873.873 0 01-.64-.26.87.87 0 01-.26-.64v-5.48c0-1.628-.733-2.44-2.2-2.44a3.18 3.18 0 00-1.79.52c-.527.346-1.024.812-1.489 1.4v6a.853.853 0 01-.271.64.903.903 0 01-.649.26.872.872 0 01-.641-.26m12.18 0a.87.87 0 01-.26-.64v-8.58c0-.253.087-.47.26-.65a.854.854 0 01.64-.27c.266 0 .487.086.66.26a.893.893 0 01.26.66v8.58a.853.853 0 01-.27.64.903.903 0 01-.65.26.872.872 0 01-.64-.26m-.12-12.42c-.2-.2-.3-.44-.3-.72v-.08c0-.28.1-.52.3-.72.2-.2.44-.3.72-.3h.12c.28 0 .52.1.72.3.2.2.3.44.3.72v.08c0 .28-.1.52-.3.72-.2.2-.44.3-.72.3h-.12a.983.983 0 01-.72-.3" fill="#000"/><path d="M202.245 198.558c1.078 1.442 11.742 35.227 11.742 35.227L220.323 247l-8 3 2 33" stroke="#FFF" stroke-width="17"/><g transform="translate(24 122.774)"><mask id="b" fill="#fff"><use xlink:href="#a"/></mask><path d="M188.14 75.872c-1.504 0-20.363.156-20.04.134-1.169-6.285-2.81-14.148-4.107-20.085-.714 6.016-1.378 13.864-1.913 20.151l-22.45-.162c3.242 43.962 7.563 86.502-9.103 146.684-3.03 10.941-6.482 19.443-6.482 31.48L.698 255C54.648 204.197 13.25 144.202 36.01 44.398 46 .59 144.807-16 178.482 19.498c6.37 6.714 14.053 14.463 14.079 23.477.03 10.953-4.4 32.594-4.422 32.897" fill="#FFF" mask="url(#b)"/></g><path d="M160.754 295.185c-41.444-6.98-51.567-23.381-52.224-28.46-2.462-18.995-3.237-82.17-3.237-82.17l55.137-20.047c9.213 3.28 20.044 8.968 35.542 20.89 6.463 4.973 9.542 19.084 15.788 43.292 3.034 11.76 1.656 24.165 1.246 37.694-.537 17.736-4.03 24.662-15.356 24.662-1.827 0-4.486-.022-6.138-.022-16.313 0-40.7-3.737-40.7-21.154 0-2.414 9.942 25.315 9.942 25.315" fill="#F1D5C3"/><path d="M190.632 214.983c1.606-.005 2.922 3.396 2.936 7.592.013 4.197-1.28 7.609-2.886 7.614-1.607.005-2.922-3.398-2.936-7.595-.014-4.196 1.28-7.606 2.886-7.611" fill="#000"/><path d="M212.141 250.41c-.729-2.4-.659-6.199-.845-9.41-.192-3.328-.326-10.395-.418-12.147.905 1.503 3.094 6.815 4.664 10.097 1.351 2.822 3.882 5.618 4.641 7.625.515 1.36-7.814 4.582-8.042 3.834" fill="#FF3434"/><path fill="#F1D5C3" d="M154.4 289.986l-15.949-4.374-.385 44.954 16.52 4.797.478-.002 16.484-4.903-.813-53.915-16.18-8.95"/><path d="M205.08 202.638c-1.39 0-18.793.144-18.494.124-1.078-5.8-2.593-13.056-3.79-18.536-.66 5.553-1.272 12.794-1.765 18.597l-20.72-.149c2.995 40.57 6.98 79.828-8.4 135.366-2.795 10.097-5.98 17.943-5.98 29.051l-113.83.854c49.786-46.882 11.583-102.249 32.586-194.352 9.22-40.429 100.404-55.738 131.48-22.979 5.879 6.196 12.969 13.347 12.992 21.665.029 10.11-4.06 30.08-4.08 30.36" fill="#FF3434"/><path d="M192.498 267.549c5.98-4.272 11.045-2.27 19.123-2.39" stroke="#DF715C" stroke-width="1.248" stroke-linecap="round" stroke-linejoin="round"/><path d="M153.061 215.037c-.207-.35-10.699-5.163-10.503 10.156.2 15.32 7.454 13.222 10.8 13.6 3.348.375-.089-23.409-.297-23.756" fill="#F1D5C3"/><path d="M170.924 289.132c-.15-.421-7.528-1.03-9.698-3.038l-.303 6.728 10.106 3.233-.105-6.923z" fill="#DF715C"/><path d="M179.544 288.772c.215.086 5.916-2.684 9.4-3.08 3.488-.397 4.77 7.118 4.77 7.118l-8.424 4.296-8.066-.876 2.32-7.458z" fill="#F1D5C3"/><path d="M174.128 370.509c7.689-33.323 23.06-31.667 47.392-45.566 2.889-2.995 1.793-5.671 1.066-9.24-.98-3.52 1.158-5.598.742-9.08-1.957-3.14-4.706-3.706-3.256-7.847.693-1.533-5.437-5.643-5.104-7.222.47-2.233 7.492-7.32 7.604-9.14.385-6.245-6.238-7.63-9.028-5.186-4.732 4.143-12.885 10.259-17.988 12.718-7.698 3.71-17.157 5.373-16.621 3.64 1.167-3.778-6.691-5.507-7.612-4.586-9.398 9.399-18.415 32.995-22.83 66.129-.66 4.964-1.863 7.715-2.562 12.817" fill="#F1D5C3"/><path d="M214.968 291.554s-8.145 4.097-11.69 5.812" stroke="#E5B79E" stroke-width="2"/><path d="M212.385 280.053c-2.327.843-23.678 12.79-30.14 13.13-2.603.137-.751-1.675-3.418-2.564-5.127-1.71-7.542-1.684-8.546-.854 0 0-16.233 22.215-24.778 78.608" stroke="#E5B79E" stroke-width="3"/><path d="M221.05 167.763c-.814.126-1.187-.518-.672-1.16l10.08-12.563.779-.97c4.648-5.794 13.823-7.218 16.514-2.562l.45.779.453.779c2.691 4.655-3.12 11.898-10.46 13.037l-1.228.19-15.917 2.47zm-1.21 9.939c-.417-.223-.395-.734.04-.92l8.537-3.635.659-.28c3.936-1.677 8.655.843 8.493 4.535l-.028.618-.028.62c-.162 3.691-5.084 5.787-8.858 3.77l-.63-.337-8.185-4.37z" fill="#37B1CC"/></g></svg>