<?xml version="1.0" encoding="UTF-8"?>
<!-- by Tanja Rohlfs (https://consento.org/team/tanja) - license: CC-BY-NC-SA (see: https://creativecommons.org/licenses/by-nc-sa/4.0/) -->
<svg width="780" height="500" xmlns="http://www.w3.org/2000/svg"><g fill="none" fill-rule="evenodd"><path fill="#FFF" d="M0 0h780v500H0z"/><path fill="#050505" d="M673.015 217.836l-1.902-.89 68.864-146.913 1.901.891z"/><path d="M423.124 267.182s-8.909-1-11.444-3.602c-2.534-2.608-17.129-10.82-22.867-10.202a6.35 6.35 0 00-1.302.276s-.006 0-.013.004c-.302.025-5.07.473-5.467 2.145-.647 2.722-3.29 2.537-3.282 4.071 0 .121.012.239.037.347-.715.836-1.196 1.722-1.045 2.506.065.357.213.618.413.814-.225.348-.345.718-.326 1.099.058.952.296.94 1.108 1.08 1.578.261.477-1.172 3.463-1.122 1.173.203 4.142.744 6.09 1.391 2.198.73.408-.002 4.29 2.75 1.084.767 3.05 2.963 1.781 3.907-.737.548-1.465 1.388-3.122 1.742-4.98 1.065-6.222 5.707-6.222 5.707s-.026 4.493 4.724-.437c4.749-4.93 12-1.749 14.917-3.663 2.919-1.914 13.531 2.484 13.531 2.484l4.736-11.297z" fill="#D39C81"/><path d="M384.49 261.668c-.74-.117-1.348-.13-1.705.023a56.74 56.74 0 00-1.073.487c-1.087.502-3.118 1.433-3.486 1.241l-.274.536c.595.303 1.974-.29 4.012-1.231.383-.177.747-.345 1.06-.48 1.02-.443 5.749 1.148 8.49 2.253l.224-.557c-.581-.235-4.692-1.87-7.248-2.272m.416-3.508c-.042-.006-.082-.013-.119-.016-1.13-.14-2.922.876-4.107 1.548-.4.226-.746.422-.918.487-.262.1-.342.056-.343.056l-.6.052a.61.61 0 00.277.455c.219.138.513.138.88 0 .214-.083.56-.279 1-.527 1.048-.595 2.805-1.59 3.738-1.475 1.36.175 7.346 2.037 7.406 2.056l.18-.574c-.242-.075-5.79-1.81-7.394-2.062m3.212-2.576a7.342 7.342 0 00-.221-.031c-1.293-.16-3.083.385-4.358.869-.505.193-1.394-.014-1.693-.112l-.185.572c.052.017 1.287.407 2.092.102 1.711-.651 3.157-.947 4.07-.834 1.366.168 3.597.98 3.62.987l.205-.564c-.089-.033-2.1-.764-3.53-.989" fill="#AA5D48"/><path d="M415.212 277.998c72.712 19.57 72.478 65.189 72.83 72.16l26.108-2.816s-6.648-65.212-94.798-81.324c-5.414-.99-4.14 11.98-4.14 11.98" fill="#D22"/><path d="M414.4 280.83s-8.961.232-11.83-1.997c-2.868-2.234-18.452-8.365-24.05-6.965-.453.111-.87.267-1.253.452 0 0-.006 0-.012.006-.296.066-4.957 1.165-5.12 2.875-.269 2.785-2.911 2.964-2.693 4.483.016.12.044.235.085.338-.595.927-.949 1.87-.692 2.627.114.345.296.583.521.749-.175.375-.242.758-.17 1.133.186.935.421.892 1.244.92 1.599.04.311-1.228 3.276-1.589 1.19.041 4.205.168 6.224.542 2.277.421.404-.059 4.626 2.135 1.179.61 3.428 2.516 2.301 3.626-.655.643-1.261 1.575-2.853 2.153-4.787 1.74-5.38 6.508-5.38 6.508s.591 4.453 4.62-1.081c4.027-5.535 11.646-3.38 14.273-5.676 2.627-2.297 13.744.6 13.744.6l3.14-11.838z" fill="#E0B094"/><path d="M375.375 280.673c-.748-.015-1.354.057-1.685.257-.296.18-.636.399-.996.63-1.008.645-2.892 1.848-3.283 1.707l-.198.57c.63.218 1.915-.56 3.805-1.771.356-.228.693-.445.985-.621.949-.579 5.85.347 8.717 1.066l.147-.583c-.609-.153-4.905-1.208-7.492-1.255m-.069-3.532h-.12c-1.14.017-2.775 1.269-3.857 2.097-.365.28-.68.52-.841.609-.247.136-.332.103-.332.103l-.587.134a.611.611 0 00.336.412c.236.107.528.066.871-.121.202-.11.518-.353.919-.66.957-.732 2.56-1.959 3.5-1.973 1.37-.014 7.555 1.01 7.618 1.02l.1-.593c-.25-.042-5.985-.998-7.607-1.028m2.828-2.992a8.063 8.063 0 00-.224-.001c-1.302.02-3 .804-4.197 1.459-.475.26-1.383.177-1.693.122l-.104.592c.053.009 1.33.225 2.085-.186 1.607-.88 2.998-1.372 3.918-1.386 1.377-.021 3.697.476 3.72.481l.127-.587c-.093-.02-2.186-.468-3.632-.494" fill="#AA5D48"/><path d="M733.466 281.282c.202.566 6.984 8.21 6.984 8.21s23.418-18.944 26.778-22.81c1.529-1.758-4.645-1.634-6.617-.38-11.323 7.197-14.286 6.057-18.532 7.116-9.76 2.432-8.816 7.297-8.613 7.864" fill="#56A7B2"/><path d="M571.38 279.548c1.999-.506 80.098-63.546 103.306-63.475 23.345.072 40.361 46.16 65.233 57.168 1.887.835-9.684 7.766-9.684 7.766-25.517-8.283-32.998-13.038-52.132-42.935-2.026-3.165-9.864-7.041-11.683-1.574-17.181 13.405-34.961 27.295-46.45 46.476-6.825 16.712-14.21 25.216-34.499 29.236 0 0-23.659-30.239-14.09-32.662" fill="#B2B2B2"/><path d="M729.058 288.964c.056.644 5.031 10.46 5.031 10.46s29.57-13.338 34.125-16.447c2.073-1.415-4.391-2.972-6.789-2.203-13.76 4.403-16.535 2.406-21.247 2.35-10.832-.132-11.177 5.194-11.12 5.84" fill="#69BAC9"/><path d="M573.08 277.584c1.999-.506 77.32-54.46 100.529-54.388 23.345.073 42.112 48.898 66.983 59.907 1.887.835-9.684 7.765-9.684 7.765-25.516-8.282-32.998-13.037-52.13-42.934-2.026-3.166-9.865-7.041-11.685-1.574-17.18 13.405-34.96 27.294-46.449 46.475-6.825 16.711-13.579 22.554-33.868 26.572 0 0-23.263-39.4-13.695-41.823" fill="#C7C7C7"/><path d="M39.266 74.187s3.405-8.787-4.858-9.64c-.572-.061-14.411 1.895-19.089 3.5-.573.198-4.457 1.093-4.315 2.16.423 3.163 3.24 3.009 5.302 3.568 3.02.815 21.988 1.92 22.96.412M81.6 75.388s6.98-6.33-.025-10.795c-.484-.31-13.734-4.76-18.635-5.42-.6-.08-4.474-1.02-4.825-.004-1.038 3.02 1.549 4.142 3.142 5.566 2.334 2.082 18.799 11.567 20.344 10.653" fill="#E26666"/><path d="M187.808 232.221s-47.975-19.925-82.534-66.042c-34.558-46.117-31.58-93.877-31.58-93.877l8.861 2.13s6.738 43.55 47.795 83.082c41.057 39.531 66.842 38.617 66.842 38.617l-9.384 36.09z" fill="#2B5165"/><path d="M118.105 181.587c5.277 2.148 5.835 3.469 15.769 8.876l20.055 6.371-23.163-2.673c-6.225-5.769-7.888-7.007-12.661-12.574" fill="#152F38"/><path d="M164.359 246.095s-50.851-9.493-90.689-51.42C34.442 153.39 23.185 85.325 30.15 74.901l8.773-.624s4.582 69.56 53.145 99.515c48.143 29.696 71.402 29.614 71.402 29.614l.889 42.69z" fill="#2B5165"/><path d="M339.4 222.917c-68.453 17.227-93.387-32.979-97.358-39.763l-22.357 12.503s25.015 66.703 121.47 37.036c5.924-1.823-1.755-9.776-1.755-9.776" fill="#F1D5C3"/><path d="M285.838 218.57l6.272 3.475-8.44 20.745-48.024-17.879s23.333-26.426 24.645-23.246c1.31 3.18 25.547 16.905 25.547 16.905" fill="#69BAC9"/><path d="M252.362 231.134l-5.684-6.028 6.227-4.79s7.454 6.604 7.4 6.755c-.054.152 4.647 8.75 4.647 8.75l-12.59-4.687z" fill="#2B5165"/><path d="M369.664 229.827s-.634.467-1.049.752c-4.116 2.824-18.61 2.542-21.608 1.598-3.002-.946-10.202 1.945-10.202 1.945l-1.014-10.493s9.883-1.063 11.324-3.716c1.44-2.654 8.276-3.2 9.875-8.905 1.596-5.7 3.42-2.268 3.42-2.268s.953 4.045-2.41 6.904c-1.11.947-1.329 1.886-1.661 2.604-.581 1.24 1.818 2.107 2.955 2.247 4.087.508 2.43.684 4.404.339 1.737-.304 4.195-1.093 5.188-1.426.006-.001.01-.006.01-.006 2.306-1.192.877-1.833 2.187-2.277.68-.229.86-.337 1.286.371.173.281.23.608.204.96.234.069.456.215.653.457.434.54.433 1.407.231 2.338.065.073.118.154.169.249.632 1.169-1.453 2.11-.834 4.446.395 1.488-3.128 3.881-3.128 3.881" fill="#F1D5C3"/><path d="M362.058 223.726l-.057-.516c2.542-.281 6.798-1.008 7.394-1.762.184-.233.392-.509.612-.801 1.167-1.551 1.976-2.57 2.553-2.582l.011.52c-.367.008-1.526 1.547-2.148 2.375-.223.296-.434.576-.62.811-.926 1.172-7.05 1.879-7.745 1.955m1.096 3.064l-.098-.51c.054-.01 5.373-1.036 6.487-1.469.759-.295 1.69-1.772 2.245-2.655.233-.37.417-.662.547-.812.222-.256.447-.377.67-.361a.54.54 0 01.397.232l-.432.29c-.018-.005-.104.02-.242.18-.104.12-.287.41-.5.747-.628.999-1.577 2.506-2.496 2.863-1.158.45-6.358 1.452-6.578 1.496m1.992 2.515l-.075-.515c.02-.003 2.057-.3 3.164-.731.742-.288 1.722-1.106 2.76-2.304.49-.562 1.59-.771 1.637-.78l.095.512c-.27.05-1.032.257-1.338.609-.774.892-1.916 2.04-2.965 2.448-1.164.452-3.192.748-3.278.76m-13.386-6.345l-.027-.52c3.317-.17 3.837-1.958 4.116-2.919.113-.387.194-.666.462-.724l.11.507a.13.13 0 00.067-.034c-.037.045-.093.24-.139.397-.293 1.007-.904 3.103-4.59 3.293" fill="#DF715C"/><path d="M333.022 258.157c-69.169 14.082-89.753-37.952-93.41-44.909l-22.905 11.468c4.79-2.494 32.616 72.15 120.233 44.551.559-.176-3.918-11.11-3.918-11.11" fill="#F1D5C3"/><path d="M364.579 268.203c-4.372 2.418-17.355.693-20.243-.551-2.892-1.248-7.399 1.615-7.399 1.615l-3.913-11.111s19.924-4.837 23.104-10.011c3.098-5.046 3.564-2.18 3.564-2.18s1.658 2.973-2.2 5.153c-1.274.717-1.971 3.134-1.922 3.923.11 1.638 1.755 2.165 2.87 2.43 1.173.28.276.319 2.272.174 1.177-.086 3.425-.357 5.31-.597-.085-1.355.274-2.987 1.119-3.475.618-.361 1.296-.464 1.858.142.653.71.502 2.124.142 3.453-.129 1.987-.832 8.965-4.562 11.035m-120.905-52.409s9.548 12.416 16.128 14.023c4.373 1.068 5.826.617 15.38-.485 5.644-.651 7.708-12.462 7.708-12.462l4.197-26.016 1.643-7.39-45.478-2.82.422 35.15z" fill="#F1D5C3"/><path d="M276.65 203.812c-.099 1.692.489 3.115 1.31 3.181.822.065 1.568-1.252 1.666-2.943.098-1.69-.49-3.115-1.311-3.18-.822-.066-1.568 1.251-1.666 2.942m-16.123-.825c-.104 1.796.52 3.31 1.393 3.38.873.07 1.666-1.33 1.77-3.128.104-1.797-.52-3.31-1.394-3.38-.873-.069-1.666 1.331-1.77 3.128" fill="#000"/><path d="M270.59 205.542s2.087 8.764.877 9.29c-1.21.526-2.384-.58-2.384-.58l1.507-8.71z" fill="#FF3434"/><path d="M266.73 246.436l-13.265 18.828-44.348-32.109s24.843-21.852 27.836-18.571c6.327 6.934 29.777 31.853 29.777 31.853" fill="#69BAC9"/><path d="M176.897 189.623s-42.33 28.151-12.538 56.472c7.302 6.942 59.95-1.94 59.95-1.94l19.525-22.029-12.99-14.238-53.947-18.265z" fill="#69BAC9"/><path d="M251.235 222.329l-4.557 2.777s-16.335-17.558-15.833-17.218c.5.34 9.984 3.253 11.226 4.397 1.241 1.145 9.164 10.044 9.164 10.044" fill="#F1D5C3"/><path d="M237.516 208.72s-1.348 3.382 1.698 8.342c3.046 4.96-6.656-4.075-6.68-4.094-.024-.019-3.013-5.307-3.013-5.307l7.995 1.058z" fill="#69BAC9"/><path d="M227.312 213.747l-.023-1.04c4.227-.094 7.708 1.6 9.788 2.612.674.328 1.436.699 1.649.692 0 0-.034.001-.08.026l.476.925c-.508.261-1.174-.062-2.5-.708-1.995-.97-5.335-2.595-9.31-2.507" fill="#2B5165"/><path d="M263.64 219.244c-.328-.256-.591-.54-.752-.854a.26.26 0 01.462-.238c.513.998 2.662 1.961 5.607 2.515 3.094.582 6.017.5 6.8-.19a.26.26 0 11.344.39c-1.075.948-4.506.826-7.24.312-.963-.182-3.752-.786-5.22-1.935" fill="#DF715C"/><path d="M290.505 192.23l-5.45.667-1.409-9.511-2.256 9.331-16.727-.182L263 182.18l-2.307 9.89-11.886-.03c.009.073.007.151.009.223.037 1.148 3.134 7.305.253 13.568-6.304 13.704-55.277 6.427-64.383 2.836-15.642-6.171-47.603-27.43-43.103-33.7.89-1.24 3.413-3.487 4.983-4.99.6-.578 6.79 2.886 6.79 2.886s-4.101-5.533-3.566-5.986c4.169-3.524 8.86-6.872 12.644-9.136.63-.378 5.992 2.562 5.992 2.562s-3.066-4.19-2.563-4.43c1.523-.726 2.694-1.1 3.33-1.006 14.414 2.132 36.287 26.21 56.295 17.725 11.185-4.744 17.754-14.756 35.067-13.014 17.302 1.745 31.953 6.97 32.665 19.343.72 12.376-2.716 13.31-2.716 13.31" fill="#FF3434"/><path d="M244.178 196.314c-.125-.17-6.837-2.953-7.17 4.052-.33 7.005 4.473 6.452 6.65 6.811 2.174.357.645-10.693.52-10.863" fill="#F1D5C3"/><path d="M242.973 210.953c-.016-.145 6.18 11.167 7.113 12.076l-1.98 1.206-5.133-13.282zm117.517 49.913l-.05-.518c2.714-.266 6.814-.688 7.344-.788.202-.238.97-1.57.939-1.921l.517-.046c.053.592-.95 2.263-1.185 2.419-.07.046-.196.13-7.565.854m.28 2.422l-.06-.516c7.485-.87 7.61-.816 7.693-.78l-.208.477.104-.238-.033.257c-.313-.016-4.655.47-7.496.8m-.224 2.572a.297.297 0 01-.117-.262l.518.05c.01-.116-.066-.198-.109-.214.483.195 5.656-.114 6.15-.368l.066.13.285.247c-.383.44-6.18.694-6.706.468a.4.4 0 01-.087-.05" fill="#DF715C"/><path d="M409.615 292.579c70.878 16.798 72.981 60.148 79.09 65.24l22.576-2.761s-9.382-66.753-98.632-74.786c-5.482-.493-3.034 12.307-3.034 12.307" fill="#FF3434"/><path d="M670.435 273.852c-8.241.203-15.087-6.315-15.29-14.556-.203-8.242 6.315-15.088 14.556-15.29 8.243-.202 15.087 6.315 15.29 14.557.203 8.241-6.314 15.087-14.556 15.289" fill="#FFF"/><path d="M683.941 258.589c-.188-7.65-6.564-13.721-14.214-13.533-7.65.189-13.72 6.565-13.532 14.215.188 7.648 6.564 13.72 14.215 13.532 7.65-.188 13.72-6.565 13.531-14.214m-29.846.733c-.216-8.807 6.773-16.148 15.58-16.365 8.808-.217 16.149 6.773 16.366 15.58.217 8.807-6.773 16.148-15.58 16.365-8.808.216-16.149-6.773-16.366-15.58" fill="#050505"/><path fill="#050505" d="M670.35 263.366l-1.903-.89L748.842 90.95l1.901.892z"/><path d="M492.832 326.87c3.278-5.115 40.264-48.276 80.533-51.208 9.582-.697 19.3 43.169 19.3 43.169s-6.134-.525-14.087 9.237c-1.06 1.301-2.504 3.642-4.094 6.46-8.728 15.468-25.236 26.335-41.83 32.668l-27.67 9.52s-18.613-15.922-18.604-18.718c.008-2.796 6.452-31.127 6.452-31.127" fill="#FF3434"/><path d="M488.77 372.395c7.263 14.926 7.94 25.542 6.63 27.445-4.9 7.12-19.788 28.306-19.788 28.306-8.918-4.183-22.299-10.456-26.76-12.548-2.44-4.283-4.747-9.921-6.89-19.237-.034-1.545-.934-4.902.411-7.726 1.487-3.122 4.829-6.177 6.474-12.299 1.456-5.412 7.262-8.28 11.56-12.599 5.635-5.661 9.064-6.731 13.299-2.796.683.635 1.67 1.566 2.288 2.14 6.1 5.667 12.596 3.593 7.26 9.336-.74.796 5.517-.022 5.517-.022" fill="#E0B094"/><path fill="#E0B094" d="M488.834 376.456l4.742 6.855 8.663-9.71-6.697-7.277-6.3-5.127-10.275 13.627 9.984 1.938"/><path d="M452.663 388.208c-.602-.556-.053-2.135 1.228-3.523 1.28-1.39 2.81-2.064 3.412-1.508.603.556.052 2.135-1.228 3.524-1.281 1.389-2.81 2.064-3.412 1.507" fill="#383838"/><path d="M454.463 370.131c-.398.9-5.136 5.814-5.595 6.324.079-.71 1.17-7.129 1.447-7.93.187-.542 4.273 1.326 4.148 1.606" fill="#DF715C"/><path d="M466.728 401.244c-.029.187 2.42 5.42 7.04.3 4.619-5.12 1.264-6.95.128-8.236-1.136-1.287-7.138 7.75-7.168 7.936" fill="#F1D5C3"/><path d="M497.661 400.363c-.51-1.15.92-6.17.674-7.359-.216-1.047 2.818-18-.143-14.956l-7.295 7.16a27.735 27.735 0 01-8.467 6.385c-7.738 3.767-23.557 12.475-28.43 15.096-1.722.931-3.911.667-5.522-.63-.18-.043-.363-.09-.553-.143-.802-.231-1.397-.984-1.856-2.067-1.964-4.604-1.631-14.198-3.695-15.213-14.966-7.354-27.47 22.239-9.034 37.695 3.885 3.257 9.505 1.287 11.384 5.453 4.96 11.002 24.13 14.185 32.254 5.666 4.365-4.579 1.84-5.94 4.428-6.926 12.828-4.893 23.038-14.885 16.255-30.161" fill="#383838"/><path d="M481.57 392.317l.925-1.241s14.593-15.756-2.89-31.981c-16.227-15.06-23.494 7.707-23.76 8.603-.003.012 8.786 4.129 13.627 12.355 1.902 3.23-13.492 18.096-13.94 19.981-.427 1.82-1.635 7.227-7.054 6.024 1.61 1.298 3.8 1.562 5.522.631 6.375-3.43 20.458-11.132 27.57-14.372" fill="#383838"/><path d="M467.532 391.717c2.238-2.408 4.989-3.49 6.145-2.415 1.157 1.074.28 3.897-1.958 6.307-2.238 2.408-4.99 3.489-6.146 2.415-1.156-1.074-.279-3.899 1.959-6.307" fill="#E0B094"/><path d="M459.066 362.725s3.674.815 4.804 4.195" stroke="#DF715C" stroke-width=".923"/><path d="M454.95 381.28s2.857-1.212 4.813.406" stroke="#383838" stroke-width=".867" stroke-linecap="round"/><path d="M496.701 322.144c1.019 1.6 19.293 23.97 8.971 30.808" stroke="#8C3434" stroke-width=".7"/><path d="M533.11 289.385c11.632 2.26 19.347 12.487 26.288 21.423 7.097 9.14 12.282 18.56 13.775 30.18m-55.419-43.32c10.504 3.701 20.789 6.432 37.863 31.07 5.311 7.664 7.672 17.023 7.692 26.347m-58.425-48.265c9.404 2.275 19.836 9.532 26.885 16.16 9.58 9.009 16.225 14.038 20.921 37.902m-51.238-44.624c9.867 4.29 17.001 11.045 23.024 19.02 7.333 9.712 9.867 13.013 13.81 22.704 1.98 4.867 2.787 10.518.892 15.42" stroke="#FFF" stroke-width="2.1"/><path d="M395.066 271.829s1.177-2.274 4.87-1.955" stroke="#AA5D48" stroke-width=".7"/><path fill="#050505" d="M748.714 92.226l-8.819-21.03 2.005-.247 8.818 21.03z"/></g></svg>