<?xml version="1.0" encoding="UTF-8"?>
<!-- by Tanja Rohlfs (https://consento.org/team/tanja) - license: CC-BY-NC-SA (see: https://creativecommons.org/licenses/by-nc-sa/4.0/) -->
<svg width="250" height="600" xmlns="http://www.w3.org/2000/svg" xmlns:xlink="http://www.w3.org/1999/xlink"><defs><path id="a" d="M.411.593h37.665v15.932H.411z"/><path id="c" d="M0 .532h46.192v95.25H0z"/></defs><g fill="none" fill-rule="evenodd"><path fill="#FFF" d="M0 0h250v600H0z"/><path d="M87.61 258.46c-.229 1.216-1.852 4.903-1.852 4.903l-1.154 5.067-3.284-.95s.296-2.492.191-2.671c-.122-.22.053-.689.07-.91l.035-.261c.036-1.088 1.031-1.887 1.678-2.768.385-.606.471-1.28.507-1.941.052-1.047-.122-2.094-.454-3.099-.245-.647-.875-1.225-.875-1.914.14-.427.752-.592 1.259-.578 1.625.027 3.233.922 3.705 2.162.254.782.404 1.744.174 2.96m73.873.274c.23 1.216 1.852 4.902 1.852 4.902l1.154 5.068 3.286-.95s-.298-2.493-.193-2.672c.122-.22-.052-.688-.07-.909l-.035-.261c-.034-1.088-1.031-1.887-1.677-2.768-.385-.606-.472-1.28-.507-1.942-.052-1.046.122-2.093.455-3.098.244-.647.873-1.226.873-1.914-.14-.427-.75-.592-1.259-.579-1.625.028-3.231.923-3.704 2.162-.253.782-.403 1.745-.175 2.961" fill="#F1D5C3"/><path d="M183.498 209.345s-3.161.404-3.581.536c-.617.193.213-5.898.213-5.898l4.307 5.21-.939.152zm6.499-26.467s2.885-.506 3.265-.645c.559-.203.13 5.14.13 5.14l-4.251-4.315.856-.18z" fill="#2B5165"/><path d="M162.865 227.835l-38.14.124-38.1.124s-2.756-14.075-4.115-14.063c-1.36.013-4.037 14.137-4.037 14.137l-8.233.082s-.76-10.512-.146-44.373c.317-17.365 14.366-23.417 12.14-54.339-4.089-56.811 18.35-65.504 30.96-67.748 5.675-1.009 16.335-1.043 22.02-.071 12.623 2.16 35.118 10.706 31.4 67.545-.291 4.454-.249 8.39.039 11.915 1.71 20.972 12.087 27.48 12.453 42.343.836 33.856.145 44.372.145 44.372l-8.235-.027s-2.769-14.107-4.126-14.11c-1.36-.004-4.025 14.089-4.025 14.089" fill="#FF3434"/><path d="M162.865 227.835l-38.14.124-38.1.124s-2.756-14.075-4.115-14.063c-1.36.013-4.037 14.137-4.037 14.137l-8.233.082s-.76-10.512-.146-44.373c.317-17.365 14.366-23.417 12.14-54.339-4.089-56.811 18.35-65.504 30.96-67.748 5.675-1.009 16.335-1.043 22.02-.071 12.623 2.16 35.118 10.706 31.4 67.545-.291 4.454-.249 8.39.039 11.915 1.71 20.972 12.087 27.48 12.453 42.343.836 33.856.145 44.372.145 44.372l-8.235-.027s-2.769-14.107-4.126-14.11c-1.36-.004-4.025 14.089-4.025 14.089z" stroke="#FF3434" stroke-linecap="round" stroke-linejoin="round"/><path d="M111.63 149.464c.134 0 24.965-.076 25.34 0 .374.075-2.727 3.415-2.727 3.415s-13.738 1.305-13.925 1.23c-.187-.075-9.008-4.093-9.008-4.093l.32-.552zm-46.54 59.789s3.467.44 3.928.584c.676.21-.13-6.096-.13-6.096l-4.827 5.344 1.03.168zm-6.1-26.173s-2.887-.505-3.267-.644c-.557-.203-.13 5.14-.13 5.14l4.253-4.315-.857-.18z" fill="#2B5165"/><g transform="translate(74.554 535.413)"><mask id="b" fill="#fff"><use xlink:href="#a"/></mask><path d="M37.964 3.406c.226.658.041 12.637.041 12.637s-31.626.998-36.95.12c-2.42-.398 2.588-5 5.018-5.386 13.951-2.23 15.536-5.506 19.646-7.802 9.449-5.28 12.02-.229 12.245.43" fill="#E26666" mask="url(#b)"/></g><path d="M138.595 537.83c-.223.659.041 12.636.041 12.636s31.634.792 36.95-.12c2.42-.414-2.62-4.98-5.055-5.353-13.963-2.14-15.57-5.404-19.694-7.675-9.483-5.219-12.022-.148-12.242.511" fill="#E26666"/><path d="M179.439 202.935c-12.537-18.148 10.166-19.514 10.166-19.514s12.666 10.347 19.639 29.006c8.597 23.007 8.034 56.035-41.695 66.386l1.66-14.824c8.718-1.492 30.644-12.575 23.134-37.707-3.635-12.161-6.612-14.239-12.904-23.347M95.121 99.609c-.134-.165-6.927-2.43-6.808 4.795.12 7.224 4.82 6.23 6.987 6.407 2.167.174-.044-11.038-.179-11.202m59.283-.194c.132-.165 6.91-2.473 6.839 4.751-.073 7.224-4.78 6.261-6.947 6.451-2.164.19-.026-11.037.108-11.202m-30.252 38.057c-19.542-3.29-24.314-11.024-24.624-13.42C98.368 115.095 98 85.305 98 85.305l25.998-9.453 26.064 9.284s-.174 29.791-1.274 38.756c-.292 2.38-4.951 10.054-24.13 13.509-.136.023-.507.071-.507.071" fill="#F1D5C3"/><path d="M110.415 99.684c1.17-.004 2.124 1.599 2.131 3.578.007 1.978-.938 3.588-2.108 3.592-1.17.003-2.126-1.6-2.133-3.579-.005-1.978.94-3.587 2.11-3.59m29.086-.095c1.17-.005 2.125 1.598 2.131 3.577.007 1.979-.937 3.588-2.108 3.593-1.17.002-2.126-1.6-2.133-3.58-.006-1.978.94-3.588 2.11-3.59" fill="#000"/><path d="M124.271 116.282c-.53-.147-1.586-.44-1.73-1.111-.2-.928.257-2.99.528-4.462.287-1.546.989-4.015 1.187-4.82.203.803.921 3.268 1.219 4.812.28 1.472.75 3.528.556 4.459-.14.67-1.194.972-1.721 1.122h-.039z" fill="#FF3434"/><path d="M81.16 269.996a87.316 87.316 0 00-4.38-1.405c-.646-.261-1.28-.592-1.83-1.019-.414-.317-.758-.757-.717-1.28.028-.813.427-1.653 1.13-2.162.44-.262 1.817-.84 2.34-.923 1.005.303 1.914.51 2.727.647l.082.702.042.303v.014l.605 5.123zm-5.591-1.626a5.22 5.22 0 01-.468-.275.354.354 0 01.33-.11c.29.096.317.248.234.427v.014a.222.222 0 01-.096-.055m5.632 1.941l-1.308-.454c.427.138.867.275 1.294.427l.014.027zm-4.558-1.074c1.308.372 2.975.895 4.6 1.418l.523 4.448c-.854-.33-1.722-.633-2.74-.854-1.02-.192-2.093-.275-3.016-.73-.386-.178-.62-.523-.826-.867-.344-.606-.537-1.308-.468-1.997.082-.564.303-1.115.564-1.638.042-.097.124-.207.207-.317.385.206.785.372 1.156.537" fill="#F1D5C3"/><g transform="translate(36 182.888)"><mask id="d" fill="#fff"><use xlink:href="#c"/></mask><path d="M46.192 95.783c-1.955-.4-3.828-.826-5.632-1.295-.068-.013-.151-.027-.22-.055a4.581 4.581 0 01-.413-.11h-.014c-.303-.069-.578-.151-.88-.234l-.455-.124C-3.652 82.205-3.942 51.47 4.044 29.657 8.464 17.58 15.28 8.96 19.562 4.361a61.37 61.37 0 012.203-2.259C22.84 1.07 23.486.532 23.486.532s.07 0 .18.014c1.074.083 6.65.634 10.382 3.401 3.635 2.686 5.535 7.45-.18 15.905l-.082.124c-.29.427-.565.84-.854 1.226a8.981 8.981 0 01-.482.702c-1.184 1.694-2.244 3.14-3.208 4.476h-.014c-3.387 4.71-5.631 8.248-8.192 17.02C14.536 65.722 31.073 76.862 41 80.112a.392.392 0 00-.179 0c-.578.11-1.157.248-1.694.496-1.087.66-1.72 1.983-1.555 3.18.151.73.688 1.268 1.335 1.695-.22.289-.385.605-.51.936-.44.978-.523 2.107-.082 3.112l.041.11c.22.44.469.895.84 1.24.083-.097.18-.18.29-.18.027-.013.055-.013.082-.013.014 0 .014 0 .028.014l.027-.028 2.905.936h.014c.276.055.537.097.744.152.826.193 1.666.413 2.506.66l.027.249.014.11.358 3.002z" fill="#F1D5C3" mask="url(#d)"/></g><path fill="#F1D5C3" d="M124.053 136.776l-8.508-1.882-.22 19.4 8.812 2.064.256-.001 8.794-2.122-.347-19.398-8.493 1.938z"/><path d="M124.695 258.088s-36.73.625-36.972-3.256c-.917-14.667 5.177-58.524 5.177-58.524s-24.74 18.046-24.052 12.709c.84-6.492-7.923-22.12-13.228-26.024-2.783-2.046 51.2-38.473 58.125-32.951 3.43 2.733 10.607 3.192 10.607 3.192s7.177-.506 10.589-3.263c6.887-5.566 61.108 30.509 58.337 32.573-5.279 3.937-13.832 19.927-12.951 26.413.724 5.332-24.24-12.856-24.24-12.856s5.156 43.588 4.335 58.26c-.217 3.882-35.727 3.727-35.727 3.727" fill="#69BAC9"/><path d="M160.911 252.094c-1.813.6-77.769-3.387-74.093 3.195-8.523 46.558-6.65 94.341-6.292 141.464 1.776 47.536 3.456 96.89 18.23 142.14l.469.11 12.268.178c.799-.069 1.294-.647 1.253-1.446-6.54-73.644-3.897-148.707 12.158-221.016 16.703 72.391 19.457 147.592 13.632 221.485-.096 1.983 12.613.096 13.467.592 18.464-55.22 17.06-117.421 17.955-175.767-1.474-36.533 1.5-76.33-9.047-110.935" fill="#2B5165"/><path d="M84.048 281.399c1.23 1.147 2.375 2.868 2.788 4.395.113.42-.055 2.215-.923 1.811-.946-.44-1.608-1.601-2.523-2.173a41.06 41.06 0 00-2.325-1.364c-.567-.302-1.158-.564-1.724-.865-1.971-1.052-7.464-4.038-4.46-6.654l9.167 4.85z" fill="#F1D5C3"/><path d="M90.082 284.166c-.785.964-3.29-1.047-4.186-1.612-.606-.371-1.212-.757-1.817-1.129-.056-.027-.11-.069-.166-.096-.11-.069-.22-.138-.344-.22-.138-.083-.29-.166-.44-.262-1.047-.62-2.121-1.226-3.278-1.763-.316-.151-.66-.289-1.019-.44-.977-.4-2.037-.827-2.905-1.433h-.014a7.743 7.743 0 01-.495-.371 4.204 4.204 0 01-.675-.73c-.33-.455.138-1.584.606-2.231.069-.096.137-.179.206-.248l.042-.041.027-.028 2.905.937h.014l3.277 1.06 1.86.592 2.491.799c.014.014.028.014.042.027l.84.262c.082.069.22.22.413.427v.014c.014 0 .014.013.027.013 1.157 1.309 3.91 4.848 2.589 6.473m-14.416-15.74a.222.222 0 01-.097-.055l.097.041v.014z" fill="#F1D5C3"/><path d="M75.624 273.562l2.905.936c-.867-.151-1.955-.316-2.67-.688h-.015a1.474 1.474 0 01-.289-.18c-.027-.013-.041-.027-.069-.04.028-.014.056-.014.083-.014.014 0 .014 0 .028.014l.027-.028" fill="#F1D5C3"/><path d="M90.908 277.693c-.867 1.474-2.492.579-3.415 0-.013 0-.013-.014-.027-.014v-.013c-.248-.152-.44-.276-.55-.345a16.826 16.826 0 00-.703-.344c-.014-.014-.028-.014-.041-.027a30.681 30.681 0 00-2.465-1.006c-.633-.22-1.267-.44-1.914-.633l-.028-.207c-.853-.33-1.72-.633-2.74-.853-1.019-.193-2.093-.276-3.015-.73-.386-.18-.62-.524-.826-.868-.345-.606-.537-1.308-.468-1.997.082-.564.302-1.115.564-1.638.041-.097.124-.207.207-.317.385.207.784.372 1.156.537 1.308.372 2.974.895 4.6 1.418l-.042-.344 3.084 1.074 2.575.882a.043.043 0 00.028.013c1.418.634 4.888 3.925 4.02 5.412" fill="#F1D5C3"/><path d="M75.569 268.37a5.22 5.22 0 01-.468-.275.354.354 0 01.33-.11c.29.096.317.248.234.427v.014a.222.222 0 01-.096-.055" fill="#E5B79E"/><path d="M75.666 268.412v.014a.222.222 0 01-.097-.055 5.22 5.22 0 01-.468-.275.354.354 0 01.33-.11c.29.096.317.247.235.426m8.936-5.825l.082-.07c.028.056-.013.07-.082.07m7.036 10.934c-.358.276-3.029-.647-4.186-1.06-.179-.055-.358-.124-.537-.18v-.013a606.56 606.56 0 01-2.63-.923c-1.018-.358-2.065-.73-3.098-1.06l-.027-.29a87.315 87.315 0 00-4.379-1.404c-.647-.261-1.28-.592-1.831-1.019-.413-.316-.757-.757-.716-1.28.027-.813.427-1.653 1.129-2.162.44-.262 1.818-.84 2.34-.923l-.013-.014c1.336-.151 2.768-.179 3.897-.303.069-.013.151-.013.22-.013.895-.097 1.68-.07 2.561-.303.055-.028.165 0 .234.013l-2.933 2.479c.055.165.18.317.358.454.11.11.233.193.386.276.675.44 1.652.757 2.175.881.097.028.207.055.33.083.015.014.042.014.056.014 3.057.88 9.762 4.379 6.664 6.747" fill="#F1D5C3"/><path d="M75.666 268.412v.014a.222.222 0 01-.097-.055 5.22 5.22 0 01-.468-.275.354.354 0 01.33-.11c.29.096.317.247.235.426" fill="#E5B79E"/><path d="M83.707 281.219c.096.068.179.123.262.206-.042 0-.303-.096-.716-.317-.056-.027-.097-.04-.138-.068-1.79-.91-2.148-1.02-2.878-1.364-1.762-.826-3.787-1.35-5.205-2.699a1.992 1.992 0 01-.303-.289c-.165-.193-.358-.4-.413-.647-.082-.358 0-.73.124-1.06.138-.372.344-.717.592-1.033.055-.055.11-.124.165-.18-.371-.344-.62-.798-.84-1.239l-.04-.11c-.441-1.005-.359-2.134.082-3.112.124-.33.289-.647.51-.936-.648-.427-1.185-.964-1.336-1.694-.166-1.198.468-2.52 1.556-3.181.537-.248 1.115-.386 1.693-.496a.392.392 0 01.18 0c.04.014.068.028.096.028.082.013.151.041.206.055.124.041.248.082.358.11h.028l.013.014c-.523.082-1.9.66-2.34.922-.703.51-1.102 1.35-1.13 2.162-.04.524.304.964.717 1.281.55.427 1.184.757 1.83 1.019 1.337.386 2.879.881 4.38 1.405 1.129.399 2.23.798 3.153 1.156 1.473.565 2.52 1.006 2.602 1.116v.013h-.027s-.014 0-.028-.013c-.578-.097-1.5-.345-2.602-.661a165.1 165.1 0 01-3.016-.95 149.738 149.738 0 00-4.599-1.419c-.372-.165-.77-.33-1.156-.537-.083.11-.166.22-.207.317-.262.523-.482 1.074-.564 1.639-.07.688.123 1.39.468 1.996.206.345.44.689.826.868.922.454 1.996.537 3.015.73 1.02.22 1.887.523 2.74.853.62.235 1.24.496 1.942.772.096.04.206.082.317.124.908.358 1.184.495 2.051.895.028.013.07.04.097.055.013.013.027.013.04.027.331.193.772.468 1.158.661-.414-.137-2.052-.77-3.704-1.35a36.07 36.07 0 00-1.832-.619c-.151-.055-.289-.096-.427-.138-1.363-.413-2.781-.688-4.185-.936-.496-.11-1.006-.234-1.46-.468a2.73 2.73 0 00-.358.454c-.234.386-.482.826-.427 1.295.041.165.193.289.303.426.344.386.799.744 1.28 1.075.18.124.372.247.565.358.014.013.028.013.041.027.276.165.565.317.854.455.028 0 .041.013.069.027.11.055.234.11.344.152.964.385 3.195 1.445 4.696 2.423.151.097.303.193.44.29.042.04.083.068.124.096.014 0 .014.014.014.014" fill="#E5B79E"/><path d="M124.566 91.327c-.618.001-13.63.074-13.63.074s-.95-10.895-1.523-10.89c-.575.003-1.927 10.914-1.927 10.914l-11.417-.088s-.05-5.5-.073-10.487l-.017-4.99 28.534-.354v.001l28.537.168.017 4.992c.01 4.985-.006 10.485-.006 10.485l-11.416.164s-1.423-10.902-1.998-10.902c-.574 0-1.451 10.9-1.451 10.9l-13.63.014" fill="#FF3434"/><path d="M124.566 91.327c-.618.001-13.63.074-13.63.074s-.95-10.895-1.523-10.89c-.575.003-1.927 10.914-1.927 10.914l-11.417-.088s-.05-5.5-.073-10.487l-.017-4.99 28.534-.354v.001l28.537.168.017 4.992c.01 4.985-.006 10.485-.006 10.485l-11.416.164s-1.423-10.902-1.998-10.902c-.574 0-1.451 10.9-1.451 10.9l-13.63.014" stroke="#FF3434" stroke-linecap="round" stroke-linejoin="round"/><path d="M114.019 121.19c2.792 3.075 18.345 2.43 20.593-.08" stroke="#DF715C" stroke-width=".5" stroke-linecap="round" stroke-linejoin="round"/><path d="M115.392 138.814c-.003.663.003 1 .003 1l17.505-1.683-.049-2.693-17.313.056" fill="#DF715C"/><path d="M85.136 201.707c.227-.22 8.546-17.256 8.546-17.256l-.783 11.866s-7.99 5.609-7.763 5.39m78.722-.201c-.227-.22-8.545-17.256-8.545-17.256l.782 11.866s7.99 5.609 7.763 5.39" fill="#2B5165"/><path d="M165.214 281.399c-1.23 1.147-2.375 2.868-2.788 4.395-.113.42.054 2.215.922 1.811.946-.44 1.609-1.601 2.524-2.173a41.06 41.06 0 012.325-1.364c.567-.302 1.158-.564 1.724-.865 1.971-1.052 7.464-4.038 4.46-6.654l-9.167 4.85z" fill="#F1D5C3"/><path d="M173.643 273.557c.518.491 1.273 2 .876 2.557-1.106 1.546-3.462 2.204-5.113 2.974-2.157 1.008-4.059 2.238-6.04 3.472-.898.556-3.4 2.564-4.18 1.605-1.547-1.894 2.442-6.39 3.025-6.932l11.432-3.676z" fill="#F1D5C3"/><path d="M173.893 268.302c.335.383.64.964.906 1.882.295 1.008-.057 2.306-.846 3.228-.707.826-2.877.98-3.98 1.234-2.605.605-5.357 1.502-7.628 2.681-.569.293-2.886 2.235-3.988.368-.877-1.486 2.595-4.773 4.021-5.416l11.515-3.977z" fill="#F1D5C3"/><path d="M165.53 262.759c-.058.136.245-.1.357-.07.949.26.815.095 1.786.198 1.787.193 4.341.166 6.027.765 1.125.401 1.967 2.162 1.579 3.245-.37 1.035-2.364 1.96-3.386 2.232-3.33.884-6.835 2.198-10.083 3.332-1.158.407-3.828 1.338-4.186 1.062-3.23-2.48 4.222-6.188 7.055-6.845.795-.185 2.645-.84 2.92-1.61l-2.069-2.31z" fill="#F1D5C3"/><path d="M165.932 265.946c.026-.01.172.001.478-.037.46-.058.695-.186 1.027-.568.192-.2.488-.57.506-.303-.084.218-.287.41-.6.754-.315.343-1.223.387-1.367.46-.02-.14-.03-.196-.044-.306m8.969 6.584c-.193.426-.454.867-.798 1.197a.965.965 0 00.11.138c.248.317.468.675.606 1.047.124.344.22.716.124 1.074-.056.247-.248.454-.414.647-1.445 1.57-3.648 2.134-5.562 3.03-.758.357-1.116.454-3.057 1.445-.413.22-.675.317-.716.317 1.35-1.115 4.406-2.589 5.604-3.057 1.088-.468 2.382-1.253 3.18-2.12.11-.138.262-.262.304-.428.055-.468-.193-.922-.427-1.308a4.48 4.48 0 00-.317-.4c-.468.235-.991.359-1.5.483-1.405.248-2.81.523-4.187.936-2.038.62-5.218 1.86-5.92 2.093.426-.22.95-.537 1.253-.73.867-.399 1.156-.537 2.065-.895 1.79-.688 3.112-1.335 4.998-1.748 1.005-.193 2.08-.276 3.002-.73.385-.18.62-.524.826-.868.344-.606.537-1.308.468-1.997-.082-.564-.303-1.115-.564-1.638a1.757 1.757 0 00-.207-.317c-.385.207-.785.372-1.156.537-3.181.909-8.51 2.782-10.272 3.043.013-.22 6.127-2.547 10.134-3.69.66-.262 1.294-.592 1.831-1.02.413-.316.757-.757.716-1.28-.027-.812-.427-1.652-1.115-2.162-.455-.261-1.831-.84-2.34-.922.15-.055.302-.11.385-.124.11-.028.303-.124.482-.083.592.11 1.156.248 1.693.496 1.088.66 1.721 1.983 1.556 3.18-.151.73-.675 1.268-1.322 1.68.207.29.358.62.496.95.454.979.523 2.108.083 3.113l-.042.11zm-92.457-6.973c-.027-.01-.172.002-.479-.037-.458-.058-.695-.186-1.026-.567-.191-.2-.487-.57-.505-.303.084.217.286.41.6.753s1.223.387 1.366.46c.02-.14.03-.195.044-.306" fill="#E5B79E"/></g></svg>