<?xml version="1.0" encoding="UTF-8"?>
<!-- by Tanja Rohlfs (https://consento.org/team/tanja) - license: CC-BY-NC-SA (see: https://creativecommons.org/licenses/by-nc-sa/4.0/) -->
<svg width="500" height="500" xmlns="http://www.w3.org/2000/svg" xmlns:xlink="http://www.w3.org/1999/xlink"><defs><path id="a" d="M0 .904h266.7V353H0z"/></defs><g fill="none" fill-rule="evenodd"><path fill="#FFF" d="M0 0h500v500H0z"/><path d="M369.173 374.97l3.074 8.876c.67 1.922-1.167 3.509-4.09 3.509H104.863c-2.923 0-4.76-1.587-4.09-3.509l3.083-8.897" fill="#EDEDED"/><path d="M369.173 374.97l3.074 8.876c.67 1.922-1.167 3.509-4.09 3.509H104.863c-2.923 0-4.76-1.587-4.09-3.509l3.083-8.897" stroke="#B5B5B5" stroke-width="2.855"/><path d="M177.859 217.754a20.643 20.643 0 01-.145-.156c.048.052.096.105.145.156m-1.928-3.718a7.546 7.546 0 001.776 3.554 7.495 7.495 0 01-1.778-3.554h.002zm10.776 5.289h-.002.002m-8.993-1.727l-.007-.007.007.007m8.783 1.827l-.002.001c.003 0 .005-.002.008-.003a.014.014 0 01-.006.002m.428-.214l-.018.01.018-.01m-.017.009c-.066.036-.134.07-.201.105.068-.034.135-.069.2-.105" fill="#5600B7"/><path d="M331.805 274.683H141.248a3.835 3.835 0 01-3.823-3.824V154.445a3.835 3.835 0 013.823-3.824h190.557a3.835 3.835 0 013.824 3.824v116.414a3.835 3.835 0 01-3.824 3.824z" stroke="#B5B5B5" stroke-width="3.807"/><path d="M365.328 378.426H107.76c-2.86 0-4.658-1.587-4-3.51l33.38-98.517c.479-.948 2.587-1.716 4.69-1.716h189.427c2.103 0 4.212.768 4.69 1.716l33.38 98.517c.658 1.923-1.14 3.51-4 3.51" fill="#EDEDED"/><path d="M365.328 378.426H107.76c-2.86 0-4.658-1.587-4-3.51l33.38-98.517c.479-.948 2.587-1.716 4.69-1.716h189.427c2.103 0 4.212.768 4.69 1.716l33.38 98.517c.658 1.923-1.14 3.51-4 3.51z" stroke="#B5B5B5" stroke-width="2.855"/><path d="M296.807 367.075H176.28c-3.098 0-5.255-1.65-4.798-3.644l7.023-30.66c.36-1.565 2.857-2.83 5.555-2.83h104.967c2.698 0 5.195 1.266 5.553 2.83l7.025 30.66c.456 1.994-1.7 3.644-4.798 3.644" fill="#666"/><path d="M334.707 319.029H139.11c-2.581 0-4.373-1.087-3.985-2.406l9.662-32.876c.315-1.072 2.456-1.944 4.76-1.944H324.15c2.304 0 4.448.872 4.766 1.944l9.768 32.876c.39 1.319-1.397 2.406-3.978 2.406" fill="#D3D3D3"/><path d="M334.707 319.029H139.11c-2.581 0-4.373-1.087-3.985-2.406l9.662-32.876c.315-1.072 2.456-1.944 4.76-1.944H324.15c2.304 0 4.448.872 4.766 1.944l9.768 32.876c.39 1.319-1.397 2.406-3.978 2.406zm-197.317-8.783h199.399m-197.481-7.854h195.148m-192.947-7.337h190.748m-188.774-6.87h186.753" stroke="#B5B5B5" stroke-width="1.904"/><g transform="translate(51 73.097)"><mask id="b" fill="#fff"><use xlink:href="#a"/></mask><path d="M12.635 198.644c-11.218 53.62 14.188 107.946 62.113 133.82a80.541 80.541 0 01-4.766-25.775v-1.714a80.699 80.699 0 0147.896-73.826l.308-.35 1.047-.445a35.897 35.897 0 0021.847-32.776V169.88l24.49 13.03c24.27 12.868 40.16 36.876 42.52 64.239.28 1.969.28 3.849.28 5.515v1.62a81.188 81.188 0 01-.71 10.832l11.26-15.664 9.542 32.888a81.466 81.466 0 012.975 16.278c15.77-20.655 24.637-45.776 25.223-72.024.001-.472.011-.954.022-1.437.01-.432.018-.864.018-1.284v-.008a123.112 123.112 0 00-74.31-113.351h-.29l-.946-.407a109.902 109.902 0 01-66.159-92.418c-33.06 20.5-54.508 55.198-57.893 94.316-.202 2.215-.432 5.088-.432 7.869v2.78c-.039 24.434 7.114 48.07 20.687 68.359l14.965 22.228-26.704 3.432c-2.596.346-5.325.53-8.087.54h-.199c-16.872.002-32.957-6.796-44.697-18.57zM96.688 353l-13.517-5.516c-63.447-25.896-96.908-95.06-77.834-160.881l2.865-9.885 6 8.362c9.952 13.869 26.064 22.135 43.124 22.135h.168a53.46 53.46 0 006.827-.456l10.66-1.37-5.928-8.802c-14.688-21.958-22.425-47.522-22.383-73.94v-2.772c0-3.185.252-6.352.471-8.754 3.91-45.183 30.14-84.93 70.165-106.297l7.343-3.92.011 8.323a99.911 99.911 0 0059.514 91.288h.176l1.622.655a133.101 133.101 0 0180.729 122.713c0 .488-.01.989-.022 1.489-.009.43-.019.863-.019 1.283v.109c-.73 33.279-13.773 64.886-36.728 88.998l-10.093 10.603 1.498-14.562c.235-2.28.354-4.591.354-6.868a71.439 71.439 0 00-2.832-19.807l-3.817-13.15-7.982 11.104a22.579 22.579 0 01-8.213 6.995l-12.629 6.317 5.84-12.857c4.198-9.241 6.321-19.081 6.312-29.247v-1.625c0-1.495 0-2.906-.194-4.196l-.038-.324c-2.026-24.022-15.955-45.107-37.26-56.402l-9.798-5.214v11.086a45.906 45.906 0 01-26.862 41.469l-.308.35-1.039.446a70.712 70.712 0 00-42.89 65.093v1.622c.221 11.77 3.476 23.476 9.411 33.76L96.688 353z" fill="#FF3434" mask="url(#b)"/></g><path d="M312.66 299.751a128.317 128.317 0 01-35.35 85.66c.25-2.429.38-4.889.38-7.379a76.493 76.493 0 00-3.03-21.201l-6.68-23.019L254 353.261a17.477 17.477 0 01-6.39 5.44 75.547 75.547 0 006.76-31.32v-1.62c0-1.62 0-3.279-.25-4.939a75.55 75.55 0 00-39.9-60.401l-17.14-9.119v19.409a40.917 40.917 0 01-24.89 37.34l-.29.33c-27.87 11.95-45.93 39.37-45.92 69.691v1.62a75.41 75.41 0 0010.08 36.259c-60.91-24.86-93.23-91.679-74.92-154.86a58.07 58.07 0 0047.37 24.221c2.5-.011 5-.171 7.47-.5l18.67-2.401-10.45-15.52a127.597 127.597 0 01-21.53-71.14v-2.78c0-2.74.2-5.56.45-8.3a128.576 128.576 0 0167.54-102.34c.06 41.88 25 79.721 63.47 96.281h.25l.62.25c47.22 20.259 77.79 66.729 77.701 118.109 0 .91-.04 1.87-.04 2.78z" fill-opacity=".55" fill="#FF3434"/><path d="M398.673 328.067a37 37 0 0121.38 33.583v.683a37.329 37.329 0 01-.379 4.653c13.972-10.327 21.55-27.375 19.68-44.825a29.467 29.467 0 01-16.933 5.272 29.814 29.814 0 01-3.805-.256l-15.902-2.044 8.942-13.281a48.756 48.756 0 008.25-27.273v-1.184c0-1.055-.09-2.187-.17-3.056-1.219-14.094-8.293-26.74-19.339-35.095a49.35 49.35 0 01-29.09 36.674l-1.057.407a49.164 49.164 0 00-29.136 45.028v.009c0 .158.004.32.007.483.005.212.01.425.01.632a49.159 49.159 0 006.236 22.892c.01-.031.02-.064.028-.095l5.688-19.601 2.943 4.094c1.425-12.054 8.6-22.558 19.38-28.274l14.587-7.762v16.529c.036 4.862 2.973 9.267 7.481 11.186l1.044.444.155.177zm.488 59.74l7.298-12.644a26.944 26.944 0 003.594-12.925v-.59a27.012 27.012 0 00-16.385-24.866l-1.035-.444-.168-.191a22.286 22.286 0 01-12.47-19.768c-8.085 4.33-13.362 12.35-14.133 21.486l-.039.329c-.049.33-.049.82-.049 1.339v.685a26.764 26.764 0 002.411 11.173l5.838 12.853-12.627-6.314a12.45 12.45 0 01-4.437-3.731 27.288 27.288 0 00-1.044 7.438c0 .86.045 1.737.135 2.598l1.51 14.576-10.105-10.613a59.113 59.113 0 01-16.323-39.551v-.11c0-.158-.005-.32-.008-.483-.005-.23-.01-.46-.01-.683a59.152 59.152 0 0135.877-54.535l1.277-.511a39.356 39.356 0 0022.895-35.711l.012-8.323 7.343 3.92c17.785 9.495 29.44 27.156 31.18 47.244.096 1.057.208 2.482.208 3.94v1.176a58.728 58.728 0 01-9.849 32.709 19.92 19.92 0 002.403.153h.062a19.586 19.586 0 0015.88-8.154l6-8.362 2.864 9.885a59.247 59.247 0 01-34.586 71.489l-13.519 5.517z" fill="#FF3434"/><path d="M336.115 327.362c0 .385.017.79.017 1.176a54.24 54.24 0 0014.945 36.213 30.118 30.118 0 01-.161-3.12 32.28 32.28 0 011.28-8.962l2.825-9.733 5.91 8.223a7.394 7.394 0 002.702 2.3 31.94 31.94 0 01-2.86-13.241v-.685c0-.685 0-1.386.108-2.088a31.935 31.935 0 0116.867-25.534l7.246-3.856v8.205a17.3 17.3 0 0010.522 15.787l.123.139a32.047 32.047 0 0119.414 29.462v.685a31.888 31.888 0 01-4.262 15.329c25.75-10.51 39.413-38.76 31.673-65.468a24.547 24.547 0 01-23.184 10.027l-7.894-1.014 4.418-6.562a53.934 53.934 0 009.103-30.074v-1.176c0-1.158-.085-2.35-.19-3.51a54.359 54.359 0 00-28.553-43.263 44.384 44.384 0 01-26.833 40.703h-.106l-.261.105a54.23 54.23 0 00-32.85 49.932" fill-opacity=".55" fill="#FF3434"/></g></svg>