<?xml version="1.0" encoding="UTF-8"?>
<!-- by Tanja Rohlfs (https://consento.org/team/tanja) - license: CC-BY-NC-SA (see: https://creativecommons.org/licenses/by-nc-sa/4.0/) -->
<svg width="250" height="600" xmlns="http://www.w3.org/2000/svg" xmlns:xlink="http://www.w3.org/1999/xlink"><defs><path id="a" d="M.166.945h74.352v54.172H.166z"/></defs><g fill="none" fill-rule="evenodd"><path fill="#FFF" d="M0 0h250v600H0z"/><path d="M140.21 133v24h-1.96a5.42 5.42 0 001.26-2.98l.171-1.67.107-1.104c-2.076 1.624-5.304 3.276-9.86 3.276-4.542 0-7.598-1.085-9.97-2.18l.151 1.489.018.189a5.43 5.43 0 001.268 2.98h-2.184v-24h21z" fill="#F4D9CE"/><path d="M115.47 537.08c.248.652.045 12.526.045 12.526s-34.985.989-40.872.12c-2.68-.397 2.861-4.956 5.55-5.34 15.432-2.212 17.183-5.456 21.731-7.734 10.451-5.233 13.296-.226 13.545.428m28.845-.98c-.247.653.045 12.525.045 12.525s34.992.785 40.873-.12c2.675-.41-2.898-4.937-5.592-5.306-15.446-2.12-17.222-5.355-21.786-7.606-10.488-5.173-13.297-.146-13.54.506" fill="#383838"/><path d="M128.34 310.9c0 .008-.009.008-.009.008v.019c.017-.02.045-.036.062-.055a.99.99 0 01-.053.027m-44.833-3.436l-.08 1.406c.016-.471.045-.935.08-1.406" fill="#C7C7C7"/><path d="M130.28 310.926c-.884-.66-1.937-.348-2.43.588.095-.347.193-.74.562-.881 0-.01.008-.02.008-.028.607-.283 1.39-.195 1.86.321" fill="#C7C7C7"/><path d="M130.592 311.718a2.479 2.479 0 01-.312-.792c.125.232.232.507.312.792" fill="#C7C7C7"/><path d="M173.439 273.845c-1.352-4.71-.987-18.618-4.442-20.95l-80.157.266c-1.585.18-1.487 1.8-1.808 2.895-11.902 91.871-14.083 192.922 13.719 281.206l13.586.177c-2.93-71.67-4.603-148.85 14.84-220.504 18.472 71.75 21.526 146.244 15.071 219.534-.106 1.969 13.96.099 14.894.58 26.813-82.943 21.33-176.818 14.297-263.204" fill="#69BAC9"/><path d="M86.134 277.708a720.082 720.082 0 00-.525 4.576c.023-.136.486-4.44.525-4.576m.676-5.431a189.842 189.842 0 01-.624 5.013c.193-1.675.406-3.348.624-5.013m85.73 9.643c-.893-6.594-1.892-13.2-3.16-19.721 1.308 6.527 2.344 13.118 3.16 19.72m.989 8.859a299.554 299.554 0 00-.748-6.864c.285 2.288.524 4.576.748 6.864" fill="#C7C7C7"/><path d="M182.417 282.196c-.134.054-.267.116-.41.17-.214.087-.436.177-.659.275h-.008a85.413 85.413 0 01-6.998 2.476c-.16.053-.33.097-.498.151l.293-2.698.062-.544.018-.115.028-.25.018-.23.516-4.648.044-.374v-.027l.036-.302.48-4.39.161-1.451.061-.587c.829-.143 1.674-.41 2.521-.785 7.842-3.445 15.988-16.692 15.872-41.505-.072-15.385-10.576-26.478-21.17-31.776a37.348 37.348 0 00-5.742-2.324c-.008.161-.018.33-.018.49v.018c-.017 2.155 3.365 39.397 5.128 62.42.49 6.446.863 11.77.988 14.904.01.116-.053.223-.169.33-.187.177-.516.338-.97.498-.24.08-.525.16-.837.24-.01 0-.027.009-.045.009-11.591 2.893-69.74 3.321-84.385.748-.499-.08-.935-.168-1.326-.267a3.778 3.778 0 01-.383-.098 4.363 4.363 0 01-.4-.116c-.01-.008-.019-.008-.028-.008-.455-.143-.782-.295-.988-.455-.143-.115-.223-.23-.231-.356-.233-3.721-.143-9.18.124-15.41.925-21.155 3.989-51.168 3.943-52.093.286-3.794.303-7.373.162-10.862a19.27 19.27 0 00-2.235.49c-.018 0-.028 0-.046.008a21.03 21.03 0 00-1.485.445c-.178.063-.357.117-.535.179-12.071 4.273-26.734 18.118-27.882 32.567-2.182 27.413 9.891 40.786 18.393 42.299l.044.383.018.195.017.17.427 3.83.01.131.036.303.008.046v.008l.036.373.018.135.542 4.931.018.206.026.205.046.39.329 3.055.026.196.02.177.052.447.044.435c-.862-.258-1.7-.525-2.527-.81-40.293-13.399-42.68-46.448-38.567-68.875 4.924-26.852 40.418-50.455 44.807-53.384.321-.213.649-.409.997-.578 6.8-3.321 15.218-7.516 22.525-9.36 2.04-.516 4.334.199 6.069-.095 3.57-.624 6.33-.747 7.603-.17.151.055.285.134.392.224.72.587 1.602 1.077 2.546 1.495.284.124.588.241.89.357l.018.186a5.392 5.392 0 001.256 2.957c.265.319.57.614.917.871l7.317 5.45v2.492h.213v-2.493l7.328-5.449c.347-.257.649-.552.916-.871a5.37 5.37 0 001.246-2.957l.17-1.655c.186-.126.356-.26.525-.383.036-.028.062-.054.098-.081.588-.471 1.665-.623 3.116-.49 1.896.17 4.416.81 7.309 1.8 1.236.426 3.307-.217 4.66.335 5.67 2.299 11.381 6.716 17.044 10.312 12.605 6.607 37.693 25.5 42.535 51.896 3.89 21.252 1.96 52.03-32.52 66.614" fill="#E58585"/><path d="M104.717 285.517s-5.79 12.523-12.522 16.429l12.522-16.429zm46.842 0s5.79 12.523 12.522 16.429l-12.522-16.429z" fill="#666"/><path d="M172.792 195.601c-.018-.085-7.048-16.003-7.048-16.003s1.262 14.139 1.275 14.167c.587.061 4.36 1.199 5.773 1.836m-91.404-.533c.018-.085 7.047-16.003 7.047-16.003s-.648 14.087-.761 14.089c-.587.06-4.873 1.276-6.286 1.914" fill="#883434"/><path d="M128.807 280.772c35.05 0 45.165-5.926 45.165-5.926l-1.366-12.523s-8.75 5.596-43.799 5.596h-1.099c-35.048 0-44.407-5.828-44.407-5.828l-.305 12.693s9.664 5.988 44.712 5.988h1.1z" fill="#2B5165"/><path d="M134.36 282.203h-8.77a1.109 1.109 0 01-1.109-1.108v-13.928c0-.613.497-1.11 1.108-1.11h8.77a1.11 1.11 0 011.109 1.11v13.928c0 .612-.496 1.108-1.109 1.108" fill="#C7C7C7"/><path d="M129.974 85.119h27.2s-.222 46.182 0 46.553c.223.37-8.519 5.93-27.2 5.93-18.68 0-27.423-5.56-27.2-5.93.222-.37 0-46.553 0-46.553h27.2z" fill="#F4D9CE"/><path d="M118.578 101.23c0 2.424-1.015 4.39-2.266 4.39-1.253 0-2.267-1.966-2.267-4.39 0-2.423 1.014-4.39 2.267-4.39 1.251 0 2.266 1.967 2.266 4.39m27.248 0c0 2.424-1.015 4.39-2.267 4.39-1.251 0-2.266-1.966-2.266-4.39 0-2.423 1.015-4.39 2.266-4.39 1.252 0 2.267 1.967 2.267 4.39" fill="#383838"/><path d="M121.015 126.312c0 2.248 17.942 2.248 17.942 0" fill="#E58585"/><path d="M121.015 126.312c0 2.248 17.942 2.248 17.942 0" stroke="#E58585" stroke-linecap="round" stroke-linejoin="round"/><path d="M129.408 111.298c.252-.771.881-.771 1.133 0l.906 2.78.91 2.779c.25.771-.064 1.734-.568 1.734h-3.63c-.502 0-.818-.963-.566-1.734l.908-2.779.907-2.78z" fill="#E58585"/><path d="M129.408 111.298c.252-.771.881-.771 1.133 0l.906 2.78.91 2.779c.25.771-.064 1.734-.568 1.734h-3.63c-.502 0-.818-.963-.566-1.734l.908-2.779.907-2.78z" stroke="#E58585" stroke-linecap="round" stroke-linejoin="round"/><g transform="translate(86.025 48)"><mask id="b" fill="#fff"><use xlink:href="#a"/></mask><path d="M1.462 16.198S-6.29 37.119 16.123 37.119H68.03v17.998h6.488V25.854c0-6.33-2.494-12.47-7.136-16.774C62.788 4.818 55.447.944 43.948.944c-22.356 0-29.477 10.84-30.908 13.55-.422.802-.95 1.552-1.637 2.144-1.692 1.46-4.988 2.972-9.941-.44" fill="#2B5165" mask="url(#b)"/></g><path fill="#2B5165" d="M98.192 103.118h6.635V75.595h-6.635z"/><path d="M104.149 103.7c0 3.786.074 9.545-2.895 9.545-2.968 0-7.856-5.759-7.856-9.546 0-3.787 2.405-6.858 5.375-6.858 2.969 0 5.376 3.071 5.376 6.858m50.445.001c0 3.786-.075 9.545 2.894 9.545 2.969 0 7.857-5.759 7.857-9.546 0-3.787-2.406-6.858-5.376-6.858-2.969 0-5.375 3.071-5.375 6.858m-14.837 47.398l-.108 1.095-.17 1.656a5.37 5.37 0 01-1.245 2.957c-.267.32-.57.613-.916.872l-7.328 5.449v2.492h-.213v-2.492l-7.319-5.45a5.463 5.463 0 01-.917-.871 5.39 5.39 0 01-1.254-2.957l-.018-.187-.152-1.477c2.35 1.086 5.377 2.163 9.873 2.163 4.514 0 7.71-1.639 9.767-3.25" fill="#F4D9CE"/><path d="M122.459 157.676l7.317 5.45v2.492c-.15 0-.302 0-.453-.008-2.813-.028-5.323-.25-7.576-.615-4.113-.667-7.345-1.808-9.882-3.142-6.179-3.251-8.234-7.604-8.725-8.868a4.204 4.204 0 01-.123-.365c.275-.09 5.279-1.968 9.027-2.564.943-.143 1.815-.214 2.51-.152.569.054 1.12.214 1.709.437.944.365 1.95.907 3.116 1.486.24.115.48.24.74.356l.15 1.478.017.187a5.392 5.392 0 001.256 2.957c.267.32.57.614.917.871m32.254-3.685s-.028.187-.108.516c-.365 1.29-1.727 4.746-6.64 7.461-2.377 1.318-5.591 2.457-9.919 3.099-2.225.329-4.743.534-7.602.55h-.454v-2.492l7.328-5.449c.347-.257.648-.552.915-.872a5.37 5.37 0 001.247-2.956l.17-1.655.106-1.096c.152-.116.285-.232.419-.338 1.683-1.415 2.466-2.715 2.466-2.715l.044.017.472.232 7.816 3.856 3.74 1.842z" fill="#92E0EA"/><path d="M150.973 152.148l-.275.89-2.734 8.93-4.914 16.07-5.004-12.972-.702-1.816-6.9 2.368h-.47l.016-2.492 7.328-5.45c.346-.258.649-.551.916-.872a5.362 5.362 0 001.246-2.955l.17-1.657.107-1.095.418-4.167 2.466 1.114.044.017.455.213 2.038.919 5.795 2.955z" fill="#69BAC9"/><path d="M137.344 163.25s11.771-16.32 2.83-16.32" stroke="#92E0EA"/><path d="M129.99 163.125l-.018 2.493-.65-.008-6.9-2.36-.675 1.745-5.03 13.044-4.853-16.186-3.026-10.096-.168-.562 3.373-1.14 2.546-.863 2.038-.917 2.751-1.246.214-.099.526 5.253.151 1.478.018.187a5.39 5.39 0 001.254 2.957c.268.32.57.613.917.871l7.532 5.45z" fill="#69BAC9"/><path d="M122.426 163.25s-11.77-16.32-2.831-16.32" stroke="#92E0EA"/><path d="M83.976 288.108c1.36 1.21 2.629 3.024 3.084 4.634.126.442-.059 2.335-1.019 1.908-1.046-.465-1.779-1.688-2.792-2.29-.845-.5-1.69-.99-2.57-1.437-.63-.32-1.283-.595-1.91-.913-2.18-1.109-8.255-4.257-4.934-7.015l10.141 5.113z" fill="#F4D9CE"/><path d="M74.653 279.841c-.574.518-1.407 2.11-.97 2.696 1.225 1.63 3.83 2.325 5.656 3.136 2.387 1.062 4.491 2.357 6.683 3.659.992.586 3.76 2.703 4.624 1.692 1.709-1.998-2.703-6.735-3.346-7.308l-12.647-3.875z" fill="#F4D9CE"/><path d="M77.806 284.906c-1.176-.478-2.898-1.092-3.787-1.977-.194.037-.184.066-.34.2 1.596 1.591 4.073 2.222 6.148 3.151.838.375 1.227.474 3.378 1.522.492.24.785.348.815.342-1.491-1.167-4.894-2.734-6.214-3.238" fill="#E2C3B5"/><path d="M74.376 274.301c-.37.404-.707 1.017-1.003 1.985-.324 1.063.064 2.43.937 3.402.782.872 3.182 1.033 4.402 1.302 2.881.637 5.927 1.583 8.438 2.825.628.31 3.193 2.357 4.41.389.971-1.567-2.869-5.032-4.447-5.71L74.376 274.3z" fill="#F4D9CE"/><path d="M86.217 283.354c-.95-.417-1.268-.557-2.275-.937-1.981-.727-3.44-1.41-5.528-1.837-1.117-.21-2.28-.197-3.363-.526a6.541 6.541 0 00-.477-.137c-.007.02.008-.048-.14.157.027.026.146.1.175.124.613.477 1.04.565 1.812.731 1.559.262 3.122.554 4.632.995 2.42.696 6.25 2.135 6.669 2.251l.041.006c-.516-.223-1.155-.602-1.546-.827" fill="#E2C3B5"/><path d="M83.128 269.318c0-.582.05-.933.022-.93-1.083.072-.818.096-1.894.205-1.976.203-4.801.176-6.667.809-1.243.42-2.175 2.277-1.746 3.419.41 1.09 2.615 2.067 3.746 2.353 3.684.931 7.56 2.316 11.154 3.513 1.28.428 4.234 1.409 4.63 1.12 3.574-2.617-9.31-6.389-9.31-7.803 0-.991.065-2.686.065-2.686" fill="#F4D9CE"/><path d="M75.938 274.604c-.398-.15-1.198-.149-1.57-.35-.096.17-.093.14-.19.29.527.29 1.095.538 1.606.742 3.52.963 9.424 2.938 11.364 3.205-.018-.22-6.775-2.675-11.21-3.887m7.417-2.164c-.164 0-1.117-.481-2.071-.796-1.384-.456-3.846-.986-4.683-.773l.385-.233c1.006-.26 2.71-.176 4.992.577.49.163.734.431.973.683l.274.418c-.012 0 .142.125.13.125" fill="#E2C3B5"/><path d="M172.42 287.062c-1.36 1.209-2.627 3.024-3.085 4.634-.125.442.061 2.335 1.02 1.908 1.047-.465 1.778-1.688 2.792-2.29a46.3 46.3 0 012.57-1.437c.63-.32 1.282-.595 1.909-.913 2.181-1.109 8.256-4.257 4.935-7.015l-10.141 5.113z" fill="#F4D9CE"/><path d="M181.744 278.795c.574.518 1.407 2.11.968 2.696-1.223 1.63-3.828 2.325-5.654 3.136-2.388 1.061-4.492 2.357-6.684 3.658-.992.587-3.759 2.704-4.623 1.693-1.71-1.998 2.703-6.735 3.346-7.308l12.647-3.875z" fill="#F4D9CE"/><path d="M178.59 283.86c1.176-.478 2.898-1.092 3.786-1.977.195.037.185.066.34.2-1.595 1.591-4.072 2.222-6.146 3.151-.837.375-1.228.474-3.38 1.522-.49.24-.784.348-.814.341 1.491-1.166 4.893-2.733 6.214-3.237" fill="#E2C3B5"/><path d="M182.02 273.255c.37.404.708 1.016 1.002 1.984.325 1.063-.063 2.43-.936 3.403-.782.872-3.183 1.033-4.402 1.301-2.882.638-5.926 1.584-8.438 2.826-.629.31-3.193 2.356-4.41.388-.972-1.567 2.87-5.031 4.446-5.71l12.738-4.192z" fill="#F4D9CE"/><path d="M170.179 282.308c.951-.417 1.268-.558 2.275-.938 1.981-.727 3.44-1.408 5.528-1.837 1.117-.209 2.28-.197 3.363-.526.247-.075.435-.13.477-.136.007.02-.008-.048.14.157-.027.026-.147.1-.175.124-.613.476-1.04.564-1.813.731-1.558.262-3.121.554-4.63.994-2.42.697-6.251 2.136-6.67 2.252l-.04.005c.515-.223 1.154-.601 1.545-.826" fill="#E2C3B5"/><path d="M173.416 268.267c0-.582-.095-.92-.067-.919 1.082.073.716.09 1.79.2 1.977.202 4.802.175 6.667.807 1.245.422 2.175 2.279 1.747 3.419-.412 1.09-2.616 2.067-3.746 2.353-3.684.931-7.56 2.317-11.152 3.515-1.282.426-4.236 1.408-4.63 1.12-3.575-2.617 8.999-6.389 9.325-7.766.242-1.02.066-2.73.066-2.73" fill="#F4D9CE"/><path d="M180.458 273.558c.397-.15 1.197-.15 1.57-.35.097.17.093.14.19.289-.527.29-1.095.538-1.606.742-3.521.964-9.424 2.939-11.364 3.206.018-.22 6.774-2.676 11.21-3.887m-7.417-2.163c.164 0 1.117-.482 2.071-.798 1.385-.456 3.847-.986 4.684-.772l-.385-.233c-1.007-.26-2.711-.176-4.993.577-.49.162-.733.431-.973.683l-.274.417c.012.002-.142.126-.13.126" fill="#E2C3B5"/><path fill="#D6948B" d="M119.379 136.949l-.044 3.916 20.84-1.05v-2.817z"/></g></svg>