<?xml version="1.0" encoding="UTF-8"?>
<!-- by Tanja Rohlfs (https://consento.org/team/tanja) - license: CC-BY-NC-SA (see: https://creativecommons.org/licenses/by-nc-sa/4.0/) -->
<svg width="700" height="500" xmlns="http://www.w3.org/2000/svg" xmlns:xlink="http://www.w3.org/1999/xlink"><defs><path id="a" d="M0 .234h87.439v100.29H0z"/><path id="c" d="M.373.372h54.49V36.8H.372z"/></defs><g fill="none" fill-rule="evenodd"><path fill="#FFF" d="M0 0h700v500H0z"/><path d="M240.996 226.399c57.81-42.03 132.615-52.563 198.053-27.9 14.771 5.567 19.748 23.966 9.849 36.744l-7.693 9.93c-6.42 8.284-17.307 11.522-26.957 8.104-22.119-7.831-46.057-10.266-70.223-6.88-24.256 3.399-46.98 12.413-66.704 26.19-8.584 5.994-19.875 5.87-27.957-.393l-9.674-7.495c-12.449-9.644-11.737-28.817 1.306-38.3" fill="#EEA8A8"/><path d="M435.11 340.485c-59.505 39.594-134.684 47.01-199.04 19.65-14.527-6.175-18.737-24.765-8.315-37.12l8.099-9.604c6.758-8.011 17.772-10.793 27.27-6.978 21.776 8.744 45.593 12.17 69.876 9.793 24.377-2.388 47.456-10.452 67.735-23.398 8.825-5.632 20.101-5.039 27.917 1.554l9.354 7.89c12.037 10.153 10.53 29.278-2.896 38.213" fill="#9ADAE6"/><path d="M185.792 276.602s.603 2.146.19 2.602c-.415.46-.84-.04-.928-.04-.087 0-1.96-1.417-1.96-1.417l2.698-1.145zm-13.436 28.257s1.77.557 2.706-.395c.937-.955 1.206-.864.937-.955-.27-.09-2.43-1.35-2.43-1.35s-1.076-.944-1.094-.817c-.018.126-.545 1.952-.473 2.06.073.107.354 1.457.354 1.457" fill="#2B5165"/><path d="M246.304 244.391c.838 2.622 1.946 5.204 2.224 7.92.322 3.126-.42 4.452-2.289 9.61 2.252 1.299 4.615.275 7.272.554 2.878.302 6.33 2.13 9.206 2.443.398.043 7.187-7.142 9.32-11.629 1.04-2.184 5.131-9.588 1.522-9.283-4.056.343-7.629-3.457-11.866-3.583l-5.1-.15c-.688-.02-1.392-.044-2.033-.271-.598-.213-1.104-.59-1.631-.923-1.57-.987-7.303-4.492-7.322-2.43-.024 2.61.16 6.065.697 7.742" fill="#F1D5C3"/><path fill="#FFF" d="M259.825 256.827l-12.202-9.403 15.389-33.923 16.09 2.332z"/><path stroke="#919191" stroke-width="1.322" stroke-linecap="round" stroke-linejoin="round" d="M259.825 256.827l-12.202-9.403 15.389-33.923 16.09 2.332z"/><path fill="#FFF" d="M259.09 256.504l-12.9-8.408 16.013-35.18 16.077 2.605z"/><path stroke="#B5B5B5" stroke-width="1.028" stroke-linecap="round" stroke-linejoin="round" d="M259.09 256.504l-12.9-8.408 16.013-35.18 16.077 2.605z"/><path d="M273.65 242.645c.107-.096.225-.183.322-.291.922-1.012 1.617-2.264 1.5-3.62-.065-.775-.308-1.476-.926-2.039-.091-.084-.203-.155-.313-.23.278-.362.518-.736.622-1.2.14-.635.136-.801.053-1.361-.077-.53-.147-.731-.453-1.272a2.258 2.258 0 00-.815-.809c-.305-.255-.395-.571-.807-.66-.42-.12-.917 1.464-2.664 1.637-1.293.13-7.773.418-8.492.801a2.33 2.33 0 00-.888.742 2.1 2.1 0 00-.565.98c-.185.738-.146 1.565.317 2.22.444.626 1.083 1.133 1.892 1.325.383.09.66.035 1.053.083.393.049 5.227-.45 5.625-.451.017 0 .033-.003.05-.004l-.003.036a3.07 3.07 0 01-.198.102c-.629.196-3.115 1.144-3.773 1.242-.588.06-1.794.168-2.387.172-.815.004-1.175.077-1.752.604-.55.5-.963 1.32-.928 2.038.038.745.307 1.518.928 2.037.616.515 3.352.223 4.206.217a20.379 20.379 0 001.604-.083c-1.83.62-1.26.327-3.19.572-.727.092-1.54.778-1.892 1.324-.397.617-.565 1.527-.319 2.219.248.699.722 1.372 1.455 1.723l.756.292a3.486 3.486 0 001.681 0c1.99-.252 1.5.056 3.381-.62 2.029-.729 4.007-1.732 5.372-3.324.539-.63.927-1.204.927-2.039 0-.705-.345-1.55-.927-2.038a3.946 3.946 0 00-.452-.325m-18.796-8.045c.529 1.54 3.179 2.819 3.437 3.305.256.487-1.486 1.65-2.536 1.808-.759.114-1.516-.156-2.236-.421-2.606-.965-5.212-1.926-7.819-2.89-.3-2.33 2.662-6.178 4.777-6.99 2.944-1.131 3.607 2.949 4.377 5.187m-97.806 9.689c-1.886 29.643 6.968 47.28 6.968 47.28.063-.892 14.84 26.356 47.427 22.099 32.89-4.297 46.893-39.911 51.274-48.454 2.8-5.46-14.3-9.08-16.36-3.796-1.753 4.5-2.456 5.872-3.468 7.33-4.83 6.957-16.92 26.748-34.519 23.405-24.343-4.623-40.152-35.392-44.647-41.116" fill="#F1D5C3"/><path d="M164.347 165.51s6.716 79.167-2.044 79.167c-1.634 0-26.137-8.168-26.137-8.168l.467-64.874 27.714-6.125z" fill="#FF3434"/><path d="M139.367 229.263c-1.24-.162-21.875-3.26-25.245-3.26-3.369 0 .613 3.472 1.124 3.575.51.102 24.009 7.573 28.399 7.368 4.39-.203 6.698-1.762 7.21-2.72.363-.679-3.23-1.02-7.41-2.483-3.222-1.126-5.028-1.701-4.078-2.48" fill="#2B5165"/><path d="M117.02 210.256s9.31 6.28 15.95 8.196c4.062 1.169 6.354 1.708 19.115 1.708 12.575 0 20.02-19.386 20.02-19.386l1.504-37.845-.37-10.66-60.148 1.112 3.93 56.875z" fill="#F1D5C3"/><path d="M159.89 180.367c0 2.332.882 4.222 1.97 4.222 1.09 0 1.97-1.89 1.97-4.222 0-2.331-.88-4.222-1.97-4.222-1.088 0-1.97 1.891-1.97 4.222m-22.742 0c0 2.332.882 4.222 1.97 4.222 1.089 0 1.97-1.89 1.97-4.222 0-2.331-.881-4.222-1.97-4.222-1.088 0-1.97 1.891-1.97 4.222" fill="#000"/><path d="M151.016 184.563s3.418 11.8 1.864 12.653c-1.554.856-3.185-.533-3.185-.533l1.32-12.12z" fill="#FF3434"/><path fill="#F1D5C3" d="M143.29 220.177l.436 24.028-4.523 1.46-17.728-2.553-3.885-1.692v-31.642l25.551 7.427z"/><path d="M166.567 151.854l-2.396 13.84-23.397 1.678-3.166-14.88-2.426 14.67-16.605 1.336s6.457 69.475-2.08 69.826c-8.534.351-27.883-1.44-31.515-.736-3.633.704-19.68 20.818-19.68 20.818s-2.469-12.74 1.89-24.401c2.474-6.616 16.623-17.403 15.185-74.932-.38-15.27 21.972-43.37 46.305-42.843 24.333.528 48.912 10.074 50.91 28.007 1.996 17.931-2.725 19.69-2.725 19.69l-7.56 1.601-2.74-13.674z" fill="#FF3434"/><path d="M141.486 201.172c1.1.554 3.797 5.528 12.994 5.657" stroke="#DF715C" stroke-width=".7" stroke-linecap="round" stroke-linejoin="round"/><path d="M110.093 177.634c-.178-.221-9.234-3.305-9.138 6.346.097 9.652 6.386 8.367 9.28 8.62 2.893.253.036-14.748-.142-14.966" fill="#F1D5C3"/><path d="M150.925 234.155c13.322 12.927 22.97 27.513 34.87 42.444-11.404 5.231-12.73 17.32-13.316 28.15-.087 1.588-15.264-13.529-14.612-15.058-6.905 17.27 19.652 58.25 7.378 69.985-12.274 11.736-56.526-6.838-75.089-1-3.126-17.677-9.021-49.917-8.57-63.092.449-13.175 3.75-8.07 4.76-17.436.002-14.693.167-28.788.257-43.955 6.066-5.669 25.213-7.853 29.83-4.933 10.35 6.548 21.318 11.762 34.492 4.895" fill="#69BAC9"/><g transform="translate(46 262.628)"><mask id="b" fill="#fff"><use xlink:href="#a"/></mask><path d="M20.554.234s-42.6 66.64-5.142 89.187c29.03 17.476 65.926 9.711 66.85 7.247.923-2.464 6.2-11.845 5-11.56-1.307.309-52.207 2.7-61.05-16.468C17.046 48.784 41.29 17.514 41.29 17.514L20.554.234z" fill="#F1D5C3" mask="url(#b)"/></g><path d="M86.851 234.005c-10.54 8.103-27.225 30.662-36.108 47.122-.654 2.347 25.747 6.741 30.711 11.452 5.854 5.557 25.612-19.514 25.612-19.514l-20.215-39.06z" fill="#69BAC9"/><path d="M160.952 294.139c-.884-.896-2.213-2.277-3.151-4.259-.087-.18-1.383-18.508-1.383-18.508l3.4 12.207 1.134 10.56zm-40.598-66.126c-.267 0-6.98.265-6.98.265 4.495 1.385 5.184 2.624 6.552 3.11l.428-3.375zM84.401 285.09c-.152.366-2.493 18.625-2.493 18.625l-.386-5.975c-.01-2.978.179-5.76.684-8.234l2.195-4.415z" fill="#2B5165"/><path d="M104.559 265.364l-1.433.743C90.594 279.795 84.32 284.7 84.4 285.15l-.497 2.33c1.642-.793 10.565-5.79 20.657-22.116" fill="#2B5165"/><path d="M143.275 220.032c-4.842-.47-22.351-5.113-22.351-5.113l-.105 3.534 22.58 5.397-.124-3.818z" fill="#DF715C"/><path fill="#919191" d="M173.383 403.365l97.052-38.42-37.666-29.24L118.825 369z"/><g transform="translate(118.4 368.628)"><mask id="d" fill="#fff"><use xlink:href="#c"/></mask><path d="M.424.372s-.114 1.13 0 1.615C.578 2.629 54.863 36.8 54.863 36.8v-2.14L.424.372z" fill="#666" mask="url(#d)"/></g><path fill="#666" d="M173.262 403.288l100.658-37.472-.067 2.437-100.591 37.175z"/><path fill="#D3D3D3" d="M178.729 393.345l52.262-20.688-20.284-15.746-61.357 17.928z"/><path fill="#666" d="M153.81 370.474l29.794-9.013-9.953-5.229-28.805 8.067z"/><path fill="#B5B5B5" d="M173.703 402.79l99.789-37.274.183-74.17-100.543 26.969z"/><path stroke="#B5B5B5" stroke-width=".816" d="M173.703 402.79l99.789-37.274.183-74.17-100.543 26.969z"/><path d="M140.643 365.08c1.368.308 9.238 5.037 21.752 5.278 5.895.114 3.224-3.734 2.923-4-.303-.264-11.46-4.48-20.675-10.009l-4 8.73z" fill="#F1D5C3"/><path d="M145.265 348.387s12.725 9.658 19.326 10.642c2.964.44 6.096 1.5 6.54 3.874.692 3.715-12.955.939-12.955.939l-8.688-3.29-4.223-12.165z" fill="#F1D5C3"/><path d="M159.592 356.243s8.62-.238 9.607-.485c.988-.247 3.462-4.335-1.253-3.934-2.698.228-12.673-1.157-13.06-1.351 0 0-5.573-.055-9.312-1.967-4.906-2.51-12.77-.71-12.77-.71l-8.576 11.959c.987 0 8.03 2.938 12.177 5.111 4.146 2.173 9.387 6.93 15.808 8.907 4.774 1.468 7.698.864 7.739-.343.116-3.397-4.533-3.618-7.002-5.078-2.588-1.53-8.008-3.655-10.005-5.77" fill="#F1D5C3"/><path d="M158.354 356.738c-.486-.057-1.383-.483-3.4-1.228-3.56-1.313-8.919-3.292-11.731-3.292-.037 0 1.573-.35 1.538-.349l1.512-.263c3.563 1.147 4.037 1.198 7.69 2.546 1.392.516 5.316 2.068 5.657 2.108l-1.266.478zm2.208 7.533c-.543-.064-1.778-.422-3.903-1.496-3.4-1.72-8.603-3.628-11.304-3.628l-.077.002 2.054-.419c3.017-.066 6.11 1.572 9.878 3.478 1.36.689 4.023 2.135 4.371 2.187l-1.019-.124zm-3.597 5.703c-.644-.076-1.67-.515-3.945-1.467-2.57-1.074-6.475-3.453-8.843-4.03l1.04-.317c2.474.6 4.993 2.173 7.607 3.267 1.662.695 5.145 2.65 5.624 2.704l-1.483-.157z" fill="#E5B79E"/><path d="M268.024 222.687c-.138-.528-.408-.96-.786-1.263-.163-.13-.185-.39-.054-.644l.159-.305c.205-.396.676-.605.942-.413 1.215.88 1.669 2.565 1.166 4.389-.112.403-.573.69-.917.575l-.265-.09c-.218-.07-.322-.295-.259-.548.145-.59.153-1.172.014-1.701m-4.146-1.207a4.8 4.8 0 00-1.281 1.146c-.153.196-.371.29-.542.233l-.2-.068c-.258-.085-.29-.47-.068-.772 1.015-1.385 2.527-2.362 4.034-2.539.354-.04.52.311.325.7l-.15.299c-.125.249-.363.43-.588.455-.508.054-1.03.24-1.53.546" fill="#EE3434"/><path d="M261.282 224.03l.195.074c.165.06.245.253.2.477a3.435 3.435 0 00-.006 1.409c.055.254.142.494.26.71a1.925 1.925 0 00.183.282c.193.219.58.107.747-.232l.137-.272c.091-.18.094-.382.005-.518-.241-.364-.324-.857-.223-1.377.046-.236.129-.478.252-.719.524-1.027 1.635-1.69 2.554-1.48.008 0 .014.002.02.003a.117.117 0 00.022.006l.02.006.02.006.021.006.021.007.02.006.02.005.02.009.007.002c.9.34 1.18 1.497.62 2.599a3.039 3.039 0 01-.485.693c-.412.442-.93.73-1.434.812a.657.657 0 00-.455.353l-.143.276c-.177.343-.01.7.318.7.014 0 .028 0 .042-.002.114-.007.231-.025.349-.049.285-.057.575-.154.86-.288a4.56 4.56 0 001.38-1.015c.187-.198.456-.283.668-.205l.256.094c.332.122.37.563.077.872a6.711 6.711 0 01-1.365 1.109 5.873 5.873 0 01-.97.475 5.043 5.043 0 01-.97.26 3.896 3.896 0 01-1.38-.02 3.322 3.322 0 01-.906-.323 2.842 2.842 0 01-.358-.225 3.05 3.05 0 01-.818-.892 3.516 3.516 0 01-.446-1.152 4.605 4.605 0 01-.071-1.332c.012-.156.035-.313.063-.473a4.05 4.05 0 01.035-.186c.071-.335.389-.58.638-.49" fill="#37AFCA"/><path d="M443.26 231.63c-.768 2.405-1.783 4.772-2.04 7.263-.294 2.866.507 5.888 2.582 8.08-2.065 1.193-4.714.985-7.151 1.241-2.638.276-5.29 3.237-7.927 3.525-.365.04-6.752-12.601-7.426-13.506-1.323-1.782-2.928-6.528.38-6.248 3.721.315 3.585-3.88 7.47-3.994 1.558-.046 3.117-.09 4.676-.137.632-.02 1.277-.04 1.865-.25.549-.194 1.012-.54 1.497-.845 1.439-.904 6.696-4.12 6.714-2.229.021 2.393-.147 5.561-.64 7.1" fill="#E8C5A6"/><path fill="#FFF" d="M430.86 243.035l11.19-8.623-14.111-31.11-14.755 2.139z"/><path stroke="#919191" stroke-width="1.322" stroke-linecap="round" stroke-linejoin="round" d="M430.86 243.035l11.19-8.623-14.111-31.11-14.755 2.139z"/><path fill="#FFF" d="M431.536 242.738l11.83-7.71-14.685-32.261-14.744 2.387z"/><path stroke="#B5B5B5" stroke-width="1.028" stroke-linecap="round" stroke-linejoin="round" d="M431.536 242.738l11.83-7.71-14.685-32.261-14.744 2.387z"/><path d="M418.183 230.029c-.098-.089-.206-.168-.295-.266-.846-.93-1.483-2.077-1.376-3.323.06-.708.282-1.35.85-1.867.083-.076.187-.143.286-.213-.254-.33-.476-.673-.57-1.099-.128-.581-.125-.734-.05-1.25.073-.483.135-.668.417-1.165a2.1 2.1 0 01.747-.742c.281-.232.362-.522.739-.603.386-.111.841 1.34 2.444 1.499 1.186.119 7.128.384 7.787.735.339.165.61.392.815.682.256.253.43.553.52.897.169.678.132 1.437-.293 2.036-.406.574-.992 1.039-1.735 1.215-.351.083-.603.032-.965.076-.36.044-4.795-.412-5.157-.413-.017 0-.032-.003-.048-.005l.002.035c.061.031.121.065.183.093.577.18 3.559.883 4.16.973.541.054.946.319 1.49.323.747.006 1.076.072 1.606.553.503.46.882 1.213.85 1.87-.034.684-.28 1.39-.85 1.868-.565.473-3.073.205-3.857.199a18.39 18.39 0 01-1.473-.077c1.68.57 1.157.301 2.928.525.666.084 1.412.714 1.733 1.214.365.567.52 1.401.293 2.035-.227.64-.663 1.258-1.333 1.581-.231.09-.462.178-.693.266a3.162 3.162 0 01-1.543 0c-1.826-.23-1.375.053-3.1-.567-1.86-.67-3.673-1.588-4.926-3.05-.494-.576-.85-1.102-.85-1.868 0-.648.316-1.423.85-1.868a3.72 3.72 0 01.414-.3m17.237-7.378c-.486 1.413-2.916 2.586-3.151 3.032-.236.447 1.362 1.514 2.324 1.66.695.103 1.391-.145 2.052-.388l7.17-2.65c.274-2.137-2.442-5.665-4.381-6.41-2.7-1.039-3.307 2.704-4.014 4.756" fill="#E8C5A6"/><path d="M442.26 243.772s2.071 4.648 3.68 10.612c-2.894-.606-5.229-.207-7.802 1.053-3.57 1.75-5.964 5.234-7.006 9.433a213.91 213.91 0 01-4.597-12.23c-2.184-6.375 11.335-11.517 15.724-8.868" fill="#FFF"/><path d="M442.26 243.772s2.071 4.648 3.68 10.612c-2.894-.606-5.229-.207-7.802 1.053-3.57 1.75-5.964 5.234-7.006 9.433a213.91 213.91 0 01-4.597-12.23c-2.184-6.375 11.335-11.517 15.724-8.868z" stroke="#919191" stroke-width="1.211"/><path d="M523.286 218.985c1.73 27.18-4.883 59.017-4.883 59.017s-13.39 31.479-43.365 26.315c-29.975-5.161-45.774-39.235-47.169-46.461-1.066-5.528 9.666-8.224 14.777-9.189 1.462-.275 2.492.83 3.42 2.166 4.429 6.383 11.18 29.483 27.548 28.101 24.589-2.072 36.697-55.226 41.572-56.906" fill="#2B5165"/><path d="M591.264 219.242c3.398 1.652 25.221 9.205 24.381 14.52-.84 5.318-7.443 52.656-7.722 54.675-2.764 20.063-14.94 78.682-16.785 75.955-1.097-1.622-80.972-18.155-80.972-18.155s9.792-87.013 9.514-88.133c-.28-1.118-8.024-33.97-4.478-36.092 3.548-2.122 19.586-6.714 19.586-6.714l8.022-4.017 48.454 7.96z" fill="#2B5165"/><path d="M544.743 211.959s-6.731 49.925 1.595 92.49c-.095.113-2.237-1.226-2.237-1.226s-19.577-76.871-18.847-77.409c.703-.518 10.764-6.106 10.764-6.106s-9.072-2.13-8.575-2.257c.51-.13 18.994-8.215 18.994-8.215l-1.694 2.723z" fill="#A8A8A8"/><path d="M576.363 215.725l-19.546 69.313-12.465 17.314s-3.2-48.051-2.253-66.607c.062-1.214.997-15.249.997-15.249l33.267-4.77z" fill="#C1B9B2"/><path d="M506.434 159.897s-7.338 24.457 2.084 32.084c.096.076.19.151.283.227 12.424 9.918 28.807 13.601 44.286 9.988 8.638-2.016 17.23-6.28 21.086-15.001 9.122-20.638-4.337-19.742-4.337-19.742s1.345-10.619.448-12.262c-.898-1.645-4.038-6.88-4.038-6.88s2.542-20.787-11.515-21.834c-14.059-1.048-40.828-5.385-42.174 1.345-1.346 6.73-6.123 32.075-6.123 32.075" fill="#E8C5A6"/><path d="M541.149 163.737c0 2.373.9 4.296 2.012 4.296 1.11 0 2.011-1.923 2.011-4.296s-.901-4.297-2.011-4.297c-1.112 0-2.012 1.924-2.012 4.297m-29.013-2.712c0 2.373.902 4.297 2.012 4.297 1.11 0 2.012-1.924 2.012-4.297 0-2.371-.902-4.295-2.012-4.295-1.11 0-2.012 1.924-2.012 4.295m24.061 23.884c-.354.236.235 3.899-12.642 2.717" fill="#000"/><path d="M529.07 165.004c-.382 0-3.433 10.1-4.606 10.279-1.172.18 2.435 3.427 2.435 3.427l2.075-.09" fill="#C16363"/><path d="M537.936 175.37l13.69 1.469c.811.085 1.48-.462 1.482-1.223l.045-21.543c.002-.829-.698-1.503-1.549-1.496l-14.304.103c-.735.006-1.311.636-1.288 1.397l.608 19.878c.02.704.612 1.34 1.316 1.415zm-28.773-4.478l10.506 1.361c.62.08 1.131-.425 1.133-1.124l.033-19.33c.002-.724-.518-1.321-1.15-1.324l-10.71-.056c-.554-.003-.997.546-.99 1.22l.182 17.944c.005.65.453 1.24.996 1.31z" stroke="#000" stroke-width="1.4"/><path d="M536.132 166.642c-1.768-.54-7.562-5.756-15.32-1.259" stroke="#000" stroke-width="1.463"/><path d="M553.32 157.934c1.156 0 25.547-.483 25.547-.483" stroke="#000" stroke-width="1.4"/><path d="M567.158 169.618c0 7.254.52 13.597 6.135 13.597 5.614 0 15.694-6.084 15.694-13.336 0-7.254-5.096-12.934-10.71-12.934-5.613 0-11.119 5.42-11.119 12.673" fill="#E8C5A6"/><path d="M586.353 161.604s8.43-41.02 4.865-43.614l-3.568-2.595 4.864-3.89s-8.593 2.108-8.918.971c-.323-1.134-5.512-11.025-5.512-11.025l-1.46 5.351s-19.13-14.43-38.75-13.78c-19.617.648-31.615 13.78-31.615 13.78s-.69 48.919.464 50.483c1.157 1.562 4.088-30.446 7.966-31.513 5.16-1.418 41.28-.52 46.583 4.455 5.78 5.42 4.648 17.114 4.974 18.084.326.97-1.295 16.86-1.295 16.86l4.884 2.283.878-6.889s8.505-8.688 15.64 1.039" fill="#000"/><path d="M564.755 197.63l5.614 12.51s-11.812 12.507-12.423 12.507c-.611 0-8.554-1.018-8.554-1.018s-1.94-18.075-4.383-19.104c-1.127-.475 19.746-4.896 19.746-4.896" fill="#E8C5A6"/><path d="M557.946 222.647l-.153-.038c-.835-.204-4.96-1.159-8.4-.98-3.848.2-3.273 8.84-3.273 8.84s.289 1.44 3.552 2.113c3.265.67 10.944 0 10.944 0s-.192-6.625-.287-6.914c-.097-.288-2.383-3.02-2.383-3.02" fill="#69BAC9"/><path d="M547.226 208.277c1.22 4.516 1.42 8.004 2.227 13.325l-6.56 14.143s-.083-23.42-.083-24.464c0-1.041 4.416-3.004 4.416-3.004" fill="#C1B9B2"/><path d="M549.673 232.581c-1.31.3-7.184 19.445-7.41 21.396-.902 7.787 2.218 46.735 2.218 46.735.496 2.305 9.176-15.334 8.685-15.988-.048-.063 4.214-49.621 3.561-51.843-.654-2.222-7.054-.3-7.054-.3" fill="#69BAC9"/><path d="M574.762 214.961s-9.181 49.533-30.369 87.377c.055.137.577.34.577.34s49.696-65.778 48.886-66.102c-.809-.324-13.77-12.476-13.77-12.476s11.493-5.06 11.007-5.222c-.486-.162-17.89-6.762-17.89-6.762l1.559 2.845z" fill="#A8A8A8"/><path d="M574.762 214.961c.259 1.495-12.669 22.628-14.788 23.178-.062.014-.342.252-.342.252s6.938-10.024 8.646-12.604c1.043-1.575 6.484-10.826 6.484-10.826M558.75 232.71l.803 5.661-1.87-5.629zm-15.857 3.035l3.18-6.859.058 1.112" fill="#A8A8A8"/><path d="M549.09 233.314c.423.106 7.703.602 7.703.602s-.008-.986-.086-1.096c-.079-.11-6.809-.293-7.034-.238-.227.053-.584.732-.584.732" fill="#448A93"/><path d="M544.392 302.338c-.52.795-7.792 49.88-7.792 49.88" stroke="#1F3C49" stroke-width="1.4"/><path d="M541.7 302.338c0 1.41 1.384 2.552 3.092 2.552 1.71 0 3.094-1.142 3.094-2.552 0-1.41-1.384-2.552-3.094-2.552-1.708 0-3.092 1.142-3.092 2.552m-5.271 31.44c-.233 1.39.947 2.745 2.632 3.025 1.685.28 3.24-.62 3.47-2.01.233-1.392-.946-2.744-2.632-3.026-1.685-.281-3.24.62-3.47 2.01" fill="#353535"/><path d="M573.046 339.225c17.398 1.937 18.37-.633 25.162-.531" stroke="#1F3C49" stroke-width="1.4"/><path fill="#919191" d="M508.29 389.106l-89.001-35.233 34.542-26.813 104.49 30.532z"/><path d="M558.322 357.593s.106 1.036 0 1.48c-.14.59-49.921 31.925-49.921 31.925v-1.961l49.921-31.444zm-49.921 31.444l-92.309-34.363.063 2.233 92.246 34.091z" fill="#666"/><path fill="#D3D3D3" d="M503.388 379.918l-47.925-18.972 18.599-14.44 56.267 16.444z"/><path fill="#666" d="M526.239 358.945l-27.322-8.266 9.126-4.795 26.417 7.398z"/><path fill="#B5B5B5" d="M507.997 388.58l-91.51-34.182-.169-68.015 92.203 24.73z"/><path stroke="#B5B5B5" stroke-width=".816" d="M507.997 388.58l-91.51-34.182-.169-68.015 92.203 24.73z"/><path d="M543.74 356.45c-1.095.246-7.391 4.029-17.401 4.222-4.715.09-2.338-3.2-2.338-3.2s9.167-3.584 16.538-8.007l3.2 6.985z" fill="#E8C5A6"/><path d="M540.042 343.096s-10.18 7.726-15.459 8.512c-2.371.353-4.877 1.2-5.232 3.1-.554 2.972 10.363.75 10.363.75l6.95-2.63 3.378-9.732z" fill="#E8C5A6"/><path d="M529.686 349.715s-8-.525-8.79-.724c-.79-.196-2.77-3.466 1.003-3.147 2.158.183 10.138-.925 10.447-1.08 0 0 6.402-1.677 9.393-3.207 3.924-2.007 17.89.296 17.89.296l-.504 15.002c-.79 0-8.677-2.314-11.995-.577-3.318 1.74-7.51 5.544-12.646 7.125-3.82 1.174-6.159.691-6.19-.275-.095-2.717 3.625-2.892 5.6-4.06 2.071-1.225 6.407-2.924 8.004-4.615" fill="#E8C5A6"/><path d="M529.432 349.167c1.08-.126 8.947-3.629 12.34-3.565" stroke="#C49E82" stroke-width="1.05"/><path d="M527.543 356.026l.352-.624c.275-.04 1.514-.665 2.606-1.218 2.98-1.508 7.048-3.563 9.471-3.563h.08l-.02 1.05c-2.108-.04-6.306 2.059-9.056 3.45-1.697.859-3.004.856-3.433.905" fill="#C49E82"/><path d="M530.384 359.89c1.082-.126 6.451-2.811 9.828-3.633" stroke="#C49E82" stroke-width="1.05"/><path d="M561.76 339.002s5.085.22 11.149 1.62c-1.819 2.766-2.49 5.458-2.49 8.853 0 4.714 2.073 9.08 5.384 12.379a180.6 180.6 0 01-13.006-1.491c-6.684-1.002-5.348-18.073-1.038-21.361" fill="#FFF"/><path d="M561.76 339.002s5.085.22 11.149 1.62c-1.819 2.766-2.49 5.458-2.49 8.853 0 4.714 2.073 9.08 5.384 12.379a180.6 180.6 0 01-13.006-1.491c-6.684-1.002-5.348-18.073-1.038-21.361z" stroke="#919191" stroke-width="1.319"/><path d="M557.776 222.036s1.332 16.645 1.855 16.356c5.064-2.79 16.635-24.857 16.21-25.232-.415-.364-6.971-8.375-6.971-8.375l-11.094 17.251z" fill="#C1B9B2"/><path d="M545.753 203.362c1.78-.055 17.948-5.096 19.001-5.733.132-.079.777 1.6.777 1.6l-18.018 10.006-1.76-5.873z" fill="#A87F60"/><path fill="#1F3C49" d="M512.877 287.453l5.605-25.152-.919 17.748z"/><path d="M583.533 165.637c-.262-.262-8.222-5.655-9.635 3.298" fill="#A87F60"/><path d="M574.522 217.087l-14.89 21.305 6.547-7.897c3.174-4.428 5.01-6.005 6.255-9.256l2.088-4.152z" fill="#A8A8A8"/><path d="M614.507 231.109s45.532 63.763 39.525 93.356c-6.773 33.369-33.38 45.895-79.87 38.346-6.822-1.107-5.603-19.425-1.203-23.057 0 0 51.446 7.019 47.656-23.595-3.79-30.615-19.535-36.738-19.535-36.738l13.427-48.312z" fill="#2B5165"/><path d="M614.507 231.109s-15.768 10.007-6.12 54" stroke="#1F3C49" stroke-width="1.4"/><path fill="#1F3C49" d="M518.228 280.106l-1.393-.143 6.256-61.031 1.484-.504z"/><path d="M423.485 211.96c.127-.484.376-.878.722-1.158.148-.12.168-.357.048-.59l-.145-.28c-.189-.365-.621-.555-.863-.379-1.115.805-1.53 2.352-1.07 4.024.102.371.525.633.841.528l.243-.08c.2-.067.295-.272.238-.505a3.183 3.183 0 01-.014-1.56m3.803-1.107c.45.274.848.635 1.175 1.052.14.18.34.265.495.213l.185-.061c.235-.079.266-.432.062-.709-.931-1.27-2.319-2.166-3.7-2.328-.324-.038-.477.286-.297.64l.137.276c.113.228.333.394.539.417.466.05.945.221 1.404.5" fill="#EE3434"/><path d="M429.668 213.193l-.179.066c-.151.056-.225.234-.183.437.09.446.094.886.005 1.293a2.48 2.48 0 01-.238.65 1.756 1.756 0 01-.168.26c-.176.2-.532.097-.686-.214l-.126-.246c-.082-.168-.086-.352-.002-.478.22-.333.295-.785.204-1.264a2.484 2.484 0 00-.231-.658c-.482-.94-1.5-1.55-2.344-1.356l-.018.004-.02.004a.13.13 0 01-.018.006l-.02.005a.053.053 0 01-.017.004l-.019.006-.02.007-.017.006-.019.007-.007.002c-.826.311-1.08 1.372-.567 2.383.12.238.272.451.444.636.378.404.853.669 1.315.745.17.026.329.154.417.323l.13.253c.164.314.01.642-.291.642h-.036a3.388 3.388 0 01-1.11-.31 4.2 4.2 0 01-1.266-.93c-.171-.183-.419-.261-.613-.19l-.234.087c-.305.112-.34.515-.07.8a6.054 6.054 0 001.694 1.258c.148.073.297.137.448.195.148.054.297.103.446.144.149.038.296.068.441.092a3.537 3.537 0 001.267-.017 2.921 2.921 0 001.158-.503 2.719 2.719 0 00.75-.819 3.188 3.188 0 00.31-.681 3.57 3.57 0 00.16-.766 4.275 4.275 0 00.006-.829 5.193 5.193 0 00-.092-.606c-.064-.305-.355-.532-.584-.448" fill="#37AFCA"/><path d="M417.665 224.347c.067.094 4.644 1.863 4.644 1.863s-.102.263-.252.233c-.15-.03-4.847-1.725-4.847-1.725l.455-.371zm.518 5.682s6.514 2.017 6.813 2.072l.088.179.176.052c-.37.072-7.837-1.633-7.837-1.633a2.66 2.66 0 01.76-.67m1.99 5.931c.392.049 6.217 2.018 7.376 1.633.067-.023.34.577.412.784.033.096-7.143-.869-7.143-.869l-.645-1.548z" fill="#C49E82"/><path d="M269.11 238.5l5.123-2.036c.199.118.406.307.605.556l-6.024 1.85.297-.37zm4.54 4.145l-7.499 2.277-.236.375 8.43-2.09s-.427-.437-.695-.562m.29 4.381c.033.224-6.44 3.238-10.617 3.925-.02.003-.297.557-.297.557s6.865-.068 8.431-1.507c.947-.87 2.482-2.975 2.482-2.975" fill="#E5B79E"/><path d="M302.255 142.615a51.28 51.28 0 012.277-3.677c20.964-30.921 66.985-30.921 87.947 0a51.28 51.28 0 012.278 3.677 51.592 51.592 0 01-2.278 3.676c-20.962 30.92-66.983 30.92-87.947 0a51.592 51.592 0 01-2.277-3.676" fill="#FFF"/><path d="M302.255 142.615a51.28 51.28 0 012.277-3.677c20.964-30.921 66.985-30.921 87.947 0a51.28 51.28 0 012.278 3.677 51.592 51.592 0 01-2.278 3.676c-20.962 30.92-66.983 30.92-87.947 0a51.592 51.592 0 01-2.277-3.676z" stroke="#CBCBCB" stroke-width="2.8"/><path d="M361.555 142.45c0-7.299-5.916-13.215-13.215-13.215-7.298 0-13.214 5.916-13.214 13.214 0 7.299 5.916 13.214 13.214 13.214 7.299 0 13.215-5.915 13.215-13.214z" stroke="#CBCBCB" stroke-width="2.8"/><path d="M319.597 171.014a.58.58 0 01-.41-.987l57.646-57.939a.58.58 0 01.822.818l-57.648 57.939a.575.575 0 01-.41.169" fill="#F03434"/><path d="M377.244 111.219a1.27 1.27 0 00-.907.376l-57.646 57.938a1.28 1.28 0 001.813 1.805L378.15 113.4a1.281 1.281 0 00-.906-2.181m0 .7a.58.58 0 01.41.987l-57.646 57.939a.578.578 0 01-.819.001.58.58 0 01-.003-.819l57.647-57.939a.58.58 0 01.411-.17" fill="#F03434"/></g></svg>