<?xml version="1.0" encoding="UTF-8"?>
<!-- by Tanja Rohlfs (https://consento.org/team/tanja) - license: CC-BY-NC-SA (see: https://creativecommons.org/licenses/by-nc-sa/4.0/) -->
<svg width="500" height="500" xmlns="http://www.w3.org/2000/svg" xmlns:xlink="http://www.w3.org/1999/xlink"><defs><path id="a" d="M.6.668h192.342V122.59H.599z"/><path id="c" d="M.804.593h17.835V16H.804z"/><path d="M.568 32.258c0 17.642 14.301 31.945 31.945 31.945 17.642 0 31.945-14.303 31.945-31.945C64.458 14.614 50.155.312 32.513.312 14.869.312.568 14.614.568 32.258" id="e"/><path d="M.568 32.258c0 17.642 14.301 31.945 31.945 31.945 17.642 0 31.945-14.303 31.945-31.945C64.458 14.614 50.155.312 32.513.312 14.869.312.568 14.614.568 32.258z" id="g"/><path d="M.568 32.258c0 17.642 14.301 31.945 31.945 31.945 17.642 0 31.945-14.303 31.945-31.945C64.458 14.614 50.155.312 32.513.312 14.869.312.568 14.614.568 32.258" id="i"/><path d="M.568 32.258c0 17.642 14.301 31.945 31.945 31.945 17.642 0 31.945-14.303 31.945-31.945C64.458 14.614 50.155.312 32.513.312 14.869.312.568 14.614.568 32.258" id="k"/><path d="M.568 32.258c0 17.642 14.301 31.945 31.945 31.945 17.642 0 31.945-14.303 31.945-31.945C64.458 14.614 50.155.312 32.513.312 14.869.312.568 14.614.568 32.258z" id="m"/><path d="M.568 32.258c0 17.642 14.301 31.945 31.945 31.945 17.642 0 31.945-14.303 31.945-31.945C64.458 14.614 50.155.312 32.513.312 14.869.312.568 14.614.568 32.258z" id="o"/><path d="M.568 32.258c0 17.642 14.301 31.945 31.945 31.945 17.642 0 31.945-14.303 31.945-31.945C64.458 14.614 50.155.312 32.513.312 14.869.312.568 14.614.568 32.258" id="q"/><path d="M.568 32.258c0 17.642 14.301 31.945 31.945 31.945 17.642 0 31.945-14.303 31.945-31.945C64.458 14.614 50.155.312 32.513.312 14.869.312.568 14.614.568 32.258" id="s"/><path d="M.568 32.258c0 17.642 14.301 31.945 31.945 31.945 17.642 0 31.945-14.303 31.945-31.945C64.458 14.614 50.155.312 32.513.312 14.869.312.568 14.614.568 32.258" id="u"/><path d="M.568 32.258c0 17.642 14.301 31.945 31.945 31.945 17.642 0 31.945-14.303 31.945-31.945C64.458 14.614 50.155.312 32.513.312 14.869.312.568 14.614.568 32.258" id="w"/><path d="M.568 32.258c0 17.642 14.301 31.945 31.945 31.945 17.642 0 31.945-14.303 31.945-31.945C64.458 14.614 50.155.312 32.513.312 14.869.312.568 14.614.568 32.258" id="y"/><path d="M.568 32.258c0 17.642 14.301 31.945 31.945 31.945 17.642 0 31.945-14.303 31.945-31.945C64.458 14.614 50.155.312 32.513.312 14.869.312.568 14.614.568 32.258" id="A"/><path d="M.974 32.258c0 17.6 14.269 31.869 31.869 31.869 17.601 0 31.87-14.269 31.87-31.869 0-17.602-14.269-31.87-31.87-31.87C15.243.388.974 14.656.974 32.258z" id="C"/></defs><g fill="none" fill-rule="evenodd"><path fill="#FFF" d="M0 0h500v500H0z"/><path d="M426.882 179.912C353.992 122.722 285.39 24.094 285.39 24.094h-63.73S94.173 177.294 50.329 211.695" fill="#FFF"/><path d="M426.882 179.912C353.992 122.722 285.39 24.094 285.39 24.094h-63.73S94.173 177.294 50.329 211.695" stroke="#CBCBCB" stroke-width="2.863"/><path d="M343.39 77.165c5.726 4.486 10.478 13.1 10.478 19.28 0 14.454-18.746 26.212-41.788 26.212-.358 0-.716-.003-1.075-.008-8.236-.131-16.02 3.265-21.882 9.053-8.585 8.475-23.684 14.109-40.843 14.109-26.662 0-48.353-13.606-48.353-30.331v-.022c0-1.093-.933-1.953-2.013-1.774-2.91.484-5.925.734-8.974.734-19.42 0-26.944-6.588-29.608-17.613" stroke="#CBCBCB" stroke-width="2.89"/><path d="M318.246 132.783c-19.579 0-35.507-15.928-35.507-35.507 0-19.578 15.928-35.507 35.507-35.507 4.756 0 9.369.93 13.712 2.764l1.663.703.305-1.78a41.203 41.203 0 0140.719-34.317c22.78 0 41.312 18.533 41.312 41.313 0 .998-.037 2.004-.111 2.991l-.161 2.147 2.042-.683a29.525 29.525 0 019.374-1.527c16.378 0 29.702 13.324 29.702 29.701 0 16.378-13.324 29.702-29.702 29.702H318.246z" fill="#FFF"/><path d="M374.645 27.708c-21.104 0-38.684 15.372-42.13 35.507a36.566 36.566 0 00-14.269-2.877c-20.369 0-36.939 16.571-36.939 36.938 0 20.368 16.57 36.938 36.94 36.938H427.1c17.167 0 31.133-13.965 31.133-31.132S444.268 71.95 427.101 71.95c-3.362 0-6.68.55-9.828 1.601.077-1.03.115-2.064.115-3.098 0-23.569-19.174-42.744-42.743-42.744m0 2.862c21.99 0 39.881 17.891 39.881 39.882 0 .963-.036 1.932-.108 2.883l-.322 4.295 4.084-1.365a28.101 28.101 0 018.921-1.453c15.588 0 28.271 12.682 28.271 28.27s-12.683 28.27-28.27 28.27H318.245c-18.789 0-34.077-15.287-34.077-34.076s15.288-34.075 34.077-34.075c4.563 0 8.99.892 13.154 2.651l3.326 1.405.61-3.559c1.566-9.153 6.354-17.537 13.48-23.609a39.869 39.869 0 0125.83-9.519" fill="#CBCBCB"/><g transform="translate(273 19.332)"><mask id="b" fill="#fff"><use xlink:href="#a"/></mask><path d="M101.645.668A50.446 50.446 0 0068.96 12.712a50.68 50.68 0 00-14.837 21.472 44.552 44.552 0 00-8.876-.886C20.627 33.298.6 53.326.6 77.944c0 24.618 20.028 44.646 44.647 44.646h108.855c21.417 0 38.841-17.423 38.841-38.84 0-21.417-17.424-38.84-38.84-38.84-.795 0-1.587.024-2.377.072C148.688 20.046 127.387.668 101.645.668m0 7.708c23.57 0 42.743 19.175 42.743 42.744 0 1.034-.038 2.067-.115 3.098a31.011 31.011 0 019.828-1.6c17.167 0 31.133 13.965 31.133 31.132s-13.966 31.132-31.133 31.132H45.246c-20.369 0-36.939-16.57-36.939-36.938 0-20.367 16.57-36.938 36.94-36.938 4.953 0 9.78.981 14.267 2.877 3.447-20.135 21.027-35.507 42.131-35.507" fill="#FFF" mask="url(#b)"/></g><path d="M58.068 171.237c-8.212 0-14.893-6.68-14.893-14.893 0-8.21 6.681-14.891 14.893-14.891 1.598 0 3.18.257 4.7.764l2.043.684-.163-2.149a20.189 20.189 0 01-.056-1.516c0-11.569 9.412-20.98 20.98-20.98a20.925 20.925 0 0120.68 17.427l.304 1.78 1.663-.704a17.723 17.723 0 016.925-1.395c9.891 0 17.937 8.046 17.937 17.936 0 9.891-8.046 17.937-17.937 17.937H58.068z" fill="#FFF"/><path d="M85.572 116.824c-12.357 0-22.41 10.054-22.41 22.412 0 .543.018 1.084.06 1.625-1.65-.552-3.39-.84-5.154-.84-9 0-16.324 7.323-16.324 16.324 0 9 7.323 16.324 16.324 16.324h57.076c10.68 0 19.368-8.69 19.368-19.368 0-10.68-8.688-19.368-19.368-19.368-2.597 0-5.128.515-7.48 1.509-1.809-10.558-11.027-18.618-22.092-18.618m0 2.863a19.498 19.498 0 0119.27 16.238l.61 3.558 3.325-1.405a16.278 16.278 0 016.367-1.282c9.102 0 16.506 7.404 16.506 16.505 0 9.1-7.404 16.505-16.506 16.505H58.068c-7.423 0-13.462-6.04-13.462-13.461 0-7.422 6.04-13.461 13.462-13.461a13.4 13.4 0 014.246.69l4.084 1.367-.322-4.295a18.86 18.86 0 01-.053-1.41c0-10.78 8.77-19.55 19.55-19.55" fill="#CBCBCB"/><path d="M85.572 110.08c-14.043 0-25.8 9.98-28.548 23.22C44.787 133.85 35 143.977 35 156.346c0 12.72 10.348 23.068 23.068 23.068h57.076c14.4 0 26.113-11.713 26.113-26.112 0-14.398-11.714-26.112-26.113-26.112-.985 0-1.964.055-2.93.163a29.081 29.081 0 00-26.642-17.272m0 6.744c11.065 0 20.283 8.06 22.091 18.618a19.175 19.175 0 017.481-1.508c10.68 0 19.368 8.688 19.368 19.367s-8.688 19.368-19.368 19.368H58.068c-9 0-16.324-7.323-16.324-16.324 0-9.001 7.323-16.324 16.324-16.324 1.763 0 3.503.288 5.153.84a21.481 21.481 0 01-.06-1.625c0-12.358 10.054-22.412 22.411-22.412" fill="#FFF"/><path d="M328.834 369.386s-3.441 1.623-4 2.034c-.82.606-2.71-9.85-2.71-9.85l10.29 4.937-3.58 2.88zm9.758-35.291s4-.7 4.526-.893c.775-.282.18 7.123.18 7.123l-7.144-4.788 2.438-1.442z" fill="#2B5165"/><path d="M300.983 396.407l-52.866.173-52.813.172s-3.82-19.508-5.705-19.491c-1.884.016-5.595 19.592-5.595 19.592l-11.414.114s-1.052-14.57-.2-61.501c.44-24.07 19.912-32.456 16.827-75.315-5.668-78.744 25.437-90.792 42.913-93.901 7.87-1.4 22.645-1.448 30.525-.1 17.497 2.995 48.68 14.84 43.524 93.619-.403 6.174-.345 11.63.054 16.516 2.37 29.068 16.755 38.087 17.263 58.688 1.16 46.925.201 61.5.201 61.5l-11.414-.038s-3.839-19.551-5.722-19.556c-1.884-.004-5.578 19.528-5.578 19.528" fill="#FF3434"/><path d="M300.983 396.407l-52.866.173-52.813.172s-3.82-19.508-5.705-19.491c-1.884.016-5.595 19.592-5.595 19.592l-11.414.114s-1.052-14.57-.2-61.501c.44-24.07 19.912-32.456 16.827-75.315-5.668-78.744 25.437-90.792 42.913-93.901 7.87-1.4 22.645-1.448 30.525-.1 17.497 2.995 48.68 14.84 43.524 93.619-.403 6.174-.345 11.63.054 16.516 2.37 29.068 16.755 38.087 17.263 58.688 1.16 46.925.201 61.5.201 61.5l-11.414-.038s-3.839-19.551-5.722-19.556c-1.884-.004-5.578 19.528-5.578 19.528z" stroke="#FF3434" stroke-linecap="round" stroke-linejoin="round"/><path d="M229.966 287.783c.185 0 34.604-.104 35.122 0 .519.104-3.78 4.733-3.78 4.733s-19.042 1.81-19.301 1.705c-.26-.104-12.486-5.672-12.486-5.672l.445-.766zm-63.472 82.914s3.945.577 4.469.765c.771.275-.147-7.983-.147-7.983l-5.494 6.999 1.172.219zm-9.498-36.32s-4-.701-4.526-.893c-.775-.282-.18 7.123-.18 7.123l5.893-5.98-1.187-.25z" fill="#2B5165"/><path d="M334.727 330.212c-19.506-13.281-19.796-8.961-30.582 8.377 21.156 18.644 11.298 20.527 41.582 35.923 37.34 18.98 81.532.228 92.341-46.192-4.794.292-10.91-1.61-16.477-2.395-16.977 26.264-27.18 36.866-57.099 26.377-14.478-5.076-19.975-15.423-29.765-22.09-.897-1.02-.689-.754 0 0M207.08 218.682c-.186-.23-9.602-3.366-9.438 6.646.167 10.013 6.682 8.636 9.686 8.88 3.005.242-.061-15.3-.248-15.526m40.24 52.48c-27.087-4.561-33.703-15.281-34.132-18.601-1.609-12.414-2.116-53.704-2.116-53.704l36.036-13.102 36.13 12.867s-.24 41.292-1.767 53.717c-.405 3.299-6.864 13.936-33.449 18.723-.186.034-.702.1-.702.1" fill="#F1D5C3"/><path d="M228.28 218.786c1.621-.005 2.945 2.216 2.954 4.958.01 2.744-1.3 4.975-2.923 4.98-1.622.006-2.946-2.218-2.956-4.96-.009-2.743 1.301-4.973 2.924-4.978m40.318-.131c1.622-.005 2.946 2.216 2.955 4.958.01 2.743-1.301 4.975-2.923 4.979-1.622.006-2.946-2.216-2.955-4.959-.01-2.743 1.3-4.973 2.923-4.978" fill="#000"/><path d="M247.486 241.792c-.733-.204-2.199-.611-2.398-1.54-.278-1.288.356-4.144.733-6.185.395-2.142 1.37-5.566 1.644-6.68.281 1.112 1.277 4.529 1.69 6.67.39 2.039 1.04 4.889.77 6.179-.193.93-1.655 1.347-2.385 1.555" fill="#FF3434"/><path d="M171.955 361.804c17.204-25.255-14.279-26.957-14.279-26.957s-17.455 14.448-26.942 40.365c-11.698 31.957-10.599 77.726 58.433 91.648l-2.442-20.53c-12.102-1.992-42.601-17.165-32.433-52.059 4.921-16.885 9.028-19.789 17.663-32.467m75.229-91.607l-11.792-2.608-.306 26.887 12.212 2.862.357-.001 12.191-2.942-.48-26.885-11.774 2.686" fill="#F1D5C3"/><path d="M248.074 438.339s-47.73.409-48.067-4.969c-1.27-20.329 3.994-80.66 3.994-80.66s-34.294 25.012-33.338 17.615c1.163-8.998-10.983-30.66-18.338-36.07-3.857-2.837 70.973-53.325 80.571-45.673 4.755 3.79 14.703 4.426 14.703 4.426s9.947-.7 14.676-4.522c9.55-7.714 84.706 42.286 80.866 45.147-7.318 5.458-19.174 27.62-17.953 36.61 1.004 7.39-33.599-17.82-33.599-17.82s5.656 60.298 4.518 80.635c-.302 5.38-48.033 5.28-48.033 5.28" fill="#69BAC9"/><g transform="translate(177 463.332)"><mask id="d" fill="#fff"><use xlink:href="#c"/></mask><path d="M14.73 7.316c1.704 1.59 3.293 3.976 3.865 6.094.156.58-.075 3.068-1.277 2.51-1.312-.613-2.23-2.222-3.5-3.013-1.058-.657-2.117-1.302-3.22-1.89-.788-.42-1.606-.78-2.392-1.2C5.473 8.357-2.14 4.22 2.022.592" fill="#F1D5C3" mask="url(#d)"/></g><path d="M180.047 459.78c-.72.681-1.764 2.773-1.214 3.545 1.533 2.143 4.798 3.056 7.086 4.122 2.992 1.396 5.628 3.1 8.375 4.811 1.243.771 4.71 3.554 5.795 2.225 2.142-2.627-3.388-8.855-4.194-9.608" fill="#F1D5C3"/><path d="M191.785 470.694c-1.869-1.533-6.131-3.594-7.786-4.256-1.507-.641-3.307-1.732-4.413-2.926-.154-.187-.363-.369-.424-.604-.075-.643.269-1.266.601-1.808.163-.272.392-.504.598-.745.166-.269-.031-.63-.361-.664-.354-.035-.553.3-.75.521a5.727 5.727 0 00-.833 1.449c-.176.47-.299.988-.176 1.482.082.352.344.631.575.905 1.997 2.178 5.069 2.953 7.715 4.197 1.049.493 1.539.623 4.233 2.002.617.315.983.458 1.021.447" fill="#E5B79E"/><path d="M179.7 452.496c-.464.53-.887 1.336-1.256 2.609-.407 1.398.08 3.195 1.174 4.474.98 1.146 3.988 1.357 5.517 1.71 3.61.839 7.425 2.082 10.573 3.716.787.407 4.001 3.097 5.527.51 1.216-2.06-3.597-6.616-5.573-7.507" fill="#F1D5C3"/><path d="M196.475 465.485c-.647-.293-1.446-.792-1.936-1.086-1.192-.55-1.59-.734-2.85-1.233-2.484-.957-4.314-1.853-6.928-2.416-1.398-.276-2.885-.397-4.172-1.016-.535-.245-.862-.735-1.142-1.207-.48-.842-.745-1.813-.65-2.77.115-.786.418-1.551.782-2.264.195-.459 1.097-1.139.215-1.441-.338-.07-.54.23-.703.456a6.408 6.408 0 00-.733 1.373c-.62 1.371-.727 2.923-.119 4.317l.065.154c.291.639.665 1.274 1.2 1.761.769.627 1.79.878 2.76 1.097 1.951.343 3.91.727 5.802 1.308 3.032.914 7.833 2.808 8.358 2.959l.05.008" fill="#E5B79E"/><path d="M192.61 444.477c.081.19-.277.028-.432.07-1.316.36-2.508.3-3.856.444-2.477.266-6.017.23-8.355 1.061-1.558.556-2.726 2.996-2.188 4.497.515 1.434 3.277 2.717 4.694 3.093 4.616 1.225 9.474 3.046 13.977 4.62 1.604.562 5.306 1.852 5.801 1.472 4.48-3.44-5.85-8.578-9.779-9.488-1.1-.255-3.666-1.165-4.048-2.233" fill="#F1D5C3"/><path d="M195.705 458.005c-.022-.29-8.49-3.519-14.047-5.111-.905-.36-1.784-.813-2.538-1.41-.572-.438-1.041-1.05-.996-1.774.04-1.135.598-2.3 1.56-3.001.618-.358 2.525-1.156 3.246-1.276-.226-.074-.425-.144-.545-.173-.151-.038-.41-.163-.666-.104-.812.14-1.61.334-2.353.673-1.506.921-2.375 2.755-2.153 4.423.388 1.86 2.573 2.834 4.252 3.537" fill="#E5B79E"/><path d="M247.894 207.203c-.857.003-18.894.102-18.894.102s-1.314-15.1-2.11-15.094c-.796.006-2.67 15.127-2.67 15.127l-15.827-.122s-.069-7.623-.102-14.534l-.022-6.917 39.554-.49v.002l39.555.232.023 6.92c.013 6.908-.007 14.531-.007 14.531l-15.825.227s-1.974-15.11-2.77-15.11-2.01 15.106-2.01 15.106-18.039.02-18.895.022" fill="#FF3434"/><path d="M247.894 207.203c-.857.003-18.894.102-18.894.102s-1.314-15.1-2.11-15.094c-.796.006-2.67 15.127-2.67 15.127l-15.827-.122s-.069-7.623-.102-14.534l-.022-6.917 39.554-.49v.002l39.555.232.023 6.92c.013 6.908-.007 14.531-.007 14.531l-15.825.227s-1.974-15.11-2.77-15.11-2.01 15.106-2.01 15.106-18.039.02-18.895.022" stroke="#FF3434" stroke-linecap="round" stroke-linejoin="round"/><path d="M233.275 248.594c3.872 4.263 25.43 3.368 28.546-.11" stroke="#DF715C" stroke-width=".5" stroke-linecap="round" stroke-linejoin="round"/><path d="M235.375 268.301s-.195 3.98-.197 4.72c-.004.92.005 1.387.005 1.387l24.276-2.336-.013-3.797-24.071.026z" fill="#DF715C"/><path d="M193.24 360.193c.314-.303 11.844-23.917 11.844-23.917l-1.083 16.447s-11.076 7.774-10.76 7.47m109.119-.279c-.314-.303-11.845-23.917-11.845-23.917l1.084 16.447s11.075 7.774 10.761 7.47" fill="#2B5165"/><path d="M305.234 449.231c.037-.014.24.002.663-.052.637-.08.964-.259 1.423-.787.267-.276.677-.789.701-.419-.116.301-.396.57-.83 1.044-.436.475-1.697.536-1.895.636l-.062-.422" fill="#E5B79E"/><path d="M116.82 280.72c1.108 17.695 10.926 33.658 25.988 42.265 3.4 1.942 7.703-.017 8.58-3.929l.682-3.04c.567-2.538-.535-5.13-2.715-6.435-4.994-2.989-9.246-7.178-12.42-12.333a38.064 38.064 0 01-5.544-16.89c-.212-2.588-2.02-4.727-4.496-5.28l-2.962-.665c-3.812-.853-7.364 2.315-7.114 6.307" fill="#69BAC9"/><path d="M406.203 223.093c15.437 5.994 26.865 19.249 30.264 35.09.766 3.576-2.195 6.851-5.925 6.524l-2.9-.254c-2.418-.212-4.414-1.927-4.958-4.236-1.247-5.29-3.773-10.26-7.461-14.544a35.543 35.543 0 00-13.465-9.714c-2.244-.92-3.635-3.137-3.428-5.496l.247-2.824c.318-3.635 4.144-5.9 7.626-4.547" fill="#EEA8A8"/><path d="M441.206 331.095h-26.758a1.141 1.141 0 01-1.138-1.138v-58.079a1.14 1.14 0 011.138-1.137h26.758c.625 0 1.138.511 1.138 1.137v58.08c0 .625-.513 1.137-1.138 1.137" fill="#FFF"/><path d="M441.206 331.095h-26.758a1.141 1.141 0 01-1.138-1.138v-58.079a1.14 1.14 0 011.138-1.137h26.758c.625 0 1.138.511 1.138 1.137v58.08c0 .625-.513 1.137-1.138 1.137z" stroke="#666" stroke-width=".948"/><path d="M434.214 273.471H421.37a1.141 1.141 0 01-1.137-1.139v-.797a1.14 1.14 0 011.137-1.137h12.844a1.14 1.14 0 011.138 1.137v.797c0 .626-.512 1.14-1.138 1.14" fill="#666"/><path d="M417.495 275.963l-.027.014.027-.014m-.028.013zm.108-.057l-.026.016.026-.016m-.051.029h-.003.003m.025-.014l-.024.014.024-.014m-.028.015a.715.715 0 01-.026.014l.026-.014" fill="#5600B7"/><path d="M412.695 303.197s-6.975 5.753-4.026 9.132c2.948 3.38 8.843 2.948 10.353 1.798 1.511-1.151 2.814-4.5 1.293-4.918-1.136-.313-7.496-.527-7.548-2.13-.034-1.028-.072-3.882-.072-3.882M181.719 445.156c6.23-3.284 9.908-.415 12.773-.68 1.882-.173 3.339-.272 4.56-.731 1.269-.478 2.687.39 2.649 1.745l-.001.033c-.035 1.118-.384 2.269-1.178 3.057-.777.77-1.871 1.107-2.92 1.418-2.951.874-6.133 1.747-9.05.76" fill="#F1D5C3"/><path d="M194.397 450.844c-3.367-.459-8.984-3.089-11.65-4.584-.552-.31-1.075-.973-1.185-1.016l.284-.155c.13-.09.471-.184 1.377.323 2.41 1.352 8.487 3.93 11.174 5.432" fill="#E5B79E"/><path d="M423.632 283.296a5.2 5.2 0 012.107-1.286.823.823 0 00.575-.782v-.428a.82.82 0 00-1.06-.784 7.288 7.288 0 00-4.9 4.892.82.82 0 00.785 1.06h.428a.822.822 0 00.78-.573c.252-.784.686-1.5 1.285-2.1m7.392.001a5.201 5.201 0 011.283 2.099c.11.34.424.573.781.573h.43a.821.821 0 00.783-1.06 7.291 7.291 0 00-4.879-4.886.82.82 0 00-1.059.784v.428c0 .358.231.672.571.782.78.25 1.494.684 2.09 1.28" fill="#EE3434"/><path d="M433.515 288.017h-.426a.822.822 0 00-.782.575c-.24.75-.65 1.44-1.21 2.022a5.378 5.378 0 01-1.08.862 4.554 4.554 0 01-.508.268.819.819 0 01-1.157-.748v-.457c0-.303.163-.585.434-.725a3.2 3.2 0 001.548-1.797c.118-.35.18-.726.168-1.118a3.186 3.186 0 00-3.004-3.079c-.01 0-.024 0-.036-.002h-.036c-.012-.002-.024-.002-.036-.002h-.147a.482.482 0 01-.038.001l-.036.002-.013.001a3.186 3.186 0 00-3.002 3.08c-.012.391.048.767.168 1.117a3.196 3.196 0 001.548 1.797c.27.14.433.422.433.725v.457a.82.82 0 01-1.156.748 5.356 5.356 0 01-1.588-1.13 5.18 5.18 0 01-1.21-2.022.822.822 0 00-.782-.575h-.428a.82.82 0 00-.786 1.056 7.133 7.133 0 00.61 1.45c.126.227.266.448.415.661a7.33 7.33 0 001.028 1.167 7.086 7.086 0 001.25.925c.226.133.46.253.698.36a7.196 7.196 0 002.32.605 7.17 7.17 0 001.81-.064 7.074 7.074 0 001.54-.424 7.306 7.306 0 004.183-4.384 6.36 6.36 0 00.094-.296.82.82 0 00-.786-1.056" fill="#37AFCA"/><path d="M441.09 320.735c-1.042 1.59-2.013 3.976-2.362 6.093-.097.581.046 3.069.78 2.509.803-.612 1.363-2.22 2.14-3.011a36.68 36.68 0 011.969-1.891c.482-.419.982-.781 1.462-1.2 1.67-1.458 6.325-5.597 3.782-9.224" fill="#F1D5C3"/><path d="M448.233 309.866c.44.68 1.08 2.773.742 3.545-.936 2.143-2.932 3.056-4.332 4.122-1.829 1.396-3.44 3.1-5.12 4.81-.76.772-2.88 3.555-3.543 2.226-1.31-2.627 2.071-8.854 2.564-9.607" fill="#F1D5C3"/><path d="M448.988 313.302c-.005-.05-.02-.1-.02-.15a1.836 1.836 0 01-.23-.052c-.053.183-.145.343-.223.5-.676 1.192-1.776 2.282-2.698 2.925-1.012.662-3.618 2.722-4.76 4.256.023.01.247-.133.624-.449 1.647-1.378 1.947-1.508 2.588-2 1.6-1.23 3.451-2.008 4.673-4.13l-.04-.33c-.007-.16.032-.308.092-.449-.005-.04-.003-.08-.006-.12" fill="#E5B79E"/><path d="M448.445 302.582c.284.53.543 1.336.77 2.609.248 1.398-.05 3.195-.719 4.475-.599 1.145-2.439 1.356-3.373 1.71-2.207.839-4.54 2.08-6.465 3.716-.482.406-2.446 3.097-3.379.51-.744-2.06 2.198-6.616 3.407-7.507" fill="#F1D5C3"/><path d="M448.038 309.668c-.045.052-.084.114-.136.153-.788.618-1.695.74-2.551 1.016-1.598.563-2.716 1.458-4.235 2.416-.771.498-1.014.683-1.743 1.232-.299.295-.789.794-1.184 1.086l.031-.007c.322-.151 3.256-2.044 5.11-2.96 1.157-.581 2.354-.963 3.548-1.308.593-.22 1.218-.47 1.687-1.097.044-.065.077-.145.112-.222a2.073 2.073 0 01-.639-.31" fill="#E5B79E"/><path d="M442.923 295.04c.87 0 2.23.057 3.055.2 1.513.267.875.155 2.304.986.953.555 1.667 2.996 1.338 4.497-.314 1.433-2.004 2.717-2.87 3.093-2.822 1.225-5.792 3.045-8.545 4.62-.981.562-3.245 1.85-3.547 1.47-2.74-3.438 3.578-8.577 5.979-9.487.674-.255 2.083-1.161 2.316-2.23" fill="#F1D5C3"/><path d="M448.245 302.14a6.09 6.09 0 01-.996.84c-3.399 1.593-8.575 4.821-8.589 5.111 1.486-.352 6.009-2.948 8.707-4.216.474-.324.998-.73 1.463-1.233a6.681 6.681 0 01-.585-.503" fill="#E5B79E"/><path fill="#FFF" d="M432.937 315.571l-7.027 7.026-3.194-3.193"/><path stroke="#37B1CC" stroke-width="2" stroke-linecap="round" stroke-linejoin="round" d="M432.937 315.571l-7.027 7.026-3.194-3.193"/><path d="M166.458 234.59c0 17.642-14.303 31.944-31.945 31.944-17.644 0-31.946-14.302-31.946-31.945 0-17.644 14.302-31.946 31.946-31.946 17.642 0 31.945 14.302 31.945 31.946" fill="#69BAC9"/><g transform="translate(102 202.332)"><mask id="f" fill="#fff"><use xlink:href="#e"/></mask><path fill="#E0B094" mask="url(#f)" d="M32.12 55.896l-4.526-.436-.136 4.576 4.687.478h.136l4.684-.51-.166-4.574-4.523.466"/></g><g transform="translate(102 202.332)"><mask id="h" fill="#fff"><use xlink:href="#g"/></mask><path fill="#AA5D48" mask="url(#h)" d="M27.63 54.418l-.061 1.905 9.223-.24-.005-1.673z"/></g><g transform="translate(102 202.332)"><mask id="j" fill="#fff"><use xlink:href="#i"/></mask><path d="M15.6 35.19c0 2.271-1.403 4.11-3.136 4.11-1.73 0-3.135-1.839-3.135-4.11 0-2.27 1.404-4.11 3.135-4.11 1.732 0 3.136 1.84 3.136 4.11" fill="#E0B094" mask="url(#j)"/></g><g transform="translate(102 202.332)"><mask id="l" fill="#fff"><use xlink:href="#k"/></mask><path d="M48.492 35.19c0 2.271 1.403 4.11 3.136 4.11 1.731 0 3.135-1.839 3.135-4.11 0-2.27-1.404-4.11-3.135-4.11-1.733 0-3.136 1.84-3.136 4.11" fill="#E0B094" mask="url(#l)"/></g><g transform="translate(102 202.332)"><mask id="n" fill="#fff"><use xlink:href="#m"/></mask><path d="M32.042 5.574c8.227-.175 6.834 3.222 8.176 3.39 1.235.154 3.2-2.094 9.228 2.6 6.024 4.69 2.069 11.274 2.787 11.322.718.048 2.394 1.462 2.394 5.63 0 4.165-4.837 6.56-4.837 6.56s3.64 9.77-2.012 15.326c-5.651 5.554-15.66 4.884-15.66 4.884h-.143s-10.01.67-15.662-4.884c-5.651-5.556-2.01-15.327-2.01-15.327s-4.838-2.394-4.838-6.56c0-4.167 1.458-5.46 2.176-5.509.718-.048-3.02-6.753 3.005-11.442 6.029-4.694 7.993-2.446 9.229-2.6 1.342-.168-.051-3.565 8.176-3.39h-.01z" fill="#383838" mask="url(#n)"/></g><g transform="translate(102 202.332)"><mask id="p" fill="#fff"><use xlink:href="#o"/></mask><path d="M32.042 41.692c.272-.034 12.515 2.156 12.515-4.308 0-3.344-.274-5.855-.537-7.498-.225-1.404-.098-2.827.306-4.194.485-1.64.58-3.847-2.07-4.456-3.043-.7-2.567.227-4.838 2.6-1.763 1.836-8.981 1.836-10.743 0-2.272-2.373-1.796-3.3-4.84-2.6-2.648.61-2.553 2.816-2.068 4.456.403 1.367.53 2.79.305 4.194-.263 1.643-.536 4.154-.536 7.498 0 6.464 12.24 4.274 12.515 4.308h-.01z" fill="#E0B094" mask="url(#p)"/></g><g transform="translate(102 202.332)"><mask id="r" fill="#fff"><use xlink:href="#q"/></mask><path d="M31.798 36.579l-1.07 3.235a.265.265 0 00.25.348h2.142c.18 0 .308-.177.25-.348l-1.07-3.235a.265.265 0 00-.502 0" fill="#DF715C" mask="url(#r)"/></g><g transform="translate(102 202.332)"><mask id="t" fill="#fff"><use xlink:href="#s"/></mask><path d="M24.717 33.383c0 1.313-.627 2.375-1.4 2.375-.772 0-1.4-1.063-1.4-2.375s.628-2.376 1.4-2.376c.773 0 1.4 1.064 1.4 2.376" fill="#383838" mask="url(#t)"/></g><g transform="translate(102 202.332)"><mask id="v" fill="#fff"><use xlink:href="#u"/></mask><path d="M26.61 34.861s.334 1.207-1.208 2.046" stroke="#383838" stroke-width=".475" stroke-linecap="round" mask="url(#v)"/></g><g transform="translate(102 202.332)"><mask id="x" fill="#fff"><use xlink:href="#w"/></mask><path d="M39.376 33.383c0 1.313.626 2.375 1.399 2.375s1.4-1.063 1.4-2.375-.627-2.376-1.4-2.376c-.773 0-1.4 1.064-1.4 2.376" fill="#383838" mask="url(#x)"/></g><g transform="translate(102 202.332)"><mask id="z" fill="#fff"><use xlink:href="#y"/></mask><path d="M37.483 34.861s-.336 1.207 1.207 2.046" stroke="#383838" stroke-width=".475" stroke-linecap="round" mask="url(#z)"/></g><g transform="translate(102 202.332)"><mask id="B" fill="#fff"><use xlink:href="#A"/></mask><path d="M34.91 46.319c0 1.213-5.717 1.213-5.717 0" stroke="#DF715C" stroke-width=".475" mask="url(#B)"/></g><path d="M392.713 234.59c0 17.6-14.27 31.868-31.87 31.868s-31.868-14.268-31.868-31.869c0-17.602 14.268-31.87 31.869-31.87 17.6 0 31.869 14.268 31.869 31.87" fill="#FF3434"/><g transform="translate(328 202.332)"><mask id="D" fill="#fff"><use xlink:href="#C"/></mask><path fill="#F9E6DC" mask="url(#D)" d="M27.515 61.357h11.737v-8.98H27.515z"/><path d="M33.495 25.357h15.352s-.126 26.062 0 26.271c.125.21-4.809 3.347-15.352 3.347-10.544 0-15.477-3.138-15.352-3.347.126-.209 0-26.27 0-26.27h15.352z" fill="#F9E6DC" mask="url(#D)"/><path d="M27.063 34.449c0 1.368-.573 2.478-1.279 2.478-.707 0-1.28-1.11-1.28-2.478s.573-2.477 1.28-2.477c.706 0 1.28 1.109 1.28 2.477m15.377 0c0 1.368-.573 2.478-1.279 2.478-.707 0-1.28-1.11-1.28-2.478s.573-2.477 1.28-2.477c.706 0 1.28 1.109 1.28 2.477" fill="#383838" mask="url(#D)"/><g mask="url(#D)"><path d="M28.438 48.603c0 1.27 10.126 1.27 10.126 0" fill="#E58585"/><path d="M28.438 48.603c0 1.27 10.126 1.27 10.126 0" stroke="#E58585" stroke-width=".454" stroke-linecap="round" stroke-linejoin="round"/></g><path d="M33.176 40.13c.142-.434.497-.434.639 0l.512 1.569.512 1.569c.142.435-.035.979-.32.979h-2.048c-.284 0-.462-.544-.32-.98l.512-1.568.513-1.568z" fill="#E58585" mask="url(#D)"/><path d="M33.176 40.13c.142-.434.497-.434.639 0l.512 1.569.512 1.569c.142.435-.035.979-.32.979h-2.048c-.284 0-.462-.544-.32-.98l.512-1.568.513-1.568z" stroke="#E58585" stroke-width=".454" stroke-linecap="round" stroke-linejoin="round" mask="url(#D)"/><path d="M9.515 13.55S5.14 25.358 17.791 25.358h29.295v10.155h3.66V19c0-3.572-1.407-7.039-4.026-9.466-2.593-2.406-6.736-4.592-13.225-4.592-12.618 0-16.636 6.117-17.444 7.647-.24.452-.537.877-.925 1.21-.954.825-2.816 1.677-5.61-.248" fill="#2B5165" mask="url(#D)"/><path fill="#2B5165" mask="url(#D)" d="M15.557 35.514h3.745V19.982h-3.745z"/><path d="M18.919 35.843c0 2.137.042 5.386-1.633 5.386-1.676 0-4.434-3.248-4.434-5.386 0-2.139 1.358-3.87 3.034-3.87 1.675 0 3.033 1.732 3.033 3.87m28.471 0c0 2.137-.043 5.386 1.633 5.386s4.434-3.248 4.434-5.386c0-2.139-1.358-3.87-3.034-3.87-1.675 0-3.034 1.732-3.034 3.87" fill="#F9E6DC" mask="url(#D)"/><path fill="#D6948B" mask="url(#D)" d="M27.515 54.606l-.024 2.21 11.76-.592v-1.59z"/></g><path d="M392.713 234.59c0 17.6-14.27 31.868-31.87 31.868s-31.868-14.268-31.868-31.869c0-17.602 14.268-31.87 31.869-31.87 17.6 0 31.869 14.268 31.869 31.87z" stroke="#FF3434" stroke-linecap="round" stroke-linejoin="round"/></g></svg>