<?xml version="1.0" encoding="UTF-8"?>
<!-- by Tanja Rohlfs (https://consento.org/team/tanja) - license: CC-BY-NC-SA (see: https://creativecommons.org/licenses/by-nc-sa/4.0/) -->
<svg width="120" height="120" xmlns="http://www.w3.org/2000/svg" xmlns:xlink="http://www.w3.org/1999/xlink"><defs><path id="a" d="M.242.336h56.989v56.6H.242z"/></defs><g fill="none" fill-rule="evenodd"><path fill="#FFF" d="M0 0h120v120H0z"/><path d="M72.237 25.532a21.97 21.97 0 00-15.64 6.478c-8.624 8.624-8.624 22.656 0 31.28a21.974 21.974 0 0015.64 6.478c5.907 0 11.462-2.3 15.64-6.478 8.623-8.624 8.623-22.656 0-31.28a21.975 21.975 0 00-15.64-6.478m0 45.625c-6.023 0-12.045-2.292-16.63-6.877-9.17-9.17-9.17-24.09 0-33.26 9.17-9.17 24.09-9.17 33.26 0 9.169 9.17 9.169 24.09 0 33.26-4.585 4.585-10.608 6.877-16.63 6.877" fill="#37B1CC"/><g transform="translate(43.5 19.014)"><mask id="b" fill="#fff"><use xlink:href="#a"/></mask><path d="M28.736 1.735c-6.938 0-13.877 2.624-19.16 7.872C4.46 14.69 1.642 21.448 1.642 28.636c0 7.188 2.818 13.946 7.934 19.029 10.566 10.497 27.756 10.496 38.32 0 5.117-5.083 7.935-11.841 7.935-19.029 0-7.188-2.818-13.946-7.934-19.03-5.283-5.247-12.222-7.871-19.16-7.871m0 55.2c-7.297 0-14.593-2.758-20.147-8.277C3.207 43.31.242 36.2.242 28.636c0-7.564 2.965-14.674 8.348-20.022 11.109-11.037 29.184-11.037 40.294 0 5.382 5.348 8.347 12.458 8.347 20.022 0 7.563-2.965 14.674-8.347 20.022-5.555 5.519-12.851 8.278-20.148 8.278" fill="#37B1CC" mask="url(#b)"/></g><path d="M22.722 98.346a2.803 2.803 0 003.96 0l24.733-24.734-5.464-5.463-24.733 24.733a2.803 2.803 0 000 3.96l1.504 1.504zm1.98 2.218a4.187 4.187 0 01-2.97-1.228l-1.504-1.505a4.204 4.204 0 010-5.94l25.723-25.723 7.444 7.444-25.723 25.724a4.187 4.187 0 01-2.97 1.228z" fill="#37B1CC"/><path d="M83.301 38.288h-21.77a.7.7 0 010-1.4H83.3a.7.7 0 010 1.4m.001 5.646h-21.77a.7.7 0 010-1.4H83.3a.7.7 0 010 1.4m.001 14.116h-21.77a.7.7 0 010-1.4H83.3a.7.7 0 010 1.4m-4.081-16.939H66.066a.7.7 0 010-1.4h13.153a.7.7 0 010 1.4m0 5.647H66.066a.7.7 0 010-1.4h13.153a.7.7 0 010 1.4m4.536 2.822H70.602a.7.7 0 010-1.4h13.153a.7.7 0 010 1.4m-9.071 2.824H61.53a.7.7 0 010-1.4h13.153a.7.7 0 010 1.4m.001 2.823H61.53a.7.7 0 010-1.4h13.153a.7.7 0 010 1.4" fill="#F03434"/></g></svg>